<svg width="55" height="54" viewBox="0 0 55 54" fill="none" xmlns="http://www.w3.org/2000/svg">
<g id="circle-flags:au" clip-path="url(#clip0_33696_6364)">
<g id="Mask group">
<mask id="mask0_33696_6364" style="mask-type:luminance" maskUnits="userSpaceOnUse" x="0" y="-1" width="55" height="55">
<g id="Group">
<path id="Vector" d="M27.4359 53.655C42.2532 53.655 54.265 41.6432 54.265 26.8259C54.265 12.0086 42.2532 -0.00323486 27.4359 -0.00323486C12.6186 -0.00323486 0.606781 12.0086 0.606781 26.8259C0.606781 41.6432 12.6186 53.655 27.4359 53.655Z" fill="white"/>
</g>
</mask>
<g mask="url(#mask0_33696_6364)">
<g id="Group_2">
<path id="Vector_2" d="M0.606781 -0.00323486H54.265V53.655H0.606781V-0.00323486Z" fill="#0052B4"/>
<path id="Vector_3" d="M16.7462 31.4371L18.2134 34.5812L21.567 33.7428L20.0998 36.8868L22.7198 38.9828L19.3662 39.7164L19.471 43.1749L16.7462 40.974L14.0213 43.1749L14.1261 39.7164L10.6677 38.9828L13.3925 36.8868L11.9253 33.7428L15.2789 34.5812L16.7462 31.4371ZM40.012 28.6075H44.9377L40.9552 31.4371L42.5273 26.8259L43.9945 31.4371L40.012 28.6075ZM40.7456 11.6297L41.4793 13.2017L43.1561 12.7825L42.4225 14.3545L43.6801 15.4025L42.1081 15.7169V17.4986L40.7456 16.3458L39.3832 17.4986V15.7169L37.8112 15.4025L39.0688 14.3545L38.3352 12.7825L40.012 13.2017L40.7456 11.6297ZM46.7193 18.6514L47.4529 20.2234L49.1297 19.8042L48.3961 21.3762L49.6537 22.4242L48.0817 22.7386V24.4154L46.7193 23.3674L45.3569 24.5202V22.7386L43.7849 22.4242L45.0425 21.3762L44.3089 19.8042L45.9857 20.2234L46.7193 18.6514ZM33.9336 20.957L34.6672 22.529L36.344 22.1098L35.6104 23.6818L36.868 24.7299L35.296 25.0443V26.7211L33.9336 25.6731L32.5711 26.8259V25.0443L30.9991 24.7299L32.2567 23.6818L31.5231 22.1098L33.2 22.529L33.9336 20.957ZM40.7456 37.306L41.4793 38.878L43.1561 38.4588L42.4225 40.0308L43.6801 41.0788L42.1081 41.3932V43.1749L40.7456 42.022L39.3832 43.1749V41.3932L37.8112 41.0788L39.0688 40.0308L38.3352 38.4588L40.012 38.878L40.7456 37.306ZM0.606781 -0.00323486V3.3504L3.96042 6.70404L0.606781 10.0577V26.8259H3.96042L7.31406 23.4722L10.6677 26.8259H14.0213V18.1274L22.7198 26.8259H27.4359L26.5975 25.1491L27.4359 23.577V22.1098L18.7374 13.4113H27.4359V10.0577L24.0823 6.70404L27.4359 3.3504V-0.00323486H10.6677L7.31406 3.3504L3.96042 -0.00323486H0.606781Z" fill="#EEEEEE"/>
<path id="Vector_4" d="M3.96042 -0.00323486V3.3504H0.606781V10.0577H3.96042V26.8259H10.6677V10.0577H27.4359V3.3504H10.6677V-0.00323486H3.96042ZM14.0213 13.4113L27.4359 26.8259V23.577L17.2702 13.4113H14.0213Z" fill="#D80027"/>
</g>
</g>
</g>
</g>
<defs>
<clipPath id="clip0_33696_6364">
<rect width="53.6582" height="53.6582" fill="white" transform="translate(0.606384 -0.00238037)"/>
</clipPath>
</defs>
</svg>
