<svg width="55" height="54" viewBox="0 0 55 54" fill="none" xmlns="http://www.w3.org/2000/svg">
<g id="circle-flags:nz" clip-path="url(#clip0_33696_6412)">
<g id="Mask group">
<mask id="mask0_33696_6412" style="mask-type:luminance" maskUnits="userSpaceOnUse" x="0" y="0" width="55" height="54">
<g id="Group">
<path id="Vector" d="M27.4668 53.6723C42.2841 53.6723 54.2959 41.6605 54.2959 26.8431C54.2959 12.0258 42.2841 0.0140381 27.4668 0.0140381C12.6495 0.0140381 0.637695 12.0258 0.637695 26.8431C0.637695 41.6605 12.6495 53.6723 27.4668 53.6723Z" fill="white"/>
</g>
</mask>
<g mask="url(#mask0_33696_6412)">
<g id="Group_2">
<path id="Vector_2" d="M27.4668 0.0140381H54.2959V53.6723H0.637695V26.8431L27.4668 0.0140381Z" fill="#0052B4"/>
<path id="Vector_3" d="M0.637695 0.0140381V3.36768L3.99133 6.72132L0.637695 10.075V26.8431H3.99133L7.34497 23.4895L10.6986 26.8431H14.0522V18.1446L22.7507 26.8431H27.4668L26.6284 25.1663L27.4668 23.5943V22.1271L18.7683 13.4286H27.4668V10.075L24.1132 6.72132L27.4668 3.36768V0.0140381H10.6986L7.34497 3.36768L3.99133 0.0140381H0.637695ZM40.6718 9.65575L39.5189 13.3238H35.6413L38.7853 15.5246L37.5277 19.1927L40.6718 16.887L43.8158 19.1927L42.5582 15.5246L45.7022 13.3238H41.8246L40.6718 9.65575ZM47.0646 17.2014L45.9118 20.8695H42.0342L45.1782 23.0703L44.0254 26.7383L47.0646 24.5375L50.2087 26.7383L48.951 23.0703L52.0951 20.8695H48.2174L47.0646 17.2014ZM34.1741 18.2494L33.0213 21.9175H29.1436L32.2877 24.2231L31.1348 27.8912L34.1741 25.5855L37.3181 27.8912L36.1653 24.2231L39.2045 21.9175H35.4317L34.1741 18.2494ZM40.3573 31.8736L39.2045 35.5416H35.3269L38.4709 37.7425L37.3181 41.4105L40.3573 39.2097L43.5014 41.4105L42.3486 37.7425L45.3878 35.5416H41.615L40.3573 31.8736Z" fill="#EEEEEE"/>
<path id="Vector_4" d="M3.99133 0.0140381V3.36768H0.637695V10.075H3.99133V26.8431H10.6986V10.075H27.4668V3.36768H10.6986V0.0140381H3.99133ZM14.0522 13.4286L27.4668 26.8431V23.5943L17.3011 13.4286H14.0522ZM40.3573 34.4936L39.8333 36.3801H37.8421L39.4141 37.4281L38.7853 39.3145L40.3573 38.1617L41.9294 39.3145L41.4054 37.4281L42.8726 36.3801H40.9862L40.3573 34.4936ZM34.1741 20.9743L33.6501 22.7559H31.6588L33.2309 23.9087L32.6021 25.6903L34.1741 24.5375L35.7461 25.6903L35.1173 23.9087L36.6893 22.7559H34.8029L34.1741 20.9743ZM47.0646 19.8215L46.4358 21.7079H44.5494L46.1214 22.8607L45.4926 24.6423L47.0646 23.4895L48.6366 24.6423L48.0078 22.8607L49.5799 21.7079H47.6934L47.0646 19.8215ZM40.6718 12.2758L40.0429 14.0574H38.1565L39.7285 15.2102L39.0997 16.9918L40.6718 15.9438L42.2438 16.9918L41.615 15.2102L43.187 14.0574H41.3006L40.6718 12.2758Z" fill="#D80027"/>
</g>
</g>
</g>
</g>
<defs>
<clipPath id="clip0_33696_6412">
<rect width="53.6582" height="53.6582" fill="white" transform="translate(0.639221 0.013855)"/>
</clipPath>
</defs>
</svg>
