<svg width="55" height="54" viewBox="0 0 55 54" fill="none" xmlns="http://www.w3.org/2000/svg">
<g id="circle-flags:uk" clip-path="url(#clip0_33696_6447)">
<g id="Mask group">
<mask id="mask0_33696_6447" style="mask-type:luminance" maskUnits="userSpaceOnUse" x="0" y="0" width="55" height="54">
<g id="Group">
<path id="Vector" d="M27.7033 53.7673C42.5206 53.7673 54.5324 41.7556 54.5324 26.9382C54.5324 12.1209 42.5206 0.109131 27.7033 0.109131C12.8859 0.109131 0.874146 12.1209 0.874146 26.9382C0.874146 41.7556 12.8859 53.7673 27.7033 53.7673Z" fill="white"/>
</g>
</mask>
<g mask="url(#mask0_33696_6447)">
<g id="Group_2">
<path id="Vector_2" d="M0.874146 0.109131L1.71256 2.41476L0.874146 4.82519V7.23561L4.22778 12.8949L0.874146 18.5541V21.9078L4.22778 26.9382L0.874146 31.9687V35.3223L4.22778 40.9816L0.874146 46.6409V53.7673L3.17977 52.9289L5.5902 53.7673H8.00063L13.6599 50.4137L19.3192 53.7673H22.6728L27.7033 50.4137L32.7337 53.7673H36.0874L41.7466 50.4137L47.4059 53.7673H54.5324L53.694 51.4617L54.5324 49.0513V46.6409L51.1787 40.9816L54.5324 35.3223V31.9687L51.1787 26.9382L54.5324 21.9078V18.5541L51.1787 12.8949L54.5324 7.23561V0.109131L52.2267 0.947541L49.8163 0.109131H47.4059L41.7466 3.46277L36.0874 0.109131H32.7337L27.7033 3.46277L22.6728 0.109131H19.3192L13.6599 3.46277L8.00063 0.109131H0.874146Z" fill="#EEEEEE"/>
<path id="Vector_3" d="M36.0874 0.109131V11.4277L47.4059 0.109131H36.0874ZM54.5324 7.23561L43.2138 18.5541H54.5324V7.23561ZM0.874146 18.5541H12.1927L0.874146 7.23561V18.5541ZM8.00063 0.109131L19.3192 11.4277V0.109131H8.00063ZM19.3192 53.7673V42.4488L8.00063 53.7673H19.3192ZM0.874146 46.6409L12.1927 35.3223H0.874146V46.6409ZM54.5324 35.3223H43.2138L54.5324 46.6409V35.3223ZM47.4059 53.7673L36.0874 42.4488V53.7673H47.4059Z" fill="#0052B4"/>
<path id="Vector_4" d="M0.874146 0.109131V4.82519L14.6031 18.5541H19.3192L0.874146 0.109131ZM22.6728 0.109131V21.9078H0.874146V31.9687H22.6728V53.7673H32.7337V31.9687H54.5324V21.9078H32.7337V0.109131H22.6728ZM49.8163 0.109131L36.0874 13.8381V18.5541L54.5324 0.109131H49.8163ZM19.3192 35.3223L0.874146 53.7673H5.5902L19.3192 40.0384V35.3223ZM36.0874 35.3223L54.5324 53.7673V49.0513L40.8034 35.3223H36.0874Z" fill="#D80027"/>
</g>
</g>
</g>
</g>
<defs>
<clipPath id="clip0_33696_6447">
<rect width="53.6582" height="53.6582" fill="white" transform="translate(0.874146 0.109131)"/>
</clipPath>
</defs>
</svg>
