<svg width="55" height="54" viewBox="0 0 55 54" fill="none" xmlns="http://www.w3.org/2000/svg">
<g id="circle-flags:lang-af" clip-path="url(#clip0_33696_6531)">
<g id="Mask group">
<mask id="mask0_33696_6531" style="mask-type:luminance" maskUnits="userSpaceOnUse" x="0" y="-1" width="55" height="55">
<g id="Group">
<path id="Vector" d="M27.4355 53.6579C42.2528 53.6579 54.2646 41.6461 54.2646 26.8287C54.2646 12.0114 42.2528 -0.000366211 27.4355 -0.000366211C12.6182 -0.000366211 0.606384 12.0114 0.606384 26.8287C0.606384 41.6461 12.6182 53.6579 27.4355 53.6579Z" fill="white"/>
</g>
</mask>
<g mask="url(#mask0_33696_6531)">
<g id="Group_2">
<path id="Vector_2" d="M0.606384 -0.000366211L20.7282 26.8287L0.606384 53.6579H5.53204L54.2646 33.8504V30.2872L50.911 26.8287L54.2646 23.3703V19.8071L5.53204 -0.000366211H0.606384Z" fill="#EEEEEE"/>
<path id="Vector_3" d="M0.606384 14.8813V38.776L15.2786 26.8287L0.606384 14.8813Z" fill="#333333"/>
<path id="Vector_4" d="M20.7282 26.8287L0.606384 9.95569V14.8813L12.5537 26.8287L0.606384 38.776V43.7017L20.7282 26.8287Z" fill="#FFDA44"/>
<path id="Vector_5" d="M54.2646 23.3703H23.9771L0.606384 -0.000366211V9.85095L17.4794 26.8287L0.606384 43.8065V53.6579L23.9771 30.2872H54.2646V23.3703Z" fill="#6DA544"/>
<path id="Vector_6" d="M54.2646 -0.000366211H5.53204L25.3395 19.8071H54.2646V-0.000366211Z" fill="#D80027"/>
<path id="Vector_7" d="M54.2646 53.6579H5.53204L25.3395 33.8505H54.2646V53.6579Z" fill="#0052B4"/>
</g>
</g>
</g>
</g>
<defs>
<clipPath id="clip0_33696_6531">
<rect width="53.6582" height="53.6582" fill="white" transform="translate(0.606384 -0.000366211)"/>
</clipPath>
</defs>
</svg>
