<svg width="55" height="55" viewBox="0 0 55 55" fill="none" xmlns="http://www.w3.org/2000/svg">
<g id="circle-flags:lang-ko" clip-path="url(#clip0_33696_6511)">
<g id="Mask group">
<mask id="mask0_33696_6511" style="mask-type:luminance" maskUnits="userSpaceOnUse" x="0" y="0" width="55" height="55">
<g id="Group">
<path id="Vector" d="M27.7033 54.6416C42.5206 54.6416 54.5324 42.6298 54.5324 27.8125C54.5324 12.9952 42.5206 0.983398 27.7033 0.983398C12.8859 0.983398 0.874146 12.9952 0.874146 27.8125C0.874146 42.6298 12.8859 54.6416 27.7033 54.6416Z" fill="white"/>
</g>
</mask>
<g mask="url(#mask0_33696_6511)">
<g id="Group_2">
<path id="Vector_2" d="M0.874146 0.983398H54.5324V54.6416H0.874146V0.983398Z" fill="#EEEEEE"/>
<path id="Vector_3" d="M37.5546 36.0918L40.0698 33.5766L41.7466 35.2534L39.2314 37.6638L37.5546 36.0918ZM33.4673 40.1791L35.9826 37.6638L37.5546 39.3407L35.1442 41.8559L33.4673 40.1791ZM42.585 41.0175L44.9955 38.5022L46.6723 40.1791L44.1571 42.6943L42.585 41.0175ZM38.393 45.1047L40.9082 42.6943L42.585 44.2663L40.0698 46.7815L38.393 45.1047ZM40.0698 38.5022L42.585 36.0918L44.1571 37.6638L41.7466 40.1791L40.0698 38.5022ZM35.9826 42.6943L38.393 40.1791L40.0698 41.8559L37.5546 44.2663L35.9826 42.6943ZM42.585 19.5332L35.9826 12.9308L37.5546 11.3587L44.2619 17.9612L42.585 19.5332ZM35.9826 17.9612L33.4673 15.446L35.1442 13.7692L37.5546 16.2844L35.9826 17.9612ZM40.0698 22.0485L37.5546 19.5332L39.2314 17.9612L41.7466 20.3716L40.0698 22.0485ZM40.9082 12.9308L38.393 10.5203L40.0698 8.84351L42.585 11.3587L40.9082 12.9308ZM44.9955 17.1228L42.585 14.6076L44.1571 12.9308L46.6723 15.446L44.9955 17.1228ZM10.4111 38.5022L17.0135 45.1047L15.3367 46.7815L8.73425 40.1791L10.4111 38.5022ZM17.0135 40.1791L19.424 42.6943L17.852 44.2663L15.3367 41.8559L17.0135 40.1791ZM12.8215 36.0918L15.3367 38.5022L13.6599 40.1791L11.2495 37.6638L12.8215 36.0918ZM15.3367 33.5766L21.9392 40.1791L20.2624 41.8559L13.6599 35.2534L15.3367 33.5766ZM17.0135 10.5203L10.4111 17.1228L8.73425 15.446L15.3367 8.84351L17.0135 10.5203ZM19.424 12.9308L12.8215 19.5332L11.2495 17.8564L17.852 11.2539L19.424 12.9308ZM21.9392 15.446L15.3367 22.0485L13.6599 20.3716L20.2624 13.7692L21.9392 15.446Z" fill="#333333"/>
<path id="Vector_4" d="M34.3057 34.415L21.1008 21.2101C21.9678 20.343 22.9972 19.6552 24.13 19.186C25.2629 18.7167 26.4771 18.4752 27.7032 18.4752C28.9294 18.4752 30.1436 18.7167 31.2765 19.186C32.4093 19.6552 33.4387 20.343 34.3057 21.2101C35.1728 22.0771 35.8606 23.1064 36.3298 24.2393C36.799 25.3722 37.0406 26.5863 37.0406 27.8125C37.0406 29.0387 36.799 30.2529 36.3298 31.3858C35.8606 32.5186 35.1728 33.548 34.3057 34.415Z" fill="#D80027"/>
<path id="Vector_5" d="M34.3058 34.415C33.4387 35.282 32.4094 35.9698 31.2765 36.439C30.1437 36.9083 28.9295 37.1498 27.7033 37.1498C26.4771 37.1498 25.2629 36.9083 24.13 36.439C22.9972 35.9698 21.9679 35.282 21.1008 34.415C20.2338 33.5479 19.546 32.5186 19.0767 31.3857C18.6075 30.2529 18.366 29.0387 18.366 27.8125C18.366 26.5863 18.6075 25.3721 19.0767 24.2393C19.546 23.1064 20.2338 22.0771 21.1008 21.21L34.3058 34.415Z" fill="#0052B4"/>
<path id="Vector_6" d="M24.402 29.1749C26.9777 29.1749 29.0656 27.0869 29.0656 24.5112C29.0656 21.9356 26.9777 19.8476 24.402 19.8476C21.8263 19.8476 19.7383 21.9356 19.7383 24.5112C19.7383 27.0869 21.8263 29.1749 24.402 29.1749Z" fill="#D80027"/>
<path id="Vector_7" d="M31.0045 35.7774C33.5801 35.7774 35.6681 33.6894 35.6681 31.1137C35.6681 28.5381 33.5801 26.4501 31.0045 26.4501C28.4288 26.4501 26.3408 28.5381 26.3408 31.1137C26.3408 33.6894 28.4288 35.7774 31.0045 35.7774Z" fill="#0052B4"/>
</g>
</g>
</g>
</g>
<defs>
<clipPath id="clip0_33696_6511">
<rect width="53.6582" height="53.6582" fill="white" transform="translate(0.874146 0.983398)"/>
</clipPath>
</defs>
</svg>
