<svg width="55" height="54" viewBox="0 0 55 54" fill="none" xmlns="http://www.w3.org/2000/svg">
<g id="circle-flags:sg" clip-path="url(#clip0_33696_6429)">
<g id="Mask group">
<mask id="mask0_33696_6429" style="mask-type:luminance" maskUnits="userSpaceOnUse" x="0" y="0" width="55" height="54">
<g id="Group">
<path id="Vector" d="M27.4355 53.7673C42.2528 53.7673 54.2646 41.7556 54.2646 26.9382C54.2646 12.1209 42.2528 0.109131 27.4355 0.109131C12.6182 0.109131 0.606384 12.1209 0.606384 26.9382C0.606384 41.7556 12.6182 53.7673 27.4355 53.7673Z" fill="white"/>
</g>
</mask>
<g mask="url(#mask0_33696_6429)">
<g id="Group_2">
<path id="Vector_2" d="M0.606384 26.9382L27.6137 21.5934L54.2646 26.9382V53.7674H0.606384V26.9382Z" fill="#EEEEEE"/>
<path id="Vector_3" d="M0.606384 0.109131H54.2646V26.9382H0.606384V0.109131Z" fill="#D80027"/>
<g id="Group_3">
<path id="Vector_4" d="M16.9344 14.1106C16.9361 12.2497 17.5726 10.4451 18.7388 8.99496C19.905 7.54484 21.5311 6.53602 23.3483 6.13521C22.7733 6.00968 22.1866 5.94643 21.5981 5.94657C20.443 5.93427 19.2984 6.16692 18.2397 6.6292C17.1811 7.09148 16.2324 7.77289 15.4563 8.6285C14.6802 9.48412 14.0943 10.4945 13.7371 11.5931C13.3799 12.6916 13.2596 13.8534 13.3842 15.0019C13.5087 16.1503 13.8752 17.2593 14.4596 18.2558C15.044 19.2523 15.8329 20.1136 16.7744 20.7829C17.7159 21.4523 18.7885 21.9145 19.9216 22.1391C21.0548 22.3637 22.2226 22.3456 23.3483 22.086C21.5311 21.6852 19.905 20.6763 18.7388 19.2262C17.5726 17.7761 16.9361 15.9715 16.9344 14.1106ZM27.4355 6.52298L28.0119 8.3046H29.8983L28.3682 9.40501L28.9551 11.1866L27.4355 10.0862L25.9159 11.1866L26.5028 9.40501L24.9832 8.3046H26.8591L27.4355 6.52298Z" fill="#EEEEEE"/>
<path id="Vector_5" d="M22.8871 10.0233L23.474 11.8049H25.3395L23.8303 12.9053L24.4068 14.687L22.8871 13.5866L21.378 14.687L21.9544 12.9053L20.4348 11.8049H22.3107L22.8871 10.0233ZM31.9839 10.0233L32.5603 11.8049H34.4362L32.9166 12.9053L33.493 14.687L31.9839 13.5866L30.4643 14.687L31.0407 12.9053L29.5315 11.8049H31.397L31.9839 10.0233ZM30.2337 15.2739L30.8101 17.0555H32.686L31.1664 18.1559L31.7428 19.9375L30.2337 18.8371L28.7141 19.9375L29.2905 18.1559L27.7813 17.0555H29.6573L30.2337 15.2739ZM24.6373 15.2739L25.2137 17.0555H27.1001L25.5805 18.1559L26.1569 19.9375L24.6373 18.8371L23.1282 19.9375L23.7046 18.1559L22.185 17.0555H24.0609L24.6373 15.2739Z" fill="#EEEEEE"/>
</g>
</g>
</g>
</g>
</g>
<defs>
<clipPath id="clip0_33696_6429">
<rect width="53.6582" height="53.6582" fill="white" transform="translate(0.606384 0.109131)"/>
</clipPath>
</defs>
</svg>
