<svg width="55" height="54" viewBox="0 0 55 54" fill="none" xmlns="http://www.w3.org/2000/svg">
<g id="circle-flags:ca" clip-path="url(#clip0_33696_6380)">
<g id="Mask group">
<mask id="mask0_33696_6380" style="mask-type:luminance" maskUnits="userSpaceOnUse" x="0" y="-1" width="55" height="55">
<g id="Group">
<path id="Vector" d="M27.707 53.6559C42.5243 53.6559 54.5361 41.6441 54.5361 26.8268C54.5361 12.0095 42.5243 -0.00228882 27.707 -0.00228882C12.8897 -0.00228882 0.87793 12.0095 0.87793 26.8268C0.87793 41.6441 12.8897 53.6559 27.707 53.6559Z" fill="white"/>
</g>
</mask>
<g mask="url(#mask0_33696_6380)">
<g id="Group_2">
<path id="Vector_2" d="M0.87793 -0.00228882V53.6559H15.9693L27.707 46.9487L39.4448 53.6559H54.5361V-0.00228882H39.4448L27.707 6.70499L15.9693 -0.00228882H0.87793Z" fill="#D80027"/>
<path id="Vector_3" d="M15.9691 -0.00228882H39.4445V53.6559H15.9691V-0.00228882Z" fill="#EEEEEE"/>
<path id="Vector_4" d="M32.4235 30.2853L37.0347 27.9797L34.7291 26.8269V24.5212L30.0131 26.8269L32.4235 22.2156H30.0131L27.7074 18.6524L25.4018 22.1108H22.9914L25.4018 26.8269L20.6858 24.5212V26.8269L18.3801 27.9797L23.0962 30.2853L21.8386 32.6957H26.5546V36.1542H28.8602V32.6957H33.5763L32.4235 30.2853Z" fill="#D80027"/>
</g>
</g>
</g>
</g>
<defs>
<clipPath id="clip0_33696_6380">
<rect width="53.6582" height="53.6582" fill="white" transform="translate(0.874146 -0.00238037)"/>
</clipPath>
</defs>
</svg>
