<svg width="55" height="54" viewBox="0 0 55 54" fill="none" xmlns="http://www.w3.org/2000/svg">
<g id="circle-flags:cn-hk" clip-path="url(#clip0_33696_6464)">
<g id="Mask group">
<mask id="mask0_33696_6464" style="mask-type:luminance" maskUnits="userSpaceOnUse" x="0" y="0" width="55" height="54">
<g id="Group">
<path id="Vector" d="M27.4355 53.7045C42.2528 53.7045 54.2646 41.6927 54.2646 26.8754C54.2646 12.0581 42.2528 0.0462646 27.4355 0.0462646C12.6182 0.0462646 0.606384 12.0581 0.606384 26.8754C0.606384 41.6927 12.6182 53.7045 27.4355 53.7045Z" fill="white"/>
</g>
</mask>
<g mask="url(#mask0_33696_6464)">
<g id="Group_2">
<path id="Vector_2" d="M0.606384 0.0462646H54.2646V53.7045H0.606384V0.0462646Z" fill="#D80027"/>
<path id="Vector_3" d="M30.2022 20.3463C29.5944 22.8824 28.5149 22.4004 27.9805 24.6117C26.5024 24.2251 25.2349 23.2744 24.4498 21.9638C23.6648 20.6532 23.4248 19.0871 23.7815 17.6015C24.1381 16.116 25.0629 14.8295 26.3574 14.0181C27.6519 13.2067 29.2128 12.9351 30.7053 13.2617C29.6468 17.6843 30.7472 18.0825 30.2022 20.3463ZM22.0906 22.2222C24.3124 23.5846 23.5159 24.4649 25.4547 25.6597C24.618 26.918 23.3259 27.8028 21.8503 28.128C20.3746 28.4532 18.8303 28.1935 17.5421 27.4035C16.254 26.6135 15.3224 25.3548 14.9432 23.8921C14.5641 22.4293 14.7669 20.8765 15.5091 19.5602C19.3868 21.9392 20.0994 21.0065 22.0906 22.2222ZM21.357 30.5329C23.3482 28.8351 23.9456 29.8622 25.6748 28.395C26.6007 29.581 27.0328 31.0788 26.881 32.5758C26.7292 34.0728 26.0053 35.4533 24.8602 36.4294C23.7151 37.4055 22.2374 37.9017 20.7352 37.8146C19.2331 37.7274 17.8227 37.0636 16.7982 35.9616C20.2566 33.0062 19.5859 32.0421 21.3675 30.5329H21.357ZM29.0494 33.7818C28.0433 31.3713 29.2066 31.1303 28.3368 29.0343C29.7486 28.5255 31.3022 28.58 32.6749 29.1865C34.0476 29.793 35.134 30.9048 35.7086 32.2913C36.2831 33.6777 36.3016 35.2321 35.7602 36.6318C35.2188 38.0314 34.1592 39.1688 32.8013 39.8078C31.0616 35.6158 29.9402 35.9407 29.0494 33.7922V33.7818ZM34.5201 27.4937C31.9105 27.7033 32.0363 26.519 29.7726 26.6972C29.7036 25.1836 30.2259 23.7026 31.229 22.567C32.232 21.4315 33.6373 20.7304 35.1478 20.612C36.6583 20.4936 38.1557 20.9672 39.3234 21.9326C40.4911 22.898 41.2378 24.2796 41.4055 25.7854C36.8676 26.1418 36.8362 27.305 34.5201 27.4937Z" fill="#EEEEEE"/>
</g>
</g>
</g>
</g>
<defs>
<clipPath id="clip0_33696_6464">
<rect width="53.6582" height="53.6582" fill="white" transform="translate(0.606384 0.0462646)"/>
</clipPath>
</defs>
</svg>
