<svg width="25" height="15" viewBox="0 0 25 15" fill="none" xmlns="http://www.w3.org/2000/svg">
<path d="M13.0545 6.10938C13.6478 6.10938 14.2279 5.93343 14.7212 5.60378C15.2146 5.27414 15.5991 4.8056 15.8261 4.25743C16.0532 3.70925 16.1126 3.10605 15.9969 2.52411C15.8811 1.94216 15.5954 1.40761 15.1758 0.988056C14.7563 0.568498 14.2217 0.282776 13.6398 0.167021C13.0578 0.0512648 12.4546 0.110675 11.9065 0.337738C11.3583 0.564801 10.8897 0.949318 10.5601 1.44267C10.2305 1.93601 10.0545 2.51603 10.0545 3.10938C10.0545 3.90503 10.3706 4.66809 10.9332 5.2307C11.4958 5.79331 12.2589 6.10938 13.0545 6.10938ZM13.0545 2.10938C13.2523 2.10938 13.4456 2.16803 13.6101 2.27791C13.7745 2.38779 13.9027 2.54397 13.9784 2.72669C14.0541 2.90942 14.0739 3.11049 14.0353 3.30447C13.9967 3.49845 13.9015 3.67663 13.7616 3.81648C13.6218 3.95634 13.4436 4.05158 13.2496 4.09016C13.0556 4.12875 12.8545 4.10894 12.6718 4.03326C12.4891 3.95757 12.3329 3.8294 12.223 3.66495C12.1132 3.5005 12.0545 3.30716 12.0545 3.10938C12.0545 2.84416 12.1599 2.58981 12.3474 2.40227C12.5349 2.21473 12.7893 2.10938 13.0545 2.10938ZM17.1645 5.96938C17.7496 5.13041 18.0632 4.13219 18.0632 3.10938C18.0632 2.08656 17.7496 1.08835 17.1645 0.249376C17.4521 0.156789 17.7524 0.109557 18.0545 0.109376C18.8502 0.109376 19.6132 0.425447 20.1758 0.988056C20.7384 1.55067 21.0545 2.31373 21.0545 3.10938C21.0545 3.90503 20.7384 4.66809 20.1758 5.2307C19.6132 5.79331 18.8502 6.10938 18.0545 6.10938C17.7524 6.1092 17.4521 6.06196 17.1645 5.96938ZM13.0545 8.10938C7.0545 8.10938 7.0545 12.1094 7.0545 12.1094V14.1094H19.0545V12.1094C19.0545 12.1094 19.0545 8.10938 13.0545 8.10938ZM9.0545 12.1094C9.0545 11.8194 9.3745 10.1094 13.0545 10.1094C16.5545 10.1094 16.9945 11.6694 17.0545 12.1094M24.0545 12.1094V14.1094H21.0545V12.1094C21.0311 11.366 20.8599 10.6348 20.5509 9.95829C20.2418 9.28182 19.8011 8.67368 19.2545 8.16938C24.0545 8.65938 24.0545 12.1094 24.0545 12.1094ZM8.0545 7.10938H5.0545V10.1094H3.0545V7.10938H0.0545044V5.10938H3.0545V2.10938H5.0545V5.10938H8.0545V7.10938Z" fill="#5D6B98"/>
</svg>
