<svg xmlns="http://www.w3.org/2000/svg" width="14" height="14" viewBox="0 0 14 14" fill="none">
<g clip-path="url(#clip0_648_6779)">
<path d="M9.86306 3.39125C9.86306 4.87923 8.65681 6.08547 7.16883 6.08547C5.68086 6.08547 4.47461 4.87923 4.47461 3.39125C4.47461 1.90327 5.68086 0.697021 7.16883 0.697021C8.65681 0.697021 9.86306 1.90327 9.86306 3.39125Z" fill="#5E6278"/>
<path opacity="0.25" fill-rule="evenodd" clip-rule="evenodd" d="M10.8423 7.76916C10.5101 7.38406 9.93964 7.4039 9.49354 7.64807C8.80321 8.02593 8.01092 8.24074 7.16845 8.24074C6.32599 8.24074 5.5337 8.02592 4.84336 7.64807C4.39726 7.4039 3.82676 7.38406 3.49461 7.76916C2.7619 8.61869 2.31885 9.72509 2.31885 10.935V11.4738C2.31885 12.069 2.80135 12.5515 3.39654 12.5515H10.9404C11.5356 12.5515 12.0181 12.069 12.0181 11.4738V10.935C12.0181 9.72509 11.575 8.61869 10.8423 7.76916Z" fill="#5E6278"/>
</g>
<defs>
<clipPath id="clip0_648_6779">
<rect width="12.9323" height="12.9323" fill="white" transform="translate(0.702148 0.158142)"/>
</clipPath>
</defs>
</svg>