<svg width="32" height="32" viewBox="0 0 32 32" fill="none" xmlns="http://www.w3.org/2000/svg">
<rect width="32" height="32" rx="16" fill="#FF5757" fill-opacity="0.1"/>
<path d="M16.6088 9.05859C15.2661 9.05859 13.9785 9.59196 13.0291 10.5414C12.0797 11.4908 11.5463 12.7784 11.5463 14.1211V16.8222L10.4618 19.538C10.4278 19.6233 10.4153 19.7156 10.4252 19.8068C10.4351 19.8981 10.4672 19.9855 10.5187 20.0616C10.5701 20.1376 10.6395 20.1998 10.7205 20.2429C10.8016 20.2859 10.892 20.3085 10.9838 20.3086H22.2338C22.3256 20.3085 22.416 20.2859 22.4971 20.2429C22.5781 20.1998 22.6474 20.1376 22.6989 20.0616C22.7504 19.9855 22.7825 19.8981 22.7924 19.8068C22.8023 19.7156 22.7898 19.6233 22.7558 19.538L21.6713 16.8211V14.1211C21.6713 12.7784 21.1379 11.4908 20.1885 10.5414C19.2391 9.59196 17.9515 9.05859 16.6088 9.05859ZM16.6088 23.1211C16.1099 23.1212 15.6251 22.9555 15.2306 22.65C14.8361 22.3446 14.5544 21.9167 14.4297 21.4336H18.7879C18.6632 21.9167 18.3814 22.3446 17.987 22.65C17.5925 22.9555 17.1077 23.1212 16.6088 23.1211Z" fill="#FF5757"/>
</svg>
