<svg xmlns="http://www.w3.org/2000/svg" width="22" height="19" viewBox="0 0 22 19" fill="none">
<path d="M12.2989 1.64844L20.9329 16.6024C21.0646 16.8305 21.1339 17.0891 21.1339 17.3524C21.1339 17.6157 21.0646 17.8744 20.9329 18.1024C20.8013 18.3304 20.6119 18.5198 20.3839 18.6515C20.1559 18.7831 19.8972 18.8524 19.6339 18.8524H2.36593C2.10263 18.8524 1.84397 18.7831 1.61594 18.6515C1.38792 18.5198 1.19857 18.3304 1.06692 18.1024C0.935271 17.8744 0.865965 17.6157 0.865967 17.3524C0.865968 17.0891 0.935278 16.8305 1.06693 16.6024L9.70093 1.64844C10.2779 0.648438 11.7209 0.648438 12.2989 1.64844ZM10.9999 13.5004C10.7347 13.5004 10.4804 13.6058 10.2928 13.7933C10.1053 13.9809 9.99993 14.2352 9.99993 14.5004C9.99993 14.7657 10.1053 15.02 10.2928 15.2075C10.4804 15.3951 10.7347 15.5004 10.9999 15.5004C11.2651 15.5004 11.5195 15.3951 11.707 15.2075C11.8946 15.02 11.9999 14.7657 11.9999 14.5004C11.9999 14.2352 11.8946 13.9809 11.707 13.7933C11.5195 13.6058 11.2651 13.5004 10.9999 13.5004ZM10.9999 6.50044C10.755 6.50047 10.5186 6.59039 10.3356 6.75315C10.1525 6.91591 10.0356 7.14019 10.0069 7.38344L9.99993 7.50044V11.5004C10.0002 11.7553 10.0978 12.0005 10.2728 12.1858C10.4477 12.3711 10.6869 12.4827 10.9413 12.4976C11.1958 12.5125 11.4463 12.4298 11.6418 12.2662C11.8372 12.1026 11.9628 11.8705 11.9929 11.6174L11.9999 11.5004V7.50044C11.9999 7.23522 11.8946 6.98087 11.707 6.79333C11.5195 6.60579 11.2651 6.50044 10.9999 6.50044Z" fill="#FF9228"/>
</svg>