<svg width="20" height="21" viewBox="0 0 20 21" fill="none" xmlns="http://www.w3.org/2000/svg">
<path fill-rule="evenodd" clip-rule="evenodd" d="M2.49998 5.3622C2.49998 4.90197 2.87308 4.52887 3.33332 4.52887H16.6667C17.1269 4.52887 17.5 4.90197 17.5 5.3622C17.5 5.82244 17.1269 6.19554 16.6667 6.19554H3.33332C2.87308 6.19554 2.49998 5.82244 2.49998 5.3622Z" fill="#9691A4"/>
<path fill-rule="evenodd" clip-rule="evenodd" d="M2.49998 10.3622C2.49998 9.90197 2.87308 9.52887 3.33332 9.52887H11.6667C12.1269 9.52887 12.5 9.90197 12.5 10.3622C12.5 10.8224 12.1269 11.1955 11.6667 11.1955H3.33332C2.87308 11.1955 2.49998 10.8224 2.49998 10.3622Z" fill="#9691A4"/>
<path fill-rule="evenodd" clip-rule="evenodd" d="M2.49998 15.3622C2.49998 14.902 2.87308 14.5289 3.33332 14.5289H15C15.4602 14.5289 15.8333 14.902 15.8333 15.3622C15.8333 15.8224 15.4602 16.1955 15 16.1955H3.33332C2.87308 16.1955 2.49998 15.8224 2.49998 15.3622Z" fill="#9691A4"/>
</svg>
