<svg xmlns="http://www.w3.org/2000/svg" width="14" height="14" viewBox="0 0 14 14" fill="none">
<path opacity="0.25" fill-rule="evenodd" clip-rule="evenodd" d="M6.92117 2.23714C4.5404 2.23714 2.61041 4.16714 2.61041 6.54791C2.61041 8.92867 4.5404 10.8587 6.92117 10.8587C7.61035 10.8587 8.2603 10.6973 8.83674 10.4109C9.10324 10.2784 9.42665 10.3871 9.55909 10.6536C9.69153 10.9201 9.58285 11.2435 9.31635 11.376C8.59422 11.7348 7.78046 11.9364 6.92117 11.9364C3.94521 11.9364 1.53271 9.52387 1.53271 6.54791C1.53271 3.57195 3.94521 1.15945 6.92117 1.15945C9.89713 1.15945 12.3096 3.57195 12.3096 6.54791V6.55271C12.3096 6.69945 12.3098 7.30848 12.1136 7.89703C12.0135 8.19738 11.8501 8.53085 11.5747 8.79398C11.2865 9.06936 10.9012 9.24213 10.4237 9.24213C10.1261 9.24213 9.88481 9.00088 9.88481 8.70329C9.88481 8.40569 10.1261 8.16444 10.4237 8.16444C10.6197 8.16444 10.7395 8.10147 10.8302 8.01482C10.9337 7.9159 11.0229 7.76105 11.0912 7.55623C11.2296 7.1411 11.2319 6.67957 11.2319 6.54791C11.2319 4.16714 9.30193 2.23714 6.92117 2.23714Z" fill="#5E6278"/>
<path fill-rule="evenodd" clip-rule="evenodd" d="M8.53781 6.54799C8.53781 7.44077 7.81406 8.16452 6.92128 8.16452C6.02849 8.16452 5.30474 7.44077 5.30474 6.54799C5.30474 5.6552 6.02849 4.93145 6.92128 4.93145C7.81406 4.93145 8.53781 5.6552 8.53781 6.54799ZM8.94224 8.32977C8.44855 8.88929 7.72613 9.24221 6.92128 9.24221C5.4333 9.24221 4.22705 8.03596 4.22705 6.54799C4.22705 5.06001 5.4333 3.85376 6.92128 3.85376C7.52781 3.85376 8.08752 4.05418 8.53782 4.39241C8.53792 4.0949 8.77913 3.85376 9.07666 3.85376C9.37426 3.85376 9.61551 4.09501 9.61551 4.3926C9.61551 5.76833 9.61884 6.77163 9.7705 7.4389C9.84468 7.7653 9.94052 7.94024 10.0302 8.03187C10.1015 8.10483 10.2062 8.16452 10.4238 8.16452C10.7214 8.16452 10.9626 8.40577 10.9626 8.70337C10.9626 9.00096 10.7214 9.24221 10.4238 9.24221C9.96779 9.24221 9.5673 9.09983 9.25979 8.7855C9.12901 8.65181 9.02531 8.49728 8.94224 8.32977Z" fill="#5E6278"/>
</svg>