<svg width="25" height="20" viewBox="0 0 25 20" fill="none" xmlns="http://www.w3.org/2000/svg">
<path d="M2.33358 7.83297L1.39091 8.77563L0.448242 7.83297L1.39091 6.8903L2.33358 7.83297ZM25.0002 18.4996C25.0002 18.8533 24.8598 19.1924 24.6097 19.4424C24.3597 19.6925 24.0205 19.833 23.6669 19.833C23.3133 19.833 22.9741 19.6925 22.7241 19.4424C22.4741 19.1924 22.3336 18.8533 22.3336 18.4996H25.0002ZM8.05758 15.4423L1.39091 8.77563L3.27624 6.8903L9.94291 13.557L8.05758 15.4423ZM1.39091 6.8903L8.05758 0.223633L9.94291 2.10897L3.27624 8.77563L1.39091 6.8903ZM2.33358 6.49963H15.6669V9.1663H2.33358V6.49963ZM25.0002 15.833V18.4996H22.3336V15.833H25.0002ZM15.6669 6.49963C18.1423 6.49963 20.5162 7.48296 22.2666 9.2333C24.0169 10.9836 25.0002 13.3576 25.0002 15.833H22.3336C22.3336 14.0649 21.6312 12.3692 20.381 11.1189C19.1307 9.86868 17.435 9.1663 15.6669 9.1663V6.49963Z" fill="#3C3C3C"/>
</svg>
