<svg width="340" height="169" viewBox="0 0 340 169" fill="none" xmlns="http://www.w3.org/2000/svg">
<g filter="url(#filter0_d_31285_49420)">
<g clip-path="url(#clip0_31285_49420)">
<rect x="7" y="9" width="326" height="130" rx="40" fill="#FF5757"/>
<mask id="mask0_31285_49420" style="mask-type:alpha" maskUnits="userSpaceOnUse" x="7" y="9" width="326" height="125">
<rect x="7" y="9" width="326" height="125" rx="40" fill="#4318FF"/>
</mask>
<g mask="url(#mask0_31285_49420)">
<path opacity="0.1" d="M139 173L260.689 -39H327.384L333 173H139Z" fill="url(#paint0_linear_31285_49420)"/>
<path d="M40.822 60.214V55.794H47.146C49.0727 55.794 50.444 55.3973 51.26 54.604C52.076 53.788 52.484 52.802 52.484 51.646C52.484 50.2633 52.042 49.1413 51.158 48.28C50.274 47.4187 48.8687 46.9993 46.942 47.022H39.428V44.2H60.916V47.022H52.722L53.878 45.492C55.3287 46.1493 56.3827 47.0787 57.04 48.28C57.6973 49.4813 58.026 50.7733 58.026 52.156C58.026 53.856 57.6067 55.3067 56.768 56.508C55.952 57.7093 54.7733 58.6273 53.232 59.262C51.6907 59.8967 49.8547 60.214 47.724 60.214H40.822ZM52.552 68L46.364 58.446H52.246L58.502 68H52.552ZM39.428 51.714V48.892H60.916V51.714H39.428ZM69.6718 68V64.634C71.0998 63.478 72.4825 62.322 73.8198 61.166C75.1798 60.01 76.4038 58.8653 77.4918 57.732C78.5798 56.576 79.4411 55.454 80.0758 54.366C80.7105 53.278 81.0278 52.224 81.0278 51.204C81.0278 50.5693 80.9145 49.9913 80.6878 49.47C80.4611 48.926 80.1098 48.4953 79.6338 48.178C79.1578 47.838 78.5231 47.668 77.7298 47.668C76.9365 47.668 76.2678 47.8493 75.7238 48.212C75.2025 48.5747 74.8058 49.062 74.5338 49.674C74.2618 50.2633 74.1258 50.932 74.1258 51.68H69.7058C69.7511 49.9347 70.1365 48.4727 70.8618 47.294C71.5871 46.1153 72.5618 45.2427 73.7858 44.676C75.0098 44.0867 76.3698 43.792 77.8658 43.792C79.5431 43.792 80.9485 44.1093 82.0818 44.744C83.2378 45.356 84.1105 46.1947 84.6998 47.26C85.3118 48.3253 85.6178 49.5493 85.6178 50.932C85.6178 51.9747 85.4251 52.9947 85.0398 53.992C84.6545 54.9893 84.1331 55.964 83.4758 56.916C82.8185 57.8453 82.0705 58.7407 81.2318 59.602C80.4158 60.4633 79.5545 61.2907 78.6478 62.084C77.7638 62.8547 76.8911 63.58 76.0298 64.26H86.1618V68H69.6718ZM96.5592 68.408C94.8138 68.408 93.3065 68.102 92.0372 67.49C90.7678 66.8553 89.7705 66.0053 89.0452 64.94C88.3425 63.852 87.9345 62.628 87.8212 61.268H92.3092C92.4905 62.1747 92.9665 62.9453 93.7372 63.58C94.5078 64.192 95.4485 64.498 96.5592 64.498C97.3752 64.498 98.0892 64.294 98.7012 63.886C99.3358 63.478 99.8232 62.9227 100.163 62.22C100.526 61.4947 100.707 60.7013 100.707 59.84C100.707 58.9107 100.526 58.1173 100.163 57.46C99.8005 56.78 99.3132 56.27 98.7012 55.93C98.0892 55.5673 97.3978 55.386 96.6272 55.386C95.6525 55.386 94.8025 55.624 94.0772 56.1C93.3745 56.576 92.8758 57.1767 92.5812 57.902H88.1612L90.2012 44.2H103.495V48.212H93.6012L92.5812 53.448C93.0798 52.9267 93.7485 52.496 94.5872 52.156C95.4258 51.816 96.3665 51.646 97.4092 51.646C98.7012 51.646 99.8232 51.8727 100.775 52.326C101.75 52.7567 102.554 53.3573 103.189 54.128C103.824 54.8987 104.3 55.7713 104.617 56.746C104.957 57.7207 105.127 58.7293 105.127 59.772C105.127 61.0413 104.912 62.2087 104.481 63.274C104.073 64.3167 103.484 65.2233 102.713 65.994C101.965 66.7647 101.07 67.3653 100.027 67.796C98.9845 68.204 97.8285 68.408 96.5592 68.408ZM106.046 72.182L107.984 63.546H112.404L109.038 72.182H106.046ZM113.651 68V64.634C115.079 63.478 116.462 62.322 117.799 61.166C119.159 60.01 120.383 58.8653 121.471 57.732C122.559 56.576 123.421 55.454 124.055 54.366C124.69 53.278 125.007 52.224 125.007 51.204C125.007 50.5693 124.894 49.9913 124.667 49.47C124.441 48.926 124.089 48.4953 123.613 48.178C123.137 47.838 122.503 47.668 121.709 47.668C120.916 47.668 120.247 47.8493 119.703 48.212C119.182 48.5747 118.785 49.062 118.513 49.674C118.241 50.2633 118.105 50.932 118.105 51.68H113.685C113.731 49.9347 114.116 48.4727 114.841 47.294C115.567 46.1153 116.541 45.2427 117.765 44.676C118.989 44.0867 120.349 43.792 121.845 43.792C123.523 43.792 124.928 44.1093 126.061 44.744C127.217 45.356 128.09 46.1947 128.679 47.26C129.291 48.3253 129.597 49.5493 129.597 50.932C129.597 51.9747 129.405 52.9947 129.019 53.992C128.634 54.9893 128.113 55.964 127.455 56.916C126.798 57.8453 126.05 58.7407 125.211 59.602C124.395 60.4633 123.534 61.2907 122.627 62.084C121.743 62.8547 120.871 63.58 120.009 64.26H130.141V68H113.651ZM135.099 68V49.47L131.155 50.388V46.818L137.071 44.2H139.859V68H135.099ZM151.048 68.408C149.303 68.408 147.795 68.102 146.526 67.49C145.257 66.8553 144.259 66.0053 143.534 64.94C142.831 63.852 142.423 62.628 142.31 61.268H146.798C146.979 62.1747 147.455 62.9453 148.226 63.58C148.997 64.192 149.937 64.498 151.048 64.498C151.864 64.498 152.578 64.294 153.19 63.886C153.825 63.478 154.312 62.9227 154.652 62.22C155.015 61.4947 155.196 60.7013 155.196 59.84C155.196 58.9107 155.015 58.1173 154.652 57.46C154.289 56.78 153.802 56.27 153.19 55.93C152.578 55.5673 151.887 55.386 151.116 55.386C150.141 55.386 149.291 55.624 148.566 56.1C147.863 56.576 147.365 57.1767 147.07 57.902H142.65L144.69 44.2H157.984V48.212H148.09L147.07 53.448C147.569 52.9267 148.237 52.496 149.076 52.156C149.915 51.816 150.855 51.646 151.898 51.646C153.19 51.646 154.312 51.8727 155.264 52.326C156.239 52.7567 157.043 53.3573 157.678 54.128C158.313 54.8987 158.789 55.7713 159.106 56.746C159.446 57.7207 159.616 58.7293 159.616 59.772C159.616 61.0413 159.401 62.2087 158.97 63.274C158.562 64.3167 157.973 65.2233 157.202 65.994C156.454 66.7647 155.559 67.3653 154.516 67.796C153.473 68.204 152.317 68.408 151.048 68.408Z" fill="white"/>
<path d="M38.75 90V83H41.13C41.6767 83 42.1267 83.0933 42.48 83.28C42.8333 83.4667 43.0967 83.7167 43.27 84.03C43.4433 84.3367 43.53 84.6867 43.53 85.08C43.53 85.4533 43.4433 85.8 43.27 86.12C43.0967 86.4333 42.83 86.6867 42.47 86.88C42.1167 87.0667 41.6567 87.16 41.09 87.16H39.75V90H38.75ZM42.43 90L40.92 86.89H42.03L43.6 90H42.43ZM39.75 86.4H41.06C41.5533 86.4 41.9167 86.28 42.15 86.04C42.3833 85.7933 42.5 85.48 42.5 85.1C42.5 84.7133 42.3867 84.4067 42.16 84.18C41.9333 83.9533 41.5633 83.84 41.05 83.84H39.75V86.4ZM46.5508 90.12C46.0708 90.12 45.6474 90.0067 45.2808 89.78C44.9141 89.5533 44.6241 89.2367 44.4108 88.83C44.2041 88.4233 44.1008 87.95 44.1008 87.41C44.1008 86.8633 44.2041 86.3833 44.4108 85.97C44.6174 85.5567 44.9041 85.2367 45.2708 85.01C45.6441 84.7767 46.0741 84.66 46.5608 84.66C47.0674 84.66 47.4941 84.7733 47.8408 85C48.1941 85.2267 48.4608 85.53 48.6408 85.91C48.8274 86.29 48.9208 86.71 48.9208 87.17C48.9208 87.2367 48.9208 87.3067 48.9208 87.38C48.9208 87.4533 48.9141 87.5367 48.9008 87.63H44.8408V86.92H47.9308C47.9174 86.46 47.7808 86.1067 47.5208 85.86C47.2608 85.6133 46.9374 85.49 46.5508 85.49C46.2841 85.49 46.0408 85.5567 45.8208 85.69C45.6008 85.8167 45.4208 86.0067 45.2808 86.26C45.1474 86.5067 45.0808 86.82 45.0808 87.2V87.48C45.0808 87.8733 45.1474 88.2067 45.2808 88.48C45.4141 88.7467 45.5908 88.95 45.8108 89.09C46.0308 89.2233 46.2741 89.29 46.5408 89.29C46.8808 89.29 47.1474 89.2267 47.3408 89.1C47.5341 88.9667 47.6808 88.7833 47.7808 88.55H48.7808C48.6941 88.8433 48.5474 89.11 48.3408 89.35C48.1408 89.59 47.8874 89.78 47.5808 89.92C47.2808 90.0533 46.9374 90.12 46.5508 90.12ZM51.5223 90.12C51.1223 90.12 50.7856 90.0467 50.5123 89.9C50.2456 89.7533 50.0456 89.5567 49.9123 89.31C49.7856 89.0633 49.7223 88.8 49.7223 88.52C49.7223 88.18 49.8056 87.89 49.9723 87.65C50.1456 87.41 50.3923 87.2267 50.7123 87.1C51.0323 86.9667 51.4123 86.9 51.8523 86.9H53.1323C53.1323 86.5867 53.0956 86.3267 53.0223 86.12C52.9489 85.9133 52.8289 85.76 52.6623 85.66C52.4956 85.5533 52.2723 85.5 51.9923 85.5C51.7056 85.5 51.4623 85.5667 51.2623 85.7C51.0689 85.8333 50.9456 86.0367 50.8923 86.31H49.8923C49.9323 85.9567 50.0489 85.66 50.2423 85.42C50.4356 85.1733 50.6856 84.9867 50.9923 84.86C51.2989 84.7267 51.6323 84.66 51.9923 84.66C52.4656 84.66 52.8623 84.7433 53.1823 84.91C53.5023 85.0767 53.7389 85.3133 53.8923 85.62C54.0523 85.92 54.1323 86.28 54.1323 86.7V90H53.2623L53.1823 89.14C53.1156 89.28 53.0289 89.41 52.9223 89.53C52.8223 89.6433 52.7023 89.7467 52.5623 89.84C52.4289 89.9267 52.2756 89.9933 52.1023 90.04C51.9289 90.0933 51.7356 90.12 51.5223 90.12ZM51.7123 89.31C51.9123 89.31 52.0956 89.2667 52.2623 89.18C52.4356 89.0867 52.5856 88.9633 52.7123 88.81C52.8389 88.6567 52.9356 88.4833 53.0023 88.29C53.0756 88.0967 53.1156 87.8933 53.1223 87.68V87.61H51.9423C51.6689 87.61 51.4423 87.6467 51.2623 87.72C51.0889 87.7867 50.9623 87.8867 50.8823 88.02C50.8089 88.1467 50.7723 88.29 50.7723 88.45C50.7723 88.6233 50.8089 88.7767 50.8823 88.91C50.9556 89.0367 51.0623 89.1367 51.2023 89.21C51.3423 89.2767 51.5123 89.31 51.7123 89.31ZM57.6368 90.12C57.1501 90.12 56.7168 90.0067 56.3368 89.78C55.9568 89.5467 55.6568 89.2267 55.4368 88.82C55.2235 88.4133 55.1168 87.9433 55.1168 87.41C55.1168 86.8567 55.2235 86.3767 55.4368 85.97C55.6568 85.5633 55.9568 85.2433 56.3368 85.01C56.7168 84.7767 57.1501 84.66 57.6368 84.66C58.2501 84.66 58.7635 84.8233 59.1768 85.15C59.5968 85.4767 59.8635 85.92 59.9768 86.48H58.9368C58.8701 86.18 58.7168 85.9467 58.4768 85.78C58.2368 85.6067 57.9535 85.52 57.6268 85.52C57.3401 85.52 57.0835 85.5933 56.8568 85.74C56.6368 85.88 56.4635 86.09 56.3368 86.37C56.2101 86.6433 56.1468 86.9833 56.1468 87.39C56.1468 87.6967 56.1801 87.9667 56.2468 88.2C56.3201 88.4333 56.4235 88.63 56.5568 88.79C56.6901 88.95 56.8468 89.07 57.0268 89.15C57.2068 89.23 57.4068 89.27 57.6268 89.27C57.8468 89.27 58.0468 89.2333 58.2268 89.16C58.4068 89.08 58.5601 88.9667 58.6868 88.82C58.8135 88.6733 58.8968 88.5 58.9368 88.3H59.9768C59.8635 88.8467 59.5968 89.2867 59.1768 89.62C58.7568 89.9533 58.2435 90.12 57.6368 90.12ZM62.9985 90C62.6852 90 62.4118 89.95 62.1785 89.85C61.9452 89.75 61.7652 89.5833 61.6385 89.35C61.5118 89.1167 61.4485 88.8 61.4485 88.4V85.63H60.5385V84.78H61.4485L61.5685 83.44H62.4485V84.78H63.8885V85.63H62.4485V88.41C62.4485 88.6967 62.5052 88.8933 62.6185 89C62.7385 89.1 62.9485 89.15 63.2485 89.15H63.8785V90H62.9985ZM67.2863 90V83H71.6463V83.82H68.2863V86.09H71.0963V86.89H68.2863V90H67.2863ZM74.3953 90.12C74.002 90.12 73.662 90.0467 73.3753 89.9C73.0886 89.7467 72.8653 89.5167 72.7053 89.21C72.5453 88.9033 72.4653 88.52 72.4653 88.06V84.78H73.4653V87.95C73.4653 88.39 73.572 88.72 73.7853 88.94C73.9986 89.16 74.292 89.27 74.6653 89.27C74.9186 89.27 75.1453 89.2133 75.3453 89.1C75.5453 88.9867 75.7053 88.82 75.8253 88.6C75.9453 88.3733 76.0053 88.0967 76.0053 87.77V84.78H77.0053V90H76.1153L76.0453 89.17C75.9053 89.47 75.692 89.7033 75.4053 89.87C75.1186 90.0367 74.782 90.12 74.3953 90.12ZM78.2035 90V82.8H79.2035V90H78.2035ZM80.4059 90V82.8H81.4059V90H80.4059ZM88.0461 90.12C87.3794 90.12 86.7994 89.97 86.3061 89.67C85.8194 89.3633 85.4428 88.94 85.1761 88.4C84.9094 87.8533 84.7761 87.22 84.7761 86.5C84.7761 85.7867 84.9094 85.1567 85.1761 84.61C85.4428 84.0633 85.8194 83.64 86.3061 83.34C86.7994 83.0333 87.3794 82.88 88.0461 82.88C88.8594 82.88 89.5194 83.0767 90.0261 83.47C90.5328 83.8633 90.8528 84.4167 90.9861 85.13H89.9061C89.7994 84.7167 89.5928 84.3867 89.2861 84.14C88.9794 83.8933 88.5661 83.77 88.0461 83.77C87.5861 83.77 87.1861 83.88 86.8461 84.1C86.5128 84.32 86.2561 84.6333 86.0761 85.04C85.8961 85.4467 85.8061 85.9333 85.8061 86.5C85.8061 87.0667 85.8961 87.5567 86.0761 87.97C86.2561 88.3767 86.5128 88.69 86.8461 88.91C87.1861 89.1233 87.5861 89.23 88.0461 89.23C88.5661 89.23 88.9794 89.1133 89.2861 88.88C89.5928 88.64 89.7994 88.3167 89.9061 87.91H90.9861C90.8528 88.6033 90.5328 89.1467 90.0261 89.54C89.5194 89.9267 88.8594 90.12 88.0461 90.12ZM94.2738 90.12C93.7872 90.12 93.3538 90.0067 92.9738 89.78C92.6005 89.5533 92.3072 89.2367 92.0938 88.83C91.8805 88.4167 91.7738 87.9367 91.7738 87.39C91.7738 86.8433 91.8805 86.3667 92.0938 85.96C92.3072 85.5467 92.6038 85.2267 92.9838 85C93.3638 84.7733 93.7972 84.66 94.2838 84.66C94.7772 84.66 95.2105 84.7733 95.5838 85C95.9638 85.2267 96.2572 85.5467 96.4638 85.96C96.6772 86.3667 96.7838 86.8433 96.7838 87.39C96.7838 87.9367 96.6772 88.4167 96.4638 88.83C96.2505 89.2367 95.9538 89.5533 95.5738 89.78C95.2005 90.0067 94.7672 90.12 94.2738 90.12ZM94.2738 89.26C94.5538 89.26 94.8038 89.19 95.0238 89.05C95.2505 88.91 95.4305 88.7033 95.5638 88.43C95.6972 88.15 95.7638 87.8033 95.7638 87.39C95.7638 86.9767 95.6972 86.6333 95.5638 86.36C95.4372 86.08 95.2638 85.87 95.0438 85.73C94.8238 85.59 94.5705 85.52 94.2838 85.52C94.0105 85.52 93.7605 85.59 93.5338 85.73C93.3072 85.87 93.1272 86.08 92.9938 86.36C92.8672 86.6333 92.8038 86.9767 92.8038 87.39C92.8038 87.8033 92.8672 88.15 92.9938 88.43C93.1272 88.7033 93.3038 88.91 93.5238 89.05C93.7438 89.19 93.9938 89.26 94.2738 89.26ZM99.6895 90.12C99.2961 90.12 98.9561 90.0467 98.6695 89.9C98.3828 89.7467 98.1595 89.5167 97.9995 89.21C97.8395 88.9033 97.7595 88.52 97.7595 88.06V84.78H98.7595V87.95C98.7595 88.39 98.8661 88.72 99.0795 88.94C99.2928 89.16 99.5861 89.27 99.9595 89.27C100.213 89.27 100.439 89.2133 100.639 89.1C100.839 88.9867 100.999 88.82 101.119 88.6C101.239 88.3733 101.299 88.0967 101.299 87.77V84.78H102.299V90H101.409L101.339 89.17C101.199 89.47 100.986 89.7033 100.699 89.87C100.413 90.0367 100.076 90.12 99.6895 90.12ZM103.498 90V84.78H104.398L104.478 85.73C104.598 85.4967 104.754 85.3033 104.948 85.15C105.141 84.99 105.371 84.87 105.638 84.79C105.904 84.7033 106.204 84.66 106.538 84.66V85.72H105.998C105.798 85.72 105.608 85.7467 105.428 85.8C105.248 85.8467 105.088 85.9267 104.948 86.04C104.808 86.1533 104.698 86.31 104.618 86.51C104.538 86.7033 104.498 86.95 104.498 87.25V90H103.498ZM109.232 90.12C108.758 90.12 108.362 90.05 108.042 89.91C107.722 89.7633 107.478 89.56 107.312 89.3C107.145 89.04 107.048 88.7433 107.022 88.41H108.032C108.058 88.57 108.115 88.72 108.202 88.86C108.295 88.9933 108.425 89.1033 108.592 89.19C108.765 89.27 108.978 89.31 109.232 89.31C109.445 89.31 109.625 89.28 109.772 89.22C109.925 89.1533 110.038 89.0633 110.112 88.95C110.185 88.83 110.222 88.6967 110.222 88.55C110.222 88.3567 110.175 88.2067 110.082 88.1C109.995 87.9867 109.862 87.9 109.682 87.84C109.508 87.78 109.295 87.7333 109.042 87.7C108.755 87.66 108.495 87.6033 108.262 87.53C108.035 87.4567 107.838 87.3633 107.672 87.25C107.512 87.13 107.388 86.98 107.302 86.8C107.222 86.62 107.182 86.4067 107.182 86.16C107.182 85.8733 107.258 85.6167 107.412 85.39C107.572 85.1633 107.795 84.9867 108.082 84.86C108.375 84.7267 108.722 84.66 109.122 84.66C109.708 84.66 110.168 84.7933 110.502 85.06C110.842 85.3267 111.042 85.6967 111.102 86.17H110.132C110.098 85.9567 109.992 85.79 109.812 85.67C109.638 85.5433 109.405 85.48 109.112 85.48C108.805 85.48 108.572 85.5367 108.412 85.65C108.252 85.7633 108.172 85.9167 108.172 86.11C108.172 86.2433 108.208 86.3633 108.282 86.47C108.355 86.5767 108.478 86.6667 108.652 86.74C108.832 86.8133 109.065 86.8733 109.352 86.92C109.758 86.9733 110.102 87.0533 110.382 87.16C110.662 87.26 110.875 87.4167 111.022 87.63C111.175 87.8367 111.248 88.12 111.242 88.48C111.242 88.8267 111.158 89.1233 110.992 89.37C110.825 89.61 110.592 89.7967 110.292 89.93C109.992 90.0567 109.638 90.12 109.232 90.12ZM114.508 90.12C114.028 90.12 113.604 90.0067 113.238 89.78C112.871 89.5533 112.581 89.2367 112.368 88.83C112.161 88.4233 112.058 87.95 112.058 87.41C112.058 86.8633 112.161 86.3833 112.368 85.97C112.574 85.5567 112.861 85.2367 113.228 85.01C113.601 84.7767 114.031 84.66 114.518 84.66C115.024 84.66 115.451 84.7733 115.798 85C116.151 85.2267 116.418 85.53 116.598 85.91C116.784 86.29 116.878 86.71 116.878 87.17C116.878 87.2367 116.878 87.3067 116.878 87.38C116.878 87.4533 116.871 87.5367 116.858 87.63H112.798V86.92H115.888C115.874 86.46 115.738 86.1067 115.478 85.86C115.218 85.6133 114.894 85.49 114.508 85.49C114.241 85.49 113.998 85.5567 113.778 85.69C113.558 85.8167 113.378 86.0067 113.238 86.26C113.104 86.5067 113.038 86.82 113.038 87.2V87.48C113.038 87.8733 113.104 88.2067 113.238 88.48C113.371 88.7467 113.548 88.95 113.768 89.09C113.988 89.2233 114.231 89.29 114.498 89.29C114.838 89.29 115.104 89.2267 115.298 89.1C115.491 88.9667 115.638 88.7833 115.738 88.55H116.738C116.651 88.8433 116.504 89.11 116.298 89.35C116.098 89.59 115.844 89.78 115.538 89.92C115.238 90.0533 114.894 90.12 114.508 90.12ZM120.267 91V82.8H121.267V91H120.267ZM124.755 90V89.01C125.195 88.67 125.618 88.33 126.025 87.99C126.438 87.65 126.808 87.3133 127.135 86.98C127.462 86.64 127.718 86.31 127.905 85.99C128.098 85.67 128.195 85.36 128.195 85.06C128.195 84.8733 128.158 84.7033 128.085 84.55C128.012 84.39 127.898 84.2633 127.745 84.17C127.598 84.07 127.405 84.02 127.165 84.02C126.925 84.02 126.722 84.0733 126.555 84.18C126.395 84.2867 126.272 84.43 126.185 84.61C126.105 84.7833 126.065 84.98 126.065 85.2H124.765C124.778 84.6867 124.892 84.2567 125.105 83.91C125.325 83.5633 125.615 83.3067 125.975 83.14C126.342 82.9667 126.752 82.88 127.205 82.88C127.705 82.88 128.128 82.9733 128.475 83.16C128.822 83.34 129.085 83.5867 129.265 83.9C129.452 84.2133 129.545 84.5733 129.545 84.98C129.545 85.2867 129.485 85.5867 129.365 85.88C129.252 86.1733 129.095 86.46 128.895 86.74C128.695 87.0133 128.468 87.2767 128.215 87.53C127.968 87.7833 127.708 88.0267 127.435 88.26C127.162 88.4867 126.892 88.7 126.625 88.9H129.705V90H124.755ZM130.473 90V89.01C130.913 88.67 131.336 88.33 131.743 87.99C132.156 87.65 132.526 87.3133 132.853 86.98C133.179 86.64 133.436 86.31 133.623 85.99C133.816 85.67 133.913 85.36 133.913 85.06C133.913 84.8733 133.876 84.7033 133.803 84.55C133.729 84.39 133.616 84.2633 133.463 84.17C133.316 84.07 133.123 84.02 132.883 84.02C132.643 84.02 132.439 84.0733 132.273 84.18C132.113 84.2867 131.989 84.43 131.903 84.61C131.823 84.7833 131.783 84.98 131.783 85.2H130.483C130.496 84.6867 130.609 84.2567 130.823 83.91C131.043 83.5633 131.333 83.3067 131.693 83.14C132.059 82.9667 132.469 82.88 132.923 82.88C133.423 82.88 133.846 82.9733 134.193 83.16C134.539 83.34 134.803 83.5867 134.983 83.9C135.169 84.2133 135.263 84.5733 135.263 84.98C135.263 85.2867 135.203 85.5867 135.083 85.88C134.969 86.1733 134.813 86.46 134.613 86.74C134.413 87.0133 134.186 87.2767 133.933 87.53C133.686 87.7833 133.426 88.0267 133.153 88.26C132.879 88.4867 132.609 88.7 132.343 88.9H135.423V90H130.473ZM141.789 90.12C141.122 90.12 140.542 89.97 140.049 89.67C139.562 89.3633 139.185 88.94 138.919 88.4C138.652 87.8533 138.519 87.22 138.519 86.5C138.519 85.7867 138.652 85.1567 138.919 84.61C139.185 84.0633 139.562 83.64 140.049 83.34C140.542 83.0333 141.122 82.88 141.789 82.88C142.602 82.88 143.262 83.0767 143.769 83.47C144.275 83.8633 144.595 84.4167 144.729 85.13H143.649C143.542 84.7167 143.335 84.3867 143.029 84.14C142.722 83.8933 142.309 83.77 141.789 83.77C141.329 83.77 140.929 83.88 140.589 84.1C140.255 84.32 139.999 84.6333 139.819 85.04C139.639 85.4467 139.549 85.9333 139.549 86.5C139.549 87.0667 139.639 87.5567 139.819 87.97C139.999 88.3767 140.255 88.69 140.589 88.91C140.929 89.1233 141.329 89.23 141.789 89.23C142.309 89.23 142.722 89.1133 143.029 88.88C143.335 88.64 143.542 88.3167 143.649 87.91H144.729C144.595 88.6033 144.275 89.1467 143.769 89.54C143.262 89.9267 142.602 90.12 141.789 90.12ZM148.016 90.12C147.53 90.12 147.096 90.0067 146.716 89.78C146.343 89.5533 146.05 89.2367 145.836 88.83C145.623 88.4167 145.516 87.9367 145.516 87.39C145.516 86.8433 145.623 86.3667 145.836 85.96C146.05 85.5467 146.346 85.2267 146.726 85C147.106 84.7733 147.54 84.66 148.026 84.66C148.52 84.66 148.953 84.7733 149.326 85C149.706 85.2267 150 85.5467 150.206 85.96C150.42 86.3667 150.526 86.8433 150.526 87.39C150.526 87.9367 150.42 88.4167 150.206 88.83C149.993 89.2367 149.696 89.5533 149.316 89.78C148.943 90.0067 148.51 90.12 148.016 90.12ZM148.016 89.26C148.296 89.26 148.546 89.19 148.766 89.05C148.993 88.91 149.173 88.7033 149.306 88.43C149.44 88.15 149.506 87.8033 149.506 87.39C149.506 86.9767 149.44 86.6333 149.306 86.36C149.18 86.08 149.006 85.87 148.786 85.73C148.566 85.59 148.313 85.52 148.026 85.52C147.753 85.52 147.503 85.59 147.276 85.73C147.05 85.87 146.87 86.08 146.736 86.36C146.61 86.6333 146.546 86.9767 146.546 87.39C146.546 87.8033 146.61 88.15 146.736 88.43C146.87 88.7033 147.046 88.91 147.266 89.05C147.486 89.19 147.736 89.26 148.016 89.26ZM153.432 90.12C153.039 90.12 152.699 90.0467 152.412 89.9C152.125 89.7467 151.902 89.5167 151.742 89.21C151.582 88.9033 151.502 88.52 151.502 88.06V84.78H152.502V87.95C152.502 88.39 152.609 88.72 152.822 88.94C153.035 89.16 153.329 89.27 153.702 89.27C153.955 89.27 154.182 89.2133 154.382 89.1C154.582 88.9867 154.742 88.82 154.862 88.6C154.982 88.3733 155.042 88.0967 155.042 87.77V84.78H156.042V90H155.152L155.082 89.17C154.942 89.47 154.729 89.7033 154.442 89.87C154.155 90.0367 153.819 90.12 153.432 90.12ZM157.24 90V84.78H158.14L158.22 85.73C158.34 85.4967 158.497 85.3033 158.69 85.15C158.884 84.99 159.114 84.87 159.38 84.79C159.647 84.7033 159.947 84.66 160.28 84.66V85.72H159.74C159.54 85.72 159.35 85.7467 159.17 85.8C158.99 85.8467 158.83 85.9267 158.69 86.04C158.55 86.1533 158.44 86.31 158.36 86.51C158.28 86.7033 158.24 86.95 158.24 87.25V90H157.24ZM162.974 90.12C162.501 90.12 162.104 90.05 161.784 89.91C161.464 89.7633 161.221 89.56 161.054 89.3C160.888 89.04 160.791 88.7433 160.764 88.41H161.774C161.801 88.57 161.858 88.72 161.944 88.86C162.038 88.9933 162.168 89.1033 162.334 89.19C162.508 89.27 162.721 89.31 162.974 89.31C163.188 89.31 163.368 89.28 163.514 89.22C163.668 89.1533 163.781 89.0633 163.854 88.95C163.928 88.83 163.964 88.6967 163.964 88.55C163.964 88.3567 163.918 88.2067 163.824 88.1C163.738 87.9867 163.604 87.9 163.424 87.84C163.251 87.78 163.038 87.7333 162.784 87.7C162.498 87.66 162.238 87.6033 162.004 87.53C161.778 87.4567 161.581 87.3633 161.414 87.25C161.254 87.13 161.131 86.98 161.044 86.8C160.964 86.62 160.924 86.4067 160.924 86.16C160.924 85.8733 161.001 85.6167 161.154 85.39C161.314 85.1633 161.538 84.9867 161.824 84.86C162.118 84.7267 162.464 84.66 162.864 84.66C163.451 84.66 163.911 84.7933 164.244 85.06C164.584 85.3267 164.784 85.6967 164.844 86.17H163.874C163.841 85.9567 163.734 85.79 163.554 85.67C163.381 85.5433 163.148 85.48 162.854 85.48C162.548 85.48 162.314 85.5367 162.154 85.65C161.994 85.7633 161.914 85.9167 161.914 86.11C161.914 86.2433 161.951 86.3633 162.024 86.47C162.098 86.5767 162.221 86.6667 162.394 86.74C162.574 86.8133 162.808 86.8733 163.094 86.92C163.501 86.9733 163.844 87.0533 164.124 87.16C164.404 87.26 164.618 87.4167 164.764 87.63C164.918 87.8367 164.991 88.12 164.984 88.48C164.984 88.8267 164.901 89.1233 164.734 89.37C164.568 89.61 164.334 89.7967 164.034 89.93C163.734 90.0567 163.381 90.12 162.974 90.12ZM168.25 90.12C167.77 90.12 167.347 90.0067 166.98 89.78C166.614 89.5533 166.324 89.2367 166.11 88.83C165.904 88.4233 165.8 87.95 165.8 87.41C165.8 86.8633 165.904 86.3833 166.11 85.97C166.317 85.5567 166.604 85.2367 166.97 85.01C167.344 84.7767 167.774 84.66 168.26 84.66C168.767 84.66 169.194 84.7733 169.54 85C169.894 85.2267 170.16 85.53 170.34 85.91C170.527 86.29 170.62 86.71 170.62 87.17C170.62 87.2367 170.62 87.3067 170.62 87.38C170.62 87.4533 170.614 87.5367 170.6 87.63H166.54V86.92H169.63C169.617 86.46 169.48 86.1067 169.22 85.86C168.96 85.6133 168.637 85.49 168.25 85.49C167.984 85.49 167.74 85.5567 167.52 85.69C167.3 85.8167 167.12 86.0067 166.98 86.26C166.847 86.5067 166.78 86.82 166.78 87.2V87.48C166.78 87.8733 166.847 88.2067 166.98 88.48C167.114 88.7467 167.29 88.95 167.51 89.09C167.73 89.2233 167.974 89.29 168.24 89.29C168.58 89.29 168.847 89.2267 169.04 89.1C169.234 88.9667 169.38 88.7833 169.48 88.55H170.48C170.394 88.8433 170.247 89.11 170.04 89.35C169.84 89.59 169.587 89.78 169.28 89.92C168.98 90.0533 168.637 90.12 168.25 90.12ZM173.512 90.12C173.039 90.12 172.642 90.05 172.322 89.91C172.002 89.7633 171.759 89.56 171.592 89.3C171.425 89.04 171.329 88.7433 171.302 88.41H172.312C172.339 88.57 172.395 88.72 172.482 88.86C172.575 88.9933 172.705 89.1033 172.872 89.19C173.045 89.27 173.259 89.31 173.512 89.31C173.725 89.31 173.905 89.28 174.052 89.22C174.205 89.1533 174.319 89.0633 174.392 88.95C174.465 88.83 174.502 88.6967 174.502 88.55C174.502 88.3567 174.455 88.2067 174.362 88.1C174.275 87.9867 174.142 87.9 173.962 87.84C173.789 87.78 173.575 87.7333 173.322 87.7C173.035 87.66 172.775 87.6033 172.542 87.53C172.315 87.4567 172.119 87.3633 171.952 87.25C171.792 87.13 171.669 86.98 171.582 86.8C171.502 86.62 171.462 86.4067 171.462 86.16C171.462 85.8733 171.539 85.6167 171.692 85.39C171.852 85.1633 172.075 84.9867 172.362 84.86C172.655 84.7267 173.002 84.66 173.402 84.66C173.989 84.66 174.449 84.7933 174.782 85.06C175.122 85.3267 175.322 85.6967 175.382 86.17H174.412C174.379 85.9567 174.272 85.79 174.092 85.67C173.919 85.5433 173.685 85.48 173.392 85.48C173.085 85.48 172.852 85.5367 172.692 85.65C172.532 85.7633 172.452 85.9167 172.452 86.11C172.452 86.2433 172.489 86.3633 172.562 86.47C172.635 86.5767 172.759 86.6667 172.932 86.74C173.112 86.8133 173.345 86.8733 173.632 86.92C174.039 86.9733 174.382 87.0533 174.662 87.16C174.942 87.26 175.155 87.4167 175.302 87.63C175.455 87.8367 175.529 88.12 175.522 88.48C175.522 88.8267 175.439 89.1233 175.272 89.37C175.105 89.61 174.872 89.7967 174.572 89.93C174.272 90.0567 173.919 90.12 173.512 90.12ZM181.276 90.12C180.762 90.12 180.312 90.03 179.926 89.85C179.539 89.6633 179.239 89.4033 179.026 89.07C178.812 88.7367 178.706 88.3467 178.706 87.9H179.756C179.756 88.1533 179.816 88.3867 179.936 88.6C180.056 88.8067 180.226 88.9733 180.446 89.1C180.672 89.22 180.946 89.28 181.266 89.28C181.552 89.28 181.796 89.2333 181.996 89.14C182.196 89.0467 182.349 88.92 182.456 88.76C182.569 88.5933 182.626 88.4033 182.626 88.19C182.626 87.9633 182.572 87.77 182.466 87.61C182.359 87.45 182.212 87.3167 182.026 87.21C181.846 87.1033 181.632 87.01 181.386 86.93C181.146 86.8433 180.886 86.7567 180.606 86.67C180.026 86.4833 179.599 86.2467 179.326 85.96C179.052 85.6667 178.916 85.29 178.916 84.83C178.916 84.4367 179.009 84.0967 179.196 83.81C179.382 83.5167 179.642 83.29 179.976 83.13C180.316 82.9633 180.716 82.88 181.176 82.88C181.629 82.88 182.026 82.9633 182.366 83.13C182.706 83.2967 182.972 83.5267 183.166 83.82C183.359 84.1133 183.456 84.4567 183.456 84.85H182.396C182.396 84.67 182.349 84.4933 182.256 84.32C182.162 84.1467 182.022 84.0067 181.836 83.9C181.649 83.7867 181.419 83.73 181.146 83.73C180.919 83.7233 180.716 83.76 180.536 83.84C180.356 83.92 180.216 84.0367 180.116 84.19C180.016 84.3433 179.966 84.5267 179.966 84.74C179.966 84.9533 180.009 85.1267 180.096 85.26C180.189 85.3867 180.322 85.4967 180.496 85.59C180.669 85.6833 180.869 85.77 181.096 85.85C181.329 85.9233 181.586 86.0067 181.866 86.1C182.212 86.2133 182.519 86.3533 182.786 86.52C183.059 86.68 183.272 86.89 183.426 87.15C183.586 87.4033 183.666 87.73 183.666 88.13C183.666 88.4767 183.576 88.8 183.396 89.1C183.216 89.4 182.949 89.6467 182.596 89.84C182.242 90.0267 181.802 90.12 181.276 90.12ZM186.954 90.12C186.467 90.12 186.034 90.0067 185.654 89.78C185.28 89.5533 184.987 89.2367 184.774 88.83C184.56 88.4167 184.454 87.9367 184.454 87.39C184.454 86.8433 184.56 86.3667 184.774 85.96C184.987 85.5467 185.284 85.2267 185.664 85C186.044 84.7733 186.477 84.66 186.964 84.66C187.457 84.66 187.89 84.7733 188.264 85C188.644 85.2267 188.937 85.5467 189.144 85.96C189.357 86.3667 189.464 86.8433 189.464 87.39C189.464 87.9367 189.357 88.4167 189.144 88.83C188.93 89.2367 188.634 89.5533 188.254 89.78C187.88 90.0067 187.447 90.12 186.954 90.12ZM186.954 89.26C187.234 89.26 187.484 89.19 187.704 89.05C187.93 88.91 188.11 88.7033 188.244 88.43C188.377 88.15 188.444 87.8033 188.444 87.39C188.444 86.9767 188.377 86.6333 188.244 86.36C188.117 86.08 187.944 85.87 187.724 85.73C187.504 85.59 187.25 85.52 186.964 85.52C186.69 85.52 186.44 85.59 186.214 85.73C185.987 85.87 185.807 86.08 185.674 86.36C185.547 86.6333 185.484 86.9767 185.484 87.39C185.484 87.8033 185.547 88.15 185.674 88.43C185.807 88.7033 185.984 88.91 186.204 89.05C186.424 89.19 186.674 89.26 186.954 89.26ZM190.469 90V82.8H191.469V90H190.469ZM194.841 90.12C194.375 90.12 193.961 90.0033 193.601 89.77C193.248 89.53 192.971 89.2067 192.771 88.8C192.571 88.3867 192.471 87.92 192.471 87.4C192.471 86.8667 192.571 86.3967 192.771 85.99C192.978 85.5767 193.261 85.2533 193.621 85.02C193.988 84.78 194.408 84.66 194.881 84.66C195.275 84.66 195.615 84.74 195.901 84.9C196.188 85.0533 196.415 85.27 196.581 85.55V82.8H197.581V90H196.691L196.591 89.21C196.491 89.37 196.361 89.52 196.201 89.66C196.041 89.7933 195.848 89.9033 195.621 89.99C195.401 90.0767 195.141 90.12 194.841 90.12ZM195.031 89.25C195.345 89.25 195.618 89.1767 195.851 89.03C196.085 88.8767 196.265 88.66 196.391 88.38C196.518 88.1 196.581 87.77 196.581 87.39C196.581 87.01 196.518 86.6833 196.391 86.41C196.265 86.13 196.085 85.9133 195.851 85.76C195.618 85.6067 195.345 85.53 195.031 85.53C194.738 85.53 194.475 85.6067 194.241 85.76C194.008 85.9133 193.825 86.13 193.691 86.41C193.558 86.6833 193.491 87.01 193.491 87.39C193.491 87.77 193.558 88.1 193.691 88.38C193.825 88.66 194.008 88.8767 194.241 89.03C194.475 89.1767 194.738 89.25 195.031 89.25Z" fill="#E9EDF7"/>
</g>
<rect x="239" y="39" width="65.5261" height="31.5261" rx="5.76304" fill="white" fill-opacity="0.2"/>
<path d="M247.672 58.7629V51.8539H245.276V50.5796H251.635V51.8539H249.239V58.7629H247.672ZM254.251 58.9032C253.674 58.9032 253.16 58.7707 252.708 58.5057C252.264 58.2408 251.913 57.8706 251.656 57.3952C251.399 56.9197 251.27 56.3742 251.27 55.7585C251.27 55.135 251.399 54.5894 251.656 54.1218C251.913 53.6464 252.268 53.2762 252.72 53.0112C253.172 52.7463 253.682 52.6138 254.251 52.6138C254.836 52.6138 255.35 52.7463 255.794 53.0112C256.246 53.2762 256.597 53.6464 256.846 54.1218C257.104 54.5894 257.232 55.135 257.232 55.7585C257.232 56.3742 257.104 56.9197 256.846 57.3952C256.589 57.8706 256.235 58.2408 255.783 58.5057C255.338 58.7707 254.828 58.9032 254.251 58.9032ZM254.251 57.5354C254.516 57.5354 254.75 57.4692 254.952 57.3367C255.163 57.2042 255.327 57.0055 255.443 56.7405C255.568 56.4755 255.631 56.1482 255.631 55.7585C255.631 55.361 255.572 55.0298 255.455 54.7648C255.338 54.4998 255.175 54.305 254.964 54.1803C254.762 54.0478 254.528 53.9815 254.263 53.9815C253.998 53.9815 253.76 54.0478 253.55 54.1803C253.347 54.305 253.183 54.4998 253.059 54.7648C252.942 55.0298 252.883 55.361 252.883 55.7585C252.883 56.1482 252.942 56.4755 253.059 56.7405C253.176 57.0055 253.335 57.2042 253.538 57.3367C253.748 57.4692 253.986 57.5354 254.251 57.5354ZM258.381 61.3348V52.754H259.784L259.96 53.5607C260.084 53.3892 260.232 53.2334 260.404 53.0931C260.575 52.945 260.778 52.8281 261.012 52.7424C261.253 52.6566 261.53 52.6138 261.842 52.6138C262.403 52.6138 262.89 52.754 263.303 53.0346C263.724 53.3074 264.051 53.6815 264.285 54.1569C264.519 54.6245 264.636 55.1623 264.636 55.7702C264.636 56.3703 264.515 56.9081 264.273 57.3835C264.032 57.8589 263.701 58.233 263.28 58.5057C262.867 58.7707 262.395 58.9032 261.865 58.9032C261.429 58.9032 261.051 58.8253 260.731 58.6694C260.419 58.5057 260.162 58.2836 259.96 58.0031V61.3348H258.381ZM261.479 57.5238C261.775 57.5238 262.04 57.4536 262.274 57.3133C262.508 57.1652 262.691 56.9587 262.824 56.6937C262.964 56.4287 263.034 56.1209 263.034 55.7702C263.034 55.4117 262.964 55.0999 262.824 54.8349C262.691 54.57 262.508 54.3634 262.274 54.2154C262.04 54.0673 261.775 53.9932 261.479 53.9932C261.175 53.9932 260.906 54.0673 260.673 54.2154C260.439 54.3634 260.256 54.57 260.123 54.8349C259.991 55.0999 259.924 55.4078 259.924 55.7585C259.924 56.117 259.991 56.4287 260.123 56.6937C260.256 56.9587 260.439 57.1652 260.673 57.3133C260.906 57.4536 261.175 57.5238 261.479 57.5238ZM271.201 58.9032C270.609 58.9032 270.079 58.8019 269.611 58.5993C269.151 58.3966 268.789 58.1005 268.524 57.7108C268.259 57.3211 268.119 56.8496 268.103 56.2963H269.775C269.783 56.5379 269.845 56.7561 269.962 56.9509C270.079 57.1458 270.243 57.3016 270.453 57.4185C270.663 57.5276 270.913 57.5822 271.201 57.5822C271.443 57.5822 271.657 57.5432 271.844 57.4653C272.031 57.3796 272.175 57.2627 272.277 57.1146C272.378 56.9665 272.429 56.7912 272.429 56.5885C272.429 56.3703 272.374 56.1832 272.265 56.0274C272.156 55.8715 272.004 55.739 271.809 55.6299C271.614 55.513 271.388 55.4078 271.131 55.3143C270.882 55.2207 270.609 55.1272 270.313 55.0337C269.642 54.8233 269.136 54.5427 268.793 54.192C268.458 53.8335 268.29 53.3658 268.29 52.7891C268.29 52.2981 268.407 51.8773 268.641 51.5266C268.875 51.1758 269.202 50.907 269.623 50.7199C270.044 50.5329 270.523 50.4393 271.061 50.4393C271.614 50.4393 272.101 50.5368 272.522 50.7316C272.943 50.9186 273.274 51.1914 273.516 51.5499C273.757 51.9084 273.886 52.3293 273.902 52.8125H272.206C272.199 52.6332 272.148 52.4657 272.055 52.3098C271.961 52.1461 271.829 52.0176 271.657 51.924C271.486 51.8227 271.283 51.7721 271.049 51.7721C270.839 51.7643 270.652 51.7954 270.488 51.8656C270.324 51.9357 270.192 52.0409 270.091 52.1812C269.997 52.3137 269.95 52.4813 269.95 52.6839C269.95 52.8787 269.997 53.0424 270.091 53.1749C270.184 53.3074 270.317 53.4243 270.488 53.5256C270.667 53.6191 270.87 53.7088 271.096 53.7945C271.33 53.8724 271.583 53.9543 271.856 54.04C272.269 54.1803 272.643 54.3478 272.978 54.5427C273.321 54.7297 273.594 54.9752 273.796 55.2792C273.999 55.5831 274.1 55.9845 274.1 56.4833C274.1 56.912 273.987 57.3094 273.761 57.6757C273.543 58.042 273.22 58.3382 272.791 58.5642C272.362 58.7902 271.832 58.9032 271.201 58.9032ZM278.033 58.9032C277.44 58.9032 276.918 58.7746 276.466 58.5174C276.022 58.2525 275.671 57.8901 275.414 57.4302C275.165 56.9626 275.04 56.4248 275.04 55.8169C275.04 55.1935 275.165 54.6401 275.414 54.1569C275.663 53.6737 276.01 53.2957 276.455 53.0229C276.907 52.7502 277.433 52.6138 278.033 52.6138C278.633 52.6138 279.147 52.7463 279.576 53.0112C280.005 53.2684 280.336 53.623 280.57 54.0751C280.811 54.5193 280.932 55.0259 280.932 55.5948C280.932 55.6728 280.928 55.7585 280.92 55.852C280.92 55.9455 280.916 56.043 280.909 56.1443H276.162V55.1857H279.342C279.326 54.7804 279.194 54.4648 278.945 54.2387C278.703 54.0049 278.403 53.888 278.044 53.888C277.772 53.888 277.526 53.9543 277.308 54.0868C277.09 54.2115 276.914 54.4024 276.782 54.6596C276.657 54.9168 276.595 55.2402 276.595 55.6299V55.9806C276.595 56.3079 276.653 56.5963 276.77 56.8457C276.887 57.0873 277.051 57.2783 277.261 57.4185C277.479 57.551 277.733 57.6173 278.021 57.6173C278.325 57.6173 278.567 57.5588 278.746 57.4419C278.925 57.325 279.061 57.173 279.155 56.986H280.768C280.659 57.3445 280.476 57.6718 280.219 57.968C279.962 58.2564 279.646 58.4863 279.272 58.6577C278.906 58.8214 278.493 58.9032 278.033 58.9032ZM282.014 58.7629V50.3458H283.593V58.7629H282.014ZM284.931 58.7629V50.3458H286.51V58.7629H284.931ZM290.654 58.9032C290.062 58.9032 289.54 58.7746 289.088 58.5174C288.644 58.2525 288.293 57.8901 288.036 57.4302C287.786 56.9626 287.662 56.4248 287.662 55.8169C287.662 55.1935 287.786 54.6401 288.036 54.1569C288.285 53.6737 288.632 53.2957 289.076 53.0229C289.528 52.7502 290.054 52.6138 290.654 52.6138C291.254 52.6138 291.769 52.7463 292.197 53.0112C292.626 53.2684 292.957 53.623 293.191 54.0751C293.433 54.5193 293.554 55.0259 293.554 55.5948C293.554 55.6728 293.55 55.7585 293.542 55.852C293.542 55.9455 293.538 56.043 293.53 56.1443H288.784V55.1857H291.964C291.948 54.7804 291.816 54.4648 291.566 54.2387C291.325 54.0049 291.024 53.888 290.666 53.888C290.393 53.888 290.148 53.9543 289.929 54.0868C289.711 54.2115 289.536 54.4024 289.403 54.6596C289.279 54.9168 289.216 55.2402 289.216 55.6299V55.9806C289.216 56.3079 289.275 56.5963 289.392 56.8457C289.509 57.0873 289.672 57.2783 289.883 57.4185C290.101 57.551 290.354 57.6173 290.643 57.6173C290.947 57.6173 291.188 57.5588 291.367 57.4419C291.547 57.325 291.683 57.173 291.777 56.986H293.39C293.281 57.3445 293.098 57.6718 292.84 57.968C292.583 58.2564 292.268 58.4863 291.893 58.6577C291.527 58.8214 291.114 58.9032 290.654 58.9032ZM294.636 58.7629V52.754H296.039L296.191 53.8296C296.339 53.5724 296.522 53.3542 296.74 53.1749C296.966 52.9957 297.223 52.8593 297.512 52.7657C297.808 52.6644 298.131 52.6138 298.482 52.6138V54.2855H297.792C297.574 54.2855 297.368 54.3128 297.173 54.3673C296.986 54.4141 296.818 54.4959 296.67 54.6128C296.53 54.7297 296.417 54.8934 296.331 55.1038C296.253 55.3065 296.214 55.5637 296.214 55.8754V58.7629H294.636Z" fill="white"/>
</g>
</g>
<defs>
<filter id="filter0_d_31285_49420" x="-21" y="0" width="382" height="169" filterUnits="userSpaceOnUse" color-interpolation-filters="sRGB">
<feFlood flood-opacity="0" result="BackgroundImageFix"/>
<feColorMatrix in="SourceAlpha" type="matrix" values="0 0 0 0 0 0 0 0 0 0 0 0 0 0 0 0 0 0 127 0" result="hardAlpha"/>
<feOffset dy="18"/>
<feGaussianBlur stdDeviation="20"/>
<feColorMatrix type="matrix" values="0 0 0 0 0.439216 0 0 0 0 0.564706 0 0 0 0 0.690196 0 0 0 0.12 0"/>
<feBlend mode="normal" in2="BackgroundImageFix" result="effect1_dropShadow_31285_49420"/>
<feBlend mode="normal" in="SourceGraphic" in2="effect1_dropShadow_31285_49420" result="shape"/>
</filter>
<linearGradient id="paint0_linear_31285_49420" x1="265.954" y1="-69.7796" x2="239.438" y2="156.643" gradientUnits="userSpaceOnUse">
<stop stop-color="white"/>
<stop offset="0.0001" stop-color="white"/>
<stop offset="1" stop-color="white" stop-opacity="0"/>
</linearGradient>
<clipPath id="clip0_31285_49420">
<rect x="19" y="22" width="302" height="89" rx="17" fill="white"/>
</clipPath>
</defs>
</svg>
