<svg xmlns="http://www.w3.org/2000/svg" width="23" height="18" viewBox="0 0 23 18" fill="none">
<g clip-path="url(#clip0_648_8537)">
<path d="M18.4336 1.40937C18.1105 1.08625 18.1105 0.56375 18.4336 0.244062C18.7567 -0.0756251 19.2792 -0.0790626 19.5989 0.244062L21.7989 2.44406C21.9536 2.59875 22.0395 2.80844 22.0395 3.02844C22.0395 3.24844 21.9536 3.45812 21.7989 3.61281L19.5989 5.81281C19.2758 6.13594 18.7533 6.13594 18.4336 5.81281C18.1139 5.48969 18.1105 4.96719 18.4336 4.6475L19.2242 3.85687L13.243 3.85C12.7858 3.85 12.418 3.48219 12.418 3.025C12.418 2.56781 12.7858 2.2 13.243 2.2H19.2277L18.4336 1.40937ZM3.65234 12.9594L2.86172 13.75H8.84297C9.30016 13.75 9.66797 14.1178 9.66797 14.575C9.66797 15.0322 9.30016 15.4 8.84297 15.4H2.85828L3.64891 16.1906C3.97203 16.5138 3.97203 17.0362 3.64891 17.3559C3.32578 17.6756 2.80328 17.6791 2.48359 17.3559L0.283594 15.1594C0.128906 15.0047 0.0429688 14.795 0.0429688 14.575C0.0429688 14.355 0.128906 14.1453 0.283594 13.9906L2.48359 11.7906C2.80672 11.4675 3.32922 11.4675 3.64891 11.7906C3.96859 12.1137 3.97203 12.6362 3.64891 12.9559L3.65234 12.9594ZM3.34297 2.2H11.6583C11.5311 2.4475 11.4555 2.72594 11.4555 3.025C11.4555 4.01156 12.2564 4.8125 13.243 4.8125H17.2786C17.1411 5.39687 17.2992 6.03281 17.753 6.49C18.4508 7.18781 19.5817 7.18781 20.2795 6.49L20.943 5.82656V13.2C20.943 14.4134 19.9564 15.4 18.743 15.4H10.4277C10.5548 15.1525 10.6305 14.8741 10.6305 14.575C10.6305 13.5884 9.82953 12.7875 8.84297 12.7875H4.80734C4.94484 12.2031 4.78672 11.5672 4.33297 11.11C3.63516 10.4122 2.50422 10.4122 1.80641 11.11L1.14297 11.7734V4.4C1.14297 3.18656 2.12953 2.2 3.34297 2.2ZM5.54297 4.4H3.34297V6.6C4.55641 6.6 5.54297 5.61344 5.54297 4.4ZM18.743 11C17.5295 11 16.543 11.9866 16.543 13.2H18.743V11ZM11.043 12.1C11.9182 12.1 12.7576 11.7523 13.3764 11.1335C13.9953 10.5146 14.343 9.67521 14.343 8.8C14.343 7.92479 13.9953 7.08542 13.3764 6.46655C12.7576 5.84768 11.9182 5.5 11.043 5.5C10.1678 5.5 9.32839 5.84768 8.70952 6.46655C8.09065 7.08542 7.74297 7.92479 7.74297 8.8C7.74297 9.67521 8.09065 10.5146 8.70952 11.1335C9.32839 11.7523 10.1678 12.1 11.043 12.1Z" fill="#5D6B98"/>
</g>
<defs>
<clipPath id="clip0_648_8537">
<rect width="22" height="17.6" fill="white" transform="translate(0.0429688)"/>
</clipPath>
</defs>
</svg>