<svg xmlns="http://www.w3.org/2000/svg" width="17" height="16" viewBox="0 0 17 16" fill="none">
<path d="M8.50102 0.691991L8.7387 0.801619C8.73862 0.801795 8.73853 0.80197 8.73845 0.802146L8.7387 0.801619L8.50102 0.691991ZM8.50102 0.691991L8.26335 0.801619C8.26343 0.801795 8.26351 0.801971 8.26359 0.802147L8.26335 0.80162L8.50102 0.691991ZM12.075 10.4749L12.5029 10.3899L12.075 10.4749L13.017 15.2157L8.79932 12.8548C8.61399 12.7511 8.38806 12.7511 8.20272 12.8548L3.98501 15.2157L4.92701 10.4749C4.96841 10.2666 4.89859 10.0517 4.74265 9.9075L1.19397 6.62578L5.99386 6.05668L5.9425 5.62348L5.99386 6.05667C6.20478 6.03167 6.38756 5.89887 6.47653 5.706L8.50102 1.31689L10.5255 5.706C10.6145 5.89887 10.7973 6.03167 11.0082 6.05667L11.0595 5.62348L11.0082 6.05668L15.8081 6.62578L12.2594 9.9075L12.5556 10.2278L12.2594 9.9075C12.1035 10.0517 12.0336 10.2666 12.075 10.4749ZM16.2247 6.24051L16.2242 6.24094L16.2247 6.24051Z" stroke="#FDBC31" stroke-width="0.872459"/>
</svg>