<svg width="18" height="19" viewBox="0 0 18 19" fill="none" xmlns="http://www.w3.org/2000/svg">
<path fill-rule="evenodd" clip-rule="evenodd" d="M3.75004 6.50001C3.33583 6.50001 3.00004 6.83579 3.00004 7.25001V14C3.00004 14.4142 3.33583 14.75 3.75004 14.75H14.25C14.6643 14.75 15 14.4142 15 14V7.25001C15 6.83579 14.6643 6.50001 14.25 6.50001H3.75004ZM1.50004 7.25001C1.50004 6.00737 2.5074 5.00001 3.75004 5.00001H14.25C15.4927 5.00001 16.5 6.00737 16.5 7.25001V14C16.5 15.2426 15.4927 16.25 14.25 16.25H3.75004C2.5074 16.25 1.50004 15.2426 1.50004 14V7.25001Z" fill="#9691A4"/>
<path fill-rule="evenodd" clip-rule="evenodd" d="M7.50004 3.5C7.30113 3.5 7.11036 3.57902 6.96971 3.71967C6.82906 3.86032 6.75004 4.05109 6.75004 4.25V5.75C6.75004 6.16421 6.41426 6.5 6.00004 6.5C5.58583 6.5 5.25004 6.16421 5.25004 5.75V4.25C5.25004 3.65326 5.48709 3.08097 5.90905 2.65901C6.33101 2.23705 6.9033 2 7.50004 2H10.5C11.0968 2 11.6691 2.23705 12.091 2.65901C12.513 3.08097 12.75 3.65326 12.75 4.25V5.75C12.75 6.16421 12.4143 6.5 12 6.5C11.5858 6.5 11.25 6.16421 11.25 5.75V4.25C11.25 4.05109 11.171 3.86032 11.0304 3.71967C10.8897 3.57902 10.699 3.5 10.5 3.5H7.50004Z" fill="#9691A4"/>
<path fill-rule="evenodd" clip-rule="evenodd" d="M9.00004 8.75C9.41425 8.75 9.75004 9.08579 9.75004 9.5V9.5075C9.75004 9.92171 9.41425 10.2575 9.00004 10.2575C8.58583 10.2575 8.25004 9.92171 8.25004 9.5075V9.5C8.25004 9.08579 8.58583 8.75 9.00004 8.75Z" fill="#9691A4"/>
<path fill-rule="evenodd" clip-rule="evenodd" d="M1.58027 9.91251C1.76667 9.5426 2.21764 9.39384 2.58754 9.58024C4.57654 10.5825 6.77279 11.1046 9.00004 11.1046C11.2273 11.1046 13.4235 10.5825 15.4125 9.58024C15.7824 9.39384 16.2334 9.5426 16.4198 9.91251C16.6062 10.2824 16.4574 10.7334 16.0875 10.9198C13.8892 12.0275 11.4617 12.6046 9.00004 12.6046C6.53834 12.6046 4.11091 12.0275 1.91254 10.9198C1.54264 10.7334 1.39387 10.2824 1.58027 9.91251Z" fill="#9691A4"/>
</svg>
