<svg width="45" height="45" viewBox="0 0 45 45" fill="none" xmlns="http://www.w3.org/2000/svg">
<circle cx="22.5419" cy="22.0649" r="21.9931" fill="#00ACA5" fill-opacity="0.1"/>
<g clip-path="url(#clip0_34369_14180)">
<path d="M22.0597 24.1939C22.6114 24.1946 23.1408 23.9762 23.5315 23.5867C23.9223 23.1972 24.1423 22.6685 24.1433 22.1167C24.1422 21.5651 23.9221 21.0365 23.5314 20.6471C23.1407 20.2577 22.6113 20.0393 22.0597 20.04C21.5082 20.0394 20.979 20.2578 20.5885 20.6471C20.1979 21.0364 19.9778 21.5648 19.9766 22.1163C19.9774 22.668 20.1973 23.1968 20.588 23.5864C20.9786 23.976 21.508 24.1945 22.0597 24.1939Z" stroke="#00ACA5" stroke-width="1.83333" stroke-linejoin="round"/>
<path d="M18.3923 17.9469C15.9481 20.2249 15.9481 23.919 18.3923 26.1969M25.7257 26.1969C28.17 23.919 28.17 20.2249 25.7257 17.9469M15.5773 15.6553C11.9977 19.2239 11.9977 25.0099 15.5773 28.5784M28.5408 28.5784C32.1203 25.0099 32.1203 19.2239 28.5408 15.6553" stroke="#00ACA5" stroke-width="1.83333" stroke-linecap="round" stroke-linejoin="round"/>
</g>
<defs>
<clipPath id="clip0_34369_14180">
<rect width="22" height="22" fill="white" transform="translate(11.0586 11.0718)"/>
</clipPath>
</defs>
</svg>
