<svg xmlns="http://www.w3.org/2000/svg" width="21" height="21" viewBox="0 0 21 21" fill="none">
<path d="M10.4429 0.5C4.92287 0.5 0.442871 4.98 0.442871 10.5C0.442871 16.02 4.92287 20.5 10.4429 20.5C15.9629 20.5 20.4429 16.02 20.4429 10.5C20.4429 4.98 15.9629 0.5 10.4429 0.5ZM10.4429 18.5C6.03287 18.5 2.44287 14.91 2.44287 10.5C2.44287 6.09 6.03287 2.5 10.4429 2.5C14.8529 2.5 18.4429 6.09 18.4429 10.5C18.4429 14.91 14.8529 18.5 10.4429 18.5ZM10.7529 9.64C8.98287 9.19 8.41287 8.7 8.41287 7.97C8.41287 7.13 9.20287 6.54 10.5129 6.54C11.8929 6.54 12.4129 7.2 12.4529 8.18H14.1629C14.1129 6.84 13.2929 5.61 11.6729 5.21V3.5H9.34287V5.19C7.83287 5.51 6.62287 6.49 6.62287 8C6.62287 9.79 8.11287 10.69 10.2829 11.21C12.2329 11.67 12.6229 12.36 12.6229 13.08C12.6229 13.61 12.2329 14.47 10.5229 14.47C8.92287 14.47 8.29287 13.75 8.20287 12.83H6.48287C6.58287 14.53 7.84287 15.49 9.34287 15.8V17.5H11.6829V15.83C13.2029 15.54 14.4029 14.67 14.4129 13.06C14.4029 10.86 12.5129 10.1 10.7529 9.64Z" fill="#ff5757"/>
</svg>