<svg width="19" height="18" viewBox="0 0 19 18" fill="none" xmlns="http://www.w3.org/2000/svg">
<path d="M16.5 8.3325V3.75C16.5 3.35218 16.342 2.97064 16.0607 2.68934C15.7794 2.40804 15.3978 2.25 15 2.25H11.865C11.55 1.38 10.725 0.75 9.75 0.75C8.775 0.75 7.95 1.38 7.635 2.25H4.5C3.675 2.25 3 2.925 3 3.75V14.25C3 14.6478 3.15804 15.0294 3.43934 15.3107C3.72064 15.592 4.10218 15.75 4.5 15.75H9.0825C10.0275 16.68 11.3175 17.25 12.75 17.25C15.6525 17.25 18 14.9025 18 12C18 10.5675 17.43 9.2775 16.5 8.3325ZM9.75 2.25C10.1625 2.25 10.5 2.5875 10.5 3C10.5 3.4125 10.1625 3.75 9.75 3.75C9.3375 3.75 9 3.4125 9 3C9 2.5875 9.3375 2.25 9.75 2.25ZM5.25 5.25H14.25V6.75H5.25V5.25ZM7.56 12.75H5.25V11.25H7.56C7.5225 11.4975 7.5 11.745 7.5 12C7.5 12.255 7.5225 12.5025 7.56 12.75ZM5.25 9.75V8.25H9.0825C8.625 8.6775 8.28 9.1875 8.01 9.75H5.25ZM12.75 15.75C10.68 15.75 9 14.07 9 12C9 9.93 10.68 8.25 12.75 8.25C14.82 8.25 16.5 9.93 16.5 12C16.5 14.07 14.82 15.75 12.75 15.75ZM13.125 12.1875L15.27 13.455L14.7075 14.37L12 12.75V9H13.125V12.1875Z" fill="#FF5757"/>
</svg>
