<svg width="19" height="18" viewBox="0 0 19 18" fill="none" xmlns="http://www.w3.org/2000/svg">
<path d="M6.40625 12.75C6.61875 12.75 6.797 12.678 6.941 12.534C7.085 12.39 7.15675 12.212 7.15625 12C7.15575 11.788 7.08375 11.61 6.94025 11.466C6.79675 11.322 6.61875 11.25 6.40625 11.25C6.19375 11.25 6.01575 11.322 5.87225 11.466C5.72875 11.61 5.65675 11.788 5.65625 12C5.65575 12.212 5.72775 12.3902 5.87225 12.5347C6.01675 12.6792 6.19475 12.751 6.40625 12.75ZM6.40625 9.75C6.61875 9.75 6.797 9.678 6.941 9.534C7.085 9.39 7.15675 9.212 7.15625 9C7.15575 8.788 7.08375 8.61 6.94025 8.466C6.79675 8.322 6.61875 8.25 6.40625 8.25C6.19375 8.25 6.01575 8.322 5.87225 8.466C5.72875 8.61 5.65675 8.788 5.65625 9C5.65575 9.212 5.72775 9.39025 5.87225 9.53475C6.01675 9.67925 6.19475 9.751 6.40625 9.75ZM6.40625 6.75C6.61875 6.75 6.797 6.678 6.941 6.534C7.085 6.39 7.15675 6.212 7.15625 6C7.15575 5.788 7.08375 5.61 6.94025 5.466C6.79675 5.322 6.61875 5.25 6.40625 5.25C6.19375 5.25 6.01575 5.322 5.87225 5.466C5.72875 5.61 5.65675 5.788 5.65625 6C5.65575 6.212 5.72775 6.39025 5.87225 6.53475C6.01675 6.67925 6.19475 6.751 6.40625 6.75ZM8.65625 12.75H13.1562V11.25H8.65625V12.75ZM8.65625 9.75H13.1562V8.25H8.65625V9.75ZM8.65625 6.75H13.1562V5.25H8.65625V6.75ZM4.15625 15.75C3.74375 15.75 3.39075 15.6033 3.09725 15.3097C2.80375 15.0162 2.65675 14.663 2.65625 14.25V3.75C2.65625 3.3375 2.80325 2.9845 3.09725 2.691C3.39125 2.3975 3.74425 2.2505 4.15625 2.25H14.6562C15.0688 2.25 15.422 2.397 15.716 2.691C16.01 2.985 16.1567 3.338 16.1562 3.75V14.25C16.1562 14.6625 16.0095 15.0157 15.716 15.3097C15.4225 15.6038 15.0693 15.7505 14.6562 15.75H4.15625Z" fill="#FF5757"/>
</svg>
