<svg width="19" height="18" viewBox="0 0 19 18" fill="none" xmlns="http://www.w3.org/2000/svg">
<path d="M9.90625 1.5C7.00375 1.5 4.65625 3.8475 4.65625 6.75C4.65625 10.6875 9.90625 16.5 9.90625 16.5C9.90625 16.5 15.1562 10.6875 15.1562 6.75C15.1562 3.8475 12.8088 1.5 9.90625 1.5ZM9.90625 8.625C9.40897 8.625 8.93206 8.42746 8.58042 8.07583C8.22879 7.72419 8.03125 7.24728 8.03125 6.75C8.03125 6.25272 8.22879 5.77581 8.58042 5.42417C8.93206 5.07254 9.40897 4.875 9.90625 4.875C10.4035 4.875 10.8804 5.07254 11.2321 5.42417C11.5837 5.77581 11.7812 6.25272 11.7812 6.75C11.7812 7.24728 11.5837 7.72419 11.2321 8.07583C10.8804 8.42746 10.4035 8.625 9.90625 8.625Z" fill="#FF5757"/>
</svg>
