<svg width="19" height="18" viewBox="0 0 19 18" fill="none" xmlns="http://www.w3.org/2000/svg">
<path d="M15.2125 15.75C13.65 15.75 12.1062 15.4095 10.5812 14.7285C9.05625 14.0475 7.66875 13.0817 6.41875 11.8312C5.16875 10.5807 4.20325 9.19325 3.52225 7.66875C2.84125 6.14425 2.5005 4.6005 2.5 3.0375C2.5 2.8125 2.575 2.625 2.725 2.475C2.875 2.325 3.0625 2.25 3.2875 2.25H6.325C6.5 2.25 6.65625 2.3095 6.79375 2.4285C6.93125 2.5475 7.0125 2.688 7.0375 2.85L7.525 5.475C7.55 5.675 7.54375 5.84375 7.50625 5.98125C7.46875 6.11875 7.4 6.2375 7.3 6.3375L5.48125 8.175C5.73125 8.6375 6.028 9.08425 6.3715 9.51525C6.715 9.94625 7.09325 10.362 7.50625 10.7625C7.89375 11.15 8.3 11.5095 8.725 11.841C9.15 12.1725 9.6 12.4755 10.075 12.75L11.8375 10.9875C11.95 10.875 12.097 10.7907 12.2785 10.7347C12.46 10.6788 12.638 10.663 12.8125 10.6875L15.4 11.2125C15.575 11.2625 15.7188 11.3532 15.8312 11.4847C15.9437 11.6163 16 11.763 16 11.925V14.9625C16 15.1875 15.925 15.375 15.775 15.525C15.625 15.675 15.4375 15.75 15.2125 15.75Z" fill="#FF5757"/>
</svg>
