<svg width="19" height="18" viewBox="0 0 19 18" fill="none" xmlns="http://www.w3.org/2000/svg">
<path d="M9.75 17.25L7.5 15H4.5C4.0875 15 3.7345 14.8533 3.441 14.5597C3.1475 14.2662 3.0005 13.913 3 13.5V3C3 2.5875 3.147 2.2345 3.441 1.941C3.735 1.6475 4.088 1.5005 4.5 1.5H15C15.4125 1.5 15.7657 1.647 16.0597 1.941C16.3538 2.235 16.5005 2.588 16.5 3V13.5C16.5 13.9125 16.3533 14.2657 16.0597 14.5597C15.7662 14.8538 15.413 15.0005 15 15H12L9.75 17.25ZM9.75 9C10.475 9 11.0938 8.74375 11.6063 8.23125C12.1188 7.71875 12.375 7.1 12.375 6.375C12.375 5.65 12.1188 5.03125 11.6063 4.51875C11.0938 4.00625 10.475 3.75 9.75 3.75C9.025 3.75 8.40625 4.00625 7.89375 4.51875C7.38125 5.03125 7.125 5.65 7.125 6.375C7.125 7.1 7.38125 7.71875 7.89375 8.23125C8.40625 8.74375 9.025 9 9.75 9ZM4.5 13.5H15V12.6375C14.325 11.975 13.5407 11.4532 12.6473 11.0722C11.7537 10.6912 10.788 10.5005 9.75 10.5C8.712 10.4995 7.74625 10.6902 6.85275 11.0722C5.95925 11.4542 5.175 11.976 4.5 12.6375V13.5Z" fill="#FF5757"/>
</svg>
