<svg xmlns="http://www.w3.org/2000/svg" width="14" height="15" viewBox="0 0 14 15" fill="none">
<path fill-rule="evenodd" clip-rule="evenodd" d="M2.66098 2.98986C2.27897 2.98986 1.9693 3.29954 1.9693 3.68154V11.9817C1.9693 12.3637 2.27897 12.6734 2.66098 12.6734H10.9611C11.3432 12.6734 11.6528 12.3637 11.6528 11.9817V3.68154C11.6528 3.29954 11.3432 2.98986 10.9611 2.98986H2.66098ZM0.585938 3.68154C0.585938 2.53553 1.51497 1.6065 2.66098 1.6065H10.9611C12.1072 1.6065 13.0362 2.53553 13.0362 3.68154V11.9817C13.0362 13.1277 12.1072 14.0567 10.9611 14.0567H2.66098C1.51497 14.0567 0.585938 13.1277 0.585938 11.9817V3.68154Z" fill="#9691A4"/>
<path fill-rule="evenodd" clip-rule="evenodd" d="M9.57778 0.223145C9.95979 0.223145 10.2695 0.53282 10.2695 0.914825V3.68155C10.2695 4.06355 9.95979 4.37323 9.57778 4.37323C9.19578 4.37323 8.8861 4.06355 8.8861 3.68155V0.914825C8.8861 0.53282 9.19578 0.223145 9.57778 0.223145Z" fill="#9691A4"/>
<path fill-rule="evenodd" clip-rule="evenodd" d="M4.04436 0.223145C4.42637 0.223145 4.73605 0.53282 4.73605 0.914825V3.68155C4.73605 4.06355 4.42637 4.37323 4.04436 4.37323C3.66236 4.37323 3.35268 4.06355 3.35268 3.68155V0.914825C3.35268 0.53282 3.66236 0.223145 4.04436 0.223145Z" fill="#9691A4"/>
<path fill-rule="evenodd" clip-rule="evenodd" d="M0.585938 6.44826C0.585938 6.06626 0.895613 5.75658 1.27762 5.75658H12.3445C12.7265 5.75658 13.0362 6.06626 13.0362 6.44826C13.0362 6.83027 12.7265 7.13994 12.3445 7.13994H1.27762C0.895613 7.13994 0.585938 6.83027 0.585938 6.44826Z" fill="#9691A4"/>
</svg>