<svg xmlns="http://www.w3.org/2000/svg" width="10" height="10" viewBox="0 0 10 10" fill="none">
<path d="M9.26254 9.65305C8.20108 9.65305 7.15235 9.42174 6.11636 8.95911C5.08037 8.49648 4.13779 7.84041 3.28862 6.9909C2.43945 6.14139 1.78355 5.1988 1.32092 4.16315C0.858289 3.1275 0.626805 2.07878 0.626465 1.01697C0.626465 0.864122 0.677415 0.736746 0.779316 0.634846C0.881216 0.532945 1.00859 0.481995 1.16144 0.481995H3.22493C3.34382 0.481995 3.44996 0.522415 3.54337 0.603256C3.63678 0.684097 3.69198 0.779544 3.70896 0.889597L4.04014 2.67286C4.05712 2.80873 4.05287 2.92336 4.0274 3.01677C4.00192 3.11018 3.95522 3.19085 3.88728 3.25879L2.65174 4.50707C2.82157 4.82126 3.02317 5.12476 3.25652 5.41755C3.48987 5.71035 3.74683 5.99278 4.0274 6.26486C4.29064 6.5281 4.56662 6.77232 4.85534 6.99752C5.14406 7.22272 5.44976 7.42856 5.77245 7.61504L6.96978 6.41771C7.0462 6.34128 7.14607 6.28405 7.26937 6.246C7.39267 6.20796 7.51359 6.19726 7.63213 6.2139L9.38992 6.57056C9.5088 6.60452 9.60646 6.66617 9.68288 6.75551C9.75931 6.84484 9.79752 6.94453 9.79752 7.05458V9.11807C9.79752 9.27092 9.74657 9.3983 9.64467 9.5002C9.54277 9.6021 9.41539 9.65305 9.26254 9.65305Z" fill="#FF5757"/>
</svg>