<svg xmlns="http://www.w3.org/2000/svg" width="44" height="42" viewBox="0 0 44 42" fill="none">
<path fill-rule="evenodd" clip-rule="evenodd" d="M22.1583 20.1406C19.7696 20.1406 17.8332 22.077 17.8332 24.4657C17.8332 26.8544 19.7696 28.7908 22.1583 28.7908C24.547 28.7908 26.4834 26.8544 26.4834 24.4657C26.4834 22.077 24.547 20.1406 22.1583 20.1406ZM13.508 24.4657C13.508 19.6883 17.3809 15.8155 22.1583 15.8155C26.9356 15.8155 30.8085 19.6883 30.8085 24.4657C30.8085 29.2431 26.9356 33.1159 22.1583 33.1159C17.3809 33.1159 13.508 29.2431 13.508 24.4657Z" fill="#9691A4"/>
<path fill-rule="evenodd" clip-rule="evenodd" d="M14.7748 4.10692C15.586 3.29581 16.6861 2.84012 17.8332 2.84012H22.1583C23.3526 2.84012 24.3208 3.80833 24.3208 5.00268C24.3208 6.19703 23.3526 7.16524 22.1583 7.16524L17.8332 7.16524C17.8332 8.88587 17.1496 10.536 15.933 11.7527C14.7163 12.9694 13.0661 13.6529 11.3455 13.6529H7.02038C6.44683 13.6529 5.89678 13.8807 5.49122 14.2863C5.08566 14.6919 4.85782 15.2419 4.85782 15.8155V35.2784C4.85782 35.852 5.08566 36.402 5.49122 36.8076C5.89678 37.2132 6.44683 37.441 7.02038 37.441H37.2961C37.8697 37.441 38.4197 37.2132 38.8253 36.8076C39.2309 36.402 39.4587 35.852 39.4587 35.2784V20.1406C39.4587 18.9462 40.4269 17.978 41.6213 17.978C42.8156 17.978 43.7838 18.9462 43.7838 20.1406V35.2784C43.7838 36.9991 43.1003 38.6492 41.8836 39.8659C40.6669 41.0826 39.0168 41.7661 37.2961 41.7661H7.02038C5.29974 41.7661 3.64958 41.0826 2.43291 39.8659C1.21623 38.6492 0.532715 36.9991 0.532715 35.2784V15.8155C0.532715 14.0948 1.21623 12.4447 2.43291 11.228C3.64958 10.0113 5.29974 9.32779 7.02038 9.32779H11.3455C11.919 9.32779 12.4691 9.09995 12.8746 8.69439C13.2802 8.28883 13.508 7.73878 13.508 7.16523C13.508 6.01814 13.9637 4.91804 14.7748 4.10692Z" fill="#9691A4"/>
<path fill-rule="evenodd" clip-rule="evenodd" d="M26.4834 9.32771C26.4834 8.13337 27.4516 7.16516 28.6459 7.16516H41.6213C42.8156 7.16516 43.7838 8.13337 43.7838 9.32771C43.7838 10.5221 42.8156 11.4903 41.6213 11.4903H28.6459C27.4516 11.4903 26.4834 10.5221 26.4834 9.32771Z" fill="#9691A4"/>
<path fill-rule="evenodd" clip-rule="evenodd" d="M35.1336 0.67749C36.3279 0.67749 37.2961 1.6457 37.2961 2.84005V15.8154C37.2961 17.0097 36.3279 17.9779 35.1336 17.9779C33.9392 17.9779 32.971 17.0097 32.971 15.8154V2.84005C32.971 1.6457 33.9392 0.67749 35.1336 0.67749Z" fill="#9691A4"/>
</svg>