<svg width="45" height="45" viewBox="0 0 45 45" fill="none" xmlns="http://www.w3.org/2000/svg">
<circle cx="22.0322" cy="22.0649" r="21.9931" fill="#FF635F" fill-opacity="0.1"/>
<g clip-path="url(#clip0_34369_14189)">
<path fill-rule="evenodd" clip-rule="evenodd" d="M26.3373 27.0424C26.8516 28.1617 27.3177 28.2593 27.5569 28.2593C27.7962 28.2593 28.2623 28.1617 28.7766 27.0424C29.2949 25.9204 29.6194 24.1865 29.6194 22.0718C29.6194 19.957 29.2949 18.2232 28.7766 17.1012C28.2623 15.9805 27.7976 15.8843 27.5569 15.8843C27.3163 15.8843 26.8516 15.9819 26.3373 17.1012C25.8189 18.2218 25.4944 19.957 25.4944 22.0718C25.4944 24.1865 25.8189 25.9204 26.3373 27.0424ZM23.4319 22.0718C23.4319 24.0917 23.7028 25.9424 24.2432 27.3765L15.0472 23.873C14.6822 23.7339 14.3681 23.4871 14.1465 23.1654C13.9249 22.8438 13.8062 22.4624 13.8062 22.0718C13.8062 21.6812 13.9249 21.2998 14.1465 20.9781C14.3681 20.6564 14.6822 20.4097 15.0472 20.2705L24.2404 16.767C23.7014 18.2012 23.4319 20.0533 23.4319 22.0718ZM27.5569 30.3218C30.3069 30.3218 31.6819 26.6285 31.6819 22.0718C31.6819 17.515 30.3069 13.8218 27.5569 13.8218C26.6481 13.8218 25.7461 13.9868 24.8977 14.3113L14.3143 18.3428C13.5585 18.6306 12.9079 19.1414 12.4489 19.8073C11.9899 20.4733 11.7441 21.263 11.7441 22.0718C11.7441 22.8806 11.9899 23.6703 12.4489 24.3362C12.9079 25.0022 13.5585 25.5129 14.3143 25.8008L15.4514 26.2339C15.2747 26.6587 15.185 27.1147 15.1877 27.5749C15.1905 28.035 15.2855 28.4899 15.4673 28.9126C15.6491 29.3353 15.9139 29.7172 16.2461 30.0356C16.5782 30.3541 16.9709 30.6026 17.4009 30.7665C17.8308 30.9304 18.2893 31.0063 18.7491 30.9897C19.209 30.9731 19.6608 30.8644 20.0778 30.6699C20.4949 30.4755 20.8686 30.1993 21.1769 29.8577C21.4852 29.5161 21.7218 29.1161 21.8727 28.6814L24.8977 29.8323C25.7467 30.1568 26.648 30.3227 27.5569 30.3218ZM19.9436 27.9444L17.3819 26.9709C17.2992 27.1424 17.253 27.3292 17.2463 27.5195C17.2396 27.7098 17.2724 27.8994 17.3428 28.0764C17.4132 28.2533 17.5195 28.4137 17.6551 28.5473C17.7907 28.681 17.9526 28.7851 18.1305 28.8529C18.3085 28.9208 18.4985 28.9509 18.6887 28.9415C18.8789 28.932 19.065 28.8832 19.2353 28.798C19.4056 28.7129 19.5564 28.5933 19.6781 28.4468C19.7998 28.3003 19.8897 28.1302 19.9422 27.9472" fill="#FF635F"/>
</g>
<defs>
<clipPath id="clip0_34369_14189">
<rect width="22" height="22" fill="white" transform="translate(11.0566 11.0718)"/>
</clipPath>
</defs>
</svg>
