<svg xmlns="http://www.w3.org/2000/svg" width="24" height="23" viewBox="0 0 24 23" fill="none">
<path d="M0.701166 22.1567C-0.233722 21.2305 -0.233722 19.6975 0.701166 18.7713L18.9476 0.694642C19.8825 -0.231547 21.4299 -0.231547 22.3648 0.694642C23.2997 1.62083 23.2997 3.15383 22.3648 4.08002L4.11834 22.1567C3.66701 22.6358 3.02227 22.8593 2.40975 22.8593C1.79724 22.8593 1.18473 22.6358 0.701166 22.1567Z" fill="#D8D8D8"/>
<path d="M18.9476 22.1567L0.701166 4.08002C-0.233722 3.15383 -0.233722 1.62083 0.701166 0.694642C1.63605 -0.231547 3.18345 -0.231547 4.11834 0.694642L22.3648 18.7713C23.2997 19.6975 23.2997 21.2305 22.3648 22.1567C21.8812 22.6358 21.2687 22.8593 20.6562 22.8593C20.0437 22.8593 19.4312 22.6358 18.9476 22.1567Z" fill="#D8D8D8"/>
</svg>