<svg width="20" height="20" viewBox="0 0 20 20" fill="none" xmlns="http://www.w3.org/2000/svg">
<path fill-rule="evenodd" clip-rule="evenodd" d="M6.90468 8.33333C6.28264 8.33333 5.83325 8.81078 5.83325 9.33333V14.8333C5.83325 15.3559 6.28264 15.8333 6.90468 15.8333H16.4285C17.0505 15.8333 17.4999 15.3559 17.4999 14.8333V9.33333C17.4999 8.81078 17.0505 8.33333 16.4285 8.33333H6.90468ZM4.16658 9.33333C4.16658 7.83084 5.42278 6.66667 6.90468 6.66667H16.4285C17.9104 6.66667 19.1666 7.83084 19.1666 9.33333V14.8333C19.1666 16.3358 17.9104 17.5 16.4285 17.5H6.90468C5.42278 17.5 4.16658 16.3358 4.16658 14.8333V9.33333Z" fill="#9691A4"/>
<path fill-rule="evenodd" clip-rule="evenodd" d="M12.0833 10.8333C11.3929 10.8333 10.8333 11.393 10.8333 12.0833C10.8333 12.7737 11.3929 13.3333 12.0833 13.3333C12.7736 13.3333 13.3333 12.7737 13.3333 12.0833C13.3333 11.393 12.7736 10.8333 12.0833 10.8333ZM9.16658 12.0833C9.16658 10.4725 10.4724 9.16667 12.0833 9.16667C13.6941 9.16667 14.9999 10.4725 14.9999 12.0833C14.9999 13.6942 13.6941 15 12.0833 15C10.4724 15 9.16658 13.6942 9.16658 12.0833Z" fill="#9691A4"/>
<path fill-rule="evenodd" clip-rule="evenodd" d="M1.64659 3.2699C2.16231 2.77351 2.85522 2.5 3.57135 2.5H13.0952C13.8113 2.5 14.5042 2.77351 15.0199 3.2699C15.5367 3.76733 15.8333 4.44892 15.8333 5.16667V7C15.8333 7.46024 15.4602 7.83333 14.9999 7.83333C14.5397 7.83333 14.1666 7.46024 14.1666 7V5.16667C14.1666 4.91195 14.0618 4.66092 13.8641 4.47071C13.6654 4.27946 13.3894 4.16667 13.0952 4.16667H3.57135C3.27713 4.16667 3.00107 4.27946 2.80237 4.47071C2.60475 4.66092 2.49992 4.91195 2.49992 5.16667V10.6667C2.49992 10.9214 2.60475 11.1724 2.80237 11.3626C3.00107 11.5539 3.27713 11.6667 3.57135 11.6667H4.64278C5.10301 11.6667 5.47611 12.0398 5.47611 12.5C5.47611 12.9602 5.10301 13.3333 4.64278 13.3333H3.57135C2.85522 13.3333 2.16231 13.0598 1.64659 12.5634C1.12978 12.066 0.833252 11.3844 0.833252 10.6667V5.16667C0.833252 4.44892 1.12978 3.76733 1.64659 3.2699Z" fill="#9691A4"/>
</svg>
