<svg width="24" height="24" viewBox="0 0 24 24" fill="none" xmlns="http://www.w3.org/2000/svg">
<g clip-path="url(#clip0_33_3858)">
<path d="M8.06921 6.4552H9.47546V7.86145H8.06921V6.4552Z" fill="#FF5757"/>
<path d="M8.06921 9.68298H9.47546V11.0892H8.06921V9.68298Z" fill="#FF5757"/>
<path d="M14.5245 9.68298H15.9308V11.0892H14.5245V9.68298Z" fill="#FF5757"/>
<path d="M17.7522 9.68298H19.1585V11.0892H17.7522V9.68298Z" fill="#FF5757"/>
<path d="M14.5245 12.9108H15.9308V14.317H14.5245V12.9108Z" fill="#FF5757"/>
<path d="M17.7522 12.9108H19.1585V14.317H17.7522V12.9108Z" fill="#FF5757"/>
<path d="M14.5245 16.1383H15.9308V17.5446H14.5245V16.1383Z" fill="#FF5757"/>
<path d="M17.7522 16.1383H19.1585V17.5446H17.7522V16.1383Z" fill="#FF5757"/>
<path d="M14.5245 19.366H15.9308V20.7722H14.5245V19.366Z" fill="#FF5757"/>
<path d="M17.7522 19.366H19.1585V20.7722H17.7522V19.366Z" fill="#FF5757"/>
<path d="M4.84152 9.68298H6.24776V11.0892H4.84152V9.68298Z" fill="#FF5757"/>
<path d="M8.06921 12.9108H9.47546V14.317H8.06921V12.9108Z" fill="#FF5757"/>
<path d="M4.84152 12.9108H6.24776V14.317H4.84152V12.9108Z" fill="#FF5757"/>
<path d="M8.06921 16.1383H9.47546V17.5446H8.06921V16.1383Z" fill="#FF5757"/>
<path d="M4.84152 16.1383H6.24776V17.5446H4.84152V16.1383Z" fill="#FF5757"/>
<path d="M22.3861 22.5938V6.45534H12.7031V3.10078L11.0893 3.36975V0H3.22767V4.68005L1.61386 4.94902V22.5938H0V24H24V22.5938H22.3861ZM20.9799 7.86159V22.5938H12.7031V7.86159H20.9799ZM4.63392 1.40625H9.68302V3.60413L4.63392 4.44567V1.40625ZM3.02011 6.1403L11.2969 4.76081V6.45534V22.5938H9.47545V19.3661H4.84153V22.5938H3.02011V6.1403ZM8.0692 22.5938H6.24778V20.7723H8.0692V22.5938Z" fill="#FF5757"/>
</g>
<defs>
<clipPath id="clip0_33_3858">
<rect width="24" height="24" fill="white"/>
</clipPath>
</defs>
</svg>
