<svg width="24" height="24" viewBox="0 0 24 24" fill="none" xmlns="http://www.w3.org/2000/svg">
<g clip-path="url(#clip0_33_3887)">
<path d="M13.4147 9.24147L15.4243 12.4397H16.7218V6.41626H15.3155V9.62341L13.3059 6.42517L12.0085 6.42484V12.5119H13.4147V9.24147Z" fill="#FF5757"/>
<path d="M11.0847 11.0628H9.12679V10.1458H10.9403V8.73952H9.12679V7.82251H11.0847V6.41626H7.72054V12.4691H11.0847V11.0628Z" fill="#FF5757"/>
<path d="M18.7912 12.5119H20.1974V7.82251H21.4976V6.41626H17.5016V7.82251H18.7912V12.5119Z" fill="#FF5757"/>
<path d="M4.47124 10.7659L6.23186 12.8005L7.29527 11.8804L5.76911 10.1167C6.49436 9.82931 7.00661 9.14053 7.00661 8.33813C7.00661 7.27843 6.11355 6.41626 5.01578 6.41626H3.06499V12.5119H4.47124V10.7659ZM4.47124 7.82251H5.01578C5.33266 7.82251 5.60036 8.05862 5.60036 8.33813C5.60036 8.61765 5.33266 8.85375 5.01578 8.85375C4.88528 8.85375 4.67903 8.8545 4.47124 8.85544V7.82251Z" fill="#FF5757"/>
<path d="M24 3.24984H15.13V1.878L12 0L8.87002 1.878V3.24984H0V15.953H8.87002V24H15.13V15.953H24V3.24984ZM10.2763 2.67417L12 1.63992L13.7237 2.67417V3.2498H10.2762V2.67417H10.2763ZM13.7237 22.5938H10.2762V15.953H13.7237V22.5938ZM22.5938 14.5467H1.40625V4.65609H22.5938V14.5467Z" fill="#FF5757"/>
</g>
<defs>
<clipPath id="clip0_33_3887">
<rect width="24" height="24" fill="white"/>
</clipPath>
</defs>
</svg>
