<svg version="1.2" xmlns="http://www.w3.org/2000/svg" viewBox="0 0 24 24" width="24" height="24">
	<title>category-icon-1-svg</title>
	<defs>
		<clipPath clipPathUnits="userSpaceOnUse" id="cp1">
			<path d="m0 0h24v24h-24z"/>
		</clipPath>
	</defs>
	<style>
		.s0 { fill: #ff5757 } 
	</style>
	<g id="Clip-Path" clip-path="url(#cp1)">
		<g id="Layer">
			<path id="Layer" class="s0" d="m0 22.6h24v1.4h-24z"/>
			<path id="Layer" fill-rule="evenodd" class="s0" d="m24 20.8h-24v-1.4h1.6v-8.3h-1.6v-2.6l5.3-5.3h1.2v-3.2h4.6v3.2h7.6l5.3 5.3v2.6h-1.6v8.3h1.6zm-11.9-16.2l5 5.1h5.5v-0.6l-4.4-4.5zm-4.3-1.4h1.9v-1.8h-1.9zm-1 6.5l5.1-5.1h-6.1l-4.4 4.4v0.7zm14.1 1.4h-4.4l-4.6-4.6-4.5 4.6h-4.5v1.8h3.3v4.6h-3.3v1.8h5.1v-6.4h7.9v6.4h5v-1.8h-3.2v-4.6h3.2zm-6.5 3.2h-5v5.1h5zm6.5 0h-1.8v1.8h1.8zm-18 1.8h1.9v-1.8h-1.9z"/>
			<path id="Layer" class="s0" d="m10.4 9.7h3.2v1.4h-3.2z"/>
		</g>
	</g>
</svg>