<svg width="255" height="229" viewBox="0 0 255 229" fill="none" xmlns="http://www.w3.org/2000/svg">
<rect x="0.648766" y="0.958337" width="253.019" height="227.068" rx="14.9216" fill="#F9F8FA"/>
<rect x="0.648766" y="0.958337" width="253.019" height="227.068" rx="14.9216" stroke="#D5D2DC" stroke-width="1.29753" stroke-dasharray="10.38 10.38"/>
<path fill-rule="evenodd" clip-rule="evenodd" d="M127.159 86.4501C124.77 86.4501 122.833 88.3866 122.833 90.7753C122.833 93.164 124.77 95.1004 127.159 95.1004C129.547 95.1004 131.484 93.164 131.484 90.7753C131.484 88.3866 129.547 86.4501 127.159 86.4501ZM118.508 90.7753C118.508 85.9979 122.381 82.125 127.159 82.125C131.936 82.125 135.809 85.9979 135.809 90.7753C135.809 95.5526 131.936 99.4255 127.159 99.4255C122.381 99.4255 118.508 95.5526 118.508 90.7753Z" fill="#9691A4"/>
<path fill-rule="evenodd" clip-rule="evenodd" d="M119.775 70.4165C120.586 69.6054 121.686 69.1497 122.833 69.1497H127.159C128.353 69.1497 129.321 70.1179 129.321 71.3123C129.321 72.5066 128.353 73.4748 127.159 73.4748L122.833 73.4748C122.833 75.1954 122.15 76.8456 120.933 78.0623C119.717 79.279 118.066 79.9625 116.346 79.9625H112.021C111.447 79.9625 110.897 80.1903 110.491 80.5959C110.086 81.0014 109.858 81.5515 109.858 82.125V101.588C109.858 102.162 110.086 102.712 110.491 103.117C110.897 103.523 111.447 103.751 112.021 103.751H142.296C142.87 103.751 143.42 103.523 143.826 103.117C144.231 102.712 144.459 102.162 144.459 101.588V86.4501C144.459 85.2558 145.427 84.2876 146.621 84.2876C147.816 84.2876 148.784 85.2558 148.784 86.4501V101.588C148.784 103.309 148.101 104.959 146.884 106.175C145.667 107.392 144.017 108.076 142.296 108.076H112.021C110.3 108.076 108.65 107.392 107.433 106.175C106.216 104.959 105.533 103.309 105.533 101.588V82.125C105.533 80.4044 106.216 78.7542 107.433 77.5376C108.65 76.3209 110.3 75.6374 112.021 75.6374H116.346C116.919 75.6374 117.469 75.4095 117.875 75.004C118.28 74.5984 118.508 74.0484 118.508 73.4748C118.508 72.3277 118.964 71.2276 119.775 70.4165Z" fill="#9691A4"/>
<path fill-rule="evenodd" clip-rule="evenodd" d="M131.484 75.6373C131.484 74.4429 132.452 73.4747 133.646 73.4747H146.621C147.816 73.4747 148.784 74.4429 148.784 75.6373C148.784 76.8316 147.816 77.7998 146.621 77.7998H133.646C132.452 77.7998 131.484 76.8316 131.484 75.6373Z" fill="#9691A4"/>
<path fill-rule="evenodd" clip-rule="evenodd" d="M140.134 66.9871C141.328 66.9871 142.296 67.9553 142.296 69.1496V82.125C142.296 83.3193 141.328 84.2875 140.134 84.2875C138.939 84.2875 137.971 83.3193 137.971 82.125V69.1496C137.971 67.9553 138.939 66.9871 140.134 66.9871Z" fill="#9691A4"/>
<path d="M56.5654 158.323L61.8801 143.791H64.8696L70.1843 158.323H67.3608L66.1983 154.96H60.5306L59.3473 158.323H56.5654ZM61.2572 152.884H65.4716L63.3541 146.843L61.2572 152.884ZM76.2408 158.572C75.272 158.572 74.407 158.337 73.6458 157.866C72.8845 157.396 72.2825 156.752 71.8396 155.936C71.3967 155.119 71.1753 154.192 71.1753 153.154C71.1753 152.116 71.3967 151.195 71.8396 150.393C72.2825 149.576 72.8845 148.939 73.6458 148.483C74.407 148.012 75.272 147.777 76.2408 147.777C77.0159 147.777 77.6941 147.922 78.2754 148.213C78.8567 148.503 79.3272 148.912 79.6871 149.438V143.376H82.3444V158.323H79.9777L79.6871 156.849C79.3549 157.306 78.912 157.707 78.3584 158.053C77.8186 158.399 77.1128 158.572 76.2408 158.572ZM76.8014 156.247C77.6595 156.247 78.3584 155.963 78.8982 155.396C79.4518 154.815 79.7286 154.074 79.7286 153.175C79.7286 152.275 79.4518 151.541 78.8982 150.974C78.3584 150.393 77.6595 150.102 76.8014 150.102C75.9571 150.102 75.2582 150.386 74.7045 150.953C74.1509 151.521 73.8741 152.254 73.8741 153.154C73.8741 154.053 74.1509 154.794 74.7045 155.375C75.2582 155.956 75.9571 156.247 76.8014 156.247ZM89.7838 158.572C88.815 158.572 87.95 158.337 87.1888 157.866C86.4275 157.396 85.8255 156.752 85.3826 155.936C84.9397 155.119 84.7183 154.192 84.7183 153.154C84.7183 152.116 84.9397 151.195 85.3826 150.393C85.8255 149.576 86.4275 148.939 87.1888 148.483C87.95 148.012 88.815 147.777 89.7838 147.777C90.5589 147.777 91.2371 147.922 91.8184 148.213C92.3997 148.503 92.8702 148.912 93.2301 149.438V143.376H95.8874V158.323H93.5207L93.2301 156.849C92.8979 157.306 92.455 157.707 91.9014 158.053C91.3616 158.399 90.6558 158.572 89.7838 158.572ZM90.3444 156.247C91.2025 156.247 91.9014 155.963 92.4412 155.396C92.9948 154.815 93.2716 154.074 93.2716 153.175C93.2716 152.275 92.9948 151.541 92.4412 150.974C91.9014 150.393 91.2025 150.102 90.3444 150.102C89.5001 150.102 88.8012 150.386 88.2475 150.953C87.6939 151.521 87.4171 152.254 87.4171 153.154C87.4171 154.053 87.6939 154.794 88.2475 155.375C88.8012 155.956 89.5001 156.247 90.3444 156.247ZM108.564 158.572C107.499 158.572 106.557 158.392 105.741 158.033C104.924 157.659 104.281 157.133 103.81 156.455C103.34 155.763 103.097 154.925 103.084 153.943H105.886C105.914 154.621 106.156 155.195 106.613 155.666C107.083 156.123 107.727 156.351 108.544 156.351C109.249 156.351 109.81 156.185 110.225 155.853C110.64 155.507 110.848 155.05 110.848 154.482C110.848 153.887 110.661 153.424 110.287 153.092C109.928 152.759 109.443 152.489 108.834 152.282C108.225 152.074 107.575 151.853 106.883 151.618C105.762 151.23 104.904 150.732 104.308 150.123C103.727 149.514 103.436 148.704 103.436 147.694C103.423 146.836 103.623 146.102 104.039 145.493C104.468 144.87 105.049 144.393 105.782 144.061C106.516 143.715 107.36 143.542 108.315 143.542C109.284 143.542 110.135 143.715 110.869 144.061C111.616 144.407 112.197 144.891 112.613 145.514C113.042 146.137 113.27 146.877 113.298 147.735H110.454C110.44 147.223 110.239 146.773 109.851 146.386C109.478 145.985 108.952 145.784 108.274 145.784C107.692 145.77 107.201 145.915 106.8 146.22C106.412 146.51 106.218 146.939 106.218 147.507C106.218 147.991 106.371 148.379 106.675 148.67C106.98 148.946 107.395 149.182 107.921 149.375C108.447 149.569 109.049 149.777 109.727 149.998C110.447 150.247 111.104 150.538 111.699 150.87C112.294 151.202 112.772 151.645 113.132 152.199C113.491 152.739 113.671 153.438 113.671 154.296C113.671 155.057 113.478 155.763 113.09 156.413C112.703 157.064 112.128 157.59 111.367 157.991C110.606 158.379 109.672 158.572 108.564 158.572ZM117.36 146.427C116.876 146.427 116.474 146.282 116.156 145.991C115.852 145.701 115.699 145.334 115.699 144.891C115.699 144.448 115.852 144.088 116.156 143.812C116.474 143.521 116.876 143.376 117.36 143.376C117.845 143.376 118.239 143.521 118.543 143.812C118.862 144.088 119.021 144.448 119.021 144.891C119.021 145.334 118.862 145.701 118.543 145.991C118.239 146.282 117.845 146.427 117.36 146.427ZM116.031 158.323V148.026H118.689V158.323H116.031ZM125.822 155.251C125.324 155.251 124.86 155.195 124.431 155.085L123.663 155.853C123.898 155.977 124.217 156.081 124.618 156.164C125.019 156.247 125.67 156.33 126.57 156.413C127.94 156.538 128.936 156.863 129.559 157.389C130.182 157.915 130.493 158.642 130.493 159.569C130.493 160.178 130.327 160.752 129.995 161.292C129.663 161.846 129.151 162.288 128.459 162.621C127.767 162.967 126.881 163.14 125.801 163.14C124.334 163.14 123.151 162.863 122.251 162.309C121.352 161.769 120.902 160.953 120.902 159.859C120.902 158.932 121.352 158.129 122.251 157.451C121.975 157.327 121.732 157.195 121.525 157.057C121.331 156.918 121.158 156.773 121.006 156.621V156.143L122.812 154.233C122.009 153.528 121.608 152.621 121.608 151.514C121.608 150.822 121.774 150.192 122.106 149.625C122.452 149.057 122.936 148.607 123.559 148.275C124.182 147.943 124.936 147.777 125.822 147.777C126.403 147.777 126.943 147.86 127.441 148.026H131.344V149.645L129.58 149.77C129.857 150.296 129.995 150.877 129.995 151.514C129.995 152.206 129.829 152.835 129.497 153.403C129.165 153.97 128.68 154.42 128.044 154.752C127.421 155.085 126.68 155.251 125.822 155.251ZM125.822 153.216C126.362 153.216 126.805 153.071 127.151 152.78C127.511 152.489 127.691 152.074 127.691 151.534C127.691 150.995 127.511 150.58 127.151 150.289C126.805 149.998 126.362 149.853 125.822 149.853C125.255 149.853 124.798 149.998 124.452 150.289C124.106 150.58 123.933 150.995 123.933 151.534C123.933 152.074 124.106 152.489 124.452 152.78C124.798 153.071 125.255 153.216 125.822 153.216ZM123.331 159.59C123.331 160.102 123.566 160.482 124.037 160.731C124.521 160.994 125.109 161.126 125.801 161.126C126.466 161.126 127.006 160.987 127.421 160.711C127.836 160.448 128.044 160.088 128.044 159.631C128.044 159.257 127.905 158.946 127.628 158.697C127.365 158.448 126.832 158.296 126.03 158.24C125.462 158.199 124.936 158.136 124.452 158.053C124.051 158.275 123.76 158.517 123.58 158.78C123.414 159.043 123.331 159.313 123.331 159.59ZM133.282 158.323V148.026H135.628L135.836 149.77C136.154 149.161 136.611 148.676 137.206 148.317C137.815 147.957 138.528 147.777 139.344 147.777C140.618 147.777 141.607 148.178 142.313 148.981C143.019 149.784 143.372 150.96 143.372 152.51V158.323H140.714V152.759C140.714 151.874 140.534 151.195 140.175 150.725C139.815 150.254 139.254 150.019 138.493 150.019C137.746 150.019 137.13 150.282 136.645 150.808C136.175 151.334 135.939 152.067 135.939 153.008V158.323H133.282ZM149.463 158.572C148.577 158.572 147.85 158.434 147.283 158.157C146.716 157.866 146.293 157.486 146.017 157.015C145.74 156.545 145.601 156.026 145.601 155.458C145.601 154.503 145.975 153.728 146.722 153.133C147.47 152.538 148.591 152.24 150.086 152.24H152.702V151.991C152.702 151.285 152.501 150.766 152.099 150.434C151.698 150.102 151.2 149.936 150.605 149.936C150.065 149.936 149.594 150.067 149.193 150.33C148.792 150.58 148.542 150.953 148.446 151.451H145.851C145.92 150.704 146.169 150.054 146.598 149.5C147.041 148.946 147.608 148.524 148.3 148.234C148.992 147.929 149.767 147.777 150.625 147.777C152.093 147.777 153.248 148.144 154.092 148.877C154.937 149.611 155.359 150.649 155.359 151.991V158.323H153.096L152.847 156.662C152.542 157.216 152.113 157.673 151.56 158.033C151.02 158.392 150.321 158.572 149.463 158.572ZM150.065 156.496C150.826 156.496 151.414 156.247 151.83 155.749C152.259 155.251 152.529 154.635 152.639 153.901H150.376C149.67 153.901 149.165 154.033 148.861 154.296C148.556 154.545 148.404 154.856 148.404 155.23C148.404 155.631 148.556 155.943 148.861 156.164C149.165 156.386 149.567 156.496 150.065 156.496ZM162.341 158.323C161.261 158.323 160.396 158.06 159.746 157.534C159.095 157.008 158.77 156.074 158.77 154.732V150.247H157.005V148.026H158.77L159.081 145.265H161.427V148.026H164.209V150.247H161.427V154.752C161.427 155.251 161.531 155.597 161.739 155.79C161.96 155.97 162.334 156.06 162.86 156.06H164.147V158.323H162.341ZM170.352 158.572C169.065 158.572 168.069 158.171 167.363 157.368C166.671 156.565 166.325 155.389 166.325 153.839V148.026H168.961V153.59C168.961 154.476 169.141 155.154 169.501 155.624C169.861 156.095 170.428 156.33 171.204 156.33C171.937 156.33 172.539 156.067 173.01 155.541C173.494 155.015 173.736 154.282 173.736 153.341V148.026H176.394V158.323H174.048L173.84 156.579C173.522 157.188 173.058 157.673 172.449 158.033C171.854 158.392 171.155 158.572 170.352 158.572ZM179.122 158.323V148.026H181.488L181.737 149.957C182.111 149.292 182.616 148.766 183.253 148.379C183.903 147.978 184.665 147.777 185.537 147.777V150.58H184.789C184.208 150.58 183.689 150.669 183.232 150.849C182.775 151.029 182.416 151.341 182.153 151.784C181.903 152.227 181.779 152.842 181.779 153.631V158.323H179.122ZM192.174 158.572C191.136 158.572 190.215 158.351 189.412 157.908C188.61 157.465 187.98 156.842 187.523 156.04C187.066 155.237 186.838 154.309 186.838 153.258C186.838 152.192 187.06 151.244 187.502 150.413C187.959 149.583 188.582 148.939 189.371 148.483C190.174 148.012 191.115 147.777 192.194 147.777C193.205 147.777 194.097 147.998 194.872 148.441C195.648 148.884 196.25 149.493 196.679 150.268C197.122 151.029 197.343 151.88 197.343 152.822C197.343 152.974 197.336 153.133 197.322 153.299C197.322 153.465 197.315 153.638 197.301 153.818H189.475C189.53 154.621 189.807 155.251 190.305 155.707C190.817 156.164 191.433 156.392 192.153 156.392C192.693 156.392 193.142 156.275 193.502 156.04C193.876 155.79 194.153 155.472 194.333 155.085H197.032C196.838 155.735 196.513 156.33 196.056 156.87C195.613 157.396 195.059 157.811 194.395 158.116C193.744 158.42 193.004 158.572 192.174 158.572ZM192.194 149.936C191.544 149.936 190.969 150.123 190.471 150.496C189.973 150.856 189.655 151.41 189.516 152.157H194.644C194.603 151.479 194.353 150.939 193.897 150.538C193.44 150.137 192.873 149.936 192.194 149.936Z" fill="#454056"/>
</svg>
