<svg width="651" height="162" viewBox="0 0 651 162" fill="none" xmlns="http://www.w3.org/2000/svg">
<rect y="103.807" width="34.9606" height="58" rx="8" fill="#E9EDF7"/>
<rect x="55.9609" y="19.8071" width="34.9606" height="142" rx="8" fill="#E9EDF7"/>
<rect x="111.922" y="63.8071" width="34.9606" height="98" rx="8" fill="#E9EDF7"/>
<rect x="167.883" y="49.8071" width="34.9606" height="112" rx="8" fill="#E9EDF7"/>
<rect x="223.844" y="71.8071" width="34.9606" height="90" rx="8" fill="#E9EDF7"/>
<rect x="279.805" y="0.807129" width="34.9606" height="161" rx="8" fill="#FF5757"/>
<rect x="335.766" y="83.8071" width="34.9606" height="78" rx="8" fill="#E9EDF7"/>
<rect x="391.727" y="19.8071" width="34.9606" height="142" rx="8" fill="#E9EDF7"/>
<rect x="447.688" y="122.807" width="34.9606" height="39" rx="8" fill="#E9EDF7"/>
<rect x="503.648" y="49.8071" width="34.9606" height="112" rx="8" fill="#E9EDF7"/>
<rect x="559.609" y="98.8071" width="34.9606" height="63" rx="8" fill="#E9EDF7"/>
<rect x="615.566" y="63.8071" width="34.9606" height="98" rx="8" fill="#E9EDF7"/>
</svg>
