<svg width="24" height="25" viewBox="0 0 24 25" fill="none" xmlns="http://www.w3.org/2000/svg">
<path d="M8.00001 11.5C8.00001 11.2348 8.10537 10.9805 8.2929 10.7929C8.48044 10.6054 8.7348 10.5 9.00001 10.5H15C15.2652 10.5 15.5196 10.6054 15.7071 10.7929C15.8947 10.9805 16 11.2348 16 11.5C16 11.7653 15.8947 12.0196 15.7071 12.2071C15.5196 12.3947 15.2652 12.5 15 12.5H9.00001C8.7348 12.5 8.48044 12.3947 8.2929 12.2071C8.10537 12.0196 8.00001 11.7653 8.00001 11.5ZM9.00001 14.5C8.7348 14.5 8.48044 14.6054 8.2929 14.7929C8.10537 14.9805 8.00001 15.2348 8.00001 15.5C8.00001 15.7653 8.10537 16.0196 8.2929 16.2071C8.48044 16.3947 8.7348 16.5 9.00001 16.5H13C13.2652 16.5 13.5196 16.3947 13.7071 16.2071C13.8947 16.0196 14 15.7653 14 15.5C14 15.2348 13.8947 14.9805 13.7071 14.7929C13.5196 14.6054 13.2652 14.5 13 14.5H9.00001ZM2.00001 12.5C2.00051 10.3076 2.72149 8.17615 4.052 6.43363C5.3825 4.6911 7.24878 3.43411 9.36361 2.85611C11.4784 2.27811 13.7246 2.41112 15.7565 3.23469C17.7883 4.05826 19.4932 5.52673 20.6087 7.4141C21.7243 9.30148 22.1886 11.5032 21.9304 13.6803C21.6721 15.8574 20.7056 17.8894 19.1794 19.4634C17.6533 21.0374 15.6521 22.0662 13.484 22.3916C11.3159 22.7169 9.10093 22.3208 7.18001 21.264L3.29201 22.448C3.11859 22.5009 2.93408 22.5056 2.7582 22.4616C2.58232 22.4177 2.42169 22.3267 2.29351 22.1985C2.16532 22.0704 2.07439 21.9097 2.03044 21.7338C1.98649 21.558 1.99118 21.3735 2.04401 21.2L3.22801 17.306C2.41992 15.8332 1.99749 14.18 2.00001 12.5ZM12 4.50003C10.5799 4.49992 9.18533 4.87782 7.95957 5.59495C6.73381 6.31207 5.72103 7.34255 5.02527 8.58056C4.3295 9.81856 3.97582 11.2195 4.00055 12.6394C4.02529 14.0593 4.42755 15.447 5.16601 16.66C5.23932 16.7805 5.2863 16.9152 5.30388 17.0551C5.32146 17.1951 5.30924 17.3371 5.26801 17.472L4.50201 19.99L7.01601 19.224C7.15133 19.1828 7.29385 19.1708 7.43417 19.1887C7.57449 19.2066 7.70941 19.2541 7.83001 19.328C8.88437 19.9718 10.0735 20.3626 11.3041 20.4698C12.5348 20.5771 13.7736 20.3979 14.9234 19.9463C16.0733 19.4946 17.1029 18.7829 17.9316 17.8667C18.7603 16.9506 19.3656 15.855 19.7 14.6658C20.0344 13.4766 20.0889 12.2261 19.8592 11.0123C19.6295 9.79854 19.1218 8.65445 18.3759 7.66971C17.63 6.68497 16.6662 5.88635 15.56 5.33643C14.4539 4.7865 13.2353 4.50023 12 4.50003Z" fill="#5D6B98"/>
</svg>
