<svg xmlns="http://www.w3.org/2000/svg" width="20" height="20" viewBox="0 0 20 20" fill="none">
<path d="M5.9827 8.87926C5.9827 8.63233 6.08079 8.39552 6.2554 8.22092C6.43 8.04631 6.66681 7.94822 6.91374 7.94822H12.4999C12.7469 7.94822 12.9837 8.04631 13.1583 8.22092C13.3329 8.39552 13.431 8.63233 13.431 8.87926C13.431 9.12618 13.3329 9.363 13.1583 9.5376C12.9837 9.7122 12.7469 9.81029 12.4999 9.81029H6.91374C6.66681 9.81029 6.43 9.7122 6.2554 9.5376C6.08079 9.363 5.9827 9.12618 5.9827 8.87926ZM6.91374 11.6724C6.66681 11.6724 6.43 11.7705 6.2554 11.9451C6.08079 12.1197 5.9827 12.3565 5.9827 12.6034C5.9827 12.8503 6.08079 13.0871 6.2554 13.2617C6.43 13.4363 6.66681 13.5344 6.91374 13.5344H10.6379C10.8848 13.5344 11.1216 13.4363 11.2962 13.2617C11.4708 13.0871 11.5689 12.8503 11.5689 12.6034C11.5689 12.3565 11.4708 12.1197 11.2962 11.9451C11.1216 11.7705 10.8848 11.6724 10.6379 11.6724H6.91374ZM0.396495 9.81029C0.396962 7.76909 1.06822 5.78461 2.30696 4.16226C3.5457 2.53991 5.28328 1.36961 7.25226 0.831467C9.22125 0.293325 11.3125 0.417168 13.2042 1.18394C15.0959 1.95071 16.6832 3.3179 17.7219 5.07511C18.7605 6.83233 19.1928 8.88216 18.9524 10.9092C18.7119 12.9361 17.812 14.8279 16.3911 16.2934C14.9702 17.7589 13.1071 18.7168 11.0885 19.0197C9.0699 19.3226 7.00769 18.9537 5.21925 17.9699L1.59939 19.0722C1.43793 19.1214 1.26614 19.1258 1.10239 19.0849C0.938643 19.0439 0.789097 18.9593 0.669749 18.8399C0.550401 18.7206 0.465741 18.571 0.424826 18.4073C0.38391 18.2435 0.388277 18.0718 0.43746 17.9103L1.53981 14.2848C0.787445 12.9136 0.394144 11.3744 0.396495 9.81029ZM9.70684 2.36202C8.38466 2.36191 7.08627 2.71375 5.94505 3.38142C4.80382 4.04908 3.8609 5.0085 3.21311 6.16113C2.56533 7.31375 2.23604 8.61804 2.25907 9.94002C2.2821 11.262 2.65661 12.554 3.34415 13.6834C3.4124 13.7956 3.45614 13.9209 3.47251 14.0512C3.48888 14.1815 3.4775 14.3138 3.43912 14.4394L2.72594 16.7837L5.06656 16.0706C5.19255 16.0322 5.32524 16.021 5.45588 16.0377C5.58652 16.0544 5.71214 16.0986 5.82443 16.1674C6.80607 16.7667 7.91317 17.1306 9.05897 17.2304C10.2048 17.3303 11.3581 17.1635 12.4286 16.743C13.4992 16.3225 14.4578 15.6598 15.2293 14.8069C16.0009 13.9539 16.5644 12.9339 16.8758 11.8267C17.1872 10.7195 17.2379 9.55527 17.024 8.42519C16.8101 7.29511 16.3375 6.22992 15.643 5.3131C14.9486 4.39627 14.0512 3.65272 13.0213 3.14073C11.9915 2.62873 10.857 2.3622 9.70684 2.36202Z" fill="#5D6B98"/>
</svg>