<svg width="18" height="19" viewBox="0 0 18 19" fill="none" xmlns="http://www.w3.org/2000/svg">
<path fill-rule="evenodd" clip-rule="evenodd" d="M4.5 4.99999C4.08579 4.99999 3.75 5.33578 3.75 5.74999V14.75C3.75 15.1642 4.08579 15.5 4.5 15.5H13.5C13.9142 15.5 14.25 15.1642 14.25 14.75V5.74999C14.25 5.33578 13.9142 4.99999 13.5 4.99999H4.5ZM2.25 5.74999C2.25 4.50735 3.25736 3.49999 4.5 3.49999H13.5C14.7426 3.49999 15.75 4.50735 15.75 5.74999V14.75C15.75 15.9926 14.7426 17 13.5 17H4.5C3.25736 17 2.25 15.9926 2.25 14.75V5.74999Z" fill="#454056"/>
<path fill-rule="evenodd" clip-rule="evenodd" d="M12 2C12.4142 2 12.75 2.33579 12.75 2.75V5.75C12.75 6.16421 12.4142 6.5 12 6.5C11.5858 6.5 11.25 6.16421 11.25 5.75V2.75C11.25 2.33579 11.5858 2 12 2Z" fill="#454056"/>
<path fill-rule="evenodd" clip-rule="evenodd" d="M6.00003 2C6.41424 2 6.75003 2.33579 6.75003 2.75V5.75C6.75003 6.16421 6.41424 6.5 6.00003 6.5C5.58581 6.5 5.25003 6.16421 5.25003 5.75V2.75C5.25003 2.33579 5.58581 2 6.00003 2Z" fill="#454056"/>
<path fill-rule="evenodd" clip-rule="evenodd" d="M2.25 8.74999C2.25 8.33578 2.58579 7.99999 3 7.99999H15C15.4142 7.99999 15.75 8.33578 15.75 8.74999C15.75 9.16421 15.4142 9.49999 15 9.49999H3C2.58579 9.49999 2.25 9.16421 2.25 8.74999Z" fill="#454056"/>
</svg>
