<svg width="16" height="17" viewBox="0 0 16 17" fill="none" xmlns="http://www.w3.org/2000/svg">
<g opacity="0.7">
<path fill-rule="evenodd" clip-rule="evenodd" d="M4 4.49999C3.63181 4.49999 3.33333 4.79847 3.33333 5.16666V13.1667C3.33333 13.5348 3.63181 13.8333 4 13.8333H12C12.3682 13.8333 12.6667 13.5348 12.6667 13.1667V5.16666C12.6667 4.79847 12.3682 4.49999 12 4.49999H4ZM2 5.16666C2 4.06209 2.89543 3.16666 4 3.16666H12C13.1046 3.16666 14 4.06209 14 5.16666V13.1667C14 14.2712 13.1046 15.1667 12 15.1667H4C2.89543 15.1667 2 14.2712 2 13.1667V5.16666Z" fill="white"/>
<path fill-rule="evenodd" clip-rule="evenodd" d="M10.6667 1.83333C11.0349 1.83333 11.3333 2.13181 11.3333 2.49999V5.16666C11.3333 5.53485 11.0349 5.83333 10.6667 5.83333C10.2985 5.83333 10 5.53485 10 5.16666V2.49999C10 2.13181 10.2985 1.83333 10.6667 1.83333Z" fill="white"/>
<path fill-rule="evenodd" clip-rule="evenodd" d="M5.33336 1.83333C5.70155 1.83333 6.00002 2.13181 6.00002 2.49999V5.16666C6.00002 5.53485 5.70155 5.83333 5.33336 5.83333C4.96517 5.83333 4.66669 5.53485 4.66669 5.16666V2.49999C4.66669 2.13181 4.96517 1.83333 5.33336 1.83333Z" fill="white"/>
<path fill-rule="evenodd" clip-rule="evenodd" d="M2 7.83332C2 7.46513 2.29848 7.16666 2.66667 7.16666H13.3333C13.7015 7.16666 14 7.46513 14 7.83332C14 8.20151 13.7015 8.49999 13.3333 8.49999H2.66667C2.29848 8.49999 2 8.20151 2 7.83332Z" fill="white"/>
</g>
</svg>
