<svg xmlns="http://www.w3.org/2000/svg" width="14" height="14" viewBox="0 0 14 14" fill="none">
<path fill-rule="evenodd" clip-rule="evenodd" d="M7.02558 2.00565C4.26839 2.00565 2.03324 4.2408 2.03324 6.99799C2.03324 9.75518 4.26839 11.9903 7.02558 11.9903C9.78277 11.9903 12.0179 9.75518 12.0179 6.99799C12.0179 4.2408 9.78277 2.00565 7.02558 2.00565ZM0.785156 6.99799C0.785156 3.5515 3.57909 0.757568 7.02558 0.757568C10.4721 0.757568 13.266 3.5515 13.266 6.99799C13.266 10.4445 10.4721 13.2384 7.02558 13.2384C3.57909 13.2384 0.785156 10.4445 0.785156 6.99799Z" fill="white"/>
<path fill-rule="evenodd" clip-rule="evenodd" d="M7.02558 3.25383C7.37023 3.25383 7.64962 3.53322 7.64962 3.87787V6.7396L9.33897 8.42894C9.58267 8.67265 9.58267 9.06777 9.33897 9.31147C9.09527 9.55518 8.70014 9.55518 8.45644 9.31147L6.58431 7.43935C6.46728 7.32232 6.40154 7.16359 6.40154 6.99808V3.87787C6.40154 3.53322 6.68093 3.25383 7.02558 3.25383Z" fill="white"/>
</svg>