<svg xmlns="http://www.w3.org/2000/svg" width="26" height="26" viewBox="0 0 26 26" fill="none">
<path d="M0.790356 24.9746C-0.263452 23.9306 -0.263452 22.2026 0.790356 21.1586L21.3578 0.782515C22.4116 -0.261489 24.1558 -0.261489 25.2096 0.782515C26.2635 1.82652 26.2635 3.55452 25.2096 4.59853L4.64221 24.9746C4.13347 25.5146 3.40671 25.7666 2.71628 25.7666C2.02586 25.7666 1.33543 25.5146 0.790356 24.9746Z" fill="#D8D8D8"/>
<path d="M21.3578 24.9746L0.790356 4.59853C-0.263452 3.55452 -0.263452 1.82652 0.790356 0.782515C1.84417 -0.261489 3.5884 -0.261489 4.64221 0.782515L25.2096 21.1586C26.2635 22.2026 26.2635 23.9306 25.2096 24.9746C24.6646 25.5146 23.9741 25.7666 23.2837 25.7666C22.5933 25.7666 21.9029 25.5146 21.3578 24.9746Z" fill="#D8D8D8"/>
</svg>