<?xml version="1.0" encoding="UTF-8"?>
<svg version="1.1" xmlns="http://www.w3.org/2000/svg" width="512" height="512">
<path d="M0 0 C1.23356808 0.00004181 1.23356808 0.00004181 2.49205673 0.00008446 C23.2283667 0.00100451 43.96466768 0.01141404 64.70097232 0.02562964 C76.69111 0.03375355 88.68124686 0.03908806 100.67138672 0.04272461 C101.53510175 0.04298733 102.39881679 0.04325006 103.28870501 0.04352074 C107.62838189 0.04482724 111.96805878 0.04609059 116.30773568 0.04733264 C151.43172406 0.05743965 186.55570517 0.07480213 221.6796875 0.09765625 C221.77130056 41.66161159 221.84175543 83.22555526 221.88394882 124.78959162 C221.88895147 129.6998158 221.89412878 134.61003979 221.89941406 139.52026367 C221.9004633 140.49777528 221.90151255 141.47528689 221.90259358 142.48242006 C221.91998514 158.29725892 221.95151594 174.11203944 221.98829868 189.92684373 C222.02574288 206.16179102 222.04793071 222.39670782 222.05604148 238.63169652 C222.06152204 248.64455183 222.0788139 258.65724225 222.11135337 268.67004678 C222.13254421 275.54199268 222.13887722 282.41385369 222.13369301 289.28582986 C222.13113832 293.24694959 222.13497454 297.20778173 222.1565094 301.16884995 C222.17612312 304.80329573 222.17686288 308.43726337 222.16328308 312.0717322 C222.16082019 313.99279006 222.17793891 315.91384317 222.19601274 317.83481759 C222.09468005 332.70146964 217.13847574 346.53736553 206.8671875 357.47265625 C197.22475109 366.42767426 184.66018293 372.21017596 171.46289062 372.23187733 C170.20344666 372.23633517 168.9440027 372.24079301 167.64639378 372.24538594 C166.25124167 372.24529666 164.85608958 372.24510682 163.4609375 372.24482727 C161.97683332 372.24812778 160.49273004 372.25185374 159.00862789 372.25596875 C154.92905311 372.26597571 150.84949303 372.26970345 146.76990771 372.27235806 C142.37024484 372.27626501 137.97059357 372.28584311 133.57093811 372.29457092 C122.94476379 372.31432476 112.31858854 372.32440038 101.69240046 372.33329871 C96.68619888 372.33768356 91.67999835 372.34304988 86.67379761 372.34828758 C70.02817505 372.36529912 53.38255314 372.37979264 36.73692322 372.38703632 C32.41820271 372.38894616 28.09948221 372.3908665 23.78076172 372.39282227 C22.17070013 372.39354788 22.17070013 372.39354788 20.52811205 372.39428815 C3.1454564 372.40258603 -14.23713039 372.42791922 -31.61975598 372.46040294 C-49.47304435 372.49349373 -67.32629774 372.51148693 -85.17961693 372.51468056 C-95.20076137 372.51684383 -105.2218054 372.52556569 -115.24291992 372.55114174 C-123.77853178 372.57287635 -132.31401882 372.58088559 -140.84965521 372.57117496 C-145.20167072 372.5666382 -149.55342885 372.56847995 -153.90540886 372.5879364 C-157.89678137 372.60562589 -161.88770984 372.60452393 -165.87908745 372.58903911 C-167.31590815 372.58667176 -168.75276008 372.59094087 -170.18953323 372.60286776 C-186.73146501 372.73157683 -199.89169863 368.2658908 -212.0703125 356.91015625 C-223.54704624 344.79582619 -226.79525429 331.57938852 -226.68107605 315.32270813 C-226.68238691 313.96027817 -226.68501849 312.59784896 -226.68884355 311.23542374 C-226.69550538 307.52046168 -226.68361582 303.80576241 -226.66850936 300.09083378 C-226.6554906 296.07394855 -226.65994257 292.0570768 -226.66221619 288.04017639 C-226.66378525 281.09020318 -226.65441458 274.14031481 -226.63750267 267.19036293 C-226.61306725 257.14205266 -226.60530276 247.09378318 -226.6015387 237.04544642 C-226.59498133 220.74064223 -226.57503958 204.4358832 -226.54663086 188.13110352 C-226.51907177 172.29744695 -226.49784725 156.46380268 -226.48510742 140.63012695 C-226.48431925 139.65328236 -226.48353108 138.67643777 -226.48271903 137.66999183 C-226.47880377 132.76919351 -226.47501268 127.86839511 -226.47128332 122.96759665 C-226.44020966 82.34425178 -226.38739336 41.7209566 -226.3203125 1.09765625 C-150.88037522 0.46203492 -75.44284993 -0.00353867 0 0 Z M-187.3203125 29.09765625 C-187.92913757 31.79610532 -187.92913757 31.79610532 -187.85375977 34.79663086 C-187.8695961 35.94139389 -187.88543243 37.08615692 -187.90174866 38.26560974 C-187.89678879 39.49795853 -187.89182892 40.73030731 -187.88671875 42 C-187.89291733 43.26985245 -187.89911591 44.5397049 -187.90550232 45.84803772 C-187.91260837 48.53426026 -187.91135665 51.218987 -187.89672852 53.9050293 C-187.87955011 57.33979501 -187.90302313 60.77288634 -187.93821812 64.20746517 C-187.96551698 67.49249645 -187.95545379 70.7773873 -187.94921875 74.0625 C-187.96247696 75.29282455 -187.97573517 76.52314911 -187.98939514 77.79075623 C-187.97686203 78.93867142 -187.96432892 80.08658661 -187.95141602 81.26928711 C-187.95045425 82.276483 -187.94949249 83.28367889 -187.94850159 84.32139587 C-187.28697522 87.24498921 -186.43318946 88.97571297 -184.24251229 91.04027361 C-179.65077825 93.56614002 -173.81257214 92.7715621 -168.72434998 92.72584534 C-167.3080698 92.73089049 -165.891796 92.73811908 -164.47553688 92.74734348 C-160.58360203 92.76629752 -156.69229428 92.75401476 -152.8003751 92.73662055 C-148.60331261 92.72326631 -144.40634307 92.73867656 -140.20928955 92.7504425 C-131.98753458 92.76883756 -123.76601699 92.76029459 -115.54426938 92.74235428 C-108.86391318 92.72833901 -102.18362151 92.72443316 -95.50325203 92.72779655 C-94.55313547 92.728274 -93.6030189 92.72875144 -92.62411093 92.72924335 C-90.6940905 92.73026966 -88.7640701 92.73132502 -86.83404971 92.73240911 C-69.76179613 92.74097983 -52.6896573 92.72428861 -35.61743164 92.69458008 C-19.04251282 92.66573724 -2.4677593 92.6586608 14.10717773 92.67407227 C32.14760451 92.69082333 50.18795277 92.69488017 68.22838157 92.67736191 C70.15106864 92.67551747 72.07375571 92.67368275 73.99644279 92.67185783 C74.94249483 92.67094574 75.88854686 92.67003365 76.86326714 92.66909393 C83.53798888 92.66348206 90.21267237 92.66680171 96.88739204 92.67340279 C105.01815541 92.68112447 113.14875589 92.67442542 121.27948637 92.64922775 C125.42986915 92.63670604 129.57999801 92.63061835 133.73039055 92.64176941 C137.52704114 92.65177767 141.32318431 92.64342599 145.1197729 92.62018823 C147.14960703 92.61254987 149.17948546 92.62461538 151.20929438 92.63729197 C152.40897976 92.62624428 153.60866514 92.61519659 154.84470463 92.60381413 C155.88242797 92.60262264 156.92015131 92.60143116 157.98932081 92.60020357 C161.37774419 91.96726268 162.53806283 90.73823027 164.6796875 88.09765625 C165.95150476 85.55402173 165.82051427 83.74880651 165.84082031 80.90112305 C165.85523163 79.27384529 165.85523163 79.27384529 165.86993408 77.61369324 C165.87418396 76.43664322 165.87843384 75.2595932 165.8828125 74.046875 C165.88851257 72.84078079 165.89421265 71.63468658 165.90008545 70.39204407 C165.90954596 67.8356718 165.91607359 65.27928727 165.91992188 62.72290039 C165.92962144 58.81179498 165.96063341 54.90121622 165.9921875 50.99023438 C165.99871794 48.50911771 166.00396825 46.02799728 166.0078125 43.546875 C166.0263327 41.79040901 166.0263327 41.79040901 166.04522705 39.99845886 C166.0407254 38.35699638 166.0407254 38.35699638 166.03613281 36.68237305 C166.03977844 35.72243942 166.04342407 34.7625058 166.04718018 33.77348328 C165.60849447 30.57927791 164.56023454 28.69480422 162.6796875 26.09765625 C160.03008827 24.77285663 158.04118611 24.96853074 155.0723896 24.96343517 C153.27268453 24.95674841 153.27268453 24.95674841 151.43662179 24.94992656 C150.09325607 24.95001586 148.74989035 24.95020573 147.40652466 24.95048523 C145.98871696 24.94718753 144.57091021 24.94346217 143.15310466 24.93934375 C139.24320301 24.92930512 135.3333167 24.92560398 131.42340398 24.92295444 C127.21200101 24.91905697 123.00061027 24.90947835 118.78921509 24.90074158 C108.61271127 24.88096274 98.43620644 24.87090976 88.2596882 24.86201379 C83.47148372 24.85763375 78.68328035 24.85226625 73.89507675 24.84702492 C57.98558087 24.83001223 42.07608569 24.81551653 26.16658211 24.80827618 C22.0363477 24.80636618 17.90611329 24.80444586 13.77587891 24.80249023 C12.74928767 24.80200649 11.72269643 24.80152275 10.66499637 24.80102435 C-5.97704768 24.79271835 -22.61901999 24.76737199 -39.26103269 24.73490956 C-56.33334412 24.70187824 -73.40561904 24.68383103 -90.47796261 24.68063194 C-100.0690621 24.67846333 -109.66005692 24.66966352 -119.25112534 24.64417076 C-127.41669895 24.62251744 -135.58214249 24.61438681 -143.74774157 24.62413754 C-147.91635122 24.62869773 -152.08469218 24.62669691 -156.25326538 24.6073761 C-160.06665389 24.58985359 -163.87957555 24.59065229 -167.69296826 24.60627339 C-169.07521031 24.60866618 -170.45748377 24.60424006 -171.83967756 24.59244474 C-173.7135055 24.57743969 -175.58749181 24.58932808 -177.46133232 24.60267162 C-178.50371964 24.60169481 -179.54610697 24.60071801 -180.62008178 24.5997116 C-184.02924606 25.2283894 -185.21237762 26.39673044 -187.3203125 29.09765625 Z M16.7421875 128.84765625 C14.46440916 132.43688272 14.45050982 133.68053693 14.55078125 137.80078125 C14.57869751 139.28819824 14.57869751 139.28819824 14.60717773 140.80566406 C14.63110596 141.56202148 14.65503418 142.31837891 14.6796875 143.09765625 C13.21005664 143.09212549 13.21005664 143.09212549 11.71073627 143.086483 C-12.11653099 142.99772886 -35.94377684 142.9319742 -59.77117443 142.89040756 C-71.29387978 142.86977253 -82.81647601 142.84163387 -94.33911133 142.79589844 C-104.38093348 142.75605958 -114.42267661 142.73023028 -124.46457559 142.72130227 C-129.78289687 142.71608254 -135.10099206 142.7037946 -140.41924095 142.67473602 C-145.4236111 142.64761364 -150.42766172 142.63920486 -155.43209839 142.64522552 C-157.26994372 142.64412387 -159.1077996 142.63615112 -160.94558144 142.62083435 C-163.45342857 142.60095589 -165.96006664 142.60570879 -168.46794128 142.61663818 C-169.1965482 142.60498682 -169.92515512 142.59333545 -170.67584103 142.58133101 C-174.25209004 142.62350875 -176.2185998 143.03350011 -179.27182388 144.95934677 C-181.91478086 147.71819049 -181.94787543 149.12287903 -181.95141602 152.90429688 C-181.96394913 154.07230835 -181.97648224 155.24031982 -181.98939514 156.44372559 C-181.97613693 157.70108521 -181.96287872 158.95844482 -181.94921875 160.25390625 C-181.95163071 161.54832642 -181.95404266 162.84274658 -181.95652771 164.1763916 C-181.95938334 166.91365008 -181.94471015 169.65008921 -181.91723633 172.38720703 C-181.88315164 175.89141789 -181.88917268 179.39416413 -181.9078989 182.89844513 C-181.9210241 186.24624393 -181.90275027 189.59361765 -181.88671875 192.94140625 C-181.89167862 194.19876587 -181.89663849 195.45612549 -181.90174866 196.75158691 C-181.88591232 197.91959839 -181.87007599 199.08760986 -181.85375977 200.29101562 C-181.84756119 201.31819702 -181.84136261 202.34537842 -181.8349762 203.40368652 C-181.1594657 206.93959715 -180.17952584 207.92387788 -177.3203125 210.09765625 C-174.61765321 210.48217095 -172.32556999 210.6218994 -169.62615967 210.57867432 C-168.84686702 210.58209202 -168.06757437 210.58550972 -167.2646668 210.58903098 C-164.65100629 210.59562445 -162.03837071 210.57361033 -159.42480469 210.55175781 C-157.55231755 210.55062965 -155.67982864 210.55126259 -153.80734253 210.55352783 C-148.72081022 210.55467712 -143.63465398 210.53113298 -138.54820919 210.503232 C-133.23375789 210.47825416 -127.9192983 210.4758792 -122.60479736 210.47113037 C-112.53962937 210.45868996 -102.47463483 210.42585388 -92.40954328 210.38573241 C-80.95141004 210.34104789 -69.49326859 210.319036 -58.03506994 210.29895067 C-34.46338791 210.25712224 -10.89185991 210.18674942 12.6796875 210.09765625 C12.52121338 211.23912109 12.36273926 212.38058594 12.19946289 213.55664062 C11.65083582 217.95919311 11.46255999 222.3213901 11.36328125 226.75390625 C11.3321096 227.93551331 11.3321096 227.93551331 11.30030823 229.14099121 C11.23557776 231.62646831 11.17628844 234.11203958 11.1171875 236.59765625 C11.07392927 238.29558217 11.03031282 239.993499 10.98632812 241.69140625 C10.87997637 245.8267295 10.77850001 249.96214626 10.6796875 254.09765625 C9.22413515 254.10123878 9.22413515 254.10123878 7.7391777 254.10489368 C-15.85418123 254.16364548 -39.44743768 254.23950144 -63.04068375 254.33337116 C-74.45012744 254.37836812 -85.85953964 254.41777376 -97.26904297 254.4440918 C-107.21166466 254.46704031 -117.15418703 254.500403 -127.09672999 254.54635781 C-132.36295603 254.57033252 -137.62908345 254.58903343 -142.89536285 254.59527016 C-147.84969349 254.60130182 -152.80377164 254.62123194 -157.75800896 254.65193176 C-159.57850074 254.66074285 -161.39902548 254.66442825 -163.21953773 254.66266441 C-165.70136047 254.66101872 -168.18240703 254.67765001 -170.66412354 254.69892883 C-171.3878614 254.69408126 -172.11159926 254.68923368 -172.85726857 254.68423921 C-175.91777548 254.72767412 -178.03600337 254.94027256 -180.73632431 256.43507671 C-183.60464958 259.44571715 -183.46093314 262.54594874 -183.51318359 266.49951172 C-183.52924652 267.60430878 -183.54530945 268.70910583 -183.56185913 269.84738159 C-183.60631344 274.88994716 -183.64735561 279.9323821 -183.67041016 284.97509766 C-183.68698997 287.63664481 -183.71430606 290.29814708 -183.75244141 292.95947266 C-183.80711678 296.79483155 -183.82906926 300.629148 -183.84375 304.46484375 C-183.86641937 305.6545578 -183.88908875 306.84427185 -183.91244507 308.07003784 C-183.90959503 309.18113922 -183.906745 310.2922406 -183.90380859 311.43701172 C-183.91189545 312.41169403 -183.9199823 313.38637634 -183.92831421 314.39059448 C-183.0323482 318.37978611 -181.59167615 319.63706976 -178.3203125 322.09765625 C-174.6855587 322.8187856 -171.10952784 322.71010143 -167.41546631 322.63595581 C-166.30273448 322.633728 -165.19000266 322.63150019 -164.04355168 322.62920487 C-160.30682429 322.61600449 -156.57138848 322.56724336 -152.83496094 322.51904297 C-150.15918688 322.50294192 -147.48348447 322.48891585 -144.80769348 322.47779846 C-139.04104667 322.45048619 -133.27472184 322.40657285 -127.50826263 322.35302353 C-118.39010384 322.26981273 -109.27210641 322.23841381 -100.15362549 322.21536255 C-97.03261873 322.20683649 -93.91161298 322.19797544 -90.79060745 322.18901253 C-90.01064883 322.18678618 -89.2306902 322.18455983 -88.42709647 322.18226602 C-79.55113164 322.15622721 -70.67522186 322.11954225 -61.79931641 322.078125 C-60.58244211 322.07246768 -60.58244211 322.07246768 -59.34098449 322.06669606 C-46.19742503 322.00427186 -33.05436302 321.90343997 -19.91113374 321.79284726 C-6.41064716 321.680646 7.08929483 321.6260812 20.59024596 321.62064755 C28.91483287 321.61515143 37.23643732 321.56245778 45.56026211 321.44877215 C51.26721636 321.37478776 56.97271464 321.35549707 62.68009409 321.37887137 C65.97243076 321.39063167 69.25889778 321.36987647 72.55064201 321.29948997 C91.89255307 320.90614496 91.89255307 320.90614496 96.59497738 324.60364008 C100.06158652 328.65919306 101.78886168 333.16709079 103.6796875 338.09765625 C105.68532652 340.66625925 106.18044377 341.01315802 109.44921875 341.56640625 C113.5906146 340.96547819 116.14354252 339.08990493 119.3671875 336.59765625 C119.98891846 336.147854 120.61064941 335.69805176 121.2512207 335.23461914 C124.06610211 333.18259197 126.61922382 331.15821809 129.0859375 328.6875 C136.70402419 321.49988738 145.14404303 322.27999306 155.19799805 322.48413086 C156.34437744 322.49710205 157.49075684 322.51007324 158.671875 322.5234375 C159.70683105 322.55864502 160.74178711 322.59385254 161.80810547 322.63012695 C164.80799938 322.25017982 164.80799938 322.25017982 167.51367188 320.36987305 C170.89316717 315.26444299 170.3940803 310.31016915 170.34375 304.31640625 C170.35092545 302.44704407 170.35092545 302.44704407 170.35824585 300.53991699 C170.36251532 297.23374643 170.34243209 293.92875564 170.31445312 290.6227417 C170.30469488 288.59918747 170.31441803 286.57671727 170.33154297 284.55322266 C170.36243523 280.66127272 170.3586893 276.7709231 170.34375 272.87890625 C170.35893173 271.07093567 170.35893173 271.07093567 170.37442017 269.22644043 C170.30648545 264.37872347 170.24258222 261.0751464 167.79760742 256.8293457 C163.22572941 254.29012945 159.27561921 254.47389971 154.12890625 254.609375 C152.60799126 254.61998711 152.60799126 254.61998711 151.05635071 254.6308136 C147.8258712 254.65874613 144.59714089 254.72148463 141.3671875 254.78515625 C139.1738532 254.8102405 136.98049166 254.83305344 134.78710938 254.85351562 C129.41737448 254.9085687 124.04865596 254.99218352 118.6796875 255.09765625 C118.38320313 254.17726563 118.08671875 253.256875 117.78125 252.30859375 C116.668091 249.06385369 115.26956733 246.13288137 113.6796875 243.09765625 C114.73454346 242.98969727 115.78939941 242.88173828 116.8762207 242.77050781 C126.67678515 241.53840771 136.31736715 238.94363194 145.93432617 236.74267578 C149.21257122 235.99348205 152.49512446 235.26529898 155.77904797 234.54146957 C158.9305072 233.84155415 162.0761166 233.11618802 165.22265625 232.39453125 C166.39668503 232.1391156 167.57071381 231.88369995 168.78031921 231.62054443 C176.92358928 229.7535644 176.92358928 229.7535644 182.6796875 224.09765625 C182.75247722 220.53096005 182.21735074 218.80075434 180.0546875 215.97265625 C174.86501473 211.7683981 174.86501473 211.7683981 168.6796875 210.09765625 C169.16501953 209.36353516 169.65035156 208.62941406 170.15039062 207.87304688 C172.65834085 202.81511375 172.14747356 197.21075982 172.1484375 191.69140625 C172.15985779 189.89431213 172.15985779 189.89431213 172.17150879 188.06091309 C172.18229466 185.53265463 172.18516908 183.00435167 172.18066406 180.47607422 C172.17969083 176.6108986 172.22135364 172.7477022 172.265625 168.8828125 C172.2708315 166.42318122 172.2735202 163.96354304 172.2734375 161.50390625 C172.2980304 159.77400452 172.2980304 159.77400452 172.32312012 158.00915527 C172.30916199 156.38717224 172.30916199 156.38717224 172.29492188 154.73242188 C172.29800354 153.31394958 172.29800354 153.31394958 172.30114746 151.86682129 C171.42984544 147.98438438 169.97717383 145.30505768 166.6796875 143.09765625 C163.05815609 142.27852713 159.54050923 142.42397796 155.84448242 142.546875 C154.75088913 142.55873337 153.65729584 142.57059174 152.53056335 142.58280945 C150.1541495 142.61122336 147.77786523 142.65281985 145.40187645 142.70599365 C141.61811926 142.78604562 137.83634581 142.82165071 134.05183411 142.84423828 C123.29200931 142.91385907 112.53410613 143.04091714 101.77612305 143.25146484 C95.18905058 143.37985024 88.60346359 143.43134742 82.01516151 143.44448853 C79.52547168 143.46297997 77.03581328 143.50721493 74.5471096 143.5796814 C57.17137962 144.0766406 46.10021557 141.01548563 31.64497375 131.20947266 C26.56242328 127.81425388 22.4453957 125.4500003 16.7421875 128.84765625 Z " fill="#FE9C00" transform="translate(258.3203125,107.90234375)"/>
<path d="M0 0 C1.49101381 -0.00461936 2.98202306 -0.01097917 4.47302294 -0.01890898 C8.53464787 -0.03548361 12.595893 -0.0274106 16.65751863 -0.0149641 C21.05160634 -0.00586687 25.44563139 -0.01990638 29.83970642 -0.03088379 C38.43365834 -0.04862397 47.02747012 -0.04484915 55.62142742 -0.03323323 C62.60900383 -0.02418141 69.59654111 -0.02298245 76.5841217 -0.02732849 C77.58051235 -0.02794142 78.57690299 -0.02855436 79.60348728 -0.02918586 C81.62794985 -0.03046483 83.6524124 -0.03176168 85.67687494 -0.03307623 C104.63814529 -0.04446884 123.59933816 -0.03138903 142.56059581 -0.00987476 C158.81269348 0.00799501 175.06467685 0.00489053 191.31677246 -0.0135498 C210.21249442 -0.03497983 229.10814856 -0.04337033 248.00388098 -0.03110075 C250.02068932 -0.02982662 252.03749767 -0.02856914 254.05430603 -0.02732849 C255.54257559 -0.02640284 255.54257559 -0.02640284 257.06091121 -0.02545848 C264.0360719 -0.02201198 271.01118939 -0.02781882 277.98634338 -0.0372467 C286.49250443 -0.04849178 294.99851791 -0.04537403 303.50466216 -0.02412373 C307.84051608 -0.013647 312.17612441 -0.0094335 316.51197624 -0.02272034 C320.48825093 -0.03472055 324.46405454 -0.02795752 328.44028705 -0.00681013 C329.87147497 -0.00237612 331.30270345 -0.00453746 332.73386484 -0.01431328 C349.59867068 -0.12059095 363.30728573 4.73483426 375.71765137 16.24621582 C384.99504168 26.23061915 390.02010766 38.985804 390.81921387 52.50793457 C390.68281699 54.0806498 390.51893371 55.65115616 390.33166504 57.21862793 C390.2370549 58.02352158 390.14244476 58.82841522 390.04496765 59.65769958 C389.9704689 60.26827713 389.89597015 60.87885468 389.81921387 61.50793457 C348.48799699 61.63732127 307.15677474 61.76485418 265.82554515 61.89011684 C260.87380903 61.90512557 255.92207296 61.92014866 250.97033691 61.93518066 C249.49249706 61.93966659 249.49249706 61.93966659 247.98480185 61.94424313 C234.24475778 61.98598006 220.50471628 62.02848488 206.76467656 62.07162654 C183.04978851 62.14608689 159.33489622 62.21899927 135.61999512 62.28918457 C134.69479091 62.29192619 133.76958669 62.29466781 132.81634599 62.2974925 C69.15045648 62.48586843 5.48540729 62.5805076 -58.18078613 62.50793457 C-58.22655397 59.3113678 -58.25406063 56.11488661 -58.27844238 52.91809082 C-58.29153442 52.01917114 -58.30462646 51.12025146 -58.31811523 50.1940918 C-58.39878989 36.07602662 -52.49206142 24.86331023 -42.86828613 14.69543457 C-30.58153195 3.09242894 -16.5397525 -0.11297792 0 0 Z M0.88171387 32.75793457 C-0.59448923 36.57869553 -0.626516 39.72395792 0.81921387 43.50793457 C3.7298671 47.3751789 6.59552748 49.24571606 11.31921387 50.25793457 C16.0497717 49.24424361 18.89707217 47.37138242 21.81921387 43.50793457 C22.94549941 40.73892035 23.22691572 38.46820454 22.81921387 35.50793457 C20.65781907 31.10201441 18.32851237 28.4876266 13.81921387 26.50793457 C8.18798873 25.49720185 4.43071687 28.63651173 0.88171387 32.75793457 Z M40.88171387 32.75793457 C39.40551077 36.57869553 39.373484 39.72395792 40.81921387 43.50793457 C43.7298671 47.3751789 46.59552748 49.24571606 51.31921387 50.25793457 C56.0497717 49.24424361 58.89707217 47.37138242 61.81921387 43.50793457 C62.94549941 40.73892035 63.22691572 38.46820454 62.81921387 35.50793457 C60.65781907 31.10201441 58.32851237 28.4876266 53.81921387 26.50793457 C48.18798873 25.49720185 44.43071687 28.63651173 40.88171387 32.75793457 Z M80.88171387 32.82043457 C79.40746018 36.54942918 79.73925947 38.66059703 80.81921387 42.50793457 C82.68629578 45.41589839 84.67463177 47.93564352 87.81921387 49.50793457 C92.7805584 49.88237567 95.93243628 49.7469159 99.81921387 46.50793457 C102.13097598 43.11735013 102.81921387 41.12408369 102.81921387 37.00793457 C101.57739415 32.66156557 100.19453707 30.52418084 96.81921387 27.50793457 C90.01339357 24.87523042 85.43639377 27.38420372 80.88171387 32.82043457 Z " fill="#FD9A00" transform="translate(90.1807861328125,31.4920654296875)"/>
<path d="M0 0 C106.59 0 213.18 0 323 0 C323 12.21 323 24.42 323 37 C216.41 37 109.82 37 0 37 C0 24.79 0 12.58 0 0 Z " fill="#FE9E00" transform="translate(86,148)"/>
<path d="M0 0 C4.15381809 0.74025234 7.07324729 1.97060725 10.734375 4.10546875 C11.85295898 4.75209473 12.97154297 5.3987207 14.12402344 6.06494141 C15.3326888 6.77244982 16.54134748 7.47996964 17.75 8.1875 C19.6466732 9.28724909 21.5448511 10.38436757 23.44317627 11.48126221 C24.73621909 12.22850704 26.02881857 12.97651953 27.32098389 13.72528076 C33.4263994 17.25967031 39.58372718 20.69803944 45.75 24.125 C54.88994682 29.21806004 63.94365271 34.44365943 72.96606445 39.74169922 C80.24023298 44.00222395 87.57296175 48.14792093 94.9375 52.25 C102.32036859 56.36763341 109.69373369 60.49753392 117 64.75 C117.70632568 65.15637695 118.41265137 65.56275391 119.14038086 65.98144531 C123.88193056 68.76386111 123.88193056 68.76386111 125 71 C113.34067717 74.22006742 101.60435163 77.00037245 89.8125 79.6875 C87.17245101 80.29173232 84.53257288 80.8967056 81.89274597 81.50190735 C80.26686643 81.87437709 78.64082671 82.24614849 77.01460266 82.61711121 C73.66820818 83.38138518 70.32801352 84.15940457 67 85 C65.86465023 88.64933853 65.46905119 90.79554899 67.03662109 94.3515625 C67.52727051 95.20492187 68.01791992 96.05828125 68.5234375 96.9375 C69.35077393 98.39410034 69.35077393 98.39410034 70.19482422 99.88012695 C70.79053223 100.90968506 71.38624023 101.93924316 72 103 C73.19809137 105.11839079 74.39600285 107.23688332 75.59375 109.35546875 C76.89452808 111.63357294 78.19659385 113.91090236 79.5 116.1875 C80.19678131 117.40698016 80.89355858 118.62646262 81.59033203 119.84594727 C86.87676251 129.08754056 92.23218151 138.28750071 97.65820312 147.44799805 C98.20154297 148.37136963 98.74488281 149.29474121 99.3046875 150.24609375 C99.77890137 151.04716553 100.25311523 151.8482373 100.74169922 152.67358398 C102.03233666 155.05978581 103.04263743 157.46380432 104 160 C100.90831396 162.37093034 97.7998049 164.71872093 94.6875 167.0625 C93.36588867 168.07666992 93.36588867 168.07666992 92.01757812 169.11132812 C91.17001953 169.74619141 90.32246094 170.38105469 89.44921875 171.03515625 C88.27879028 171.92279663 88.27879028 171.92279663 87.0847168 172.82836914 C86.39676025 173.21500732 85.70880371 173.60164551 85 174 C81.10295623 172.70098541 80.81135633 171.36918065 78.8828125 167.8046875 C78.28235107 166.70753418 77.68188965 165.61038086 77.06323242 164.47998047 C76.74744232 163.89263123 76.43165222 163.30528198 76.10629272 162.70013428 C75.115944 160.85815649 74.11493447 159.02237132 73.1105957 157.18798828 C71.73585896 154.67646537 70.36464864 152.16306797 68.99560547 149.6484375 C66.1109509 144.36172821 63.15505832 139.11552463 60.1875 133.875 C59.66003174 132.94324951 59.13256348 132.01149902 58.58911133 131.05151367 C55.19801089 125.07676802 51.77815228 119.11933007 48.3125 113.1875 C47.90217529 112.48157715 47.49185059 111.7756543 47.0690918 111.04833984 C45.53578241 108.44272888 44.14724278 106.14724278 42 104 C38.52719374 103.38108403 36.12287806 103.22552016 33.13671875 105.28515625 C31.15858011 107.11337281 29.32364656 109.01769433 27.5 111 C26.83419922 111.69480469 26.16839844 112.38960938 25.48242188 113.10546875 C21.7951606 116.97800128 18.25715352 120.96472519 14.76318359 125.01171875 C11.69040248 128.47678789 8.39433258 131.7215437 5.125 135 C4.44501953 135.68449219 3.76503906 136.36898437 3.06445312 137.07421875 C2.42701172 137.70972656 1.78957031 138.34523438 1.1328125 139 C0.55418457 139.5775 -0.02444336 140.155 -0.62060547 140.75 C-2 142 -2 142 -3 142 C-3.29659356 112.97851034 -2.47542805 84.00193587 -1.60931396 54.99560547 C-1.42461526 48.77256892 -1.2457954 42.54936334 -1.06640625 36.32617188 C-0.71652675 24.21728056 -0.360388 12.10858281 0 0 Z " fill="#FD8400" transform="translate(287,256)"/>
<path d="M0 0 C59.4 0 118.8 0 180 0 C180 12.33783702 179.87903449 24.69351713 179 37 C119.93 37 60.86 37 0 37 C0 24.79 0 12.58 0 0 Z " fill="#FEB100" transform="translate(92,266)"/>
<path d="M0 0 C59.07 0 118.14 0 179 0 C179 12.33783702 178.76961313 24.68618995 178 37 C119.26 37 60.52 37 0 37 C0 24.79 0 12.58 0 0 Z " fill="#FEB200" transform="translate(90,378)"/>
<path d="M0 0 C25.41 0 50.82 0 77 0 C77 12.21 77 24.42 77 37 C61.25175131 37 61.25175131 37 56.46484375 34.140625 C55.39911133 33.52525879 54.33337891 32.90989258 53.23535156 32.27587891 C52.14706055 31.60733887 51.05876953 30.93879883 49.9375 30.25 C48.76570106 29.56008645 47.59216465 28.87311626 46.41699219 28.18896484 C44.05321014 26.80771359 41.6994533 25.41150166 39.35302734 24.00097656 C35.39593316 21.63951275 31.39270393 19.36911195 27.37792969 17.10766602 C20.26537287 13.0947937 13.20780577 8.9844999 6.1875 4.8125 C5.55231445 4.43754395 4.91712891 4.06258789 4.26269531 3.67626953 C2.824018 2.81314484 1.40880391 1.91106981 0 1 C0 0.67 0 0.34 0 0 Z " fill="#FD7400" transform="translate(338,266)"/>
<path d="M0 0 C0.6501709 1.17187866 0.6501709 1.17187866 1.31347656 2.36743164 C2.93828866 5.29552366 4.56349692 8.22339508 6.18896484 11.15112305 C6.88931645 12.41275505 7.58951493 13.67447207 8.28955078 14.9362793 C9.30199534 16.76113479 10.31505105 18.5856501 11.328125 20.41015625 C11.96685547 21.5614502 12.60558594 22.71274414 13.26367188 23.89892578 C14.6445462 26.36516111 16.05181193 28.80985223 17.484375 31.24609375 C19 34 19 34 19 36 C1.18 36 -16.64 36 -35 36 C-32.63836281 32.06393802 -30.96284809 29.73023363 -27.796875 26.63671875 C-26.98089844 25.83169922 -26.16492188 25.02667969 -25.32421875 24.19726562 C-24.04998047 22.95493164 -24.04998047 22.95493164 -22.75 21.6875 C-17.44509064 16.4932804 -12.23930804 11.30126529 -7.41430664 5.65356445 C-2.57876864 0 -2.57876864 0 0 0 Z " fill="#FE8900" transform="translate(325,379)"/>
<path d="M0 0 C8.58 0 17.16 0 26 0 C26 12.21 26 24.42 26 37 C24.02 37 22.04 37 20 37 C19.71390869 36.47269287 19.42781738 35.94538574 19.13305664 35.40209961 C13.82995424 25.64604279 8.51244458 15.92571456 2.64282227 6.49584961 C0 2.2046848 0 2.2046848 0 0 Z " fill="#FD6F00" transform="translate(387,378)"/>
</svg>
