<svg width="18" height="19" viewBox="0 0 18 19" fill="none" xmlns="http://www.w3.org/2000/svg">
<path fill-rule="evenodd" clip-rule="evenodd" d="M6.21429 8C5.65445 8 5.25 8.4297 5.25 8.9V13.85C5.25 14.3203 5.65445 14.75 6.21429 14.75H14.7857C15.3456 14.75 15.75 14.3203 15.75 13.85V8.9C15.75 8.4297 15.3456 8 14.7857 8H6.21429ZM3.75 8.9C3.75 7.54776 4.88057 6.5 6.21429 6.5H14.7857C16.1194 6.5 17.25 7.54776 17.25 8.9V13.85C17.25 15.2022 16.1194 16.25 14.7857 16.25H6.21429C4.88057 16.25 3.75 15.2022 3.75 13.85V8.9Z" fill="#9691A4"/>
<path fill-rule="evenodd" clip-rule="evenodd" d="M10.875 10.25C10.2537 10.25 9.75 10.7537 9.75 11.375C9.75 11.9963 10.2537 12.5 10.875 12.5C11.4963 12.5 12 11.9963 12 11.375C12 10.7537 11.4963 10.25 10.875 10.25ZM8.25 11.375C8.25 9.92525 9.42525 8.75 10.875 8.75C12.3247 8.75 13.5 9.92525 13.5 11.375C13.5 12.8247 12.3247 14 10.875 14C9.42525 14 8.25 12.8247 8.25 11.375Z" fill="#9691A4"/>
<path fill-rule="evenodd" clip-rule="evenodd" d="M1.482 3.44291C1.94615 2.99616 2.56977 2.75 3.21429 2.75H11.7857C12.4302 2.75 13.0538 2.99616 13.518 3.44291C13.9831 3.89059 14.25 4.50403 14.25 5.15V6.8C14.25 7.21421 13.9142 7.55 13.5 7.55C13.0858 7.55 12.75 7.21421 12.75 6.8V5.15C12.75 4.92076 12.6557 4.69482 12.4778 4.52364C12.299 4.35151 12.0505 4.25 11.7857 4.25H3.21429C2.94949 4.25 2.70103 4.35151 2.5222 4.52364C2.34435 4.69483 2.25 4.92076 2.25 5.15V10.1C2.25 10.3292 2.34435 10.5552 2.5222 10.7264C2.70103 10.8985 2.94949 11 3.21429 11H4.17857C4.59279 11 4.92857 11.3358 4.92857 11.75C4.92857 12.1642 4.59279 12.5 4.17857 12.5H3.21429C2.56977 12.5 1.94615 12.2538 1.482 11.8071C1.01688 11.3594 0.75 10.746 0.75 10.1V5.15C0.75 4.50403 1.01687 3.89059 1.482 3.44291Z" fill="#9691A4"/>
</svg>
