<svg width="16" height="16" viewBox="0 0 16 16" fill="none" xmlns="http://www.w3.org/2000/svg">
<path fill-rule="evenodd" clip-rule="evenodd" d="M12 2.66663H3.99998C2.53331 2.66663 1.33331 3.86663 1.33331 5.33329V10.6666C1.33331 12.1333 2.53331 13.3333 3.99998 13.3333H12C13.4666 13.3333 14.6666 12.1333 14.6666 10.6666V5.33329C14.6666 3.86663 13.4666 2.66663 12 2.66663ZM2.66665 5.33329C2.66665 4.59996 3.26665 3.99996 3.99998 3.99996H12C12.7333 3.99996 13.3333 4.59996 13.3333 5.33329V5.99996H2.66665V5.33329ZM13.3333 10.6666C13.3333 11.4 12.7333 12 12 12H3.99998C3.26665 12 2.66665 11.4 2.66665 10.6666V7.33329H13.3333V10.6666ZM3.99998 9.99996C3.99998 9.59996 4.26665 9.33329 4.66665 9.33329C5.06665 9.33329 5.33331 9.59996 5.33331 9.99996C5.33331 10.4 5.06665 10.6666 4.66665 10.6666C4.26665 10.6666 3.99998 10.4 3.99998 9.99996ZM6.66665 9.99996C6.66665 9.59996 6.93331 9.33329 7.33331 9.33329H8.66665C9.06665 9.33329 9.33331 9.59996 9.33331 9.99996C9.33331 10.4 9.06665 10.6666 8.66665 10.6666H7.33331C6.93331 10.6666 6.66665 10.4 6.66665 9.99996Z" fill="#9691A4"/>
</svg>
