<svg width="51" height="52" viewBox="0 0 51 52" fill="none" xmlns="http://www.w3.org/2000/svg">
<path d="M13.8176 23.3265C13.8176 22.8472 14.008 22.3875 14.3469 22.0486C14.6858 21.7097 15.1455 21.5193 15.6248 21.5193C16.104 21.5193 16.5637 21.7097 16.9026 22.0486C17.2415 22.3875 17.4319 22.8472 17.4319 23.3265C17.4319 23.8058 17.2415 24.2654 16.9026 24.6043C16.5637 24.9432 16.104 25.1336 15.6248 25.1336C15.1455 25.1336 14.6858 24.9432 14.3469 24.6043C14.008 24.2654 13.8176 23.8058 13.8176 23.3265ZM15.6248 34.1693C15.1455 34.1693 14.6858 34.3596 14.3469 34.6985C14.008 35.0374 13.8176 35.4971 13.8176 35.9764C13.8176 36.4557 14.008 36.9153 14.3469 37.2542C14.6858 37.5931 15.1455 37.7835 15.6248 37.7835C16.104 37.7835 16.5637 37.5931 16.9026 37.2542C17.2415 36.9153 17.4319 36.4557 17.4319 35.9764C17.4319 35.4971 17.2415 35.0374 16.9026 34.6985C16.5637 34.3596 16.104 34.1693 15.6248 34.1693ZM5.68555 12.9355C5.68555 11.1382 6.39952 9.4145 7.67041 8.14361C8.94129 6.87273 10.665 6.15875 12.4623 6.15875H38.6657C40.463 6.15875 42.1866 6.87273 43.4575 8.14361C44.7284 9.4145 45.4424 11.1382 45.4424 12.9355V26.9407C43.0982 25.1777 40.2435 24.2261 37.3103 24.23H38.6657C39.0251 24.23 39.3699 24.0872 39.624 23.8331C39.8782 23.5789 40.021 23.2342 40.021 22.8747C40.021 22.5152 39.8782 22.1705 39.624 21.9163C39.3699 21.6621 39.0251 21.5193 38.6657 21.5193H25.1122C24.7527 21.5193 24.408 21.6621 24.1538 21.9163C23.8996 22.1705 23.7568 22.5152 23.7568 22.8747C23.7568 23.2342 23.8996 23.5789 24.1538 23.8331C24.408 24.0872 24.7527 24.23 25.1122 24.23H37.3103C34.7933 24.23 32.3259 24.931 30.1848 26.2542C28.0437 27.5775 26.3134 29.4709 25.1877 31.7222C24.0621 33.9735 23.5856 36.4938 23.8116 39.0007C24.0376 41.5076 24.9573 43.902 26.4675 45.9156H12.4623C10.665 45.9156 8.94129 45.2016 7.67041 43.9307C6.39952 42.6599 5.68555 40.9362 5.68555 39.1389V12.9355ZM11.1069 23.3265C11.1069 24.5247 11.5829 25.6738 12.4302 26.5211C13.2774 27.3683 14.4266 27.8443 15.6248 27.8443C16.823 27.8443 17.9721 27.3683 18.8193 26.5211C19.6666 25.6738 20.1426 24.5247 20.1426 23.3265C20.1426 22.1283 19.6666 20.9792 18.8193 20.1319C17.9721 19.2846 16.823 18.8087 15.6248 18.8087C14.4266 18.8087 13.2774 19.2846 12.4302 20.1319C11.5829 20.9792 11.1069 22.1283 11.1069 23.3265ZM15.6248 31.4586C14.4266 31.4586 13.2774 31.9345 12.4302 32.7818C11.5829 33.6291 11.1069 34.7782 11.1069 35.9764C11.1069 37.1746 11.5829 38.3237 12.4302 39.171C13.2774 40.0182 14.4266 40.4942 15.6248 40.4942C16.823 40.4942 17.9721 40.0182 18.8193 39.171C19.6666 38.3237 20.1426 37.1746 20.1426 35.9764C20.1426 34.7782 19.6666 33.6291 18.8193 32.7818C17.9721 31.9345 16.823 31.4586 15.6248 31.4586ZM11.1069 12.9355C11.1069 13.6836 11.7141 14.2908 12.4623 14.2908H38.6657C39.0251 14.2908 39.3699 14.148 39.624 13.8939C39.8782 13.6397 40.021 13.2949 40.021 12.9355C40.021 12.576 39.8782 12.2313 39.624 11.9771C39.3699 11.7229 39.0251 11.5801 38.6657 11.5801H12.4623C12.1028 11.5801 11.7581 11.7229 11.5039 11.9771C11.2497 12.2313 11.1069 12.576 11.1069 12.9355ZM49.0566 37.7835C49.0566 40.8988 47.8191 43.8866 45.6162 46.0894C43.4134 48.2923 40.4256 49.5299 37.3103 49.5299C34.195 49.5299 31.2073 48.2923 29.0044 46.0894C26.8015 43.8866 25.564 40.8988 25.564 37.7835C25.564 34.6682 26.8015 31.6805 29.0044 29.4776C31.2073 27.2747 34.195 26.0372 37.3103 26.0372C40.4256 26.0372 43.4134 27.2747 45.6162 29.4776C47.8191 31.6805 49.0566 34.6682 49.0566 37.7835ZM38.2139 30.555C38.2139 30.3154 38.1187 30.0855 37.9492 29.9161C37.7798 29.7466 37.5499 29.6514 37.3103 29.6514C37.0707 29.6514 36.8408 29.7466 36.6714 29.9161C36.5019 30.0855 36.4067 30.3154 36.4067 30.555V36.8799H30.0818C29.8421 36.8799 29.6123 36.9751 29.4429 37.1446C29.2734 37.314 29.1782 37.5439 29.1782 37.7835C29.1782 38.0232 29.2734 38.253 29.4429 38.4224C29.6123 38.5919 29.8421 38.6871 30.0818 38.6871H36.4067V45.012C36.4067 45.2517 36.5019 45.4815 36.6714 45.6509C36.8408 45.8204 37.0707 45.9156 37.3103 45.9156C37.5499 45.9156 37.7798 45.8204 37.9492 45.6509C38.1187 45.4815 38.2139 45.2517 38.2139 45.012V38.6871H44.5388C44.7785 38.6871 45.0083 38.5919 45.1777 38.4224C45.3472 38.253 45.4424 38.0232 45.4424 37.7835C45.4424 37.5439 45.3472 37.314 45.1777 37.1446C45.0083 36.9751 44.7785 36.8799 44.5388 36.8799H38.2139V30.555Z" fill="#008CE4"/>
</svg>
