<svg xmlns="http://www.w3.org/2000/svg" width="15" height="15" viewBox="0 0 15 15" fill="none">
<path fill-rule="evenodd" clip-rule="evenodd" d="M1.18921 4.25787C1.59299 3.85409 2.14063 3.62725 2.71166 3.62725H4.86474C5.26111 3.62725 5.58243 3.94858 5.58243 4.34494C5.58243 4.74131 5.26111 5.06263 4.86474 5.06263H2.71166C2.52132 5.06263 2.33877 5.13825 2.20418 5.27284C2.06959 5.40743 1.99397 5.58998 1.99397 5.78032V12.2395C1.99397 12.4299 2.06959 12.6124 2.20418 12.747C2.33877 12.8816 2.52132 12.9572 2.71166 12.9572H9.17088C9.36122 12.9572 9.54377 12.8816 9.67836 12.747C9.81296 12.6124 9.88857 12.4299 9.88857 12.2395V10.0865C9.88857 9.6901 10.2099 9.36878 10.6063 9.36878C11.0026 9.36878 11.3239 9.6901 11.3239 10.0865V12.2395C11.3239 12.8106 11.0971 13.3582 10.6933 13.762C10.2896 14.1658 9.74191 14.3926 9.17088 14.3926H2.71166C2.14063 14.3926 1.59299 14.1658 1.18921 13.762C0.785434 13.3582 0.558594 12.8106 0.558594 12.2395V5.78032C0.558594 5.2093 0.785434 4.66165 1.18921 4.25787Z" fill="#454056"/>
<path fill-rule="evenodd" clip-rule="evenodd" d="M10.4576 1.32556C10.8777 0.905448 11.4475 0.669434 12.0416 0.669434C12.6358 0.669434 13.2056 0.905448 13.6257 1.32556C14.0458 1.74566 14.2818 2.31545 14.2818 2.90957C14.2818 3.5037 14.0458 4.07349 13.6257 4.49359L7.52529 10.594C7.3907 10.7286 7.20815 10.8042 7.01781 10.8042H4.86474C4.46837 10.8042 4.14705 10.4828 4.14705 10.0865V7.93341C4.14705 7.74306 4.22266 7.56052 4.35726 7.42592L10.4576 1.32556ZM12.0416 2.10481C11.8282 2.10481 11.6235 2.1896 11.4726 2.34052L5.58243 8.23068V9.36879H6.72053L12.6107 3.47863C12.7616 3.3277 12.8464 3.12301 12.8464 2.90957C12.8464 2.69614 12.7616 2.49145 12.6107 2.34052C12.4598 2.1896 12.2551 2.10481 12.0416 2.10481Z" fill="#454056"/>
<path fill-rule="evenodd" clip-rule="evenodd" d="M9.38109 2.40211C9.66137 2.12183 10.1158 2.12183 10.3961 2.40211L12.5491 4.55518C12.8294 4.83545 12.8294 5.28987 12.5491 5.57014C12.2689 5.85042 11.8144 5.85042 11.5342 5.57014L9.38109 3.41707C9.10081 3.1368 9.10081 2.68238 9.38109 2.40211Z" fill="#454056"/>
</svg>