<svg width="328" height="11" viewBox="0 0 328 11" fill="none" xmlns="http://www.w3.org/2000/svg">
<g filter="url(#filter0_d_6986_21474)">
<mask id="path-1-inside-1_6986_21474" fill="white">
<path d="M4.64 2.15653V0.908526H8.512V2.15653H4.64ZM9.79625 2.15653V0.908526H13.6683V2.15653H9.79625ZM14.9525 2.15653V0.908526H18.8245V2.15653H14.9525ZM20.1088 2.15653V0.908526H23.9808V2.15653H20.1088ZM25.265 2.15653V0.908526H29.137V2.15653H25.265ZM30.4213 2.15653V0.908526H34.2933V2.15653H30.4213ZM35.5775 2.15653V0.908526H39.4495V2.15653H35.5775ZM40.7338 2.15653V0.908526H44.6058V2.15653H40.7338ZM45.89 2.15653V0.908526H49.762V2.15653H45.89ZM51.0463 2.15653V0.908526H54.9183V2.15653H51.0463ZM56.2025 2.15653V0.908526H60.0745V2.15653H56.2025ZM61.3588 2.15653V0.908526H65.2308V2.15653H61.3588ZM66.515 2.15653V0.908526H70.387V2.15653H66.515ZM71.6713 2.15653V0.908526H75.5433V2.15653H71.6713ZM76.8275 2.15653V0.908526H80.6995V2.15653H76.8275ZM81.9838 2.15653V0.908526H85.8558V2.15653H81.9838ZM87.14 2.15653V0.908526H91.012V2.15653H87.14ZM92.2963 2.15653V0.908526H96.1683V2.15653H92.2963ZM97.4525 2.15653V0.908526H101.325V2.15653H97.4525ZM102.609 2.15653V0.908526H106.481V2.15653H102.609ZM107.765 2.15653V0.908526H111.637V2.15653H107.765ZM112.921 2.15653V0.908526H116.793V2.15653H112.921ZM118.078 2.15653V0.908526H121.95V2.15653H118.078ZM123.234 2.15653V0.908526H127.106V2.15653H123.234ZM128.39 2.15653V0.908526H132.262V2.15653H128.39ZM133.546 2.15653V0.908526H137.418V2.15653H133.546ZM138.703 2.15653V0.908526H142.575V2.15653H138.703ZM143.859 2.15653V0.908526H147.731V2.15653H143.859ZM149.015 2.15653V0.908526H152.887V2.15653H149.015ZM154.171 2.15653V0.908526H158.043V2.15653H154.171ZM159.328 2.15653V0.908526H163.2V2.15653H159.328ZM164.484 2.15653V0.908526H168.356V2.15653H164.484ZM169.64 2.15653V0.908526H173.512V2.15653H169.64ZM174.796 2.15653V0.908526H178.668V2.15653H174.796ZM179.953 2.15653V0.908526H183.825V2.15653H179.953ZM185.109 2.15653V0.908526H188.981V2.15653H185.109ZM190.265 2.15653V0.908526H194.137V2.15653H190.265ZM195.421 2.15653V0.908526H199.293V2.15653H195.421ZM200.578 2.15653V0.908526H204.45V2.15653H200.578ZM205.734 2.15653V0.908526H209.606V2.15653H205.734ZM210.89 2.15653V0.908526H214.762V2.15653H210.89ZM216.046 2.15653V0.908526H219.918V2.15653H216.046ZM221.203 2.15653V0.908526H225.075V2.15653H221.203ZM226.359 2.15653V0.908526H230.231V2.15653H226.359ZM231.515 2.15653V0.908526H235.387V2.15653H231.515ZM236.671 2.15653V0.908526H240.543V2.15653H236.671ZM241.828 2.15653V0.908526H245.7V2.15653H241.828ZM246.984 2.15653V0.908526H250.856V2.15653H246.984ZM252.14 2.15653V0.908526H256.012V2.15653H252.14ZM257.296 2.15653V0.908526H261.168V2.15653H257.296ZM262.453 2.15653V0.908526H266.325V2.15653H262.453ZM267.609 2.15653V0.908526H271.481V2.15653H267.609ZM272.765 2.15653V0.908526H276.637V2.15653H272.765ZM277.921 2.15653V0.908526H281.793V2.15653H277.921ZM283.078 2.15653V0.908526H286.95V2.15653H283.078ZM288.234 2.15653V0.908526H292.106V2.15653H288.234ZM293.39 2.15653V0.908526H297.262V2.15653H293.39ZM298.546 2.15653V0.908526H302.418V2.15653H298.546ZM303.703 2.15653V0.908526H307.575V2.15653H303.703ZM308.859 2.15653V0.908526H312.731V2.15653H308.859ZM314.015 2.15653V0.908526H317.887V2.15653H314.015ZM319.171 2.15653V0.908526H323.043V2.15653H319.171Z"/>
</mask>
<path d="M4.64 2.15653V0.908526H8.512V2.15653H4.64ZM9.79625 2.15653V0.908526H13.6683V2.15653H9.79625ZM14.9525 2.15653V0.908526H18.8245V2.15653H14.9525ZM20.1088 2.15653V0.908526H23.9808V2.15653H20.1088ZM25.265 2.15653V0.908526H29.137V2.15653H25.265ZM30.4213 2.15653V0.908526H34.2933V2.15653H30.4213ZM35.5775 2.15653V0.908526H39.4495V2.15653H35.5775ZM40.7338 2.15653V0.908526H44.6058V2.15653H40.7338ZM45.89 2.15653V0.908526H49.762V2.15653H45.89ZM51.0463 2.15653V0.908526H54.9183V2.15653H51.0463ZM56.2025 2.15653V0.908526H60.0745V2.15653H56.2025ZM61.3588 2.15653V0.908526H65.2308V2.15653H61.3588ZM66.515 2.15653V0.908526H70.387V2.15653H66.515ZM71.6713 2.15653V0.908526H75.5433V2.15653H71.6713ZM76.8275 2.15653V0.908526H80.6995V2.15653H76.8275ZM81.9838 2.15653V0.908526H85.8558V2.15653H81.9838ZM87.14 2.15653V0.908526H91.012V2.15653H87.14ZM92.2963 2.15653V0.908526H96.1683V2.15653H92.2963ZM97.4525 2.15653V0.908526H101.325V2.15653H97.4525ZM102.609 2.15653V0.908526H106.481V2.15653H102.609ZM107.765 2.15653V0.908526H111.637V2.15653H107.765ZM112.921 2.15653V0.908526H116.793V2.15653H112.921ZM118.078 2.15653V0.908526H121.95V2.15653H118.078ZM123.234 2.15653V0.908526H127.106V2.15653H123.234ZM128.39 2.15653V0.908526H132.262V2.15653H128.39ZM133.546 2.15653V0.908526H137.418V2.15653H133.546ZM138.703 2.15653V0.908526H142.575V2.15653H138.703ZM143.859 2.15653V0.908526H147.731V2.15653H143.859ZM149.015 2.15653V0.908526H152.887V2.15653H149.015ZM154.171 2.15653V0.908526H158.043V2.15653H154.171ZM159.328 2.15653V0.908526H163.2V2.15653H159.328ZM164.484 2.15653V0.908526H168.356V2.15653H164.484ZM169.64 2.15653V0.908526H173.512V2.15653H169.64ZM174.796 2.15653V0.908526H178.668V2.15653H174.796ZM179.953 2.15653V0.908526H183.825V2.15653H179.953ZM185.109 2.15653V0.908526H188.981V2.15653H185.109ZM190.265 2.15653V0.908526H194.137V2.15653H190.265ZM195.421 2.15653V0.908526H199.293V2.15653H195.421ZM200.578 2.15653V0.908526H204.45V2.15653H200.578ZM205.734 2.15653V0.908526H209.606V2.15653H205.734ZM210.89 2.15653V0.908526H214.762V2.15653H210.89ZM216.046 2.15653V0.908526H219.918V2.15653H216.046ZM221.203 2.15653V0.908526H225.075V2.15653H221.203ZM226.359 2.15653V0.908526H230.231V2.15653H226.359ZM231.515 2.15653V0.908526H235.387V2.15653H231.515ZM236.671 2.15653V0.908526H240.543V2.15653H236.671ZM241.828 2.15653V0.908526H245.7V2.15653H241.828ZM246.984 2.15653V0.908526H250.856V2.15653H246.984ZM252.14 2.15653V0.908526H256.012V2.15653H252.14ZM257.296 2.15653V0.908526H261.168V2.15653H257.296ZM262.453 2.15653V0.908526H266.325V2.15653H262.453ZM267.609 2.15653V0.908526H271.481V2.15653H267.609ZM272.765 2.15653V0.908526H276.637V2.15653H272.765ZM277.921 2.15653V0.908526H281.793V2.15653H277.921ZM283.078 2.15653V0.908526H286.95V2.15653H283.078ZM288.234 2.15653V0.908526H292.106V2.15653H288.234ZM293.39 2.15653V0.908526H297.262V2.15653H293.39ZM298.546 2.15653V0.908526H302.418V2.15653H298.546ZM303.703 2.15653V0.908526H307.575V2.15653H303.703ZM308.859 2.15653V0.908526H312.731V2.15653H308.859ZM314.015 2.15653V0.908526H317.887V2.15653H314.015ZM319.171 2.15653V0.908526H323.043V2.15653H319.171Z" fill="#666276"/>
<path d="M4.64 2.15653H3.64V3.15653H4.64V2.15653ZM4.64 0.908526V-0.0914741H3.64V0.908526H4.64ZM8.512 0.908526H9.512V-0.0914741H8.512V0.908526ZM8.512 2.15653V3.15653H9.512V2.15653H8.512ZM5.64 2.15653V0.908526H3.64V2.15653H5.64ZM4.64 1.90853H8.512V-0.0914741H4.64V1.90853ZM7.512 0.908526V2.15653H9.512V0.908526H7.512ZM8.512 1.15653H4.64V3.15653H8.512V1.15653ZM9.79625 2.15653H8.79625V3.15653H9.79625V2.15653ZM9.79625 0.908526V-0.0914741H8.79625V0.908526H9.79625ZM13.6683 0.908526H14.6683V-0.0914741H13.6683V0.908526ZM13.6683 2.15653V3.15653H14.6683V2.15653H13.6683ZM10.7963 2.15653V0.908526H8.79625V2.15653H10.7963ZM9.79625 1.90853H13.6683V-0.0914741H9.79625V1.90853ZM12.6683 0.908526V2.15653H14.6683V0.908526H12.6683ZM13.6683 1.15653H9.79625V3.15653H13.6683V1.15653ZM14.9525 2.15653H13.9525V3.15653H14.9525V2.15653ZM14.9525 0.908526V-0.0914741H13.9525V0.908526H14.9525ZM18.8245 0.908526H19.8245V-0.0914741H18.8245V0.908526ZM18.8245 2.15653V3.15653H19.8245V2.15653H18.8245ZM15.9525 2.15653V0.908526H13.9525V2.15653H15.9525ZM14.9525 1.90853H18.8245V-0.0914741H14.9525V1.90853ZM17.8245 0.908526V2.15653H19.8245V0.908526H17.8245ZM18.8245 1.15653H14.9525V3.15653H18.8245V1.15653ZM20.1088 2.15653H19.1088V3.15653H20.1088V2.15653ZM20.1088 0.908526V-0.0914741H19.1088V0.908526H20.1088ZM23.9808 0.908526H24.9808V-0.0914741H23.9808V0.908526ZM23.9808 2.15653V3.15653H24.9808V2.15653H23.9808ZM21.1088 2.15653V0.908526H19.1088V2.15653H21.1088ZM20.1088 1.90853H23.9808V-0.0914741H20.1088V1.90853ZM22.9808 0.908526V2.15653H24.9808V0.908526H22.9808ZM23.9808 1.15653H20.1088V3.15653H23.9808V1.15653ZM25.265 2.15653H24.265V3.15653H25.265V2.15653ZM25.265 0.908526V-0.0914741H24.265V0.908526H25.265ZM29.137 0.908526H30.137V-0.0914741H29.137V0.908526ZM29.137 2.15653V3.15653H30.137V2.15653H29.137ZM26.265 2.15653V0.908526H24.265V2.15653H26.265ZM25.265 1.90853H29.137V-0.0914741H25.265V1.90853ZM28.137 0.908526V2.15653H30.137V0.908526H28.137ZM29.137 1.15653H25.265V3.15653H29.137V1.15653ZM30.4213 2.15653H29.4213V3.15653H30.4213V2.15653ZM30.4213 0.908526V-0.0914741H29.4213V0.908526H30.4213ZM34.2933 0.908526H35.2933V-0.0914741H34.2933V0.908526ZM34.2933 2.15653V3.15653H35.2933V2.15653H34.2933ZM31.4213 2.15653V0.908526H29.4213V2.15653H31.4213ZM30.4213 1.90853H34.2933V-0.0914741H30.4213V1.90853ZM33.2933 0.908526V2.15653H35.2933V0.908526H33.2933ZM34.2933 1.15653H30.4213V3.15653H34.2933V1.15653ZM35.5775 2.15653H34.5775V3.15653H35.5775V2.15653ZM35.5775 0.908526V-0.0914741H34.5775V0.908526H35.5775ZM39.4495 0.908526H40.4495V-0.0914741H39.4495V0.908526ZM39.4495 2.15653V3.15653H40.4495V2.15653H39.4495ZM36.5775 2.15653V0.908526H34.5775V2.15653H36.5775ZM35.5775 1.90853H39.4495V-0.0914741H35.5775V1.90853ZM38.4495 0.908526V2.15653H40.4495V0.908526H38.4495ZM39.4495 1.15653H35.5775V3.15653H39.4495V1.15653ZM40.7338 2.15653H39.7338V3.15653H40.7338V2.15653ZM40.7338 0.908526V-0.0914741H39.7338V0.908526H40.7338ZM44.6058 0.908526H45.6058V-0.0914741H44.6058V0.908526ZM44.6058 2.15653V3.15653H45.6058V2.15653H44.6058ZM41.7338 2.15653V0.908526H39.7338V2.15653H41.7338ZM40.7338 1.90853H44.6058V-0.0914741H40.7338V1.90853ZM43.6058 0.908526V2.15653H45.6058V0.908526H43.6058ZM44.6058 1.15653H40.7338V3.15653H44.6058V1.15653ZM45.89 2.15653H44.89V3.15653H45.89V2.15653ZM45.89 0.908526V-0.0914741H44.89V0.908526H45.89ZM49.762 0.908526H50.762V-0.0914741H49.762V0.908526ZM49.762 2.15653V3.15653H50.762V2.15653H49.762ZM46.89 2.15653V0.908526H44.89V2.15653H46.89ZM45.89 1.90853H49.762V-0.0914741H45.89V1.90853ZM48.762 0.908526V2.15653H50.762V0.908526H48.762ZM49.762 1.15653H45.89V3.15653H49.762V1.15653ZM51.0463 2.15653H50.0463V3.15653H51.0463V2.15653ZM51.0463 0.908526V-0.0914741H50.0463V0.908526H51.0463ZM54.9183 0.908526H55.9183V-0.0914741H54.9183V0.908526ZM54.9183 2.15653V3.15653H55.9183V2.15653H54.9183ZM52.0463 2.15653V0.908526H50.0463V2.15653H52.0463ZM51.0463 1.90853H54.9183V-0.0914741H51.0463V1.90853ZM53.9183 0.908526V2.15653H55.9183V0.908526H53.9183ZM54.9183 1.15653H51.0463V3.15653H54.9183V1.15653ZM56.2025 2.15653H55.2025V3.15653H56.2025V2.15653ZM56.2025 0.908526V-0.0914741H55.2025V0.908526H56.2025ZM60.0745 0.908526H61.0745V-0.0914741H60.0745V0.908526ZM60.0745 2.15653V3.15653H61.0745V2.15653H60.0745ZM57.2025 2.15653V0.908526H55.2025V2.15653H57.2025ZM56.2025 1.90853H60.0745V-0.0914741H56.2025V1.90853ZM59.0745 0.908526V2.15653H61.0745V0.908526H59.0745ZM60.0745 1.15653H56.2025V3.15653H60.0745V1.15653ZM61.3588 2.15653H60.3588V3.15653H61.3588V2.15653ZM61.3588 0.908526V-0.0914741H60.3588V0.908526H61.3588ZM65.2308 0.908526H66.2308V-0.0914741H65.2308V0.908526ZM65.2308 2.15653V3.15653H66.2308V2.15653H65.2308ZM62.3588 2.15653V0.908526H60.3588V2.15653H62.3588ZM61.3588 1.90853H65.2308V-0.0914741H61.3588V1.90853ZM64.2308 0.908526V2.15653H66.2308V0.908526H64.2308ZM65.2308 1.15653H61.3588V3.15653H65.2308V1.15653ZM66.515 2.15653H65.515V3.15653H66.515V2.15653ZM66.515 0.908526V-0.0914741H65.515V0.908526H66.515ZM70.387 0.908526H71.387V-0.0914741H70.387V0.908526ZM70.387 2.15653V3.15653H71.387V2.15653H70.387ZM67.515 2.15653V0.908526H65.515V2.15653H67.515ZM66.515 1.90853H70.387V-0.0914741H66.515V1.90853ZM69.387 0.908526V2.15653H71.387V0.908526H69.387ZM70.387 1.15653H66.515V3.15653H70.387V1.15653ZM71.6713 2.15653H70.6713V3.15653H71.6713V2.15653ZM71.6713 0.908526V-0.0914741H70.6713V0.908526H71.6713ZM75.5433 0.908526H76.5433V-0.0914741H75.5433V0.908526ZM75.5433 2.15653V3.15653H76.5433V2.15653H75.5433ZM72.6713 2.15653V0.908526H70.6713V2.15653H72.6713ZM71.6713 1.90853H75.5433V-0.0914741H71.6713V1.90853ZM74.5433 0.908526V2.15653H76.5433V0.908526H74.5433ZM75.5433 1.15653H71.6713V3.15653H75.5433V1.15653ZM76.8275 2.15653H75.8275V3.15653H76.8275V2.15653ZM76.8275 0.908526V-0.0914741H75.8275V0.908526H76.8275ZM80.6995 0.908526H81.6995V-0.0914741H80.6995V0.908526ZM80.6995 2.15653V3.15653H81.6995V2.15653H80.6995ZM77.8275 2.15653V0.908526H75.8275V2.15653H77.8275ZM76.8275 1.90853H80.6995V-0.0914741H76.8275V1.90853ZM79.6995 0.908526V2.15653H81.6995V0.908526H79.6995ZM80.6995 1.15653H76.8275V3.15653H80.6995V1.15653ZM81.9838 2.15653H80.9838V3.15653H81.9838V2.15653ZM81.9838 0.908526V-0.0914741H80.9838V0.908526H81.9838ZM85.8558 0.908526H86.8558V-0.0914741H85.8558V0.908526ZM85.8558 2.15653V3.15653H86.8558V2.15653H85.8558ZM82.9838 2.15653V0.908526H80.9838V2.15653H82.9838ZM81.9838 1.90853H85.8558V-0.0914741H81.9838V1.90853ZM84.8558 0.908526V2.15653H86.8558V0.908526H84.8558ZM85.8558 1.15653H81.9838V3.15653H85.8558V1.15653ZM87.14 2.15653H86.14V3.15653H87.14V2.15653ZM87.14 0.908526V-0.0914741H86.14V0.908526H87.14ZM91.012 0.908526H92.012V-0.0914741H91.012V0.908526ZM91.012 2.15653V3.15653H92.012V2.15653H91.012ZM88.14 2.15653V0.908526H86.14V2.15653H88.14ZM87.14 1.90853H91.012V-0.0914741H87.14V1.90853ZM90.012 0.908526V2.15653H92.012V0.908526H90.012ZM91.012 1.15653H87.14V3.15653H91.012V1.15653ZM92.2963 2.15653H91.2963V3.15653H92.2963V2.15653ZM92.2963 0.908526V-0.0914741H91.2963V0.908526H92.2963ZM96.1683 0.908526H97.1683V-0.0914741H96.1683V0.908526ZM96.1683 2.15653V3.15653H97.1683V2.15653H96.1683ZM93.2963 2.15653V0.908526H91.2963V2.15653H93.2963ZM92.2963 1.90853H96.1683V-0.0914741H92.2963V1.90853ZM95.1683 0.908526V2.15653H97.1683V0.908526H95.1683ZM96.1683 1.15653H92.2963V3.15653H96.1683V1.15653ZM97.4525 2.15653H96.4525V3.15653H97.4525V2.15653ZM97.4525 0.908526V-0.0914741H96.4525V0.908526H97.4525ZM101.325 0.908526H102.325V-0.0914741H101.325V0.908526ZM101.325 2.15653V3.15653H102.325V2.15653H101.325ZM98.4525 2.15653V0.908526H96.4525V2.15653H98.4525ZM97.4525 1.90853H101.325V-0.0914741H97.4525V1.90853ZM100.325 0.908526V2.15653H102.325V0.908526H100.325ZM101.325 1.15653H97.4525V3.15653H101.325V1.15653ZM102.609 2.15653H101.609V3.15653H102.609V2.15653ZM102.609 0.908526V-0.0914741H101.609V0.908526H102.609ZM106.481 0.908526H107.481V-0.0914741H106.481V0.908526ZM106.481 2.15653V3.15653H107.481V2.15653H106.481ZM103.609 2.15653V0.908526H101.609V2.15653H103.609ZM102.609 1.90853H106.481V-0.0914741H102.609V1.90853ZM105.481 0.908526V2.15653H107.481V0.908526H105.481ZM106.481 1.15653H102.609V3.15653H106.481V1.15653ZM107.765 2.15653H106.765V3.15653H107.765V2.15653ZM107.765 0.908526V-0.0914741H106.765V0.908526H107.765ZM111.637 0.908526H112.637V-0.0914741H111.637V0.908526ZM111.637 2.15653V3.15653H112.637V2.15653H111.637ZM108.765 2.15653V0.908526H106.765V2.15653H108.765ZM107.765 1.90853H111.637V-0.0914741H107.765V1.90853ZM110.637 0.908526V2.15653H112.637V0.908526H110.637ZM111.637 1.15653H107.765V3.15653H111.637V1.15653ZM112.921 2.15653H111.921V3.15653H112.921V2.15653ZM112.921 0.908526V-0.0914741H111.921V0.908526H112.921ZM116.793 0.908526H117.793V-0.0914741H116.793V0.908526ZM116.793 2.15653V3.15653H117.793V2.15653H116.793ZM113.921 2.15653V0.908526H111.921V2.15653H113.921ZM112.921 1.90853H116.793V-0.0914741H112.921V1.90853ZM115.793 0.908526V2.15653H117.793V0.908526H115.793ZM116.793 1.15653H112.921V3.15653H116.793V1.15653ZM118.078 2.15653H117.078V3.15653H118.078V2.15653ZM118.078 0.908526V-0.0914741H117.078V0.908526H118.078ZM121.95 0.908526H122.95V-0.0914741H121.95V0.908526ZM121.95 2.15653V3.15653H122.95V2.15653H121.95ZM119.078 2.15653V0.908526H117.078V2.15653H119.078ZM118.078 1.90853H121.95V-0.0914741H118.078V1.90853ZM120.95 0.908526V2.15653H122.95V0.908526H120.95ZM121.95 1.15653H118.078V3.15653H121.95V1.15653ZM123.234 2.15653H122.234V3.15653H123.234V2.15653ZM123.234 0.908526V-0.0914741H122.234V0.908526H123.234ZM127.106 0.908526H128.106V-0.0914741H127.106V0.908526ZM127.106 2.15653V3.15653H128.106V2.15653H127.106ZM124.234 2.15653V0.908526H122.234V2.15653H124.234ZM123.234 1.90853H127.106V-0.0914741H123.234V1.90853ZM126.106 0.908526V2.15653H128.106V0.908526H126.106ZM127.106 1.15653H123.234V3.15653H127.106V1.15653ZM128.39 2.15653H127.39V3.15653H128.39V2.15653ZM128.39 0.908526V-0.0914741H127.39V0.908526H128.39ZM132.262 0.908526H133.262V-0.0914741H132.262V0.908526ZM132.262 2.15653V3.15653H133.262V2.15653H132.262ZM129.39 2.15653V0.908526H127.39V2.15653H129.39ZM128.39 1.90853H132.262V-0.0914741H128.39V1.90853ZM131.262 0.908526V2.15653H133.262V0.908526H131.262ZM132.262 1.15653H128.39V3.15653H132.262V1.15653ZM133.546 2.15653H132.546V3.15653H133.546V2.15653ZM133.546 0.908526V-0.0914741H132.546V0.908526H133.546ZM137.418 0.908526H138.418V-0.0914741H137.418V0.908526ZM137.418 2.15653V3.15653H138.418V2.15653H137.418ZM134.546 2.15653V0.908526H132.546V2.15653H134.546ZM133.546 1.90853H137.418V-0.0914741H133.546V1.90853ZM136.418 0.908526V2.15653H138.418V0.908526H136.418ZM137.418 1.15653H133.546V3.15653H137.418V1.15653ZM138.703 2.15653H137.703V3.15653H138.703V2.15653ZM138.703 0.908526V-0.0914741H137.703V0.908526H138.703ZM142.575 0.908526H143.575V-0.0914741H142.575V0.908526ZM142.575 2.15653V3.15653H143.575V2.15653H142.575ZM139.703 2.15653V0.908526H137.703V2.15653H139.703ZM138.703 1.90853H142.575V-0.0914741H138.703V1.90853ZM141.575 0.908526V2.15653H143.575V0.908526H141.575ZM142.575 1.15653H138.703V3.15653H142.575V1.15653ZM143.859 2.15653H142.859V3.15653H143.859V2.15653ZM143.859 0.908526V-0.0914741H142.859V0.908526H143.859ZM147.731 0.908526H148.731V-0.0914741H147.731V0.908526ZM147.731 2.15653V3.15653H148.731V2.15653H147.731ZM144.859 2.15653V0.908526H142.859V2.15653H144.859ZM143.859 1.90853H147.731V-0.0914741H143.859V1.90853ZM146.731 0.908526V2.15653H148.731V0.908526H146.731ZM147.731 1.15653H143.859V3.15653H147.731V1.15653ZM149.015 2.15653H148.015V3.15653H149.015V2.15653ZM149.015 0.908526V-0.0914741H148.015V0.908526H149.015ZM152.887 0.908526H153.887V-0.0914741H152.887V0.908526ZM152.887 2.15653V3.15653H153.887V2.15653H152.887ZM150.015 2.15653V0.908526H148.015V2.15653H150.015ZM149.015 1.90853H152.887V-0.0914741H149.015V1.90853ZM151.887 0.908526V2.15653H153.887V0.908526H151.887ZM152.887 1.15653H149.015V3.15653H152.887V1.15653ZM154.171 2.15653H153.171V3.15653H154.171V2.15653ZM154.171 0.908526V-0.0914741H153.171V0.908526H154.171ZM158.043 0.908526H159.043V-0.0914741H158.043V0.908526ZM158.043 2.15653V3.15653H159.043V2.15653H158.043ZM155.171 2.15653V0.908526H153.171V2.15653H155.171ZM154.171 1.90853H158.043V-0.0914741H154.171V1.90853ZM157.043 0.908526V2.15653H159.043V0.908526H157.043ZM158.043 1.15653H154.171V3.15653H158.043V1.15653ZM159.328 2.15653H158.328V3.15653H159.328V2.15653ZM159.328 0.908526V-0.0914741H158.328V0.908526H159.328ZM163.2 0.908526H164.2V-0.0914741H163.2V0.908526ZM163.2 2.15653V3.15653H164.2V2.15653H163.2ZM160.328 2.15653V0.908526H158.328V2.15653H160.328ZM159.328 1.90853H163.2V-0.0914741H159.328V1.90853ZM162.2 0.908526V2.15653H164.2V0.908526H162.2ZM163.2 1.15653H159.328V3.15653H163.2V1.15653ZM164.484 2.15653H163.484V3.15653H164.484V2.15653ZM164.484 0.908526V-0.0914741H163.484V0.908526H164.484ZM168.356 0.908526H169.356V-0.0914741H168.356V0.908526ZM168.356 2.15653V3.15653H169.356V2.15653H168.356ZM165.484 2.15653V0.908526H163.484V2.15653H165.484ZM164.484 1.90853H168.356V-0.0914741H164.484V1.90853ZM167.356 0.908526V2.15653H169.356V0.908526H167.356ZM168.356 1.15653H164.484V3.15653H168.356V1.15653ZM169.64 2.15653H168.64V3.15653H169.64V2.15653ZM169.64 0.908526V-0.0914741H168.64V0.908526H169.64ZM173.512 0.908526H174.512V-0.0914741H173.512V0.908526ZM173.512 2.15653V3.15653H174.512V2.15653H173.512ZM170.64 2.15653V0.908526H168.64V2.15653H170.64ZM169.64 1.90853H173.512V-0.0914741H169.64V1.90853ZM172.512 0.908526V2.15653H174.512V0.908526H172.512ZM173.512 1.15653H169.64V3.15653H173.512V1.15653ZM174.796 2.15653H173.796V3.15653H174.796V2.15653ZM174.796 0.908526V-0.0914741H173.796V0.908526H174.796ZM178.668 0.908526H179.668V-0.0914741H178.668V0.908526ZM178.668 2.15653V3.15653H179.668V2.15653H178.668ZM175.796 2.15653V0.908526H173.796V2.15653H175.796ZM174.796 1.90853H178.668V-0.0914741H174.796V1.90853ZM177.668 0.908526V2.15653H179.668V0.908526H177.668ZM178.668 1.15653H174.796V3.15653H178.668V1.15653ZM179.953 2.15653H178.953V3.15653H179.953V2.15653ZM179.953 0.908526V-0.0914741H178.953V0.908526H179.953ZM183.825 0.908526H184.825V-0.0914741H183.825V0.908526ZM183.825 2.15653V3.15653H184.825V2.15653H183.825ZM180.953 2.15653V0.908526H178.953V2.15653H180.953ZM179.953 1.90853H183.825V-0.0914741H179.953V1.90853ZM182.825 0.908526V2.15653H184.825V0.908526H182.825ZM183.825 1.15653H179.953V3.15653H183.825V1.15653ZM185.109 2.15653H184.109V3.15653H185.109V2.15653ZM185.109 0.908526V-0.0914741H184.109V0.908526H185.109ZM188.981 0.908526H189.981V-0.0914741H188.981V0.908526ZM188.981 2.15653V3.15653H189.981V2.15653H188.981ZM186.109 2.15653V0.908526H184.109V2.15653H186.109ZM185.109 1.90853H188.981V-0.0914741H185.109V1.90853ZM187.981 0.908526V2.15653H189.981V0.908526H187.981ZM188.981 1.15653H185.109V3.15653H188.981V1.15653ZM190.265 2.15653H189.265V3.15653H190.265V2.15653ZM190.265 0.908526V-0.0914741H189.265V0.908526H190.265ZM194.137 0.908526H195.137V-0.0914741H194.137V0.908526ZM194.137 2.15653V3.15653H195.137V2.15653H194.137ZM191.265 2.15653V0.908526H189.265V2.15653H191.265ZM190.265 1.90853H194.137V-0.0914741H190.265V1.90853ZM193.137 0.908526V2.15653H195.137V0.908526H193.137ZM194.137 1.15653H190.265V3.15653H194.137V1.15653ZM195.421 2.15653H194.421V3.15653H195.421V2.15653ZM195.421 0.908526V-0.0914741H194.421V0.908526H195.421ZM199.293 0.908526H200.293V-0.0914741H199.293V0.908526ZM199.293 2.15653V3.15653H200.293V2.15653H199.293ZM196.421 2.15653V0.908526H194.421V2.15653H196.421ZM195.421 1.90853H199.293V-0.0914741H195.421V1.90853ZM198.293 0.908526V2.15653H200.293V0.908526H198.293ZM199.293 1.15653H195.421V3.15653H199.293V1.15653ZM200.578 2.15653H199.578V3.15653H200.578V2.15653ZM200.578 0.908526V-0.0914741H199.578V0.908526H200.578ZM204.45 0.908526H205.45V-0.0914741H204.45V0.908526ZM204.45 2.15653V3.15653H205.45V2.15653H204.45ZM201.578 2.15653V0.908526H199.578V2.15653H201.578ZM200.578 1.90853H204.45V-0.0914741H200.578V1.90853ZM203.45 0.908526V2.15653H205.45V0.908526H203.45ZM204.45 1.15653H200.578V3.15653H204.45V1.15653ZM205.734 2.15653H204.734V3.15653H205.734V2.15653ZM205.734 0.908526V-0.0914741H204.734V0.908526H205.734ZM209.606 0.908526H210.606V-0.0914741H209.606V0.908526ZM209.606 2.15653V3.15653H210.606V2.15653H209.606ZM206.734 2.15653V0.908526H204.734V2.15653H206.734ZM205.734 1.90853H209.606V-0.0914741H205.734V1.90853ZM208.606 0.908526V2.15653H210.606V0.908526H208.606ZM209.606 1.15653H205.734V3.15653H209.606V1.15653ZM210.89 2.15653H209.89V3.15653H210.89V2.15653ZM210.89 0.908526V-0.0914741H209.89V0.908526H210.89ZM214.762 0.908526H215.762V-0.0914741H214.762V0.908526ZM214.762 2.15653V3.15653H215.762V2.15653H214.762ZM211.89 2.15653V0.908526H209.89V2.15653H211.89ZM210.89 1.90853H214.762V-0.0914741H210.89V1.90853ZM213.762 0.908526V2.15653H215.762V0.908526H213.762ZM214.762 1.15653H210.89V3.15653H214.762V1.15653ZM216.046 2.15653H215.046V3.15653H216.046V2.15653ZM216.046 0.908526V-0.0914741H215.046V0.908526H216.046ZM219.918 0.908526H220.918V-0.0914741H219.918V0.908526ZM219.918 2.15653V3.15653H220.918V2.15653H219.918ZM217.046 2.15653V0.908526H215.046V2.15653H217.046ZM216.046 1.90853H219.918V-0.0914741H216.046V1.90853ZM218.918 0.908526V2.15653H220.918V0.908526H218.918ZM219.918 1.15653H216.046V3.15653H219.918V1.15653ZM221.203 2.15653H220.203V3.15653H221.203V2.15653ZM221.203 0.908526V-0.0914741H220.203V0.908526H221.203ZM225.075 0.908526H226.075V-0.0914741H225.075V0.908526ZM225.075 2.15653V3.15653H226.075V2.15653H225.075ZM222.203 2.15653V0.908526H220.203V2.15653H222.203ZM221.203 1.90853H225.075V-0.0914741H221.203V1.90853ZM224.075 0.908526V2.15653H226.075V0.908526H224.075ZM225.075 1.15653H221.203V3.15653H225.075V1.15653ZM226.359 2.15653H225.359V3.15653H226.359V2.15653ZM226.359 0.908526V-0.0914741H225.359V0.908526H226.359ZM230.231 0.908526H231.231V-0.0914741H230.231V0.908526ZM230.231 2.15653V3.15653H231.231V2.15653H230.231ZM227.359 2.15653V0.908526H225.359V2.15653H227.359ZM226.359 1.90853H230.231V-0.0914741H226.359V1.90853ZM229.231 0.908526V2.15653H231.231V0.908526H229.231ZM230.231 1.15653H226.359V3.15653H230.231V1.15653ZM231.515 2.15653H230.515V3.15653H231.515V2.15653ZM231.515 0.908526V-0.0914741H230.515V0.908526H231.515ZM235.387 0.908526H236.387V-0.0914741H235.387V0.908526ZM235.387 2.15653V3.15653H236.387V2.15653H235.387ZM232.515 2.15653V0.908526H230.515V2.15653H232.515ZM231.515 1.90853H235.387V-0.0914741H231.515V1.90853ZM234.387 0.908526V2.15653H236.387V0.908526H234.387ZM235.387 1.15653H231.515V3.15653H235.387V1.15653ZM236.671 2.15653H235.671V3.15653H236.671V2.15653ZM236.671 0.908526V-0.0914741H235.671V0.908526H236.671ZM240.543 0.908526H241.543V-0.0914741H240.543V0.908526ZM240.543 2.15653V3.15653H241.543V2.15653H240.543ZM237.671 2.15653V0.908526H235.671V2.15653H237.671ZM236.671 1.90853H240.543V-0.0914741H236.671V1.90853ZM239.543 0.908526V2.15653H241.543V0.908526H239.543ZM240.543 1.15653H236.671V3.15653H240.543V1.15653ZM241.828 2.15653H240.828V3.15653H241.828V2.15653ZM241.828 0.908526V-0.0914741H240.828V0.908526H241.828ZM245.7 0.908526H246.7V-0.0914741H245.7V0.908526ZM245.7 2.15653V3.15653H246.7V2.15653H245.7ZM242.828 2.15653V0.908526H240.828V2.15653H242.828ZM241.828 1.90853H245.7V-0.0914741H241.828V1.90853ZM244.7 0.908526V2.15653H246.7V0.908526H244.7ZM245.7 1.15653H241.828V3.15653H245.7V1.15653ZM246.984 2.15653H245.984V3.15653H246.984V2.15653ZM246.984 0.908526V-0.0914741H245.984V0.908526H246.984ZM250.856 0.908526H251.856V-0.0914741H250.856V0.908526ZM250.856 2.15653V3.15653H251.856V2.15653H250.856ZM247.984 2.15653V0.908526H245.984V2.15653H247.984ZM246.984 1.90853H250.856V-0.0914741H246.984V1.90853ZM249.856 0.908526V2.15653H251.856V0.908526H249.856ZM250.856 1.15653H246.984V3.15653H250.856V1.15653ZM252.14 2.15653H251.14V3.15653H252.14V2.15653ZM252.14 0.908526V-0.0914741H251.14V0.908526H252.14ZM256.012 0.908526H257.012V-0.0914741H256.012V0.908526ZM256.012 2.15653V3.15653H257.012V2.15653H256.012ZM253.14 2.15653V0.908526H251.14V2.15653H253.14ZM252.14 1.90853H256.012V-0.0914741H252.14V1.90853ZM255.012 0.908526V2.15653H257.012V0.908526H255.012ZM256.012 1.15653H252.14V3.15653H256.012V1.15653ZM257.296 2.15653H256.296V3.15653H257.296V2.15653ZM257.296 0.908526V-0.0914741H256.296V0.908526H257.296ZM261.168 0.908526H262.168V-0.0914741H261.168V0.908526ZM261.168 2.15653V3.15653H262.168V2.15653H261.168ZM258.296 2.15653V0.908526H256.296V2.15653H258.296ZM257.296 1.90853H261.168V-0.0914741H257.296V1.90853ZM260.168 0.908526V2.15653H262.168V0.908526H260.168ZM261.168 1.15653H257.296V3.15653H261.168V1.15653ZM262.453 2.15653H261.453V3.15653H262.453V2.15653ZM262.453 0.908526V-0.0914741H261.453V0.908526H262.453ZM266.325 0.908526H267.325V-0.0914741H266.325V0.908526ZM266.325 2.15653V3.15653H267.325V2.15653H266.325ZM263.453 2.15653V0.908526H261.453V2.15653H263.453ZM262.453 1.90853H266.325V-0.0914741H262.453V1.90853ZM265.325 0.908526V2.15653H267.325V0.908526H265.325ZM266.325 1.15653H262.453V3.15653H266.325V1.15653ZM267.609 2.15653H266.609V3.15653H267.609V2.15653ZM267.609 0.908526V-0.0914741H266.609V0.908526H267.609ZM271.481 0.908526H272.481V-0.0914741H271.481V0.908526ZM271.481 2.15653V3.15653H272.481V2.15653H271.481ZM268.609 2.15653V0.908526H266.609V2.15653H268.609ZM267.609 1.90853H271.481V-0.0914741H267.609V1.90853ZM270.481 0.908526V2.15653H272.481V0.908526H270.481ZM271.481 1.15653H267.609V3.15653H271.481V1.15653ZM272.765 2.15653H271.765V3.15653H272.765V2.15653ZM272.765 0.908526V-0.0914741H271.765V0.908526H272.765ZM276.637 0.908526H277.637V-0.0914741H276.637V0.908526ZM276.637 2.15653V3.15653H277.637V2.15653H276.637ZM273.765 2.15653V0.908526H271.765V2.15653H273.765ZM272.765 1.90853H276.637V-0.0914741H272.765V1.90853ZM275.637 0.908526V2.15653H277.637V0.908526H275.637ZM276.637 1.15653H272.765V3.15653H276.637V1.15653ZM277.921 2.15653H276.921V3.15653H277.921V2.15653ZM277.921 0.908526V-0.0914741H276.921V0.908526H277.921ZM281.793 0.908526H282.793V-0.0914741H281.793V0.908526ZM281.793 2.15653V3.15653H282.793V2.15653H281.793ZM278.921 2.15653V0.908526H276.921V2.15653H278.921ZM277.921 1.90853H281.793V-0.0914741H277.921V1.90853ZM280.793 0.908526V2.15653H282.793V0.908526H280.793ZM281.793 1.15653H277.921V3.15653H281.793V1.15653ZM283.078 2.15653H282.078V3.15653H283.078V2.15653ZM283.078 0.908526V-0.0914741H282.078V0.908526H283.078ZM286.95 0.908526H287.95V-0.0914741H286.95V0.908526ZM286.95 2.15653V3.15653H287.95V2.15653H286.95ZM284.078 2.15653V0.908526H282.078V2.15653H284.078ZM283.078 1.90853H286.95V-0.0914741H283.078V1.90853ZM285.95 0.908526V2.15653H287.95V0.908526H285.95ZM286.95 1.15653H283.078V3.15653H286.95V1.15653ZM288.234 2.15653H287.234V3.15653H288.234V2.15653ZM288.234 0.908526V-0.0914741H287.234V0.908526H288.234ZM292.106 0.908526H293.106V-0.0914741H292.106V0.908526ZM292.106 2.15653V3.15653H293.106V2.15653H292.106ZM289.234 2.15653V0.908526H287.234V2.15653H289.234ZM288.234 1.90853H292.106V-0.0914741H288.234V1.90853ZM291.106 0.908526V2.15653H293.106V0.908526H291.106ZM292.106 1.15653H288.234V3.15653H292.106V1.15653ZM293.39 2.15653H292.39V3.15653H293.39V2.15653ZM293.39 0.908526V-0.0914741H292.39V0.908526H293.39ZM297.262 0.908526H298.262V-0.0914741H297.262V0.908526ZM297.262 2.15653V3.15653H298.262V2.15653H297.262ZM294.39 2.15653V0.908526H292.39V2.15653H294.39ZM293.39 1.90853H297.262V-0.0914741H293.39V1.90853ZM296.262 0.908526V2.15653H298.262V0.908526H296.262ZM297.262 1.15653H293.39V3.15653H297.262V1.15653ZM298.546 2.15653H297.546V3.15653H298.546V2.15653ZM298.546 0.908526V-0.0914741H297.546V0.908526H298.546ZM302.418 0.908526H303.418V-0.0914741H302.418V0.908526ZM302.418 2.15653V3.15653H303.418V2.15653H302.418ZM299.546 2.15653V0.908526H297.546V2.15653H299.546ZM298.546 1.90853H302.418V-0.0914741H298.546V1.90853ZM301.418 0.908526V2.15653H303.418V0.908526H301.418ZM302.418 1.15653H298.546V3.15653H302.418V1.15653ZM303.703 2.15653H302.703V3.15653H303.703V2.15653ZM303.703 0.908526V-0.0914741H302.703V0.908526H303.703ZM307.575 0.908526H308.575V-0.0914741H307.575V0.908526ZM307.575 2.15653V3.15653H308.575V2.15653H307.575ZM304.703 2.15653V0.908526H302.703V2.15653H304.703ZM303.703 1.90853H307.575V-0.0914741H303.703V1.90853ZM306.575 0.908526V2.15653H308.575V0.908526H306.575ZM307.575 1.15653H303.703V3.15653H307.575V1.15653ZM308.859 2.15653H307.859V3.15653H308.859V2.15653ZM308.859 0.908526V-0.0914741H307.859V0.908526H308.859ZM312.731 0.908526H313.731V-0.0914741H312.731V0.908526ZM312.731 2.15653V3.15653H313.731V2.15653H312.731ZM309.859 2.15653V0.908526H307.859V2.15653H309.859ZM308.859 1.90853H312.731V-0.0914741H308.859V1.90853ZM311.731 0.908526V2.15653H313.731V0.908526H311.731ZM312.731 1.15653H308.859V3.15653H312.731V1.15653ZM314.015 2.15653H313.015V3.15653H314.015V2.15653ZM314.015 0.908526V-0.0914741H313.015V0.908526H314.015ZM317.887 0.908526H318.887V-0.0914741H317.887V0.908526ZM317.887 2.15653V3.15653H318.887V2.15653H317.887ZM315.015 2.15653V0.908526H313.015V2.15653H315.015ZM314.015 1.90853H317.887V-0.0914741H314.015V1.90853ZM316.887 0.908526V2.15653H318.887V0.908526H316.887ZM317.887 1.15653H314.015V3.15653H317.887V1.15653ZM319.171 2.15653H318.171V3.15653H319.171V2.15653ZM319.171 0.908526V-0.0914741H318.171V0.908526H319.171ZM323.043 0.908526H324.043V-0.0914741H323.043V0.908526ZM323.043 2.15653V3.15653H324.043V2.15653H323.043ZM320.171 2.15653V0.908526H318.171V2.15653H320.171ZM319.171 1.90853H323.043V-0.0914741H319.171V1.90853ZM322.043 0.908526V2.15653H324.043V0.908526H322.043ZM323.043 1.15653H319.171V3.15653H323.043V1.15653Z" fill="black" mask="url(#path-1-inside-1_6986_21474)"/>
</g>
<defs>
<filter id="filter0_d_6986_21474" x="0.639893" y="0.908539" width="326.403" height="9.24799" filterUnits="userSpaceOnUse" color-interpolation-filters="sRGB">
<feFlood flood-opacity="0" result="BackgroundImageFix"/>
<feColorMatrix in="SourceAlpha" type="matrix" values="0 0 0 0 0 0 0 0 0 0 0 0 0 0 0 0 0 0 127 0" result="hardAlpha"/>
<feOffset dy="4"/>
<feGaussianBlur stdDeviation="2"/>
<feComposite in2="hardAlpha" operator="out"/>
<feColorMatrix type="matrix" values="0 0 0 0 0 0 0 0 0 0 0 0 0 0 0 0 0 0 0.25 0"/>
<feBlend mode="normal" in2="BackgroundImageFix" result="effect1_dropShadow_6986_21474"/>
<feBlend mode="normal" in="SourceGraphic" in2="effect1_dropShadow_6986_21474" result="shape"/>
</filter>
</defs>
</svg>
