<svg xmlns="http://www.w3.org/2000/svg" width="12" height="12" viewBox="0 0 12 12" fill="none">
<path fill-rule="evenodd" clip-rule="evenodd" d="M11.7793 8.46983C11.9198 8.61045 11.9987 8.80108 11.9987 8.99983C11.9987 9.19858 11.9198 9.3892 11.7793 9.52983L9.52934 11.7798C9.38871 11.9203 9.19809 11.9992 8.99934 11.9992C8.80059 11.9992 8.60997 11.9203 8.46934 11.7798L6.21934 9.52983C6.14565 9.46117 6.08655 9.37837 6.04556 9.28637C6.00457 9.19437 5.98253 9.09505 5.98075 8.99435C5.97897 8.89365 5.9975 8.79362 6.03522 8.70023C6.07294 8.60684 6.12908 8.52201 6.2003 8.45079C6.27152 8.37957 6.35635 8.32343 6.44974 8.28571C6.54313 8.24798 6.64316 8.22946 6.74386 8.23124C6.84456 8.23301 6.94388 8.25506 7.03588 8.29605C7.12788 8.33704 7.21068 8.39614 7.27934 8.46983L8.24934 9.43983V3.74983C8.24934 3.55092 8.32836 3.36015 8.46901 3.2195C8.60966 3.07885 8.80043 2.99983 8.99934 2.99983C9.19825 2.99983 9.38902 3.07885 9.52967 3.2195C9.67032 3.36015 9.74934 3.55092 9.74934 3.74983V9.43983L10.7193 8.46983C10.86 8.32938 11.0506 8.25049 11.2493 8.25049C11.4481 8.25049 11.6387 8.32938 11.7793 8.46983ZM0.21934 3.52983C0.0788896 3.3892 0 3.19858 0 2.99983C0 2.80108 0.0788896 2.61045 0.21934 2.46983L2.46934 0.219828C2.60997 0.0793779 2.80059 0.000488281 2.99934 0.000488281C3.19809 0.000488281 3.38871 0.0793779 3.52934 0.219828L5.77934 2.46983C5.91182 2.612 5.98394 2.80005 5.98052 2.99435C5.97709 3.18865 5.89838 3.37404 5.76096 3.51145C5.62355 3.64886 5.43816 3.72758 5.24386 3.731C5.04956 3.73443 4.86152 3.66231 4.71934 3.52983L3.74934 2.55983V8.24983C3.74934 8.44874 3.67032 8.63951 3.52967 8.78016C3.38902 8.92081 3.19825 8.99983 2.99934 8.99983C2.80043 8.99983 2.60966 8.92081 2.46901 8.78016C2.32836 8.63951 2.24934 8.44874 2.24934 8.24983V2.55983L1.27934 3.52983C1.13871 3.67028 0.948091 3.74917 0.74934 3.74917C0.550589 3.74917 0.359965 3.67028 0.21934 3.52983Z" fill="#5D6B98"/>
</svg>