<svg xmlns="http://www.w3.org/2000/svg" width="24" height="24" viewBox="0 0 24 24" fill="none">
<path d="M19.8578 2.68614H17.5838V1.54917C17.5838 1.24763 17.464 0.958434 17.2508 0.745211C17.0376 0.531988 16.7484 0.412201 16.4468 0.412201C16.1453 0.412201 15.8561 0.531988 15.6429 0.745211C15.4297 0.958434 15.3099 1.24763 15.3099 1.54917V2.68614H8.48807V1.54917C8.48807 1.24763 8.36829 0.958434 8.15506 0.745211C7.94184 0.531988 7.65265 0.412201 7.3511 0.412201C7.04956 0.412201 6.76037 0.531988 6.54715 0.745211C6.33392 0.958434 6.21414 1.24763 6.21414 1.54917V2.68614H3.9402C3.03557 2.68614 2.168 3.0455 1.52833 3.68517C0.888659 4.32484 0.529297 5.19241 0.529297 6.09704V19.7407C0.529297 20.6453 0.888659 21.5129 1.52833 22.1525C2.168 22.7922 3.03557 23.1516 3.9402 23.1516H19.8578C20.7624 23.1516 21.63 22.7922 22.2696 22.1525C22.9093 21.5129 23.2687 20.6453 23.2687 19.7407V6.09704C23.2687 5.19241 22.9093 4.32484 22.2696 3.68517C21.63 3.0455 20.7624 2.68614 19.8578 2.68614ZM20.9947 19.7407C20.9947 20.0422 20.8749 20.3314 20.6617 20.5446C20.4485 20.7578 20.1593 20.8776 19.8578 20.8776H3.9402C3.63866 20.8776 3.34947 20.7578 3.13624 20.5446C2.92302 20.3314 2.80323 20.0422 2.80323 19.7407V11.7819H20.9947V19.7407ZM20.9947 9.50795H2.80323V6.09704C2.80323 5.7955 2.92302 5.50631 3.13624 5.29308C3.34947 5.07986 3.63866 4.96007 3.9402 4.96007H6.21414V6.09704C6.21414 6.39858 6.33392 6.68778 6.54715 6.901C6.76037 7.11422 7.04956 7.23401 7.3511 7.23401C7.65265 7.23401 7.94184 7.11422 8.15506 6.901C8.36829 6.68778 8.48807 6.39858 8.48807 6.09704V4.96007H15.3099V6.09704C15.3099 6.39858 15.4297 6.68778 15.6429 6.901C15.8561 7.11422 16.1453 7.23401 16.4468 7.23401C16.7484 7.23401 17.0376 7.11422 17.2508 6.901C17.464 6.68778 17.5838 6.39858 17.5838 6.09704V4.96007H19.8578C20.1593 4.96007 20.4485 5.07986 20.6617 5.29308C20.8749 5.50631 20.9947 5.7955 20.9947 6.09704V9.50795Z" fill="#FF5757"/>
</svg>