<svg xmlns="http://www.w3.org/2000/svg" width="54" height="54" viewBox="0 0 54 54" fill="none">
<rect width="54" height="54" rx="27" fill="#FF6262" fill-opacity="0.1"/>
<g clip-path="url(#clip0_3186_52550)">
<path opacity="0.3" d="M21.3756 27.3037V31.4887L27.0006 34.5599L32.6256 31.4887V27.3037L27.0006 30.3749L21.3756 27.3037ZM19.3281 23.6249L27.0006 27.8099L34.6731 23.6249L27.0006 19.4399L19.3281 23.6249Z" fill="#FF5757"/>
<path d="M27 16.875L14.625 23.625L19.125 26.0775V32.8275L27 37.125L34.875 32.8275V26.0775L37.125 24.8513V32.625H39.375V23.625L27 16.875ZM32.625 31.4887L27 34.56L21.375 31.4887V27.3038L27 30.375L32.625 27.3038V31.4887ZM27 27.81L19.3275 23.625L27 19.44L34.6725 23.625L27 27.81Z" fill="#FF5757"/>
</g>
<defs>
<clipPath id="clip0_3186_52550">
<rect width="27" height="27" fill="white" transform="translate(13.5 13.5)"/>
</clipPath>
</defs>
</svg>