<svg xmlns="http://www.w3.org/2000/svg" width="20" height="18" viewBox="0 0 33 28" fill="none">
<path opacity="0.3" d="M8.35156 9.30371V24.0849C8.35156 24.9133 9.02314 25.5849 9.85156 25.5849H23.284C24.1124 25.5849 24.784 24.9133 24.784 24.0849V9.30371H8.35156Z" fill="#022A06"/>
<path opacity="0.3" fill-rule="evenodd" clip-rule="evenodd" d="M19.3065 5.23318V4.48877C19.3065 3.93649 18.8588 3.48877 18.3065 3.48877H14.829C14.2767 3.48877 13.829 3.93648 13.829 4.48877V5.23318H7.48218C7.20604 5.23318 6.98218 5.45704 6.98218 5.73318V6.47759C6.98218 6.75373 7.20604 6.97759 7.48218 6.97759H25.6534C25.9295 6.97759 26.1534 6.75373 26.1534 6.47759V5.73318C26.1534 5.45704 25.9295 5.23318 25.6534 5.23318H19.3065Z" fill="#022A06"/>
</svg>