<svg xmlns="http://www.w3.org/2000/svg" width="24" height="25" viewBox="0 0 24 25" fill="none">
<path d="M16.5 20.3438C17.3284 20.3438 18 19.6722 18 18.8438C18 18.0153 17.3284 17.3438 16.5 17.3438C15.6716 17.3438 15 18.0153 15 18.8438C15 19.6722 15.6716 20.3438 16.5 20.3438Z" fill="#FF5757"/>
<path d="M22.3328 18.453C21.8693 17.2724 21.0697 16.2538 20.0329 15.5233C18.9961 14.7929 17.7677 14.3827 16.5 14.3437C15.2323 14.3827 14.0039 14.7929 12.9671 15.5233C11.9303 16.2538 11.1307 17.2724 10.6672 18.453L10.5 18.8438L10.6672 19.2352C11.1308 20.4157 11.9305 21.4342 12.9673 22.1645C14.0041 22.8948 15.2324 23.3048 16.5 23.3438C17.7676 23.3048 18.9959 22.8948 20.0327 22.1645C21.0695 21.4342 21.8692 20.4157 22.3328 19.2352L22.5 18.8438L22.3328 18.453ZM16.5 21.8438C15.9067 21.8438 15.3266 21.6678 14.8333 21.3382C14.3399 21.0085 13.9554 20.54 13.7284 19.9918C13.5013 19.4436 13.4419 18.8404 13.5576 18.2585C13.6734 17.6765 13.9591 17.142 14.3787 16.7224C14.7982 16.3029 15.3328 16.0171 15.9147 15.9014C16.4967 15.7856 17.0999 15.845 17.648 16.0721C18.1962 16.2992 18.6648 16.6837 18.9944 17.177C19.3241 17.6704 19.5 18.2504 19.5 18.8438C19.499 19.6391 19.1826 20.4016 18.6202 20.964C18.0578 21.5264 17.2953 21.8428 16.5 21.8438Z" fill="#FF5757"/>
<path d="M9 21.844H6L6 3.84401L12 3.84401V8.34401C12.0012 8.74147 12.1596 9.12231 12.4407 9.40335C12.7217 9.6844 13.1025 9.84282 13.5 9.84401H18V12.844H19.5V8.34401C19.5026 8.24544 19.4839 8.14747 19.4451 8.05684C19.4062 7.96621 19.3482 7.88507 19.275 7.81901L14.025 2.56901C13.959 2.49576 13.8778 2.43772 13.7872 2.39887C13.6966 2.36003 13.5986 2.34131 13.5 2.34401L6 2.34401C5.60254 2.34519 5.2217 2.50361 4.94065 2.78466C4.6596 3.0657 4.50119 3.44655 4.5 3.84401L4.5 21.844C4.50119 22.2415 4.6596 22.6223 4.94065 22.9034C5.2217 23.1844 5.60254 23.3428 6 23.344H9V21.844ZM13.5 4.14401L17.7 8.34401H13.5L13.5 4.14401Z" fill="#FF5757"/>
</svg>