<svg xmlns="http://www.w3.org/2000/svg" width="25" height="28" viewBox="0 0 25 28" fill="none">
<path d="M3.40039 7.15091H5.41375H21.5207" stroke="#524B6B" stroke-width="1.49138" stroke-linecap="round" stroke-linejoin="round"/>
<path d="M19.5076 7.15099V22.8105C19.5076 23.4038 19.2955 23.9728 18.9179 24.3923C18.5403 24.8118 18.0282 25.0475 17.4942 25.0475H7.42742C6.89345 25.0475 6.38134 24.8118 6.00376 24.3923C5.62618 23.9728 5.41406 23.4038 5.41406 22.8105V7.15099M8.43411 7.15099V4.91392C8.43411 4.32061 8.64623 3.7516 9.02381 3.33207C9.40138 2.91254 9.91349 2.67685 10.4475 2.67685H14.4742C15.0082 2.67685 15.5203 2.91254 15.8979 3.33207C16.2754 3.7516 16.4876 4.32061 16.4876 4.91392V7.15099" stroke="#524B6B" stroke-width="1.49138" stroke-linecap="round" stroke-linejoin="round"/>
<path d="M10.4453 12.7435V19.4547" stroke="#524B6B" stroke-width="1.49138" stroke-linecap="round" stroke-linejoin="round"/>
<path d="M14.4707 12.7435V19.4547" stroke="#524B6B" stroke-width="1.49138" stroke-linecap="round" stroke-linejoin="round"/>
</svg>