<svg xmlns="http://www.w3.org/2000/svg" width="26" height="26" viewBox="0 0 26 26" fill="none">
<path d="M12.1671 4.28516H4.82446C4.26806 4.28516 3.73446 4.50618 3.34102 4.89962C2.94759 5.29305 2.72656 5.82666 2.72656 6.38306V21.0683C2.72656 21.6247 2.94759 22.1584 3.34102 22.5518C3.73446 22.9452 4.26806 23.1662 4.82446 23.1662H19.5098C20.0662 23.1662 20.5998 22.9452 20.9932 22.5518C21.3866 22.1584 21.6077 21.6247 21.6077 21.0683V13.7257" stroke="#5D6B98" stroke-width="1.57342" stroke-linecap="round" stroke-linejoin="round"/>
<path d="M20.0369 2.71033C20.4542 2.29303 21.0202 2.05859 21.6103 2.05859C22.2005 2.05859 22.7665 2.29303 23.1838 2.71033C23.6011 3.12763 23.8355 3.6936 23.8355 4.28375C23.8355 4.8739 23.6011 5.43988 23.1838 5.85718L13.2187 15.8222L9.02295 16.8711L10.0719 12.6753L20.0369 2.71033Z" stroke="#5D6B98" stroke-width="1.57342" stroke-linecap="round" stroke-linejoin="round"/>
</svg>