<svg xmlns="http://www.w3.org/2000/svg" width="12" height="12" viewBox="0 0 12 12" fill="none">
<g clip-path="url(#clip0_6898_21338)">
<path d="M5.89747 2.12325H2.61697C2.36839 2.12325 2.12999 2.222 1.95421 2.39777C1.77844 2.57355 1.67969 2.81195 1.67969 3.06054V9.62154C1.67969 9.87012 1.77844 10.1085 1.95421 10.2843C2.12999 10.4601 2.36839 10.5588 2.61697 10.5588H9.17797C9.42656 10.5588 9.66496 10.4601 9.84073 10.2843C10.0165 10.1085 10.1153 9.87012 10.1153 9.62154V6.34104" stroke="black" stroke-width="0.937286" stroke-linecap="round" stroke-linejoin="round"/>
<path d="M9.41098 1.4203C9.59742 1.23386 9.85029 1.12912 10.1139 1.12912C10.3776 1.12912 10.6305 1.23386 10.8169 1.4203C11.0034 1.60674 11.1081 1.8596 11.1081 2.12327C11.1081 2.38693 11.0034 2.63979 10.8169 2.82623L6.36481 7.27834L4.49023 7.74698L4.95888 5.87241L9.41098 1.4203Z" stroke="black" stroke-width="0.937286" stroke-linecap="round" stroke-linejoin="round"/>
</g>
<defs>
<clipPath id="clip0_6898_21338">
<rect width="11.2474" height="11.2474" fill="white" transform="translate(0.741211 0.248679)"/>
</clipPath>
</defs>
</svg>