<svg xmlns="http://www.w3.org/2000/svg" width="19" height="19" viewBox="0 0 19 19" fill="none">
<path fill-rule="evenodd" clip-rule="evenodd" d="M1.01242 5.09603C1.56562 4.54283 2.31591 4.23205 3.09825 4.23205H6.04807C6.59111 4.23205 7.03134 4.67227 7.03134 5.21532C7.03134 5.75837 6.59111 6.19859 6.04807 6.19859H3.09825C2.83747 6.19859 2.58737 6.30219 2.40297 6.48659C2.21857 6.67098 2.11498 6.92108 2.11498 7.18186V16.0313C2.11498 16.2921 2.21857 16.5422 2.40297 16.7266C2.58737 16.911 2.83747 17.0146 3.09825 17.0146H11.9477C12.2085 17.0146 12.4586 16.911 12.643 16.7266C12.8274 16.5422 12.931 16.2921 12.931 16.0313V13.0815C12.931 12.5384 13.3712 12.0982 13.9142 12.0982C14.4573 12.0982 14.8975 12.5384 14.8975 13.0815V16.0313C14.8975 16.8136 14.5867 17.5639 14.0335 18.1171C13.4803 18.6703 12.73 18.9811 11.9477 18.9811H3.09825C2.31591 18.9811 1.56561 18.6703 1.01242 18.1171C0.459221 17.5639 0.148438 16.8136 0.148438 16.0313V7.18186C0.148438 6.39952 0.45922 5.64923 1.01242 5.09603Z" fill="#FF5757"/>
<path fill-rule="evenodd" clip-rule="evenodd" d="M13.7106 1.07861C14.2862 0.503038 15.0668 0.179688 15.8808 0.179688C16.6948 0.179688 17.4754 0.503038 18.051 1.07861C18.6265 1.65418 18.9499 2.43481 18.9499 3.24879C18.9499 4.06277 18.6265 4.84341 18.051 5.41898L9.69316 13.7768C9.50876 13.9612 9.25866 14.0648 8.99788 14.0648H6.04807C5.50502 14.0648 5.0648 13.6246 5.0648 13.0815V10.1317C5.0648 9.87091 5.16839 9.62081 5.35279 9.43641L13.7106 1.07861ZM15.8808 2.14623C15.5884 2.14623 15.3079 2.26239 15.1012 2.46916L7.03134 10.539V12.0982H8.5906L16.6604 4.02842C16.8672 3.82165 16.9833 3.54121 16.9833 3.24879C16.9833 2.95638 16.8672 2.67593 16.6604 2.46916C16.4536 2.26239 16.1732 2.14623 15.8808 2.14623Z" fill="#FF5757"/>
<path fill-rule="evenodd" clip-rule="evenodd" d="M12.2357 2.55354C12.6197 2.16954 13.2423 2.16954 13.6262 2.55354L16.5761 5.50335C16.9601 5.88734 16.9601 6.50991 16.5761 6.89391C16.1921 7.2779 15.5695 7.2779 15.1855 6.89391L12.2357 3.94409C11.8517 3.5601 11.8517 2.93753 12.2357 2.55354Z" fill="#FF5757"/>
</svg>