<svg xmlns="http://www.w3.org/2000/svg" width="45" height="45" viewBox="0 0 45 45" fill="none">
    <g filter="url(#filter0_dd_648_6726)">
        <rect x="12.4971" y="8.82742" width="26.6144" height="26.6144" rx="13.3072" fill="white"/>
    </g>
    <path fill-rule="evenodd" clip-rule="evenodd" d="M20.9553 19.0766C21.2913 18.7406 21.7469 18.5519 22.222 18.5519H24.0134C24.3431 18.5519 24.6105 18.8192 24.6105 19.149C24.6105 19.4788 24.3431 19.7461 24.0134 19.7461H22.222C22.0637 19.7461 21.9118 19.8091 21.7998 19.921C21.6878 20.033 21.6249 20.1849 21.6249 20.3433V25.7173C21.6249 25.8757 21.6878 26.0276 21.7998 26.1395C21.9118 26.2515 22.0637 26.3144 22.222 26.3144H27.5961C27.7544 26.3144 27.9063 26.2515 28.0183 26.1395C28.1303 26.0276 28.1932 25.8757 28.1932 25.7173V23.926C28.1932 23.5962 28.4605 23.3288 28.7903 23.3288C29.1201 23.3288 29.3874 23.5962 29.3874 23.926V25.7173C29.3874 26.1924 29.1987 26.648 28.8627 26.984C28.5268 27.3199 28.0712 27.5087 27.5961 27.5087H22.222C21.7469 27.5087 21.2913 27.3199 20.9553 26.984C20.6194 26.648 20.4307 26.1924 20.4307 25.7173V20.3433C20.4307 19.8682 20.6194 19.4125 20.9553 19.0766Z" fill="#909090"/>
    <path fill-rule="evenodd" clip-rule="evenodd" d="M28.6666 16.6369C29.0162 16.2874 29.4902 16.091 29.9845 16.091C30.4789 16.091 30.9529 16.2874 31.3024 16.6369C31.652 16.9864 31.8483 17.4605 31.8483 17.9548C31.8483 18.4491 31.652 18.9232 31.3024 19.2727L26.2269 24.3482C26.115 24.4602 25.9631 24.5231 25.8047 24.5231H24.0134C23.6836 24.5231 23.4163 24.2557 23.4163 23.926V22.1346C23.4163 21.9763 23.4792 21.8244 23.5911 21.7124L28.6666 16.6369ZM29.9845 17.2852C29.807 17.2852 29.6367 17.3558 29.5111 17.4813L24.6105 22.382V23.3289H25.5574L30.458 18.4282C30.5836 18.3027 30.6541 18.1324 30.6541 17.9548C30.6541 17.7772 30.5836 17.6069 30.458 17.4813C30.3324 17.3558 30.1621 17.2852 29.9845 17.2852Z" fill="#909090"/>
    <path fill-rule="evenodd" clip-rule="evenodd" d="M27.771 17.5326C28.0042 17.2994 28.3822 17.2994 28.6154 17.5326L30.4068 19.3239C30.64 19.5571 30.64 19.9352 30.4068 20.1684C30.1736 20.4016 29.7955 20.4016 29.5623 20.1684L27.771 18.377C27.5378 18.1438 27.5378 17.7658 27.771 17.5326Z" fill="#909090"/>
    <defs>
        <filter id="filter0_dd_648_6726" x="0.213516" y="0.638387" width="51.1814" height="51.1815" filterUnits="userSpaceOnUse" color-interpolation-filters="sRGB">
            <feFlood flood-opacity="0" result="BackgroundImageFix"/>
            <feColorMatrix in="SourceAlpha" type="matrix" values="0 0 0 0 0 0 0 0 0 0 0 0 0 0 0 0 0 0 127 0" result="hardAlpha"/>
            <feOffset dy="4.09452"/>
            <feGaussianBlur stdDeviation="6.14178"/>
            <feColorMatrix type="matrix" values="0 0 0 0 0.121569 0 0 0 0 0.105882 0 0 0 0 0.176471 0 0 0 0.08 0"/>
            <feBlend mode="normal" in2="BackgroundImageFix" result="effect1_dropShadow_648_6726"/>
            <feColorMatrix in="SourceAlpha" type="matrix" values="0 0 0 0 0 0 0 0 0 0 0 0 0 0 0 0 0 0 127 0" result="hardAlpha"/>
            <feMorphology radius="2.04726" operator="erode" in="SourceAlpha" result="effect2_dropShadow_648_6726"/>
            <feOffset dy="2.04726"/>
            <feGaussianBlur stdDeviation="1.02363"/>
            <feColorMatrix type="matrix" values="0 0 0 0 0.121569 0 0 0 0 0.105882 0 0 0 0 0.176471 0 0 0 0.08 0"/>
            <feBlend mode="normal" in2="effect1_dropShadow_648_6726" result="effect2_dropShadow_648_6726"/>
            <feBlend mode="normal" in="SourceGraphic" in2="effect2_dropShadow_648_6726" result="shape"/>
        </filter>
    </defs>
</svg>
