<svg xmlns="http://www.w3.org/2000/svg" width="20" height="20" viewBox="0 0 14 14" fill="none">
<path fill-rule="evenodd" clip-rule="evenodd" d="M0.928368 4.24435C1.31035 3.86237 1.82843 3.64777 2.36864 3.64777H4.40549C4.78047 3.64777 5.08445 3.95175 5.08445 4.32673C5.08445 4.7017 4.78047 5.00568 4.40549 5.00568H2.36864C2.18857 5.00568 2.01588 5.07721 1.88855 5.20454C1.76122 5.33186 1.68969 5.50456 1.68969 5.68463V11.7952C1.68969 11.9753 1.76122 12.148 1.88855 12.2753C2.01588 12.4026 2.18857 12.4741 2.36864 12.4741H8.4792C8.65927 12.4741 8.83196 12.4026 8.95929 12.2753C9.08662 12.148 9.15815 11.9753 9.15815 11.7952V9.75834C9.15815 9.38336 9.46213 9.07938 9.8371 9.07938C10.2121 9.07938 10.5161 9.38336 10.5161 9.75834V11.7952C10.5161 12.3354 10.3015 12.8535 9.91947 13.2355C9.53749 13.6174 9.01941 13.832 8.4792 13.832H2.36864C1.82843 13.832 1.31035 13.6174 0.928368 13.2355C0.546384 12.8535 0.331787 12.3354 0.331787 11.7952V5.68463C0.331787 5.14442 0.546383 4.62634 0.928368 4.24435Z" fill="#282823"/>
<path fill-rule="evenodd" clip-rule="evenodd" d="M9.69649 1.47032C10.0939 1.07288 10.633 0.849609 11.195 0.849609C11.7571 0.849609 12.2961 1.07288 12.6935 1.47032C13.091 1.86775 13.3142 2.40678 13.3142 2.96883C13.3142 3.53089 13.091 4.06992 12.6935 4.46735L6.92244 10.2384C6.79511 10.3658 6.62242 10.4373 6.44235 10.4373H4.4055C4.03052 10.4373 3.72655 10.1333 3.72655 9.75834V7.72149C3.72655 7.54142 3.79808 7.36873 3.92541 7.2414L9.69649 1.47032ZM11.195 2.20751C10.9931 2.20751 10.7994 2.28772 10.6567 2.4305L5.08445 8.00272V9.07939H6.16112L11.7333 3.50717C11.8761 3.36439 11.9563 3.17075 11.9563 2.96883C11.9563 2.76692 11.8761 2.57327 11.7333 2.4305C11.5906 2.28772 11.3969 2.20751 11.195 2.20751Z" fill="#282823"/>
<path fill-rule="evenodd" clip-rule="evenodd" d="M8.67807 2.48876C8.94321 2.22361 9.3731 2.22361 9.63825 2.48876L11.6751 4.52561C11.9402 4.79076 11.9402 5.22065 11.6751 5.48579C11.41 5.75094 10.9801 5.75094 10.7149 5.48579L8.67807 3.44894C8.41292 3.18379 8.41292 2.7539 8.67807 2.48876Z" fill="#282823"/>
</svg>