<svg width="24" height="24" viewBox="0 0 24 24" fill="none" xmlns="http://www.w3.org/2000/svg">
<path d="M3.34868 8.98868C6.53389 8.98868 9.54594 9.81815 12.1642 11.2146L21.5034 0H3.00098V22.256V8.99008H3.34868V8.98868Z" fill="#E9478B"/>
<path d="M12.1647 11.2146L3.00146 22.2546V24.0001H21.4606C20.4119 18.5011 16.9209 13.8315 12.1647 11.2146Z" fill="#3EBEB0"/>
<path d="M12.1646 11.2146L3.00146 22.2546V24.0001H6.2746L15.1766 13.2645C15.1766 13.2645 14.565 12.7842 13.7369 12.1739C13.1239 11.7369 12.1646 11.2146 12.1646 11.2146Z" fill="#37A595"/>
<path d="M3.3491 8.98901H3V22.2549L12.1646 11.2149C9.54636 9.81848 6.53431 8.98901 3.3491 8.98901Z" fill="#353535"/>
</svg>
