<svg width="24" height="24" viewBox="0 0 24 24" fill="none" xmlns="http://www.w3.org/2000/svg">
<path d="M18.252 6.74997H1.94084C1.53026 6.74997 1.19434 6.41247 1.19434 5.99997V0.749996C1.19434 0.337498 1.53026 0 1.94084 0H23.2162C23.6268 0 23.9627 0.337498 23.9627 0.749996V1.01249C23.9254 4.16248 21.3873 6.74997 18.252 6.74997Z" fill="#F0BF1A"/>
<path d="M24 24H1.26904V17.25H18.3266C21.4619 17.25 24 19.8 24 22.95V24Z" fill="#3EBEB0"/>
<path d="M16.9083 15.375H0V8.625H16.9083C18.7746 8.625 20.2676 10.125 20.2676 12C20.2676 13.875 18.7373 15.375 16.9083 15.375Z" fill="#07A5DE"/>
<path d="M11.6458 8.625H0.597412V15.375H11.6458C11.907 14.3625 12.0563 13.2375 12.0563 12C12.0563 10.7625 11.907 9.6375 11.6458 8.625Z" fill="#231F20"/>
<path d="M7.12926 1.61255C5.11368 2.81254 3.43403 4.61253 2.38892 6.75002H11.1977C10.3019 4.68753 8.88356 2.96254 7.12926 1.61255Z" fill="black"/>
<path d="M7.50247 22.5749C9.21943 21.1874 10.6005 19.3499 11.4589 17.25H2.38892C3.50867 19.4999 5.30028 21.3749 7.50247 22.5749Z" fill="black"/>
</svg>
