<svg width="127" height="127" viewBox="0 0 127 127" fill="none" xmlns="http://www.w3.org/2000/svg">
<rect width="127" height="127" fill="#1E1E1E"/>
<path d="M-1310 -2928C-1310 -2929.1 -1309.1 -2930 -1308 -2930H437C438.105 -2930 439 -2929.1 439 -2928V1433C439 1434.1 438.105 1435 437 1435H-1308C-1309.1 1435 -1310 1434.1 -1310 1433V-2928Z" fill="#444444"/>
<path d="M-1308 -2929H437V-2931H-1308V-2929ZM438 -2928V1433H440V-2928H438ZM437 1434H-1308V1436H437V1434ZM-1309 1433V-2928H-1311V1433H-1309ZM-1308 1434C-1308.55 1434 -1309 1433.55 -1309 1433H-1311C-1311 1434.66 -1309.66 1436 -1308 1436V1434ZM438 1433C438 1433.55 437.552 1434 437 1434V1436C438.657 1436 440 1434.66 440 1433H438ZM437 -2929C437.552 -2929 438 -2928.55 438 -2928H440C440 -2929.66 438.657 -2931 437 -2931V-2929ZM-1308 -2931C-1309.66 -2931 -1311 -2929.66 -1311 -2928H-1309C-1309 -2928.55 -1308.55 -2929 -1308 -2929V-2931Z" fill="white" fill-opacity="0.1"/>
<rect width="1440" height="1834" transform="translate(-1165 -655)" fill="#F4F7FE"/>
<rect x="-116" y="-31.7012" width="360.355" height="348" rx="20.1846" fill="white"/>
<circle cx="63.7454" cy="63.784" r="62.9407" fill="#F4F7FE"/>
<g clip-path="url(#clip0_30842_16467)">
<path d="M32.2424 72.5071C32.2424 75.6128 32.9242 77.9973 33.8151 79.4398C34.9834 81.3293 36.7255 82.1296 38.5019 82.1296C40.793 82.1296 42.889 81.5609 46.9279 75.9747C50.1639 71.4973 53.9769 65.2121 56.5422 61.272L60.8871 54.5966C63.9052 49.9607 67.3982 44.8073 71.4038 41.3139C74.6728 38.4626 78.2002 36.8788 81.7498 36.8788C87.7097 36.8788 93.3864 40.3324 97.7313 46.8099C102.486 53.9037 104.794 62.839 104.794 72.06C104.794 77.5417 103.714 81.5695 101.875 84.7518C100.099 87.8293 96.6367 90.9039 90.8129 90.9039V82.1296C95.7996 82.1296 97.0441 77.5474 97.0441 72.3034C97.0441 64.8305 95.3017 56.537 91.4636 50.6114C88.7394 46.408 85.2095 43.8398 81.326 43.8398C77.1257 43.8398 73.7454 47.0075 69.9467 52.6566C67.9272 55.6575 65.8538 59.3148 63.5261 63.4414L60.9634 67.9814C55.8153 77.109 54.5114 79.1878 51.9375 82.6189C47.4258 88.6271 43.5737 90.9039 38.5019 90.9039C32.4858 90.9039 28.681 88.2986 26.3251 84.3728C24.4016 81.1736 23.457 76.9762 23.457 72.1931L32.2424 72.5071Z" fill="#0081FB"/>
<path d="M30.3828 47.429C34.4109 41.2207 40.2234 36.8787 46.8902 36.8787C50.7514 36.8787 54.5896 38.0215 58.5976 41.2941C62.9816 44.872 67.6544 50.7638 73.4839 60.4744L75.5746 63.9589C80.6203 72.3655 83.4913 76.6901 85.1714 78.7299C87.3326 81.3489 88.8459 82.1295 90.8116 82.1295C95.7983 82.1295 97.0428 77.5473 97.0428 72.3033L104.793 72.0599C104.793 77.5416 103.713 81.5694 101.874 84.7517C100.098 87.8292 96.6355 90.9038 90.8116 90.9038C87.1912 90.9038 83.9838 90.1174 80.4367 86.7711C77.71 84.203 74.5223 79.6405 72.0698 75.539L64.7748 63.3536C61.115 57.2384 57.7573 52.6791 55.8144 50.6139C53.7244 48.3936 51.0371 45.712 46.7491 45.712C43.2786 45.712 40.3311 48.1477 37.8646 51.8727L30.3828 47.429Z" fill="url(#paint0_linear_30842_16467)"/>
<path d="M46.75 45.7121C43.2795 45.7121 40.332 48.1478 37.8655 51.8728C34.3781 57.1369 32.2424 64.9773 32.2424 72.5071C32.2424 75.6128 32.9242 77.9973 33.8151 79.4398L26.3251 84.3728C24.4016 81.1736 23.457 76.9762 23.457 72.1931C23.457 63.4951 25.8444 54.4298 30.384 47.4291C34.4121 41.2208 40.2246 36.8788 46.8914 36.8788L46.75 45.7121Z" fill="url(#paint1_linear_30842_16467)"/>
</g>
<path d="M-2.6204 -1.30078L-2.25639 -0.936768L-1.89237 -1.30078L1.43662 -4.62978C1.57019 -4.76335 1.78478 -4.76335 1.91835 -4.62978C2.05193 -4.4962 2.05193 -4.28162 1.91835 -4.14804L-2.01981 -0.209874C-2.15339 -0.0762978 -2.36797 -0.0762973 -2.50155 -0.209874L-6.43971 -4.14804C-6.5725 -4.28083 -6.57328 -4.49367 -6.44206 -4.62741C-6.30116 -4.76215 -6.0764 -4.75677 -5.9494 -4.62978L-2.6204 -1.30078Z" fill="#6B7280" stroke="#6B7280" stroke-width="1.02959"/>
<defs>
<linearGradient id="paint0_linear_30842_16467" x1="1063.05" y1="3058.72" x2="6656.87" y2="3341.24" gradientUnits="userSpaceOnUse">
<stop stop-color="#0064E1"/>
<stop offset="0.4" stop-color="#0064E1"/>
<stop offset="0.83" stop-color="#0073EE"/>
<stop offset="1" stop-color="#0082FB"/>
</linearGradient>
<linearGradient id="paint1_linear_30842_16467" x1="1296.29" y1="3968.53" x2="1296.29" y2="1903.72" gradientUnits="userSpaceOnUse">
<stop stop-color="#0082FB"/>
<stop offset="1" stop-color="#0064E0"/>
</linearGradient>
<clipPath id="clip0_30842_16467">
<rect width="81.3373" height="54.3308" fill="white" transform="translate(23.457 36.8788)"/>
</clipPath>
</defs>
</svg>
