<svg width="225" height="145" viewBox="0 0 225 145" fill="none" xmlns="http://www.w3.org/2000/svg">
<rect width="224.728" height="143.944" transform="translate(0 0.774902)" fill="#F5F4F8"/>
<g clip-path="url(#clip0_572_870)">
<path d="M132.55 103.506L87.9846 115.661C86.7649 115.998 85.4889 115.267 85.1511 114.05L68.9574 54.9451C68.6197 53.7278 69.3515 52.4543 70.5712 52.1172L115.137 39.9629C116.356 39.6258 117.632 40.3562 117.97 41.5735L134.164 100.697C134.502 101.914 133.77 103.169 132.55 103.506Z" fill="#D6D7F0"/>
<path d="M132.062 108.507L90.3679 128.34C89.2233 128.883 87.8347 128.396 87.2906 127.253L60.8515 71.9502C60.3074 70.8078 60.7952 69.422 61.9398 68.8789L103.634 49.0462C104.779 48.5031 106.168 48.9899 106.712 50.1323L133.132 105.436C133.695 106.578 133.207 107.945 132.062 108.507Z" fill="#E8E8F7"/>
<path d="M115.287 18.8569C118.477 22.1342 120.259 25.7674 122.267 29.8126C122.83 30.9363 126.245 28.689 125.983 27.6028C124.932 23.2579 122.061 19.4749 118.89 16.4223C117.839 15.4297 114.424 17.9954 115.287 18.8569Z" fill="#F3E9E1"/>
<path d="M134.652 18.4449C134.558 22.4713 133.732 26.2169 132.944 30.131C132.606 31.8539 135.928 29.8314 136.266 28.9324C137.748 25.0932 138.161 20.7296 138.123 16.647C138.086 15.4484 134.671 17.2463 134.652 18.4449Z" fill="#F3E9E1"/>
<path d="M142.608 35.0563C145.104 33.839 147.599 32.6592 150.114 31.5168C151.014 31.1048 152.196 30.0561 151.953 28.9324C151.69 27.8087 150.264 27.9024 149.457 28.2769C146.924 29.4193 144.428 30.5804 141.951 31.8165C141.05 32.2472 139.849 33.2585 140.112 34.4008C140.356 35.4871 141.801 35.4496 142.608 35.0563Z" fill="#F3E9E1"/>
<path d="M125.851 57.9789C126.283 57.0612 124.688 55.3944 122.267 54.252C119.846 53.1096 117.538 52.9411 117.107 53.8588C116.675 54.7765 118.27 56.4432 120.691 57.5856C123.111 58.7093 125.419 58.8966 125.851 57.9789Z" fill="#D4BFA9"/>
<path d="M117.951 52.3047C118.777 50.6941 119.471 49.0274 119.772 47.2295C120.41 43.3903 119.227 38.9706 121.573 35.8618C123.262 33.6144 126.358 32.8466 129.154 33.165C132.55 33.5395 135.853 35.4311 137.504 38.4088C139.155 41.4052 138.892 45.4504 136.528 47.9225C134.539 49.9825 131.499 50.7316 129.398 52.698C128.234 53.803 127.427 55.2263 126.564 56.5934L126.283 57.0054C119.659 56.5372 117.951 52.3047 117.951 52.3047Z" fill="#EBDBCD"/>
<path d="M129.322 46.012C129.003 45.0007 128.14 45.0944 127.352 45.4502C127.146 44.9071 126.827 44.1955 126.226 43.9895C125.57 43.7647 124.838 44.2142 124.369 44.6262C123.299 45.5064 122.473 46.7986 122.023 48.0908C121.554 49.4018 121.366 50.7876 120.935 52.1173C120.766 52.6604 121.61 52.8664 121.798 52.3233C122.323 50.6378 122.492 48.8212 123.374 47.2668C123.862 46.4053 124.575 45.3941 125.476 44.9446C125.776 44.7948 125.982 44.776 126.208 45.0756C126.376 45.3004 126.489 45.5813 126.583 45.8247C126.602 45.8435 126.602 45.881 126.602 45.8997C126.489 45.9746 126.395 46.0495 126.301 46.1244C125.419 46.8173 124.275 48.0534 124.312 49.2707C124.331 49.8138 124.706 50.282 125.269 50.3008C125.907 50.3195 126.508 49.8138 126.883 49.3456C127.577 48.4654 127.803 47.3605 127.596 46.2743C127.784 46.1619 127.99 46.087 128.178 46.0683C128.722 46.0121 128.516 46.911 128.441 47.2107C128.178 48.2032 127.652 49.1021 127.127 49.9636C126.733 50.6191 126.376 51.312 125.889 51.9113C125.344 52.5668 124.631 53.0349 123.937 53.5031C123.468 53.8215 123.937 54.5519 124.406 54.2523C125.213 53.7091 126.039 53.1286 126.658 52.3421C127.296 51.518 127.821 50.5629 128.347 49.6639C128.891 48.6714 129.698 47.1919 129.322 46.012ZM126.752 47.5852C126.658 48.0347 126.452 48.4841 126.151 48.8399C125.982 49.0459 125.157 49.7951 125.194 49.1209C125.213 48.7088 125.513 48.2968 125.738 47.9784C126.039 47.5477 126.395 47.1732 126.789 46.8361C126.808 47.0983 126.789 47.3418 126.752 47.5852Z" fill="#BFA990"/>
<path d="M120.691 57.5859C118.514 56.5559 117.013 55.1138 117.05 54.1587H117.032L116.075 58.0166C115.718 58.7658 117.032 60.1142 118.964 61.0318C120.916 61.9495 122.773 62.0994 123.13 61.3502C123.149 61.3128 123.167 61.2753 123.167 61.2379L125.644 58.2227H125.626C124.95 58.8407 122.867 58.5972 120.691 57.5859Z" fill="#BFA990"/>
<path d="M108.719 79.0859C107.631 77.2131 106.167 75.7336 103.953 75.3403C102.095 75.0032 100.106 75.6774 98.455 76.5576C98.3237 76.6138 98.2299 76.6887 98.1173 76.7449C97.986 75.6025 97.7795 74.4601 97.4042 73.3926C96.8788 71.782 96.0344 69.928 94.2894 69.3474C92.6756 68.823 90.8555 69.6096 89.4106 70.3213C86.4646 71.7821 84.0065 74.5163 82.8431 77.5689C82.2801 79.0671 82.2614 80.9961 82.8243 82.4944C82.9744 82.8689 83.1808 83.2809 83.4435 83.5431C83.4998 83.6368 83.5561 83.7491 83.6312 83.8427C85.5451 86.8204 87.4216 89.8356 89.1291 92.9444C89.3543 93.5437 89.6733 94.2367 90.0674 94.6674C90.0861 94.6861 90.0861 94.6861 90.1049 94.7236C90.7241 95.9034 91.3246 97.102 91.9063 98.3006C90.9493 99.2744 90.7804 101.166 90.7429 102.346C90.7054 103.451 90.7617 104.631 91.0994 105.679C91.3621 106.485 91.7186 107.665 92.5443 108.058C95.8843 109.687 100.313 107.309 102.865 105.117C106.224 102.233 108.55 98.413 109.808 94.1992C111.196 89.536 111.234 83.4307 108.719 79.0859ZM89.4106 79.5915C90.4239 79.0672 91.5122 78.6551 92.6569 78.5428C93.1072 78.4866 93.52 78.4866 93.9141 78.7113C93.8765 78.8799 93.8578 79.0859 93.839 79.1421C93.8015 79.2545 93.7827 79.3481 93.7827 79.3855C93.764 79.4792 93.7452 79.5541 93.7452 79.5915C93.6701 79.7976 93.5951 80.0035 93.52 80.2283C93.5013 80.2657 93.4825 80.2845 93.4825 80.3219C92.2628 81.5579 91.1932 82.9438 90.2738 84.3671C89.4669 83.1124 88.6037 81.8763 87.7031 80.6777C88.2285 80.2657 88.7914 79.9099 89.4106 79.5915ZM105.323 89.6671C104.91 90.6222 103.446 92.7009 102.396 93.7684C101.251 94.9483 99.6372 96.072 98.0235 96.8024C97.7983 96.896 97.5731 96.9709 97.348 97.0458C96.5599 95.1168 95.5841 93.2628 94.5708 91.4275C94.9649 90.8469 95.3402 90.2663 95.6592 89.6483C96.8226 88.5247 98.1361 87.5508 99.5997 86.7455C101.063 85.9402 102.996 85.2474 104.629 85.9777C104.816 86.0714 105.023 86.1837 105.191 86.2961C105.473 86.5208 105.529 86.5583 105.379 86.3897C105.473 86.4646 105.905 87.064 105.961 87.1014C105.998 87.195 106.055 87.3074 106.111 87.4197C106.111 87.4385 106.111 87.4385 106.111 87.4572C106.111 87.4759 106.111 87.476 106.111 87.476C106.055 87.7007 106.017 87.9441 105.942 88.1688C105.923 88.1876 105.923 88.2064 105.923 88.2251C105.717 88.7307 105.529 89.1989 105.323 89.6671Z" fill="#D6D7F0"/>
<path d="M57.5863 93.3181C57.5488 93.3369 57.53 93.3369 57.4925 93.3369C57.3611 93.3369 57.2673 93.2245 57.2861 93.1121C57.3048 92.6627 57.3611 92.1945 57.4925 91.745C57.53 91.6139 57.6426 91.5578 57.774 91.5765C57.9053 91.614 57.9616 91.7263 57.9428 91.8574C57.8303 92.2694 57.774 92.7001 57.7552 93.1309C57.7177 93.2058 57.6614 93.2807 57.5863 93.3181Z" fill="#110580"/>
<path d="M96.2409 92.9633C96.2221 92.982 96.1846 92.982 96.1658 92.982H95.828C95.0587 93.0007 94.2518 93.0008 93.3887 93.0008C93.2573 93.0008 93.1635 92.9071 93.1635 92.7572C93.1635 92.6449 93.2573 92.5326 93.4075 92.5326C94.2519 92.5326 95.0587 92.5325 95.828 92.5138H96.1658C96.2972 92.5138 96.391 92.6074 96.391 92.7385C96.391 92.8321 96.3347 92.9258 96.2409 92.9633ZM90.7054 92.8135C90.6678 92.8322 90.6303 92.8321 90.6116 92.8321C89.617 92.7385 88.7163 92.5887 87.8532 92.3827C87.7218 92.3452 87.6655 92.2329 87.6843 92.1018C87.7218 91.9894 87.8344 91.9145 87.9658 91.952C88.8102 92.158 89.6921 92.2891 90.6491 92.4014C90.7804 92.4202 90.8555 92.5325 90.8555 92.6449C90.8555 92.7198 90.7992 92.7947 90.7054 92.8135ZM85.3763 91.4838C85.32 91.5025 85.2637 91.5025 85.2074 91.4838C84.3442 91.1092 83.5186 90.6411 82.768 90.0979C82.6742 90.023 82.6367 89.8919 82.7117 89.7795C82.7868 89.6859 82.9181 89.6485 83.0307 89.7234C83.7625 90.2478 84.5319 90.6972 85.3763 91.0717C85.4889 91.1279 85.5452 91.259 85.4889 91.3714C85.4701 91.4276 85.4326 91.4651 85.3763 91.4838ZM80.9291 88.2813C80.8541 88.3188 80.7415 88.3001 80.6664 88.2252C80.0284 87.5135 79.4842 86.7644 79.0339 85.9403C78.9776 85.828 79.0151 85.6969 79.1277 85.6407C79.2403 85.5845 79.3717 85.622 79.428 85.7343C79.8596 86.5022 80.4037 87.2513 81.0042 87.9255C81.0792 88.0191 81.0792 88.1502 80.9854 88.2438C80.9666 88.2626 80.9479 88.2813 80.9291 88.2813ZM81.2669 85.0227C80.7978 85.21 80.3099 85.3598 79.8033 85.4722C79.6719 85.5096 79.5593 85.416 79.5218 85.3036C79.4843 85.1725 79.5593 85.0602 79.6907 85.0227C80.1785 84.9103 80.6476 84.7605 81.098 84.5919C81.492 84.4421 81.8673 84.2736 82.2051 84.0676C82.3177 84.0114 82.449 84.0488 82.5053 84.1612C82.5616 84.2736 82.5241 84.4047 82.4115 84.4609C82.055 84.6856 81.6609 84.8542 81.2669 85.0227ZM77.0824 85.8092C77.0637 85.8279 77.0261 85.828 77.0074 85.828C76.2005 85.8654 75.3373 85.8467 74.2302 85.7718C74.0989 85.7531 74.005 85.6594 74.0238 85.5283C74.0426 85.3972 74.1364 85.3036 74.2678 85.3224C75.3749 85.3973 76.2192 85.416 77.0074 85.3785C77.1387 85.3785 77.2325 85.4722 77.2325 85.6033C77.2325 85.6969 77.1762 85.7718 77.0824 85.8092ZM84.5319 82.7566C84.4568 82.7941 84.363 82.7753 84.3067 82.7191C84.2129 82.6442 84.1941 82.4945 84.2692 82.4008C84.5694 82.0263 84.8321 81.6329 85.0385 81.2209C85.2074 80.8651 85.3387 80.4719 85.4138 80.0598C85.4326 79.9288 85.5639 79.8538 85.6765 79.8726C85.7891 79.8913 85.8829 80.0224 85.8641 80.1347C85.7891 80.5842 85.639 81.0337 85.4513 81.4269C85.2449 81.8764 84.9447 82.3072 84.6257 82.7005C84.5882 82.7379 84.5694 82.7566 84.5319 82.7566ZM78.2646 83.5057C78.2458 83.5057 78.2458 83.5245 78.227 83.5245C78.0957 83.5619 77.9831 83.487 77.9456 83.356C77.6829 82.4008 77.6078 81.4457 77.6829 80.5468C77.7016 80.4157 77.8142 80.3408 77.9268 80.3408C78.0394 80.3408 78.1332 80.4718 78.1332 80.5842C78.0582 81.4457 78.152 82.3259 78.3771 83.2436C78.4334 83.3372 78.3771 83.4683 78.2646 83.5057ZM71.5657 85.547C71.5281 85.5658 71.5094 85.5658 71.4719 85.5658C71.1529 85.5471 70.8338 85.5284 70.4961 85.5096C69.8581 85.4722 69.2764 85.4722 68.7135 85.4722C68.5821 85.4722 68.4883 85.3785 68.4883 85.2474C68.4883 85.1163 68.5821 85.0227 68.7135 85.0227C69.2764 85.004 69.8769 85.0414 70.5149 85.0601C70.8339 85.0788 71.1716 85.0976 71.4906 85.1163C71.622 85.1351 71.7158 85.2474 71.697 85.3598C71.697 85.4347 71.6407 85.5096 71.5657 85.547ZM58.9748 89.5361C58.8997 89.5736 58.8246 89.5548 58.7683 89.4986C58.6745 89.4237 58.637 89.2926 58.7121 89.1802C59.2562 88.4311 59.9317 87.757 60.7198 87.1951C60.8137 87.1202 60.9638 87.1389 61.0388 87.2513C61.1139 87.3449 61.0951 87.4948 60.9825 87.5697C60.232 88.1128 59.594 88.7307 59.0686 89.4611C59.0498 89.4799 59.0123 89.5174 58.9748 89.5361ZM66.0489 85.6407C66.0302 85.6594 66.0114 85.6594 65.9926 85.6594C65.0356 85.8093 64.1725 86.034 63.3656 86.3149C63.2343 86.3524 63.1217 86.2961 63.0654 86.1838C63.0279 86.0714 63.0842 85.9403 63.1968 85.9029C64.0411 85.6032 64.9418 85.3785 65.9176 85.2287C66.0489 85.21 66.1615 85.3036 66.1803 85.416C66.199 85.5096 66.1428 85.622 66.0489 85.6407ZM85.4138 77.6065C85.3012 77.6439 85.1699 77.5877 85.1323 77.4754C84.8133 76.7824 84.3255 76.2581 83.6875 75.9771C83.5561 75.921 83.4248 75.8648 83.2747 75.8274C83.1433 75.7899 83.087 75.6588 83.1245 75.5464C83.1621 75.4153 83.2934 75.3592 83.406 75.3966C83.5749 75.4341 83.725 75.4903 83.8751 75.5652C84.6069 75.9023 85.1886 76.5015 85.5452 77.2881C85.6015 77.4192 85.5451 77.5503 85.4138 77.6065C85.4326 77.6065 85.4326 77.6065 85.4138 77.6065ZM78.8275 78.1496C78.7712 78.1683 78.6961 78.1683 78.6211 78.1308C78.5085 78.0746 78.471 77.9249 78.546 77.8125C79.0527 76.9698 79.7657 76.2768 80.5726 75.8274C80.6852 75.7712 80.8165 75.8086 80.8728 75.9022C80.9291 76.0146 80.8916 76.1457 80.7978 76.2019C80.0472 76.6139 79.3904 77.2694 78.9401 78.0372C78.9025 78.1121 78.8838 78.1308 78.8275 78.1496Z" fill="#110580"/>
<path d="M100.332 93.2811C100.275 93.2998 100.219 93.2998 100.163 93.2811C99.8439 93.15 99.4311 93.075 98.9244 93.0376C98.7931 93.0189 98.718 92.9065 98.718 92.7942C98.7368 92.6631 98.8494 92.5881 98.962 92.5881C99.5249 92.6443 99.9752 92.738 100.332 92.8691C100.444 92.9065 100.501 93.0376 100.463 93.1687C100.444 93.2062 100.388 93.2624 100.332 93.2811Z" fill="#110580"/>
<path d="M132.888 125.212L134.314 123.714C134.802 123.208 134.783 122.403 134.257 121.916L109.958 98.8994L106.768 102.252L131.068 125.268C131.593 125.736 132.419 125.718 132.888 125.212Z" fill="#F23C49"/>
<path d="M106.805 102.214L109.976 98.8616L104.141 95.8464L103.484 96.5394L106.805 102.214Z" fill="#EBDBCD"/>
<path d="M106.505 97.757L105.773 98.0567L105.529 98.5623L104.873 98.9181L103.503 96.5584L104.16 95.8655L106.505 97.0828V97.757Z" fill="#F23C49"/>
<path d="M161.147 78.2055C162.085 72.6246 158.37 67.3434 152.835 66.407C147.299 65.4706 142.045 69.2536 141.107 74.8345C140.169 80.4154 143.884 85.6966 149.419 86.633C154.955 87.5507 160.209 83.7864 161.147 78.2055Z" fill="#F23C49"/>
<path d="M165.707 81.1081L154.579 79.2353C153.435 79.048 152.647 77.9618 152.853 76.8007V76.7819C153.041 75.6395 154.129 74.8529 155.292 75.0589L166.42 76.9317C167.564 77.119 168.352 78.2052 168.146 79.3663V79.3851C167.94 80.5275 166.851 81.2954 165.707 81.1081Z" fill="#F23C49"/>
<path d="M158.614 77.7744C159.327 73.5981 156.55 69.6653 152.403 68.9536C148.275 68.2607 144.353 71.0699 143.64 75.2462C142.927 79.4225 145.704 83.3553 149.851 84.067C153.979 84.7599 157.901 81.9507 158.614 77.7744Z" fill="#D4BFA9"/>
<path d="M146.755 77.1567C146.623 76.6885 146.642 76.1641 147.036 75.8082C147.43 75.4524 147.899 75.546 148.312 75.7895C149.157 76.2764 150.076 77.0817 151.108 76.5573C152.028 76.0891 152.14 74.9842 152.196 74.0666C152.234 73.6171 152.253 73.0552 152.59 72.6994C152.966 72.3248 153.51 72.5496 153.866 72.8118C154.336 73.1489 154.786 72.3811 154.317 72.0253C153.36 71.3323 152.103 71.5009 151.558 72.5871C151.258 73.1864 151.296 73.8418 151.239 74.4973C151.202 74.9655 151.071 75.6585 150.526 75.7708C149.963 75.9019 149.382 75.3401 148.931 75.0779C148.406 74.7595 147.806 74.516 147.205 74.6658C146.004 74.9655 145.573 76.2765 145.873 77.3627C146.042 77.962 146.924 77.7185 146.755 77.1567Z" fill="#EBDBCD"/>
<path d="M148.312 80.5834C148.218 79.4972 149.794 79.7781 150.395 79.8905C151.221 80.0403 152.29 80.4335 153.097 80.0215C153.829 79.647 154.073 78.8042 154.185 78.0551C154.335 77.1749 154.579 76.3696 155.536 76.1262C156.099 75.9764 155.855 75.1149 155.292 75.2459C154.411 75.452 153.716 76.1261 153.454 77.0063C153.247 77.718 153.36 79.2724 152.29 79.2724C151.765 79.2724 151.221 79.1039 150.714 79.0102C150.207 78.9166 149.682 78.8043 149.156 78.8417C148.256 78.9166 147.299 79.572 147.411 80.5646C147.468 81.1639 148.387 81.1827 148.312 80.5834Z" fill="#EBDBCD"/>
</g>
<defs>
<clipPath id="clip0_572_870">
<rect width="110.895" height="112.364" fill="white" transform="translate(57.2837 16.1975)"/>
</clipPath>
</defs>
</svg>
