<svg xmlns="http://www.w3.org/2000/svg" width="22" height="17" viewBox="0 0 22 17" fill="none">
<path fill-rule="evenodd" clip-rule="evenodd" d="M10.9957 7.2813C10.4526 7.2813 10.0124 7.72153 10.0124 8.26457C10.0124 8.80762 10.4526 9.24785 10.9957 9.24785C11.5387 9.24785 11.979 8.80762 11.979 8.26457C11.979 7.72153 11.5387 7.2813 10.9957 7.2813ZM8.04586 8.26457C8.04586 6.63544 9.36654 5.31476 10.9957 5.31476C12.6248 5.31476 13.9455 6.63544 13.9455 8.26457C13.9455 9.89371 12.6248 11.2144 10.9957 11.2144C9.36654 11.2144 8.04586 9.89371 8.04586 8.26457Z" fill="#FF5757"/>
<path fill-rule="evenodd" clip-rule="evenodd" d="M2.30342 8.26461C4.75956 12.326 7.66512 14.1642 10.9957 14.1642C14.3262 14.1642 17.2318 12.326 19.6879 8.26461C17.2318 4.20318 14.3262 2.36498 10.9957 2.36498C7.66512 2.36498 4.75956 4.20318 2.30342 8.26461ZM0.309251 7.77675C3.03826 3.00125 6.5906 0.398438 10.9957 0.398438C15.4007 0.398438 18.9531 3.00125 21.6821 7.77675C21.8548 8.07905 21.8548 8.45017 21.6821 8.75247C18.9531 13.528 15.4007 16.1308 10.9957 16.1308C6.5906 16.1308 3.03826 13.528 0.309251 8.75247C0.1365 8.45017 0.1365 8.07905 0.309251 7.77675Z" fill="#FF5757"/>
</svg>