<svg xmlns="http://www.w3.org/2000/svg" width="21" height="21" viewBox="0 0 21 21" fill="none">
<g clip-path="url(#clip0_1238_12239)">
<path d="M20.3026 10.2769C19.5308 8.28033 18.1908 6.55372 16.4483 5.31043C14.7059 4.06715 12.6373 3.36169 10.4983 3.28125C8.35922 3.36169 6.29064 4.06715 4.54817 5.31043C2.8057 6.55372 1.46574 8.28033 0.693881 10.2769C0.641753 10.4211 0.641753 10.5789 0.693881 10.7231C1.46574 12.7197 2.8057 14.4463 4.54817 15.6896C6.29064 16.9329 8.35922 17.6383 10.4983 17.7188C12.6373 17.6383 14.7059 16.9329 16.4483 15.6896C18.1908 14.4463 19.5308 12.7197 20.3026 10.7231C20.3548 10.5789 20.3548 10.4211 20.3026 10.2769ZM10.4983 16.4062C7.02013 16.4062 3.34513 13.8272 2.01294 10.5C3.34513 7.17281 7.02013 4.59375 10.4983 4.59375C13.9764 4.59375 17.6514 7.17281 18.9836 10.5C17.6514 13.8272 13.9764 16.4062 10.4983 16.4062Z" fill="#5D6B98"/>
<path d="M10.499 6.5625C9.72026 6.5625 8.95899 6.79343 8.31147 7.22609C7.66395 7.65875 7.15927 8.2737 6.86125 8.99318C6.56323 9.71267 6.48525 10.5044 6.63718 11.2682C6.78911 12.032 7.16412 12.7336 7.71479 13.2842C8.26546 13.8349 8.96706 14.2099 9.73086 14.3618C10.4947 14.5138 11.2864 14.4358 12.0058 14.1378C12.7253 13.8398 13.3403 13.3351 13.7729 12.6876C14.2056 12.04 14.4365 11.2788 14.4365 10.5C14.4365 9.45571 14.0217 8.45419 13.2833 7.71577C12.5448 6.97734 11.5433 6.5625 10.499 6.5625ZM10.499 13.125C9.97985 13.125 9.47233 12.971 9.04065 12.6826C8.60897 12.3942 8.27252 11.9842 8.07384 11.5045C7.87516 11.0249 7.82318 10.4971 7.92446 9.98789C8.02575 9.47869 8.27576 9.01096 8.64287 8.64384C9.00998 8.27673 9.47771 8.02672 9.98691 7.92544C10.4961 7.82415 11.0239 7.87614 11.5036 8.07482C11.9832 8.2735 12.3932 8.60995 12.6816 9.04163C12.9701 9.47331 13.124 9.98082 13.124 10.5C13.124 11.1962 12.8475 11.8639 12.3552 12.3562C11.8629 12.8484 11.1952 13.125 10.499 13.125Z" fill="#5D6B98"/>
</g>
<defs>
<clipPath id="clip0_1238_12239">
<rect width="21" height="21" fill="white" transform="translate(-0.000488281)"/>
</clipPath>
</defs>
</svg>