<svg xmlns="http://www.w3.org/2000/svg" width="22" height="22" viewBox="0 0 22 22" fill="none">
<path d="M20.9014 10.8766C20.1371 8.89952 18.8102 7.18975 17.0848 5.9586C15.3593 4.72745 13.3109 4.02887 11.1927 3.94922C9.07457 4.02887 7.02617 4.72745 5.3007 5.9586C3.57524 7.18975 2.24835 8.89952 1.48403 10.8766C1.43241 11.0194 1.43241 11.1757 1.48403 11.3185C2.24835 13.2955 3.57524 15.0053 5.3007 16.2365C7.02617 17.4676 9.07457 18.1662 11.1927 18.2458C13.3109 18.1662 15.3593 17.4676 17.0848 16.2365C18.8102 15.0053 20.1371 13.2955 20.9014 11.3185C20.953 11.1757 20.953 11.0194 20.9014 10.8766ZM11.1927 16.9461C7.74854 16.9461 4.10941 14.3922 2.79022 11.0975C4.10941 7.80281 7.74854 5.24891 11.1927 5.24891C14.6369 5.24891 18.2761 7.80281 19.5952 11.0975C18.2761 14.3922 14.6369 16.9461 11.1927 16.9461Z" fill="#282823"/>
<path d="M11.196 7.19922C10.4248 7.19922 9.67094 7.4279 9.02974 7.85633C8.38854 8.28477 7.88879 8.89372 7.59368 9.60618C7.29856 10.3186 7.22135 11.1026 7.3718 11.859C7.52224 12.6153 7.89359 13.3101 8.43889 13.8554C8.98419 14.4007 9.67893 14.772 10.4353 14.9225C11.1916 15.0729 11.9756 14.9957 12.6881 14.7006C13.4005 14.4055 14.0095 13.9057 14.4379 13.2645C14.8664 12.6233 15.095 11.8695 15.095 11.0983C15.095 10.0642 14.6842 9.07245 13.953 8.34123C13.2218 7.61001 12.2301 7.19922 11.196 7.19922ZM11.196 13.6977C10.6818 13.6977 10.1793 13.5452 9.75181 13.2596C9.32435 12.974 8.99118 12.568 8.79443 12.093C8.59769 11.6181 8.54622 11.0954 8.64652 10.5912C8.74681 10.0869 8.99438 9.62378 9.35791 9.26025C9.72144 8.89672 10.1846 8.64916 10.6888 8.54886C11.1931 8.44856 11.7157 8.50004 12.1907 8.69678C12.6657 8.89352 13.0716 9.22669 13.3573 9.65416C13.6429 10.0816 13.7953 10.5842 13.7953 11.0983C13.7953 11.7877 13.5215 12.4489 13.034 12.9363C12.5465 13.4238 11.8854 13.6977 11.196 13.6977Z" fill="#282823"/>
</svg>