<svg width="20" height="20" viewBox="0 0 20 20" fill="none" xmlns="http://www.w3.org/2000/svg">
<path fill-rule="evenodd" clip-rule="evenodd" d="M11.6667 4.16667C11.2064 4.16667 10.8333 4.53976 10.8333 5C10.8333 5.46024 11.2064 5.83333 11.6667 5.83333C12.1269 5.83333 12.5 5.46024 12.5 5C12.5 4.53976 12.1269 4.16667 11.6667 4.16667ZM9.16668 5C9.16668 3.61929 10.286 2.5 11.6667 2.5C13.0474 2.5 14.1667 3.61929 14.1667 5C14.1667 6.38071 13.0474 7.5 11.6667 7.5C10.286 7.5 9.16668 6.38071 9.16668 5Z" fill="#FF5757"/>
<path fill-rule="evenodd" clip-rule="evenodd" d="M2.5 4.99997C2.5 4.53973 2.8731 4.16664 3.33333 4.16664H10C10.4602 4.16664 10.8333 4.53976 10.8333 5C10.8333 5.46024 10.4602 5.8333 10 5.8333H3.33333C2.8731 5.8333 2.5 5.46021 2.5 4.99997Z" fill="#FF5757"/>
<path fill-rule="evenodd" clip-rule="evenodd" d="M12.5 5C12.5 4.53976 12.8731 4.16664 13.3333 4.16664H16.6667C17.1269 4.16664 17.5 4.53973 17.5 4.99997C17.5 5.46021 17.1269 5.8333 16.6667 5.8333H13.3333C12.8731 5.8333 12.5 5.46024 12.5 5Z" fill="#FF5757"/>
<path fill-rule="evenodd" clip-rule="evenodd" d="M6.66668 9.16667C6.20645 9.16667 5.83335 9.53976 5.83335 10C5.83335 10.4602 6.20645 10.8333 6.66668 10.8333C7.12692 10.8333 7.50002 10.4602 7.50002 10C7.50002 9.53976 7.12692 9.16667 6.66668 9.16667ZM4.16668 10C4.16668 8.61929 5.28597 7.5 6.66668 7.5C8.0474 7.5 9.16668 8.61929 9.16668 10C9.16668 11.3807 8.0474 12.5 6.66668 12.5C5.28597 12.5 4.16668 11.3807 4.16668 10Z" fill="#FF5757"/>
<path fill-rule="evenodd" clip-rule="evenodd" d="M2.5 9.99997C2.5 9.53973 2.8731 9.16664 3.33333 9.16664H5C5.46024 9.16664 5.83335 9.53976 5.83335 10C5.83335 10.4602 5.46024 10.8333 5 10.8333H3.33333C2.8731 10.8333 2.5 10.4602 2.5 9.99997Z" fill="#FF5757"/>
<path fill-rule="evenodd" clip-rule="evenodd" d="M7.50002 10C7.50002 9.53976 7.8731 9.16664 8.33333 9.16664H16.6667C17.1269 9.16664 17.5 9.53973 17.5 9.99997C17.5 10.4602 17.1269 10.8333 16.6667 10.8333H8.33333C7.8731 10.8333 7.50002 10.4602 7.50002 10Z" fill="#FF5757"/>
<path fill-rule="evenodd" clip-rule="evenodd" d="M14.1667 14.1667C13.7064 14.1667 13.3334 14.5398 13.3334 15C13.3334 15.4602 13.7064 15.8333 14.1667 15.8333C14.6269 15.8333 15 15.4602 15 15C15 14.5398 14.6269 14.1667 14.1667 14.1667ZM11.6667 15C11.6667 13.6193 12.786 12.5 14.1667 12.5C15.5474 12.5 16.6667 13.6193 16.6667 15C16.6667 16.3807 15.5474 17.5 14.1667 17.5C12.786 17.5 11.6667 16.3807 11.6667 15Z" fill="#FF5757"/>
<path fill-rule="evenodd" clip-rule="evenodd" d="M2.5 15C2.5 14.5397 2.8731 14.1666 3.33333 14.1666H12.5C12.9602 14.1666 13.3334 14.5398 13.3334 15C13.3334 15.4602 12.9602 15.8333 12.5 15.8333H3.33333C2.8731 15.8333 2.5 15.4602 2.5 15Z" fill="#FF5757"/>
<path fill-rule="evenodd" clip-rule="evenodd" d="M15 15C15 14.5398 15.3731 14.1666 15.8333 14.1666H16.6667C17.1269 14.1666 17.5 14.5397 17.5 15C17.5 15.4602 17.1269 15.8333 16.6667 15.8333H15.8333C15.3731 15.8333 15 15.4602 15 15Z" fill="#FF5757"/>
</svg>
