<svg width="25" height="25" viewBox="0 0 25 25" fill="none" xmlns="http://www.w3.org/2000/svg">
<path d="M8.58943 11.1945C8.58943 10.9293 8.69479 10.6749 8.88232 10.4874C9.06986 10.2998 9.32421 10.1945 9.58943 10.1945H15.5894C15.8546 10.1945 16.109 10.2998 16.2965 10.4874C16.4841 10.6749 16.5894 10.9293 16.5894 11.1945C16.5894 11.4597 16.4841 11.7141 16.2965 11.9016C16.109 12.0891 15.8546 12.1945 15.5894 12.1945H9.58943C9.32421 12.1945 9.06986 12.0891 8.88232 11.9016C8.69479 11.7141 8.58943 11.4597 8.58943 11.1945ZM9.58943 14.1945C9.32421 14.1945 9.06986 14.2998 8.88232 14.4874C8.69479 14.6749 8.58943 14.9293 8.58943 15.1945C8.58943 15.4597 8.69479 15.7141 8.88232 15.9016C9.06986 16.0891 9.32421 16.1945 9.58943 16.1945H13.5894C13.8546 16.1945 14.109 16.0891 14.2965 15.9016C14.4841 15.7141 14.5894 15.4597 14.5894 15.1945C14.5894 14.9293 14.4841 14.6749 14.2965 14.4874C14.109 14.2998 13.8546 14.1945 13.5894 14.1945H9.58943ZM2.58943 12.1945C2.58993 10.0021 3.31091 7.87061 4.64141 6.12809C5.97191 4.38556 7.83819 3.12857 9.95303 2.55057C12.0679 1.97256 14.314 2.10558 16.3459 2.92915C18.3777 3.75271 20.0826 5.22118 21.1981 7.10856C22.3137 8.99594 22.7781 11.1976 22.5198 13.3748C22.2615 15.5519 21.295 17.5838 19.7688 19.1578C18.2427 20.7318 16.2416 21.7607 14.0734 22.0861C11.9053 22.4114 9.69035 22.0152 7.76943 20.9585L3.88143 22.1425C3.70801 22.1953 3.52349 22.2 3.34761 22.1561C3.17174 22.1121 3.01111 22.0212 2.88292 21.893C2.75473 21.7648 2.6638 21.6042 2.61986 21.4283C2.57591 21.2524 2.5806 21.0679 2.63343 20.8945L3.81743 17.0005C3.00934 15.5277 2.5869 13.8744 2.58943 12.1945ZM12.5894 4.19449C11.1693 4.19437 9.77474 4.57228 8.54899 5.2894C7.32323 6.00653 6.31045 7.03701 5.61468 8.27502C4.91892 9.51302 4.56524 10.9139 4.58997 12.3338C4.61471 13.7537 5.01696 15.1415 5.75543 16.3545C5.82873 16.475 5.87572 16.6096 5.8933 16.7496C5.91088 16.8895 5.89865 17.0316 5.85743 17.1665L5.09143 19.6845L7.60543 18.9185C7.74075 18.8773 7.88327 18.8652 8.02359 18.8832C8.1639 18.9011 8.29882 18.9486 8.41943 19.0225C9.47379 19.6662 10.6629 20.057 11.8936 20.1643C13.1242 20.2715 14.363 20.0923 15.5128 19.6407C16.6627 19.1891 17.6923 18.4773 18.521 17.5612C19.3497 16.6451 19.955 15.5495 20.2894 14.3603C20.6239 13.1711 20.6784 11.9206 20.4486 10.7068C20.2189 9.493 19.7112 8.34891 18.9653 7.36417C18.2194 6.37943 17.2556 5.58081 16.1495 5.03088C15.0433 4.48096 13.8248 4.19469 12.5894 4.19449Z" fill="#FF5757"/>
</svg>
