<svg width="18" height="13" viewBox="0 0 18 13" fill="none" xmlns="http://www.w3.org/2000/svg">
<path d="M1.61803 12.2472H16.9441C17.4709 12.2472 17.9019 11.8162 17.9019 11.2893C17.9019 10.7625 17.4709 10.3315 16.9441 10.3315H1.61803C1.0912 10.3315 0.660156 10.7625 0.660156 11.2893C0.660156 11.8162 1.0912 12.2472 1.61803 12.2472ZM1.61803 7.45782H16.9441C17.4709 7.45782 17.9019 7.02678 17.9019 6.49995C17.9019 5.97311 17.4709 5.54207 16.9441 5.54207H1.61803C1.0912 5.54207 0.660156 5.97311 0.660156 6.49995C0.660156 7.02678 1.0912 7.45782 1.61803 7.45782ZM0.660156 1.71056C0.660156 2.23739 1.0912 2.66844 1.61803 2.66844H16.9441C17.4709 2.66844 17.9019 2.23739 17.9019 1.71056C17.9019 1.18373 17.4709 0.752686 16.9441 0.752686H1.61803C1.0912 0.752686 0.660156 1.18373 0.660156 1.71056Z" fill="#A5A5A5"/>
</svg>
