<svg xmlns="http://www.w3.org/2000/svg" width="11" height="14" viewBox="0 0 11 14" fill="none">
<path fill-rule="evenodd" clip-rule="evenodd" d="M5.21423 0.832428C2.36469 0.904062 0.0716339 3.19712 0 6.04665C0.048345 6.88916 0.280709 7.71084 0.680746 8.45389L0.721301 8.52631C3.87301 13.5783 4.81447 13.5783 5.21423 13.5783C5.83993 13.5783 6.51489 13.138 8.11102 10.893C8.94819 9.73427 9.66659 8.57555 9.69556 8.52341L9.73612 8.45389C10.1402 7.71178 10.3765 6.89005 10.4285 6.04665C10.3568 3.19712 8.06376 0.904062 5.21423 0.832428ZM8.97995 8.07441C8.97995 8.07441 6.08315 12.7093 5.21412 12.7093C4.34508 12.7093 1.44829 8.07441 1.44829 8.07441C1.11152 7.44805 0.9139 6.75639 0.868929 6.04665C0.868929 3.64687 2.81434 1.70147 5.21412 1.70147C7.6139 1.70147 9.55931 3.64687 9.55931 6.04665C9.51165 6.75704 9.31105 7.44874 8.97126 8.07441H8.97995Z" fill="#FF5757"/>
<path fill-rule="evenodd" clip-rule="evenodd" d="M5.21392 3.43954C3.93403 3.43954 2.89648 4.4771 2.89648 5.75698C2.89648 7.03686 3.93403 8.07441 5.21392 8.07441C6.4938 8.07441 7.53135 7.03686 7.53135 5.75698C7.53135 4.4771 6.4938 3.43954 5.21392 3.43954ZM5.21402 7.20536C4.41409 7.20536 3.76562 6.55689 3.76562 5.75697C3.76562 4.95704 4.41409 4.30857 5.21402 4.30857C6.01394 4.30857 6.66241 4.95704 6.66241 5.75697C6.66241 6.55689 6.01394 7.20536 5.21402 7.20536Z" fill="#FF5757"/>
</svg>