<svg width="52" height="52" viewBox="0 0 52 52" fill="none" xmlns="http://www.w3.org/2000/svg">
<mask id="mask0_3219_6286" style="mask-type:luminance" maskUnits="userSpaceOnUse" x="5" y="4" width="42" height="44">
<path d="M44.1234 36.9063L31.6495 10.1549C30.9405 8.63458 29.6566 7.45815 28.0802 6.88444C26.5038 6.31073 24.764 6.38675 23.2437 7.09577C21.7233 7.80478 20.5469 9.08872 19.9732 10.6651C19.3995 12.2415 19.4755 13.9813 20.1845 15.5016L32.6594 42.252C33.3683 43.7723 34.6521 44.9488 36.2284 45.5226C37.8047 46.0964 39.5444 46.0205 41.0648 45.3116C42.5851 44.6028 43.7616 43.319 44.3354 41.7427C44.9092 40.1664 44.8323 38.4267 44.1234 36.9063Z" fill="#555555" stroke="white" stroke-width="3.86525"/>
<path d="M25.2334 28.877L18.9949 42.2521C18.6439 43.005 18.148 43.6813 17.5356 44.2424C16.9231 44.8036 16.2062 45.2387 15.4256 45.5227C14.645 45.8068 13.8162 45.9343 12.9863 45.8981C12.1565 45.8618 11.3419 45.6624 10.5891 45.3113C9.06893 44.6023 7.89265 43.3186 7.31896 41.7424C6.74527 40.1662 6.82114 38.4267 7.5299 36.9065L19.8952 10.3912" stroke="white" stroke-width="3.86525" stroke-linecap="round"/>
<path d="M10.5894 45.3106C13.7553 46.7869 17.5185 45.4172 18.9948 42.2513C20.4711 39.0854 19.1014 35.3222 15.9355 33.8459C12.7696 32.3696 9.00636 33.7393 7.53009 36.9052C6.05381 40.0711 7.42351 43.8343 10.5894 45.3106Z" fill="#555555" stroke="white" stroke-width="3.86525"/>
</mask>
<g mask="url(#mask0_3219_6286)">
<path d="M0.527344 0.903809H51.127V51.5034H0.527344V0.903809Z" fill="#FFA217"/>
</g>
</svg>
