<svg width="52" height="52" viewBox="0 0 52 52" fill="none" xmlns="http://www.w3.org/2000/svg">
<g clip-path="url(#clip0_3219_6263)">
<path d="M34.6263 27.8743V34.6378H27.8797V27.8743H34.6263ZM34.6263 17.7611V24.501H27.8797V17.7611H34.6263ZM24.5064 17.7611H17.7598V24.501H24.5064V17.7611ZM24.5064 27.8743H17.7598V34.6378H24.5064V27.8743Z" fill="#00ACA5"/>
<path fill-rule="evenodd" clip-rule="evenodd" d="M4.26562 5.96377C4.26563 4.62178 4.79873 3.33476 5.74765 2.38584C6.69658 1.43691 7.9836 0.903809 9.32559 0.903809L37.0103 0.903809L48.1186 12.0121V46.4435C48.1186 47.7854 47.5855 49.0725 46.6366 50.0214C45.6877 50.9703 44.4007 51.5034 43.0587 51.5034H9.32559C7.9836 51.5034 6.69658 50.9703 5.74765 50.0214C4.79873 49.0725 4.26563 47.7854 4.26562 46.4435V5.96377ZM37.9987 14.3869H14.3855V38.0102H37.9987V14.3869Z" fill="#00ACA5"/>
</g>
<defs>
<clipPath id="clip0_3219_6263">
<rect width="50.5996" height="50.5996" fill="white" transform="translate(0.894531 0.903809)"/>
</clipPath>
</defs>
</svg>
