<svg xmlns="http://www.w3.org/2000/svg" width="20" height="20" viewBox="0 0 20 20" fill="none">
<path fill-rule="evenodd" clip-rule="evenodd" d="M0.833496 10.0002C0.833496 4.93755 4.93755 0.833496 10.0002 0.833496C15.0628 0.833496 19.1668 4.93755 19.1668 10.0002C19.1668 15.0628 15.0628 19.1668 10.0002 19.1668C4.93755 19.1668 0.833496 15.0628 0.833496 10.0002Z" fill="#08AD36"/>
<path fill-rule="evenodd" clip-rule="evenodd" d="M14.4257 6.70264C14.7512 7.02807 14.7512 7.55571 14.4257 7.88115L9.25316 13.2978C8.92772 13.6232 8.40008 13.6232 8.07464 13.2978L5.57464 10.7978C5.24921 10.4724 5.24921 9.94474 5.57464 9.6193C5.90008 9.29387 6.42772 9.29387 6.75316 9.6193L8.6639 11.53L13.2472 6.70264C13.5727 6.3772 14.1003 6.3772 14.4257 6.70264Z" fill="white"/>
</svg>