<svg xmlns="http://www.w3.org/2000/svg" width="15" height="15" viewBox="0 0 15 15" fill="none">
<g clip-path="url(#clip0_349_9829)">
<path d="M12.6728 6.46169C12.6728 10.5332 7.438 14.023 7.438 14.023C7.438 14.023 2.20325 10.5332 2.20325 6.46169C2.20325 5.07334 2.75476 3.74186 3.73647 2.76015C4.71818 1.77845 6.04966 1.22693 7.438 1.22693C8.82635 1.22693 10.1578 1.77845 11.1395 2.76015C12.1212 3.74186 12.6728 5.07334 12.6728 6.46169Z" stroke="#64748B" stroke-width="0.872459" stroke-linecap="round" stroke-linejoin="round"/>
<path d="M7.43803 8.20663C8.40173 8.20663 9.18295 7.42541 9.18295 6.46172C9.18295 5.49802 8.40173 4.7168 7.43803 4.7168C6.47434 4.7168 5.69312 5.49802 5.69312 6.46172C5.69312 7.42541 6.47434 8.20663 7.43803 8.20663Z" stroke="#64748B" stroke-width="0.872459" stroke-linecap="round" stroke-linejoin="round"/>
</g>
<defs>
<clipPath id="clip0_349_9829">
<rect width="13.9594" height="13.9594" fill="white" transform="translate(0.459351 0.645264)"/>
</clipPath>
</defs>
</svg>