<svg width="27" height="19" viewBox="0 0 27 19" fill="none" xmlns="http://www.w3.org/2000/svg">
<g id="Group">
<g id="Group_2">
<g id="Group_3">
<path id="Vector" fill-rule="evenodd" clip-rule="evenodd" d="M18.8125 10.647C20.3884 11.7167 21.4926 13.1661 21.4926 15.0985V18.5493H24.9434C25.5761 18.5493 26.0937 18.0317 26.0937 17.399V15.0985C26.0937 12.5909 21.9872 11.1071 18.8125 10.647Z" fill="white"/>
</g>
<g id="Group_4">
<path id="Vector_2" d="M9.99168 9.34676C12.5328 9.34676 14.5927 7.2868 14.5927 4.74571C14.5927 2.20462 12.5328 0.144653 9.99168 0.144653C7.45059 0.144653 5.39062 2.20462 5.39062 4.74571C5.39062 7.2868 7.45059 9.34676 9.99168 9.34676Z" fill="white"/>
</g>
<g id="Group_5">
<path id="Vector_3" fill-rule="evenodd" clip-rule="evenodd" d="M16.8931 9.34676C19.4352 9.34676 21.4942 7.28779 21.4942 4.74571C21.4942 2.20363 19.4352 0.144653 16.8931 0.144653C16.3525 0.144653 15.8464 0.259679 15.3633 0.420716C16.318 1.60549 16.8931 3.11233 16.8931 4.74571C16.8931 6.37908 16.318 7.88593 15.3633 9.0707C15.8464 9.23174 16.3525 9.34676 16.8931 9.34676Z" fill="white"/>
</g>
<g id="Group_6">
<path id="Vector_4" fill-rule="evenodd" clip-rule="evenodd" d="M9.99117 10.496C6.91997 10.496 0.789062 12.0373 0.789062 15.097V17.3976C0.789062 18.0302 1.30668 18.5478 1.93933 18.5478H18.043C18.6757 18.5478 19.1933 18.0302 19.1933 17.3976V15.097C19.1933 12.0373 13.0624 10.496 9.99117 10.496Z" fill="white"/>
</g>
</g>
</g>
</svg>
