<svg width="225" height="145" viewBox="0 0 225 145" fill="none" xmlns="http://www.w3.org/2000/svg">
<rect width="224.728" height="143.944" transform="translate(0 0.831055)" fill="#F5F4F8"/>
<g clip-path="url(#clip0_572_807)">
<path d="M97.0478 105.999C97.0072 105.999 96.9667 105.979 96.9261 105.939C96.8856 105.899 96.845 105.878 96.8248 105.838C96.8045 105.798 96.7842 105.757 96.7842 105.717C96.7842 105.677 96.7842 105.616 96.7842 105.576C96.8045 105.535 96.8248 105.495 96.8451 105.455C97.2505 104.89 97.7168 104.366 98.2439 103.902C98.2844 103.861 98.325 103.841 98.3656 103.821C98.4061 103.801 98.4669 103.781 98.5074 103.801C98.548 103.801 98.6088 103.801 98.6494 103.821C98.6899 103.841 98.7305 103.861 98.771 103.902C98.8116 103.942 98.8318 103.982 98.8521 104.023C98.8724 104.063 98.8724 104.124 98.8724 104.164C98.8724 104.204 98.8521 104.265 98.8318 104.305C98.8115 104.345 98.771 104.386 98.7304 104.406C98.2439 104.85 97.8182 105.334 97.433 105.858C97.3924 105.919 97.3316 105.959 97.2708 105.979C97.1897 106.02 97.1086 106.02 97.0478 105.999Z" fill="#110580"/>
<path d="M121.295 107.875C121.254 107.875 121.194 107.835 121.153 107.815C120.748 107.512 120.362 107.209 119.977 106.927C119.207 106.362 118.477 105.858 117.767 105.394C117.727 105.374 117.686 105.334 117.646 105.293C117.625 105.253 117.585 105.213 117.585 105.172C117.565 105.132 117.565 105.071 117.585 105.031C117.585 104.991 117.605 104.93 117.625 104.89C117.646 104.849 117.686 104.809 117.727 104.789C117.767 104.769 117.808 104.749 117.869 104.728C117.909 104.728 117.97 104.728 118.011 104.728C118.051 104.749 118.112 104.769 118.132 104.789C118.862 105.253 119.612 105.777 120.383 106.342C120.788 106.645 121.173 106.947 121.558 107.23C121.619 107.29 121.66 107.351 121.68 107.431C121.7 107.512 121.68 107.593 121.64 107.653C121.599 107.734 121.538 107.774 121.477 107.815C121.437 107.875 121.356 107.895 121.295 107.875ZM101.974 102.389C101.893 102.369 101.833 102.328 101.792 102.268C101.751 102.207 101.711 102.147 101.711 102.066C101.711 101.985 101.731 101.905 101.772 101.864C101.812 101.804 101.873 101.743 101.934 101.723C103.292 101.239 104.711 100.957 106.151 100.896C106.252 100.896 106.333 100.916 106.394 100.997C106.475 101.057 106.516 101.138 106.516 101.239C106.516 101.34 106.495 101.421 106.435 101.481C106.374 101.562 106.272 101.602 106.191 101.602C104.833 101.662 103.475 101.925 102.197 102.389C102.116 102.389 102.056 102.409 101.974 102.389ZM114.22 103.417C114.199 103.417 114.159 103.397 114.138 103.397C112.902 102.812 111.604 102.368 110.266 102.046C110.226 102.046 110.185 102.026 110.145 101.985C110.104 101.965 110.084 101.925 110.063 101.884C110.043 101.844 110.023 101.804 110.003 101.763C110.003 101.723 110.003 101.662 110.003 101.622C110.023 101.541 110.084 101.461 110.165 101.42C110.246 101.38 110.327 101.36 110.428 101.38C111.807 101.723 113.165 102.187 114.443 102.792C114.524 102.832 114.585 102.893 114.605 102.974C114.645 103.054 114.645 103.135 114.625 103.216C114.605 103.296 114.544 103.377 114.463 103.397C114.382 103.438 114.301 103.437 114.22 103.417Z" fill="#110580"/>
<path d="M147.265 38.347C147.042 38.2664 146.819 38.2865 146.616 38.3671C146.414 38.4478 146.231 38.6092 146.13 38.8109L138.223 53.9994C138.385 54.0801 138.568 54.1204 138.73 54.1406C138.892 54.1406 139.075 54.1204 139.237 54.0397L162.997 44.1158C163.159 44.0553 163.301 43.9342 163.423 43.8132C163.544 43.672 163.626 43.5309 163.686 43.3493L147.265 38.347Z" fill="#D5D5ED"/>
<path d="M156.793 27.2533C156.753 27.2331 156.732 27.2331 156.692 27.2129C156.732 27.2331 156.753 27.2533 156.793 27.2533Z" fill="white"/>
<path d="M147.569 42.1997C147.772 42.2401 147.995 42.2199 148.198 42.1392C148.4 42.0586 148.562 41.9174 148.684 41.7358L156.773 27.2534C156.753 27.2534 156.712 27.2332 156.692 27.213H156.672H156.652C156.57 27.1928 156.489 27.1726 156.429 27.1726L156.53 27.1928C156.327 27.1726 156.104 27.1928 155.901 27.2735L132.141 37.1974C131.857 37.3185 131.634 37.5404 131.513 37.8227L147.569 42.1997Z" fill="white"/>
<path d="M144.832 41.4535L131.513 37.8228C131.493 37.8631 131.472 37.9035 131.452 37.9438C131.351 38.2464 131.371 38.5691 131.493 38.8515L137.615 53.2935C137.737 53.5961 137.98 53.8382 138.264 53.9794L144.832 41.4535Z" fill="#E8E8F7"/>
<path d="M163.605 43.5715L163.585 43.6118L163.605 43.5715Z" fill="#E8E8F7"/>
<path d="M163.585 43.6116C163.544 43.6721 163.504 43.7528 163.443 43.8133C163.504 43.7528 163.544 43.6923 163.585 43.6116Z" fill="#E8E8F7"/>
<path d="M156.773 27.2532L150.063 39.2547L163.707 43.3493C163.686 43.43 163.646 43.4905 163.605 43.5712C163.707 43.3896 163.747 43.1879 163.768 43.0063C163.788 42.8046 163.747 42.6029 163.666 42.4214L157.564 27.9792C157.483 27.8179 157.381 27.6566 157.26 27.5355C157.098 27.4145 156.935 27.3137 156.773 27.2532Z" fill="#E8E8F7"/>
<path d="M156.915 27.3136C156.875 27.2934 156.834 27.2934 156.793 27.2732C156.834 27.2934 156.875 27.2934 156.915 27.3136Z" fill="#E8E8F7"/>
<path d="M81.9238 101.32C81.7413 101.098 81.4777 100.937 81.1736 100.876C80.8695 100.816 80.5655 100.876 80.3222 101.037L60.4949 112.373C60.6165 112.575 60.7788 112.756 60.9612 112.898C61.164 113.039 61.3869 113.12 61.6099 113.16L95.365 119.05C95.6082 119.09 95.8515 119.07 96.0745 119.009C96.2975 118.949 96.5205 118.828 96.703 118.687L81.9238 101.32Z" fill="#D5D5ED"/>
<path d="M100.616 95.7324C100.576 95.6921 100.555 95.6518 100.535 95.6316C100.575 95.6518 100.576 95.6921 100.616 95.7324Z" fill="white"/>
<path d="M79.4912 105.838C79.694 106.039 79.9575 106.181 80.2414 106.221C80.5252 106.281 80.8089 106.241 81.0725 106.12L100.616 95.7322C100.596 95.6919 100.575 95.6515 100.535 95.6313L100.515 95.6112L100.494 95.591C100.413 95.5103 100.332 95.4498 100.251 95.3893C100.292 95.4094 100.332 95.4498 100.373 95.4901C100.15 95.3086 99.8862 95.1876 99.6024 95.1271L65.827 89.2372C65.4216 89.1767 64.9958 89.2574 64.6511 89.4793L79.4912 105.838Z" fill="white"/>
<path d="M76.9573 103.034L64.6717 89.4392C64.6109 89.4796 64.5704 89.4997 64.5096 89.5401C64.1852 89.8023 63.9622 90.1654 63.8811 90.589L60.2522 111.123C60.1711 111.546 60.2522 111.99 60.4752 112.353L76.9573 103.034Z" fill="#E8E8F7"/>
<path d="M96.4395 118.868L96.3787 118.908L96.4395 118.868Z" fill="#E8E8F7"/>
<path d="M96.3788 118.888C96.2774 118.929 96.1761 118.969 96.0747 119.009C96.1963 118.989 96.2774 118.949 96.3788 118.888Z" fill="#E8E8F7"/>
<path d="M100.616 95.7324L84.4175 104.345L96.7031 118.687C96.622 118.747 96.541 118.828 96.4396 118.868C96.6829 118.727 96.8856 118.545 97.0275 118.344C97.1897 118.122 97.2911 117.88 97.3316 117.618L100.94 97.0838C100.981 96.8417 100.981 96.5997 100.92 96.3778C100.879 96.1358 100.758 95.914 100.616 95.7324Z" fill="#E8E8F7"/>
<path d="M100.717 95.8736C100.677 95.813 100.657 95.7728 100.616 95.7324C100.657 95.7728 100.697 95.813 100.717 95.8736Z" fill="#E8E8F7"/>
<path d="M80.1606 87.8659C80.1404 87.9062 80.0998 87.9465 80.0593 87.9667C79.9782 88.0071 79.8971 88.0272 79.7957 88.007C79.6944 87.9868 79.6335 87.9264 79.5727 87.8659C79.1875 87.2809 78.8632 86.6556 78.6199 86.0101C78.5997 85.9698 78.5996 85.9294 78.5793 85.8689C78.5793 85.8285 78.5794 85.7681 78.5996 85.7278C78.6199 85.6874 78.6402 85.6471 78.6807 85.6067C78.7213 85.5664 78.7618 85.5462 78.8024 85.526C78.8429 85.5059 78.9037 85.5059 78.9442 85.5059C78.9848 85.5059 79.0456 85.5261 79.0862 85.5462C79.1267 85.5664 79.1673 85.6067 79.2078 85.6269C79.2281 85.6672 79.2686 85.7076 79.2686 85.7479C79.4916 86.3531 79.7957 86.9379 80.1606 87.4825C80.2012 87.5431 80.2215 87.6036 80.2012 87.6642C80.2215 87.7448 80.2012 87.8053 80.1606 87.8659Z" fill="#110580"/>
<path d="M127.783 53.6363C127.762 53.6766 127.742 53.6968 127.701 53.717L127.296 54.0195C126.343 54.7053 125.35 55.4315 124.295 56.1576C124.255 56.1778 124.214 56.1979 124.174 56.2181C124.133 56.2181 124.072 56.2181 124.032 56.2181C123.991 56.2181 123.951 56.198 123.91 56.1778C123.87 56.1576 123.829 56.1173 123.809 56.077C123.789 56.0366 123.768 55.9963 123.748 55.9559C123.748 55.9156 123.748 55.8752 123.748 55.8147C123.748 55.7743 123.768 55.7341 123.809 55.6937C123.829 55.6534 123.87 55.6332 123.91 55.5929C124.964 54.8667 125.958 54.1608 126.911 53.475L127.316 53.1724C127.357 53.1522 127.397 53.132 127.438 53.1118C127.478 53.0917 127.519 53.0917 127.58 53.1118C127.62 53.1118 127.661 53.132 127.701 53.1522C127.742 53.1724 127.782 53.2127 127.803 53.2531C127.843 53.3136 127.864 53.3741 127.864 53.4548C127.843 53.5153 127.823 53.5959 127.783 53.6363ZM120.808 58.2957C120.788 58.3361 120.748 58.3764 120.687 58.3966C119.45 59.1025 118.173 59.7077 116.875 60.2321C116.835 60.2523 116.774 60.2724 116.734 60.2724C116.693 60.2724 116.632 60.2724 116.592 60.2522C116.551 60.232 116.51 60.2119 116.47 60.1715C116.429 60.1312 116.409 60.0908 116.389 60.0505C116.369 60.0102 116.369 59.9699 116.369 59.9094C116.369 59.869 116.389 59.8085 116.409 59.7681C116.429 59.7278 116.45 59.6874 116.49 59.6471C116.531 59.6068 116.571 59.5866 116.612 59.5866C117.889 59.0824 119.146 58.4773 120.342 57.7915C120.383 57.7713 120.423 57.7511 120.464 57.7511C120.504 57.7511 120.565 57.7511 120.606 57.7713C120.646 57.7914 120.687 57.8116 120.727 57.8317C120.768 57.8519 120.788 57.8922 120.808 57.9326C120.849 57.9931 120.849 58.0537 120.849 58.1142C120.849 58.1949 120.829 58.2554 120.808 58.2957ZM113.023 61.3415C113.003 61.3818 112.963 61.4222 112.922 61.4424C112.882 61.4625 112.841 61.4827 112.8 61.5028C111.402 61.7852 109.982 61.9264 108.563 61.9264C108.462 61.9264 108.381 61.8861 108.32 61.8256C108.259 61.7651 108.219 61.6642 108.219 61.5835C108.219 61.5431 108.219 61.5029 108.239 61.4424C108.259 61.402 108.28 61.3617 108.32 61.3415C108.361 61.3012 108.401 61.2809 108.442 61.2607C108.482 61.2406 108.523 61.2406 108.584 61.2406C109.962 61.2406 111.341 61.1196 112.679 60.8372C112.74 60.8171 112.821 60.8372 112.882 60.8573C112.942 60.8775 113.003 60.9179 113.044 60.9784C113.084 61.0389 113.105 61.0994 113.105 61.1599C113.064 61.2002 113.044 61.281 113.023 61.3415ZM104.671 61.2607C104.63 61.3213 104.57 61.3616 104.509 61.3818C104.448 61.402 104.367 61.4221 104.306 61.402C102.907 61.0994 101.549 60.6355 100.272 60.0304C100.231 60.0102 100.19 59.99 100.15 59.9496C100.13 59.9093 100.089 59.869 100.089 59.8287C100.089 59.7884 100.069 59.748 100.069 59.6875C100.069 59.6471 100.089 59.6068 100.109 59.5664C100.13 59.5261 100.15 59.4857 100.191 59.4656C100.231 59.4252 100.272 59.4051 100.312 59.4051C100.353 59.3849 100.393 59.3849 100.454 59.3849C100.495 59.3849 100.555 59.4051 100.596 59.4253C101.833 60.0102 103.15 60.4539 104.488 60.7565C104.569 60.7766 104.651 60.8372 104.711 60.8977C104.752 60.9784 104.772 61.059 104.752 61.1599C104.732 61.1801 104.711 61.2204 104.671 61.2607ZM102.218 56.9443C101.792 57.5897 101.326 58.215 100.799 58.8C100.758 58.8403 100.738 58.8605 100.697 58.8806C100.657 58.9008 100.616 58.921 100.555 58.921C100.515 58.921 100.454 58.921 100.414 58.9008C100.373 58.8807 100.332 58.8604 100.292 58.8403C100.251 58.8201 100.231 58.7798 100.211 58.7394C100.191 58.6991 100.17 58.6588 100.17 58.6185C100.17 58.5781 100.17 58.5377 100.191 58.4772C100.211 58.4167 100.231 58.3965 100.251 58.3562C100.758 57.7914 101.204 57.2065 101.61 56.5812C101.954 56.0568 102.258 55.5323 102.522 54.9676C102.542 54.9272 102.562 54.8869 102.603 54.8465C102.644 54.8062 102.684 54.786 102.725 54.7659C102.765 54.7457 102.826 54.7457 102.867 54.7457C102.907 54.7457 102.948 54.7659 103.008 54.7861C103.049 54.8062 103.09 54.8264 103.11 54.8667C103.15 54.9071 103.171 54.9474 103.191 54.9878C103.211 55.0281 103.211 55.0684 103.211 55.1289C103.211 55.1692 103.191 55.2298 103.171 55.2701C102.887 55.8349 102.583 56.3996 102.218 56.9443ZM97.7374 61.5633C97.7172 61.6036 97.6969 61.6239 97.6564 61.6441C96.5211 62.4912 95.3654 63.2778 94.149 64.004C94.0679 64.0443 93.9869 64.0645 93.8855 64.0443C93.7841 64.0242 93.7233 63.9636 93.6625 63.8829C93.6219 63.8022 93.6017 63.7014 93.622 63.6207C93.6423 63.5401 93.703 63.4594 93.7841 63.3988C95.2033 62.5315 96.2778 61.8054 97.2509 61.0792C97.3117 61.0187 97.3928 60.9986 97.4739 60.9986C97.555 60.9986 97.636 61.0389 97.6968 61.0994C97.7577 61.1599 97.7982 61.2406 97.7982 61.3213C97.7982 61.402 97.778 61.4826 97.7374 61.5633ZM104.286 51.2965C104.245 51.357 104.184 51.4175 104.103 51.4377C104.022 51.4579 103.941 51.4579 103.88 51.4377C103.799 51.4175 103.738 51.357 103.698 51.2965C103.657 51.236 103.637 51.1553 103.637 51.0746C103.698 50.3686 103.657 49.6425 103.556 48.9567C103.455 48.3516 103.252 47.7465 102.988 47.1817C102.948 47.101 102.948 47.0002 102.968 46.9195C103.008 46.8388 103.069 46.7582 103.15 46.7178C103.232 46.6775 103.333 46.6775 103.414 46.6976C103.495 46.7178 103.576 46.7985 103.617 46.8791C103.921 47.5044 104.124 48.1499 104.245 48.8357C104.367 49.6022 104.407 50.3687 104.347 51.1352C104.347 51.1755 104.326 51.236 104.286 51.2965ZM97.19 57.6704C97.19 57.6906 97.1698 57.6906 97.1698 57.7108C97.109 57.7713 97.0279 57.8317 96.9468 57.8317C96.8454 57.8317 96.7643 57.8116 96.7035 57.7511C95.5884 56.8434 94.6356 55.734 93.9058 54.5036C93.8855 54.4632 93.8652 54.423 93.8652 54.3826C93.8652 54.3423 93.8652 54.2817 93.8652 54.2414C93.8855 54.2011 93.9058 54.1607 93.9261 54.1204C93.9464 54.08 93.9869 54.0599 94.0275 54.0397C94.068 54.0195 94.1085 53.9993 94.1693 53.9993C94.2099 53.9993 94.2707 53.9993 94.3113 53.9993C94.3518 54.0195 94.3924 54.0397 94.4329 54.0599C94.4735 54.0801 94.4937 54.1204 94.514 54.1607C95.2236 55.3306 96.1156 56.3593 97.1698 57.2266C97.2306 57.2871 97.2711 57.3678 97.2914 57.4485C97.2508 57.509 97.2306 57.5897 97.19 57.6704ZM90.6418 66.0412C90.6215 66.0816 90.5809 66.1219 90.5201 66.1421C90.0944 66.4043 89.6889 66.6463 89.2834 66.9085C88.4725 67.4128 87.7427 67.9171 87.0534 68.4012C87.0128 68.4214 86.9724 68.4415 86.9318 68.4617C86.8913 68.4819 86.8304 68.4819 86.7899 68.4617C86.7493 68.4617 86.7087 68.4415 86.6682 68.4213C86.6276 68.4011 86.5871 68.3608 86.5668 68.3204C86.5466 68.2801 86.5263 68.2398 86.506 68.1995C86.4858 68.1592 86.4858 68.0986 86.506 68.0583C86.506 68.0179 86.5263 67.9776 86.5668 67.9372C86.5871 67.8969 86.6276 67.8565 86.6682 67.8364C87.3778 67.3321 88.1076 66.8278 88.9388 66.3034C89.3646 66.0412 89.77 65.779 90.1957 65.5168C90.2565 65.4764 90.3377 65.4563 90.4188 65.4563C90.4998 65.4563 90.5809 65.4966 90.6215 65.5571C90.6823 65.6176 90.7229 65.6782 90.7229 65.7588C90.7229 65.8799 90.7026 65.9605 90.6418 66.0412ZM78.5386 81.976C78.498 82.0163 78.4576 82.0567 78.417 82.097C78.3562 82.1172 78.2953 82.1373 78.2548 82.1373C78.2142 82.1373 78.1535 82.1172 78.1129 82.1172C78.0724 82.097 78.0318 82.0768 77.9913 82.0365C77.9507 81.9961 77.9305 81.976 77.9102 81.9155C77.8899 81.8752 77.8899 81.8348 77.8899 81.7743C77.9304 80.3422 78.1737 78.9303 78.6399 77.5788C78.6602 77.4981 78.7414 77.4175 78.8022 77.3771C78.8833 77.3368 78.9846 77.3368 79.0657 77.3569C79.1468 77.3771 79.2279 77.4578 79.2684 77.5385C79.309 77.6191 79.309 77.7199 79.2887 77.8006C78.8427 79.0915 78.5994 80.4229 78.5792 81.7945C78.5994 81.855 78.5791 81.9155 78.5386 81.976ZM83.911 71.0032C83.8907 71.0234 83.8705 71.0435 83.8502 71.0637C82.8568 72.0117 81.9648 73.0605 81.1741 74.1699C81.1133 74.2506 81.0323 74.291 80.9512 74.3112C80.8498 74.3313 80.7687 74.3112 80.6876 74.2507C80.6065 74.2103 80.566 74.1296 80.5457 74.0288C80.5254 73.9279 80.5457 73.8472 80.5862 73.7665C81.3971 72.5966 82.3297 71.5276 83.3637 70.5594C83.4042 70.5191 83.4448 70.4989 83.4853 70.4787C83.5259 70.4586 83.5664 70.4586 83.6272 70.4586C83.6677 70.4586 83.7286 70.4586 83.7691 70.4787C83.8097 70.4989 83.8503 70.5191 83.8908 70.5594C83.9516 70.6199 83.9922 70.6804 83.9922 70.7611C83.9719 70.862 83.9516 70.9427 83.911 71.0032ZM100.839 44.1359C100.799 44.2166 100.718 44.257 100.636 44.2772C100.555 44.2973 100.454 44.2771 100.393 44.2368C99.4607 43.672 98.3659 43.4501 97.2712 43.6317C97.0685 43.672 96.8454 43.7326 96.6427 43.7931C96.6021 43.8132 96.5413 43.8132 96.5007 43.8132C96.4602 43.8132 96.4196 43.7931 96.3791 43.7729C96.3385 43.7527 96.2981 43.7326 96.2575 43.6922C96.2372 43.6519 96.1966 43.6115 96.1966 43.5712C96.1764 43.5308 96.1764 43.4905 96.1764 43.4299C96.1764 43.3896 96.1967 43.3492 96.2169 43.3089C96.2372 43.2686 96.2575 43.2282 96.298 43.2081C96.3386 43.1677 96.3791 43.1476 96.4197 43.1476C96.6629 43.0669 96.9062 43.0064 97.1495 42.9459C98.3862 42.724 99.6634 42.966 100.738 43.6317C100.819 43.672 100.88 43.7527 100.9 43.8334C100.9 43.9544 100.9 44.0552 100.839 44.1359ZM93.1556 50.5905C93.1151 50.651 93.0543 50.6914 92.9935 50.7317C92.9124 50.7519 92.8516 50.7721 92.7908 50.7519C92.7097 50.7318 92.6489 50.6914 92.6083 50.6309C92.5678 50.5704 92.5272 50.5099 92.5272 50.4292C92.4055 48.9769 92.6691 47.5044 93.2773 46.1934C93.3179 46.1127 93.3989 46.0522 93.48 46.0118C93.5611 45.9917 93.6625 45.9916 93.7436 46.0319C93.8246 46.0723 93.8855 46.1328 93.9261 46.2336C93.9464 46.3143 93.9463 46.4152 93.9058 46.4959C93.3381 47.7062 93.0949 49.0575 93.2165 50.3888C93.2165 50.4291 93.1962 50.5098 93.1556 50.5905Z" fill="#110580"/>
<path d="M133.135 50.4697C133.094 50.5302 133.013 50.5908 132.932 50.6109C132.324 50.7925 131.715 51.0547 131.168 51.3976C131.087 51.4379 130.986 51.4581 130.905 51.4379C130.823 51.4178 130.742 51.3572 130.702 51.2765C130.661 51.1958 130.641 51.095 130.661 51.0143C130.682 50.9337 130.742 50.853 130.824 50.8126C131.432 50.4496 132.08 50.1671 132.77 49.9654C132.851 49.9453 132.952 49.9655 133.033 50.0058C133.114 50.0461 133.175 50.1268 133.195 50.2075C133.216 50.2479 133.216 50.3084 133.195 50.3487C133.175 50.3891 133.175 50.4293 133.135 50.4697Z" fill="#110580"/>
<path d="M73.0043 92.8477C74.8491 92.8477 76.3494 91.3551 76.3494 89.5196C76.3494 87.684 74.8491 86.1914 73.0043 86.1914C71.1594 86.1914 69.6592 87.684 69.6592 89.5196C69.6592 91.3551 71.1594 92.8477 73.0043 92.8477Z" fill="#FF5856"/>
<path d="M136.277 37.1771C137.655 37.1771 138.77 36.0677 138.77 34.6961C138.77 33.3245 137.655 32.2151 136.277 32.2151C134.898 32.2151 133.783 33.3245 133.783 34.6961C133.783 36.0677 134.898 37.1771 136.277 37.1771Z" fill="#FF5856"/>
<path d="M125.289 77.1754C125.086 75.6424 123.971 74.3716 122.754 73.4034C119.267 70.7207 114.544 69.8131 110.185 70.5191C108.563 70.7813 106.921 71.2653 105.563 72.1932C102.765 74.1094 101.549 77.962 102.643 81.1691C102.806 81.512 103.049 81.8347 103.333 82.097C101.974 84.6586 101.184 86.5546 100.028 89.1969C102.724 87.1597 105.624 85.4049 108.685 83.9526L109.07 84.1543C112.719 86.3731 117.544 85.2839 121.234 83.1257C123.423 81.8146 125.613 79.6967 125.289 77.1754Z" fill="#FCFAF8"/>
<path d="M108.726 78.991C109.455 78.991 110.063 78.4261 110.063 77.7202C110.063 77.0142 109.476 76.4495 108.726 76.4495C107.996 76.4495 107.387 77.0142 107.387 77.7202C107.408 78.4261 107.996 78.991 108.726 78.991Z" fill="#D6D7F0"/>
<path d="M113.368 78.991C114.098 78.991 114.706 78.4261 114.706 77.7202C114.706 77.0142 114.118 76.4495 113.368 76.4495C112.638 76.4495 112.03 77.0142 112.03 77.7202C112.051 78.4261 112.638 78.991 113.368 78.991Z" fill="#D6D7F0"/>
<path d="M117.706 78.991C118.436 78.991 119.045 78.4261 119.045 77.7202C119.045 77.0142 118.457 76.4495 117.706 76.4495C116.977 76.4495 116.368 77.0142 116.368 77.7202C116.368 78.4261 116.956 78.991 117.706 78.991Z" fill="#D6D7F0"/>
<path d="M118.416 82.9443C119.409 79.9994 122.491 78.3052 125.471 77.3773C132.364 75.2393 139.784 75.6628 146.393 78.5472C149.454 79.8986 152.414 81.9358 153.732 84.9816C154.908 87.6239 154.644 90.7907 153.306 93.3524C151.989 95.9141 149.657 97.911 147.022 99.1212C147.934 101.461 149.333 104.325 150.265 106.665L144.65 103.377C143.717 102.792 142.704 102.288 141.649 101.925C140.19 101.481 138.649 101.501 137.128 101.421C132.891 101.179 128.634 99.928 125.167 97.4672C121.7 95.0064 119.045 91.3152 118.274 87.1601C118.011 85.7683 117.97 84.2958 118.416 82.9443Z" fill="white"/>
<path d="M126.201 84.4772H146.353C146.819 84.4772 147.184 84.1141 147.184 83.6502C147.184 83.1862 146.799 82.8232 146.353 82.8232H126.201C125.735 82.8232 125.37 83.1862 125.37 83.6502C125.37 84.1141 125.735 84.4772 126.201 84.4772Z" fill="#D6D7F0"/>
<path d="M126.201 88.4504H139.743C140.21 88.4504 140.575 88.0873 140.575 87.6234C140.575 87.1595 140.21 86.7964 139.743 86.7964H126.201C125.735 86.7964 125.37 87.1595 125.37 87.6234C125.37 88.0873 125.735 88.4504 126.201 88.4504Z" fill="#D6D7F0"/>
<path d="M126.201 92.4043H135.06C135.527 92.4043 135.892 92.0412 135.892 91.5773C135.892 91.1133 135.527 90.7502 135.06 90.7502H126.201C125.735 90.7502 125.37 91.1133 125.37 91.5773C125.37 92.0412 125.735 92.4043 126.201 92.4043Z" fill="#D6D7F0"/>
<path d="M144.71 90.7502H139.155C138.689 90.7502 138.324 91.1133 138.324 91.5773C138.324 92.0412 138.709 92.4043 139.155 92.4043H144.71C145.177 92.4043 145.541 92.0412 145.541 91.5773C145.541 91.1133 145.156 90.7502 144.71 90.7502Z" fill="#D6D7F0"/>
<path d="M105.928 40.667C105.928 40.667 106.495 37.5405 106.333 37.48L84.7827 30.5615L105.928 40.667Z" fill="#4E53BA"/>
<path d="M110.874 33.5867L90.4592 30.7628L108.401 29.8551L105.705 25.8008L84.7827 30.5611L115.395 40.3841L110.874 33.5867Z" fill="#868AE0"/>
<path d="M106.982 33.0423L108.381 29.8352L90.4392 30.7429L106.982 33.0423Z" fill="#4E53BA"/>
<path d="M127.701 106.281C127.6 106.261 124.458 108.419 124.458 108.419L131.817 115.096L122.937 109.811L119.552 113.402L136.905 118.485L127.701 106.281Z" fill="#868AE0"/>
<path d="M124.214 110.578L124.437 108.399L131.797 115.076L124.214 110.578Z" fill="#4E53BA"/>
<path d="M159.328 69.1478C159.348 68.8049 159.348 67.2719 158.699 67.3526C157.462 67.4938 156.165 68.119 155.03 68.9259C156.104 63.863 156.064 58.6187 154.928 53.5559C154.766 52.7693 154.158 52.6079 153.692 53.2332C153.144 53.9795 152.921 55.3309 153.104 56.2184C153.975 60.3937 153.874 64.7102 152.779 68.825C151.725 66.6668 150.083 64.1455 149.008 65.981C148.623 66.7273 148.502 67.5745 148.684 68.4015C148.785 68.8453 148.988 69.2688 149.373 69.1478C149.982 69.3293 150.61 70.8421 150.874 71.3262C151.34 72.2137 151.725 73.1416 152.029 74.1097C152.049 74.1904 152.09 74.2912 152.131 74.3719C152.293 74.9367 152.658 75.5217 153.266 74.9569C154.016 74.2106 154.827 73.5248 155.678 72.8995C156.591 72.2742 157.584 71.8506 158.496 71.2455C159.125 70.8219 159.287 69.8537 159.328 69.1478Z" fill="#EBDBCD"/>
<path d="M77.4235 51.9823C76.5314 50.0862 77.2816 48.8962 77.8695 46.98C78.1128 46.1732 78.1939 45.326 78.0925 44.4788C78.1533 43.5107 77.9708 42.6433 77.3424 42.724L77.1396 42.7643C77.0586 42.7442 76.9572 42.7442 76.8761 42.7643C76.795 42.7845 76.7139 42.8249 76.6531 42.8854C75.5381 43.2283 74.4231 43.9947 73.3486 44.4385C71.8686 45.0638 70.3278 45.4672 68.8073 46.0118C67.6112 46.4354 67.5504 51.2763 68.8276 51.0948C69.8818 50.9334 70.936 50.651 71.9497 50.2879C68.4424 55.9761 65.7258 62.1281 64.7729 68.7844C64.6918 69.4097 64.5296 71.0234 65.2595 71.3864C65.9893 71.7495 66.3543 70.4586 66.4151 69.9745C67.4288 63.298 71.0374 57.5091 74.5852 51.8411C74.7068 53.4749 75.3759 55.0482 76.4707 56.2787C77.0789 56.9443 77.6465 55.2096 77.7074 54.9676C77.9304 53.9792 77.8492 52.9303 77.4235 51.9823Z" fill="#EBDBCD"/>
</g>
<defs>
<clipPath id="clip0_572_807">
<rect width="103.551" height="93.2697" fill="white" transform="translate(60.2214 25.8008)"/>
</clipPath>
</defs>
</svg>
