<svg xmlns="http://www.w3.org/2000/svg" width="23" height="19" viewBox="0 0 23 19" fill="none">
<path d="M20.4898 16.2571H22.4412V18.2084H0.976562V16.2571H2.92789V1.62215C2.92789 1.36339 3.03068 1.11522 3.21366 0.93225C3.39663 0.749277 3.64479 0.646484 3.90355 0.646484H13.6602C13.919 0.646484 14.1671 0.749277 14.3501 0.93225C14.5331 1.11522 14.6359 1.36339 14.6359 1.62215V16.2571H18.5385V8.45179H16.5872V6.50047H19.5142C19.7729 6.50047 20.0211 6.60326 20.2041 6.78623C20.387 6.9692 20.4898 7.21737 20.4898 7.47613V16.2571ZM4.87922 2.59781V16.2571H12.6845V2.59781H4.87922ZM6.83054 8.45179H10.7332V10.4031H6.83054V8.45179ZM6.83054 4.54914H10.7332V6.50047H6.83054V4.54914Z" fill="#FF5757"/>
</svg>