<svg width="73" height="73" viewBox="0 0 73 73" fill="none" xmlns="http://www.w3.org/2000/svg">
<g clip-path="url(#clip0_44_4687)">
<path fill-rule="evenodd" clip-rule="evenodd" d="M69.9816 25.5226H3.13153V24.0125H69.9816V25.5226Z" fill="#6898A5"/>
<path fill-rule="evenodd" clip-rule="evenodd" d="M69.9816 49.283H3.13153V47.7728H69.9816V49.283Z" fill="#6898A5"/>
<path d="M16.8738 45.0028H14.1555V27.6359H16.8738V35.086H19.9948V27.6359H22.7635V45.0028H19.9948V37.5526H16.8738V45.0028Z" fill="#6898A5"/>
<path d="M24.5256 31.7638C24.5256 28.9951 25.9855 27.3843 28.6534 27.3843C31.3214 27.3843 32.7812 28.9951 32.7812 31.7638V40.7744C32.7812 43.5431 31.3214 45.1539 28.6534 45.1539C25.9855 45.1539 24.5256 43.5431 24.5256 40.7744V31.7638ZM27.2439 40.9758C27.2439 42.2343 27.7977 42.6873 28.6534 42.6873C29.5092 42.6873 30.0629 42.2343 30.0629 40.9758V31.6127C30.0629 30.3543 29.5092 29.9012 28.6534 29.9012C27.7977 29.9012 27.2439 30.3543 27.2439 31.6127V40.9758Z" fill="#6898A5"/>
<path d="M33.7878 27.6359H42.2447V30.1025H39.3754V45.0028H36.6571V30.1025H33.7878V27.6359Z" fill="#6898A5"/>
<path d="M46.1209 34.935H49.846V37.4016H46.1209V42.4858H50.8528V44.9525H43.4026V27.6359H50.8528V30.1025H46.1209V34.935Z" fill="#6898A5"/>
<path d="M52.5136 27.6359H55.2319V42.5362H59.712V45.0028H52.5136V27.6359Z" fill="#6898A5"/>
<path fill-rule="evenodd" clip-rule="evenodd" d="M37.4127 9.06116V19.6827H35.9025V9.06116H37.4127Z" fill="#6898A5"/>
<path fill-rule="evenodd" clip-rule="evenodd" d="M31.3961 13.5458L33.1579 20.0395L31.7005 20.4349L29.9386 13.9412L31.3961 13.5458Z" fill="#6898A5"/>
<path fill-rule="evenodd" clip-rule="evenodd" d="M24.3739 12.7604L29.7098 21.9724L28.403 22.7293L23.0671 13.5173L24.3739 12.7604Z" fill="#6898A5"/>
<path fill-rule="evenodd" clip-rule="evenodd" d="M23.4994 19.5511L27.8789 23.9306L26.8111 24.9985L22.4316 20.619L23.4994 19.5511Z" fill="#6898A5"/>
<path fill-rule="evenodd" clip-rule="evenodd" d="M43.3262 13.9412L41.5643 20.4349L40.1068 20.0395L41.8687 13.5458L43.3262 13.9412Z" fill="#6898A5"/>
<path fill-rule="evenodd" clip-rule="evenodd" d="M50.1976 13.5173L44.8617 22.7293L43.5549 21.9724L48.8909 12.7604L50.1976 13.5173Z" fill="#6898A5"/>
<path fill-rule="evenodd" clip-rule="evenodd" d="M50.6858 20.7666L46.5077 24.9951L45.4335 23.9337L49.6116 19.7052L50.6858 20.7666Z" fill="#6898A5"/>
<path fill-rule="evenodd" clip-rule="evenodd" d="M26.278 24.3278C28.5745 21.1233 32.3202 18.9786 36.6071 18.9786C40.8886 18.9786 44.6388 21.0685 46.9397 24.3326L47.7786 25.5227H25.4216L26.278 24.3278ZM28.49 24.0125H44.7393C42.7052 21.8287 39.8296 20.4888 36.6071 20.4888C33.3981 20.4888 30.5268 21.8547 28.49 24.0125Z" fill="#6898A5"/>
<path d="M17.8806 56.3306C18.2329 56.3809 18.686 56.4816 19.0887 56.6829C19.7431 56.9346 20.1458 57.1863 20.3472 57.589C20.4982 57.8911 20.5485 58.2434 20.3975 58.6462C20.1458 59.3006 19.6424 59.5523 19.0384 59.5523C19.3404 59.804 19.4411 60.257 19.3907 60.7604C19.29 61.4651 19.2397 61.9685 19.2901 62.2202L18.6356 61.9685C18.5853 61.8175 18.6356 61.3645 18.7363 60.71C18.837 60.0053 18.686 59.6529 18.1323 59.4516L17.5282 59.2502L16.7731 61.3141L16.169 61.1128L17.8806 56.3306ZM17.6792 58.6965L18.3336 58.9482C18.988 59.1999 19.5417 58.9985 19.7431 58.4448C19.9445 57.8407 19.6424 57.3877 18.988 57.136C18.686 57.0353 18.4846 56.985 18.3336 56.985L17.6792 58.6965Z" fill="#6898A5"/>
<path d="M23.4183 60.811L21.5054 60.3077L21.0523 62.0695L23.1666 62.6232L23.0156 63.177L20.2469 62.4722L21.5557 57.5894L24.2237 58.2941L24.0727 58.8478L22.0591 58.2941L21.6564 59.8546L23.5693 60.358L23.4183 60.811Z" fill="#6898A5"/>
<path d="M24.1729 62.5726C24.4246 62.8243 24.8273 63.0257 25.2804 63.1263C25.9348 63.227 26.3879 62.9753 26.4885 62.4719C26.5892 62.0189 26.3375 61.6665 25.7335 61.3141C24.9784 60.8611 24.5253 60.3577 24.6763 59.653C24.8273 58.8979 25.5824 58.3945 26.5389 58.5958C27.0423 58.6965 27.3946 58.8979 27.596 59.0489L27.3443 59.5523C27.1933 59.4516 26.8912 59.2502 26.4382 59.1496C25.7335 59.0489 25.4314 59.4013 25.3811 59.7033C25.2804 60.1563 25.5824 60.4584 26.1865 60.8611C26.9919 61.3645 27.3443 61.8175 27.1933 62.5726C27.0423 63.3277 26.3375 63.8814 25.1797 63.6801C24.6763 63.5794 24.2233 63.378 23.9716 63.1263L24.1729 62.5726Z" fill="#6898A5"/>
<path d="M29.4582 59.6521L27.9481 59.5011L27.9984 58.9474L31.7235 59.3501L31.6731 59.9038L30.1126 59.7528L29.6596 64.233L29.0052 64.1826L29.4582 59.6521Z" fill="#6898A5"/>
<path d="M32.2776 62.8245L31.6735 64.385H31.0191L32.932 59.3511L33.7374 59.4014L35.2979 64.536H34.5932L34.0898 62.9251L32.2776 62.8245ZM33.9388 62.3714L33.4857 60.9116C33.3851 60.5592 33.3347 60.2572 33.234 59.9551C33.1334 60.2572 33.0327 60.5592 32.932 60.8612L32.3783 62.3211L33.9388 62.3714Z" fill="#6898A5"/>
<path d="M36.5063 59.4008L36.6573 62.4211C36.7076 63.5789 37.211 64.032 37.9158 63.9816C38.6708 63.9313 39.1239 63.4279 39.0736 62.3204L38.9225 59.3001L39.5769 59.2498L39.728 62.2198C39.7783 63.7803 39.0232 64.4347 37.9158 64.485C36.8586 64.5353 36.0532 63.9816 36.0029 62.4211L35.8519 59.4511L36.5063 59.4008Z" fill="#6898A5"/>
<path d="M40.5835 59.2495C40.8855 59.1488 41.3889 59.0481 41.842 58.9978C42.5467 58.8971 42.9998 58.9978 43.3521 59.2495C43.6542 59.4509 43.8052 59.7529 43.8555 60.1556C43.9562 60.81 43.5535 61.3134 43.0501 61.5651C43.4528 61.6658 43.7548 61.9678 43.9059 62.4712C44.1576 63.1759 44.3086 63.629 44.4596 63.8304L43.8052 63.931C43.7045 63.78 43.5535 63.3773 43.3018 62.7732C43.0501 62.1188 42.7481 61.8671 42.1943 61.9175L41.5903 61.9678L41.842 64.1324L41.1876 64.2331L40.5835 59.2495ZM41.4896 61.4644L42.144 61.3637C42.8487 61.2631 43.2515 60.8604 43.1508 60.2563C43.0501 59.6019 42.5467 59.4005 41.8923 59.4509C41.5903 59.5012 41.3386 59.5515 41.2379 59.6019L41.4896 61.4644Z" fill="#6898A5"/>
<path d="M45.9698 61.918L45.7684 63.5792L45.114 63.7302L45.8691 58.4446L46.6242 58.2936L49.2921 62.9751L48.5874 63.1261L47.782 61.6663L45.9698 61.918ZM47.4799 61.1126L46.7249 59.7534C46.5738 59.4514 46.4228 59.1493 46.2718 58.8976C46.2718 59.1997 46.2215 59.5017 46.1711 59.8541L45.9698 61.3643L47.4799 61.1126Z" fill="#6898A5"/>
<path d="M50.1982 62.7239L48.8894 57.841L49.5941 57.6397L51.8091 59.7035C52.3125 60.2069 52.7655 60.6096 53.1179 61.0627C52.8662 60.4083 52.7152 59.8042 52.5138 59.0491L51.9601 56.9852L52.5641 56.8342L53.873 61.7171L53.2186 61.8681L51.0036 59.8042C50.5003 59.3512 50.0472 58.8478 49.6445 58.3947C49.8458 58.9988 49.9969 59.6029 50.2486 60.4083L50.8023 62.5225L50.1982 62.7239Z" fill="#6898A5"/>
<path d="M54.6786 56.7328L53.2188 57.1859L53.0677 56.6322L56.6418 55.4744L56.7928 56.0281L55.333 56.4811L56.7425 60.76L56.0881 60.9613L54.6786 56.7328Z" fill="#6898A5"/>
<path d="M37.865 56.4805C37.714 56.3295 37.6133 56.2288 37.412 56.0275C37.0092 56.4302 36.5562 56.5812 36.0025 56.5812C35.046 56.5812 34.5426 55.9771 34.5426 55.2221C34.5426 54.5677 34.9453 54.1146 35.4991 53.8126C35.2474 53.5105 35.0964 53.1582 35.0964 52.8058C35.0964 52.2017 35.4991 51.5977 36.3045 51.5977C36.9086 51.5977 37.3616 52.0004 37.3616 52.6044C37.3616 53.1078 37.0596 53.5105 36.3045 53.8629C36.7072 54.316 37.1603 54.8697 37.4623 55.2221C37.6636 54.8697 37.8147 54.4166 37.9153 53.8126H38.4691C38.3181 54.5677 38.1167 55.1717 37.7643 55.5744C38.016 55.8261 38.2677 56.1282 38.5697 56.4302H37.865V56.4805ZM37.0596 55.6751C36.7575 55.3731 36.2542 54.769 35.7004 54.1649C35.4487 54.316 35.0964 54.618 35.0964 55.1214C35.0964 55.6751 35.4991 56.0778 36.1031 56.0778C36.5059 56.0778 36.8582 55.8765 37.0596 55.6751ZM35.5998 52.7051C35.5998 53.0575 35.7508 53.3092 35.9521 53.5609C36.4555 53.2588 36.7575 53.0071 36.7575 52.6044C36.7575 52.3024 36.6065 52.0004 36.2038 52.0004C35.8514 52.0004 35.5998 52.3527 35.5998 52.7051Z" fill="#6898A5"/>
<path fill-rule="evenodd" clip-rule="evenodd" d="M2.42097 24.5108C7.45823 10.5299 20.8231 0.503418 36.5564 0.503418C52.2897 0.503418 65.6546 10.5299 70.6918 24.5108L71.0561 25.5219H2.0567L2.42097 24.5108ZM4.22394 24.0117H68.8889C63.7915 11.1389 51.2487 2.01359 36.5564 2.01359C21.864 2.01359 9.32132 11.1389 4.22394 24.0117Z" fill="#6898A5"/>
<path fill-rule="evenodd" clip-rule="evenodd" d="M2.01312 47.7711H71.1005L70.744 48.7782C65.7584 62.8613 52.3426 72.9909 36.5568 72.9909C20.7711 72.9909 7.35527 62.8613 2.36964 48.7782L2.01312 47.7711ZM4.16742 49.2813C9.21886 62.2567 21.8131 71.4808 36.5568 71.4808C51.3005 71.4808 63.8948 62.2567 68.9462 49.2813H4.16742Z" fill="#6898A5"/>
</g>
<defs>
<clipPath id="clip0_44_4687">
<rect width="72.9915" height="72.9915" fill="white"/>
</clipPath>
</defs>
</svg>
