<svg xmlns="http://www.w3.org/2000/svg" width="45" height="44" viewBox="0 0 45 44" fill="none" style="&#10;    background: #000;&#10;">
<path d="M26.577 33.5347C28.3829 27.059 27.7331 23.7947 24.567 23.1675C25.0506 25.3664 25.5947 27.6257 23.2825 29.152C22.0735 29.953 21.1138 29.6432 18.9678 27.9959C17.978 30.0286 18.3105 32.0536 18.7714 34.2223C15.696 33.6858 13.2704 32.4088 12.1446 29.4392C10.9809 26.734 11.6232 23.5982 13.7389 21.558C14.4794 20.8024 15.2804 20.1148 16.1343 19.4952C19.595 16.8958 20.2675 14.372 18.4389 10.4654C18.3558 10.2388 18.2878 10.0121 18.2424 9.77783C22.0886 10.3597 25.7307 11.9087 28.8287 14.2662C35.5765 19.7823 34.7604 29.7036 27.3099 33.3457C27.053 33.3609 26.8112 33.4213 26.577 33.5347Z" fill="#EE4854"/>
</svg>