<svg xmlns="http://www.w3.org/2000/svg" width="33" height="32" viewBox="0 0 33 32" fill="none">
<path d="M6.59386 2.07498H12.5928C12.9219 2.07508 13.2387 2.20073 13.4791 2.42655C13.7196 2.65236 13.8658 2.9615 13.8882 3.2915C13.9107 3.6215 13.8076 3.94776 13.6 4.20434C13.3923 4.46093 13.0955 4.62872 12.7695 4.6738L12.5928 4.68599H6.59386C5.60679 4.68584 4.65645 5.06222 3.9348 5.7391C3.21315 6.41599 2.77396 7.34293 2.70597 8.3327L2.69731 8.6025V25.1389C2.69763 26.131 3.07252 27.086 3.74628 27.811C4.42003 28.536 5.34243 28.9771 6.32716 29.045L6.59386 29.0554H23.0459C24.0333 29.0555 24.9839 28.6789 25.7056 28.0016C26.4273 27.3244 26.8663 26.397 26.9338 25.4069L26.9425 25.1389V24.272C26.9391 23.9389 27.0626 23.6171 27.2876 23.3725C27.5126 23.1279 27.8221 22.979 28.1528 22.9563C28.4835 22.9336 28.8103 23.0388 29.0663 23.2504C29.3223 23.462 29.4881 23.764 29.5298 24.0945L29.5402 24.272V25.1389C29.5399 26.8096 28.9022 28.4167 27.7585 29.629C26.6148 30.8414 25.0522 31.5669 23.3923 31.656L23.0459 31.6664H6.59386C4.93105 31.6665 3.33154 31.0256 2.12492 29.8756C0.918304 28.7256 0.196508 27.1542 0.108269 25.4853L0.0996094 25.1371V8.60076C0.0999032 6.93002 0.737556 5.323 1.88126 4.11061C3.02496 2.89823 4.58764 2.17279 6.2475 2.08368L6.59386 2.07498H12.5928H6.59386ZM20.0205 6.50325V1.63981C20.0203 1.39968 20.0861 1.16416 20.2105 0.959154C20.3349 0.754151 20.5132 0.587609 20.7257 0.47785C20.9382 0.36809 21.1767 0.319366 21.4149 0.337036C21.6532 0.354706 21.882 0.438085 22.0761 0.578003L22.2181 0.696368L32.5986 10.7052C33.0835 11.1735 33.1285 11.9237 32.7319 12.4424L32.5986 12.5904L22.2181 22.6027C22.0458 22.7691 21.8311 22.8845 21.5976 22.9361C21.3642 22.9878 21.1211 22.9737 20.8952 22.8954C20.6692 22.8171 20.4691 22.6777 20.3169 22.4924C20.1648 22.3072 20.0664 22.0834 20.0326 21.8455L20.0205 21.6593V16.7837L19.4646 16.7715C14.8615 16.7576 10.9268 18.6584 7.57579 22.5192C6.71681 23.5061 5.10797 22.7472 5.31406 21.4521C6.74625 12.5051 11.5485 7.45018 19.4975 6.55547L20.0205 6.50325V1.63981V6.50325Z" fill="#5D6B98"/>
</svg>