<svg width="29" height="29" viewBox="0 0 29 29" fill="none" xmlns="http://www.w3.org/2000/svg">
<path d="M23.4946 18.0938C22.0504 18.0938 20.6531 17.859 19.3498 17.4363C19.1455 17.3675 18.9261 17.3574 18.7164 17.4073C18.5068 17.4571 18.3153 17.5648 18.1639 17.7181L16.3204 20.0312C12.9975 18.4461 9.88597 15.452 8.23039 12.0116L10.52 10.0625C10.837 9.73375 10.931 9.27582 10.8018 8.86486C10.3674 7.56153 10.1443 6.16427 10.1443 4.72004C10.1443 4.08599 9.61591 3.55762 8.98186 3.55762H4.91923C4.28518 3.55762 3.52197 3.83942 3.52197 4.72004C3.52197 15.6281 12.5983 24.6927 23.4946 24.6927C24.3282 24.6927 24.657 23.9529 24.657 23.3071V19.2563C24.657 18.6222 24.1286 18.0938 23.4946 18.0938Z" fill="#838383"/>
</svg>
