<svg width="33" height="33" viewBox="0 0 33 33" fill="none" xmlns="http://www.w3.org/2000/svg">
<g id="Icon" clip-path="url(#clip0_31285_49092)">
<path id="Vector" d="M8.94742 12.7132H9.21726C10.2561 12.7132 11.1061 13.5632 11.1061 14.6021V24.0462C11.1061 25.0851 10.2561 25.935 9.21726 25.935H8.94742C7.90857 25.935 7.05859 25.0851 7.05859 24.0462V14.6021C7.05859 13.5632 7.90857 12.7132 8.94742 12.7132ZM16.5027 7.04675C17.5416 7.04675 18.3916 7.89673 18.3916 8.93558V24.0462C18.3916 25.0851 17.5416 25.935 16.5027 25.935C15.4639 25.935 14.6139 25.0851 14.6139 24.0462V8.93558C14.6139 7.89673 15.4639 7.04675 16.5027 7.04675ZM24.0581 17.8401C25.0969 17.8401 25.9469 18.69 25.9469 19.7289V24.0462C25.9469 25.0851 25.0969 25.935 24.0581 25.935C23.0192 25.935 22.1692 25.0851 22.1692 24.0462V19.7289C22.1692 18.69 23.0192 17.8401 24.0581 17.8401Z" fill="#FF5757"/>
</g>
<defs>
<clipPath id="clip0_31285_49092">
<rect width="32.3799" height="32.3799" fill="white" transform="translate(0.3125 0.300659)"/>
</clipPath>
</defs>
</svg>
