<svg width="32" height="32" viewBox="0 0 32 32" fill="none" xmlns="http://www.w3.org/2000/svg">
<rect width="32" height="32" rx="16" fill="#EC9327" fill-opacity="0.1"/>
<g clip-path="url(#clip0_32813_68609)">
<path fill-rule="evenodd" clip-rule="evenodd" d="M16 7.75C11.4438 7.75 7.75 11.4438 7.75 16C7.75 20.5562 11.4438 24.25 16 24.25C20.5562 24.25 24.25 20.5562 24.25 16C24.25 11.4438 20.5562 7.75 16 7.75ZM15.625 11.5C15.4261 11.5 15.2353 11.579 15.0947 11.7197C14.954 11.8603 14.875 12.0511 14.875 12.25C14.875 12.4489 14.954 12.6397 15.0947 12.7803C15.2353 12.921 15.4261 13 15.625 13H16C16.1989 13 16.3897 12.921 16.5303 12.7803C16.671 12.6397 16.75 12.4489 16.75 12.25C16.75 12.0511 16.671 11.8603 16.5303 11.7197C16.3897 11.579 16.1989 11.5 16 11.5H15.625ZM14.5 14.5C14.3011 14.5 14.1103 14.579 13.9697 14.7197C13.829 14.8603 13.75 15.0511 13.75 15.25C13.75 15.4489 13.829 15.6397 13.9697 15.7803C14.1103 15.921 14.3011 16 14.5 16H15.25V18.25H14.5C14.3011 18.25 14.1103 18.329 13.9697 18.4697C13.829 18.6103 13.75 18.8011 13.75 19C13.75 19.1989 13.829 19.3897 13.9697 19.5303C14.1103 19.671 14.3011 19.75 14.5 19.75H17.5C17.6989 19.75 17.8897 19.671 18.0303 19.5303C18.171 19.3897 18.25 19.1989 18.25 19C18.25 18.8011 18.171 18.6103 18.0303 18.4697C17.8897 18.329 17.6989 18.25 17.5 18.25H16.75V15.25C16.75 15.0511 16.671 14.8603 16.5303 14.7197C16.3897 14.579 16.1989 14.5 16 14.5H14.5Z" fill="#EC9327"/>
</g>
<defs>
<clipPath id="clip0_32813_68609">
<rect width="18" height="18" fill="white" transform="translate(7 7)"/>
</clipPath>
</defs>
</svg>
