<svg xmlns="http://www.w3.org/2000/svg" width="38" height="38" viewBox="0 0 38 38" fill="none">
<path d="M17.5202 28.559H21.233V17.4206H17.5202V28.559ZM19.3766 13.7078C19.9026 13.7078 20.3438 13.5295 20.7002 13.1731C21.0567 12.8167 21.2343 12.3761 21.233 11.8514C21.233 11.3254 21.0548 10.8848 20.6984 10.5296C20.3419 10.1744 19.9013 9.99618 19.3766 9.99494C18.8506 9.99494 18.41 10.1732 18.0548 10.5296C17.6996 10.886 17.5214 11.3266 17.5202 11.8514C17.5202 12.3773 17.6984 12.8185 18.0548 13.175C18.4113 13.5314 18.8519 13.709 19.3766 13.7078ZM19.3766 37.8411C16.8086 37.8411 14.3952 37.3535 12.1366 36.3782C9.87797 35.403 7.91327 34.0806 6.2425 32.4111C4.57173 30.7403 3.24935 28.7756 2.27535 26.517C1.30135 24.2584 0.813738 21.845 0.8125 19.277C0.8125 16.709 1.30012 14.2956 2.27535 12.037C3.25059 9.77836 4.57297 7.81366 6.2425 6.14289C7.91327 4.47212 9.87797 3.14974 12.1366 2.17574C14.3952 1.20175 16.8086 0.714128 19.3766 0.712891C21.9446 0.712891 24.358 1.20051 26.6166 2.17574C28.8752 3.15098 30.8399 4.47336 32.5107 6.14289C34.1815 7.81366 35.5045 9.77836 36.4797 12.037C37.4549 14.2956 37.9419 16.709 37.9407 19.277C37.9407 21.845 37.4531 24.2584 36.4779 26.517C35.5026 28.7756 34.1802 30.7403 32.5107 32.4111C30.8399 34.0819 28.8752 35.4049 26.6166 36.3801C24.358 37.3553 21.9446 37.8423 19.3766 37.8411ZM19.3766 34.1283C23.5226 34.1283 27.0343 32.6896 29.9117 29.8121C32.7892 26.9347 34.2279 23.423 34.2279 19.277C34.2279 15.131 32.7892 11.6193 29.9117 8.74186C27.0343 5.86443 23.5226 4.42571 19.3766 4.42571C15.2306 4.42571 11.7189 5.86443 8.84147 8.74186C5.96404 11.6193 4.52532 15.131 4.52532 19.277C4.52532 23.423 5.96404 26.9347 8.84147 29.8121C11.7189 32.6896 15.2306 34.1283 19.3766 34.1283Z" fill="white"/>
</svg>