<svg width="225" height="144" viewBox="0 0 225 144" fill="none" xmlns="http://www.w3.org/2000/svg">
<rect width="224.728" height="143.944" fill="#F5F4F8"/>
<path d="M94.7419 121.891C94.6802 121.87 94.639 121.828 94.5978 121.766C94.5567 121.725 94.5361 121.642 94.5361 121.58C94.5361 121.497 94.5773 121.414 94.639 121.352C94.7007 121.29 94.783 121.249 94.8653 121.249H96.4495V119.634C96.4495 119.592 96.4495 119.53 96.4701 119.489C96.4907 119.448 96.5112 119.406 96.5318 119.365C96.5524 119.344 96.5935 119.303 96.6347 119.282C96.6758 119.261 96.717 119.261 96.7581 119.261C96.7993 119.261 96.8405 119.282 96.8816 119.282C96.9228 119.303 96.9639 119.323 96.9845 119.365C97.0051 119.406 97.0462 119.448 97.0462 119.489C97.0667 119.53 97.0668 119.572 97.0668 119.634V121.891H94.8242C94.8242 121.911 94.783 121.891 94.7419 121.891Z" fill="#110580"/>
<path d="M62.0283 121.849C61.9665 121.829 61.9253 121.787 61.8842 121.725C61.843 121.684 61.8225 121.622 61.8225 121.539C61.8225 121.497 61.8225 121.456 61.8431 121.415C61.8637 121.373 61.8842 121.332 61.9048 121.311C61.9254 121.27 61.9665 121.249 62.0077 121.228C62.0488 121.208 62.09 121.208 62.1311 121.208H66.2254C66.3077 121.208 66.3901 121.249 66.4518 121.311C66.5135 121.373 66.5547 121.456 66.5547 121.539C66.5547 121.58 66.5546 121.622 66.5341 121.663C66.5135 121.704 66.493 121.746 66.4724 121.767C66.4518 121.787 66.4107 121.808 66.3695 121.849C66.3284 121.87 66.2872 121.87 66.246 121.87H62.1517C62.1106 121.891 62.0694 121.87 62.0283 121.849ZM70.1963 121.849C70.1346 121.829 70.0729 121.766 70.0317 121.704C69.9906 121.642 69.9906 121.559 70.0111 121.497C70.0317 121.415 70.0729 121.352 70.114 121.311C70.1757 121.27 70.2375 121.228 70.3198 121.228H74.4141C74.4964 121.228 74.5787 121.27 74.6198 121.332C74.6815 121.394 74.7022 121.477 74.7022 121.56C74.7022 121.642 74.6815 121.725 74.6198 121.787C74.5581 121.849 74.4964 121.891 74.4141 121.891H70.3403C70.2992 121.891 70.2374 121.891 70.1963 121.849ZM78.385 121.849C78.3233 121.829 78.2615 121.766 78.2204 121.704C78.1792 121.642 78.1793 121.559 78.1999 121.497C78.2204 121.415 78.2616 121.352 78.3027 121.311C78.3645 121.27 78.4262 121.228 78.5085 121.228H82.6028C82.6439 121.228 82.685 121.228 82.7468 121.249C82.7879 121.27 82.8291 121.29 82.8702 121.332C82.9114 121.352 82.9319 121.394 82.9525 121.435C82.9731 121.477 82.9731 121.518 82.9731 121.56C82.9731 121.601 82.9731 121.642 82.9525 121.684C82.9319 121.725 82.9114 121.767 82.8702 121.787C82.8291 121.808 82.7879 121.829 82.7468 121.849C82.7056 121.87 82.6645 121.87 82.6028 121.87H78.5085C78.4673 121.891 78.4262 121.891 78.385 121.849ZM86.553 121.849C86.4913 121.829 86.4296 121.766 86.3885 121.704C86.3473 121.642 86.3473 121.559 86.3679 121.497C86.3885 121.415 86.4296 121.352 86.4914 121.311C86.5531 121.27 86.6148 121.228 86.6971 121.228H90.7914C90.8737 121.228 90.956 121.27 91.0178 121.332C91.0795 121.394 91.1206 121.477 91.1206 121.56C91.1206 121.642 91.0795 121.725 91.0178 121.787C90.956 121.849 90.8737 121.891 90.7914 121.891H86.6971C86.656 121.891 86.5942 121.891 86.553 121.849Z" fill="#110580"/>
<path d="M55.8149 121.891V119.634C55.8149 119.551 55.8561 119.448 55.9178 119.406C55.9795 119.365 56.0619 119.303 56.1442 119.303C56.2265 119.303 56.3088 119.344 56.3705 119.406C56.4322 119.469 56.4734 119.551 56.4734 119.634V121.249H58.0781C58.1604 121.249 58.2428 121.29 58.3045 121.353C58.3662 121.415 58.4074 121.497 58.4074 121.58C58.4074 121.663 58.3662 121.746 58.3045 121.808C58.2428 121.87 58.1604 121.911 58.0781 121.911H55.8149V121.891Z" fill="#110580"/>
<path d="M56.0207 116.093C55.959 116.073 55.9179 116.031 55.8767 115.969C55.8356 115.928 55.8149 115.845 55.8149 115.783V111.953C55.8149 111.87 55.8561 111.787 55.9178 111.725C55.9795 111.663 56.0619 111.621 56.1442 111.621C56.1853 111.621 56.2265 111.642 56.2676 111.642C56.3088 111.663 56.3499 111.684 56.3705 111.704C56.3911 111.746 56.4322 111.787 56.4322 111.808C56.4528 111.849 56.4528 111.891 56.4528 111.932V115.762C56.4528 115.803 56.4322 115.865 56.4116 115.907C56.391 115.948 56.3499 115.99 56.3087 116.01C56.2676 116.031 56.2059 116.052 56.1647 116.052C56.1236 116.114 56.0618 116.114 56.0207 116.093ZM56.0207 108.413C55.959 108.392 55.9179 108.35 55.8767 108.288C55.8356 108.247 55.8149 108.185 55.8149 108.123V104.272C55.8149 104.189 55.8561 104.127 55.9178 104.065C55.9795 104.024 56.0619 103.982 56.1442 103.982C56.2265 103.982 56.3088 104.003 56.3705 104.065C56.4322 104.127 56.4734 104.189 56.4734 104.272V108.123C56.4734 108.206 56.4322 108.288 56.3705 108.35C56.3088 108.413 56.2265 108.454 56.1442 108.454C56.103 108.433 56.0618 108.433 56.0207 108.413ZM56.0413 100.753C55.9796 100.732 55.9384 100.69 55.8972 100.649C55.8561 100.608 55.8355 100.525 55.8355 100.463V96.612C55.8355 96.5292 55.8767 96.4464 55.9384 96.3843C56.0001 96.3222 56.0825 96.2808 56.1647 96.2808C56.247 96.2808 56.3294 96.3015 56.3911 96.3843C56.4528 96.4464 56.494 96.5292 56.494 96.612V100.463C56.494 100.504 56.4733 100.566 56.4528 100.608C56.4322 100.649 56.391 100.69 56.3499 100.732C56.3088 100.753 56.247 100.773 56.2058 100.773C56.1441 100.773 56.0824 100.773 56.0413 100.753Z" fill="#110580"/>
<path d="M56.0414 93.0722C55.9797 93.0515 55.9385 93.0101 55.8974 92.948C55.8562 92.9066 55.8357 92.8445 55.8357 92.7824V90.5051H58.0783C58.1194 90.5051 58.1606 90.5051 58.2018 90.5258C58.2429 90.5466 58.2841 90.5672 58.3046 90.5879C58.3252 90.6086 58.3663 90.65 58.3663 90.6914C58.3869 90.7328 58.3869 90.7743 58.3869 90.8157C58.3869 90.8571 58.3869 90.8985 58.3663 90.9399C58.3457 90.9813 58.3252 91.0227 58.3046 91.0434C58.2841 91.0641 58.2429 91.1055 58.2018 91.1055C58.1606 91.1262 58.1194 91.1262 58.0783 91.1262H56.4941V92.741C56.4941 92.7824 56.4941 92.8238 56.4735 92.8652C56.4529 92.9066 56.4323 92.948 56.4117 92.9687C56.3912 92.9894 56.35 93.0308 56.3089 93.0308C56.2677 93.0515 56.2266 93.0515 56.1855 93.0515C56.1238 93.1136 56.0826 93.0929 56.0414 93.0722Z" fill="#110580"/>
<path d="M62.0489 91.1469C61.9871 91.1262 61.9253 91.0641 61.8842 91.002C61.8431 90.9399 61.843 90.857 61.8636 90.7742C61.8842 90.6914 61.9253 90.6293 61.9665 90.5879C62.0282 90.5465 62.0899 90.5051 62.1722 90.5051H66.2666C66.3489 90.5051 66.4312 90.5465 66.4724 90.6086C66.5341 90.6707 66.5547 90.7536 66.5547 90.8364C66.5547 90.9192 66.5341 91.0019 66.4724 91.064C66.4107 91.1261 66.3489 91.1676 66.2666 91.1676H62.1722C62.1311 91.1676 62.09 91.1676 62.0489 91.1469ZM70.2169 91.1469C70.1552 91.1262 70.0935 91.0641 70.0523 91.002C70.0112 90.9399 70.0112 90.857 70.0317 90.7742C70.0523 90.6914 70.0935 90.6293 70.1346 90.5879C70.1963 90.5465 70.2581 90.5051 70.3404 90.5051H74.4347C74.4758 90.5051 74.517 90.5051 74.5787 90.5258C74.6199 90.5466 74.661 90.5672 74.7022 90.5879C74.7433 90.6086 74.7639 90.65 74.7845 90.6914C74.8051 90.7328 74.8051 90.7743 74.8051 90.8157C74.8051 90.8571 74.8051 90.8985 74.7845 90.9399C74.7639 90.9813 74.7433 91.0227 74.7022 91.0434C74.661 91.0641 74.6199 91.1055 74.5787 91.1055C74.5376 91.1262 74.4964 91.1262 74.4347 91.1262H70.3404C70.3198 91.1676 70.258 91.1676 70.2169 91.1469ZM78.4056 91.1469C78.3439 91.1262 78.3027 91.0848 78.2616 91.0227C78.2204 90.9813 78.1999 90.9191 78.1999 90.857C78.1999 90.8156 78.1998 90.7743 78.2204 90.7329C78.2409 90.6915 78.2616 90.6501 78.2822 90.6294C78.3027 90.6087 78.3439 90.5672 78.385 90.5672C78.4262 90.5465 78.4673 90.5465 78.5085 90.5465H82.6028C82.6851 90.5465 82.7674 90.5879 82.8085 90.65C82.8703 90.7121 82.8908 90.7949 82.8908 90.8777C82.8908 90.9605 82.8703 91.0434 82.8085 91.1055C82.7468 91.1676 82.6851 91.209 82.6028 91.209H78.5085C78.4879 91.1883 78.4468 91.1676 78.4056 91.1469ZM86.5736 91.1469C86.5119 91.1262 86.4708 91.0848 86.4297 91.0227C86.3885 90.9606 86.3679 90.9191 86.3679 90.857C86.3679 90.7742 86.4091 90.6915 86.4708 90.6294C86.5325 90.5673 86.6148 90.5258 86.6971 90.5258H90.7914C90.8737 90.5258 90.956 90.5673 91.0178 90.6294C91.0795 90.6915 91.1206 90.7742 91.1206 90.857C91.1206 90.9398 91.0795 91.0227 91.0178 91.0848C90.956 91.1469 90.8737 91.1883 90.7914 91.1883H86.6971C86.656 91.1883 86.6148 91.1676 86.5736 91.1469Z" fill="#110580"/>
<path d="M96.6755 93.1139C96.6137 93.0932 96.5726 93.0518 96.5314 92.9897C96.4903 92.9483 96.4697 92.8861 96.4697 92.824V91.2092H94.8854C94.8443 91.2092 94.8032 91.2092 94.7415 91.1885C94.6798 91.1678 94.6592 91.1471 94.618 91.1264C94.5769 91.1057 94.5563 91.0643 94.5357 91.0229C94.5152 90.9815 94.5151 90.9401 94.5151 90.8987C94.5151 90.8573 94.5152 90.8158 94.5357 90.7744C94.5563 90.733 94.5769 90.6916 94.618 90.6709C94.6592 90.6502 94.7003 90.6089 94.7415 90.6089C94.7826 90.6089 94.8237 90.5881 94.8854 90.5881H97.1281V92.8654C97.1281 92.9275 97.1075 92.969 97.087 93.0104C97.0664 93.0518 97.0252 93.0931 96.9841 93.1345C96.9429 93.1552 96.8812 93.176 96.84 93.176C96.7783 93.1346 96.7166 93.1346 96.6755 93.1139Z" fill="#110580"/>
<path d="M96.676 116.114C96.6142 116.094 96.573 116.052 96.5319 115.99C96.4907 115.928 96.4702 115.887 96.4702 115.804V111.953C96.4702 111.87 96.5114 111.788 96.5731 111.726C96.6348 111.663 96.7171 111.622 96.7994 111.622C96.8817 111.622 96.964 111.663 97.0258 111.726C97.0875 111.788 97.1286 111.87 97.1286 111.953V115.783C97.1286 115.825 97.108 115.887 97.0875 115.928C97.0669 115.97 97.0257 116.011 96.9846 116.052C96.9434 116.073 96.8817 116.094 96.8405 116.094C96.7788 116.135 96.7171 116.114 96.676 116.114ZM96.676 108.434C96.6142 108.413 96.573 108.372 96.5319 108.31C96.4907 108.268 96.4702 108.206 96.4702 108.123V104.293C96.4702 104.252 96.4702 104.19 96.4908 104.148C96.5114 104.107 96.5319 104.066 96.5525 104.024C96.5731 104.003 96.6142 103.962 96.6554 103.941C96.6965 103.921 96.7377 103.921 96.7788 103.921C96.82 103.921 96.8612 103.941 96.9023 103.941C96.9435 103.962 96.9846 103.983 97.0052 104.024C97.0258 104.066 97.0669 104.107 97.0669 104.148C97.0874 104.19 97.0875 104.231 97.0875 104.293V108.123C97.0875 108.206 97.0463 108.289 96.9846 108.351C96.9229 108.413 96.8405 108.454 96.7582 108.454C96.7582 108.475 96.7171 108.455 96.676 108.434ZM96.676 100.774C96.6142 100.753 96.573 100.712 96.5319 100.65C96.4907 100.608 96.4702 100.525 96.4702 100.463V96.6126C96.4702 96.5298 96.5114 96.4469 96.5731 96.4055C96.6348 96.3434 96.7171 96.3228 96.7994 96.3228C96.8817 96.3228 96.964 96.3434 97.0258 96.4055C97.0875 96.4469 97.1286 96.5298 97.1286 96.6126V100.443C97.1286 100.484 97.1286 100.525 97.1081 100.567C97.0875 100.608 97.0668 100.65 97.0463 100.67C97.0257 100.691 96.9845 100.732 96.9434 100.753C96.9022 100.774 96.8612 100.774 96.82 100.774C96.7583 100.795 96.7171 100.795 96.676 100.774Z" fill="#110580"/>
<path d="M168.008 47.8577H123.238C121.448 47.8577 119.72 48.5822 118.444 49.8658C117.168 51.1493 116.469 52.8884 116.469 54.7103H116.448C116.448 52.8884 115.728 51.1493 114.473 49.8658C113.198 48.5822 111.49 47.8577 109.679 47.8577H64.9092C64.6829 47.8577 64.4565 47.9611 64.2919 48.1268C64.1273 48.2924 64.0244 48.5201 64.0244 48.7686V105.535C64.0244 105.763 64.1273 105.991 64.2919 106.177C64.4565 106.343 64.6829 106.426 64.9092 106.426H111.099C111.593 107.378 112.333 108.144 113.239 108.703C114.144 109.241 115.173 109.531 116.243 109.552H116.695C117.745 109.552 118.773 109.262 119.699 108.703C120.604 108.165 121.345 107.378 121.859 106.446H168.029C168.255 106.446 168.481 106.343 168.646 106.177C168.811 106.011 168.913 105.784 168.913 105.535V48.7893C168.913 48.6651 168.893 48.5408 168.852 48.4373C168.811 48.3338 168.749 48.2303 168.667 48.1475C168.584 48.0647 168.481 48.0026 168.379 47.9405C168.235 47.8991 168.111 47.8577 168.008 47.8577Z" fill="#4E53BA"/>
<path d="M164.634 50.197H122.579C120.954 50.197 119.39 50.8388 118.259 51.9982C117.106 53.1575 116.469 54.7309 116.469 56.3665H116.448C116.448 55.559 116.283 54.7516 115.975 54.0063C115.666 53.261 115.214 52.5778 114.658 51.9982C114.082 51.4185 113.424 50.963 112.683 50.6525C111.942 50.342 111.14 50.1763 110.337 50.1763H68.2831C68.1802 50.1763 68.0774 50.197 67.9745 50.2384C67.8716 50.2798 67.7894 50.3419 67.7071 50.404C67.6248 50.4868 67.5835 50.5697 67.5424 50.6732C67.5012 50.7767 67.4807 50.8802 67.4807 50.9838V102.244C67.4807 102.347 67.5012 102.451 67.5424 102.554C67.5835 102.658 67.6453 102.74 67.7071 102.823C67.7894 102.906 67.8716 102.968 67.9745 103.01C68.0774 103.051 68.1802 103.072 68.2831 103.072H111.613C112.066 103.92 112.745 104.624 113.547 105.101C114.37 105.597 115.296 105.867 116.242 105.867H116.654C117.6 105.867 118.526 105.597 119.349 105.101C120.172 104.604 120.831 103.9 121.283 103.072H164.613C164.819 103.072 165.025 102.989 165.169 102.844C165.313 102.699 165.395 102.492 165.395 102.264V50.9838C165.395 50.8802 165.374 50.7767 165.333 50.6732C165.292 50.5697 165.23 50.4868 165.169 50.404C165.086 50.3212 165.004 50.2798 164.901 50.2384C164.839 50.2177 164.737 50.197 164.634 50.197Z" fill="#32378F"/>
<path d="M122.991 41.8328H163.297C163.523 41.8328 163.749 41.9156 163.893 42.0812C164.058 42.2469 164.14 42.4539 164.14 42.6816V100.835C164.14 101.063 164.058 101.291 163.893 101.457C163.729 101.622 163.523 101.705 163.297 101.705H119.72C119.288 101.705 118.876 101.622 118.465 101.457C118.074 101.291 117.703 101.042 117.415 100.753C117.107 100.442 116.88 100.09 116.716 99.6761C116.551 99.2827 116.469 98.8479 116.469 98.4132V48.4162C116.469 46.6564 117.148 44.9795 118.382 43.7581C119.596 42.5159 121.263 41.8328 122.991 41.8328Z" fill="#F5F5FA"/>
<path d="M113.197 101.705H69.6412C69.4149 101.705 69.1886 101.622 69.0445 101.457C68.8799 101.291 68.7976 101.063 68.7976 100.835V42.6816C68.7976 42.4539 68.8799 42.2262 69.0445 42.0812C69.2091 41.9156 69.4149 41.8328 69.6412 41.8328H109.947C111.675 41.8328 113.341 42.5366 114.576 43.7581C115.81 45.0002 116.489 46.6772 116.489 48.4162V98.4132C116.489 98.8479 116.407 99.2827 116.243 99.6761C116.078 100.09 115.831 100.442 115.543 100.753C115.234 101.063 114.885 101.291 114.494 101.477C114.041 101.622 113.63 101.726 113.197 101.705Z" fill="white"/>
<path d="M78.2415 70.5481C80.0726 70.5481 81.554 69.0575 81.554 67.1942C81.554 65.331 80.0726 63.8403 78.2415 63.8403C76.4103 63.8403 74.929 65.331 74.929 67.1942C74.929 69.0575 76.4103 70.5481 78.2415 70.5481Z" fill="#E8E8F7"/>
<path d="M107.951 64.937H85.1957C84.8048 64.937 84.4961 65.2475 84.4961 65.6409C84.4961 66.0342 84.8048 66.3448 85.1957 66.3448H107.951C108.342 66.3448 108.651 66.0342 108.651 65.6409C108.651 65.2475 108.321 64.937 107.951 64.937Z" fill="#E8E8F7"/>
<path d="M100.894 68.1672H85.1749C84.7839 68.1672 84.4753 68.4778 84.4753 68.8711C84.4753 69.2645 84.7839 69.575 85.1749 69.575H100.894C101.285 69.575 101.593 69.2645 101.593 68.8711C101.593 68.4985 101.285 68.1672 100.894 68.1672Z" fill="#E8E8F7"/>
<path d="M78.2415 93.3619C80.0726 93.3619 81.554 91.8714 81.554 90.0082C81.554 88.1656 80.0726 86.6543 78.2415 86.6543C76.4103 86.6543 74.929 88.1449 74.929 90.0082C74.929 91.8507 76.4103 93.3619 78.2415 93.3619Z" fill="#E8E8F7"/>
<path d="M107.951 90.9812H85.1957C84.8048 90.9812 84.4961 91.2917 84.4961 91.6851C84.4961 92.0784 84.8048 92.389 85.1957 92.389H107.951C108.342 92.389 108.651 92.0784 108.651 91.6851C108.63 91.2917 108.321 90.9812 107.951 90.9812Z" fill="#E8E8F7"/>
<path d="M100.894 87.7517H85.1749C84.7839 87.7517 84.4753 88.0623 84.4753 88.4557C84.4753 88.849 84.7839 89.1595 85.1749 89.1595H100.894C101.285 89.1595 101.593 88.849 101.593 88.4557C101.593 88.0623 101.285 87.7517 100.894 87.7517Z" fill="#E8E8F7"/>
<path d="M78.2415 81.9555C80.0726 81.9555 81.554 80.4649 81.554 78.6017C81.554 76.7591 80.0726 75.2478 78.2415 75.2478C76.4103 75.2478 74.929 76.7384 74.929 78.6017C74.929 80.4649 76.4103 81.9555 78.2415 81.9555Z" fill="#E8E8F7"/>
<path d="M107.951 79.5737H85.1957C84.8048 79.5737 84.4961 79.8844 84.4961 80.2777C84.4961 80.6711 84.8048 80.9816 85.1957 80.9816H107.951C108.342 80.9816 108.651 80.6711 108.651 80.2777C108.651 79.8844 108.321 79.5737 107.951 79.5737Z" fill="#E8E8F7"/>
<path d="M104.412 76.3442H85.1749C84.7839 76.3442 84.4753 76.6548 84.4753 77.0481C84.4753 77.4415 84.7839 77.752 85.1749 77.752H104.412C104.803 77.752 105.112 77.4415 105.112 77.0481C105.112 76.6548 104.803 76.3442 104.412 76.3442Z" fill="#E8E8F7"/>
<path d="M126.694 70.5481C128.525 70.5481 130.007 69.0575 130.007 67.1942C130.007 65.331 128.525 63.8403 126.694 63.8403C124.863 63.8403 123.382 65.331 123.382 67.1942C123.382 69.0575 124.863 70.5481 126.694 70.5481Z" fill="#C5C6E3"/>
<path d="M156.384 79.6157H133.628C133.237 79.6157 132.929 79.9262 132.929 80.3196C132.929 80.7129 133.237 81.0235 133.628 81.0235H156.384C156.775 81.0235 157.083 80.7129 157.083 80.3196C157.083 79.9262 156.775 79.6157 156.384 79.6157Z" fill="#C5C6E3"/>
<path d="M149.347 76.3652H133.628C133.237 76.3652 132.929 76.6759 132.929 77.0692C132.929 77.4626 133.237 77.7731 133.628 77.7731H149.347C149.738 77.7731 150.047 77.4626 150.047 77.0692C150.047 76.6759 149.738 76.3652 149.347 76.3652Z" fill="#C5C6E3"/>
<path d="M126.694 93.3619C128.525 93.3619 130.007 91.8714 130.007 90.0082C130.007 88.1656 128.525 86.6543 126.694 86.6543C124.863 86.6543 123.382 88.1449 123.382 90.0082C123.382 91.8507 124.863 93.3619 126.694 93.3619Z" fill="#C5C6E3"/>
<path d="M156.384 64.937H133.628C133.237 64.937 132.929 65.2475 132.929 65.6409C132.929 66.0342 133.237 66.3448 133.628 66.3448H156.384C156.775 66.3448 157.083 66.0342 157.083 65.6409C157.083 65.2475 156.775 64.937 156.384 64.937Z" fill="#C5C6E3"/>
<path d="M149.347 68.1672H133.628C133.237 68.1672 132.929 68.4778 132.929 68.8711C132.929 69.2645 133.237 69.575 133.628 69.575H149.347C149.738 69.575 150.047 69.2645 150.047 68.8711C150.047 68.4985 149.738 68.1672 149.347 68.1672Z" fill="#C5C6E3"/>
<path d="M126.694 81.9555C128.525 81.9555 130.007 80.4649 130.007 78.6017C130.007 76.7591 128.525 75.2478 126.694 75.2478C124.863 75.2478 123.382 76.7384 123.382 78.6017C123.382 80.4649 124.863 81.9555 126.694 81.9555Z" fill="#C5C6E3"/>
<path d="M156.384 87.7935H133.628C133.237 87.7935 132.929 88.104 132.929 88.4973C132.929 88.8907 133.237 89.2012 133.628 89.2012H156.384C156.775 89.2012 157.083 88.8907 157.083 88.4973C157.083 88.104 156.775 87.7935 156.384 87.7935Z" fill="#C5C6E3"/>
<path d="M152.865 91.0439H133.628C133.237 91.0439 132.929 91.3545 132.929 91.7478C132.929 92.1412 133.237 92.4517 133.628 92.4517H152.865C153.256 92.4517 153.565 92.1412 153.565 91.7478C153.565 91.3545 153.256 91.0439 152.865 91.0439Z" fill="#C5C6E3"/>
<path d="M96.0793 47.5267C94.4333 49.4314 92.9108 51.4396 91.5323 53.5305C90.8122 52.5161 89.7217 51.8329 88.5284 51.5845C87.8494 51.4603 86.9854 51.4603 86.5327 51.895C86.4504 51.9571 86.3681 52.04 86.2858 52.1228C85.792 52.5989 85.5451 53.4477 86.3475 53.9653C86.9853 54.3587 87.582 54.607 88.0552 55.1453C88.6725 55.9113 89.1457 56.7601 89.4955 57.6711C90.1333 59.1617 92.7462 59.2237 93.3223 57.8366C94.6803 54.607 96.2645 51.481 98.0339 48.4584C98.61 47.506 96.8611 46.6365 96.0793 47.5267Z" fill="#07C98B"/>
<path d="M144.327 47.1329C141.159 49.0996 138.34 51.6874 136.468 54.8342C135.994 55.6416 135.974 56.7596 136.241 57.6291C136.406 58.188 136.817 58.9955 137.393 58.333C139.718 55.7245 142.043 53.2401 144.883 51.1077C145.788 50.4245 145.376 46.4704 144.327 47.1329Z" fill="#F23C49"/>
<path d="M135.726 51.6047C138.73 53.9027 141.96 55.5589 144.244 58.6229C144.779 59.3475 145.293 58.5193 145.437 58.0018C145.725 57.008 145.684 55.9522 145.293 54.9999C143.647 51.4183 139.944 48.7683 136.076 47.5883C134.656 47.1742 134.924 50.9836 135.726 51.6047Z" fill="#F23C49"/>
<path d="M108.466 35.1877C108.425 35.1877 108.404 35.1877 108.363 35.1877C108.301 35.167 108.239 35.1256 108.219 35.0635C108.178 35.0014 108.178 34.9393 108.198 34.8772C108.342 34.3803 108.527 33.8835 108.774 33.4073C108.816 33.3452 108.857 33.3039 108.918 33.2832C108.98 33.2625 109.062 33.2624 109.104 33.3038C109.165 33.3452 109.206 33.3866 109.227 33.4487C109.248 33.5108 109.248 33.5936 109.206 33.635C108.98 34.0698 108.795 34.5253 108.671 34.9807C108.651 35.0221 108.63 35.0635 108.589 35.105C108.569 35.1464 108.527 35.167 108.466 35.1877Z" fill="#110580"/>
<path d="M150.704 45.1664C150.684 45.1664 150.643 45.1664 150.602 45.1664L150.231 45.0836C149.388 44.8766 148.503 44.6902 147.577 44.4418C147.515 44.4211 147.474 44.3796 147.433 44.3175C147.413 44.2554 147.392 44.1933 147.413 44.1312C147.433 44.0691 147.474 44.007 147.515 43.9863C147.577 43.9449 147.639 43.9449 147.701 43.9449C148.626 44.1934 149.491 44.4003 150.355 44.5866L150.725 44.6695C150.787 44.6902 150.848 44.7316 150.89 44.7937C150.931 44.8558 150.931 44.918 150.931 44.9801C150.91 45.0215 150.89 45.0835 150.848 45.1042C150.807 45.1456 150.766 45.1664 150.704 45.1664ZM144.717 43.5309C144.676 43.5309 144.635 43.5309 144.594 43.5309C143.606 43.1789 142.639 42.7649 141.713 42.2887C141.652 42.2473 141.61 42.2059 141.61 42.1438C141.59 42.0816 141.61 42.0196 141.631 41.9575C141.652 41.8953 141.713 41.8539 141.775 41.8332C141.837 41.8125 141.899 41.8125 141.96 41.8332C142.866 42.2887 143.812 42.7027 144.779 43.0339C144.82 43.0546 144.841 43.0547 144.861 43.0961C144.882 43.1168 144.902 43.1375 144.923 43.1789C144.944 43.1996 144.944 43.241 144.944 43.2824C144.944 43.3238 144.944 43.3445 144.923 43.3859C144.902 43.4273 144.882 43.4687 144.841 43.4894C144.8 43.4894 144.758 43.5102 144.717 43.5309ZM139.265 40.6325C139.224 40.6325 139.203 40.6325 139.162 40.6325C139.121 40.6325 139.1 40.6118 139.08 40.5911C138.236 39.9493 137.475 39.2247 136.796 38.4173C136.755 38.3759 136.734 38.2931 136.734 38.231C136.734 38.1689 136.775 38.1068 136.817 38.0447C136.858 38.0033 136.94 37.9825 137.002 37.9825C137.064 37.9825 137.125 38.0239 137.166 38.0653C137.825 38.852 138.565 39.5559 139.368 40.177C139.388 40.1977 139.409 40.2184 139.43 40.2598C139.45 40.2805 139.45 40.3219 139.471 40.3633C139.471 40.4047 139.471 40.4254 139.471 40.4668C139.471 40.5082 139.45 40.5289 139.43 40.5496C139.409 40.5703 139.388 40.5911 139.347 40.6118C139.327 40.6118 139.286 40.6325 139.265 40.6325ZM135.253 35.9122C135.212 35.9122 135.15 35.9122 135.109 35.8915C135.068 35.8708 135.027 35.8294 135.006 35.788C134.512 34.8564 134.121 33.8627 133.833 32.8275C133.833 32.7861 133.813 32.7654 133.833 32.724C133.833 32.6826 133.854 32.6619 133.854 32.6205C133.874 32.5998 133.895 32.5584 133.916 32.5377C133.936 32.517 133.977 32.4963 133.998 32.4963C134.06 32.4756 134.142 32.4963 134.183 32.517C134.245 32.5584 134.286 32.5999 134.307 32.662C134.574 33.6557 134.965 34.608 135.438 35.4982C135.479 35.5603 135.479 35.6224 135.459 35.6845C135.438 35.7466 135.397 35.8087 135.335 35.8294C135.315 35.8915 135.294 35.8915 135.253 35.9122ZM136.487 32.3928C135.911 32.4756 135.335 32.517 134.759 32.4963C134.697 32.4963 134.636 32.4756 134.574 32.4135C134.533 32.3721 134.492 32.2893 134.492 32.2272C134.492 32.1651 134.512 32.103 134.574 32.0409C134.615 31.9995 134.677 31.958 134.759 31.958C135.315 31.958 135.87 31.9373 136.405 31.8545C136.858 31.7924 137.31 31.7096 137.742 31.5854C137.784 31.5854 137.804 31.5647 137.845 31.5854C137.887 31.5854 137.907 31.6061 137.948 31.6268C137.969 31.6475 138.01 31.6682 138.031 31.6889C138.051 31.7096 138.072 31.751 138.072 31.7717C138.072 31.8131 138.092 31.8338 138.072 31.8752C138.072 31.9166 138.051 31.9373 138.051 31.9787C138.031 31.9994 138.01 32.0408 137.989 32.0615C137.969 32.0822 137.928 32.103 137.907 32.103C137.434 32.2479 136.961 32.3307 136.487 32.3928ZM131.735 32.1444C131.714 32.1444 131.673 32.1444 131.652 32.1444C130.768 31.9581 129.821 31.7096 128.628 31.3163C128.566 31.2956 128.546 31.2335 128.505 31.1921C128.484 31.1299 128.484 31.0678 128.505 31.0264C128.525 30.9643 128.566 30.9229 128.607 30.8815C128.649 30.8401 128.71 30.8401 128.772 30.8401C129.945 31.2127 130.871 31.4611 131.735 31.6475C131.796 31.6682 131.858 31.6889 131.879 31.7303C131.92 31.7718 131.94 31.8338 131.94 31.8959C131.94 31.958 131.92 32.0201 131.879 32.0615C131.838 32.1236 131.776 32.1444 131.735 32.1444ZM140.664 30.778C140.623 30.778 140.582 30.778 140.541 30.7573C140.5 30.7366 140.458 30.7159 140.438 30.6745C140.397 30.6124 140.376 30.5503 140.397 30.4882C140.397 30.4261 140.438 30.3639 140.499 30.3225C140.932 30.012 141.322 29.6394 141.652 29.2253C141.94 28.8734 142.187 28.4593 142.372 28.0452C142.392 27.9831 142.454 27.9418 142.516 27.9003C142.577 27.8796 142.66 27.8796 142.721 27.9003C142.783 27.9211 142.824 27.9831 142.866 28.0452C142.886 28.1073 142.886 28.1901 142.866 28.2522C142.66 28.7284 142.392 29.1632 142.063 29.5566C141.693 29.9913 141.281 30.3846 140.829 30.7366C140.746 30.7573 140.705 30.778 140.664 30.778ZM133.648 29.9084H133.607C133.566 29.9084 133.545 29.9084 133.504 29.8877C133.463 29.867 133.442 29.8464 133.422 29.8257C133.401 29.805 133.381 29.7843 133.36 29.7429C133.339 29.7222 133.34 29.6808 133.34 29.6394C133.319 28.5628 133.463 27.4862 133.813 26.4718C133.833 26.4097 133.874 26.3476 133.936 26.3269C133.998 26.3062 134.06 26.2855 134.121 26.3062C134.183 26.3269 134.245 26.3683 134.265 26.4304C134.286 26.4925 134.306 26.5547 134.286 26.6375C133.977 27.6105 133.813 28.6249 133.833 29.6601C133.833 29.7222 133.813 29.7843 133.772 29.8257C133.751 29.8878 133.71 29.9084 133.648 29.9084ZM125.789 30.3432C125.748 30.3432 125.706 30.3432 125.686 30.3432C125.336 30.2397 124.986 30.1155 124.657 30.012C123.978 29.8049 123.34 29.6393 122.723 29.4944C122.661 29.4737 122.6 29.4323 122.558 29.3702C122.517 29.3081 122.517 29.246 122.517 29.1839C122.517 29.1424 122.538 29.1218 122.558 29.1011C122.579 29.0804 122.6 29.0597 122.641 29.039C122.661 29.0183 122.703 29.0183 122.744 28.9976C122.785 28.9976 122.805 28.9976 122.847 28.9976C123.464 29.1425 124.122 29.3288 124.801 29.5358C125.151 29.6394 125.501 29.7429 125.85 29.8671C125.912 29.8878 125.953 29.9292 125.994 29.9706C126.036 30.012 126.036 30.0741 126.036 30.1362C126.036 30.1983 126.015 30.2397 125.974 30.3018C125.892 30.3225 125.85 30.3432 125.789 30.3432ZM111.016 31.3576C110.975 31.3576 110.934 31.3576 110.893 31.3369C110.852 31.3162 110.81 31.2955 110.79 31.2541C110.769 31.2334 110.749 31.192 110.749 31.1713C110.749 31.1506 110.728 31.1092 110.749 31.0678C110.749 31.0264 110.769 31.0057 110.769 30.9643C110.79 30.9436 110.81 30.9022 110.831 30.8815C111.654 30.1983 112.559 29.6394 113.547 29.246C113.567 29.2253 113.609 29.2253 113.65 29.2253C113.691 29.2253 113.711 29.2253 113.753 29.246C113.773 29.2667 113.814 29.2874 113.835 29.3081C113.855 29.3288 113.876 29.3702 113.897 29.3909C113.917 29.453 113.917 29.5358 113.897 29.5979C113.876 29.66 113.814 29.7015 113.753 29.7429C112.827 30.1155 111.942 30.6538 111.181 31.2956C111.098 31.337 111.057 31.3576 111.016 31.3576ZM119.76 28.9768C119.74 28.9768 119.719 28.9768 119.699 28.9768C118.69 28.8733 117.662 28.894 116.654 28.9976C116.592 28.9976 116.53 28.9769 116.489 28.9355C116.448 28.8941 116.407 28.8319 116.407 28.7698C116.407 28.7077 116.407 28.6456 116.448 28.5835C116.489 28.5214 116.53 28.5007 116.592 28.48C117.641 28.3765 118.69 28.3765 119.74 28.48C119.801 28.48 119.863 28.5214 119.904 28.5628C119.945 28.6249 119.966 28.687 119.966 28.7491C119.966 28.8112 119.925 28.8526 119.884 28.894C119.843 28.9561 119.802 28.9975 119.76 28.9768ZM143.03 25.3331C142.968 25.3331 142.907 25.3332 142.845 25.2918C142.783 25.2504 142.763 25.1882 142.742 25.1261C142.619 24.3187 142.207 23.5941 141.59 23.0766C141.466 22.973 141.322 22.8903 141.178 22.8075C141.137 22.7661 141.117 22.7246 141.096 22.6625C141.096 22.6004 141.096 22.559 141.117 22.4969C141.137 22.4348 141.178 22.4141 141.24 22.3934C141.281 22.3727 141.343 22.3727 141.405 22.3727C141.569 22.4762 141.713 22.5797 141.878 22.6832C142.598 23.2836 143.071 24.1117 143.236 25.0433C143.256 25.1054 143.236 25.1675 143.195 25.2296C143.133 25.271 143.071 25.3124 143.03 25.3331ZM135.685 24.1531C135.644 24.1531 135.603 24.1531 135.562 24.1324C135.52 24.1117 135.5 24.0911 135.459 24.0704C135.438 24.0496 135.418 24.0082 135.397 23.9875C135.376 23.9461 135.376 23.9254 135.376 23.8839C135.376 23.8425 135.376 23.8218 135.397 23.7804C135.418 23.739 135.438 23.7183 135.459 23.6976C136.22 22.9316 137.146 22.352 138.195 22.0414C138.236 22.0414 138.257 22.0207 138.298 22.0414C138.339 22.0414 138.36 22.0622 138.401 22.0622C138.421 22.0829 138.463 22.1035 138.483 22.1242C138.504 22.1449 138.524 22.1864 138.524 22.2071C138.524 22.2485 138.545 22.2692 138.524 22.3106C138.524 22.352 138.504 22.3727 138.504 22.4141C138.483 22.4348 138.463 22.4762 138.442 22.4969C138.421 22.5176 138.38 22.5383 138.36 22.5383C137.413 22.8281 136.529 23.3457 135.85 24.0496C135.767 24.1324 135.726 24.1531 135.685 24.1531Z" fill="#110580"/>
<path d="M155.087 46.6367C155.026 46.6367 154.964 46.6366 154.902 46.5952C154.491 46.3261 154.059 46.1191 153.606 45.9741C153.565 45.9741 153.544 45.9534 153.503 45.9327C153.483 45.912 153.462 45.8913 153.441 45.8499C153.421 45.8085 153.421 45.7878 153.421 45.7464C153.421 45.705 153.421 45.6843 153.441 45.6429C153.462 45.6015 153.462 45.5808 153.503 45.5601C153.524 45.5394 153.565 45.5187 153.586 45.498C153.627 45.4773 153.647 45.4773 153.688 45.4773C153.73 45.4773 153.75 45.4773 153.791 45.498C154.285 45.6636 154.758 45.8706 155.211 46.1604C155.231 46.1811 155.273 46.2019 155.273 46.2226C155.293 46.2433 155.293 46.2847 155.314 46.3054C155.314 46.3468 155.314 46.3675 155.314 46.4089C155.314 46.4503 155.293 46.471 155.273 46.4917C155.252 46.5331 155.231 46.5538 155.19 46.5745C155.149 46.6159 155.108 46.6367 155.087 46.6367Z" fill="#110580"/>
</svg>
