<svg xmlns="http://www.w3.org/2000/svg" width="24" height="24" viewBox="0 0 24 24" fill="none">
<path d="M12.0007 0.333496C15.1705 0.333496 15.566 0.345163 16.8097 0.403496C18.0522 0.461829 18.898 0.656663 19.6423 0.945996C20.4123 1.24233 21.061 1.64366 21.7097 2.29116C22.3029 2.87437 22.7619 3.57985 23.0548 4.3585C23.343 5.10166 23.539 5.94866 23.5973 7.19116C23.6522 8.43483 23.6673 8.83033 23.6673 12.0002C23.6673 15.17 23.6557 15.5655 23.5973 16.8092C23.539 18.0517 23.343 18.8975 23.0548 19.6418C22.7628 20.4209 22.3036 21.1266 21.7097 21.7092C21.1263 22.3022 20.4208 22.7612 19.6423 23.0543C18.8992 23.3425 18.0522 23.5385 16.8097 23.5968C15.566 23.6517 15.1705 23.6668 12.0007 23.6668C8.83082 23.6668 8.43532 23.6552 7.19165 23.5968C5.94915 23.5385 5.10332 23.3425 4.35898 23.0543C3.58003 22.7621 2.87443 22.3029 2.29165 21.7092C1.69829 21.126 1.23924 20.4205 0.946485 19.6418C0.657151 18.8987 0.462318 18.0517 0.403984 16.8092C0.349151 15.5655 0.333984 15.17 0.333984 12.0002C0.333984 8.83033 0.345651 8.43483 0.403984 7.19116C0.462318 5.9475 0.657151 5.10283 0.946485 4.3585C1.23843 3.57937 1.69759 2.8737 2.29165 2.29116C2.8746 1.6976 3.58015 1.23851 4.35898 0.945996C5.10332 0.656663 5.94798 0.461829 7.19165 0.403496C8.43532 0.348663 8.83082 0.333496 12.0007 0.333496ZM12.0007 6.16683C10.4536 6.16683 8.96982 6.78141 7.87586 7.87537C6.7819 8.96934 6.16732 10.4531 6.16732 12.0002C6.16732 13.5473 6.7819 15.031 7.87586 16.125C8.96982 17.2189 10.4536 17.8335 12.0007 17.8335C13.5477 17.8335 15.0315 17.2189 16.1254 16.125C17.2194 15.031 17.834 13.5473 17.834 12.0002C17.834 10.4531 17.2194 8.96934 16.1254 7.87537C15.0315 6.78141 13.5477 6.16683 12.0007 6.16683ZM19.584 5.87516C19.584 5.48839 19.4303 5.11746 19.1569 4.84397C18.8834 4.57048 18.5124 4.41683 18.1257 4.41683C17.7389 4.41683 17.3679 4.57048 17.0945 4.84397C16.821 5.11746 16.6673 5.48839 16.6673 5.87516C16.6673 6.26194 16.821 6.63287 17.0945 6.90636C17.3679 7.17985 17.7389 7.3335 18.1257 7.3335C18.5124 7.3335 18.8834 7.17985 19.1569 6.90636C19.4303 6.63287 19.584 6.26194 19.584 5.87516ZM12.0007 8.50016C12.9289 8.50016 13.8191 8.86891 14.4755 9.52529C15.1319 10.1817 15.5007 11.0719 15.5007 12.0002C15.5007 12.9284 15.1319 13.8187 14.4755 14.475C13.8191 15.1314 12.9289 15.5002 12.0007 15.5002C11.0724 15.5002 10.1822 15.1314 9.52578 14.475C8.8694 13.8187 8.50065 12.9284 8.50065 12.0002C8.50065 11.0719 8.8694 10.1817 9.52578 9.52529C10.1822 8.86891 11.0724 8.50016 12.0007 8.50016Z" fill="#121416"/>
</svg>