<svg xmlns="http://www.w3.org/2000/svg" width="77" height="77" viewBox="0 0 77 77" fill="none">
<rect x="0.318359" y="0.564453" width="76" height="76" rx="38" fill="#FF6262"/>
<g clip-path="url(#clip0_1049_93)">
<path opacity="0.3" d="M38.3185 25.8979C31.336 25.8979 25.6519 31.5821 25.6519 38.5646C25.6519 45.5471 31.336 51.2313 38.3185 51.2313C45.301 51.2313 50.9852 45.5471 50.9852 38.5646C50.9852 31.5821 45.301 25.8979 38.3185 25.8979ZM40.266 47.0038V49.6479H36.5769V46.9721C34.2019 46.4813 32.191 44.9454 32.0485 42.2696H34.756C34.8985 43.7263 35.896 44.8663 38.4294 44.8663C41.1369 44.8663 41.7544 43.5046 41.7544 42.6654C41.7544 41.5096 41.1369 40.433 38.0494 39.7046C34.6135 38.8654 32.2544 37.4563 32.2544 34.6221C32.2544 32.2313 34.186 30.6954 36.561 30.1729V27.4813H40.266V30.1888C42.8469 30.8063 44.1294 32.7696 44.2085 34.8913H41.501C41.4377 33.3554 40.6144 32.2946 38.4294 32.2946C36.3552 32.2946 35.1044 33.2288 35.1044 34.5588C35.1044 35.7146 36.0069 36.4904 38.8094 37.203C41.6119 37.9313 44.6044 39.1346 44.6044 42.618C44.5885 45.1513 42.6885 46.5446 40.266 47.0038Z" fill="#F8FCFF"/>
<path d="M38.3182 22.731C29.5782 22.731 22.4849 29.8243 22.4849 38.5643C22.4849 47.3043 29.5782 54.3976 38.3182 54.3976C47.0582 54.3976 54.1515 47.3043 54.1515 38.5643C54.1515 29.8243 47.0582 22.731 38.3182 22.731ZM38.3182 51.231C31.3357 51.231 25.6515 45.5468 25.6515 38.5643C25.6515 31.5818 31.3357 25.8976 38.3182 25.8976C45.3007 25.8976 50.9849 31.5818 50.9849 38.5643C50.9849 45.5468 45.3007 51.231 38.3182 51.231ZM38.809 37.2026C36.0065 36.4901 35.104 35.7143 35.104 34.5585C35.104 33.2285 36.3549 32.2943 38.429 32.2943C40.614 32.2943 41.4374 33.3393 41.5007 34.891H44.2082C44.129 32.7693 42.8307 30.8218 40.2657 30.1885V27.481H36.5765V30.1568C34.1857 30.6635 32.2699 32.2151 32.2699 34.606C32.2699 37.4401 34.629 38.8651 38.0649 39.6885C41.1524 40.4168 41.7699 41.5093 41.7699 42.6493C41.7699 43.4885 41.1524 44.8501 38.4449 44.8501C35.9115 44.8501 34.914 43.7101 34.7715 42.2535H32.0482C32.2065 44.9451 34.2015 46.4651 36.5765 46.956V49.6476H40.2815V47.0035C42.6882 46.5443 44.5882 45.1668 44.604 42.6176C44.5882 39.1343 41.5957 37.931 38.809 37.2026Z" fill="#F8FCFF"/>
</g>
<defs>
<clipPath id="clip0_1049_93">
<rect width="38" height="38" fill="white" transform="translate(19.3184 19.5645)"/>
</clipPath>
</defs>
</svg>