<svg xmlns="http://www.w3.org/2000/svg" width="22" height="27" viewBox="0 0 22 27" fill="none">
<path d="M15.0001 7.22786H7.00008M15.0001 12.5612H7.00008M15.0001 17.8945H9.66675M1.66675 1.89453H20.3334V25.8945L18.9574 24.7159C18.4741 24.3017 17.8586 24.074 17.2221 24.074C16.5856 24.074 15.97 24.3017 15.4867 24.7159L14.1107 25.8945L12.7361 24.7159C12.2527 24.3013 11.6369 24.0734 11.0001 24.0734C10.3633 24.0734 9.74747 24.3013 9.26408 24.7159L7.88941 25.8945L6.51341 24.7159C6.03012 24.3017 5.41459 24.074 4.77808 24.074C4.14157 24.074 3.52605 24.3017 3.04275 24.7159L1.66675 25.8945V1.89453Z" stroke="#FF5757" stroke-width="2" stroke-linecap="round" stroke-linejoin="round"/>
</svg>