<svg width="26" height="26" viewBox="0 0 26 26" fill="none" xmlns="http://www.w3.org/2000/svg">
<path d="M10.8327 4.3335C13.216 4.3335 15.166 6.2835 15.166 8.66683C15.166 11.0502 13.216 13.0002 10.8327 13.0002C8.44935 13.0002 6.49935 11.0502 6.49935 8.66683C6.49935 6.2835 8.44935 4.3335 10.8327 4.3335ZM18.416 22.7502L20.366 24.6677C20.9077 25.2093 21.666 24.776 21.666 24.1368V19.5002L24.6993 15.8168C24.8201 15.6559 24.8936 15.4645 24.9116 15.2641C24.9297 15.0637 24.8916 14.8623 24.8016 14.6824C24.7117 14.5024 24.5734 14.3511 24.4022 14.2453C24.2311 14.1395 24.0339 14.0835 23.8327 14.0835H16.2493C15.3827 14.0835 14.841 15.1668 15.3827 15.8168L18.416 19.5002V22.7502ZM16.2493 20.2585L13.7577 17.2252C13.3243 16.6835 13.1077 16.0335 13.1077 15.3835C12.3493 15.1668 11.591 15.1668 10.8327 15.1668C6.06602 15.1668 2.16602 17.1168 2.16602 19.5002V21.6668H16.2493V20.2585Z" fill="#008CE4"/>
</svg>
