<svg xmlns="http://www.w3.org/2000/svg" width="25" height="25" viewBox="0 0 25 25" fill="none">
<path d="M12.1907 15.4327C13.8654 15.4327 15.2231 14.075 15.2231 12.4002C15.2231 10.7254 13.8654 9.36777 12.1907 9.36777C10.5159 9.36777 9.1582 10.7254 9.1582 12.4002C9.1582 14.075 10.5159 15.4327 12.1907 15.4327Z" stroke="#5D6B98" stroke-width="2.02163"/>
<path d="M20.4695 11.3227C20.8617 11.7998 21.0578 12.0373 21.0578 12.4002C21.0578 12.7631 20.8617 13.0006 20.4695 13.4777C19.0342 15.2204 15.8683 18.4651 12.193 18.4651C8.51765 18.4651 5.35178 15.2204 3.91642 13.4777C3.52422 13.0006 3.32812 12.7631 3.32812 12.4002C3.32812 12.0373 3.52422 11.7998 3.91642 11.3227C5.35178 9.58004 8.51765 6.33532 12.193 6.33532C15.8683 6.33532 19.0342 9.58004 20.4695 11.3227Z" stroke="#5D6B98" stroke-width="2.02163"/>
</svg>