<svg width="225" height="145" viewBox="0 0 225 145" fill="none" xmlns="http://www.w3.org/2000/svg">
<rect width="224.728" height="143.944" transform="translate(0 0.887451)" fill="#F5F4F8"/>
<g clip-path="url(#clip0_572_739)">
<path d="M152.404 35.4045H78.6995C77.8888 35.4045 77.2488 36.0492 77.2488 36.8659V84.5086C77.2488 85.3252 77.8888 85.9699 78.6995 85.9699H152.404C153.214 85.9699 153.854 85.3252 153.854 84.5086V36.8659C153.854 36.0707 153.214 35.4045 152.404 35.4045Z" fill="#E8E8F7"/>
<path d="M152.404 35.4045H78.6995C78.3155 35.4045 77.9528 35.555 77.6754 35.8343C77.3981 36.1137 77.2488 36.479 77.2488 36.8659V40.9919H153.854V36.8659C153.854 36.479 153.705 36.1137 153.428 35.8343C153.15 35.555 152.788 35.4045 152.404 35.4045Z" fill="#D6D7F0"/>
<path d="M81.494 39.2085C82.0486 39.2085 82.4966 38.7572 82.4966 38.1985C82.4966 37.6398 82.0486 37.1885 81.494 37.1885C80.9394 37.1885 80.47 37.6398 80.47 38.1985C80.4913 38.7572 80.9394 39.2085 81.494 39.2085Z" fill="#ACAFE0"/>
<path d="M85.2703 39.2085C85.8249 39.2085 86.2729 38.7572 86.2729 38.1985C86.2729 37.6398 85.8249 37.1885 85.2703 37.1885C84.7156 37.1885 84.2463 37.6398 84.2463 38.1985C84.2463 38.7572 84.7156 39.2085 85.2703 39.2085Z" fill="#ACAFE0"/>
<path d="M89.0458 39.2085C89.6004 39.2085 90.0483 38.7572 90.0483 38.1985C90.0483 37.6398 89.6004 37.1885 89.0458 37.1885C88.4911 37.1885 88.0217 37.6398 88.0217 38.1985C88.0431 38.7572 88.4911 39.2085 89.0458 39.2085Z" fill="#ACAFE0"/>
<path d="M180.435 51.3928C180.456 51.3928 180.499 51.3928 180.52 51.3928C180.584 51.4143 180.627 51.4573 180.648 51.5217C180.669 51.5862 180.669 51.6507 180.648 51.6937C180.499 52.1449 180.285 52.5533 180.051 52.9616C180.029 53.0046 179.965 53.0475 179.901 53.069C179.837 53.0905 179.773 53.069 179.731 53.0475C179.709 53.026 179.688 53.0045 179.667 52.983C179.645 52.9616 179.624 52.9401 179.624 52.8971C179.624 52.8541 179.624 52.8326 179.624 52.8111C179.624 52.7896 179.645 52.7467 179.645 52.7252C179.88 52.3598 180.072 51.9515 180.2 51.5432C180.221 51.5003 180.243 51.4573 180.285 51.4358C180.349 51.4143 180.392 51.3928 180.435 51.3928Z" fill="#110580"/>
<path d="M143.06 40.2397C143.081 40.2397 143.124 40.2397 143.145 40.2397L143.465 40.3257C144.212 40.5406 145.001 40.777 145.812 41.0134C145.833 41.0134 145.876 41.0349 145.897 41.0564C145.918 41.0779 145.94 41.0994 145.961 41.1208C145.982 41.1423 145.982 41.1853 145.982 41.2068C145.982 41.2283 145.982 41.2713 145.982 41.2928C145.961 41.3143 145.961 41.3572 145.94 41.3787C145.918 41.4002 145.897 41.4217 145.876 41.4432C145.854 41.4647 145.812 41.4647 145.79 41.4647C145.769 41.4647 145.726 41.4647 145.705 41.4432C144.895 41.1853 144.126 40.9489 143.38 40.7555L143.06 40.6695C142.996 40.6481 142.953 40.6051 142.911 40.5621C142.889 40.4976 142.868 40.4547 142.889 40.3902C142.911 40.3472 142.932 40.3043 142.975 40.2828C142.975 40.2613 143.017 40.2397 143.06 40.2397ZM148.35 42.0234C148.393 42.0234 148.414 42.0234 148.457 42.0234C149.31 42.3887 150.142 42.8186 150.953 43.2913C150.974 43.3128 150.996 43.3343 151.017 43.3558C151.038 43.3772 151.06 43.3988 151.06 43.4417C151.06 43.4632 151.06 43.5062 151.06 43.5277C151.06 43.5492 151.038 43.5922 151.017 43.6137C150.996 43.6352 150.974 43.6566 150.953 43.6781C150.932 43.6996 150.889 43.7211 150.868 43.7211C150.846 43.7211 150.804 43.7211 150.782 43.7211C150.761 43.7211 150.718 43.6996 150.697 43.6996C149.908 43.2268 149.097 42.8185 148.244 42.4532C148.18 42.4317 148.137 42.3888 148.116 42.3243C148.094 42.2598 148.094 42.2168 148.116 42.1524C148.137 42.1094 148.158 42.0664 148.201 42.0449C148.265 42.0234 148.286 42.0019 148.35 42.0234ZM153.108 44.9031C153.15 44.9031 153.172 44.9031 153.214 44.9031C153.235 44.9031 153.278 44.9245 153.299 44.946C154.003 45.5692 154.665 46.2569 155.241 47.009C155.283 47.052 155.305 47.1165 155.283 47.1809C155.262 47.2454 155.241 47.2884 155.198 47.3314C155.177 47.3529 155.155 47.3744 155.113 47.3744C155.091 47.3744 155.049 47.3744 155.027 47.3744C155.006 47.3744 154.963 47.3529 154.942 47.3529C154.921 47.3314 154.9 47.3099 154.878 47.2884C154.324 46.5577 153.705 45.8915 153.001 45.2898C152.958 45.2469 152.937 45.1824 152.937 45.118C152.937 45.0535 152.958 44.989 153.001 44.946C153.001 44.9245 153.044 44.9031 153.108 44.9031ZM156.435 49.3085C156.478 49.3085 156.542 49.3084 156.585 49.3299C156.627 49.3514 156.649 49.3944 156.67 49.4374C157.075 50.297 157.374 51.1995 157.566 52.1451C157.566 52.2096 157.566 52.274 157.523 52.317C157.481 52.36 157.438 52.403 157.374 52.4245C157.31 52.446 157.246 52.4244 157.203 52.3815C157.161 52.3385 157.118 52.2955 157.097 52.231C156.905 51.3285 156.606 50.4689 156.222 49.6308C156.201 49.5663 156.201 49.5019 156.222 49.4589C156.243 49.3944 156.286 49.3514 156.35 49.3299C156.393 49.3299 156.414 49.3085 156.435 49.3085ZM155.155 52.3815C155.667 52.3385 156.201 52.3385 156.713 52.3815C156.777 52.3815 156.841 52.403 156.883 52.4459C156.926 52.4889 156.947 52.5534 156.947 52.5963C156.947 52.6393 156.926 52.7038 156.883 52.7468C156.841 52.7898 156.777 52.8112 156.713 52.8112C156.222 52.7898 155.71 52.7898 155.219 52.8112C154.814 52.8327 154.409 52.8972 154.004 52.9832C153.94 53.0047 153.875 52.9832 153.833 52.9402C153.79 52.8972 153.747 52.8543 153.726 52.7898C153.726 52.7683 153.726 52.7253 153.726 52.7038C153.726 52.6823 153.748 52.6393 153.769 52.6179C153.79 52.5964 153.811 52.5749 153.833 52.5534C153.854 52.5319 153.876 52.5319 153.918 52.5104C154.345 52.4245 154.772 52.36 155.198 52.3385H155.155V52.3815ZM159.401 52.8543H159.486C160.275 53.0692 161.086 53.3485 162.153 53.7568C162.174 53.7568 162.195 53.7783 162.217 53.7998C162.238 53.8213 162.259 53.8428 162.281 53.8643C162.302 53.8858 162.302 53.9287 162.302 53.9502C162.302 53.9717 162.302 54.0147 162.281 54.0362C162.259 54.0577 162.259 54.1007 162.238 54.1221C162.217 54.1436 162.195 54.1651 162.174 54.1651C162.153 54.1866 162.11 54.1866 162.089 54.1866C162.046 54.1866 162.025 54.1866 162.003 54.1651C160.958 53.7783 160.147 53.4775 159.379 53.2841C159.337 53.2626 159.294 53.2411 159.251 53.1981C159.23 53.1551 159.209 53.0906 159.209 53.0477C159.209 53.0047 159.23 52.9402 159.273 52.8972C159.315 52.8972 159.358 52.8543 159.401 52.8543ZM151.316 53.6064C151.358 53.6064 151.422 53.6064 151.465 53.6494C151.508 53.6709 151.55 53.7138 151.55 53.7568C151.572 53.7998 151.572 53.8643 151.55 53.9072C151.529 53.9502 151.508 53.9932 151.444 54.0147C151.038 54.2726 150.676 54.5734 150.356 54.9388C150.078 55.2396 149.844 55.5834 149.673 55.9488C149.652 55.9917 149.652 56.0132 149.63 56.0347C149.609 56.0562 149.566 56.0777 149.545 56.0992C149.502 56.1207 149.481 56.1207 149.438 56.1207C149.396 56.1207 149.374 56.1207 149.332 56.0992C149.289 56.0777 149.268 56.0562 149.246 56.0347C149.225 56.0132 149.204 55.9703 149.204 55.9488C149.204 55.9273 149.204 55.8843 149.204 55.8413C149.204 55.7983 149.225 55.7769 149.246 55.7554C149.46 55.3471 149.716 54.9603 150.036 54.6164C150.377 54.2511 150.782 53.9072 151.209 53.6279C151.252 53.6279 151.294 53.6064 151.316 53.6064ZM157.566 54.7453C157.63 54.7453 157.673 54.7668 157.715 54.8313C157.758 54.8743 157.779 54.9388 157.779 55.0032C157.737 55.9703 157.545 56.9158 157.203 57.8184C157.182 57.8399 157.182 57.8614 157.161 57.9044C157.139 57.9258 157.118 57.9473 157.075 57.9473C157.054 57.9688 157.011 57.9688 156.99 57.9688C156.969 57.9688 156.926 57.9688 156.905 57.9473C156.841 57.9258 156.798 57.8828 156.777 57.8184C156.755 57.7539 156.755 57.6894 156.777 57.6464C157.118 56.8083 157.31 55.9058 157.331 55.0032C157.331 54.9388 157.374 54.8958 157.417 54.8528C157.459 54.7668 157.502 54.7453 157.566 54.7453ZM164.648 54.7453C164.67 54.7453 164.712 54.7453 164.755 54.7453L165.672 55.0892C166.27 55.3041 166.824 55.4975 167.379 55.6694C167.4 55.6694 167.443 55.6909 167.464 55.7124C167.486 55.7339 167.507 55.7554 167.528 55.7768C167.55 55.7983 167.55 55.8413 167.55 55.8628C167.55 55.8843 167.55 55.9273 167.55 55.9488C167.528 56.0132 167.486 56.0562 167.443 56.0777C167.379 56.0992 167.315 56.1207 167.272 56.0992C166.718 55.9273 166.163 55.7339 165.544 55.519C165.224 55.4115 164.926 55.2826 164.627 55.1751C164.606 55.1536 164.563 55.1536 164.542 55.1321C164.52 55.1107 164.499 55.0892 164.499 55.0677C164.478 55.0462 164.478 55.0032 164.478 54.9817C164.478 54.9602 164.478 54.9173 164.499 54.8958C164.52 54.8528 164.563 54.8313 164.606 54.8098C164.648 54.7883 164.691 54.7883 164.734 54.7883L164.648 54.7453ZM177.96 54.6379C178.003 54.6379 178.067 54.6379 178.109 54.6809C178.152 54.7024 178.195 54.7454 178.195 54.7883C178.216 54.8313 178.216 54.8958 178.195 54.9388C178.173 54.9817 178.152 55.0247 178.109 55.0462C177.341 55.6264 176.488 56.0562 175.592 56.3786C175.528 56.4001 175.464 56.4 175.421 56.3571C175.379 56.3356 175.336 56.2926 175.315 56.2281C175.293 56.1637 175.293 56.0992 175.336 56.0562C175.357 55.9917 175.4 55.9703 175.464 55.9488C176.317 55.6694 177.128 55.2611 177.853 54.7239C177.896 54.7024 177.939 54.6809 177.981 54.6809V54.6379H177.96ZM169.982 56.2926H170.046C170.942 56.4431 171.88 56.486 172.776 56.443C172.84 56.443 172.883 56.4645 172.925 56.5075C172.968 56.5505 172.99 56.5935 172.99 56.6579C172.99 56.7224 172.968 56.7654 172.947 56.8084C172.926 56.8513 172.861 56.8943 172.819 56.8943C171.88 56.9373 170.92 56.8943 170.003 56.7439C169.939 56.7439 169.896 56.7009 169.854 56.6579C169.811 56.615 169.811 56.5505 169.811 56.486C169.832 56.443 169.854 56.4001 169.875 56.3786C169.918 56.3571 169.96 56.3356 170.003 56.3141V56.2926H169.982ZM148.926 58.3556C148.969 58.3556 148.99 58.3556 149.012 58.3556C149.033 58.3556 149.054 58.3771 149.097 58.3986C149.118 58.4201 149.14 58.4416 149.14 58.4631C149.161 58.4845 149.161 58.5276 149.161 58.549C149.225 59.2797 149.566 59.9458 150.1 60.4401C150.206 60.5476 150.313 60.6336 150.441 60.698C150.462 60.7195 150.505 60.741 150.526 60.7624C150.548 60.7839 150.569 60.827 150.569 60.8484C150.59 60.8914 150.59 60.9129 150.569 60.9559C150.569 60.9989 150.548 61.0203 150.526 61.0418C150.505 61.0633 150.484 61.0848 150.462 61.1063C150.441 61.1278 150.398 61.1278 150.356 61.1493C150.313 61.1493 150.292 61.1493 150.249 61.1493C150.206 61.1493 150.185 61.1278 150.164 61.1063C150.014 61.0203 149.886 60.9129 149.758 60.8055C149.14 60.2467 148.756 59.4731 148.67 58.635C148.67 58.5705 148.692 58.506 148.713 58.4631C148.798 58.3986 148.862 58.3556 148.926 58.3556ZM155.454 59.774C155.497 59.774 155.518 59.7739 155.561 59.7954C155.603 59.8169 155.625 59.8384 155.646 59.8599C155.689 59.9029 155.71 59.9674 155.71 60.0318C155.71 60.0963 155.689 60.1393 155.646 60.2037C154.921 60.8484 154.046 61.3212 153.086 61.5361C153.022 61.5361 152.958 61.5361 152.916 61.4931C152.873 61.4502 152.83 61.4072 152.809 61.3427C152.809 61.3212 152.809 61.2782 152.809 61.2567C152.809 61.2352 152.83 61.1923 152.83 61.1708C152.852 61.1493 152.873 61.1278 152.894 61.1063C152.916 61.0848 152.937 61.0848 152.979 61.0633C153.854 60.8699 154.643 60.4401 155.326 59.8384C155.369 59.8169 155.411 59.7954 155.454 59.774Z" fill="#110580"/>
<path d="M139.22 38.6926C139.284 38.6926 139.327 38.7141 139.37 38.7356C139.711 38.9935 140.095 39.2084 140.5 39.3588C140.564 39.3803 140.607 39.4233 140.628 39.4877C140.649 39.5522 140.649 39.6167 140.628 39.6597C140.607 39.7241 140.564 39.7671 140.5 39.7886C140.436 39.8101 140.372 39.8101 140.329 39.7886C139.882 39.6167 139.476 39.3803 139.092 39.101C139.05 39.058 139.007 39.015 139.007 38.9505C139.007 38.886 139.007 38.8216 139.05 38.7786C139.071 38.7571 139.092 38.7356 139.135 38.7141C139.156 38.6926 139.177 38.6926 139.22 38.6926Z" fill="#110580"/>
<path d="M78.5714 72.0665C78.5074 72.045 78.4433 72.002 78.422 71.9375C78.3793 71.8731 78.3794 71.8086 78.4008 71.7441C78.4221 71.6797 78.4434 71.6152 78.5074 71.5722C78.5714 71.5292 78.6354 71.5077 78.6994 71.5077H80.15V70.0679C80.1713 70.0035 80.1926 69.939 80.2566 69.8745C80.2993 69.8316 80.3846 69.8101 80.4486 69.8101C80.5126 69.8101 80.598 69.8316 80.6407 69.8745C80.7047 69.9175 80.726 69.982 80.7473 70.0679V72.131H78.678L78.5714 72.0665Z" fill="#110580"/>
<path d="M48.9407 72.0448C48.8981 72.0233 48.8341 71.9803 48.8127 71.9374C48.7701 71.8944 48.77 71.8299 48.77 71.7869C48.77 71.701 48.7914 71.6365 48.8554 71.572C48.9194 71.5076 48.9834 71.4861 49.0688 71.4861H52.7806C52.8659 71.4861 52.9299 71.5076 52.9939 71.572C53.0579 71.6365 53.0792 71.701 53.0792 71.7869C53.0792 71.8729 53.0579 71.9374 52.9939 72.0018C52.9299 72.0663 52.8659 72.0878 52.7806 72.0878H49.0688C49.0261 72.0878 48.9834 72.0663 48.9407 72.0448ZM56.3431 72.0448C56.3004 72.0233 56.2365 71.9803 56.2152 71.9374C56.1725 71.8944 56.1725 71.83 56.1725 71.7655C56.1725 71.6795 56.1938 71.6151 56.2578 71.5506C56.3218 71.4861 56.3858 71.4646 56.4711 71.4646H60.183C60.2683 71.4646 60.3323 71.4861 60.3963 71.5506C60.4603 71.6151 60.4817 71.6795 60.4817 71.7655C60.4817 71.8514 60.4603 71.9159 60.3963 71.9804C60.3323 72.0449 60.2683 72.0663 60.183 72.0663H56.4711C56.4284 72.0878 56.3858 72.0663 56.3431 72.0448ZM63.7669 72.0448C63.7029 72.0233 63.6602 71.9804 63.6175 71.9159C63.5749 71.8514 63.5749 71.7869 63.5962 71.7225C63.6175 71.658 63.6388 71.5936 63.7028 71.5506C63.7668 71.5076 63.8309 71.4861 63.8949 71.4861H67.6068C67.6921 71.4861 67.7561 71.5291 67.7987 71.5936C67.8414 71.658 67.8627 71.7225 67.8627 71.7869C67.8627 71.8514 67.8414 71.9374 67.7987 71.9804C67.7561 72.0449 67.6921 72.0663 67.6068 72.0878H63.9162C63.8522 72.0878 63.8096 72.0878 63.7669 72.0448ZM71.1693 72.0448C71.1053 72.0233 71.0627 71.9803 71.0413 71.9374C70.9987 71.8944 70.9986 71.8299 70.9986 71.7869C70.9986 71.701 71.0413 71.6365 71.084 71.572C71.1479 71.5076 71.2119 71.4861 71.2973 71.4861H75.0091C75.0945 71.4861 75.1585 71.5076 75.2225 71.572C75.2865 71.6365 75.3079 71.701 75.3079 71.7869C75.3079 71.8729 75.2651 71.9374 75.2225 72.0018C75.1585 72.0663 75.0945 72.0878 75.0091 72.0878H71.2973C71.2546 72.0878 71.2119 72.0878 71.1693 72.0448Z" fill="#110580"/>
<path d="M43.3301 72.0663V70.0032C43.3301 69.9173 43.3728 69.8528 43.4155 69.7883C43.4582 69.7239 43.5435 69.7024 43.6075 69.7024C43.6928 69.7024 43.7568 69.7454 43.8208 69.7883C43.8848 69.8528 43.9061 69.9173 43.9061 70.0032V71.4431H45.378C45.442 71.4431 45.5274 71.4861 45.5488 71.5505C45.5914 71.615 45.6341 71.6794 45.6341 71.7439C45.6341 71.8084 45.6128 71.8943 45.5488 71.9373C45.5061 72.0018 45.442 72.0233 45.378 72.0448L43.3301 72.0663Z" fill="#110580"/>
<path d="M43.5008 66.8441C43.4581 66.8226 43.3941 66.7796 43.3728 66.7366C43.3301 66.6936 43.3301 66.6292 43.3301 66.5647V63.1263C43.3301 63.0404 43.3515 62.9759 43.4155 62.9114C43.4795 62.847 43.5435 62.8255 43.6288 62.8255C43.7141 62.8255 43.7781 62.847 43.8421 62.9114C43.9061 62.9759 43.9275 63.0404 43.9275 63.1263V66.5647C43.9275 66.6506 43.9061 66.7151 43.8421 66.7796C43.7781 66.844 43.7141 66.8656 43.6288 66.8656C43.5648 66.8656 43.5435 66.8655 43.5008 66.8441ZM43.5008 59.9459C43.4368 59.9244 43.3941 59.8814 43.3728 59.8384C43.3301 59.7955 43.3301 59.731 43.3301 59.6665V56.2281C43.3301 56.1637 43.3727 56.0992 43.4367 56.0347C43.5007 55.9917 43.5648 55.9703 43.6288 55.9703C43.6928 55.9703 43.7781 55.9917 43.8208 56.0347C43.8848 56.0777 43.9061 56.1422 43.9275 56.2281V59.6665C43.9275 59.7525 43.9061 59.8169 43.8421 59.8814C43.7781 59.9459 43.7141 59.9673 43.6288 59.9673C43.5862 59.9673 43.5435 59.9674 43.5008 59.9459ZM43.5008 53.0692C43.4581 53.0477 43.3941 53.0047 43.3728 52.9617C43.3301 52.9187 43.3301 52.8543 43.3301 52.7898V49.3514C43.3301 49.2655 43.3515 49.201 43.4155 49.1365C43.4795 49.0721 43.5435 49.0505 43.6288 49.0505C43.7141 49.0505 43.7781 49.0721 43.8421 49.1365C43.9061 49.201 43.9275 49.2655 43.9275 49.3514V52.7898C43.9275 52.8757 43.9061 52.9402 43.8421 53.0047C43.7781 53.0692 43.7141 53.0906 43.6288 53.0906C43.5862 53.0691 43.5648 53.0476 43.5222 53.0261L43.5008 53.0692Z" fill="#110580"/>
<path d="M43.5008 46.1063C43.4581 46.0848 43.3941 46.0418 43.3728 45.9988C43.3301 45.9558 43.3301 45.8914 43.3301 45.8269V43.7639H45.378C45.4634 43.7639 45.5487 43.8069 45.5914 43.8499C45.6554 43.9143 45.6767 43.9788 45.6767 44.0648C45.6767 44.1507 45.634 44.2152 45.5914 44.2796C45.5274 44.3441 45.442 44.3656 45.378 44.3656H43.9275V45.8054C43.9275 45.8914 43.9061 45.9559 43.8421 46.0203C43.7781 46.0848 43.7141 46.1063 43.6288 46.1063C43.5862 46.1278 43.5435 46.1063 43.5008 46.1063Z" fill="#110580"/>
<path d="M48.9621 44.3657C48.8981 44.3442 48.8341 44.3012 48.8127 44.2367C48.7701 44.1722 48.77 44.1078 48.77 44.0433C48.7914 43.9789 48.834 43.9144 48.8767 43.8714C48.9193 43.8284 49.0048 43.8069 49.0688 43.8069H52.7806C52.8446 43.8069 52.9299 43.8499 52.9512 43.9144C52.9939 43.9788 53.0365 44.0433 53.0365 44.1077C53.0365 44.1722 53.0152 44.2582 52.9512 44.3012C52.9086 44.3657 52.8446 44.3871 52.7806 44.4086H49.0688C49.0474 44.3871 49.0048 44.3872 48.9621 44.3657ZM56.3431 44.3657C56.2791 44.3442 56.2365 44.3012 56.2152 44.2582C56.1725 44.2152 56.1725 44.1508 56.1725 44.0863C56.1725 44.0003 56.2151 43.9359 56.2578 43.8714C56.3218 43.8069 56.3858 43.7854 56.4711 43.7854H60.183C60.2683 43.7854 60.3323 43.8069 60.3963 43.8714C60.4603 43.9359 60.4817 44.0003 60.4817 44.0863C60.4817 44.1722 60.439 44.2367 60.3963 44.3012C60.3323 44.3657 60.2683 44.3871 60.183 44.3871H56.4711C56.4284 44.3871 56.3858 44.3872 56.3431 44.3657ZM63.7669 44.3657C63.7029 44.3442 63.6389 44.3012 63.6175 44.2367C63.5749 44.1722 63.5749 44.1078 63.5962 44.0433C63.6175 43.9789 63.6388 43.9144 63.7028 43.8714C63.7668 43.8284 63.8309 43.8069 63.8949 43.8069H67.6068C67.6921 43.8069 67.7561 43.8284 67.8201 43.8928C67.8841 43.9573 67.9054 44.0218 67.9054 44.1077C67.9054 44.1937 67.8628 44.2582 67.8201 44.3226C67.7561 44.3871 67.6921 44.4086 67.6068 44.4086H63.9162C63.8522 44.3871 63.8096 44.3872 63.7669 44.3657ZM71.1693 44.3657C71.1053 44.3442 71.0627 44.3012 71.0413 44.2582C71.02 44.2152 70.9986 44.1508 70.9986 44.0863C70.9986 44.0003 71.0413 43.9359 71.084 43.8714C71.1479 43.8069 71.2119 43.7854 71.2973 43.7854H75.0091C75.0731 43.7854 75.1372 43.8284 75.1799 43.8928C75.2225 43.9573 75.2438 44.0218 75.2438 44.0863C75.2438 44.1508 75.2225 44.2367 75.1799 44.2797C75.1372 44.3441 75.0731 44.3656 75.0091 44.3871H71.3186C71.276 44.3871 71.2333 44.3872 71.1693 44.3657Z" fill="#110580"/>
<path d="M80.3421 46.1278C80.2781 46.1063 80.2355 46.0633 80.2141 46.0204C80.1928 45.9774 80.1714 45.9129 80.1714 45.8699V44.3871H78.7209C78.6355 44.3871 78.5715 44.3657 78.5075 44.3012C78.4435 44.2367 78.4221 44.1722 78.4221 44.0863C78.4221 44.0003 78.4649 43.9359 78.5075 43.8714C78.5715 43.8069 78.6355 43.7854 78.7209 43.7854H80.7687V45.8484C80.7687 45.9344 80.7261 45.9989 80.6834 46.0633C80.6194 46.1278 80.5554 46.1493 80.4701 46.1493C80.4274 46.1493 80.3847 46.1278 80.3421 46.1278Z" fill="#110580"/>
<path d="M80.3423 66.8658C80.2783 66.8443 80.2357 66.8013 80.2143 66.7583C80.193 66.7154 80.1716 66.6509 80.1716 66.6079V63.1696C80.1716 63.0836 80.2143 63.0191 80.2569 62.9547C80.3209 62.8902 80.3849 62.8687 80.4703 62.8687C80.5556 62.8687 80.6196 62.8902 80.6836 62.9547C80.7476 63.0191 80.7689 63.0836 80.7689 63.1696V66.6079C80.7689 66.6939 80.7263 66.7583 80.6836 66.8228C80.6196 66.8873 80.5556 66.9088 80.4703 66.9088C80.4276 66.8873 80.3849 66.8873 80.3423 66.8658ZM80.3423 59.9676C80.2783 59.9461 80.2357 59.9031 80.2143 59.8601C80.193 59.8171 80.1716 59.7526 80.1716 59.6882V56.2498C80.1716 56.1639 80.2143 56.0994 80.2569 56.0349C80.3209 55.9705 80.3849 55.949 80.4703 55.949C80.5556 55.949 80.6196 55.9919 80.6836 56.0349C80.7476 56.0994 80.7689 56.1639 80.7689 56.2498V59.6882C80.7689 59.7741 80.7263 59.8386 80.6836 59.9031C80.6196 59.9675 80.5556 59.9891 80.4703 59.9891C80.4063 59.9891 80.3849 59.9676 80.3423 59.9676ZM80.3423 53.0908C80.2783 53.0693 80.2357 53.0264 80.2143 52.9834C80.1717 52.9404 80.1716 52.8759 80.1716 52.8115V49.3731C80.1716 49.2871 80.2143 49.2227 80.2569 49.1582C80.3209 49.0937 80.3849 49.0723 80.4703 49.0723C80.5556 49.0723 80.6196 49.0937 80.6836 49.1582C80.7476 49.2227 80.7689 49.2871 80.7689 49.3731V52.8115C80.7689 52.8974 80.7263 52.9619 80.6836 53.0264C80.6196 53.0908 80.5556 53.1123 80.4703 53.1123C80.4276 53.0909 80.3849 53.0693 80.3636 53.0264V53.0908H80.3423Z" fill="#110580"/>
<path d="M132.949 47.3098H59.2445C58.4339 47.3098 57.7939 47.9545 57.7939 48.7711V96.4139C57.7939 97.2305 58.4339 97.8752 59.2445 97.8752H132.949C133.759 97.8752 134.399 97.2305 134.399 96.4139V48.7711C134.399 47.976 133.738 47.3098 132.949 47.3098Z" fill="white"/>
<path d="M94.2937 62.0304V88.033C94.2937 88.7851 94.9123 89.4083 95.659 89.4083C96.4269 89.4083 97.0242 88.7851 97.0242 88.033V62.0304C97.0242 61.2783 96.4269 60.655 95.659 60.655C94.891 60.655 94.2937 61.2783 94.2937 62.0304Z" fill="#FF7A82"/>
<path d="M107.051 65.0819V84.9814C107.051 85.7335 107.669 86.3567 108.416 86.3567C109.162 86.3567 109.781 85.7335 109.781 84.9814V65.0819C109.781 64.3297 109.162 63.7065 108.416 63.7065C107.648 63.7065 107.051 64.3297 107.051 65.0819Z" fill="#FF7A82"/>
<path d="M81.5154 65.0819V84.9814C81.5154 85.7335 82.1341 86.3567 82.8808 86.3567C83.6274 86.3567 84.246 85.7335 84.246 84.9814V65.0819C84.246 64.3297 83.6274 63.7065 82.8808 63.7065C82.1341 63.7065 81.5154 64.3297 81.5154 65.0819Z" fill="#FF7A82"/>
<path d="M113.429 70.2611V79.8241C113.429 80.5762 114.047 81.1994 114.794 81.1994C115.541 81.1994 116.159 80.5762 116.159 79.8241V70.2611C116.159 69.509 115.541 68.8857 114.794 68.8857C114.047 68.8857 113.429 69.509 113.429 70.2611Z" fill="#FF7A82"/>
<path d="M75.1367 70.2611V79.8241C75.1367 80.5762 75.7553 81.1994 76.502 81.1994C77.27 81.1994 77.8674 80.5762 77.8674 79.8241V70.2611C77.8674 69.509 77.27 68.8857 76.502 68.8857C75.7553 68.8857 75.1367 69.4875 75.1367 70.2611Z" fill="#FF7A82"/>
<path d="M119.807 68.1334V81.9513C119.807 82.7034 120.426 83.3266 121.173 83.3266C121.919 83.3266 122.538 82.7034 122.538 81.9513V68.1334C122.538 67.3812 121.919 66.7581 121.173 66.7581C120.426 66.7581 119.807 67.3812 119.807 68.1334Z" fill="#FF7A82"/>
<path d="M68.7585 68.1334V81.9513C68.7585 82.7034 69.3558 83.3266 70.1238 83.3266C70.8704 83.3266 71.4891 82.7034 71.4891 81.9513V68.1334C71.4891 67.3812 70.8704 66.7581 70.1238 66.7581C69.3772 66.7581 68.7585 67.3597 68.7585 68.1334Z" fill="#FF7A82"/>
<path d="M100.672 66.9085V83.1548C100.672 83.9069 101.27 84.5301 102.038 84.5301C102.784 84.5301 103.403 83.9069 103.403 83.1548V66.9085C103.403 66.1564 102.784 65.5332 102.038 65.5332C101.27 65.5332 100.672 66.1349 100.672 66.9085Z" fill="#FF7A82"/>
<path d="M87.894 66.9085V83.1548C87.894 83.9069 88.5127 84.5301 89.2593 84.5301C90.0273 84.5301 90.6246 83.9069 90.6246 83.1548V66.9085C90.6246 66.1564 90.006 65.5332 89.2593 65.5332C88.5127 65.5332 87.894 66.1564 87.894 66.9085Z" fill="#FF7A82"/>
<path d="M132.949 47.3098H59.2445C59.0525 47.3098 58.8605 47.3528 58.6899 47.4173C58.5192 47.4817 58.3486 47.5892 58.2206 47.7396C58.0926 47.8685 57.9859 48.0405 57.9006 48.2124C57.8153 48.3843 57.7939 48.5777 57.7939 48.7711V52.8972H134.421V48.7711C134.421 48.5777 134.378 48.3843 134.314 48.2124C134.229 48.0405 134.143 47.8685 133.994 47.7396C133.866 47.6107 133.695 47.5032 133.525 47.4173C133.333 47.3528 133.119 47.3098 132.949 47.3098Z" fill="#D6D7F0"/>
<path d="M62.0388 51.1135C62.5935 51.1135 63.0415 50.6622 63.0415 50.1035C63.0415 49.5448 62.5935 49.0935 62.0388 49.0935C61.4842 49.0935 61.0149 49.5448 61.0149 50.1035C61.0149 50.6622 61.4842 51.1135 62.0388 51.1135Z" fill="#FF7A82"/>
<path d="M65.8146 51.1135C66.3692 51.1135 66.8171 50.6622 66.8171 50.1035C66.8171 49.5448 66.3692 49.0935 65.8146 49.0935C65.2599 49.0935 64.7905 49.5448 64.7905 50.1035C64.7905 50.6622 65.2599 51.1135 65.8146 51.1135Z" fill="#FDB62F"/>
<path d="M69.5905 51.1135C70.1451 51.1135 70.6145 50.6622 70.6145 50.1035C70.6145 49.5448 70.1664 49.0935 69.5905 49.0935C69.0358 49.0935 68.5879 49.5448 68.5879 50.1035C68.5666 50.6622 69.0145 51.1135 69.5905 51.1135Z" fill="#07C98B"/>
<path d="M144.255 81.2422C140.266 81.2422 137.044 84.4871 137.044 88.4842V95.5329C137.044 99.53 140.266 102.775 144.255 102.775C148.244 102.775 151.465 99.53 151.465 95.5329V88.4842C151.444 84.4871 148.223 81.2422 144.255 81.2422Z" fill="#AAACE3"/>
<path d="M151.721 111.048C151.891 111.048 152.041 111.006 152.19 110.92C152.339 110.834 152.446 110.726 152.531 110.597C152.617 110.468 152.659 110.296 152.681 110.146C152.681 109.974 152.638 109.824 152.574 109.673C151.806 108.104 150.633 106.772 149.161 105.848C147.689 104.924 145.982 104.43 144.254 104.43C142.526 104.43 140.82 104.924 139.348 105.848C137.876 106.772 136.681 108.104 135.935 109.673C135.849 109.824 135.828 109.974 135.828 110.146C135.828 110.318 135.892 110.468 135.977 110.597C136.063 110.726 136.169 110.855 136.319 110.92C136.468 111.006 136.617 111.048 136.788 111.048H151.721Z" fill="#868AE0"/>
<path d="M146.196 88.5702C146.196 88.9355 146.345 89.2794 146.601 89.5372C146.857 89.7951 147.198 89.9455 147.561 89.9455H151.422V88.4627C151.422 88.033 151.38 87.5816 151.316 87.1519H147.582C147.412 87.1519 147.22 87.1948 147.049 87.2593C146.878 87.3238 146.729 87.4313 146.601 87.5602C146.473 87.6891 146.388 87.8395 146.302 88.0114C146.217 88.2049 146.196 88.3768 146.196 88.5702Z" fill="#868AE0"/>
<path d="M146.196 92.9539C146.196 93.3193 146.345 93.6631 146.601 93.921C146.857 94.1789 147.198 94.3293 147.561 94.3293H151.422V91.5786H147.582C147.22 91.5786 146.878 91.729 146.622 91.9869C146.345 92.2448 146.196 92.5886 146.196 92.9539Z" fill="#868AE0"/>
<path d="M146.196 97.3595C146.196 97.7248 146.345 98.0686 146.601 98.3265C146.857 98.5844 147.198 98.7348 147.561 98.7348H150.697C151.124 97.8752 151.358 96.9297 151.422 95.9841H147.582C147.22 95.9841 146.878 96.1345 146.622 96.3924C146.345 96.6288 146.196 96.9941 146.196 97.3595Z" fill="#868AE0"/>
<path d="M142.271 88.5704C142.271 88.2051 142.121 87.8613 141.865 87.6034C141.609 87.3455 141.268 87.1951 140.905 87.1951H137.151C137.065 87.6249 137.023 88.0547 137.023 88.506V89.9457H140.905C141.268 89.9457 141.609 89.7953 141.865 89.5375C142.143 89.2796 142.271 88.9358 142.271 88.5704Z" fill="#868AE0"/>
<path d="M142.271 92.9539C142.271 92.5886 142.121 92.2448 141.865 91.9869C141.609 91.729 141.268 91.5786 140.905 91.5786H137.023V94.3293H140.905C141.268 94.3293 141.609 94.1789 141.865 93.921C142.143 93.6846 142.271 93.3193 142.271 92.9539Z" fill="#868AE0"/>
<path d="M142.271 97.3595C142.271 96.9941 142.122 96.6503 141.866 96.3924C141.61 96.1345 141.268 95.9841 140.906 95.9841H137.044C137.087 96.9297 137.322 97.8752 137.727 98.7348H140.863C141.034 98.7348 141.226 98.7133 141.396 98.6488C141.567 98.5844 141.716 98.4769 141.844 98.348C141.972 98.2191 142.079 98.0686 142.143 97.8967C142.25 97.7248 142.271 97.5314 142.271 97.3595Z" fill="#868AE0"/>
<path d="M144.233 107.137C141.097 107.137 138.089 105.869 135.871 103.656C133.652 101.421 132.415 98.391 132.394 95.2535V94.3724C132.394 94.0071 132.543 93.6633 132.799 93.4054C133.055 93.1475 133.396 92.9971 133.759 92.9971C134.122 92.9971 134.463 93.1475 134.719 93.4054C134.975 93.6633 135.124 94.0071 135.124 94.3724V95.2535C135.124 97.6818 136.084 100.003 137.791 101.7C139.497 103.42 141.801 104.365 144.212 104.365C146.622 104.365 148.926 103.398 150.633 101.7C152.34 99.9812 153.3 97.6603 153.3 95.2535V94.3724C153.3 94.0071 153.449 93.6633 153.705 93.4054C153.961 93.1475 154.302 92.9971 154.686 92.9971C155.049 92.9971 155.39 93.1475 155.646 93.4054C155.902 93.6633 156.052 94.0071 156.052 94.3724V95.2535C156.052 98.391 154.814 101.421 152.596 103.656C150.377 105.848 147.369 107.116 144.233 107.137Z" fill="#AAACE3"/>
<path d="M162.11 89.3008H159.251C159.251 85.3038 157.673 81.4571 154.857 78.6205C152.041 75.7838 148.222 74.1935 144.233 74.1935C140.244 74.1935 136.425 75.7838 133.61 78.6205C130.794 81.4571 129.215 85.2823 129.215 89.3008H126.356C126.356 84.5301 128.234 79.9743 131.583 76.6004C134.932 73.2265 139.476 71.3354 144.212 71.3354C148.948 71.3354 153.492 73.2265 156.841 76.6004C160.233 79.9743 162.11 84.5301 162.11 89.3008Z" fill="#AAACE3"/>
<path d="M128.405 86.0562H127.039C125.93 86.0562 125.013 86.9587 125.013 88.0977V100.196C125.013 101.314 125.909 102.238 127.039 102.238H128.405C129.514 102.238 130.431 101.335 130.431 100.196V88.0977C130.41 86.9587 129.514 86.0562 128.405 86.0562Z" fill="#110580"/>
<path d="M161.449 86.0562H160.084C158.953 86.0562 158.057 86.9587 158.057 88.0977V100.196C158.057 101.314 158.953 102.238 160.084 102.238H161.449C162.558 102.238 163.476 101.335 163.476 100.196V88.0977C163.476 86.9587 162.558 86.0562 161.449 86.0562Z" fill="#110580"/>
<path d="M163.475 87.7751V100.476C164.713 99.9383 165.758 99.0572 166.505 97.9398C167.251 96.8223 167.635 95.49 167.635 94.1576C167.635 92.8037 167.251 91.4928 166.505 90.3754C165.758 89.2579 164.713 88.3768 163.475 87.8396V87.7751Z" fill="#2B31BA"/>
<path d="M125.013 87.7751V100.476C123.775 99.9383 122.73 99.0572 122.005 97.9398C121.258 96.8223 120.874 95.49 120.874 94.1576C120.874 92.8037 121.279 91.4928 122.005 90.3754C122.73 89.2579 123.797 88.3768 125.013 87.8396V87.7751Z" fill="#2B31BA"/>
</g>
<defs>
<clipPath id="clip0_572_739">
<rect width="137.334" height="75.6439" fill="white" transform="translate(43.3301 35.4045)"/>
</clipPath>
</defs>
</svg>
