<svg width="225" height="145" viewBox="0 0 225 145" fill="none" xmlns="http://www.w3.org/2000/svg">
<rect width="224.728" height="143.944" transform="translate(0 0.71875)" fill="#F5F4F8"/>
<g clip-path="url(#clip0_572_916)">
<path d="M114.359 53.5324C113.004 49.0214 112.945 46.4711 113.107 44.5841C113.269 42.6972 118.352 45.2917 119.324 46.0288C120.577 46.987 122.094 48.3728 122.094 48.3728L114.359 53.5324Z" fill="#110580"/>
<path d="M128.621 48.3874C132.068 45.2032 134.352 44.0386 136.134 43.3605C137.902 42.6971 137.696 48.3875 137.534 49.5963C137.342 51.0262 136.959 53.2965 136.959 53.2965L128.621 48.3874Z" fill="#110580"/>
<path d="M139.036 81.7775C140.613 84.2247 141.703 86.9666 143.176 89.4875C144.031 90.9617 145.946 93.9837 146.226 90.6373C146.565 86.4064 143.692 81.9102 142.543 77.9741C141.29 73.6548 140.73 68.6131 143.117 64.5738C145.548 60.4608 153.415 58.854 154.815 64.8097C155.654 68.3772 152.723 71.0897 149.246 69.8661L148.76 69.6892L150.94 70.0873C150.203 70.0873 150.911 69.3796 150.822 70.2641C150.719 71.3108 150.41 72.2395 150.424 73.301C150.469 75.4975 151.014 77.6498 151.544 79.7579C152.664 84.1215 154.623 89.4433 152.855 93.8805C151.102 98.2736 145.975 100.677 141.835 97.7724C137.858 94.9862 135.604 87.689 135.471 83.0601C135.412 81.2173 137.931 80.0675 139.036 81.7775Z" fill="#110580"/>
<path d="M138.226 58.3381C137.931 64.2496 135.029 68.9522 125.114 68.392C116.054 67.9056 112.783 62.967 113.092 57.0556C113.387 51.1588 119.251 46.6478 126.204 47.0016C133.143 47.3555 138.535 52.4266 138.226 58.3381Z" fill="#110580"/>
<path d="M126.219 59.8859C125.423 59.65 124.584 59.6353 123.788 59.8711C123.714 59.9006 123.656 59.9448 123.626 60.0038C123.582 60.0628 123.552 60.1365 123.552 60.2102C123.538 60.2839 123.552 60.3576 123.582 60.4313C123.611 60.505 123.656 60.564 123.714 60.6082C123.759 60.6377 123.788 60.6672 123.818 60.6967C123.759 60.6082 123.832 60.7114 123.847 60.7262C123.862 60.7409 123.936 60.8293 123.98 60.8736C124.024 60.9325 124.024 60.9325 124.039 60.962L124.053 60.9768C124.083 61.0357 124.112 61.0947 124.142 61.1389C124.274 61.419 124.407 61.6844 124.554 61.9497C124.569 61.9645 124.569 61.9792 124.584 62.0087C124.584 62.0234 124.598 62.0234 124.598 62.0234L124.613 62.0529C124.687 62.1119 124.775 62.1561 124.864 62.1708C124.952 62.1856 125.055 62.1561 125.129 62.1119C125.144 62.1119 125.158 62.0971 125.173 62.0824C125.232 62.0382 125.276 61.9792 125.306 61.9055C125.32 61.876 125.32 61.8465 125.335 61.817V61.8023C125.379 61.7433 125.423 61.6844 125.468 61.6254L125.541 61.537L125.586 61.4927C125.644 61.4338 125.703 61.3748 125.762 61.3158C126.057 61.08 126.278 60.7851 126.44 60.4313C126.484 60.3281 126.484 60.2102 126.44 60.107C126.396 60.0185 126.322 59.9301 126.219 59.8859ZM125.6 61.4927L125.615 61.478C125.63 61.4485 125.615 61.478 125.6 61.4927Z" fill="#787CCB"/>
<path d="M134.646 55.8614C134.661 55.8761 134.676 55.8909 134.69 55.9203C134.705 55.9351 134.705 55.9646 134.705 55.9941C134.705 56.0235 134.705 56.0383 134.69 56.0678C134.676 56.0825 134.661 56.112 134.646 56.1267C133.821 56.8343 132.923 57.7483 131.994 58.2053C131.007 58.6918 129.991 58.6623 128.989 58.397C128.606 58.279 128.223 58.1316 127.869 57.9547C127.84 57.94 127.825 57.9252 127.81 57.9105C127.796 57.8957 127.781 57.8663 127.766 57.8515C127.751 57.8221 127.751 57.8073 127.766 57.7778C127.766 57.7483 127.781 57.7336 127.796 57.7041C128.518 56.628 129.534 55.8024 130.727 55.3159C131.862 54.8442 133.615 55.0211 134.646 55.8614Z" fill="white"/>
<path d="M132.053 57.7338C132.112 57.4979 132.126 57.2473 132.097 57.0114C132.067 56.7608 132.009 56.5102 131.905 56.2743C131.788 55.9353 131.567 55.6257 131.272 55.4193C131.11 55.3309 130.918 55.2866 130.742 55.3014C130.565 55.3161 130.403 55.4046 130.285 55.5225C130.167 55.6257 130.093 55.7584 130.049 55.9058C129.99 56.1269 129.961 56.3628 129.975 56.5987C129.99 57.1736 130.196 57.719 130.55 58.176C130.683 58.3235 130.845 58.4266 131.036 58.4856C131.198 58.5151 131.375 58.5004 131.537 58.4414C131.699 58.3824 131.832 58.2645 131.92 58.1171C131.979 57.9696 132.023 57.8517 132.053 57.7338Z" fill="#787CCB"/>
<path d="M123.302 57.5424C123.317 57.5572 123.317 57.5866 123.317 57.6014C123.317 57.6309 123.317 57.6456 123.302 57.6604C123.302 57.6751 123.287 57.7046 123.273 57.7193C123.258 57.7341 123.243 57.7488 123.214 57.7488C122.477 58.0289 121.711 58.1911 120.915 58.2353C120.061 58.2943 119.207 58.0879 118.499 57.6161C117.836 57.1591 117.38 56.4663 116.997 55.7586C116.982 55.7439 116.982 55.7144 116.982 55.6997C116.982 55.6849 116.982 55.6555 116.982 55.6407C116.997 55.626 116.997 55.5965 117.011 55.5818C117.026 55.567 117.041 55.5523 117.07 55.5523C118.16 55.0805 119.486 54.7267 120.606 55.0953C121.711 55.4786 122.683 56.54 123.302 57.5424Z" fill="white"/>
<path d="M121.107 56.5839C121.21 56.2596 121.21 55.9058 121.107 55.5815C121.062 55.4783 121.003 55.3898 120.93 55.3014C120.856 55.2277 120.768 55.154 120.65 55.1097C120.547 55.0655 120.444 55.0508 120.326 55.0508C120.208 55.0508 120.105 55.0803 120.002 55.1245C119.766 55.2719 119.545 55.4635 119.383 55.6994C119.044 56.1711 118.867 56.7461 118.853 57.3358C118.867 57.5274 118.926 57.7043 119.044 57.8665C119.132 57.9844 119.236 58.0728 119.368 58.1171C119.501 58.176 119.648 58.1908 119.781 58.176C119.958 58.1318 120.12 58.0434 120.267 57.9254C120.473 57.7633 120.65 57.5716 120.783 57.3505C120.93 57.0999 121.048 56.8493 121.107 56.5839Z" fill="#787CCB"/>
<path d="M116.849 64.7657C116.849 64.7657 115.376 72.3282 111.221 78.8883C108.039 83.9005 105.976 91.0946 108.775 97.8168C111.56 104.539 118.661 106.868 125.777 107.089C132.892 107.311 141.614 102.608 143.161 96.7407C144.708 90.8734 143.618 86.0086 141.054 81.4092C136.075 72.4904 134.557 64.7214 134.557 64.7214L116.849 64.7657Z" fill="#110580"/>
<path d="M116.378 101.885C115.803 101.811 115.199 101.87 114.654 102.077C114.094 102.283 113.608 102.622 113.225 103.064C112.488 103.978 112.356 105.379 113.019 106.352C113.755 107.413 115.17 107.723 116.466 107.856C118.322 108.032 120.179 108.018 122.02 107.782C122.86 107.679 123.715 107.517 124.407 107.03C125.099 106.544 125.571 105.659 125.335 104.848L116.378 101.885Z" fill="#110580"/>
<path d="M134.484 101.413C135.073 101.34 135.663 101.399 136.208 101.605C136.768 101.811 137.254 102.151 137.637 102.593C138.373 103.507 138.506 104.907 137.843 105.88C137.106 106.942 135.692 107.251 134.41 107.384C132.554 107.561 130.698 107.546 128.856 107.31C128.016 107.207 127.147 107.045 126.47 106.558C125.777 106.072 125.306 105.187 125.541 104.377L134.484 101.413Z" fill="#110580"/>
<path d="M119.369 60.5938C115.479 60.9918 111.546 60.8444 107.701 60.1515C107.229 60.0631 107.038 60.7854 107.494 60.8591C111.413 61.5667 115.406 61.7289 119.354 61.3309C119.825 61.2867 119.84 60.5496 119.369 60.5938Z" fill="#787CCB"/>
<path d="M119.692 62.4362C117.011 64.102 113.917 65.0308 110.75 65.1045C110.278 65.1045 110.278 65.8416 110.75 65.8416C114.05 65.7679 117.262 64.8096 120.061 63.0701C120.473 62.8195 120.105 62.1856 119.692 62.4362Z" fill="#787CCB"/>
<path d="M130.536 61.2864C131.803 61.1242 133.07 61.3748 134.337 61.4485C135.486 61.5075 136.635 61.4633 137.77 61.3306C140.083 61.0653 142.322 60.4166 144.429 59.4142C144.856 59.2078 144.488 58.5739 144.06 58.7803C142.013 59.7532 139.803 60.3871 137.549 60.623C136.444 60.7409 135.339 60.7704 134.219 60.7114C132.982 60.6377 131.759 60.4019 130.521 60.564C130.065 60.5935 130.065 61.3453 130.536 61.2864Z" fill="#787CCB"/>
<path d="M130.374 63.2765C133.129 64.5148 136.046 65.3256 139.036 65.6647C139.508 65.7237 139.508 64.9718 139.036 64.9276C136.178 64.6033 133.379 63.822 130.742 62.6426C130.315 62.451 129.946 63.0849 130.374 63.2765Z" fill="#787CCB"/>
<path d="M135.486 106.853C135.781 106.662 136.002 106.367 136.075 106.028C136.149 105.689 136.105 105.335 135.972 105.011C135.619 104.215 135.044 103.522 134.322 103.02C134.234 102.976 134.131 102.961 134.042 102.976C133.954 103.006 133.865 103.065 133.821 103.138C133.777 103.227 133.762 103.33 133.792 103.418C133.821 103.507 133.88 103.595 133.954 103.64C134.514 104.038 134.956 104.554 135.25 105.158C135.353 105.364 135.383 105.586 135.368 105.821C135.368 105.748 135.353 105.88 135.339 105.91C135.324 105.939 135.294 106.013 135.339 105.939L135.294 106.013L135.25 106.087C135.294 106.028 135.236 106.101 135.221 106.116C135.206 106.131 135.177 106.16 135.147 106.19C135.118 106.219 135.177 106.175 135.103 106.219C135.029 106.264 134.97 106.352 134.941 106.441C134.911 106.529 134.926 106.632 134.97 106.706C135.029 106.794 135.103 106.853 135.191 106.883C135.309 106.898 135.412 106.883 135.486 106.853Z" fill="#787CCB"/>
<path d="M131.111 103.875C131.494 104.804 131.626 105.836 131.464 106.838C131.449 106.927 131.464 107.03 131.508 107.119C131.552 107.207 131.641 107.266 131.729 107.295C131.818 107.325 131.921 107.31 132.009 107.266C132.098 107.222 132.156 107.148 132.186 107.045C132.377 105.851 132.23 104.627 131.759 103.507C131.7 103.418 131.626 103.359 131.538 103.33C131.449 103.3 131.346 103.315 131.258 103.374C131.169 103.433 131.111 103.507 131.096 103.595C131.052 103.698 131.066 103.802 131.111 103.875Z" fill="#787CCB"/>
<path d="M125.128 82.22C124.996 84.1217 124.908 86.0234 124.922 87.9398C124.922 89.4582 124.996 90.9767 124.996 92.4951C124.996 92.5983 125.04 92.6867 125.114 92.7604C125.187 92.8341 125.276 92.8636 125.379 92.8636C125.482 92.8636 125.57 92.8194 125.644 92.7604C125.718 92.6867 125.747 92.5983 125.747 92.4951C125.733 90.9767 125.674 89.4582 125.674 87.9398C125.674 86.0381 125.747 84.1217 125.88 82.22C125.895 81.7483 125.158 81.7483 125.128 82.22Z" fill="#787CCB"/>
<path d="M137.608 102.298C137.166 101.664 136.562 101.163 135.869 100.839C135.177 100.514 134.396 100.382 133.63 100.455L133.998 100.824C134.573 95.6937 134.617 90.5046 134.146 85.3597C134.101 84.8879 133.365 84.8879 133.409 85.3597C133.88 90.5046 133.821 95.6789 133.247 100.824C133.247 100.927 133.291 101.015 133.35 101.089C133.424 101.163 133.512 101.192 133.615 101.192C134.249 101.119 134.897 101.222 135.486 101.487C136.075 101.753 136.576 102.151 136.959 102.681C137.239 103.05 137.888 102.681 137.608 102.298Z" fill="#787CCB"/>
<path d="M117.276 87.9397C117.143 90.3574 116.878 92.7603 116.48 95.1337C116.407 95.6054 117.114 95.7971 117.188 95.3254C117.6 92.8782 117.88 90.4016 118.013 87.925C118.042 87.4532 117.306 87.4532 117.276 87.9397Z" fill="#787CCB"/>
<path d="M125.718 100.205C125.689 99.0549 125.821 97.905 125.792 96.7552C125.792 96.2834 125.055 96.2834 125.055 96.7552C125.085 97.905 124.937 99.0549 124.981 100.205C124.996 100.677 125.748 100.677 125.718 100.205Z" fill="#787CCB"/>
<path d="M100.85 84.7112C100.791 83.9151 95.2516 83.2812 88.4305 83.2812C81.5946 83.2812 76.0552 83.9151 76.011 84.7112V84.726C76.0405 85.522 81.5946 86.1707 88.4452 86.1707C95.2958 86.1707 100.85 85.522 100.879 84.726C100.865 84.726 100.85 84.7112 100.85 84.7112ZM88.4305 85.9495C82.6553 85.9495 77.9704 85.4041 77.9556 84.7407C77.9556 84.7407 77.9556 84.7407 77.9556 84.726C77.9998 84.0626 82.67 83.5171 88.4305 83.5171C94.1909 83.5171 98.8611 84.0626 98.9053 84.726C98.9053 84.726 98.9053 84.7259 98.9053 84.7407C98.8905 85.3893 94.2056 85.9348 88.4305 85.9495Z" fill="#E8D4C1"/>
<path d="M88.4298 85.9346C94.2049 85.9346 98.8899 85.3891 98.9194 84.7258C98.9194 84.7258 98.9194 84.7258 98.9194 84.711C98.8752 84.0476 94.1902 83.5022 88.4445 83.5022C82.6841 83.5022 78.0139 84.0476 77.9697 84.711C77.9697 84.711 77.9697 84.711 77.9697 84.7258C77.9697 85.3891 82.6547 85.9346 88.4298 85.9346Z" fill="#BA9C7E"/>
<path d="M89.0194 86.0823C88.5922 79.8613 87.7524 73.655 86.5296 67.5371C85.3068 61.434 83.6863 55.4046 81.6974 49.5226C80.5777 46.191 79.3254 42.9183 77.9553 39.6751C77.8963 39.5719 77.7932 39.4834 77.6754 39.4539C77.5575 39.4245 77.4249 39.4392 77.3218 39.4982C77.2187 39.5719 77.145 39.6751 77.1156 39.793C77.0861 39.911 77.1008 40.0436 77.1597 40.1468C79.5611 45.8371 81.5943 51.6897 83.2443 57.6454C84.8796 63.5716 86.1465 69.601 87.0158 75.6893C87.5019 79.1389 87.8703 82.6033 88.106 86.0823C88.1208 86.672 89.0636 86.6867 89.0194 86.0823Z" fill="#4C7378"/>
<path d="M92.2165 87.2615C91.8776 77.5171 92.2901 67.758 93.454 58.0727C93.7781 55.3602 94.1611 52.6624 94.6031 49.9647C94.7062 49.375 93.7929 49.1244 93.7045 49.714C92.1134 59.3699 91.2736 69.1438 91.1705 78.9471C91.141 81.7185 91.1852 84.49 91.2736 87.2615C91.3031 87.8659 92.2312 87.8659 92.2165 87.2615Z" fill="#4C7378"/>
<path d="M86.751 88.1309C85.3367 80.3177 82.2428 72.9026 77.6758 66.4015C76.394 64.5735 75.0092 62.8339 73.5065 61.1976C73.094 60.7554 72.4458 61.4187 72.8435 61.861C78.0736 67.6693 81.9776 74.539 84.2906 82.0131C84.9389 84.1064 85.4545 86.2292 85.8376 88.3815C85.9554 88.9712 86.8541 88.7206 86.751 88.1309Z" fill="#4C7378"/>
<path d="M78.3683 79.6839L76.0995 78.5783L74.1253 77.6495C72.9614 77.0894 72.1217 76.6324 72.0922 76.2491C72.0775 75.91 72.8878 75.3056 74.4053 75.0255C74.5968 74.996 74.7883 74.9665 74.9946 74.937C75.2008 74.9076 75.4218 74.9076 75.6428 74.9076C76.1142 74.8928 76.6004 74.9223 77.0718 74.9813C78.162 75.1287 79.208 75.453 80.1951 75.9248C81.1822 76.4112 82.0661 77.0599 82.8322 77.8412C83.1711 78.1803 83.4657 78.5488 83.7457 78.9468C83.8783 79.1385 83.9961 79.3006 84.0992 79.4923C84.2171 79.6692 84.3055 79.8461 84.3939 80.023C85.0863 81.4087 85.101 82.4259 84.88 82.5586C84.6001 82.765 83.7162 82.3669 82.5523 81.792L80.6076 80.8043L78.3683 79.6839Z" fill="#4C7378"/>
<path d="M71.6793 62.2153C70.5449 60.2842 69.7199 58.1761 69.2484 55.9943C68.9096 54.2695 68.9979 53.1196 69.3368 52.9722C69.6609 52.8248 70.5448 53.5766 71.635 54.8592C72.9904 56.5102 74.2133 58.2645 75.2887 60.122C76.3642 61.9647 77.2776 63.9106 78.0143 65.9303C78.5888 67.5371 78.795 68.6575 78.5741 68.8197C78.3089 69.0261 77.2629 68.5248 75.9222 67.3897C74.228 65.9008 72.7989 64.1613 71.6793 62.2153Z" fill="#689399"/>
<path d="M79.4579 67.7581C78.5739 62.51 79.3106 58.058 80.0619 57.9548C80.7986 57.8516 82.7138 61.8909 83.583 67.0653C84.4522 72.2396 83.7451 76.7212 83.2147 76.8244C82.5517 76.957 80.3271 73.0062 79.4579 67.7581Z" fill="#57848A"/>
<path d="M75.4065 39.4243C74.5962 37.0214 74.0953 34.5153 73.9332 31.9797C73.8301 30.0043 74.0364 28.7218 74.4047 28.6333C74.7583 28.5301 75.5538 29.562 76.4819 31.2574C77.6458 33.4539 78.6182 35.7389 79.3843 38.0976C80.1651 40.4563 80.7397 42.8739 81.0932 45.3358C81.3437 47.267 81.329 48.5495 81.0785 48.6674C80.7691 48.8001 79.8262 47.9009 78.7213 46.2645C77.307 44.1417 76.202 41.842 75.4065 39.4243Z" fill="#57848A"/>
<path d="M81.4323 46.9277C81.226 41.9302 82.3015 37.7878 83.0529 37.7436C83.8042 37.6846 85.3954 41.6944 85.6016 46.7656C85.8079 51.8367 84.3199 55.9645 83.7895 55.9645C83.1118 55.9645 81.6385 51.9399 81.4323 46.9277Z" fill="#4C7378"/>
<path d="M77.4843 54.3282C76.3941 53.4143 75.4512 52.3233 74.6999 51.1293C74.0958 50.1416 73.8453 49.3308 74.0663 49.0212C74.2873 48.7116 75.1271 48.6969 76.291 49.0212C77.72 49.4487 79.0607 50.1858 80.1951 51.1588C81.3295 52.1465 82.2429 53.37 82.8617 54.741C83.3478 55.8466 83.4362 56.7017 83.2447 56.8933C82.9943 57.1439 82.1545 57.0112 81.0938 56.569C79.7826 56.0088 78.5598 55.257 77.4843 54.3282Z" fill="#689399"/>
<path d="M87.8263 74.746C87.2075 73.1097 86.7361 71.4291 86.3973 69.7043C86.1468 68.3186 86.1468 67.3309 86.471 67.1245C86.7951 66.9329 87.679 67.4046 88.725 68.466C90.0509 69.8518 91.0675 71.4881 91.7304 73.2866C92.3934 75.0851 92.6733 77.0015 92.5407 78.918C92.4228 80.4069 92.0546 81.3504 91.7747 81.3798C91.4358 81.4388 90.7875 80.687 90.0509 79.4781C89.1817 77.9745 88.4303 76.3971 87.8263 74.746Z" fill="#4C7378"/>
<path d="M91.6418 72.9471C92.1869 71.0012 93.0266 69.1437 94.1463 67.4631C95.045 66.1511 95.8553 65.4582 96.2089 65.5762C96.5624 65.7088 96.7097 66.7555 96.6361 68.3034C96.5182 70.2641 96.1941 72.1953 95.649 74.0822C95.1186 75.9692 94.3673 77.7971 93.3949 79.5072C92.6288 80.8634 91.9364 81.6742 91.6712 81.6153C91.3471 81.5416 91.0082 80.5244 90.9346 78.9323C90.8462 76.9274 91.082 74.893 91.6418 72.9471Z" fill="#57848A"/>
<path d="M88.0767 53.2668C86.8686 48.9622 87.0601 45.1146 87.782 44.8788C88.5039 44.6281 90.8758 47.7681 92.0986 52.1317C93.3214 56.51 92.7174 60.4461 92.2018 60.5788C91.5388 60.7262 89.2995 57.5567 88.0767 53.2668Z" fill="#4C7378"/>
<path d="M92.3049 44.658C92.5996 42.255 93.2036 39.8816 94.117 37.6408C94.8536 35.9013 95.5608 34.8841 95.9438 34.9431C96.651 35.0905 97.1371 39.7342 96.4594 45.1887C96.1648 47.5474 95.6345 49.8766 94.8684 52.1321C94.2643 53.9011 93.6603 54.992 93.3951 54.9772C93.0563 54.9478 92.6143 53.7831 92.3343 51.9109C91.9955 49.4933 91.9955 47.0609 92.3049 44.658Z" fill="#4C7378"/>
<path d="M88.4305 86.1706C95.1779 86.1706 100.658 85.5514 100.85 84.7701L99.8629 96.5488C99.8629 102.136 94.7212 106.706 88.4305 106.706C82.1397 106.706 76.998 102.136 76.998 96.5488L76.011 84.7554C76.1436 85.5367 81.6535 86.1706 88.4305 86.1706Z" fill="#DEC7B2"/>
<path d="M100.422 89.8118C99.5676 89.8413 98.7573 90.1951 98.1533 90.7995C96.8716 92.0378 96.0907 93.9395 95.0447 95.3842C94.6617 94.6029 94.3081 93.8068 94.0135 92.9813C93.6452 91.9936 92.334 91.0943 91.3027 91.8756C90.242 92.7012 89.3433 93.7184 88.6803 94.883C88.0616 95.9149 87.5607 97.1385 86.6178 97.905C85.6602 98.6716 84.6437 98.8632 84.2753 97.5512C83.9365 96.3866 84.0544 95.1336 83.686 93.9837C83.3767 93.0107 82.8757 92.0083 81.8886 91.5808C80.71 91.0796 79.5904 91.6987 78.5443 92.2294C77.9256 92.539 77.3068 92.8781 76.7175 93.2319L76.9238 95.7232C77.9845 95.0598 79.2957 94.2491 80.3859 94.0869C81.0783 93.9837 81.0342 94.4554 81.0784 95.1041C81.1226 95.6938 81.1226 96.2687 81.152 96.8584C81.211 98.0377 81.4024 99.2318 82.0801 100.219C83.5681 102.328 86.382 102.224 88.3562 100.883C89.3727 100.161 90.2272 99.2318 90.8755 98.1556C91.0965 97.8166 91.3027 97.4333 91.5237 97.0647C92.3782 99.0402 93.6599 100.809 95.8109 100.057C97.1515 99.6003 98.006 98.1409 98.8015 97.0647C99.052 96.7257 99.494 95.9149 99.9507 95.1778L100.422 89.8118Z" fill="#EBDBCD"/>
<path d="M85.7632 59.7974C86.2494 57.2913 87.0302 54.8589 88.1204 52.5591C88.9896 50.7754 89.7999 49.7582 90.1535 49.8466C90.8459 50.0383 90.9785 54.9326 89.8589 60.6082C89.579 62.0381 89.2401 63.3796 88.8718 64.5885C88.5182 65.7973 88.1352 66.8145 87.8847 67.6695C87.6343 68.5245 87.4575 69.2321 87.3543 69.7628C87.2365 70.2935 87.1628 70.6326 87.0302 70.6768C86.8976 70.7211 86.5587 70.5294 86.2052 69.9987C85.7632 69.2469 85.4538 68.4213 85.336 67.5663C85.1592 66.3722 85.115 65.1487 85.2181 63.9398C85.3065 62.5541 85.4833 61.1684 85.7632 59.7974Z" fill="#57848A"/>
<path d="M100.835 84.623H98.8905C98.9053 84.6525 98.92 84.682 98.92 84.7115C98.92 84.7115 98.92 84.7115 98.92 84.7262C98.9053 85.4044 94.2203 85.9351 88.4452 85.9351C82.6701 85.9351 77.9851 85.3896 77.9556 84.7262C77.9556 84.7262 77.9556 84.7262 77.9556 84.7115C77.9556 84.682 77.9704 84.6525 77.9999 84.623H76.0552C76.0404 84.6525 76.0257 84.682 76.011 84.7115V84.7262C76.0405 85.5223 81.5946 86.1709 88.4452 86.1709C95.2958 86.1709 100.85 85.5223 100.879 84.7262V84.7115C100.865 84.682 100.85 84.6525 100.835 84.623Z" fill="#E8D4C1"/>
<path d="M93.0562 57.3797C93.7928 55.5812 94.8241 53.9154 96.1058 52.4707C97.1371 51.3503 98.021 50.8196 98.3599 50.9965C98.684 51.1734 98.7135 52.1906 98.4778 53.6501C98.1537 55.4781 97.638 57.2618 96.9161 58.9866C96.5331 59.9153 96.0764 60.8293 95.5902 61.6991C95.1777 62.4214 94.721 63.129 94.2348 63.8072C93.8223 64.3526 93.5129 64.7949 93.2772 65.1339C93.0415 65.473 92.8794 65.7236 92.7321 65.7384C92.5995 65.7531 92.3048 65.5467 92.0986 65.0897C91.8481 64.4558 91.745 63.7629 91.7892 63.0701C91.8187 62.1856 91.9365 61.2863 92.1281 60.4165C92.3491 59.3699 92.6584 58.3527 93.0562 57.3797Z" fill="#689399"/>
<path d="M128.488 41.8123C127.206 41.5322 126.131 39.8221 125.733 38.7755C125.556 38.2153 125.512 37.6403 125.615 37.0654C125.645 36.7853 125.733 36.52 125.866 36.2694C125.998 36.0187 126.175 35.8123 126.411 35.6354C126.676 35.4585 126.971 35.3553 127.295 35.3553C127.604 35.3406 127.928 35.4291 128.194 35.5912C128.459 35.7534 128.665 35.9745 128.827 36.2251C128.989 36.4757 129.092 36.7706 129.136 37.0802C129.593 36.6821 130.168 36.4315 130.786 36.3725C131.273 36.2988 131.847 36.3283 132.23 36.6526C132.731 37.0654 132.775 37.8467 132.51 38.4364C132.157 39.144 131.685 39.7779 131.081 40.2939C130.315 40.972 129.431 41.488 128.488 41.8123Z" fill="#F23C49"/>
<path d="M134.071 32.9818C133.291 33.1587 132.259 32.5101 131.788 32.0383C131.552 31.7877 131.375 31.4781 131.272 31.1391C131.213 30.9769 131.184 30.8147 131.199 30.6378C131.213 30.4609 131.257 30.2988 131.331 30.1514C131.42 29.9892 131.567 29.8565 131.729 29.7681C131.906 29.6796 132.097 29.6501 132.289 29.6649C132.466 29.6796 132.642 29.7386 132.804 29.8418C132.966 29.945 133.099 30.0629 133.187 30.2251C133.335 29.886 133.585 29.6059 133.909 29.4143C134.027 29.3258 134.174 29.2521 134.322 29.2079C134.469 29.1637 134.631 29.1637 134.779 29.1932C134.97 29.2669 135.117 29.3848 135.235 29.547C135.353 29.7091 135.397 29.9008 135.397 30.1071C135.397 30.5936 135.294 31.0654 135.117 31.5076C134.852 32.0383 134.499 32.5395 134.071 32.9818Z" fill="#FF7A82"/>
<path d="M130.933 110.878C130.697 109.964 130.226 109.124 129.592 108.431L124.451 102.048C123.375 100.868 122.079 99.9247 120.62 99.2908C119.162 98.6422 117.585 98.3179 115.994 98.3179H100.127C98.5361 98.3179 96.9597 98.6422 95.5012 99.2908C94.0427 99.9395 92.7462 100.868 91.6708 102.048L86.5291 108.431C85.8956 109.124 85.4389 109.964 85.1885 110.878C84.7612 112.544 84.6581 115.035 87.2953 116.288C90.669 117.895 96.4294 114.991 99.3022 113.074C100.289 112.411 101.468 112.057 102.661 112.057H113.445C114.654 112.057 115.817 112.087 116.804 112.75C119.677 114.681 125.438 117.895 128.811 116.288C131.463 115.035 131.36 112.544 130.933 110.878Z" fill="#4E53BA"/>
<path d="M114.875 100.662C115.626 100.662 116.23 100.426 116.23 100.146C116.23 99.866 115.626 99.6301 114.875 99.6301C114.124 99.6301 113.52 99.866 113.52 100.146C113.52 100.426 114.124 100.662 114.875 100.662Z" fill="#AAACE3"/>
<path d="M114.875 100.662C114.138 100.662 113.52 100.426 113.52 100.146V100.574C113.52 100.854 114.124 101.09 114.875 101.09C115.626 101.09 116.23 100.854 116.23 100.574V100.146C116.23 100.426 115.626 100.662 114.875 100.662Z" fill="#868AE0"/>
<path d="M120.37 100.662C121.122 100.662 121.726 100.426 121.726 100.146C121.726 99.866 121.122 99.6301 120.37 99.6301C119.619 99.6301 119.015 99.866 119.015 100.146C119.015 100.426 119.619 100.662 120.37 100.662Z" fill="#AAACE3"/>
<path d="M120.37 100.662C119.634 100.662 119.015 100.426 119.015 100.146V100.574C119.015 100.854 119.619 101.09 120.37 101.09C121.122 101.09 121.726 100.854 121.726 100.574V100.146C121.726 100.426 121.122 100.662 120.37 100.662Z" fill="#868AE0"/>
<path d="M117.63 99.5122C118.381 99.5122 118.985 99.2763 118.985 98.9962C118.985 98.7161 118.381 98.4802 117.63 98.4802C116.878 98.4802 116.274 98.7161 116.274 98.9962C116.274 99.2763 116.863 99.5122 117.63 99.5122Z" fill="#AAACE3"/>
<path d="M117.63 99.5121C116.893 99.5121 116.274 99.2762 116.274 98.9961V99.4236C116.274 99.7037 116.878 99.9396 117.63 99.9396C118.381 99.9396 118.985 99.7037 118.985 99.4236V98.9961C118.985 99.2762 118.381 99.5121 117.63 99.5121Z" fill="#868AE0"/>
<path d="M117.63 101.93C118.381 101.93 118.985 101.694 118.985 101.414C118.985 101.134 118.381 100.898 117.63 100.898C116.878 100.898 116.274 101.134 116.274 101.414C116.259 101.709 116.864 101.93 117.63 101.93Z" fill="#AAACE3"/>
<path d="M117.63 101.93C116.893 101.93 116.274 101.694 116.274 101.414V101.841C116.274 102.121 116.878 102.357 117.63 102.357C118.381 102.357 118.985 102.121 118.985 101.841V101.414C118.985 101.708 118.381 101.93 117.63 101.93Z" fill="#868AE0"/>
<path d="M99.4798 100.677C100.894 100.677 102.029 100.249 102.029 99.7037C102.029 99.173 100.879 98.7307 99.4798 98.7307C98.0655 98.7307 96.9312 99.1582 96.9312 99.7037C96.9312 100.249 98.0803 100.677 99.4798 100.677Z" fill="#2B31BA"/>
<path d="M99.4798 100.677C98.0655 100.677 96.9312 100.249 96.9312 99.7039V100.5C96.9312 101.031 98.0803 101.473 99.4798 101.473C100.894 101.473 102.029 101.045 102.029 100.5V99.7039C102.029 100.249 100.894 100.677 99.4798 100.677Z" fill="#110580"/>
<path d="M112.783 104.377C114.197 104.377 115.331 103.95 115.331 103.404C115.331 102.873 114.182 102.431 112.783 102.431C111.368 102.431 110.234 102.859 110.234 103.404C110.234 103.935 111.368 104.377 112.783 104.377Z" fill="#2B31BA"/>
<path d="M112.783 104.377C111.383 104.377 110.234 103.949 110.234 103.404V104.215C110.234 104.745 111.368 105.188 112.783 105.188C114.197 105.188 115.331 104.76 115.331 104.215V103.419C115.331 103.935 114.197 104.377 112.783 104.377Z" fill="#110580"/>
<path d="M105.932 100.382C106.301 100.382 106.595 100.264 106.595 100.131C106.595 99.9985 106.301 99.8806 105.932 99.8806C105.564 99.8806 105.269 99.9985 105.269 100.131C105.269 100.279 105.564 100.382 105.932 100.382Z" fill="#AAACE3"/>
<path d="M105.932 100.382C105.564 100.382 105.269 100.264 105.269 100.131V100.337C105.269 100.485 105.564 100.588 105.932 100.588C106.301 100.588 106.595 100.47 106.595 100.337V100.131C106.61 100.279 106.301 100.382 105.932 100.382Z" fill="#868AE0"/>
<path d="M110.19 100.382C110.558 100.382 110.853 100.264 110.853 100.131C110.853 99.9985 110.558 99.8806 110.19 99.8806C109.822 99.8806 109.527 99.9985 109.527 100.131C109.512 100.279 109.822 100.382 110.19 100.382Z" fill="#AAACE3"/>
<path d="M110.19 100.382C109.822 100.382 109.527 100.264 109.527 100.131V100.337C109.527 100.485 109.822 100.588 110.19 100.588C110.559 100.588 110.853 100.47 110.853 100.337V100.131C110.853 100.279 110.559 100.382 110.19 100.382Z" fill="#868AE0"/>
<path d="M106.271 103.655H104.901C104.724 103.655 104.577 103.596 104.577 103.522V102.962C104.577 102.888 104.429 102.829 104.253 102.829H102.912C102.735 102.829 102.588 102.888 102.588 102.962V103.522C102.588 103.596 102.441 103.655 102.264 103.655H100.894C100.717 103.655 100.57 103.714 100.57 103.787V104.495C100.57 104.569 100.717 104.628 100.894 104.628H102.264C102.441 104.628 102.588 104.687 102.588 104.76V105.32C102.588 105.394 102.735 105.453 102.912 105.453H104.253C104.429 105.453 104.577 105.394 104.577 105.32V104.76C104.577 104.687 104.724 104.628 104.901 104.628H106.271C106.448 104.628 106.595 104.569 106.595 104.495V103.787C106.61 103.714 106.463 103.655 106.271 103.655Z" fill="#868AE0"/>
<path d="M106.271 102.991H104.901C104.724 102.991 104.577 102.932 104.577 102.859V102.298C104.577 102.225 104.429 102.166 104.253 102.166H102.912C102.735 102.166 102.588 102.225 102.588 102.298V102.859C102.588 102.932 102.441 102.991 102.264 102.991H100.894C100.717 102.991 100.57 103.05 100.57 103.124V103.832C100.57 103.905 100.717 103.964 100.894 103.964H102.264C102.441 103.964 102.588 104.023 102.588 104.097V104.657C102.588 104.731 102.735 104.79 102.912 104.79H104.253C104.429 104.79 104.577 104.731 104.577 104.657V104.097C104.577 104.023 104.724 103.964 104.901 103.964H106.271C106.448 103.964 106.595 103.905 106.595 103.832V103.124C106.61 103.05 106.463 102.991 106.271 102.991Z" fill="#AAACE3"/>
</g>
<defs>
<clipPath id="clip0_572_916">
<rect width="85.9256" height="88.1288" fill="white" transform="translate(69.0342 28.6262)"/>
</clipPath>
</defs>
</svg>
