<svg width="24" height="24" viewBox="0 0 24 24" fill="none" xmlns="http://www.w3.org/2000/svg">
<g clip-path="url(#clip0_295_5937)">
<path d="M18.9813 12.0954C18.9813 13.6383 17.5599 15.417 15.8079 16.0681L4.17272 20.3926C2.42069 21.0444 1 20.3218 1 18.7789V8.53605C1 6.99367 2.42069 5.2156 4.17272 4.56393L15.8079 0.239391C17.5599 -0.411672 18.9813 0.310874 18.9813 1.85377V12.0954Z" fill="#4861B4"/>
<path d="M21.4676 3.40356V13.6114C21.4676 15.1537 20.0469 16.9324 18.2942 17.5834L6.65902 21.908C6.05768 22.1319 5.4963 22.1909 5.01672 22.1125V22.147C5.01672 23.6887 6.43749 24.4118 8.18953 23.7608L19.8253 19.4362C21.5774 18.7846 22.9981 17.0064 22.9981 15.4635V5.2212C22.9981 4.20834 22.3839 3.55288 21.4676 3.40356Z" fill="#25336D"/>
<path d="M17.0457 19.825C15.5473 19.825 14.2769 19.3559 13.2331 18.4151C12.19 17.4749 11.6685 16.3447 11.6685 15.0244V8.06679L14.4949 7.01624L9.42553 3.23291L4.81348 10.6139L7.83453 9.49116V15.0213C7.83453 17.2347 8.74006 19.1188 10.5498 20.6718C11.2224 21.2482 12.0937 21.7937 12.8632 22.1562L18.9016 19.825H17.0457Z" fill="white"/>
</g>
<defs>
<clipPath id="clip0_295_5937">
<rect width="24" height="24" fill="white"/>
</clipPath>
</defs>
</svg>
