<svg xmlns="http://www.w3.org/2000/svg" width="26" height="27" viewBox="0 0 26 27" fill="none">
<path d="M11.6671 5.17969H4.32446C3.76806 5.17969 3.23446 5.40072 2.84102 5.79415C2.44759 6.18758 2.22656 6.72119 2.22656 7.27759V21.9629C2.22656 22.5193 2.44759 23.0529 2.84102 23.4463C3.23446 23.8397 3.76806 24.0608 4.32446 24.0608H19.0098C19.5662 24.0608 20.0998 23.8397 20.4932 23.4463C20.8866 23.0529 21.1077 22.5193 21.1077 21.9629V14.6202" stroke="#5D6B98" stroke-width="1.57342" stroke-linecap="round" stroke-linejoin="round"/>
<path d="M19.5369 3.60486C19.9542 3.18756 20.5202 2.95312 21.1103 2.95312C21.7005 2.95313 22.2665 3.18756 22.6838 3.60486C23.1011 4.02216 23.3355 4.58813 23.3355 5.17828C23.3355 5.76843 23.1011 6.33441 22.6838 6.75171L12.7187 16.7167L8.52295 17.7657L9.5719 13.5699L19.5369 3.60486Z" stroke="#5D6B98" stroke-width="1.57342" stroke-linecap="round" stroke-linejoin="round"/>
</svg>