<svg width="44" height="45" viewBox="0 0 44 45" fill="none" xmlns="http://www.w3.org/2000/svg">
<circle cx="21.9931" cy="22.0649" r="21.9931" fill="#FF5757" fill-opacity="0.1"/>
<path d="M22.0026 12.9048C27.0654 12.9048 31.1693 17.0087 31.1693 22.0715C31.1693 27.1342 27.0654 31.2381 22.0026 31.2381H14.6693C14.183 31.2381 13.7167 31.045 13.3729 30.7011C13.0291 30.3573 12.8359 29.891 12.8359 29.4048V22.0715C12.8359 17.0087 16.9399 12.9048 22.0026 12.9048ZM22.0026 14.7381C20.0577 14.7381 18.1924 15.5107 16.8172 16.886C15.4419 18.2613 14.6693 20.1265 14.6693 22.0715V29.4048H22.0026C23.9475 29.4048 25.8128 28.6322 27.1881 27.2569C28.5633 25.8816 29.3359 24.0164 29.3359 22.0715C29.3359 20.1265 28.5633 18.2613 27.1881 16.886C25.8128 15.5107 23.9475 14.7381 22.0026 14.7381ZM22.0026 23.9048C22.2362 23.905 22.461 23.9945 22.6309 24.1549C22.8008 24.3153 22.903 24.5345 22.9167 24.7677C22.9304 25.001 22.8545 25.2306 22.7045 25.4098C22.5546 25.589 22.3419 25.7041 22.1099 25.7317L22.0026 25.7381H19.2526C19.019 25.7379 18.7942 25.6484 18.6243 25.488C18.4545 25.3276 18.3522 25.1084 18.3385 24.8752C18.3248 24.6419 18.4007 24.4123 18.5507 24.2331C18.7006 24.0539 18.9134 23.9388 19.1454 23.9112L19.2526 23.9048H22.0026ZM24.7526 20.2381C24.9957 20.2381 25.2289 20.3347 25.4008 20.5066C25.5727 20.6785 25.6693 20.9117 25.6693 21.1548C25.6693 21.3979 25.5727 21.6311 25.4008 21.803C25.2289 21.9749 24.9957 22.0715 24.7526 22.0715H19.2526C19.0095 22.0715 18.7763 21.9749 18.6044 21.803C18.4325 21.6311 18.3359 21.3979 18.3359 21.1548C18.3359 20.9117 18.4325 20.6785 18.6044 20.5066C18.7763 20.3347 19.0095 20.2381 19.2526 20.2381H24.7526Z" fill="#FF5757"/>
</svg>
