<svg xmlns="http://www.w3.org/2000/svg" width="18" height="18" viewBox="0 0 18 18" fill="none">
<path fill-rule="evenodd" clip-rule="evenodd" d="M9.1177 7.75741C8.27635 7.75741 7.5943 8.43946 7.5943 9.28081C7.5943 10.1222 8.27635 10.8042 9.1177 10.8042C9.95905 10.8042 10.6411 10.1222 10.6411 9.28081C10.6411 8.43946 9.95905 7.75741 9.1177 7.75741ZM6.0709 9.28081C6.0709 7.59811 7.435 6.23401 9.1177 6.23401C10.8004 6.23401 12.1645 7.59811 12.1645 9.28081C12.1645 10.9635 10.8004 12.3276 9.1177 12.3276C7.435 12.3276 6.0709 10.9635 6.0709 9.28081Z" fill="#9691A4"/>
<path fill-rule="evenodd" clip-rule="evenodd" d="M9.11769 3.94891C6.17296 3.94891 3.78579 6.33609 3.78579 9.28081C3.78579 12.2255 6.17296 14.6127 9.11769 14.6127C12.0624 14.6127 14.4496 12.2255 14.4496 9.28081C14.4496 6.33609 12.0624 3.94891 9.11769 3.94891ZM2.26239 9.28081C2.26239 5.49474 5.33161 2.42551 9.11769 2.42551C12.9038 2.42551 15.973 5.49474 15.973 9.28081C15.973 13.0669 12.9038 16.1361 9.11769 16.1361C5.33161 16.1361 2.26239 13.0669 2.26239 9.28081Z" fill="#9691A4"/>
<path fill-rule="evenodd" clip-rule="evenodd" d="M9.1177 0.9021C9.53838 0.9021 9.8794 1.24312 9.8794 1.6638V3.1872C9.8794 3.60788 9.53836 3.94891 9.11769 3.94891C8.69701 3.94891 8.356 3.60788 8.356 3.1872V1.6638C8.356 1.24312 8.69702 0.9021 9.1177 0.9021Z" fill="#9691A4"/>
<path fill-rule="evenodd" clip-rule="evenodd" d="M9.11769 14.6127C9.53836 14.6127 9.8794 14.9537 9.8794 15.3744V16.8978C9.8794 17.3185 9.53838 17.6595 9.1177 17.6595C8.69702 17.6595 8.356 17.3185 8.356 16.8978V15.3744C8.356 14.9537 8.69701 14.6127 9.11769 14.6127Z" fill="#9691A4"/>
<path fill-rule="evenodd" clip-rule="evenodd" d="M14.4496 9.28081C14.4496 8.86014 14.7906 8.51911 15.2113 8.51911H16.7347C17.1554 8.51911 17.4964 8.86013 17.4964 9.28081C17.4964 9.70148 17.1554 10.0425 16.7347 10.0425H15.2113C14.7906 10.0425 14.4496 9.70149 14.4496 9.28081Z" fill="#9691A4"/>
<path fill-rule="evenodd" clip-rule="evenodd" d="M0.739014 9.28081C0.739014 8.86013 1.08004 8.51911 1.50071 8.51911H3.02411C3.44479 8.51911 3.78579 8.86014 3.78579 9.28081C3.78579 9.70149 3.44479 10.0425 3.02411 10.0425H1.50071C1.08004 10.0425 0.739014 9.70148 0.739014 9.28081Z" fill="#9691A4"/>
</svg>