<svg xmlns="http://www.w3.org/2000/svg" width="11" height="12" viewBox="0 0 11 12" fill="none">
<path d="M4.51562 11.7715C3.17396 10.6298 2.17196 9.56948 1.50962 8.59048C0.847292 7.61148 0.515958 6.70515 0.515625 5.87148C0.515625 4.62148 0.917792 3.62565 1.72213 2.88398C2.52646 2.14232 3.45762 1.77148 4.51562 1.77148H4.76562C4.84896 1.77148 4.93229 1.77982 5.01562 1.79648V2.80898C4.93229 2.79232 4.85096 2.78182 4.77163 2.77748C4.69229 2.77315 4.60696 2.77115 4.51562 2.77148C3.67396 2.77148 2.96362 3.06115 2.38462 3.64048C1.80562 4.21982 1.51596 4.96348 1.51562 5.87148C1.51562 6.46315 1.76146 7.14032 2.25312 7.90298C2.74479 8.66565 3.49896 9.51348 4.51562 10.4465C5.53229 9.51315 6.28646 8.66532 6.77812 7.90298C7.26979 7.14065 7.51562 6.46348 7.51562 5.87148V5.77148H8.51562V5.87148C8.51562 6.70482 8.18446 7.61115 7.52213 8.59048C6.85979 9.56982 5.85763 10.6302 4.51562 11.7715ZM4.51562 6.77148C4.79063 6.77148 5.02612 6.67365 5.22213 6.47798C5.41813 6.28232 5.51596 6.04682 5.51562 5.77148C5.51529 5.49615 5.41746 5.26082 5.22213 5.06548C5.02679 4.87015 4.79129 4.77215 4.51562 4.77148C4.23996 4.77082 4.00463 4.86882 3.80963 5.06548C3.61463 5.26215 3.51662 5.49748 3.51562 5.77148C3.51463 6.04548 3.61263 6.28098 3.80963 6.47798C4.00663 6.67498 4.24196 6.77282 4.51562 6.77148ZM7.51562 4.77148H8.51562V3.27148H10.0156V2.27148H8.51562V0.771484H7.51562V2.27148H6.01562V3.27148H7.51562V4.77148Z" fill="#282823"/>
</svg>