<svg xmlns="http://www.w3.org/2000/svg" width="14" height="14" viewBox="0 0 14 14" fill="none">
<g clip-path="url(#clip0_648_6774)">
<path opacity="0.25" d="M11.894 5.54663C11.894 8.5058 9.29391 11.0316 7.90141 12.1721C7.39654 12.5856 6.69233 12.5856 6.18746 12.1721C4.79495 11.0316 2.19482 8.5058 2.19482 5.54663C2.19482 2.86826 4.36607 0.697021 7.04443 0.697021C9.7228 0.697021 11.894 2.86826 11.894 5.54663Z" fill="#5E6278"/>
<path d="M8.66129 5.00774C8.66129 5.90053 7.93755 6.62428 7.04476 6.62428C6.15197 6.62428 5.42822 5.90053 5.42822 5.00774C5.42822 4.11495 6.15197 3.3912 7.04476 3.3912C7.93755 3.3912 8.66129 4.11495 8.66129 5.00774Z" fill="#5E6278"/>
</g>
<defs>
<clipPath id="clip0_648_6774">
<rect width="12.9323" height="12.9323" fill="white" transform="translate(0.578613 0.158142)"/>
</clipPath>
</defs>
</svg>