<svg xmlns="http://www.w3.org/2000/svg" width="16" height="16" viewBox="0 0 16 16" fill="none">
<path d="M8.17892 5.45325C6.67245 5.45325 5.45228 6.67342 5.45228 8.17989C5.45228 9.68636 6.67245 10.9065 8.17892 10.9065C9.68538 10.9065 10.9056 9.68636 10.9056 8.17989C10.9056 6.67342 9.68538 5.45325 8.17892 5.45325ZM14.2729 7.49823C13.9594 4.65571 11.7031 2.39942 8.86057 2.08586V0.681641H7.49726V2.08586C4.65474 2.39942 2.39845 4.65571 2.08488 7.49823H0.680664V8.86155H2.08488C2.39845 11.7041 4.65474 13.9604 7.49726 14.2739V15.6781H8.86057V14.2739C11.7031 13.9604 13.9594 11.7041 14.2729 8.86155H15.6772V7.49823H14.2729ZM8.17892 12.9515C5.54089 12.9515 3.4073 10.8179 3.4073 8.17989C3.4073 5.54187 5.54089 3.40828 8.17892 3.40828C10.8169 3.40828 12.9505 5.54187 12.9505 8.17989C12.9505 10.8179 10.8169 12.9515 8.17892 12.9515Z" fill="#F8FCFF"/>
</svg>