<svg xmlns="http://www.w3.org/2000/svg" width="11" height="14" viewBox="0 0 11 14" fill="none">
<path fill-rule="evenodd" clip-rule="evenodd" d="M8.41683 4.95833H9.00016C9.64183 4.95833 10.1668 5.48333 10.1668 6.125V11.9583C10.1668 12.6 9.64183 13.125 9.00016 13.125H2.00016C1.3585 13.125 0.833496 12.6 0.833496 11.9583V6.125C0.833496 5.48333 1.3585 4.95833 2.00016 4.95833H2.5835V3.79167C2.5835 2.18167 3.89016 0.875 5.50016 0.875C7.11016 0.875 8.41683 2.18167 8.41683 3.79167V4.95833ZM5.50016 2.04167C4.53183 2.04167 3.75016 2.82333 3.75016 3.79167V4.95833H7.25016V3.79167C7.25016 2.82333 6.4685 2.04167 5.50016 2.04167ZM2.00016 11.9583V6.125H9.00016V11.9583H2.00016ZM6.66683 9.04167C6.66683 9.68333 6.14183 10.2083 5.50016 10.2083C4.8585 10.2083 4.3335 9.68333 4.3335 9.04167C4.3335 8.4 4.8585 7.875 5.50016 7.875C6.14183 7.875 6.66683 8.4 6.66683 9.04167Z" fill="#8692A6"/>
</svg>