<svg xmlns="http://www.w3.org/2000/svg" width="20" height="20" viewBox="0 0 20 20" fill="none">
<path d="M9.62549 0.03125C10.2296 0.03125 10.7192 0.520944 10.7192 1.125C10.7192 1.68591 10.297 2.14821 9.75305 2.21139L9.62549 2.21875H4.15674C3.59583 2.21875 3.13353 2.64099 3.07035 3.18495L3.06299 3.3125V16.4375C3.06299 16.9984 3.48522 17.4607 4.02919 17.5239L4.15674 17.5312H9.07861C9.68269 17.5312 10.1724 18.0209 10.1724 18.625C10.1724 19.1859 9.75015 19.6482 9.20617 19.7114L9.07861 19.7188H4.15674C2.40928 19.7188 0.980859 18.3528 0.881058 16.6303L0.875488 16.4375V3.3125C0.875488 1.56504 2.2415 0.136621 3.96394 0.0368201L4.15674 0.03125H9.62549ZM15.8675 6.00801L18.9612 9.10161C19.3883 9.52872 19.3883 10.2213 18.9612 10.6484L15.8675 13.742C15.4404 14.1692 14.748 14.1692 14.3207 13.742C13.8936 13.3148 13.8936 12.6223 14.3207 12.1952L15.5473 10.9688H9.62549C9.02141 10.9688 8.53174 10.4791 8.53174 9.875C8.53174 9.27092 9.02141 8.78125 9.62549 8.78125H15.5473L14.3207 7.55481C13.8936 7.12768 13.8936 6.43515 14.3207 6.00801C14.748 5.58087 15.4404 5.58087 15.8675 6.00801Z" fill="#B5BDC9"/>
</svg>