<svg width="82" height="56" viewBox="0 0 82 56" fill="none" xmlns="http://www.w3.org/2000/svg">
<g id="logos:meta-icon" clip-path="url(#clip0_31285_49239)">
<path id="Vector" d="M9.24241 36.5071C9.24241 39.6128 9.92425 41.9973 10.8151 43.4398C11.9834 45.3293 13.7255 46.1296 15.5019 46.1296C17.793 46.1296 19.889 45.5609 23.9279 39.9747C27.1639 35.4973 30.9769 29.2121 33.5422 25.272L37.8871 18.5966C40.9052 13.9607 44.3982 8.80726 48.4038 5.31389C51.6728 2.46264 55.2002 0.878784 58.7498 0.878784C64.7097 0.878784 70.3864 4.33244 74.7313 10.8099C79.4861 17.9037 81.7943 26.839 81.7943 36.06C81.7943 41.5417 80.7141 45.5695 78.8754 48.7518C77.099 51.8293 73.6367 54.9039 67.8129 54.9039V46.1296C72.7996 46.1296 74.0441 41.5474 74.0441 36.3034C74.0441 28.8305 72.3017 20.537 68.4636 14.6114C65.7394 10.408 62.2095 7.83979 58.326 7.83979C54.1257 7.83979 50.7454 11.0075 46.9467 16.6566C44.9272 19.6575 42.8538 23.3148 40.5261 27.4414L37.9634 31.9814C32.8153 41.109 31.5114 43.1878 28.9375 46.6189C24.4258 52.6271 20.5737 54.9039 15.5019 54.9039C9.48579 54.9039 5.68105 52.2986 3.32512 48.3728C1.40162 45.1736 0.457031 40.9762 0.457031 36.1931L9.24241 36.5071Z" fill="#0081FB"/>
<path id="Vector_2" d="M7.38281 11.429C11.4109 5.22067 17.2234 0.878662 23.8902 0.878662C27.7514 0.878662 31.5896 2.02151 35.5976 5.29407C39.9816 8.87196 44.6544 14.7638 50.4839 24.4744L52.5746 27.9589C57.6203 36.3655 60.4913 40.6901 62.1714 42.7299C64.3326 45.3489 65.8459 46.1295 67.8116 46.1295C72.7983 46.1295 74.0428 41.5473 74.0428 36.3033L81.7931 36.0599C81.7931 41.5416 80.7128 45.5694 78.8742 48.7517C77.0978 51.8292 73.6355 54.9038 67.8116 54.9038C64.1912 54.9038 60.9838 54.1174 57.4367 50.7711C54.71 48.203 51.5223 43.6405 49.0698 39.539L41.7748 27.3536C38.115 21.2384 34.7573 16.6791 32.8144 14.6139C30.7244 12.3936 28.0371 9.71202 23.7491 9.71202C20.2786 9.71202 17.3311 12.1477 14.8646 15.8727L7.38281 11.429Z" fill="url(#paint0_linear_31285_49239)"/>
<path id="Vector_3" d="M23.75 9.71214C20.2795 9.71214 17.332 12.1478 14.8655 15.8728C11.3781 21.1369 9.24241 28.9773 9.24241 36.5071C9.24241 39.6128 9.92424 41.9973 10.8151 43.4398L3.32512 48.3728C1.40162 45.1736 0.457031 40.9762 0.457031 36.1931C0.457031 27.4951 2.84441 18.4298 7.38404 11.4291C11.4121 5.2208 17.2246 0.878784 23.8914 0.878784L23.75 9.71214Z" fill="url(#paint1_linear_31285_49239)"/>
</g>
<defs>
<linearGradient id="paint0_linear_31285_49239" x1="1040.05" y1="3022.72" x2="6633.87" y2="3305.24" gradientUnits="userSpaceOnUse">
<stop stop-color="#0064E1"/>
<stop offset="0.4" stop-color="#0064E1"/>
<stop offset="0.83" stop-color="#0073EE"/>
<stop offset="1" stop-color="#0082FB"/>
</linearGradient>
<linearGradient id="paint1_linear_31285_49239" x1="1273.29" y1="3932.53" x2="1273.29" y2="1867.72" gradientUnits="userSpaceOnUse">
<stop stop-color="#0082FB"/>
<stop offset="1" stop-color="#0064E0"/>
</linearGradient>
<clipPath id="clip0_31285_49239">
<rect width="81.3373" height="54.3308" fill="white" transform="translate(0.457031 0.878784)"/>
</clipPath>
</defs>
</svg>
