<svg width="22" height="23" viewBox="0 0 22 23" fill="none" xmlns="http://www.w3.org/2000/svg">
<path fill-rule="evenodd" clip-rule="evenodd" d="M4.55227 5.89306C4.04944 5.89306 3.64181 6.30068 3.64181 6.80351V15.9081C3.64181 16.4109 4.04944 16.8185 4.55227 16.8185H17.2987C17.8015 16.8185 18.2091 16.4109 18.2091 15.9081V6.80351C18.2091 6.30068 17.8015 5.89306 17.2987 5.89306H4.55227ZM1.8209 6.80351C1.8209 5.29502 3.04377 4.07214 4.55227 4.07214H17.2987C18.8072 4.07214 20.03 5.29502 20.03 6.80351V15.9081C20.03 17.4166 18.8072 18.6395 17.2987 18.6395H4.55227C3.04377 18.6395 1.8209 17.4166 1.8209 15.9081V6.80351Z" fill="#9691A4"/>
<path fill-rule="evenodd" clip-rule="evenodd" d="M1.97381 6.29845C2.25273 5.88007 2.818 5.76701 3.23638 6.04593L10.9255 11.172L18.6145 6.04593C19.0329 5.76701 19.5982 5.88007 19.8771 6.29845C20.156 6.71683 20.043 7.28211 19.6246 7.56103L11.4305 13.0238C11.1247 13.2276 10.7263 13.2276 10.4204 13.0238L2.22632 7.56103C1.80794 7.28211 1.69489 6.71683 1.97381 6.29845Z" fill="#9691A4"/>
</svg>
