<svg xmlns="http://www.w3.org/2000/svg" width="26" height="27" viewBox="0 0 26 27" fill="none">
<g clip-path="url(#clip0_1458_5822)">
<path d="M13.0001 3.06494C8.80758 3.06494 5.41675 6.45577 5.41675 10.6483C5.41675 16.3358 13.0001 24.7316 13.0001 24.7316C13.0001 24.7316 20.5834 16.3358 20.5834 10.6483C20.5834 6.45577 17.1926 3.06494 13.0001 3.06494ZM7.58341 10.6483C7.58341 7.65827 10.0101 5.23161 13.0001 5.23161C15.9901 5.23161 18.4167 7.65827 18.4167 10.6483C18.4167 13.7683 15.2967 18.4374 13.0001 21.3516C10.7467 18.4591 7.58341 13.7358 7.58341 10.6483Z" fill="#9691A4"/>
<path d="M13.0001 13.3566C14.4959 13.3566 15.7084 12.144 15.7084 10.6483C15.7084 9.1525 14.4959 7.93994 13.0001 7.93994C11.5043 7.93994 10.2917 9.1525 10.2917 10.6483C10.2917 12.144 11.5043 13.3566 13.0001 13.3566Z" fill="#9691A4"/>
</g>
<defs>
<clipPath id="clip0_1458_5822">
<rect width="26" height="26" fill="white" transform="translate(0 0.898438)"/>
</clipPath>
</defs>
</svg>