<svg width="26" height="26" viewBox="0 0 26 26" fill="none" xmlns="http://www.w3.org/2000/svg">
<path d="M21.2418 22.3862C19.046 22.3862 16.9057 21.8967 14.8208 20.9176C12.736 19.9385 10.8891 18.6448 9.28024 17.0366C7.67134 15.4284 6.37769 13.5815 5.39927 11.496C4.42086 9.41051 3.93131 7.27019 3.93063 5.07506C3.93063 4.76867 4.03276 4.51334 4.23703 4.30908C4.44129 4.10482 4.69661 4.00269 5.00301 4.00269H9.1393C9.37761 4.00269 9.59038 4.07928 9.77762 4.23248C9.96486 4.38568 10.0755 4.58143 10.1095 4.81973L10.7734 8.39431C10.8074 8.63261 10.803 8.84981 10.7601 9.0459C10.7172 9.24199 10.6195 9.4163 10.467 9.56881L7.99033 12.071C8.70525 13.2966 9.60332 14.4456 10.6845 15.5179C11.7658 16.5903 12.9529 17.518 14.2458 18.301L16.6459 15.9009C16.7991 15.7477 16.9993 15.6327 17.2464 15.5557C17.4936 15.4788 17.736 15.4577 17.9736 15.4924L21.4971 16.2073C21.7354 16.2584 21.9312 16.3734 22.0844 16.5525C22.2376 16.7316 22.3142 16.9399 22.3142 17.1776V21.3139C22.3142 21.6202 22.212 21.8756 22.0078 22.0798C21.8035 22.2841 21.5482 22.3862 21.2418 22.3862ZM7.02009 10.1305L8.70525 8.44537L8.27119 6.0453H5.99878C6.08389 6.74319 6.20304 7.43258 6.35624 8.11345C6.50944 8.79432 6.73072 9.46668 7.02009 10.1305ZM20.2716 20.2925V18.0457L17.8715 17.5605L16.1608 19.2712C16.8246 19.5606 17.5011 19.7904 18.1901 19.9606C18.8792 20.1308 19.573 20.2415 20.2716 20.2925Z" fill="#FFF5F5"/>
</svg>
