<svg width="24" height="25" viewBox="0 0 24 25" fill="none" xmlns="http://www.w3.org/2000/svg">
<path d="M18.6 6.73926C21.58 6.73926 24 9.11926 24 12.1193C24 15.0793 21.58 17.4893 18.6 17.4893C17.15 17.4893 15.8 16.9293 14.78 15.9193L12 13.4593L9.17 15.9693C8.2 16.9393 6.84 17.4993 5.4 17.4993C2.42 17.4993 0 15.0793 0 12.1193C0 9.15926 2.42 6.73926 5.4 6.73926C6.84 6.73926 8.2 7.29926 9.22 8.31926L12 10.7793L14.83 8.26926C15.8 7.29926 17.16 6.73926 18.6 6.73926ZM7.8 14.5093L10.5 12.1193L7.84 9.76926C7.16 9.08926 6.31 8.73926 5.4 8.73926C3.53 8.73926 2 10.2493 2 12.1193C2 13.9893 3.53 15.4993 5.4 15.4993C6.31 15.4993 7.16 15.1493 7.8 14.5093ZM16.2 9.72926L13.5 12.1193L16.16 14.4693C16.84 15.1493 17.7 15.4993 18.6 15.4993C20.47 15.4993 22 13.9893 22 12.1193C22 10.2493 20.47 8.73926 18.6 8.73926C17.69 8.73926 16.84 9.08926 16.2 9.72926Z" fill="black"/>
</svg>
