<svg width="27" height="26" viewBox="0 0 27 26" fill="none" xmlns="http://www.w3.org/2000/svg">
<path d="M21.0443 6.5V5.41667C21.0443 4.84203 20.816 4.29093 20.4097 3.8846C20.0033 3.47827 19.4522 3.25 18.8776 3.25H16.7109C16.1363 3.25 15.5852 3.47827 15.1789 3.8846C14.7725 4.29093 14.5443 4.84203 14.5443 5.41667V6.5H12.3776V5.41667C12.3776 4.84203 12.1493 4.29093 11.743 3.8846C11.3367 3.47827 10.7856 3.25 10.2109 3.25H8.04427C7.46964 3.25 6.91853 3.47827 6.51221 3.8846C6.10588 4.29093 5.8776 4.84203 5.8776 5.41667V6.5H3.71094V21.6667H14.6418C14.5763 21.3093 14.5437 20.9467 14.5443 20.5833C14.5437 19.5432 14.7928 18.5181 15.2706 17.5941C15.7484 16.6702 16.441 15.8744 17.2901 15.2737C18.1392 14.6729 19.1201 14.2847 20.1504 14.1417C21.1807 13.9986 22.2303 14.1049 23.2109 14.4517V6.5M22.1276 16.25V19.5H25.3776V21.6667H22.1276V24.9167H19.9609V21.6667H16.7109V19.5H19.9609V16.25H22.1276Z" fill="#FFA217"/>
</svg>
