<svg width="11" height="12" viewBox="0 0 11 12" fill="none" xmlns="http://www.w3.org/2000/svg">
<g id="mdi:eye-outline" clip-path="url(#clip0_31285_49165)">
<path id="Vector" d="M5.6978 4.71156C6.0328 4.71156 6.35407 4.84463 6.59095 5.08151C6.82783 5.31839 6.96091 5.63967 6.96091 5.97466C6.96091 6.30966 6.82783 6.63094 6.59095 6.86781C6.35407 7.10469 6.0328 7.23777 5.6978 7.23777C5.3628 7.23777 5.04153 7.10469 4.80465 6.86781C4.56777 6.63094 4.43469 6.30966 4.43469 5.97466C4.43469 5.63967 4.56777 5.31839 4.80465 5.08151C5.04153 4.84463 5.3628 4.71156 5.6978 4.71156ZM5.6978 2.81689C7.80298 2.81689 9.6008 4.12632 10.3292 5.97466C9.6008 7.82301 7.80298 9.13243 5.6978 9.13243C3.59262 9.13243 1.7948 7.82301 1.06641 5.97466C1.7948 4.12632 3.59262 2.81689 5.6978 2.81689ZM1.98426 5.97466C2.32457 6.6695 2.85299 7.25493 3.50946 7.66439C4.16592 8.07385 4.9241 8.29092 5.6978 8.29092C6.4715 8.29092 7.22967 8.07385 7.88614 7.66439C8.54261 7.25493 9.07103 6.6695 9.41133 5.97466C9.07103 5.27982 8.54261 4.6944 7.88614 4.28494C7.22967 3.87548 6.4715 3.65841 5.6978 3.65841C4.9241 3.65841 4.16592 3.87548 3.50946 4.28494C2.85299 4.6944 2.32457 5.27982 1.98426 5.97466Z" fill="#FF5757"/>
</g>
<defs>
<clipPath id="clip0_31285_49165">
<rect width="10.1049" height="10.1049" fill="white" transform="translate(0.644531 0.922241)"/>
</clipPath>
</defs>
</svg>
