<svg width="26" height="26" viewBox="0 0 26 26" fill="none" xmlns="http://www.w3.org/2000/svg">
<path d="M10.8346 4.33325C13.218 4.33325 15.168 6.28325 15.168 8.66659C15.168 11.0499 13.218 12.9999 10.8346 12.9999C8.4513 12.9999 6.5013 11.0499 6.5013 8.66659C6.5013 6.28325 8.4513 4.33325 10.8346 4.33325ZM18.418 22.7499L20.368 24.6674C20.9096 25.2091 21.668 24.7758 21.668 24.1366V19.4999L24.7013 15.8166C24.822 15.6556 24.8955 15.4643 24.9136 15.2639C24.9317 15.0635 24.8936 14.8621 24.8036 14.6821C24.7136 14.5022 24.5753 14.3508 24.4042 14.245C24.233 14.1393 24.0358 14.0833 23.8346 14.0833H16.2513C15.3846 14.0833 14.843 15.1666 15.3846 15.8166L18.418 19.4999V22.7499ZM16.2513 20.2583L13.7596 17.2249C13.3263 16.6833 13.1096 16.0333 13.1096 15.3833C12.3513 15.1666 11.593 15.1666 10.8346 15.1666C6.06797 15.1666 2.16797 17.1166 2.16797 19.4999V21.6666H16.2513V20.2583Z" fill="#FF5757"/>
</svg>
