<svg xmlns="http://www.w3.org/2000/svg" width="32" height="32" viewBox="0 0 32 32" fill="none">
<path d="M25.332 25.3333H3.9987V9.33333C3.9987 8.6 3.3987 8 2.66536 8C1.93203 8 1.33203 8.6 1.33203 9.33333V25.3333C1.33203 26.8 2.53203 28 3.9987 28H25.332C26.0654 28 26.6654 27.4 26.6654 26.6667C26.6654 25.9333 26.0654 25.3333 25.332 25.3333Z" fill="#FF5757"/>
<path d="M28.0013 5.33366H18.668L16.788 3.45366C16.2813 2.94699 15.6013 2.66699 14.8946 2.66699H9.33464C7.86797 2.66699 6.6813 3.86699 6.6813 5.33366L6.66797 20.0003C6.66797 21.467 7.86797 22.667 9.33464 22.667H28.0013C29.468 22.667 30.668 21.467 30.668 20.0003V8.00033C30.668 6.53366 29.468 5.33366 28.0013 5.33366ZM24.0013 17.3337H13.3346C13.2108 17.3337 13.0895 17.2992 12.9841 17.2341C12.8788 17.169 12.7937 17.0759 12.7384 16.9651C12.683 16.8544 12.6595 16.7304 12.6707 16.6071C12.6818 16.4838 12.727 16.366 12.8013 16.267L14.6413 13.827C14.908 13.467 15.4413 13.467 15.708 13.827L17.3346 16.0003L20.2946 12.0403C20.5613 11.6803 21.0946 11.6803 21.3613 12.0403L24.5346 16.267C24.6089 16.366 24.6542 16.4838 24.6653 16.6071C24.6764 16.7304 24.653 16.8544 24.5976 16.9651C24.5422 17.0759 24.4571 17.169 24.3518 17.2341C24.2465 17.2992 24.1251 17.3337 24.0013 17.3337Z" fill="#FF5757"/>
</svg>