<svg width="51" height="52" viewBox="0 0 51 52" fill="none" xmlns="http://www.w3.org/2000/svg">
<g clip-path="url(#clip0_3219_6239)">
<path fill-rule="evenodd" clip-rule="evenodd" d="M34.0435 10.3977C37.9018 10.1321 40.8829 12.3837 42.8668 14.9812C44.8655 17.6018 46.2423 21.0236 46.9991 24.3885C47.7518 27.7534 47.9542 31.3691 47.328 34.4515C46.7272 37.4116 45.1227 40.7975 41.4943 41.8833C38.0788 42.9037 35.085 41.4195 32.9514 39.6232C30.8094 37.8206 28.9962 35.2948 27.571 32.9272C26.9038 31.815 26.2779 30.6785 25.6946 29.5201C25.1119 30.6778 24.4867 31.8135 23.8203 32.9251C22.3951 35.2948 20.5819 37.8206 18.4399 39.6232C16.3041 41.4195 13.3124 42.9037 9.89698 41.8833C6.26856 40.7975 4.66413 37.4137 4.06326 34.4515C3.4392 31.3691 3.6416 27.7534 4.39427 24.3885C5.14904 21.0236 6.52578 17.5997 8.52657 14.9812C10.5084 12.3837 13.4895 10.1321 17.3478 10.3977C20.9656 10.6507 23.5947 13.1027 25.2329 15.1815L25.6967 15.7908L26.1584 15.1794C27.7966 13.1027 30.4257 10.6486 34.0435 10.3977ZM16.9092 16.7079C16.0237 16.6467 14.8642 17.1 13.5528 18.8204C12.2583 20.5176 11.183 23.0223 10.5653 25.7737C9.94757 28.525 9.85903 31.211 10.2617 33.1949C10.6096 34.9027 11.1683 35.5162 11.5098 35.7312L11.6532 35.8029L11.7101 35.824C12.1993 35.9716 13.0046 35.9294 14.3666 34.7825C15.7265 33.6398 17.1137 31.8034 18.4019 29.6656C18.9754 28.7105 19.5088 27.7323 19.9874 26.792L20.5355 25.6851L21.0268 24.6373L21.4611 23.6717L21.83 22.8136L22.1315 22.0841C21.7231 21.265 21.256 20.4766 20.7337 19.7249C19.376 17.7937 18.014 16.7859 16.9092 16.71V16.7079ZM34.4821 16.7079C33.3773 16.7859 32.0153 17.7937 30.6576 19.7249C30.1353 20.4766 29.6682 21.265 29.2598 22.0841L29.7383 23.2289L30.1389 24.1439L30.3645 24.6373L30.8579 25.6851L31.406 26.792C31.8846 27.7323 32.4159 28.7105 32.9894 29.6656C34.2776 31.8034 35.6669 33.6398 37.0226 34.7825C38.2897 35.8493 39.074 35.9589 39.5737 35.8514L39.6833 35.824C39.9574 35.7397 40.7016 35.299 41.1296 33.1928C41.5302 31.211 41.4437 28.525 40.826 25.7715C40.2104 23.0223 39.1351 20.5176 37.8385 18.8204C36.525 17.1 35.3676 16.6489 34.4821 16.7079Z" fill="#008CE4"/>
</g>
<defs>
<clipPath id="clip0_3219_6239">
<rect width="50.5996" height="50.5996" fill="white" transform="translate(0.261719 0.903931)"/>
</clipPath>
</defs>
</svg>
