<svg xmlns="http://www.w3.org/2000/svg" width="22" height="15" viewBox="0 0 22 15" fill="none">
<path d="M19.3904 11.7369C19.1193 12.5854 18.6532 13.0087 17.9921 13.0087C17.1579 13.0087 16.3369 12.5083 15.5312 11.5057C14.971 10.8113 14.1862 9.48909 13.175 7.54095C12.7895 6.7931 12.387 6.05411 11.9679 5.32457C12.2628 4.86037 12.5253 4.48748 12.7565 4.20591C13.6668 3.09867 14.62 2.54505 15.615 2.54505C16.4092 2.54505 17.1655 3.05492 17.8846 4.07464C18.6228 5.12196 19.1402 6.41564 19.437 7.95569C19.7281 9.47197 19.7129 10.7324 19.3904 11.7369ZM10.8578 7.23465C11.0576 7.60088 11.2668 7.99565 11.4856 8.41609C12.5558 10.4774 13.41 11.9052 14.0492 12.6995C15.2364 14.1739 16.551 14.9111 17.993 14.9111C18.8073 14.9111 19.5036 14.6543 20.0829 14.1406C20.5823 13.6964 20.9552 13.0895 21.2025 12.3181C21.6239 11.0054 21.6582 9.43106 21.3053 7.59708C20.9571 5.78877 20.335 4.24872 19.4389 2.97787C18.3412 1.42069 17.0665 0.642578 15.615 0.642578C14.0207 0.642578 12.5776 1.42735 11.2868 2.99784C11.1517 3.16241 11.0091 3.3498 10.8588 3.56288C10.7229 3.36944 10.5801 3.18097 10.4307 2.99784C9.13988 1.4283 7.6959 0.642578 6.10258 0.642578C4.65099 0.642578 3.37633 1.42069 2.2786 2.97787C1.38253 4.24872 0.760425 5.78877 0.412272 7.59708C0.0603138 9.43106 0.0936072 11.0044 0.515005 12.3181C0.762327 13.0886 1.13521 13.6974 1.63461 14.1397C2.21392 14.6534 2.91022 14.9111 3.72448 14.9111C5.16656 14.9111 6.48117 14.1739 7.66831 12.6995C8.30754 11.9052 9.16176 10.4774 10.2309 8.41704C10.4497 7.99469 10.659 7.60088 10.8588 7.23465H10.8578ZM9.74867 5.32457C9.37769 5.9657 8.97626 6.70386 8.5425 7.54095C7.53133 9.48909 6.74466 10.8094 6.18628 11.5057C5.37963 12.5074 4.55967 13.0077 3.72448 13.0077C3.06432 13.0077 2.59822 12.5844 2.32616 11.7359C2.00464 10.7314 1.98942 9.47101 2.2805 7.95569C2.57634 6.41469 3.09381 5.12101 3.83292 4.07369C4.55206 3.05492 5.30829 2.54505 6.10258 2.54505C7.09757 2.54505 8.05071 3.09867 8.96104 4.20591C9.19219 4.48748 9.45474 4.86037 9.74867 5.32457Z" fill="#007EF2"/>
</svg>