<svg width="27" height="26" viewBox="0 0 27 26" fill="none" xmlns="http://www.w3.org/2000/svg">
<path fill-rule="evenodd" clip-rule="evenodd" d="M13.7318 2.16675C7.74852 2.16675 2.89844 7.01683 2.89844 13.0001C2.89844 18.9833 7.74852 23.8334 13.7318 23.8334C19.715 23.8334 24.5651 18.9833 24.5651 13.0001C24.5651 7.01683 19.715 2.16675 13.7318 2.16675ZM9.9401 10.2917C9.9401 9.79382 10.0382 9.30077 10.2287 8.84074C10.4193 8.38071 10.6986 7.96272 11.0507 7.61063C11.4027 7.25855 11.8207 6.97925 12.2808 6.78871C12.7408 6.59816 13.2338 6.50008 13.7318 6.50008C14.2297 6.50008 14.7228 6.59816 15.1828 6.78871C15.6428 6.97925 16.0608 7.25855 16.4129 7.61063C16.765 7.96272 17.0443 8.38071 17.2348 8.84074C17.4254 9.30077 17.5234 9.79382 17.5234 10.2917C17.5234 11.2974 17.124 12.2618 16.4129 12.9729C15.7018 13.6839 14.7374 14.0834 13.7318 14.0834C12.7262 14.0834 11.7617 13.6839 11.0507 12.9729C10.3396 12.2618 9.9401 11.2974 9.9401 10.2917ZM20.5113 18.3994C19.7001 19.4192 18.6691 20.2427 17.4952 20.8084C16.3213 21.3742 15.0349 21.6676 13.7318 21.6667C12.4287 21.6676 11.1422 21.3742 9.96835 20.8084C8.79447 20.2427 7.76348 19.4192 6.95227 18.3994C8.70835 17.1395 11.1047 16.2501 13.7318 16.2501C16.3589 16.2501 18.7552 17.1395 20.5113 18.3994Z" fill="#00ACA5"/>
</svg>
