<svg width="241" height="238" viewBox="0 0 241 238" fill="none" xmlns="http://www.w3.org/2000/svg">
<g clip-path="url(#clip0_79_5240)">
<g filter="url(#filter0_dd_79_5240)">
<path d="M218.397 241.032L217.479 237.356C217.479 237.302 217.425 237.194 217.479 237.14C217.479 237.085 217.532 236.977 217.532 236.923C217.586 236.869 217.641 236.815 217.695 236.761C217.749 236.707 217.803 236.707 217.857 236.653C217.911 236.653 218.019 236.653 218.073 236.653C218.127 236.653 218.235 236.707 218.289 236.707C218.343 236.761 218.397 236.815 218.451 236.869C218.505 236.923 218.505 236.977 218.559 237.085L219.207 239.681L221.801 239.032C221.963 238.978 222.071 239.032 222.233 239.086C222.342 239.14 222.45 239.302 222.45 239.41C222.504 239.573 222.449 239.681 222.395 239.843C222.341 239.951 222.234 240.059 222.071 240.113L218.397 241.032Z" fill="#5D3CF2"/>
<path d="M216.399 231.572C216.291 231.572 216.183 231.518 216.129 231.41C216.021 231.356 215.967 231.248 215.967 231.14L214.454 224.976C214.454 224.922 214.4 224.813 214.454 224.759C214.454 224.705 214.508 224.597 214.508 224.543C214.562 224.489 214.616 224.435 214.67 224.381C214.724 224.327 214.778 224.327 214.832 224.273C214.886 224.273 214.994 224.273 215.048 224.273C215.102 224.273 215.21 224.327 215.264 224.327C215.318 224.381 215.372 224.435 215.426 224.489C215.48 224.543 215.481 224.597 215.535 224.705L217.047 230.923C217.047 230.977 217.101 231.085 217.047 231.14C217.047 231.194 216.993 231.302 216.993 231.356C216.939 231.41 216.885 231.464 216.831 231.518C216.777 231.572 216.723 231.572 216.669 231.626C216.507 231.572 216.453 231.572 216.399 231.572ZM213.319 219.19C213.211 219.19 213.103 219.136 213.049 219.082C212.941 219.028 212.887 218.92 212.887 218.812L211.374 212.594C211.374 212.54 211.32 212.432 211.374 212.378C211.374 212.324 211.374 212.216 211.428 212.161C211.482 212.107 211.536 212.053 211.59 211.999C211.644 211.945 211.752 211.891 211.806 211.891C211.914 211.891 211.968 211.891 212.022 211.891C212.076 211.891 212.184 211.945 212.238 211.999C212.292 212.053 212.346 212.107 212.4 212.161C212.454 212.216 212.454 212.324 212.454 212.378L213.968 218.541C214.022 218.704 213.968 218.812 213.914 218.974C213.859 219.082 213.751 219.19 213.589 219.244C213.481 219.19 213.427 219.19 213.319 219.19ZM210.239 206.809C210.131 206.809 210.023 206.754 209.969 206.646C209.861 206.592 209.807 206.484 209.807 206.376L208.294 200.212C208.294 200.158 208.294 200.05 208.294 199.996C208.294 199.942 208.348 199.834 208.348 199.78C208.402 199.726 208.456 199.671 208.51 199.617C208.564 199.563 208.618 199.563 208.672 199.509C208.726 199.509 208.834 199.509 208.888 199.509C208.942 199.509 209.05 199.563 209.105 199.563C209.159 199.617 209.212 199.672 209.267 199.726C209.321 199.78 209.321 199.834 209.375 199.942L210.888 206.16C210.942 206.322 210.887 206.43 210.833 206.592C210.779 206.7 210.671 206.809 210.509 206.863C210.401 206.809 210.347 206.809 210.239 206.809Z" fill="#5D3CF2"/>
<path d="M207.212 194.427C207.104 194.427 206.996 194.373 206.942 194.264C206.834 194.21 206.78 194.102 206.78 193.994L205.861 190.317L209.536 189.398C209.698 189.398 209.806 189.398 209.914 189.506C210.022 189.56 210.076 189.723 210.13 189.831C210.184 189.939 210.13 190.101 210.076 190.209C210.022 190.317 209.914 190.426 209.752 190.48L207.158 191.128L207.806 193.724C207.806 193.778 207.806 193.886 207.806 193.94C207.806 193.994 207.752 194.102 207.698 194.156C207.644 194.21 207.59 194.264 207.536 194.319C207.482 194.373 207.374 194.373 207.32 194.427C207.374 194.427 207.32 194.427 207.212 194.427Z" fill="#5D3CF2"/>
<path d="M138.859 167.987C138.751 167.933 138.697 167.824 138.643 167.716C138.589 167.608 138.589 167.446 138.643 167.338C138.697 167.23 138.805 167.122 138.913 167.067C139.021 167.013 139.129 167.013 139.291 167.013L141.939 167.5L142.425 164.851C142.425 164.689 142.534 164.58 142.642 164.472C142.75 164.364 142.912 164.364 143.074 164.364C143.236 164.418 143.344 164.472 143.452 164.58C143.56 164.689 143.56 164.851 143.56 165.013L142.912 168.69L139.183 168.041C138.967 168.041 138.913 167.987 138.859 167.987Z" fill="#5D3CF2"/>
<path d="M150.423 121.38C150.314 121.326 150.26 121.218 150.206 121.164C150.152 121.056 150.152 120.947 150.152 120.839L150.639 118.19L147.991 117.703C147.883 117.703 147.829 117.649 147.775 117.649C147.721 117.595 147.667 117.541 147.613 117.487C147.559 117.433 147.505 117.379 147.505 117.271C147.505 117.217 147.505 117.109 147.505 117.054C147.505 117 147.559 116.892 147.613 116.838C147.667 116.784 147.721 116.73 147.775 116.676C147.829 116.622 147.883 116.622 147.937 116.568C147.991 116.568 148.099 116.568 148.153 116.568L151.827 117.217L151.179 120.893C151.179 121.056 151.071 121.164 150.963 121.272C150.855 121.38 150.693 121.38 150.53 121.38C150.53 121.434 150.477 121.434 150.423 121.38Z" fill="#5D3CF2"/>
<path d="M143.722 159.065C143.614 159.011 143.56 158.903 143.506 158.849C143.452 158.741 143.452 158.633 143.452 158.525L144.587 152.253C144.587 152.199 144.641 152.091 144.695 152.037C144.749 151.982 144.803 151.929 144.857 151.874C144.911 151.82 145.019 151.82 145.073 151.766C145.127 151.766 145.235 151.766 145.289 151.766C145.451 151.82 145.559 151.874 145.613 151.983C145.721 152.091 145.721 152.253 145.721 152.415L144.587 158.687C144.587 158.741 144.533 158.849 144.533 158.903C144.479 158.957 144.424 159.011 144.37 159.065C144.316 159.12 144.208 159.12 144.154 159.174C144.1 159.174 143.992 159.174 143.938 159.174C143.83 159.174 143.776 159.12 143.722 159.065ZM145.937 146.522C145.829 146.467 145.775 146.359 145.721 146.305C145.667 146.197 145.667 146.089 145.667 145.981L146.802 139.709C146.802 139.655 146.856 139.547 146.856 139.493C146.91 139.439 146.964 139.384 147.018 139.33C147.072 139.276 147.126 139.276 147.18 139.222C147.288 139.222 147.342 139.222 147.396 139.222C147.45 139.222 147.558 139.276 147.612 139.276C147.667 139.33 147.721 139.385 147.775 139.439C147.829 139.493 147.829 139.547 147.883 139.655C147.937 139.763 147.883 139.817 147.883 139.871L146.802 146.143C146.748 146.305 146.694 146.413 146.586 146.522C146.478 146.63 146.316 146.63 146.154 146.63C146.046 146.576 145.991 146.576 145.937 146.522ZM148.153 133.978C148.045 133.924 147.991 133.815 147.937 133.761C147.883 133.653 147.883 133.545 147.883 133.437L149.017 127.165C149.017 127.111 149.072 127.003 149.126 126.949C149.18 126.895 149.234 126.841 149.288 126.786C149.342 126.732 149.45 126.732 149.504 126.678C149.558 126.624 149.666 126.678 149.72 126.678C149.828 126.678 149.882 126.732 149.936 126.732C149.99 126.787 150.044 126.84 150.098 126.895C150.152 126.949 150.152 127.003 150.206 127.111C150.206 127.165 150.206 127.273 150.206 127.327L149.071 133.599C149.017 133.761 148.963 133.869 148.855 133.978C148.747 134.086 148.585 134.086 148.423 134.086C148.261 134.032 148.207 133.978 148.153 133.978Z" fill="#5D3CF2"/>
<path d="M221.64 34.9243H124.432C117.516 34.9243 111.896 40.5474 111.896 47.4682V287.263C111.896 294.184 117.516 299.807 124.432 299.807H221.64C228.61 299.807 234.176 294.184 234.176 287.263V47.4682C234.176 40.5474 228.556 34.9243 221.64 34.9243Z" fill="white"/>
<path d="M222.774 30.3276H123.243C118.813 30.3276 114.544 32.1119 111.464 35.1938C108.33 38.3298 106.547 42.5472 106.547 46.9809V288.29C106.547 292.723 108.33 296.941 111.464 300.077C114.598 303.213 118.813 304.943 123.243 304.943H222.774C227.205 304.943 231.474 303.213 234.608 300.077C237.742 296.941 239.525 292.723 239.525 288.29V46.9809C239.525 42.5472 237.742 38.3298 234.608 35.1938C231.474 32.0578 227.205 30.3276 222.774 30.3276ZM234.176 287.533C234.176 290.831 232.879 294.021 230.501 296.4C228.124 298.725 224.936 300.077 221.64 300.077H124.432C121.082 300.077 117.894 298.779 115.571 296.4C113.193 294.075 111.896 290.885 111.896 287.533V47.7378C111.896 44.4396 113.247 41.2496 115.571 38.8705C117.894 36.5456 121.082 35.1938 124.432 35.1938H136.698C137.347 35.1938 137.995 35.4642 138.427 35.8967C138.859 36.3293 139.13 36.9781 139.13 37.6269V38.7083C139.13 40.4385 139.832 42.0605 141.021 43.25C142.21 44.4395 143.885 45.1424 145.614 45.1424H200.404C201.269 45.1424 202.079 44.9803 202.89 44.6559C203.646 44.3315 204.403 43.8448 204.997 43.25C205.592 42.6553 206.078 41.9524 206.402 41.1414C206.726 40.3844 206.888 39.5193 206.888 38.6542V37.6269C206.888 36.9781 207.158 36.3834 207.591 35.8967C208.023 35.4642 208.672 35.1938 209.32 35.1938H221.586C224.936 35.1938 228.124 36.4915 230.447 38.8705C232.825 41.1955 234.122 44.3855 234.122 47.7378V287.533H234.176Z" fill="url(#paint0_linear_79_5240)"/>
<path d="M111.896 47.7383V78.233H234.176V47.7383C234.176 44.4401 232.879 41.2501 230.501 38.871C228.124 36.5461 224.936 35.1943 221.64 35.1943H209.374C208.726 35.1943 208.131 35.4647 207.645 35.8973C207.213 36.3298 206.942 36.9786 206.942 37.6274V38.7088C206.942 39.5739 206.78 40.3849 206.456 41.1959C206.132 41.9529 205.646 42.7099 205.051 43.3047C204.457 43.8994 203.754 44.386 202.944 44.7104C202.187 45.0348 201.323 45.1971 200.458 45.1971H145.668C143.938 45.1971 142.317 44.4942 141.075 43.3047C139.832 42.1151 139.183 40.4389 139.183 38.7628V37.7355C139.183 37.0867 138.913 36.492 138.481 36.0054C138.049 35.5728 137.4 35.3024 136.752 35.3024H124.432C121.082 35.3024 117.948 36.6001 115.571 38.9792C113.247 41.25 111.896 44.4401 111.896 47.7383Z" fill="#EFECF3"/>
<path d="M191.11 58.8757H152.098C150.314 58.8757 148.855 60.3356 148.855 62.1199C148.855 63.9041 150.314 65.364 152.098 65.364H191.11C192.893 65.364 194.352 63.9041 194.352 62.1199C194.352 60.3356 192.893 58.8757 191.11 58.8757Z" fill="#D5D2DC"/>
<path d="M215.804 68.4459C219.317 68.4459 222.18 65.5803 222.18 62.1199C222.18 58.6054 219.371 55.7937 215.804 55.7937C212.292 55.7937 209.428 58.6595 209.428 62.1199C209.482 65.6343 212.292 68.4459 215.804 68.4459Z" fill="white"/>
<path d="M215.046 59.9575L217.208 62.1203L215.046 64.283" stroke="#FD5631" stroke-width="0.917" stroke-linecap="round" stroke-linejoin="round"/>
<path d="M126.702 68.4459C130.214 68.4459 133.078 65.5803 133.078 62.1199C133.078 58.6054 130.214 55.7937 126.702 55.7937C123.19 55.7937 120.326 58.6595 120.326 62.1199C120.326 65.6343 123.19 68.4459 126.702 68.4459Z" fill="white"/>
<path d="M127.458 59.9575L125.297 62.1203L127.458 64.283" stroke="#5D3CF2" stroke-width="0.917" stroke-linecap="round" stroke-linejoin="round"/>
<path d="M220.614 144.304H139.508C138.266 144.304 137.293 145.278 137.293 146.521V160.633C137.293 161.877 138.32 162.85 139.508 162.85H220.614C221.856 162.85 222.829 161.877 222.829 160.633V146.521C222.829 145.332 221.856 144.304 220.614 144.304Z" fill="#FFF2D6"/>
<path d="M132.97 138.789H122.379C121.244 138.789 120.326 139.709 120.326 140.844C120.326 141.979 121.244 142.899 122.379 142.899H132.97C134.104 142.899 135.023 141.979 135.023 140.844C135.023 139.709 134.104 138.789 132.97 138.789Z" fill="#EFECF3"/>
<path d="M139.508 162.906H142.21V144.36H139.508C138.914 144.36 138.374 144.576 137.941 145.009C137.509 145.441 137.293 145.982 137.293 146.577V160.635C137.293 160.905 137.347 161.23 137.455 161.5C137.563 161.77 137.725 162.041 137.941 162.257C138.158 162.473 138.374 162.635 138.698 162.743C138.914 162.798 139.238 162.906 139.508 162.906Z" fill="#F23C49"/>
<path opacity="0.2" d="M220.614 220.433H139.508C138.266 220.433 137.293 221.406 137.293 222.65V236.762C137.293 238.005 138.32 238.978 139.508 238.978H220.614C221.856 238.978 222.829 238.005 222.829 236.762V222.65C222.829 221.46 221.856 220.433 220.614 220.433Z" fill="#3C76F2"/>
<path d="M132.97 214.918H122.379C121.244 214.918 120.326 215.838 120.326 216.973C120.326 218.109 121.244 219.028 122.379 219.028H132.97C134.104 219.028 135.023 218.109 135.023 216.973C135.023 215.838 134.104 214.918 132.97 214.918Z" fill="#EFECF3"/>
<path d="M139.508 238.978H142.21V220.379H139.508C138.914 220.379 138.374 220.595 137.941 221.027C137.509 221.46 137.293 222.001 137.293 222.595V236.707C137.293 237.032 137.347 237.302 137.455 237.573C137.563 237.843 137.725 238.113 137.941 238.329C138.158 238.546 138.374 238.708 138.698 238.816C138.914 238.924 139.184 238.978 139.508 238.978Z" fill="#FDBC31"/>
<path d="M220.614 98.5081H139.508C138.266 98.5081 137.293 99.4813 137.293 100.725V130.355C137.293 131.598 138.32 132.571 139.508 132.571H220.614C221.856 132.571 222.829 131.598 222.829 130.355V100.725C222.829 99.4813 221.856 98.5081 220.614 98.5081Z" fill="#F5F4F8"/>
<path d="M132.97 92.9927H122.379C121.244 92.9927 120.326 93.9119 120.326 95.0473C120.326 96.1828 121.244 97.102 122.379 97.102H132.97C134.104 97.102 135.023 96.1828 135.023 95.0473C135.023 93.9119 134.104 92.9927 132.97 92.9927Z" fill="#EFECF3"/>
<path d="M139.508 132.571H142.21V98.5081H139.508C138.914 98.5081 138.374 98.7244 137.941 99.157C137.509 99.5895 137.293 100.13 137.293 100.725V130.355C137.293 130.625 137.347 130.949 137.455 131.22C137.563 131.49 137.725 131.76 137.941 131.977C138.158 132.193 138.374 132.355 138.644 132.463C138.914 132.517 139.238 132.571 139.508 132.571Z" fill="#FD5631"/>
<path d="M132.97 171.23H122.379C121.244 171.23 120.326 172.149 120.326 173.285C120.326 174.42 121.244 175.339 122.379 175.339H132.97C134.104 175.339 135.023 174.42 135.023 173.285C135.023 172.203 134.104 171.23 132.97 171.23Z" fill="#EFECF3"/>
<path d="M220.614 176.801H139.508C138.266 176.801 137.293 177.774 137.293 179.017V204.322C137.293 205.565 138.32 206.538 139.508 206.538H220.614C221.856 206.538 222.829 205.565 222.829 204.322V179.017C222.829 177.774 221.856 176.801 220.614 176.801Z" fill="#F5F4F8"/>
<path d="M139.508 206.538H142.21V176.746H139.508C138.914 176.746 138.374 176.963 137.941 177.395C137.509 177.828 137.293 178.368 137.293 178.963V204.267C137.293 204.538 137.347 204.862 137.455 205.132C137.563 205.403 137.725 205.673 137.941 205.889C138.158 206.106 138.374 206.268 138.698 206.376C138.914 206.484 139.238 206.538 139.508 206.538Z" fill="#FD5631"/>
<path d="M145.235 109.159C145.181 109.159 145.126 109.159 145.126 109.159C145.072 109.159 145.019 109.105 145.019 109.105C144.964 109.051 144.964 109.051 144.964 108.997C144.964 108.943 144.91 108.889 144.91 108.889C144.91 108.835 144.91 108.781 144.964 108.781C145.181 108.186 145.505 107.591 145.883 106.997C145.937 106.943 145.991 106.889 146.099 106.834C146.207 106.834 146.261 106.834 146.369 106.888C146.423 106.943 146.477 106.997 146.531 107.105C146.531 107.213 146.531 107.267 146.477 107.375C146.153 107.862 145.829 108.457 145.613 108.997C145.613 109.051 145.559 109.105 145.505 109.105C145.397 109.159 145.343 109.159 145.235 109.159Z" fill="#5D3CF2"/>
<path d="M208.433 228.734L195.735 225.165C195.681 225.219 195.681 225.273 195.681 225.273C195.573 225.544 195.573 225.868 195.681 226.139L201.409 240.088C201.517 240.359 201.733 240.629 202.003 240.737L208.433 228.734Z" fill="#3C76F2"/>
<path d="M216.722 126.409C216.668 126.463 216.615 126.516 216.561 126.57C216.669 126.57 216.722 126.463 216.722 126.409Z" fill="#EFECF3"/>
<path d="M210.347 215.162L203.809 226.624L216.831 230.679C216.831 230.733 216.777 230.841 216.723 230.896C216.831 230.733 216.885 230.517 216.885 230.355C216.885 230.139 216.885 229.976 216.777 229.814L211.05 215.919C210.995 215.756 210.887 215.594 210.779 215.486C210.725 215.324 210.509 215.216 210.347 215.162Z" fill="#3C76F2"/>
<path d="M210.454 110.674L210.346 110.62L210.454 110.674Z" fill="#EFECF3"/>
<path d="M191.597 185.45H152.53C151.396 185.45 150.423 186.369 150.423 187.505C150.423 188.64 151.342 189.559 152.53 189.559H191.597C192.732 189.559 193.705 188.64 193.705 187.505C193.651 186.369 192.732 185.45 191.597 185.45Z" fill="#A998F5"/>
<path d="M175.171 193.778H152.53C151.396 193.778 150.423 194.697 150.423 195.833C150.423 196.968 151.342 197.887 152.53 197.887H175.171C176.305 197.887 177.278 196.968 177.278 195.833C177.224 194.697 176.305 193.778 175.171 193.778Z" fill="#A998F5"/>
<ellipse cx="194.798" cy="115.404" rx="6.4574" ry="6.46154" fill="#FD5631"/>
<ellipse cx="175.426" cy="115.404" rx="6.4574" ry="6.46154" fill="#FD5631"/>
<ellipse cx="154.977" cy="115.404" rx="6.4574" ry="6.46154" fill="#FD5631"/>
</g>
<g filter="url(#filter1_dd_79_5240)">
<path d="M124.335 241.437L123.314 237.349C123.314 237.289 123.254 237.169 123.314 237.109C123.314 237.049 123.374 236.929 123.374 236.869C123.434 236.809 123.494 236.749 123.554 236.688C123.614 236.628 123.674 236.628 123.734 236.568C123.795 236.568 123.915 236.568 123.975 236.568C124.035 236.568 124.155 236.628 124.215 236.628C124.275 236.688 124.335 236.749 124.395 236.809C124.455 236.869 124.455 236.929 124.516 237.049L125.236 239.934L128.119 239.213C128.3 239.153 128.42 239.213 128.6 239.273C128.72 239.333 128.84 239.513 128.84 239.633C128.9 239.814 128.84 239.934 128.78 240.114C128.72 240.235 128.6 240.355 128.42 240.415L124.335 241.437Z" fill="#5D3CF2"/>
<path d="M122.114 230.919C121.994 230.919 121.873 230.859 121.813 230.739C121.693 230.679 121.633 230.558 121.633 230.438L119.951 223.586C119.951 223.526 119.891 223.406 119.951 223.346C119.951 223.286 120.011 223.166 120.011 223.106C120.071 223.045 120.131 222.985 120.191 222.925C120.251 222.865 120.311 222.865 120.372 222.805C120.432 222.805 120.552 222.805 120.612 222.805C120.672 222.805 120.792 222.865 120.852 222.865C120.912 222.925 120.972 222.985 121.032 223.045C121.092 223.105 121.092 223.166 121.153 223.286L122.834 230.198C122.834 230.258 122.894 230.378 122.834 230.438C122.834 230.498 122.774 230.619 122.774 230.679C122.714 230.739 122.654 230.799 122.594 230.859C122.534 230.919 122.474 230.919 122.414 230.979C122.234 230.919 122.174 230.919 122.114 230.919ZM118.69 217.155C118.57 217.155 118.45 217.095 118.389 217.035C118.269 216.975 118.209 216.855 118.209 216.734L116.527 209.822C116.527 209.762 116.467 209.642 116.527 209.582C116.527 209.522 116.527 209.402 116.587 209.342C116.648 209.282 116.708 209.222 116.768 209.161C116.828 209.101 116.948 209.041 117.008 209.041C117.128 209.041 117.188 209.041 117.248 209.041C117.308 209.041 117.428 209.101 117.488 209.161C117.549 209.222 117.608 209.282 117.669 209.342C117.729 209.402 117.729 209.522 117.729 209.582L119.411 216.434C119.471 216.614 119.411 216.734 119.351 216.915C119.291 217.035 119.17 217.155 118.99 217.215C118.87 217.155 118.81 217.155 118.69 217.155ZM115.266 203.391C115.146 203.391 115.026 203.331 114.966 203.211C114.845 203.151 114.786 203.031 114.786 202.911L113.104 196.059C113.104 195.999 113.104 195.878 113.104 195.818C113.104 195.758 113.164 195.638 113.164 195.578C113.224 195.518 113.284 195.458 113.344 195.398C113.404 195.337 113.464 195.337 113.524 195.277C113.584 195.277 113.704 195.277 113.764 195.277C113.824 195.277 113.945 195.338 114.005 195.338C114.065 195.398 114.125 195.458 114.185 195.518C114.245 195.578 114.245 195.638 114.305 195.758L115.987 202.67C116.047 202.85 115.987 202.971 115.927 203.151C115.867 203.271 115.746 203.391 115.566 203.452C115.446 203.391 115.386 203.391 115.266 203.391Z" fill="#5D3CF2"/>
<path d="M111.902 189.628C111.782 189.628 111.662 189.568 111.602 189.447C111.482 189.387 111.421 189.267 111.421 189.147L110.4 185.06L114.485 184.038C114.665 184.038 114.785 184.038 114.905 184.158C115.025 184.218 115.085 184.399 115.146 184.519C115.206 184.639 115.145 184.819 115.085 184.94C115.025 185.06 114.905 185.18 114.725 185.24L111.842 185.961L112.563 188.846C112.563 188.906 112.563 189.027 112.563 189.087C112.563 189.147 112.503 189.267 112.443 189.327C112.383 189.387 112.322 189.447 112.262 189.508C112.202 189.568 112.082 189.568 112.022 189.628C112.082 189.628 112.022 189.628 111.902 189.628Z" fill="#5D3CF2"/>
<path d="M35.9191 160.236C35.799 160.176 35.7387 160.056 35.6786 159.936C35.6185 159.816 35.6185 159.635 35.6786 159.515C35.7387 159.395 35.8588 159.275 35.9789 159.215C36.0991 159.155 36.2193 159.155 36.3995 159.155L39.3426 159.696L39.8832 156.75C39.8832 156.57 40.0035 156.45 40.1237 156.33C40.2438 156.209 40.4239 156.209 40.6041 156.209C40.7843 156.27 40.9045 156.33 41.0247 156.45C41.1448 156.57 41.1446 156.75 41.1446 156.931L40.424 161.018L36.2792 160.297C36.039 160.297 35.9792 160.236 35.9191 160.236Z" fill="#5D3CF2"/>
<path d="M48.773 108.428C48.6529 108.367 48.5929 108.247 48.5328 108.187C48.4728 108.067 48.4727 107.947 48.4727 107.827L49.0132 104.881L46.0701 104.34C45.9499 104.34 45.8899 104.28 45.8299 104.28C45.7698 104.22 45.7096 104.16 45.6495 104.1C45.5894 104.04 45.5295 103.98 45.5295 103.86C45.5295 103.8 45.5295 103.679 45.5295 103.619C45.5295 103.559 45.5894 103.439 45.6495 103.379C45.7096 103.319 45.7698 103.259 45.8299 103.199C45.8899 103.138 45.9499 103.138 46.0099 103.078C46.07 103.078 46.1901 103.078 46.2502 103.078L50.3348 103.8L49.6139 107.887C49.6139 108.067 49.4938 108.187 49.3737 108.307C49.2535 108.428 49.0732 108.428 48.893 108.428C48.893 108.488 48.8331 108.488 48.773 108.428Z" fill="#5D3CF2"/>
<path d="M41.3253 150.319C41.2052 150.259 41.1449 150.139 41.0848 150.079C41.0248 149.959 41.025 149.838 41.025 149.718L42.2861 142.746C42.2861 142.686 42.3463 142.566 42.4064 142.506C42.4664 142.446 42.5264 142.386 42.5865 142.326C42.6465 142.265 42.7669 142.265 42.827 142.205C42.887 142.205 43.0071 142.205 43.0672 142.205C43.2474 142.265 43.3675 142.325 43.4276 142.446C43.5477 142.566 43.5476 142.746 43.5476 142.927L42.2861 149.899C42.2861 149.959 42.2263 150.079 42.2263 150.139C42.1662 150.199 42.106 150.259 42.0459 150.319C41.9859 150.379 41.8658 150.379 41.8057 150.44C41.7457 150.44 41.6256 150.44 41.5655 150.44C41.4454 150.44 41.3854 150.379 41.3253 150.319ZM43.7878 136.375C43.6676 136.315 43.6076 136.195 43.5476 136.135C43.4875 136.015 43.4874 135.894 43.4874 135.774L44.7489 128.802C44.7489 128.742 44.809 128.622 44.809 128.562C44.8691 128.502 44.929 128.441 44.9891 128.381C45.0491 128.321 45.1094 128.321 45.1695 128.261C45.2896 128.261 45.3496 128.261 45.4097 128.261C45.4697 128.261 45.5898 128.321 45.6499 128.321C45.7099 128.381 45.7702 128.441 45.8302 128.502C45.8903 128.562 45.8901 128.622 45.9502 128.742C46.0103 128.862 45.9502 128.922 45.9502 128.982L44.7489 135.954C44.6888 136.135 44.6288 136.255 44.5087 136.375C44.3885 136.495 44.2085 136.495 44.0283 136.495C43.9081 136.435 43.8478 136.435 43.7878 136.375ZM46.2505 122.431C46.1304 122.371 46.0704 122.251 46.0103 122.191C45.9502 122.07 45.9502 121.95 45.9502 121.83L47.2116 114.858C47.2116 114.798 47.2718 114.678 47.3319 114.618C47.3919 114.557 47.4519 114.497 47.512 114.437C47.572 114.377 47.6921 114.377 47.7522 114.317C47.8122 114.257 47.9323 114.317 47.9924 114.317C48.1125 114.317 48.1728 114.377 48.2329 114.377C48.2929 114.437 48.3529 114.497 48.4129 114.557C48.473 114.617 48.4731 114.678 48.5332 114.798C48.5332 114.858 48.5332 114.978 48.5332 115.038L47.2717 122.01C47.2117 122.191 47.1517 122.311 47.0315 122.431C46.9114 122.551 46.731 122.551 46.5508 122.551C46.3706 122.491 46.3106 122.431 46.2505 122.431Z" fill="#5D3CF2"/>
<path d="M127.94 12.3223H19.8821C12.1938 12.3223 5.94684 18.5731 5.94684 26.2664V292.828C5.94684 300.521 12.1938 306.772 19.8821 306.772H127.94C135.688 306.772 141.875 300.521 141.875 292.828V26.2664C141.875 18.5731 135.628 12.3223 127.94 12.3223Z" fill="white"/>
<path d="M129.201 7.21216H18.5602C13.6348 7.21216 8.88975 9.19559 5.46602 12.6215C1.98222 16.1075 0 20.7957 0 25.7242V293.968C0 298.897 1.98222 303.585 5.46602 307.071C8.94982 310.557 13.6348 312.48 18.5602 312.48H129.201C134.126 312.48 138.871 310.557 142.355 307.071C145.839 303.585 147.821 298.897 147.821 293.968V25.7242C147.821 20.7957 145.839 16.1075 142.355 12.6215C138.871 9.13549 134.126 7.21216 129.201 7.21216ZM141.875 293.127C141.875 296.793 140.433 300.339 137.79 302.984C135.147 305.568 131.603 307.071 127.939 307.071H19.8817C16.1577 307.071 12.6139 305.628 10.0311 302.984C7.38817 300.399 5.94642 296.853 5.94642 293.127V26.5656C5.94642 22.8993 7.44824 19.3532 10.0311 16.7086C12.6139 14.1241 16.1577 12.6215 19.8817 12.6215H33.5167C34.2375 12.6215 34.9581 12.9221 35.4386 13.4029C35.9192 13.8837 36.2197 14.6049 36.2197 15.3262V16.5283C36.2197 18.4516 37.0005 20.2547 38.322 21.577C39.6434 22.8992 41.5054 23.6806 43.4275 23.6806H104.334C105.295 23.6806 106.196 23.5003 107.097 23.1397C107.938 22.7791 108.779 22.2381 109.439 21.577C110.1 20.9158 110.641 20.1345 111.001 19.233C111.362 18.3915 111.542 17.4298 111.542 16.4681V15.3262C111.542 14.6049 111.842 13.9438 112.322 13.4029C112.803 12.9221 113.524 12.6215 114.245 12.6215H127.879C131.603 12.6215 135.148 14.064 137.73 16.7086C140.373 19.2931 141.815 22.8392 141.815 26.5656V293.127H141.875Z" fill="url(#paint1_linear_79_5240)"/>
<path d="M5.94684 26.5662V60.4648H141.875V26.5662C141.875 22.8998 140.433 19.3537 137.791 16.7092C135.148 14.1247 131.604 12.6221 127.94 12.6221H114.305C113.584 12.6221 112.924 12.9226 112.383 13.4035C111.902 13.8843 111.602 14.6055 111.602 15.3268V16.5288C111.602 17.4905 111.422 18.392 111.061 19.2935C110.701 20.135 110.161 20.9765 109.5 21.6377C108.839 22.2988 108.058 22.8397 107.157 23.2003C106.316 23.5609 105.355 23.7413 104.394 23.7413H43.4878C41.5657 23.7413 39.7637 22.96 38.3822 21.6377C37.0007 20.3154 36.2799 18.4521 36.2799 16.5888V15.4469C36.2799 14.7257 35.9797 14.0646 35.4992 13.5236C35.0187 13.0428 34.2978 12.7422 33.577 12.7422H19.8821C16.1581 12.7422 12.6743 14.1848 10.0315 16.8293C7.44865 19.3537 5.94684 22.8998 5.94684 26.5662Z" fill="#EFECF3"/>
<path d="M94.0018 38.9475H50.6347C48.6525 38.9475 47.0308 40.5703 47.0308 42.5537C47.0308 44.5372 48.6525 46.16 50.6347 46.16H94.0018C95.984 46.16 97.6057 44.5372 97.6057 42.5537C97.6057 40.5703 95.984 38.9475 94.0018 38.9475Z" fill="#D5D2DC"/>
<path d="M121.453 49.5852C125.357 49.5852 128.54 46.3997 128.54 42.553C128.54 38.6463 125.417 35.5208 121.453 35.5208C117.549 35.5208 114.365 38.7064 114.365 42.553C114.425 46.4598 117.549 49.5852 121.453 49.5852Z" fill="white"/>
<path d="M120.611 40.1494L123.013 42.5536L120.611 44.9577" stroke="#FD5631" stroke-width="0.917" stroke-linecap="round" stroke-linejoin="round"/>
<path d="M22.4047 49.5852C26.309 49.5852 29.4924 46.3997 29.4924 42.553C29.4924 38.6463 26.309 35.5208 22.4047 35.5208C18.5005 35.5208 15.3168 38.7064 15.3168 42.553C15.3168 46.4598 18.5005 49.5852 22.4047 49.5852Z" fill="white"/>
<path d="M23.2452 40.1494L20.8426 42.5536L23.2452 44.9577" stroke="#FD5631" stroke-width="0.917" stroke-linecap="round" stroke-linejoin="round"/>
<path d="M126.799 133.912H36.6409C35.2594 133.912 34.1782 134.994 34.1782 136.376V152.063C34.1782 153.446 35.3195 154.527 36.6409 154.527H126.799C128.181 154.527 129.262 153.446 129.262 152.063V136.376C129.262 135.054 128.181 133.912 126.799 133.912Z" fill="#FFCBCE"/>
<path d="M29.3721 127.78H17.5995C16.3381 127.78 15.3168 128.802 15.3168 130.064C15.3168 131.326 16.3381 132.348 17.5995 132.348H29.3721C30.6335 132.348 31.6548 131.326 31.6548 130.064C31.6548 128.802 30.6335 127.78 29.3721 127.78Z" fill="#EFECF3"/>
<path d="M36.6409 154.589H39.6442V133.973H36.6409C35.9802 133.973 35.3796 134.213 34.8991 134.694C34.4185 135.175 34.1782 135.776 34.1782 136.437V152.064C34.1782 152.365 34.2384 152.725 34.3585 153.026C34.4787 153.326 34.6588 153.627 34.8991 153.867C35.1393 154.108 35.3795 154.288 35.7399 154.408C35.9802 154.468 36.3406 154.589 36.6409 154.589Z" fill="#F23C49"/>
<path d="M126.799 218.537H36.6409C35.2594 218.537 34.1782 219.619 34.1782 221.002V236.689C34.1782 238.071 35.3195 239.153 36.6409 239.153H126.799C128.181 239.153 129.262 238.071 129.262 236.689V221.002C129.262 219.679 128.181 218.537 126.799 218.537Z" fill="#FDBC31" fill-opacity="0.2"/>
<path d="M29.3721 212.408H17.5995C16.3381 212.408 15.3168 213.43 15.3168 214.692C15.3168 215.954 16.3381 216.976 17.5995 216.976H29.3721C30.6335 216.976 31.6548 215.954 31.6548 214.692C31.6548 213.43 30.6335 212.408 29.3721 212.408Z" fill="#EFECF3"/>
<path d="M36.6409 239.153H39.6442V218.477H36.6409C35.9802 218.477 35.3796 218.718 34.8991 219.199C34.4185 219.679 34.1782 220.28 34.1782 220.941V236.629C34.1782 236.989 34.2384 237.29 34.3585 237.59C34.4787 237.891 34.6588 238.191 34.8991 238.432C35.1393 238.672 35.3795 238.852 35.7399 238.973C35.9802 239.093 36.2805 239.153 36.6409 239.153Z" fill="#FDBC31"/>
<path d="M126.799 83.0029H36.6409C35.2594 83.0029 34.1782 84.0849 34.1782 85.4673V118.404C34.1782 119.787 35.3195 120.868 36.6409 120.868H126.799C128.181 120.868 129.262 119.787 129.262 118.404V85.4673C129.262 84.0849 128.181 83.0029 126.799 83.0029Z" fill="#F5F4F8"/>
<path d="M29.3721 76.8726H17.5995C16.3381 76.8726 15.3168 77.8944 15.3168 79.1565C15.3168 80.4187 16.3381 81.4405 17.5995 81.4405H29.3721C30.6335 81.4405 31.6548 80.4187 31.6548 79.1565C31.6548 77.8944 30.6335 76.8726 29.3721 76.8726Z" fill="#EFECF3"/>
<path d="M36.6409 120.868H39.6442V83.0029H36.6409C35.9802 83.0029 35.3796 83.2435 34.8991 83.7243C34.4185 84.2051 34.1782 84.8061 34.1782 85.4673V118.404C34.1782 118.705 34.2384 119.065 34.3585 119.366C34.4787 119.666 34.6588 119.967 34.8991 120.207C35.1393 120.448 35.3795 120.628 35.6798 120.748C35.9801 120.808 36.3406 120.868 36.6409 120.868Z" fill="#FD5631"/>
<path d="M29.3721 163.843H17.5995C16.3381 163.843 15.3168 164.864 15.3168 166.127C15.3168 167.389 16.3381 168.411 17.5995 168.411H29.3721C30.6335 168.411 31.6548 167.389 31.6548 166.127C31.6548 164.924 30.6335 163.843 29.3721 163.843Z" fill="#EFECF3"/>
<path d="M126.799 170.034H36.6409C35.2594 170.034 34.1782 171.116 34.1782 172.499V200.627C34.1782 202.01 35.3195 203.092 36.6409 203.092H126.799C128.181 203.092 129.262 202.01 129.262 200.627V172.499C129.262 171.116 128.181 170.034 126.799 170.034Z" fill="#F5F4F8"/>
<path d="M36.6409 203.091H39.6442V169.974H36.6409C35.9802 169.974 35.3796 170.215 34.8991 170.695C34.4185 171.176 34.1782 171.777 34.1782 172.438V200.567C34.1782 200.868 34.2384 201.228 34.3585 201.529C34.4787 201.829 34.6588 202.13 34.8991 202.37C35.1393 202.611 35.3795 202.791 35.7399 202.911C35.9802 203.031 36.3406 203.091 36.6409 203.091Z" fill="#FD5631"/>
<path d="M43.0058 94.8435C42.9457 94.8435 42.8855 94.8435 42.8855 94.8435C42.8255 94.8435 42.7656 94.7834 42.7656 94.7834C42.7055 94.7233 42.7054 94.7233 42.7054 94.6632C42.7054 94.6031 42.6453 94.543 42.6453 94.543C42.6453 94.4829 42.6454 94.4227 42.7054 94.4227C42.9457 93.7615 43.3062 93.1005 43.7267 92.4394C43.7867 92.3793 43.8468 92.3191 43.9669 92.259C44.087 92.259 44.1471 92.2589 44.2672 92.319C44.3273 92.3792 44.3872 92.4393 44.4473 92.5596C44.4473 92.6798 44.4472 92.7399 44.3872 92.8601C44.0268 93.401 43.6666 94.0622 43.4264 94.6632C43.4264 94.7233 43.3662 94.7834 43.3061 94.7834C43.186 94.8435 43.1259 94.8435 43.0058 94.8435Z" fill="#5D3CF2"/>
<path d="M101.45 114.377C101.39 114.377 101.33 114.377 101.33 114.377L100.85 114.197C99.6483 113.776 98.4472 113.356 97.1858 112.935C97.1258 112.875 97.0055 112.815 97.0055 112.755C96.9454 112.694 96.9454 112.574 97.0055 112.454C97.0055 112.334 97.1258 112.274 97.1858 112.274C97.2459 112.214 97.366 112.214 97.426 112.274C98.6874 112.755 99.8888 113.115 101.09 113.536L101.571 113.716C101.631 113.716 101.631 113.776 101.691 113.776C101.751 113.837 101.751 113.836 101.811 113.897C101.811 113.957 101.871 114.017 101.871 114.017C101.871 114.077 101.871 114.137 101.871 114.137C101.871 114.197 101.811 114.257 101.751 114.317C101.57 114.377 101.51 114.377 101.45 114.377ZM93.2816 111.312C93.2215 111.312 93.1613 111.312 93.1012 111.312C91.7798 110.711 90.4583 109.99 89.197 109.208C89.1369 109.208 89.1371 109.148 89.077 109.088C89.077 109.028 89.0169 109.028 89.0169 108.968C89.0169 108.908 89.0169 108.848 89.0169 108.848C89.0169 108.788 89.077 108.728 89.077 108.728C89.1371 108.667 89.1971 108.607 89.3172 108.547C89.4373 108.547 89.4974 108.547 89.6175 108.607C90.8188 109.389 92.0801 110.11 93.4015 110.711C93.5217 110.771 93.5819 110.831 93.5819 110.891C93.642 110.952 93.642 111.072 93.5819 111.192C93.5219 111.252 93.5217 111.312 93.4617 111.312C93.4016 111.312 93.2816 111.312 93.2816 111.312ZM85.8934 106.564C85.8333 106.564 85.7733 106.564 85.7133 106.564C85.6532 106.564 85.6531 106.504 85.593 106.504C84.4518 105.482 83.4908 104.4 82.6499 103.138C82.5898 103.078 82.5898 103.078 82.5898 103.018C82.5898 102.958 82.5898 102.897 82.5898 102.837C82.5898 102.777 82.5898 102.717 82.6499 102.717C82.6499 102.657 82.7101 102.657 82.7701 102.597C82.8302 102.537 82.8901 102.537 82.9502 102.537C83.0103 102.537 83.0702 102.537 83.1303 102.537C83.1904 102.537 83.2506 102.597 83.3107 102.597C83.3707 102.657 83.3705 102.657 83.4306 102.717C84.2715 103.919 85.2327 105.001 86.2538 106.023C86.3139 106.083 86.3741 106.143 86.3741 106.203C86.3741 106.263 86.3741 106.323 86.3741 106.384C86.314 106.444 86.3139 106.504 86.2538 106.564C86.0135 106.564 85.9534 106.564 85.8934 106.564ZM80.8479 99.4115C80.7879 99.4115 80.7279 99.4116 80.6678 99.3515C80.6078 99.2914 80.5476 99.2312 80.5476 99.1711C79.9469 97.7887 79.5264 96.3462 79.2862 94.9037C79.2862 94.7835 79.2862 94.7234 79.3463 94.6032C79.4063 94.5431 79.4664 94.4829 79.5865 94.4228C79.6465 94.4228 79.7068 94.4228 79.7669 94.4228C79.8269 94.4228 79.8868 94.483 79.8868 94.483C79.9469 94.483 79.947 94.5431 80.0071 94.6032C80.0071 94.6633 80.0672 94.6632 80.0672 94.7233C80.3074 96.1057 80.7279 97.4882 81.2685 98.8104C81.2685 98.8705 81.3283 98.9306 81.3283 98.9306C81.3283 98.9306 81.3286 99.0509 81.2685 99.0509C81.2685 99.111 81.2084 99.111 81.2084 99.1711C81.2084 99.2312 81.1482 99.2311 81.0881 99.2311L80.8479 99.4115ZM83.0705 94.6633C82.2295 94.7234 81.4486 94.6633 80.6077 94.6032C80.5476 94.6032 80.4875 94.6032 80.4875 94.5431C80.4274 94.5431 80.4276 94.4829 80.3675 94.4228C80.3074 94.3627 80.3074 94.2426 80.3074 94.1825C80.3074 94.0623 80.3673 94.0022 80.4273 93.9421C80.4874 93.882 80.6078 93.8819 80.6678 93.8819C81.4487 93.942 82.2295 94.0022 83.0103 93.9421C83.6711 93.882 84.2715 93.8219 84.9323 93.7618C84.9923 93.7618 85.0525 93.7618 85.0525 93.7618C85.1126 93.7618 85.1727 93.7617 85.1727 93.8218C85.2328 93.8218 85.2326 93.882 85.2927 93.9421C85.2927 94.0022 85.3528 94.0022 85.3528 94.0623C85.3528 94.1224 85.3528 94.1825 85.3528 94.1825C85.3528 94.2426 85.2927 94.3026 85.2927 94.3026C85.2326 94.3627 85.2328 94.3627 85.1727 94.4228C85.1127 94.4228 85.1126 94.483 85.0525 94.483C84.3918 94.5431 83.7312 94.6032 83.0705 94.6633ZM76.343 93.6416C76.2829 93.6416 76.2228 93.6416 76.2228 93.6416C74.7812 93.2209 73.3997 92.6799 72.0783 92.0788C72.0182 92.0788 71.9583 92.0187 71.9583 92.0187C71.8983 91.9586 71.8982 91.9586 71.8381 91.8985C71.8381 91.8384 71.8381 91.7783 71.8381 91.7783C71.8381 91.7182 71.8381 91.6581 71.8381 91.6581C71.8381 91.598 71.8983 91.598 71.9583 91.5379C71.9583 91.4778 72.0182 91.4778 72.0783 91.4778C72.1384 91.4778 72.1985 91.4778 72.1985 91.4778C72.2586 91.4778 72.3186 91.4778 72.3786 91.4778C74.0004 92.1389 75.2619 92.6198 76.4633 92.9804C76.5233 92.9804 76.5832 93.0405 76.5832 93.0405C76.6433 93.0405 76.6433 93.1006 76.6433 93.1607C76.7034 93.2208 76.7035 93.2208 76.7035 93.2809C76.7035 93.341 76.7034 93.4011 76.6433 93.4011C76.6433 93.4612 76.5832 93.5213 76.5231 93.5814C76.463 93.6415 76.4031 93.6416 76.343 93.6416ZM89.1368 92.9202C89.0768 92.9202 89.0168 92.9203 88.9568 92.8602C88.8967 92.8001 88.8367 92.8001 88.7767 92.74C88.7166 92.6799 88.7166 92.5597 88.7166 92.4395C88.7166 92.3193 88.7765 92.2591 88.8966 92.199C89.5574 91.8384 90.0979 91.3575 90.6986 90.8166C91.1791 90.3357 91.5395 89.7949 91.8398 89.254C91.8998 89.1939 91.9601 89.1337 92.0202 89.0736C92.1403 89.0736 92.2004 89.0736 92.3205 89.0736C92.3806 89.1337 92.5006 89.1938 92.5006 89.314C92.5606 89.4342 92.5006 89.4943 92.5006 89.6145C92.1402 90.2756 91.7199 90.8167 91.1793 91.3576C90.6387 91.9586 89.9779 92.4395 89.2571 92.8602C89.2571 92.9203 89.1969 92.9202 89.1368 92.9202ZM79.2862 90.8166C79.2261 90.8166 79.1662 90.8167 79.1662 90.7566C79.1061 90.7566 79.046 90.6964 79.046 90.6964C78.9859 90.6363 78.9858 90.6363 78.9858 90.5762C78.9858 90.5161 78.9858 90.456 78.9858 90.456C79.106 88.9534 79.4665 87.4508 80.0672 86.0684C80.1272 86.0083 80.1872 85.8881 80.2473 85.8881C80.3073 85.8881 80.4275 85.828 80.5476 85.8881C80.6077 85.9482 80.7277 86.0083 80.7277 86.0684C80.7877 86.1886 80.7277 86.2487 80.7277 86.3689C80.1871 87.6912 79.8269 89.0736 79.7067 90.456C79.7067 90.5762 79.7066 90.6363 79.5865 90.6964C79.5264 90.7565 79.4063 90.8166 79.2862 90.8166ZM68.1139 90.3959H67.9338L66.4923 89.7948C65.5913 89.4342 64.6904 89.0737 63.8495 88.8333C63.7894 88.8333 63.7893 88.7731 63.7293 88.7731C63.6692 88.713 63.6691 88.713 63.609 88.6529C63.609 88.5928 63.5492 88.5928 63.5492 88.5327C63.5492 88.4726 63.5492 88.4124 63.5492 88.4124C63.5492 88.3523 63.609 88.3523 63.609 88.2922C63.609 88.2321 63.6692 88.2322 63.7293 88.2322C63.7893 88.2322 63.7894 88.1721 63.8495 88.1721C63.9096 88.1721 63.9695 88.1721 63.9695 88.1721C64.8704 88.4726 65.7114 88.7731 66.6724 89.1938L68.1139 89.7948C68.174 89.7948 68.1741 89.855 68.2342 89.855C68.2342 89.9151 68.2943 89.9151 68.2943 89.9752C68.2943 90.0353 68.2943 90.0954 68.2943 90.0954V90.2155C68.2342 90.2756 68.2341 90.3359 68.174 90.3359C68.2942 90.3359 68.234 90.3959 68.1139 90.3959ZM47.0312 89.855C46.9711 89.855 46.8508 89.8549 46.8508 89.7948C46.7907 89.7347 46.7308 89.6746 46.6707 89.6145C46.6707 89.5544 46.6707 89.4342 46.6707 89.3741C46.7308 89.314 46.7307 89.2539 46.8508 89.1938C48.1122 88.3523 49.4939 87.6912 50.9354 87.2705C50.9955 87.2705 51.0554 87.2705 51.0554 87.2705C51.1154 87.2705 51.1757 87.2706 51.2358 87.3307C51.2958 87.3307 51.2956 87.3907 51.3557 87.3907C51.3557 87.4508 51.4158 87.4508 51.4158 87.5109C51.4158 87.571 51.4759 87.6312 51.4158 87.6312C51.4158 87.6913 51.4158 87.7514 51.3557 87.7514C51.3557 87.8115 51.2958 87.8114 51.2358 87.8715C51.1757 87.9316 51.1756 87.9317 51.1155 87.9317C49.734 88.3524 48.4126 88.9534 47.2714 89.7948C47.2714 89.8549 47.1513 89.855 47.0312 89.855ZM59.7649 87.6912H59.6449C58.2033 87.4508 56.7617 87.2706 55.3201 87.3307C55.26 87.3307 55.2001 87.3307 55.14 87.3307C55.0799 87.3307 55.0798 87.2705 55.0198 87.2705C54.9597 87.2104 54.9596 87.2104 54.9596 87.1503C54.9596 87.0902 54.8995 87.0902 54.8995 87.0301C54.8995 86.9099 54.9597 86.8497 55.0198 86.7896C55.0798 86.7295 55.1999 86.6695 55.26 86.6695C56.7616 86.6695 58.2632 86.7897 59.7047 87.0301C59.7648 87.0301 59.825 87.0301 59.825 87.0902C59.8851 87.0902 59.8852 87.1502 59.9452 87.2103C60.0053 87.2704 60.0051 87.2706 60.0051 87.3307C60.0051 87.3908 60.0051 87.4508 60.0051 87.4508C60.0051 87.5109 59.9452 87.5711 59.8851 87.6312C59.9452 87.6312 59.885 87.6912 59.7649 87.6912ZM93.1613 85.6477C93.0412 85.6477 92.9812 85.6477 92.9211 85.5275C92.8611 85.4674 92.8009 85.3471 92.8009 85.287C92.7408 84.1451 92.2604 83.0632 91.4195 82.2818C91.2393 82.1015 91.0592 81.9813 90.879 81.8611C90.8189 81.801 90.7587 81.741 90.7587 81.6208C90.7587 81.5607 90.7588 81.4404 90.8188 81.3803C90.8789 81.3202 90.9389 81.2601 91.059 81.2601C91.1191 81.2601 91.2392 81.2601 91.2993 81.2601C91.5395 81.4404 91.7197 81.5606 91.8999 81.741C92.861 82.6425 93.4017 83.9047 93.5218 85.227C93.5218 85.3472 93.4616 85.4073 93.4015 85.4674C93.4015 85.5876 93.2815 85.6477 93.1613 85.6477ZM82.9502 83.0632C82.8901 83.0632 82.8302 83.0632 82.7701 83.0031C82.7101 83.0031 82.6499 82.943 82.6499 82.8829C82.5898 82.8228 82.5898 82.8228 82.5898 82.7627C82.5898 82.7026 82.5898 82.6425 82.5898 82.6425C82.5898 82.5824 82.5898 82.5223 82.6499 82.5223C82.6499 82.4622 82.7101 82.4621 82.7701 82.402C83.9114 81.4404 85.3528 80.7192 86.8545 80.4187C86.9746 80.4187 87.0346 80.4186 87.0947 80.4787C87.2148 80.5388 87.215 80.599 87.275 80.7192C87.275 80.8394 87.275 80.8995 87.2149 81.0197C87.1549 81.1399 87.0948 81.1399 86.9747 81.1399C85.5932 81.4404 84.2716 82.0415 83.1904 82.943C83.0703 83.0031 83.0103 83.0031 82.9502 83.0632Z" fill="#5D3CF2"/>
<path d="M107.517 117.023C107.397 117.023 107.337 117.023 107.277 116.963C106.736 116.542 106.136 116.181 105.535 115.941C105.475 115.881 105.355 115.821 105.355 115.76C105.355 115.7 105.355 115.58 105.355 115.46C105.415 115.4 105.475 115.28 105.535 115.28C105.595 115.22 105.715 115.22 105.775 115.28C106.496 115.58 107.097 115.941 107.698 116.422C107.698 116.482 107.757 116.482 107.757 116.542C107.757 116.602 107.757 116.662 107.757 116.662C107.757 116.722 107.757 116.782 107.757 116.782C107.757 116.842 107.698 116.842 107.698 116.902C107.638 116.963 107.577 116.963 107.517 117.023Z" fill="#5D3CF2"/>
<path d="M105.173 108.247C104.933 108.187 104.693 108.187 104.452 108.247C104.212 108.368 104.032 108.488 103.972 108.728L95.4426 124.896C95.6228 124.956 95.8032 125.017 95.9834 125.017C96.1636 125.017 96.3437 125.017 96.5239 124.896L121.871 114.498C122.052 114.438 122.232 114.318 122.352 114.198C122.472 114.078 122.592 113.897 122.652 113.717L105.173 108.247Z" fill="#5D3CF2" fill-opacity="0.5"/>
<path d="M105.474 112.394C105.715 112.454 105.955 112.454 106.135 112.334C106.315 112.274 106.555 112.094 106.615 111.914L115.385 96.5268H115.265H115.205C115.145 96.5268 115.025 96.5268 114.964 96.5268H115.085C114.844 96.4667 114.604 96.5269 114.424 96.587L89.0765 106.985C88.7762 107.105 88.5358 107.346 88.4157 107.646L105.474 112.394Z" fill="white"/>
<path d="M102.532 111.552L88.4166 107.586C88.3565 107.646 88.3565 107.706 88.3565 107.706C88.2364 108.006 88.2364 108.367 88.3565 108.668L94.7235 124.174C94.8436 124.475 95.0839 124.775 95.3843 124.896L102.532 111.552Z" fill="#EFECF3"/>
<path d="M122.474 114.018C122.414 114.078 122.354 114.138 122.294 114.198C122.414 114.198 122.474 114.078 122.474 114.018Z" fill="#EFECF3"/>
<path d="M115.386 96.4663L108.118 109.208L122.594 113.716C122.594 113.776 122.534 113.896 122.474 113.956C122.594 113.776 122.654 113.536 122.654 113.355C122.654 113.115 122.654 112.935 122.534 112.754L116.167 97.3077C116.107 97.1274 115.987 96.9471 115.867 96.8268C115.807 96.6465 115.566 96.5264 115.386 96.4663Z" fill="#EFECF3"/>
<path d="M115.505 96.5263L115.385 96.4663L115.505 96.5263Z" fill="#EFECF3"/>
<path d="M80.1268 218.537C80.4271 221.663 81.8688 224.548 84.2114 226.651C86.554 228.755 89.5573 229.897 92.6807 229.897C95.8041 229.897 98.8071 228.755 101.15 226.651C103.492 224.548 104.934 221.663 105.234 218.537H80.1268Z" fill="#FDBC31"/>
<path d="M94.5436 179.65H51.1164C49.855 179.65 48.7739 180.671 48.7739 181.934C48.7739 183.196 49.7949 184.218 51.1164 184.218H94.5436C95.805 184.218 96.8864 183.196 96.8864 181.934C96.8263 180.671 95.805 179.65 94.5436 179.65Z" fill="#D5D2DC"/>
<path d="M76.2837 188.907H51.1164C49.855 188.907 48.7739 189.928 48.7739 191.191C48.7739 192.453 49.7949 193.475 51.1164 193.475H76.2837C77.5451 193.475 78.6262 192.453 78.6262 191.191C78.5662 189.928 77.5451 188.907 76.2837 188.907Z" fill="#D5D2DC"/>
<path d="M66.8527 149.178H62.4076C60.966 149.178 59.5845 148.637 58.5033 147.616C57.4221 146.594 56.8215 145.272 56.7014 143.829L55.9807 130.727C55.9807 130.606 55.9808 130.486 56.0409 130.366C56.1009 130.246 56.1609 130.186 56.2209 130.065C56.3411 130.005 56.4011 129.885 56.5213 129.885C56.6414 129.825 56.7616 129.825 56.8817 129.825H72.4386C72.5588 129.825 72.6789 129.825 72.739 129.885C72.8591 129.945 72.9191 130.005 73.0393 130.065C73.0993 130.125 73.1593 130.246 73.2194 130.366C73.2794 130.486 73.2795 130.606 73.2795 130.727L72.5589 143.829C72.4988 145.272 71.8379 146.654 70.8167 147.616C69.6755 148.577 68.2342 149.178 66.8527 149.178Z" fill="#F23C49"/>
<path d="M73.0407 132.77L72.9205 134.753C73.8815 134.934 74.7227 135.474 75.2633 136.256C75.8639 137.037 76.1041 137.999 76.1041 138.961C76.0441 139.922 75.6237 140.824 74.9629 141.545C74.3022 142.266 73.4011 142.687 72.4401 142.747L72.3198 144.731C73.8215 144.67 75.2631 144.069 76.2842 143.048C77.3654 142.026 78.0261 140.583 78.0862 139.081C78.1462 137.578 77.6659 136.136 76.7649 134.934C75.8639 133.792 74.5424 133.01 73.0407 132.77Z" fill="#F23C49"/>
<path d="M65.7716 126.759C65.7716 126.759 61.9874 123.273 62.1075 120.689C62.2877 116.722 65.8316 115.219 64.5101 111.553C63.8494 109.81 61.2065 104.1 61.2065 104.1C61.2065 104.1 65.5916 108.427 67.1533 111.132C68.5348 113.596 68.3546 117.383 66.8529 119.246C63.4893 123.213 65.7716 126.759 65.7716 126.759Z" fill="#D5D2DC"/>
<path d="M77.0042 221.662C75.5026 221.662 74.1211 222.083 72.7996 222.864C71.5383 223.585 70.457 224.667 69.7362 225.929C69.1957 227.011 69.0153 228.273 69.3157 229.475C69.4358 229.896 69.9766 231.819 70.7575 231.098C72.6796 229.295 74.9018 227.792 77.4245 226.831C78.6258 226.35 78.5059 221.722 77.0042 221.662Z" fill="#FDBC31"/>
<path d="M83.7905 229.959C82.2288 232.363 81.0276 235.007 80.3069 237.772C80.0065 239.034 80.1267 240.417 80.6072 241.619C80.9075 242.28 81.6281 242.941 82.2288 242.1C82.9496 240.898 83.4302 239.575 83.8507 238.193C84.3312 236.871 84.8717 235.608 85.2922 234.226C85.7126 233.024 85.7126 231.762 85.2922 230.62C85.0519 230.079 84.3912 228.997 83.7905 229.959Z" fill="#FDBC31"/>
<path d="M106.076 229.417C108.178 231.4 110.1 233.444 112.263 235.307C113.224 236.148 113.704 234.886 113.824 234.045C114.005 232.903 113.884 230.739 112.923 229.958C110.941 228.094 108.779 226.351 106.677 224.548C105.776 223.767 105.355 224.909 105.295 225.69C105.175 226.712 105.235 228.635 106.076 229.417Z" fill="#FDBC31"/>
<path d="M94.7231 233.443C94.603 236.328 95.5038 239.513 96.3447 242.338C96.645 243.24 97.4859 244.923 98.447 243.601C99.408 242.278 99.228 240.114 98.8676 238.612C98.5672 237.41 98.1469 236.208 97.7865 235.066C97.4261 233.864 97.1857 232.301 96.1646 231.399C95.2036 230.498 94.7832 233.142 94.7231 233.443Z" fill="#FDBC31"/>
</g>
</g>
<defs>
<filter id="filter0_dd_79_5240" x="90.5469" y="22.3276" width="164.978" height="306.615" filterUnits="userSpaceOnUse" color-interpolation-filters="sRGB">
<feFlood flood-opacity="0" result="BackgroundImageFix"/>
<feColorMatrix in="SourceAlpha" type="matrix" values="0 0 0 0 0 0 0 0 0 0 0 0 0 0 0 0 0 0 127 0" result="hardAlpha"/>
<feOffset dy="8"/>
<feGaussianBlur stdDeviation="8"/>
<feColorMatrix type="matrix" values="0 0 0 0 0.121569 0 0 0 0 0.105882 0 0 0 0 0.176471 0 0 0 0.16 0"/>
<feBlend mode="normal" in2="BackgroundImageFix" result="effect1_dropShadow_79_5240"/>
<feColorMatrix in="SourceAlpha" type="matrix" values="0 0 0 0 0 0 0 0 0 0 0 0 0 0 0 0 0 0 127 0" result="hardAlpha"/>
<feMorphology radius="6" operator="erode" in="SourceAlpha" result="effect2_dropShadow_79_5240"/>
<feOffset dy="4"/>
<feGaussianBlur stdDeviation="6"/>
<feColorMatrix type="matrix" values="0 0 0 0 0.121569 0 0 0 0 0.105882 0 0 0 0 0.176471 0 0 0 0.2 0"/>
<feBlend mode="normal" in2="effect1_dropShadow_79_5240" result="effect2_dropShadow_79_5240"/>
<feBlend mode="normal" in="SourceGraphic" in2="effect2_dropShadow_79_5240" result="shape"/>
</filter>
<filter id="filter1_dd_79_5240" x="-16" y="-0.787842" width="179.821" height="337.268" filterUnits="userSpaceOnUse" color-interpolation-filters="sRGB">
<feFlood flood-opacity="0" result="BackgroundImageFix"/>
<feColorMatrix in="SourceAlpha" type="matrix" values="0 0 0 0 0 0 0 0 0 0 0 0 0 0 0 0 0 0 127 0" result="hardAlpha"/>
<feOffset dy="8"/>
<feGaussianBlur stdDeviation="8"/>
<feColorMatrix type="matrix" values="0 0 0 0 0.121569 0 0 0 0 0.105882 0 0 0 0 0.176471 0 0 0 0.16 0"/>
<feBlend mode="normal" in2="BackgroundImageFix" result="effect1_dropShadow_79_5240"/>
<feColorMatrix in="SourceAlpha" type="matrix" values="0 0 0 0 0 0 0 0 0 0 0 0 0 0 0 0 0 0 127 0" result="hardAlpha"/>
<feMorphology radius="6" operator="erode" in="SourceAlpha" result="effect2_dropShadow_79_5240"/>
<feOffset dy="4"/>
<feGaussianBlur stdDeviation="6"/>
<feColorMatrix type="matrix" values="0 0 0 0 0.121569 0 0 0 0 0.105882 0 0 0 0 0.176471 0 0 0 0.2 0"/>
<feBlend mode="normal" in2="effect1_dropShadow_79_5240" result="effect2_dropShadow_79_5240"/>
<feBlend mode="normal" in="SourceGraphic" in2="effect2_dropShadow_79_5240" result="shape"/>
</filter>
<linearGradient id="paint0_linear_79_5240" x1="106.547" y1="198.359" x2="287" y2="5.99953" gradientUnits="userSpaceOnUse">
<stop stop-color="#454056"/>
<stop offset="1" stop-color="#8D8A97"/>
</linearGradient>
<linearGradient id="paint1_linear_79_5240" x1="7.0711e-06" y1="193.999" x2="148" y2="20.9993" gradientUnits="userSpaceOnUse">
<stop stop-color="#454056"/>
<stop offset="1" stop-color="#8D8A97"/>
</linearGradient>
<clipPath id="clip0_79_5240">
<rect width="241" height="238" fill="white"/>
</clipPath>
</defs>
</svg>
