<svg xmlns="http://www.w3.org/2000/svg" width="12" height="12" viewBox="0 0 12 12" fill="none">
    <path d="M11.4222 8.23696C11.5885 7.86509 11.1414 7.54834 10.7677 7.71109C9.88173 8.09635 8.90027 8.20602 7.95108 8.02582C7.00188 7.84562 6.1289 7.38389 5.44573 6.70072C4.76256 6.01755 4.30084 5.14457 4.12063 4.19537C3.94043 3.24618 4.0501 2.26472 4.43537 1.37871C4.59812 1.00509 4.28137 0.557962 3.91037 0.724212C3.06785 1.09999 2.32937 1.67503 1.75858 2.39978C1.1878 3.12452 0.801852 3.97721 0.634007 4.88433C0.466161 5.79145 0.521458 6.72579 0.795129 7.60678C1.0688 8.48777 1.55263 9.28898 2.20492 9.94134C2.8572 10.5937 3.65835 11.0776 4.53931 11.3514C5.42027 11.6252 6.3546 11.6806 7.26174 11.5128C8.16889 11.3451 9.02162 10.9592 9.74643 10.3886C10.4712 9.81785 11.0464 9.07944 11.4222 8.23696Z" fill="black"/>
</svg>