<svg width="50" height="50" viewBox="0 0 50 50" fill="none" xmlns="http://www.w3.org/2000/svg">
<g filter="url(#filter0_dd_25_8817)">
<rect x="12" y="8" width="26" height="26" rx="13" fill="white"/>
</g>
<path fill-rule="evenodd" clip-rule="evenodd" d="M24.9997 16.125C25.598 16.125 26.083 16.61 26.083 17.2083C26.083 17.8066 25.598 18.2917 24.9997 18.2917C24.4014 18.2917 23.9163 17.8066 23.9163 17.2083C23.9163 16.61 24.4014 16.125 24.9997 16.125Z" fill="#FF5757"/>
<path fill-rule="evenodd" clip-rule="evenodd" d="M24.9997 19.9167C25.598 19.9167 26.083 20.4017 26.083 21C26.083 21.5983 25.598 22.0833 24.9997 22.0833C24.4014 22.0833 23.9163 21.5983 23.9163 21C23.9163 20.4017 24.4014 19.9167 24.9997 19.9167Z" fill="#FF5757"/>
<path fill-rule="evenodd" clip-rule="evenodd" d="M24.9997 23.7083C25.598 23.7083 26.083 24.1934 26.083 24.7917C26.083 25.39 25.598 25.875 24.9997 25.875C24.4014 25.875 23.9163 25.39 23.9163 24.7917C23.9163 24.1934 24.4014 23.7083 24.9997 23.7083Z" fill="#FF5757"/>
<defs>
<filter id="filter0_dd_25_8817" x="0" y="0" width="50" height="50" filterUnits="userSpaceOnUse" color-interpolation-filters="sRGB">
<feFlood flood-opacity="0" result="BackgroundImageFix"/>
<feColorMatrix in="SourceAlpha" type="matrix" values="0 0 0 0 0 0 0 0 0 0 0 0 0 0 0 0 0 0 127 0" result="hardAlpha"/>
<feOffset dy="4"/>
<feGaussianBlur stdDeviation="6"/>
<feColorMatrix type="matrix" values="0 0 0 0 0.121569 0 0 0 0 0.105882 0 0 0 0 0.176471 0 0 0 0.08 0"/>
<feBlend mode="normal" in2="BackgroundImageFix" result="effect1_dropShadow_25_8817"/>
<feColorMatrix in="SourceAlpha" type="matrix" values="0 0 0 0 0 0 0 0 0 0 0 0 0 0 0 0 0 0 127 0" result="hardAlpha"/>
<feMorphology radius="2" operator="erode" in="SourceAlpha" result="effect2_dropShadow_25_8817"/>
<feOffset dy="2"/>
<feGaussianBlur stdDeviation="1"/>
<feColorMatrix type="matrix" values="0 0 0 0 0.121569 0 0 0 0 0.105882 0 0 0 0 0.176471 0 0 0 0.08 0"/>
<feBlend mode="normal" in2="effect1_dropShadow_25_8817" result="effect2_dropShadow_25_8817"/>
<feBlend mode="normal" in="SourceGraphic" in2="effect2_dropShadow_25_8817" result="shape"/>
</filter>
</defs>
</svg>
