<svg xmlns="http://www.w3.org/2000/svg" width="12" height="12" viewBox="0 0 12 12" fill="none">
<path fill-rule="evenodd" clip-rule="evenodd" d="M11.7793 8.46934C11.9198 8.60997 11.9987 8.80059 11.9987 8.99934C11.9987 9.19809 11.9198 9.38871 11.7793 9.52934L9.52934 11.7793C9.38871 11.9198 9.19809 11.9987 8.99934 11.9987C8.80059 11.9987 8.60997 11.9198 8.46934 11.7793L6.21934 9.52934C6.14565 9.46068 6.08655 9.37788 6.04556 9.28588C6.00457 9.19388 5.98253 9.09457 5.98075 8.99386C5.97897 8.89316 5.9975 8.79313 6.03522 8.69974C6.07294 8.60635 6.12908 8.52152 6.2003 8.4503C6.27152 8.37908 6.35635 8.32294 6.44974 8.28522C6.54313 8.2475 6.64316 8.22897 6.74386 8.23075C6.84456 8.23252 6.94388 8.25457 7.03588 8.29556C7.12788 8.33655 7.21068 8.39565 7.27934 8.46934L8.24934 9.43934V3.74934C8.24934 3.55043 8.32836 3.35966 8.46901 3.21901C8.60966 3.07836 8.80043 2.99934 8.99934 2.99934C9.19825 2.99934 9.38902 3.07836 9.52967 3.21901C9.67032 3.35966 9.74934 3.55043 9.74934 3.74934V9.43934L10.7193 8.46934C10.86 8.32889 11.0506 8.25 11.2493 8.25C11.4481 8.25 11.6387 8.32889 11.7793 8.46934ZM0.21934 3.52934C0.0788896 3.38871 0 3.19809 0 2.99934C0 2.80059 0.0788896 2.60997 0.21934 2.46934L2.46934 0.21934C2.60997 0.0788896 2.80059 0 2.99934 0C3.19809 0 3.38871 0.0788896 3.52934 0.21934L5.77934 2.46934C5.91182 2.61151 5.98394 2.79956 5.98052 2.99386C5.97709 3.18816 5.89838 3.37355 5.76096 3.51096C5.62355 3.64838 5.43816 3.72709 5.24386 3.73052C5.04956 3.73394 4.86152 3.66182 4.71934 3.52934L3.74934 2.55934V8.24934C3.74934 8.44825 3.67032 8.63902 3.52967 8.77967C3.38902 8.92032 3.19825 8.99934 2.99934 8.99934C2.80043 8.99934 2.60966 8.92032 2.46901 8.77967C2.32836 8.63902 2.24934 8.44825 2.24934 8.24934V2.55934L1.27934 3.52934C1.13871 3.66979 0.948091 3.74868 0.74934 3.74868C0.550589 3.74868 0.359965 3.66979 0.21934 3.52934Z" fill="#5D6B98"/>
</svg>