<svg xmlns="http://www.w3.org/2000/svg" width="20" height="17" viewBox="0 0 20 17" fill="none">
<path d="M12.2985 3.15091L10.9414 4.50804C11.7661 5.00463 12.4485 5.70591 12.9225 6.54388C13.3964 7.38185 13.6457 8.32806 13.6463 9.29076C13.6463 10.7801 13.0546 12.2085 12.0015 13.2617C10.9483 14.3148 9.51997 14.9065 8.03059 14.9065C6.54121 14.9065 5.11283 14.3148 4.05968 13.2617C3.00653 12.2085 2.41488 10.7801 2.41488 9.29076C2.41488 7.25974 3.50058 5.49079 5.11042 4.49868L3.76265 3.15091C2.76857 3.83677 1.9561 4.75398 1.39523 5.82356C0.834348 6.89315 0.541867 8.08304 0.542972 9.29076C0.542972 11.2766 1.33184 13.1811 2.73604 14.5853C4.14024 15.9895 6.04475 16.7784 8.03059 16.7784C10.0164 16.7784 11.9209 15.9895 13.3251 14.5853C14.7293 13.1811 15.5182 11.2766 15.5182 9.29076C15.5182 6.74497 14.2453 4.49868 12.2985 3.15091ZM8.96654 0.867188H7.09464V10.2267H8.96654" fill="#282823"/>
</svg>