<svg width="22" height="23" viewBox="0 0 22 23" fill="none" xmlns="http://www.w3.org/2000/svg">
<path fill-rule="evenodd" clip-rule="evenodd" d="M4.55229 5.12686C4.31082 5.12686 4.07925 5.22278 3.9085 5.39353C3.74327 5.55876 3.6481 5.78097 3.64214 6.01398C3.85153 9.33162 5.2639 12.4594 7.61501 14.8105C9.96613 17.1616 13.0939 18.574 16.4116 18.7834C16.6446 18.7774 16.8668 18.6823 17.032 18.517C17.2028 18.3463 17.2987 18.1147 17.2987 17.8733V14.8478L14.0386 13.5438L13.0719 15.1551C12.8281 15.5614 12.3134 15.7128 11.8885 15.5032C9.73165 14.4395 7.98604 12.6939 6.92234 10.5371C6.71276 10.1121 6.86416 9.59745 7.27047 9.35366L8.88173 8.3869L7.57771 5.12686H4.55229ZM2.62092 4.10595C3.13315 3.59372 3.82789 3.30595 4.55229 3.30595H8.19412C8.56641 3.30595 8.90119 3.53261 9.03946 3.87827L10.8604 8.43055C11.0263 8.84546 10.8666 9.31948 10.4835 9.5494L8.95936 10.4639C9.70945 11.6872 10.7384 12.7161 11.9617 13.4662L12.8762 11.9421C13.1061 11.5589 13.5801 11.3992 13.995 11.5652L18.5473 13.3861C18.8929 13.5244 19.1196 13.8591 19.1196 14.2314V17.8733C19.1196 18.5977 18.8318 19.2924 18.3196 19.8046C17.8074 20.3169 17.1126 20.6046 16.3882 20.6046C16.3698 20.6046 16.3514 20.6041 16.333 20.6029C12.5596 20.3736 9.00056 18.7712 6.32743 16.0981C3.6543 13.425 2.05191 9.86596 1.8226 6.09254C1.82148 6.07416 1.82092 6.05574 1.82092 6.03732C1.82092 5.31291 2.10869 4.61818 2.62092 4.10595Z" fill="#9691A4"/>
<path fill-rule="evenodd" clip-rule="evenodd" d="M12.7464 6.94777C12.7464 6.44494 13.154 6.03732 13.6569 6.03732C14.3813 6.03732 15.076 6.32509 15.5882 6.83732C16.1005 7.34955 16.3882 8.04428 16.3882 8.76869C16.3882 9.27152 15.9806 9.67915 15.4778 9.67915C14.9749 9.67915 14.5673 9.27152 14.5673 8.76869C14.5673 8.52722 14.4714 8.29564 14.3007 8.1249C14.1299 7.95415 13.8983 7.85823 13.6569 7.85823C13.154 7.85823 12.7464 7.45061 12.7464 6.94777Z" fill="#9691A4"/>
<path fill-rule="evenodd" clip-rule="evenodd" d="M12.7464 3.3059C12.7464 2.80307 13.154 2.39545 13.6569 2.39545C15.3471 2.39545 16.9682 3.06691 18.1634 4.26211C19.3586 5.45732 20.0301 7.07837 20.0301 8.76864C20.0301 9.27148 19.6224 9.6791 19.1196 9.6791C18.6168 9.6791 18.2091 9.27148 18.2091 8.76864C18.2091 7.5613 17.7295 6.40341 16.8758 5.54969C16.0221 4.69597 14.8642 4.21636 13.6569 4.21636C13.154 4.21636 12.7464 3.80873 12.7464 3.3059Z" fill="#9691A4"/>
</svg>
