<svg xmlns="http://www.w3.org/2000/svg" width="24" height="24" viewBox="0 0 24 24" fill="none">
<path d="M9 22H15C20 22 22 20 22 15V9C22 4 20 2 15 2H9C4 2 2 4 2 9V15C2 20 4 22 9 22Z" stroke="#48BB78" stroke-width="1.5" stroke-linecap="round" stroke-linejoin="round"/>
<path d="M2.67188 18.95L7.60187 15.64C8.39187 15.11 9.53187 15.17 10.2419 15.78L10.5719 16.07C11.3519 16.74 12.6119 16.74 13.3919 16.07L17.5519 12.5C18.3319 11.83 19.5919 11.83 20.3719 12.5L22.0019 13.9M9.00187 10C9.53231 10 10.041 9.78929 10.4161 9.41421C10.7912 9.03914 11.0019 8.53043 11.0019 8C11.0019 7.46957 10.7912 6.96086 10.4161 6.58579C10.041 6.21071 9.53231 6 9.00187 6C8.47144 6 7.96273 6.21071 7.58766 6.58579C7.21259 6.96086 7.00187 7.46957 7.00187 8C7.00187 8.53043 7.21259 9.03914 7.58766 9.41421C7.96273 9.78929 8.47144 10 9.00187 10Z" stroke="#48BB78" stroke-width="1.5" stroke-linecap="round" stroke-linejoin="round"/>
</svg>