<svg xmlns="http://www.w3.org/2000/svg" width="19" height="19" viewBox="0 0 19 19" fill="none">
<path fill-rule="evenodd" clip-rule="evenodd" d="M17.4771 1.51167C17.1985 1.23304 16.8678 1.01202 16.5038 0.861223C16.1398 0.710427 15.7496 0.632812 15.3556 0.632812C14.9616 0.632812 14.5715 0.710427 14.2074 0.861223C13.8434 1.01202 13.5127 1.23304 13.2341 1.51167L11.7011 3.04467C11.1426 2.77635 10.5145 2.68814 9.9036 2.79221C9.29275 2.89629 8.7293 3.18753 8.29111 3.62567L7.57811 4.33967C7.39231 4.5254 7.24492 4.74591 7.14436 4.98862C7.0438 5.23132 6.99204 5.49146 6.99204 5.75417C6.99204 6.01688 7.0438 6.27702 7.14436 6.51973C7.24492 6.76243 7.39231 6.98294 7.57811 7.16867L1.09211 13.6537C0.813578 13.9324 0.592678 14.2632 0.442029 14.6273C0.29138 14.9914 0.213933 15.3816 0.214112 15.7757V17.5757C0.214112 17.8939 0.34054 18.1992 0.565584 18.4242C0.790627 18.6492 1.09585 18.7757 1.41411 18.7757H3.21411C4.00949 18.775 4.77204 18.4584 5.33411 17.8957L11.8201 11.4117C12.0058 11.5975 12.2264 11.7449 12.4691 11.8454C12.7118 11.946 12.9719 11.9977 13.2346 11.9977C13.4973 11.9977 13.7575 11.946 14.0002 11.8454C14.2429 11.7449 14.4634 11.5975 14.6491 11.4117L15.3631 10.6967C15.8013 10.2585 16.0925 9.69504 16.1966 9.08418C16.3006 8.47333 16.2124 7.84522 15.9441 7.28667L17.4771 5.75467C17.7557 5.47609 17.9768 5.14535 18.1276 4.78134C18.2784 4.41733 18.356 4.02718 18.356 3.63317C18.356 3.23916 18.2784 2.84901 18.1276 2.485C17.9768 2.12099 17.7557 1.79025 17.4771 1.51167ZM2.50711 15.0687L8.99211 8.58267L10.4061 9.99667L3.92111 16.4827C3.73362 16.6702 3.47931 16.7756 3.21411 16.7757H2.21411V15.7757C2.21417 15.5105 2.31956 15.2562 2.50711 15.0687Z" fill="#5D6B98"/>
</svg>