<svg xmlns="http://www.w3.org/2000/svg" width="21" height="21" viewBox="0 0 21 21" fill="none">
<path fill-rule="evenodd" clip-rule="evenodd" d="M2.60156 5.15039C2.60156 4.48735 2.86495 3.85146 3.3338 3.38262C3.80264 2.91378 4.43852 2.65039 5.10156 2.65039H15.1016C15.7646 2.65039 16.4005 2.91378 16.8693 3.38262C17.3382 3.85146 17.6016 4.48735 17.6016 5.15039V15.1504C17.6016 15.8134 17.3382 16.4493 16.8693 16.9182C16.4005 17.387 15.7646 17.6504 15.1016 17.6504H5.10156C4.43852 17.6504 3.80264 17.387 3.3338 16.9182C2.86495 16.4493 2.60156 15.8134 2.60156 15.1504V5.15039ZM15.7266 12.2841C15.7265 12.1187 15.6609 11.96 15.5441 11.8429L14.2941 10.5929C14.236 10.5347 14.167 10.4885 14.0911 10.457C14.0152 10.4255 13.9338 10.4093 13.8516 10.4093C13.7694 10.4093 13.688 10.4255 13.612 10.457C13.5361 10.4885 13.4671 10.5347 13.4091 10.5929L11.7941 12.2079C11.736 12.2661 11.667 12.3123 11.5911 12.3438C11.5152 12.3753 11.4338 12.3915 11.3516 12.3915C11.2694 12.3915 11.188 12.3753 11.112 12.3438C11.0361 12.3123 10.9671 12.2661 10.9091 12.2079L8.04406 9.34289C7.98601 9.28469 7.91704 9.23851 7.8411 9.207C7.76517 9.17549 7.68377 9.15927 7.60156 9.15927C7.51935 9.15927 7.43795 9.17549 7.36202 9.207C7.28609 9.23851 7.21712 9.28469 7.15906 9.34289L4.65906 11.8429C4.54223 11.96 4.4766 12.1187 4.47656 12.2841V15.1504C4.47656 15.3162 4.54241 15.4751 4.65962 15.5923C4.77683 15.7095 4.9358 15.7754 5.10156 15.7754H15.1016C15.2673 15.7754 15.4263 15.7095 15.5435 15.5923C15.6607 15.4751 15.7266 15.3162 15.7266 15.1504V12.2841ZM15.1016 6.40039C15.1016 6.73191 14.9699 7.04985 14.7354 7.28427C14.501 7.51869 14.1831 7.65039 13.8516 7.65039C13.52 7.65039 13.2021 7.51869 12.9677 7.28427C12.7333 7.04985 12.6016 6.73191 12.6016 6.40039C12.6016 6.06887 12.7333 5.75093 12.9677 5.51651C13.2021 5.28209 13.52 5.15039 13.8516 5.15039C14.1831 5.15039 14.501 5.28209 14.7354 5.51651C14.9699 5.75093 15.1016 6.06887 15.1016 6.40039Z" fill="#5D6B98"/>
</svg>