<svg width="16" height="16" viewBox="0 0 16 16" fill="none" xmlns="http://www.w3.org/2000/svg">
<path fill-rule="evenodd" clip-rule="evenodd" d="M7.99999 5.99993C7.26361 5.99993 6.66665 6.59689 6.66665 7.33326C6.66665 8.06964 7.26361 8.6666 7.99999 8.6666C8.73636 8.6666 9.33332 8.06964 9.33332 7.33326C9.33332 6.59689 8.73636 5.99993 7.99999 5.99993ZM5.33332 7.33326C5.33332 5.86051 6.52723 4.6666 7.99999 4.6666C9.47274 4.6666 10.6667 5.86051 10.6667 7.33326C10.6667 8.80602 9.47274 9.99993 7.99999 9.99993C6.52723 9.99993 5.33332 8.80602 5.33332 7.33326Z" fill="#9691A4"/>
<path fill-rule="evenodd" clip-rule="evenodd" d="M8 2.66677C7.07703 2.66677 6.17479 2.94046 5.40737 3.45323C4.63994 3.966 4.0418 4.69482 3.68859 5.54752C3.33537 6.40023 3.24294 7.33853 3.42299 8.24377C3.60303 9.149 4.04746 9.98053 4.70009 10.6332L7.52917 13.4616C7.65417 13.5865 7.82364 13.6566 8.00034 13.6566C8.17703 13.6566 8.3465 13.5865 8.4715 13.4616L11.2999 10.6332C11.9525 9.98053 12.397 9.149 12.577 8.24377C12.7571 7.33853 12.6646 6.40023 12.3114 5.54752C11.9582 4.69482 11.3601 3.966 10.5926 3.45323C9.82521 2.94046 8.92297 2.66677 8 2.66677ZM12.2428 11.576C13.0818 10.7368 13.6532 9.66774 13.8847 8.50386C14.1162 7.33998 13.9974 6.1336 13.5432 5.03726C13.0891 3.94092 12.3201 3.00387 11.3334 2.3446C10.3467 1.68532 9.18668 1.33344 8 1.33344C6.81333 1.33344 5.6533 1.68532 4.66661 2.3446C3.67993 3.00387 2.91089 3.94092 2.45676 5.03726C2.00262 6.1336 1.88378 7.33998 2.11527 8.50386C2.34675 9.66774 2.91817 10.7368 3.75725 11.576L6.58665 14.4047C6.96167 14.7793 7.47025 14.99 8.00034 14.99C8.53042 14.99 9.03882 14.7795 9.41384 14.4049L12.2428 11.576Z" fill="#9691A4"/>
</svg>
