<svg width="18" height="18" viewBox="0 0 18 18" fill="none" xmlns="http://www.w3.org/2000/svg">
<path fill-rule="evenodd" clip-rule="evenodd" d="M8.99998 6.74993C8.17156 6.74993 7.49998 7.4215 7.49998 8.24993C7.49998 9.07836 8.17156 9.74993 8.99998 9.74993C9.82841 9.74993 10.5 9.07836 10.5 8.24993C10.5 7.4215 9.82841 6.74993 8.99998 6.74993ZM5.99998 8.24993C5.99998 6.59308 7.34313 5.24993 8.99998 5.24993C10.6568 5.24993 12 6.59308 12 8.24993C12 9.90679 10.6568 11.2499 8.99998 11.2499C7.34313 11.2499 5.99998 9.90679 5.99998 8.24993Z" fill="#FF5757"/>
<path fill-rule="evenodd" clip-rule="evenodd" d="M9 3.00012C7.96166 3.00012 6.94664 3.30802 6.08329 3.88489C5.21994 4.46175 4.54703 5.28168 4.14966 6.24097C3.75229 7.20027 3.64831 8.25585 3.85086 9.27425C4.05341 10.2926 4.5534 11.2281 5.2876 11.9623L8.47031 15.1443C8.61095 15.2848 8.8016 15.3637 9.00038 15.3637C9.19916 15.3637 9.38981 15.2848 9.53044 15.1443L12.7124 11.9623C13.4466 11.2281 13.9466 10.2926 14.1491 9.27425C14.3517 8.25585 14.2477 7.20027 13.8503 6.24097C13.453 5.28168 12.7801 4.46175 11.9167 3.88489C11.0534 3.30802 10.0383 3.00012 9 3.00012ZM13.7731 13.023C14.7171 12.0789 15.3599 10.8762 15.6203 9.56685C15.8808 8.25749 15.7471 6.90031 15.2362 5.66693C14.7253 4.43355 13.8601 3.37936 12.7501 2.63768C11.64 1.89599 10.335 1.50012 9 1.50012C7.66499 1.50012 6.35996 1.89599 5.24994 2.63768C4.13992 3.37936 3.27475 4.43355 2.76385 5.66693C2.25295 6.90031 2.11925 8.25749 2.37968 9.56685C2.6401 10.8762 3.28294 12.0789 4.22691 13.023L7.40999 16.2053C7.83188 16.6268 8.40403 16.8637 9.00038 16.8637C9.59672 16.8637 10.1687 16.627 10.5906 16.2055L13.7731 13.023Z" fill="#FF5757"/>
</svg>
