<svg width="16" height="17" viewBox="0 0 16 17" fill="none" xmlns="http://www.w3.org/2000/svg">
<path fill-rule="evenodd" clip-rule="evenodd" d="M7.99999 6.49999C7.26361 6.49999 6.66665 7.09695 6.66665 7.83333C6.66665 8.56971 7.26361 9.16666 7.99999 9.16666C8.73636 9.16666 9.33332 8.56971 9.33332 7.83333C9.33332 7.09695 8.73636 6.49999 7.99999 6.49999ZM5.33332 7.83333C5.33332 6.36057 6.52723 5.16666 7.99999 5.16666C9.47274 5.16666 10.6667 6.36057 10.6667 7.83333C10.6667 9.30609 9.47274 10.5 7.99999 10.5C6.52723 10.5 5.33332 9.30609 5.33332 7.83333Z" fill="#9691A4"/>
<path fill-rule="evenodd" clip-rule="evenodd" d="M8 3.16683C7.07703 3.16683 6.17479 3.44052 5.40737 3.95329C4.63994 4.46606 4.0418 5.19488 3.68859 6.04758C3.33537 6.90029 3.24294 7.83859 3.42299 8.74383C3.60303 9.64907 4.04746 10.4806 4.70009 11.1332L7.52917 13.9617C7.65417 14.0865 7.82364 14.1567 8.00034 14.1567C8.17703 14.1567 8.3465 14.0865 8.4715 13.9617L11.2999 11.1332C11.9525 10.4806 12.397 9.64906 12.577 8.74383C12.7571 7.83859 12.6646 6.90029 12.3114 6.04758C11.9582 5.19488 11.3601 4.46606 10.5926 3.95329C9.82521 3.44052 8.92297 3.16683 8 3.16683ZM12.2428 12.076C13.0818 11.2369 13.6532 10.1678 13.8847 9.00392C14.1162 7.84005 13.9974 6.63366 13.5432 5.53732C13.0891 4.44098 12.3201 3.50393 11.3334 2.84466C10.3467 2.18538 9.18668 1.8335 8 1.8335C6.81333 1.8335 5.6533 2.18538 4.66661 2.84466C3.67993 3.50393 2.91089 4.44098 2.45676 5.53732C2.00262 6.63366 1.88378 7.84005 2.11527 9.00392C2.34675 10.1678 2.91817 11.2369 3.75725 12.076L6.58665 14.9048C6.96167 15.2794 7.47025 15.49 8.00034 15.49C8.53042 15.49 9.03882 15.2796 9.41384 14.9049L12.2428 12.076Z" fill="#9691A4"/>
</svg>
