<svg xmlns="http://www.w3.org/2000/svg" width="24" height="24" viewBox="0 0 24 24" fill="none">
<path d="M8.54732 23.1302C9.66732 23.4685 10.799 23.6668 12.0007 23.6668C15.0948 23.6668 18.0623 22.4377 20.2502 20.2497C22.4382 18.0618 23.6673 15.0944 23.6673 12.0002C23.6673 10.4681 23.3656 8.95099 22.7792 7.53552C22.1929 6.12006 21.3336 4.83393 20.2502 3.75058C19.1669 2.66723 17.8808 1.80787 16.4653 1.22157C15.0498 0.635263 13.5327 0.333496 12.0007 0.333496C10.4686 0.333496 8.95148 0.635263 7.53601 1.22157C6.12055 1.80787 4.83442 2.66723 3.75107 3.75058C1.56315 5.93851 0.333984 8.90597 0.333984 12.0002C0.333984 16.9585 3.44898 21.2168 7.84732 22.8968C7.74232 21.9868 7.63732 20.4818 7.84732 19.4435L9.18898 13.6802C9.18898 13.6802 8.85065 13.0035 8.85065 11.9302C8.85065 10.3202 9.85399 9.1185 10.9973 9.1185C12.0007 9.1185 12.4673 9.8535 12.4673 10.7985C12.4673 11.8018 11.8023 13.2368 11.464 14.6135C11.2657 15.7568 12.0707 16.7602 13.2373 16.7602C15.314 16.7602 16.924 14.5435 16.924 11.4168C16.924 8.61683 14.9173 6.7035 12.0357 6.7035C8.74565 6.7035 6.80899 9.1535 6.80899 11.7318C6.80899 12.7352 7.13565 13.7502 7.67232 14.4152C7.77732 14.4852 7.77732 14.5785 7.74232 14.7535L7.40399 16.0252C7.40399 16.2235 7.27565 16.2935 7.07732 16.1535C5.58398 15.5002 4.72065 13.3768 4.72065 11.6618C4.72065 7.97516 7.33398 4.62683 12.374 4.62683C16.3873 4.62683 19.514 7.5085 19.514 11.3352C19.514 15.3485 17.029 18.5685 13.4707 18.5685C12.339 18.5685 11.2307 17.9618 10.834 17.2502L10.0523 20.0152C9.78399 21.0185 9.04898 22.3602 8.54732 23.1652V23.1302Z" fill="#121416"/>
</svg>