<svg width="28" height="28" viewBox="0 0 28 28" fill="none" xmlns="http://www.w3.org/2000/svg">
<path d="M10.7222 19.7971L20.0455 13.8035L10.7222 7.80987V19.7971ZM14.0519 27.1226C12.2095 27.1226 10.478 26.7727 8.85748 26.073C7.23699 25.3733 5.82739 24.4245 4.62867 23.2267C3.42995 22.028 2.48119 20.6184 1.78238 18.9979C1.08357 17.3774 0.733724 15.6459 0.732836 13.8035C0.732836 11.961 1.08268 10.2295 1.78238 8.60902C2.48208 6.98853 3.43084 5.57893 4.62867 4.38021C5.82739 3.18149 7.23699 2.23273 8.85748 1.53392C10.478 0.835111 12.2095 0.485263 14.0519 0.484375C15.8944 0.484375 17.6259 0.834223 19.2464 1.53392C20.8669 2.23362 22.2765 3.18238 23.4752 4.38021C24.6739 5.57893 25.6231 6.98853 26.3228 8.60902C27.0225 10.2295 27.3719 11.961 27.371 13.8035C27.371 15.6459 27.0212 17.3774 26.3215 18.9979C25.6218 20.6184 24.673 22.028 23.4752 23.2267C22.2765 24.4254 20.8669 25.3746 19.2464 26.0743C17.6259 26.774 15.8944 27.1234 14.0519 27.1226ZM14.0519 24.4587C17.0265 24.4587 19.546 23.4265 21.6105 21.362C23.675 19.2976 24.7072 16.7781 24.7072 13.8035C24.7072 10.8289 23.675 8.30934 21.6105 6.24488C19.546 4.18042 17.0265 3.14819 14.0519 3.14819C11.0773 3.14819 8.5578 4.18042 6.49334 6.24488C4.42888 8.30934 3.39665 10.8289 3.39665 13.8035C3.39665 16.7781 4.42888 19.2976 6.49334 21.362C8.5578 23.4265 11.0773 24.4587 14.0519 24.4587Z" fill="white"/>
</svg>
