<svg xmlns="http://www.w3.org/2000/svg" width="14" height="14" viewBox="0 0 14 14" fill="none">
<path fill-rule="evenodd" clip-rule="evenodd" d="M0.5 2.5C0.5 1.96957 0.710714 1.46086 1.08579 1.08579C1.46086 0.710714 1.96957 0.5 2.5 0.5H4C4.53043 0.5 5.03914 0.710714 5.41421 1.08579C5.78929 1.46086 6 1.96957 6 2.5V11.5C6 12.0304 5.78929 12.5391 5.41421 12.9142C5.03914 13.2893 4.53043 13.5 4 13.5H2.5C1.96957 13.5 1.46086 13.2893 1.08579 12.9142C0.710714 12.5391 0.5 12.0304 0.5 11.5V2.5ZM8 2.5C8 1.96957 8.21071 1.46086 8.58579 1.08579C8.96086 0.710714 9.46957 0.5 10 0.5H11.5C12.0304 0.5 12.5391 0.710714 12.9142 1.08579C13.2893 1.46086 13.5 1.96957 13.5 2.5V11.5C13.5 12.0304 13.2893 12.5391 12.9142 12.9142C12.5391 13.2893 12.0304 13.5 11.5 13.5H10C9.46957 13.5 8.96086 13.2893 8.58579 12.9142C8.21071 12.5391 8 12.0304 8 11.5V2.5Z" fill="#F4F7FE"/>
</svg>