<svg xmlns="http://www.w3.org/2000/svg" width="10" height="11" viewBox="0 0 10 11" fill="none">
<path d="M5 1.44727C7.2055 1.44727 9 3.24177 9 5.44727C9 7.65277 7.2055 9.44727 5 9.44727C2.7945 9.44727 1 7.65277 1 5.44727C1 3.24177 2.7945 1.44727 5 1.44727ZM5 0.447266C2.2385 0.447266 0 2.68577 0 5.44727C0 8.20877 2.2385 10.4473 5 10.4473C7.7615 10.4473 10 8.20877 10 5.44727C10 2.68577 7.7615 0.447266 5 0.447266ZM7.5 4.94727H5.5V2.94727H4.5V4.94727H2.5V5.94727H4.5V7.94727H5.5V5.94727H7.5V4.94727Z" fill="#01B574"/>
</svg>