<svg xmlns="http://www.w3.org/2000/svg" width="21" height="21" viewBox="0 0 21 21" fill="none">
<g clip-path="url(#clip0_5313_23645)">
<path d="M10.4361 2.46191C7.31839 2.46191 4.79688 4.98343 4.79688 8.10109C4.79688 12.3305 10.4361 18.5739 10.4361 18.5739C10.4361 18.5739 16.0752 12.3305 16.0752 8.10109C16.0752 4.98343 13.5537 2.46191 10.4361 2.46191ZM6.40807 8.10109C6.40807 5.87765 8.21261 4.07311 10.4361 4.07311C12.6595 4.07311 14.464 5.87765 14.464 8.10109C14.464 10.4212 12.1439 13.8933 10.4361 16.0604C8.76041 13.9094 6.40807 10.397 6.40807 8.10109Z" fill="#9691A4"/>
<path d="M10.4359 10.1149C11.5482 10.1149 12.4499 9.2132 12.4499 8.10091C12.4499 6.98861 11.5482 6.08691 10.4359 6.08691C9.32357 6.08691 8.42188 6.98861 8.42188 8.10091C8.42188 9.2132 9.32357 10.1149 10.4359 10.1149Z" fill="#9691A4"/>
</g>
<defs>
<clipPath id="clip0_5313_23645">
<rect width="19.3343" height="19.3343" fill="white" transform="translate(0.765625 0.850586)"/>
</clipPath>
</defs>
</svg>