<svg xmlns="http://www.w3.org/2000/svg" width="21" height="21" viewBox="0 0 21 21" fill="none">
<path d="M8.91597 3.83757C9.5655 2.57682 11.3681 2.57682 12.0176 3.83757C12.4079 4.59514 13.2884 4.95985 14.1001 4.70015C15.4509 4.26796 16.7255 5.54258 16.2933 6.89335C16.0336 7.70501 16.3983 8.58551 17.1559 8.97581C18.4166 9.62535 18.4166 11.4279 17.1559 12.0775C16.3983 12.4678 16.0336 13.3483 16.2933 14.1599C16.7255 15.5107 15.4509 16.7853 14.1001 16.3531C13.2884 16.0934 12.4079 16.4581 12.0176 17.2157C11.3681 18.4764 9.5655 18.4764 8.91597 17.2157C8.52567 16.4581 7.64517 16.0934 6.83351 16.3531C5.48273 16.7853 4.20812 15.5107 4.64031 14.1599C4.90001 13.3483 4.53529 12.4678 3.77773 12.0775C2.51698 11.4279 2.51698 9.62535 3.77773 8.97581C4.53529 8.58551 4.90001 7.70501 4.64031 6.89335C4.20812 5.54258 5.48273 4.26796 6.83351 4.70015C7.64517 4.95985 8.52567 4.59514 8.91597 3.83757Z" fill="#00A3FF"/>
<path d="M12.7756 8.25558C12.9408 8.06123 13.1965 8.05206 13.3909 8.21726C13.5852 8.38247 13.5569 8.63873 13.3917 8.83309L10.3562 12.6732C10.1884 12.8706 9.89111 12.8914 9.69747 12.7193L7.61906 10.8718C7.42841 10.7023 7.41124 10.4104 7.58071 10.2197C7.75018 10.0291 8.04211 10.0119 8.23276 10.1814L9.95823 11.7151L12.7756 8.25558Z" fill="white"/>
</svg>