<?xml version="1.0" encoding="UTF-8"?>
<svg version="1.1" xmlns="http://www.w3.org/2000/svg" width="364" height="400">
<path d="M0 0 C1.31740277 3.95220831 0.41651483 5.90456582 -0.703125 9.91015625 C-0.89655991 10.61282623 -1.08999481 11.31549622 -1.28929138 12.03945923 C-1.71238393 13.57331947 -2.13926528 15.10613838 -2.56942749 16.63803101 C-3.74163498 20.81389864 -4.88605741 24.99741423 -6.03515625 29.1796875 C-6.27744461 30.05837997 -6.51973297 30.93707245 -6.7693634 31.84239197 C-9.25430767 40.8730356 -11.62720457 49.93203158 -13.98681641 58.99609375 C-15.14329188 63.43824901 -16.30391968 67.87931809 -17.46484375 72.3203125 C-17.68510223 73.16297668 -17.90536072 74.00564087 -18.1322937 74.87384033 C-21.77481834 88.79699606 -25.49097301 102.69930073 -29.41357422 116.54638672 C-33.47761464 130.89745531 -37.25907284 145.31697217 -41.00488281 159.75390625 C-43.33874219 168.73728763 -45.72474695 177.70135851 -48.22590637 186.63969421 C-50.14410955 193.49505851 -51.9874171 200.36926601 -53.8125 207.25 C-54.32972407 209.19365418 -54.84694909 211.1373081 -55.36422729 213.08094788 C-56.5824055 217.65975427 -57.79815252 222.23920524 -59.01318359 226.81884766 C-62.63274397 240.4598999 -66.28584913 254.08900692 -70.0625 267.6875 C-72.56719496 276.70801876 -74.99084029 285.74319334 -77.3125 294.8125 C-80.33950757 306.61630389 -83.52651245 318.37357359 -86.75 330.125 C-86.98860748 330.99806793 -87.22721497 331.87113586 -87.47305298 332.7706604 C-88.16157951 335.28797514 -88.85365593 337.80428643 -89.546875 340.3203125 C-89.85122719 341.43446281 -89.85122719 341.43446281 -90.16172791 342.57112122 C-91.60755736 347.79370457 -93.2805295 352.8415885 -95 358 C-116.45 358 -137.9 358 -160 358 C-159.3397992 352.05819278 -158.76616307 347.50956363 -157.14453125 341.96484375 C-156.96245117 341.33242767 -156.78037109 340.7000116 -156.59277344 340.0484314 C-156.2052657 338.70383788 -155.81471677 337.36011749 -155.42129517 336.01724243 C-154.37892343 332.45633255 -153.36103008 328.88845807 -152.34375 325.3203125 C-152.14038528 324.60815079 -151.93702057 323.89598907 -151.72749329 323.1622467 C-149.95298663 316.9117678 -148.34935923 310.62557388 -146.8125 304.3125 C-145.04137547 297.05644685 -143.1520991 289.85848427 -141.0625 282.6875 C-138.17209277 272.75553881 -135.57194359 262.75969276 -132.99609375 252.7421875 C-130.84710111 244.3870809 -128.66384288 236.04107762 -126.47155762 227.69723511 C-126.0388758 226.04955405 -125.60680828 224.40171153 -125.17541504 222.75369263 C-122.85786035 213.90069268 -120.47493169 205.07623808 -117.9362793 196.28344727 C-116.38233966 190.83392074 -114.94549039 185.3540932 -113.5 179.875 C-109.90954574 166.33903159 -106.24592915 152.8234434 -102.5625 139.3125 C-102.29356934 138.32481628 -102.02463867 137.33713257 -101.74755859 136.31951904 C-100.9798099 133.50050783 -100.2108347 130.6818344 -99.44140625 127.86328125 C-99.09348778 126.5855912 -99.09348778 126.5855912 -98.73854065 125.28208923 C-98.52390671 124.49717606 -98.30927277 123.71226288 -98.08813477 122.90356445 C-97.80789207 121.87680351 -97.80789207 121.87680351 -97.52198792 120.82929993 C-97.05885745 119.20626517 -96.53373511 117.60120533 -96 116 C-107.21683799 123.09257099 -118.42233896 130.18873939 -129.41796875 137.62109375 C-133.27272832 140.20732707 -137.20002067 142.67785498 -141.11987305 145.16381836 C-145.71012368 148.09026364 -150.25925554 151.07894032 -154.8125 154.0625 C-163.82484603 159.9582467 -172.88441829 165.77444624 -181.9934082 171.51977539 C-183.28637817 172.3375647 -183.28637817 172.3375647 -184.60546875 173.171875 C-185.35981201 173.6472168 -186.11415527 174.12255859 -186.89135742 174.61230469 C-189.04782607 175.9910318 -189.04782607 175.9910318 -191.1496582 177.67675781 C-193 179 -193 179 -195 179 C-194.75765625 178.04222656 -194.5153125 177.08445313 -194.265625 176.09765625 C-192.22628268 168.00395224 -190.24265222 159.90200102 -188.39550781 151.76196289 C-187.72695289 148.86313958 -187.01261234 146.03660153 -186.04296875 143.22265625 C-185.11465293 140.35426467 -184.44207715 137.57244562 -183.80859375 134.62890625 C-183.58494141 133.64212891 -183.36128906 132.65535156 -183.13085938 131.63867188 C-182.67074467 129.59731789 -182.23555165 127.55017744 -181.82617188 125.49804688 C-179.94600235 117.51383669 -176.86627457 114.26557889 -170 110 C-169.10821045 109.40904541 -168.2164209 108.81809082 -167.29760742 108.20922852 C-164.34609792 106.26822807 -161.36539195 104.38048565 -158.375 102.5 C-156.15309226 101.09071614 -153.93175086 99.68053904 -151.7109375 98.26953125 C-151.15098083 97.91433914 -150.59102417 97.55914703 -150.01409912 97.19319153 C-144.31140577 93.57242486 -138.65277773 89.88552547 -133 86.1875 C-131.10159867 84.94655925 -129.20316205 83.70567248 -127.3046875 82.46484375 C-125.95842285 81.58481689 -125.95842285 81.58481689 -124.58496094 80.68701172 C-118.74511681 76.87577986 -112.88599927 73.09428316 -107.02832031 69.31054688 C-102.80991165 66.58493088 -98.59392914 63.85556135 -94.37792969 61.1262207 C-90.81387499 58.81927097 -87.2483146 56.51471517 -83.6796875 54.21484375 C-76.89684114 49.8401267 -70.13720416 45.43868446 -63.4375 40.9375 C-57.80383105 37.15651413 -52.0892269 33.52889457 -46.32299805 29.95410156 C-38.35406382 25.00108482 -30.50823847 19.8601169 -22.65234375 14.73046875 C-18.02238991 11.70974776 -13.38578304 8.69926409 -8.75 5.6875 C-7.05726322 4.58728335 -5.36455216 3.48702713 -3.671875 2.38671875 C-2.44791667 1.59114583 -1.22395833 0.79557292 0 0 Z " fill="#3294FE" transform="translate(319,17)"/>
<path d="M0 0 C1.13136561 3.37510275 0.84926311 5.51966072 -0.07421875 8.9296875 C-0.33009766 9.89132813 -0.58597656 10.85296875 -0.84960938 11.84375 C-1.12611328 12.8440625 -1.40261719 13.844375 -1.6875 14.875 C-1.94466797 15.83664063 -2.20183594 16.79828125 -2.46679688 17.7890625 C-3.88442812 23.05554515 -5.37227619 28.29970313 -6.88671875 33.5390625 C-9.45231671 42.48585738 -11.782174 51.49279569 -14.125 60.5 C-15.0917878 64.2098077 -16.05948004 67.91937912 -17.02734375 71.62890625 C-17.27178726 72.56638199 -17.51623077 73.50385773 -17.76808167 74.46974182 C-19.47626493 81.01413589 -21.20384465 87.55319421 -22.94140625 94.08984375 C-23.40809516 95.8489438 -23.87473035 97.6080581 -24.34130859 99.3671875 C-25.01023621 101.8890717 -25.6803117 104.41061805 -26.35430908 106.93115234 C-26.9725375 109.24361422 -27.58632644 111.55721289 -28.19921875 113.87109375 C-28.38303604 114.55348618 -28.56685333 115.2358786 -28.75624084 115.93894958 C-29.4905967 118.72563198 -30 121.10213076 -30 124 C-30.66 124 -31.32 124 -32 124 C-32.11085937 125.29164063 -32.22171875 126.58328125 -32.3359375 127.9140625 C-32.89763549 132.93411597 -34.15455127 137.55493333 -35.625 142.375 C-38.08205491 150.69008833 -40.34882582 159.03813179 -42.5 167.4375 C-44.95714827 177.02065098 -47.4877344 186.57853935 -50.13476562 196.11108398 C-50.36615234 196.94841064 -50.59753906 197.7857373 -50.8359375 198.6484375 C-51.03751465 199.37208496 -51.2390918 200.09573242 -51.44677734 200.84130859 C-52.05295222 203.20662115 -52.52113309 205.60566545 -53 208 C-97.88 208 -142.76 208 -189 208 C-184.42329472 189.69317888 -184.42329472 189.69317888 -182.1953125 181.65625 C-181.69204431 179.82603506 -181.18887384 177.99579324 -180.68579102 176.16552734 C-180.43048615 175.2390741 -180.17518127 174.31262085 -179.91213989 173.35809326 C-176.34160195 160.39352299 -172.77457245 147.43382714 -169.5625 134.375 C-169.21807861 133.00226929 -169.21807861 133.00226929 -168.86669922 131.60180664 C-167.80356009 127.35200436 -166.80148568 123.10068605 -165.88671875 118.81640625 C-162.96426651 105.81442387 -162.96426651 105.81442387 -157.6875 102 C-155.81005716 100.96588568 -153.91167622 99.96936992 -152 99 C-150.18194979 97.90426046 -148.39191723 96.76970678 -146.60058594 95.63085938 C-144.5698697 94.33995424 -142.52634513 93.07140781 -140.48046875 91.8046875 C-128.8739965 84.5742564 -117.4662143 77.0182462 -106.11157227 69.39990234 C-101.58441543 66.3684304 -96.99820021 63.44125184 -92.3671875 60.5703125 C-89.91196459 58.99379268 -89.91196459 58.99379268 -87.4375 56.9375 C-85.35381264 55.28123569 -83.47981618 54.07605082 -81.125 52.875 C-76.23845215 50.23013582 -71.66421602 47.17004868 -67.06176758 44.0690918 C-62.34361331 40.89139374 -57.59333137 37.77006923 -52.8125 34.6875 C-51.75506592 34.00518311 -51.75506592 34.00518311 -50.67626953 33.30908203 C-49.20855402 32.36205215 -47.74077946 31.41511377 -46.27294922 30.46826172 C-39.76296314 26.26299252 -33.2695833 22.0320395 -26.77392578 17.8046875 C-24.81171849 16.52809568 -22.84911432 15.2521138 -20.88623047 13.9765625 C-17.69422223 11.90221501 -14.50326735 9.82625558 -11.3125 7.75 C-10.30171387 7.09354492 -9.29092773 6.43708984 -8.24951172 5.76074219 C-6.85176514 4.85050293 -6.85176514 4.85050293 -5.42578125 3.921875 C-4.59473877 3.38143555 -3.76369629 2.84099609 -2.9074707 2.28417969 C-1.07547391 1.13936303 -1.07547391 1.13936303 0 0 Z " fill="#062452" transform="translate(195,167)"/>
<path d="M0 0 C1.37562854 1.28965176 2.70766393 2.62689293 4 4 C4 4.66 4 5.32 4 6 C3.01 6.33 2.02 6.66 1 7 C0.67 9.31 0.34 11.62 0 14 C20.13 14 40.26 14 61 14 C61.33 11.69 61.66 9.38 62 7 C62.33 6.34 62.66 5.68 63 5 C63.66 5 64.32 5 65 5 C64.69217504 6.64671412 64.37860766 8.29235576 64.0625 9.9375 C63.88847656 10.85402344 63.71445313 11.77054687 63.53515625 12.71484375 C63 15 63 15 62 16 C59.97505769 16.09409479 57.9468013 16.11743122 55.91967773 16.11352539 C53.96776772 16.11341209 53.96776772 16.11341209 51.97642517 16.11329651 C50.54548098 16.10818909 49.11453718 16.10297308 47.68359375 16.09765625 C46.2277074 16.09579203 44.77182043 16.09436815 43.31593323 16.09336853 C39.47720621 16.08954365 35.63851681 16.07971364 31.79980469 16.06866455 C27.88542184 16.05844978 23.97103294 16.05387077 20.05664062 16.04882812 C12.37107657 16.03809134 4.68554355 16.02101529 -3 16 C-2.85935198 14.58424426 -2.71386511 13.16896882 -2.56640625 11.75390625 C-2.48592041 10.9657251 -2.40543457 10.17754395 -2.32250977 9.36547852 C-1.87818254 6.10651828 -0.9989845 3.13015144 0 0 Z " fill="#2B81DB" transform="translate(162,359)"/>
<path d="M0 0 C1.30658976 3.91976928 0.43683769 5.88414564 -0.65234375 9.85546875 C-0.83132706 10.51710526 -1.01031036 11.17874176 -1.19471741 11.86042786 C-1.76778947 13.9716861 -2.35247206 16.07952695 -2.9375 18.1875 C-3.32824325 19.61893085 -3.71822652 21.05056939 -4.10742188 22.48242188 C-5.06281016 25.99073337 -6.02863638 29.49607365 -7 33 C-9 31 -9 31 -9.25 28.125 C-9.00074995 25.00937437 -8.39260397 23.70329006 -7 21 C-6.61250787 18.67504723 -6.27017161 16.34148732 -6 14 C-6.66 14 -7.32 14 -8 14 C-8.33 14.66 -8.66 15.32 -9 16 C-9 15.34 -9 14.68 -9 14 C-10.65614657 13.61781233 -12.32457024 13.28604898 -14 13 C-14.33 13.33 -14.66 13.66 -15 14 C-16.66617115 14.04063832 -18.33388095 14.042721 -20 14 C-15.91459423 10.60475015 -11.61710831 7.66633542 -7.1875 4.75 C-6.49462891 4.29109375 -5.80175781 3.8321875 -5.08789062 3.359375 C-3.39333113 2.23745975 -1.69685966 1.11843328 0 0 Z " fill="#2D93FA" transform="translate(319,17)"/>
<path d="M0 0 C0.66 0 1.32 0 2 0 C2.53020564 6.71593812 0.72245768 13.41631348 -3 19 C-3.45772063 21.73872955 -3.45772063 21.73872955 -3.625 24.6875 C-3.69976562 25.68136719 -3.77453125 26.67523438 -3.8515625 27.69921875 C-3.90054688 28.45847656 -3.94953125 29.21773437 -4 30 C-4.66 30 -5.32 30 -6 30 C-6 31.65 -6 33.3 -6 35 C-6.66 35 -7.32 35 -8 35 C-7.67 37.64 -7.34 40.28 -7 43 C-7.66 43 -8.32 43 -9 43 C-8.649375 43.7425 -8.29875 44.485 -7.9375 45.25 C-6.9356049 48.18889228 -6.78657983 49.1997996 -8 52 C-8.46921875 52.42796875 -8.9384375 52.8559375 -9.421875 53.296875 C-11.38508266 55.41558426 -12.08716904 57.41618608 -13.0625 60.125 C-14.78249337 64.89124668 -14.78249337 64.89124668 -17 66 C-15.03668031 56.40277202 -12.7521738 46.9547495 -10.1875 37.5 C-9.83696411 36.19782803 -9.48670766 34.89558081 -9.13671875 33.59326172 C-8.09641404 29.7274026 -7.04890319 25.86353533 -6 22 C-5.52747803 20.25831543 -5.52747803 20.25831543 -5.04541016 18.48144531 C-3.37183466 12.31869632 -1.69000174 6.15826391 0 0 Z " fill="#3182D8" transform="translate(221,139)"/>
<path d="M0 0 C0.66 0 1.32 0 2 0 C1.67 2.31 1.34 4.62 1 7 C-43.88 7 -88.76 7 -135 7 C-134.67 5.68 -134.34 4.36 -134 3 C-133.34 3 -132.68 3 -132 3 C-131.67 3.66 -131.34 4.32 -131 5 C-114.34541621 5.02333731 -97.69083771 5.04098328 -81.03624153 5.05181217 C-73.3036151 5.05697336 -65.57099882 5.06401269 -57.83837891 5.07543945 C-51.10038429 5.0853917 -44.36239702 5.09185472 -37.62439525 5.09408849 C-34.05510033 5.09539468 -30.48582643 5.09847474 -26.91653824 5.10573006 C-22.93670501 5.11375463 -18.95689254 5.11399079 -14.97705078 5.11352539 C-13.7873468 5.11712067 -12.59764282 5.12071594 -11.37188721 5.12442017 C-10.29212616 5.1230455 -9.21236511 5.12167084 -8.09988403 5.12025452 C-7.1578116 5.12117631 -6.21573917 5.1220981 -5.24511909 5.12304783 C-2.96306534 5.14719775 -2.96306534 5.14719775 -1 4 C-0.34786708 1.97536745 -0.34786708 1.97536745 0 0 Z " fill="#10233F" transform="translate(141,368)"/>
<path d="M0 0 C0.33 0 0.66 0 1 0 C1.31792663 6.04060603 0.45765217 9.39655304 -2 15 C-2.36385986 17.26805982 -2.56378107 19.51574652 -2.75 21.8046875 C-3 24 -3 24 -4.0625 27.625 C-5.06290393 31.22645415 -5.15179977 34.28090569 -5 38 C-2.28626162 37.02003892 -0.18373822 36.15033127 2.0625 34.3125 C2.701875 33.879375 3.34125 33.44625 4 33 C6.12109375 33.41796875 6.12109375 33.41796875 8 34 C5.23269322 35.81792898 2.46057661 37.62838696 -0.3125 39.4375 C-1.09818359 39.95376953 -1.88386719 40.47003906 -2.69335938 41.00195312 C-3.45068359 41.49501953 -4.20800781 41.98808594 -4.98828125 42.49609375 C-6.03302612 43.17949829 -6.03302612 43.17949829 -7.09887695 43.87670898 C-9 45 -9 45 -12 46 C-11.75765625 45.04222656 -11.5153125 44.08445313 -11.265625 43.09765625 C-9.22628268 35.00395224 -7.24265222 26.90200102 -5.39550781 18.76196289 C-4.47069486 14.75201659 -3.34717898 10.88694263 -2 7 C-1.61482578 5.71133069 -1.23765253 4.4201876 -0.875 3.125 C-0.58625 2.09375 -0.2975 1.0625 0 0 Z " fill="#3182D5" transform="translate(136,150)"/>
<path d="M0 0 C0.66 0.33 1.32 0.66 2 1 C-4.07439825 7.70459519 -4.07439825 7.70459519 -7.9375 8.9375 C-8.9584375 8.9684375 -8.9584375 8.9684375 -10 9 C-10.33 9.99 -10.66 10.98 -11 12 C-12.875 13.0625 -12.875 13.0625 -15 14 C-15.99 14.66 -16.98 15.32 -18 16 C-18.99 16 -19.98 16 -21 16 C-21 16.66 -21 17.32 -21 18 C-22.32267727 19.01405257 -23.65724831 20.01268258 -25 21 C-25.66 21.99 -26.32 22.98 -27 24 C-27 23.34 -27 22.68 -27 22 C-27.99 22 -28.98 22 -30 22 C-30 22.66 -30 23.32 -30 24 C-33 26 -33 26 -37 26 C-37 26.66 -37 27.32 -37 28 C-38.32 28.33 -39.64 28.66 -41 29 C-41 29.66 -41 30.32 -41 31 C-41.99 30.67 -42.98 30.34 -44 30 C-40.0159737 25.61442164 -35.71817238 22.79398809 -30.625 19.8125 C-22.23170291 14.79693046 -14.09284072 9.48319281 -6 4 C-4.00229356 2.66318474 -2.00142359 1.33124994 0 0 Z " fill="#2785E8" transform="translate(297,31)"/>
<path d="M0 0 C0.33 0 0.66 0 1 0 C1.19326999 5.52966915 1.27689095 9.87699535 -1 15 C-1 15.94875 -1 16.8975 -1 17.875 C-1 21.63761375 -1.85692497 24.42789054 -3 28 C-3.66 28 -4.32 28 -5 28 C-4.95875 28.70125 -4.9175 29.4025 -4.875 30.125 C-5.01668332 33.38371628 -5.86734686 35.9559947 -7 39 C-7.66 39 -8.32 39 -9 39 C-9 40.98 -9 42.96 -9 45 C-9.66 45 -10.32 45 -11 45 C-10.33760511 39.8748032 -9.38298374 34.90122947 -8.1875 29.875 C-7.92573975 28.76620483 -7.92573975 28.76620483 -7.65869141 27.63500977 C-6.29093381 21.95765246 -4.65827632 16.39217696 -2.8828125 10.828125 C-1.76526333 7.24801172 -0.85878142 3.64982102 0 0 Z " fill="#3082D7" transform="translate(184,277)"/>
<path d="M0 0 C0.66 0.66 1.32 1.32 2 2 C1.47484484 5.08113187 0.79446786 7.98192379 0 11 C-0.30454102 12.20156738 -0.60908203 13.40313477 -0.92285156 14.64111328 C-1.97439986 18.78571781 -3.04897472 22.92419557 -4.125 27.0625 C-4.50144372 28.51493726 -4.87774693 29.96741094 -5.25390625 31.41992188 C-6.16765146 34.94703595 -7.08329643 38.47365349 -8 42 C-8.66 41.67 -9.32 41.34 -10 41 C-10.19294408 36.17639811 -9.75747614 32.50353262 -8 28 C-7.34 28 -6.68 28 -6 28 C-5.855625 26.700625 -5.71125 25.40125 -5.5625 24.0625 C-5.04166667 19.375 -4.52083333 14.6875 -4 10 C-3.34 10 -2.68 10 -2 10 C-2.04125 9.278125 -2.0825 8.55625 -2.125 7.8125 C-1.99078695 4.79270631 -1.24829381 2.73064271 0 0 Z " fill="#2984E6" transform="translate(249,273)"/>
<path d="M0 0 C1.63465426 2.49589581 2.04623804 3.66491998 1.63208008 6.66625977 C1.34743896 7.66455811 1.06279785 8.66285645 0.76953125 9.69140625 C0.46080078 10.80193359 0.15207031 11.91246094 -0.16601562 13.05664062 C-0.67165039 14.79204102 -0.67165039 14.79204102 -1.1875 16.5625 C-1.50525391 17.69236328 -1.82300781 18.82222656 -2.15039062 19.98632812 C-2.78265226 22.23221455 -3.42043495 24.47655465 -4.06396484 26.71923828 C-5.4188058 31.46789576 -6.71262542 36.23268162 -8 41 C-8.66 40.67 -9.32 40.34 -10 40 C-10 38.02 -10 36.04 -10 34 C-9.34 34 -8.68 34 -8 34 C-8.01160156 33.38511719 -8.02320313 32.77023438 -8.03515625 32.13671875 C-8.04417969 31.32847656 -8.05320312 30.52023438 -8.0625 29.6875 C-8.07410156 28.88699219 -8.08570313 28.08648437 -8.09765625 27.26171875 C-8 25 -8 25 -7 22 C-6.34 22 -5.68 22 -5 22 C-4.96261719 21.19175781 -4.92523438 20.38351563 -4.88671875 19.55078125 C-4.82097656 18.48214844 -4.75523437 17.41351563 -4.6875 16.3125 C-4.62949219 15.25675781 -4.57148438 14.20101562 -4.51171875 13.11328125 C-3.95799168 9.74442264 -2.85768659 7.82523169 -1 5 C-0.29329272 2.30745009 -0.29329272 2.30745009 0 0 Z " fill="#2984E4" transform="translate(277,169)"/>
<path d="M0 0 C1.30658976 3.91976928 0.43683769 5.88414564 -0.65234375 9.85546875 C-0.83132706 10.51710526 -1.01031036 11.17874176 -1.19471741 11.86042786 C-1.76778947 13.9716861 -2.35247206 16.07952695 -2.9375 18.1875 C-3.32824325 19.61893085 -3.71822652 21.05056939 -4.10742188 22.48242188 C-5.06281016 25.99073337 -6.02863638 29.49607365 -7 33 C-9 31 -9 31 -9.375 28.5 C-8.93946744 24.43502946 -7.62135192 21.3474146 -6.0234375 17.61328125 C-4.53292348 13.80735042 -3.77569444 10.0077546 -3 6 C-4.32 5.67 -5.64 5.34 -7 5 C-4.69 3.35 -2.38 1.7 0 0 Z " fill="#3280D8" transform="translate(319,17)"/>
<path d="M0 0 C0.99 0 1.98 0 3 0 C1.97573768 7.54068985 0.05277911 14.81174269 -2 22.125 C-2.26119629 23.0739917 -2.52239258 24.0229834 -2.79150391 25.00073242 C-3.04593262 25.88994385 -3.30036133 26.77915527 -3.5625 27.6953125 C-3.79066406 28.49984863 -4.01882813 29.30438477 -4.25390625 30.13330078 C-5 32 -5 32 -7 33 C-6.33858949 26.59634369 -5.03750046 20.49664472 -3.5 14.25 C-3.27441406 13.31800781 -3.04882812 12.38601562 -2.81640625 11.42578125 C-1.89205817 7.61352909 -0.95395959 3.80494841 0 0 Z " fill="#2C81E1" transform="translate(298,88)"/>
<path d="M0 0 C0.66 0.33 1.32 0.66 2 1 C0.64858801 11.28686736 -2.1078244 21.06504565 -5 31 C-5.66 31 -6.32 31 -7 31 C-7 29.02 -7 27.04 -7 25 C-6.34 25 -5.68 25 -5 25 C-5.020625 23.865625 -5.04125 22.73125 -5.0625 21.5625 C-5 18 -5 18 -4 17 C-4.0309375 15.9171875 -4.0309375 15.9171875 -4.0625 14.8125 C-3.98918787 11.51345397 -3.13560759 9.09137621 -2 6 C-1.62875 4.88625 -1.2575 3.7725 -0.875 2.625 C-0.441875 1.325625 -0.441875 1.325625 0 0 Z " fill="#2C83E3" transform="translate(309,49)"/>
<path d="M0 0 C0.66 0.66 1.32 1.32 2 2 C1.34 2 0.68 2 0 2 C0.350625 2.7425 0.70125 3.485 1.0625 4.25 C2.0643951 7.18889228 2.21342017 8.1997996 1 11 C0.53078125 11.42796875 0.0615625 11.8559375 -0.421875 12.296875 C-2.38508266 14.41558426 -3.08716904 16.41618608 -4.0625 19.125 C-5.78249337 23.89124668 -5.78249337 23.89124668 -8 25 C-7.57305989 22.78960083 -7.13296022 20.58174139 -6.6875 18.375 C-6.32205078 16.53035156 -6.32205078 16.53035156 -5.94921875 14.6484375 C-5.02155857 11.08286298 -3.74489478 8.22991162 -2 5 C-1.31471955 3.34089996 -0.64108137 1.67667436 0 0 Z " fill="#278DF8" transform="translate(212,180)"/>
<path d="M0 0 C0 0.99 0 1.98 0 3 C-0.53625 3.0825 -1.0725 3.165 -1.625 3.25 C-4.82186114 4.2595351 -7.23242511 6.13489518 -10 8 C-10.66 8 -11.32 8 -12 8 C-12.33 8.99 -12.66 9.98 -13 11 C-14.72957799 11.75057158 -16.46281773 12.49529087 -18.22265625 13.171875 C-20.64683659 14.3013832 -22.15959326 16.09386445 -24 18 C-24.99 18 -25.98 18 -27 18 C-27.33 18.66 -27.66 19.32 -28 20 C-29.64363134 20.72159424 -31.31050386 21.39351421 -33 22 C-33 21.34 -33 20.68 -33 20 C-31.33862305 18.69067383 -31.33862305 18.69067383 -29.01171875 17.20703125 C-27.74110596 16.38948364 -27.74110596 16.38948364 -26.44482422 15.55541992 C-25.53490723 14.98025635 -24.62499023 14.40509277 -23.6875 13.8125 C-22.77500488 13.22895752 -21.86250977 12.64541504 -20.92236328 12.04418945 C-19.10841019 10.88503312 -17.29268475 9.72864509 -15.47509766 8.57519531 C-13.40561623 7.25814124 -11.3457853 5.92872654 -9.29296875 4.5859375 C-8.33003906 3.95945313 -7.36710937 3.33296875 -6.375 2.6875 C-5.14910156 1.88892578 -5.14910156 1.88892578 -3.8984375 1.07421875 C-2 0 -2 0 0 0 Z " fill="#0E2345" transform="translate(81,243)"/>
<path d="M0 0 C1.22593201 3.53592259 0.75776142 5.84903969 -0.21484375 9.421875 C-0.48876953 10.44667969 -0.76269531 11.47148437 -1.04492188 12.52734375 C-1.33947266 13.59082031 -1.63402344 14.65429688 -1.9375 15.75 C-2.22818359 16.82894531 -2.51886719 17.90789062 -2.81835938 19.01953125 C-3.53702685 21.68213534 -4.26451873 24.34200049 -5 27 C-5.66 27 -6.32 27 -7 27 C-7.33 27.66 -7.66 28.32 -8 29 C-8 27.02 -8 25.04 -8 23 C-8.66 22.67 -9.32 22.34 -10 22 C-8.68 22 -7.36 22 -6 22 C-5.814375 20.49566406 -5.814375 20.49566406 -5.625 18.9609375 C-5.06976325 15.08014544 -4.09237033 11.39207121 -3 7.625 C-2.649375 6.40039062 -2.29875 5.17578125 -1.9375 3.9140625 C-1 1 -1 1 0 0 Z " fill="#2683E4" transform="translate(258,243)"/>
<path d="M0 0 C0.66 0.66 1.32 1.32 2 2 C-6.31915728 7.35583702 -14.64638135 12.69800938 -23 18 C-23.33 17.01 -23.66 16.02 -24 15 C-22.35 14.67 -20.7 14.34 -19 14 C-19 13.34 -19 12.68 -19 12 C-18.01 12 -17.02 12 -16 12 C-15.90976563 11.38125 -15.81953125 10.7625 -15.7265625 10.125 C-15 8 -15 8 -13.3984375 6.875 C-12.73070312 6.58625 -12.06296875 6.2975 -11.375 6 C-7.43137905 4.20615076 -3.74215586 2.18292425 0 0 Z " fill="#2B84E5" transform="translate(187,153)"/>
<path d="M0 0 C2.47932212 2.47932212 2.8447161 3.50611233 3 7 C2.09301516 8.86080927 1.02623941 10.5571754 -0.08203125 12.3046875 C-1.32365659 14.59773175 -1.1351564 16.43202839 -1 19 C-2 21.8125 -2 21.8125 -3 24 C-3.66 24 -4.32 24 -5 24 C-5 25.98 -5 27.96 -5 30 C-5.66 29.67 -6.32 29.34 -7 29 C-4.7392746 19.31445564 -2.45165321 9.63945469 0 0 Z " fill="#2B82DF" transform="translate(203,205)"/>
<path d="M0 0 C-0.75 1.9375 -0.75 1.9375 -2 4 C-4.125 4.75 -4.125 4.75 -6 5 C-6 5.66 -6 6.32 -6 7 C-7.65 7.33 -9.3 7.66 -11 8 C-10.67 8.99 -10.34 9.98 -10 11 C-12.91765 12.9451 -14.62537285 13.45276317 -18 14 C-18.33 14.99 -18.66 15.98 -19 17 C-19.33 15.68 -19.66 14.36 -20 13 C-3.73076923 0 -3.73076923 0 0 0 Z " fill="#2D86E1" transform="translate(160,121)"/>
<path d="M0 0 C0.66 0 1.32 0 2 0 C2 2.31 2 4.62 2 7 C4.71373838 6.02003892 6.81626178 5.15033127 9.0625 3.3125 C9.701875 2.879375 10.34125 2.44625 11 2 C13.12109375 2.41796875 13.12109375 2.41796875 15 3 C13.11723895 4.37228357 11.2182231 5.72228701 9.3125 7.0625 C8.25675781 7.81660156 7.20101562 8.57070312 6.11328125 9.34765625 C3 11 3 11 -2 10 C-1.34 6.7 -0.68 3.4 0 0 Z " fill="#2B8CF4" transform="translate(129,181)"/>
<path d="M0 0 C0.5887793 0.20359131 1.17755859 0.40718262 1.78417969 0.61694336 C0.79417969 1.11194336 0.79417969 1.11194336 -0.21582031 1.61694336 C-0.21582031 2.60694336 -0.21582031 3.59694336 -0.21582031 4.61694336 C-1.36050781 4.58600586 -1.36050781 4.58600586 -2.52832031 4.55444336 C-5.31767817 4.48751495 -5.31767817 4.48751495 -8.21582031 5.61694336 C-8.54582031 6.60694336 -8.87582031 7.59694336 -9.21582031 8.61694336 C-12.27832031 9.80444336 -12.27832031 9.80444336 -15.21582031 10.61694336 C-15.54582031 9.95694336 -15.87582031 9.29694336 -16.21582031 8.61694336 C-13.97526893 7.08030852 -11.72519759 5.56293632 -9.46582031 4.05444336 C-8.83160156 3.61680664 -8.19738281 3.17916992 -7.54394531 2.72827148 C-2.71083265 -0.46863116 -2.71083265 -0.46863116 0 0 Z " fill="#2D85E6" transform="translate(182.2158203125,107.383056640625)"/>
<path d="M0 0 C0.66 0 1.32 0 2 0 C1.69217504 1.64671412 1.37860766 3.29235576 1.0625 4.9375 C0.88847656 5.85402344 0.71445313 6.77054687 0.53515625 7.71484375 C0 10 0 10 -1 11 C-3.01964199 11.07244053 -5.04167124 11.08377188 -7.0625 11.0625 C-8.16722656 11.05347656 -9.27195313 11.04445313 -10.41015625 11.03515625 C-11.69212891 11.01775391 -11.69212891 11.01775391 -13 11 C-9.91111478 8.94074319 -9.29064073 8.7609626 -5.8125 8.875 C-3.9253125 8.936875 -3.9253125 8.936875 -2 9 C-1.855625 7.88625 -1.71125 6.7725 -1.5625 5.625 C-1 2 -1 2 0 0 Z " fill="#2E81DC" transform="translate(225,364)"/>
<path d="M0 0 C0.66 0.33 1.32 0.66 2 1 C1.54851905 3.251385 1.08855496 5.50106998 0.625 7.75 C0.36976563 9.00296875 0.11453125 10.2559375 -0.1484375 11.546875 C-0.8430125 14.36340848 -1.55680083 16.51518752 -3 19 C-4 18 -4 18 -4.0625 15.4375 C-4.041875 14.633125 -4.02125 13.82875 -4 13 C-3.34 13 -2.68 13 -2 13 C-2.04125 11.96875 -2.0825 10.9375 -2.125 9.875 C-2.00424851 6.13170373 -1.35127982 3.46265453 0 0 Z " fill="#2883E4" transform="translate(233,333)"/>
<path d="M0 0 C1.1875 1.5 1.1875 1.5 2 4 C1.2812554 6.79075051 0.14346714 9.36081281 -1 12 C-1.33 12.99 -1.66 13.98 -2 15 C-1.01 15.33 -0.02 15.66 1 16 C-0.28965176 17.37562854 -1.62689293 18.70766393 -3 20 C-3.66 20 -4.32 20 -5 20 C-3.33333333 13.33333333 -1.66666667 6.66666667 0 0 Z " fill="#357FD4" transform="translate(129,176)"/>
<path d="M0 0 C0.99 0.33 1.98 0.66 3 1 C-1.77723958 4.98103298 -6.88933687 8.46719209 -12 12 C-12.66 11.67 -13.32 11.34 -14 11 C-13.67 10.01 -13.34 9.02 -13 8 C-12.01 8 -11.02 8 -10 8 C-10 7.34 -10 6.68 -10 6 C-9.0925 5.566875 -8.185 5.13375 -7.25 4.6875 C-4.06222169 3.16611886 -4.06222169 3.16611886 -1.8125 1.25 C-1.214375 0.8375 -0.61625 0.425 0 0 Z " fill="#2E7ED6" transform="translate(160,170)"/>
<path d="M0 0 C0.33 0.66 0.66 1.32 1 2 C1.99 2 2.98 2 4 2 C4 3.65 4 5.3 4 7 C3.01 7.33 2.02 7.66 1 8 C1.33 6.35 1.66 4.7 2 3 C-2.95 5.97 -2.95 5.97 -8 9 C-8.33 8.34 -8.66 7.68 -9 7 C-8.34 7 -7.68 7 -7 7 C-7 6.34 -7 5.68 -7 5 C-5.46875 3.7109375 -5.46875 3.7109375 -3.5 2.375 C-2.8503125 1.92898437 -2.200625 1.48296875 -1.53125 1.0234375 C-0.77328125 0.51683594 -0.77328125 0.51683594 0 0 Z " fill="#2C82DF" transform="translate(221,130)"/>
<path d="M0 0 C0.33 0 0.66 0 1 0 C0.855625 1.134375 0.71125 2.26875 0.5625 3.4375 C0.27214153 5.72004021 0.00014593 7.99847299 -0.21875 10.2890625 C-0.67920615 15.07451744 -1.3058732 19.48232854 -3 24 C-3.99 24.33 -4.98 24.66 -6 25 C-5.37768893 22.14522349 -4.75223464 19.29119519 -4.125 16.4375 C-3.95097656 15.63763672 -3.77695313 14.83777344 -3.59765625 14.01367188 C-2.55556397 9.28566059 -1.38268277 4.64008408 0 0 Z " fill="#307FD6" transform="translate(172,322)"/>
<path d="M0 0 C0.99 0 1.98 0 3 0 C1.68 5.94 0.36 11.88 -1 18 C-1.33 18 -1.66 18 -2 18 C-2.2361959 11.59646678 -1.823321 6.15370839 0 0 Z " fill="#2C85E3" transform="translate(237,316)"/>
<path d="M0 0 C2 2 2 2 2.25 4.25 C1.96379343 7.39827227 1.09940961 10.04533667 0 13 C-0.66 13 -1.32 13 -2 13 C-2 14.98 -2 16.96 -2 19 C-2.66 19 -3.32 19 -4 19 C-3.26309887 12.51527007 -1.64681249 6.30760257 0 0 Z " fill="#3280DA" transform="translate(177,303)"/>
<path d="M0 0 C0.66 0.66 1.32 1.32 2 2 C1.828125 4.13671875 1.828125 4.13671875 1.25 6.6875 C1.05148437 7.57566406 0.85296875 8.46382812 0.6484375 9.37890625 C-0.15249295 12.61640221 -1.02894817 15.80940113 -2 19 C-2.99 18.34 -3.98 17.68 -5 17 C-4.58427734 15.78763672 -4.58427734 15.78763672 -4.16015625 14.55078125 C-3.79792969 13.48214844 -3.43570312 12.41351563 -3.0625 11.3125 C-2.52302734 9.72888672 -2.52302734 9.72888672 -1.97265625 8.11328125 C-1.12793482 5.40949417 -0.49106215 2.78613158 0 0 Z " fill="#2981DF" transform="translate(266,210)"/>
<path d="M0 0 C0.66 0 1.32 0 2 0 C1.3808361 2.584859 0.75492318 5.16776172 0.125 7.75 C-0.04902344 8.47960937 -0.22304688 9.20921875 -0.40234375 9.9609375 C-1.27908598 13.53285028 -2.12686823 16.79373841 -4 20 C-3.88602456 17.56152549 -3.75929026 15.12486826 -3.625 12.6875 C-3.5940625 11.99720703 -3.563125 11.30691406 -3.53125 10.59570312 C-3.31875081 6.93009211 -3.08066139 5.12099208 -1 2 C-0.67 1.34 -0.34 0.68 0 0 Z " fill="#3281D8" transform="translate(290,123)"/>
<path d="M0 0 C0.33 0.66 0.66 1.32 1 2 C0.34 2 -0.32 2 -1 2 C-1 2.66 -1 3.32 -1 4 C-1.5775 4.2475 -2.155 4.495 -2.75 4.75 C-5.11753631 5.90818965 -5.11753631 5.90818965 -6.875 8.0625 C-9.52539454 10.4790362 -11.48662462 10.68060224 -15 11 C-12.03352255 7.80750523 -8.95036364 5.5407013 -5.25 3.25 C-4.26515625 2.63640625 -3.2803125 2.0228125 -2.265625 1.390625 C-1.51796875 0.93171875 -0.7703125 0.4728125 0 0 Z " fill="#3386E1" transform="translate(234,72)"/>
<path d="M0 0 C0.66 0.99 1.32 1.98 2 3 C1.175 3.45375 0.35 3.9075 -0.5 4.375 C-1.325 4.91125 -2.15 5.4475 -3 6 C-3 6.66 -3 7.32 -3 8 C-5.5 9.625 -5.5 9.625 -8 11 C-8.99 10.34 -9.98 9.68 -11 9 C-9.35 8.34 -7.7 7.68 -6 7 C-6 6.34 -6 5.68 -6 5 C-5.34 5 -4.68 5 -4 5 C-4 4.01 -4 3.02 -4 2 C-2.68 1.34 -1.36 0.68 0 0 Z " fill="#278EF1" transform="translate(239,69)"/>
<path d="M0 0 C0.33 0 0.66 0 1 0 C0.57045059 6.25107435 -0.01401507 12.04204521 -2 18 C-4 16 -4 16 -4.375 13.5 C-3.85062282 8.60581303 -1.98066788 4.47418726 0 0 Z " fill="#2984E7" transform="translate(314,32)"/>
<path d="M0 0 C0.66 0.33 1.32 0.66 2 1 C-0.38151214 3.63219763 -2.96303641 5.19228358 -6 7 C-7.2684375 8.11375 -7.2684375 8.11375 -8.5625 9.25 C-9.366875 9.8275 -10.17125 10.405 -11 11 C-13.15234375 10.609375 -13.15234375 10.609375 -15 10 C-13.43902526 8.8936781 -11.87614673 7.79004215 -10.3125 6.6875 C-9.44238281 6.07261719 -8.57226562 5.45773438 -7.67578125 4.82421875 C-2.63127561 1.38511783 -2.63127561 1.38511783 0 0 Z " fill="#0B2347" transform="translate(185,174)"/>
<path d="M0 0 C0 0.66 0 1.32 0 2 C-0.66 2 -1.32 2 -2 2 C-2.33 2.66 -2.66 3.32 -3 4 C-3.825 4.474375 -4.65 4.94875 -5.5 5.4375 C-8.29155483 6.81319541 -8.29155483 6.81319541 -9 10 C-9.99 10.33 -10.98 10.66 -12 11 C-12.66 10.67 -13.32 10.34 -14 10 C-12.69467452 6.08402356 -11.02734726 5.46169654 -7.5625 3.3125 C-6.07943359 2.37857422 -6.07943359 2.37857422 -4.56640625 1.42578125 C-2 0 -2 0 0 0 Z " fill="#0C2348" transform="translate(96,233)"/>
<path d="M0 0 C1.57145895 2.44828749 2.06462081 3.58513442 1.609375 6.5078125 C1.32578125 7.37148437 1.0421875 8.23515625 0.75 9.125 C0.47671875 9.99382812 0.2034375 10.86265625 -0.078125 11.7578125 C-1 14 -1 14 -3 16 C-4.09997234 12.60008549 -4.14431397 11.31486683 -2.625 8 C-2.08875 7.01 -1.5525 6.02 -1 5 C-0.30092586 2.26427415 -0.30092586 2.26427415 0 0 Z " fill="#2B80E4" transform="translate(284,143)"/>
<path d="M0 0 C1.67542976 0.28604898 3.34385343 0.61781233 5 1 C4.01 1.66 3.02 2.32 2 3 C0.80767387 5.05003955 0.80767387 5.05003955 0 7 C-1.98 6.34 -3.96 5.68 -6 5 C-5.195625 4.360625 -4.39125 3.72125 -3.5625 3.0625 C-1.7249496 1.59396498 -1.7249496 1.59396498 0 0 Z " fill="#2C8BED" transform="translate(246,64)"/>
<path d="M0 0 C1.37562854 1.28965176 2.70766393 2.62689293 4 4 C4 4.66 4 5.32 4 6 C3.01 6.33 2.02 6.66 1 7 C0.67 9.31 0.34 11.62 0 14 C-0.66 14 -1.32 14 -2 14 C-2.21192221 8.80790596 -1.5912689 4.873261 0 0 Z " fill="#2B84E3" transform="translate(162,359)"/>
<path d="M0 0 C1.09267403 3.32419143 0.88036715 5.60602158 0.125 9 C-0.05804688 9.845625 -0.24109375 10.69125 -0.4296875 11.5625 C-0.9330717 13.71395026 -1.45478839 15.8588053 -2 18 C-2.66 18 -3.32 18 -4 18 C-3.31195504 11.80759538 -1.71951285 5.98044406 0 0 Z " fill="#317FDB" transform="translate(192,248)"/>
<path d="M0 0 C1.1171875 1.515625 1.1171875 1.515625 2 4 C1.49969753 6.70278348 0.91958415 9.1392235 0.125 11.75 C-0.07480469 12.44738281 -0.27460938 13.14476562 -0.48046875 13.86328125 C-0.9741108 15.57927505 -1.48535503 17.2901878 -2 19 C-2.87840996 15.90279155 -2.99435406 14.09354597 -2 11 C-2.66 10.67 -3.32 10.34 -4 10 C-3.525625 9.278125 -3.05125 8.55625 -2.5625 7.8125 C-1.05847097 5.10524774 -0.43400818 3.03805725 0 0 Z " fill="#3183DB" transform="translate(277,169)"/>
<path d="M0 0 C0.66 0 1.32 0 2 0 C2.45496035 5.76283104 0.79099852 10.60568303 -1 16 C-1.33 16 -1.66 16 -2 16 C-2.20674944 10.21101581 -1.59162079 5.57067277 0 0 Z " fill="#2883E3" transform="translate(221,139)"/>
<path d="M0 0 C0.66 0.33 1.32 0.66 2 1 C1.67 4.96 1.34 8.92 1 13 C0.01 12.67 -0.98 12.34 -2 12 C-1.44687265 7.97007218 -0.8441938 3.97977076 0 0 Z " fill="#2B84E0" transform="translate(165,347)"/>
<path d="M0 0 C0.66 0.66 1.32 1.32 2 2 C1.72832465 6.79959781 0.74562195 10.06062938 -2 14 C-3.49341969 11.01316063 -2.40648676 9.04839022 -1.5625 5.875 C-1.27503906 4.77929688 -0.98757812 3.68359375 -0.69140625 2.5546875 C-0.46324219 1.71164063 -0.23507813 0.86859375 0 0 Z " fill="#2D80DE" transform="translate(207,191)"/>
<path d="M0 0 C1.125 1.5 1.125 1.5 2 4 C1.57598348 6.7773082 0.81108065 9.29639783 0 12 C-0.99 12 -1.98 12 -3 12 C-3 9.69 -3 7.38 -3 5 C-2.01 5 -1.02 5 0 5 C0 3.35 0 1.7 0 0 Z " fill="#2687ED" transform="translate(181,293)"/>
<path d="M0 0 C2.5654594 2.5654594 2.54046087 4.47686668 3 8 C2.01 8.33 1.02 8.66 0 9 C-0.33 9.99 -0.66 10.98 -1 12 C-2.36884358 7.48281619 -1.47075246 4.41225737 0 0 Z " fill="#2A82E3" transform="translate(187,266)"/>
<path d="M0 0 C0.66 0 1.32 0 2 0 C1.40380045 4.86896303 0.43023178 9.32790951 -1 14 C-1.33 14 -1.66 14 -2 14 C-2.1799928 8.78020872 -1.97094808 4.92737019 0 0 Z " fill="#2E81DE" transform="translate(261,229)"/>
<path d="M0 0 C-1.32291145 3.96873434 -2.91149738 4.29905037 -6.5625 6.1875 C-7.57441406 6.71730469 -8.58632812 7.24710938 -9.62890625 7.79296875 C-10.41136719 8.19128906 -11.19382813 8.58960938 -12 9 C-12 8.01 -12 7.02 -12 6 C-10.35 5.67 -8.7 5.34 -7 5 C-7 4.34 -7 3.68 -7 3 C-6.01 3 -5.02 3 -4 3 C-4 2.34 -4 1.68 -4 1 C-2 0 -2 0 0 0 Z " fill="#2B7ED7" transform="translate(175,162)"/>
<path d="M0 0 C0 3 0 3 -1.6875 5.0625 C-4.104482 7.08753897 -5.97283605 8.14618453 -9 9 C-9.99 8.67 -10.98 8.34 -12 8 C-8.04 5.36 -4.08 2.72 0 0 Z " fill="#0F2447" transform="translate(137,205)"/>
<path d="M0 0 C-0.5625 1.8125 -0.5625 1.8125 -2 4 C-5.5 5.8125 -5.5 5.8125 -9 7 C-9.66 6.67 -10.32 6.34 -11 6 C-9.54550599 4.9944239 -8.08627557 3.99569565 -6.625 3 C-5.40683594 2.1646875 -5.40683594 2.1646875 -4.1640625 1.3125 C-2 0 -2 0 0 0 Z " fill="#3085E4" transform="translate(216,85)"/>
<path d="M0 0 C0.66 0.99 1.32 1.98 2 3 C-1.79692186 5.82561627 -4.18569279 7.56638908 -9 7 C-6.03716687 4.61327331 -3.05729491 2.2646629 0 0 Z " fill="#2B7EE6" transform="translate(308,24)"/>
<path d="M0 0 C0.33 0 0.66 0 1 0 C0.35812082 5.13503344 -0.68272247 9.9943454 -2 15 C-2.12375 14.360625 -2.2475 13.72125 -2.375 13.0625 C-2.58125 12.381875 -2.7875 11.70125 -3 11 C-3.66 10.67 -4.32 10.34 -5 10 C-4.360625 9.0925 -3.72125 8.185 -3.0625 7.25 C-1.38571047 4.60778619 -0.46310002 3.0101501 0 0 Z " fill="#0D2447" transform="translate(184,208)"/>
<path d="M0 0 C1.25127906 3.54667178 0.72285053 5.72253438 -0.4375 9.25 C-0.72496094 10.14203125 -1.01242188 11.0340625 -1.30859375 11.953125 C-1.53675781 12.62859375 -1.76492187 13.3040625 -2 14 C-2.33 14 -2.66 14 -3 14 C-3.34615998 8.34605369 -2.43425238 4.96993194 0 0 Z " fill="#2683E9" transform="translate(133,165)"/>
<path d="M0 0 C0.66 0.33 1.32 0.66 2 1 C2 2.98 2 4.96 2 7 C1.34 7 0.68 7 0 7 C-0.33 8.65 -0.66 10.3 -1 12 C-2.45606519 7.47907032 -1.27032841 4.48351204 0 0 Z " fill="#2F80DA" transform="translate(195,236)"/>
<path d="M0 0 C0.87398437 0.31904297 0.87398437 0.31904297 1.765625 0.64453125 C0.31113099 1.65010735 -1.14809943 2.6488356 -2.609375 3.64453125 C-3.82753906 4.47984375 -3.82753906 4.47984375 -5.0703125 5.33203125 C-7.234375 6.64453125 -7.234375 6.64453125 -9.234375 6.64453125 C-9.234375 5.98453125 -9.234375 5.32453125 -9.234375 4.64453125 C-7.84375 3.3203125 -7.84375 3.3203125 -5.984375 1.95703125 C-5.38109375 1.49941406 -4.7778125 1.04179687 -4.15625 0.5703125 C-2.234375 -0.35546875 -2.234375 -0.35546875 0 0 Z " fill="#2B81DE" transform="translate(142.234375,183.35546875)"/>
<path d="M0 0 C0.598125 0.226875 1.19625 0.45375 1.8125 0.6875 C1.4825 1.6775 1.1525 2.6675 0.8125 3.6875 C-0.5075 3.6875 -1.8275 3.6875 -3.1875 3.6875 C-3.5175 4.6775 -3.8475 5.6675 -4.1875 6.6875 C-4.875 4.875 -4.875 4.875 -5.1875 2.6875 C-3.58493056 0.24147296 -2.95482043 -0.4221172 0 0 Z " fill="#257FEA" transform="translate(145.1875,131.3125)"/>
<path d="M0 0 C0.66 0.33 1.32 0.66 2 1 C-3.0940919 6.88183807 -3.0940919 6.88183807 -6.875 7.375 C-7.57625 7.25125 -8.2775 7.1275 -9 7 C-6.03716687 4.61327331 -3.05729491 2.2646629 0 0 Z " fill="#3385DD" transform="translate(297,31)"/>
<path d="M0 0 C0.99 0.33 1.98 0.66 3 1 C2.34 4.3 1.68 7.6 1 11 C0.67 11 0.34 11 0 11 C-0.84098656 6.98195309 -1.05404945 3.98196457 0 0 Z " fill="#2B84E0" transform="translate(227,352)"/>
<path d="M0 0 C0.66 0.33 1.32 0.66 2 1 C1.34 3.64 0.68 6.28 0 9 C-2 8 -2 8 -2.8125 5.625 C-3 3 -3 3 -1.5625 1.1875 C-1.046875 0.795625 -0.53125 0.40375 0 0 Z " fill="#0C2148" transform="translate(149,339)"/>
<path d="M0 0 C0.66 0 1.32 0 2 0 C1.34 3.96 0.68 7.92 0 12 C-0.33 12 -0.66 12 -1 12 C-1.33 9.69 -1.66 7.38 -2 5 C-1.34 5 -0.68 5 0 5 C0 3.35 0 1.7 0 0 Z " fill="#3082D9" transform="translate(243,296)"/>
<path d="M0 0 C0.93065133 2.60582371 1.14917407 3.64198224 0.0625 6.25 C-0.4634375 7.11625 -0.4634375 7.11625 -1 8 C-1.66 7.01 -2.32 6.02 -3 5 C-3.66 4.67 -4.32 4.34 -5 4 C-3.35 2.68 -1.7 1.36 0 0 Z " fill="#0F2643" transform="translate(195,167)"/>
<path d="M0 0 C0.66 0 1.32 0 2 0 C1.01 3.96 0.02 7.92 -1 12 C-1.33 12 -1.66 12 -2 12 C-1.85962479 10.18706911 -1.71255111 8.3746557 -1.5625 6.5625 C-1.48128906 5.55316406 -1.40007812 4.54382813 -1.31640625 3.50390625 C-1 1 -1 1 0 0 Z " fill="#0D2042" transform="translate(170,260)"/>
<path d="M0 0 C1.32 0.33 2.64 0.66 4 1 C1.03 3.475 1.03 3.475 -2 6 C-2.66 5.67 -3.32 5.34 -4 5 C-3.67 4.01 -3.34 3.02 -3 2 C-2.01 2 -1.02 2 0 2 C0 1.34 0 0.68 0 0 Z " fill="#2F85E1" transform="translate(150,176)"/>
<path d="M0 0 C1.41687119 4.25061356 0.19320039 6.71851625 -1 11 C-1.33 11 -1.66 11 -2 11 C-2 7.7 -2 4.4 -2 1 C-1.34 0.67 -0.68 0.34 0 0 Z " fill="#3787DF" transform="translate(317,24)"/>
<path d="M0 0 C1.31223496 3.93670488 0.24296256 6.12488144 -1 10 C-1.66 9.67 -2.32 9.34 -3 9 C-3 7.35 -3 5.7 -3 4 C-2.34 4 -1.68 4 -1 4 C-0.67 2.68 -0.34 1.36 0 0 Z " fill="#3482D4" transform="translate(232,342)"/>
<path d="M0 0 C-5.75 4 -5.75 4 -8 4 C-7.1875 2.0625 -7.1875 2.0625 -6 0 C-3 -1 -3 -1 0 0 Z " fill="#2E82DF" transform="translate(204,145)"/>
<path d="M0 0 C0.99 0.33 1.98 0.66 3 1 C2.34 1 1.68 1 1 1 C0.731875 1.61875 0.46375 2.2375 0.1875 2.875 C-1 5 -1 5 -4 7 C-4 4 -4 4 -2 1.8125 C-1.34 1.214375 -0.68 0.61625 0 0 Z " fill="#268DFA" transform="translate(299,31)"/>
<path d="M0 0 C0.99 0 1.98 0 3 0 C2.34 2.97 1.68 5.94 1 9 C0.67 9 0.34 9 0 9 C0 6.03 0 3.06 0 0 Z " fill="#2C7FDC" transform="translate(279,160)"/>
<path d="M0 0 C1.65 0 3.3 0 5 0 C4.67 0.99 4.34 1.98 4 3 C2.35 3.33 0.7 3.66 -1 4 C-0.67 2.68 -0.34 1.36 0 0 Z " fill="#278CF4" transform="translate(217,83)"/>
<path d="" fill="#0E0E1C" transform="translate(0,0)"/>
<path d="" fill="#000000" transform="translate(0,0)"/>
<path d="" fill="#1C1C39" transform="translate(0,0)"/>
</svg>
