<svg xmlns="http://www.w3.org/2000/svg" width="22" height="22" viewBox="0 0 20 20" fill="#FF0000">
<path d="M22.3085 9.63493V14.7649C22.3185 15.1469 22.2215 15.5249 22.0285 15.8549C21.8181 16.1859 21.5205 16.4523 21.1685 16.6249C20.889 16.7642 20.5807 16.8362 20.2685 16.8349H20.0185C19.6527 16.7834 19.3075 16.6349 19.0185 16.4049L16.4885 14.4049V15.3149C16.4885 16.466 16.0312 17.5699 15.2173 18.3838C14.4034 19.1977 13.2995 19.6549 12.1485 19.6549H6.23846C5.08784 19.6523 3.98469 19.1959 3.16846 18.3849C2.76419 17.9827 2.44377 17.5042 2.22577 16.9772C2.00776 16.4502 1.89651 15.8852 1.89846 15.3149V9.14493C1.89735 8.57519 2.00953 8.01092 2.22846 7.48493C2.67049 6.41951 3.51494 5.57147 4.57846 5.12493C5.10455 4.9063 5.66876 4.79413 6.23846 4.79493H12.0285C12.6013 4.79517 13.1686 4.90727 13.6985 5.12493C14.762 5.57147 15.6064 6.41951 16.0485 7.48493C16.2685 8.01393 16.3785 8.58193 16.3685 9.15493V10.0549L18.8985 8.05493C19.1287 7.87403 19.3944 7.74353 19.6782 7.67187C19.9621 7.60022 20.2579 7.58902 20.5464 7.63898C20.8349 7.68895 21.1097 7.79898 21.3529 7.96194C21.5962 8.12489 21.8025 8.33714 21.9585 8.58493C22.1655 8.89793 22.2865 9.25993 22.3085 9.63493Z"/>
</svg>