<svg xmlns="http://www.w3.org/2000/svg" width="21" height="21" viewBox="0 0 21 21" fill="none">
<path d="M10.4106 2.9375C14.8216 2.9375 18.4106 6.5265 18.4106 10.9375C18.4106 15.3485 14.8216 18.9375 10.4106 18.9375C5.99964 18.9375 2.41064 15.3485 2.41064 10.9375C2.41064 6.5265 5.99964 2.9375 10.4106 2.9375ZM10.4106 0.9375C4.88764 0.9375 0.410645 5.4145 0.410645 10.9375C0.410645 16.4605 4.88764 20.9375 10.4106 20.9375C15.9336 20.9375 20.4106 16.4605 20.4106 10.9375C20.4106 5.4145 15.9336 0.9375 10.4106 0.9375ZM15.4106 9.9375H11.4106V5.9375H9.41064V9.9375H5.41064V11.9375H9.41064V15.9375H11.4106V11.9375H15.4106V9.9375Z" fill="#FF5757"/>
</svg>