<svg xmlns="http://www.w3.org/2000/svg" width="10" height="11" viewBox="0 0 10 11" fill="none">
<g clip-path="url(#clip0_6690_20083)">
<path d="M9.6608 5.66523C9.29325 4.7145 8.65517 3.8923 7.82543 3.30026C6.99568 2.70822 6.01064 2.37229 4.99205 2.33398C3.97347 2.37229 2.98843 2.70822 2.15868 3.30026C1.32893 3.8923 0.690855 4.7145 0.323305 5.66523C0.298482 5.73389 0.298482 5.80908 0.323305 5.87773C0.690855 6.82847 1.32893 7.65067 2.15868 8.24271C2.98843 8.83475 3.97347 9.17068 4.99205 9.20898C6.01064 9.17068 6.99568 8.83475 7.82543 8.24271C8.65517 7.65067 9.29325 6.82847 9.6608 5.87773C9.68563 5.80908 9.68563 5.73389 9.6608 5.66523ZM4.99205 8.58398C3.3358 8.58398 1.5858 7.35586 0.95143 5.77148C1.5858 4.18711 3.3358 2.95898 4.99205 2.95898C6.6483 2.95898 8.3983 4.18711 9.03268 5.77148C8.3983 7.35586 6.6483 8.58398 4.99205 8.58398Z" fill="#FF5757"/>
<path d="M4.99219 3.89648C4.62135 3.89648 4.25884 4.00645 3.95049 4.21248C3.64215 4.41851 3.40183 4.71134 3.25991 5.05395C3.118 5.39656 3.08087 5.77356 3.15322 6.13728C3.22556 6.50099 3.40414 6.83509 3.66636 7.09731C3.92859 7.35953 4.26268 7.53811 4.62639 7.61046C4.99011 7.6828 5.36711 7.64567 5.70972 7.50376C6.05233 7.36184 6.34517 7.12152 6.55119 6.81318C6.75722 6.50484 6.86719 6.14232 6.86719 5.77148C6.86719 5.2742 6.66964 4.79729 6.31801 4.44566C5.96638 4.09403 5.48947 3.89648 4.99219 3.89648ZM4.99219 7.02148C4.74496 7.02148 4.50329 6.94817 4.29773 6.81082C4.09216 6.67347 3.93195 6.47825 3.83734 6.24984C3.74273 6.02143 3.71798 5.7701 3.76621 5.52762C3.81444 5.28515 3.93349 5.06242 4.1083 4.8876C4.28312 4.71279 4.50585 4.59373 4.74833 4.5455C4.9908 4.49727 5.24213 4.52203 5.47054 4.61663C5.69895 4.71124 5.89417 4.87146 6.03153 5.07702C6.16888 5.28258 6.24219 5.52426 6.24219 5.77148C6.24219 6.103 6.11049 6.42095 5.87607 6.65537C5.64165 6.88979 5.32371 7.02148 4.99219 7.02148Z" fill="#FF5757"/>
</g>
<defs>
<clipPath id="clip0_6690_20083">
<rect width="10" height="10" fill="white" transform="translate(-0.0078125 0.771484)"/>
</clipPath>
</defs>
</svg>