<svg width="23" height="16" viewBox="0 0 23 16" fill="none" xmlns="http://www.w3.org/2000/svg">
<path d="M11.2332 5.10938C12.0289 5.10938 12.7919 5.42545 13.3545 5.98805C13.9171 6.55066 14.2332 7.31373 14.2332 8.10938C14.2332 8.90502 13.9171 9.66809 13.3545 10.2307C12.7919 10.7933 12.0289 11.1094 11.2332 11.1094C10.4376 11.1094 9.6745 10.7933 9.11189 10.2307C8.54929 9.66809 8.23322 8.90502 8.23322 8.10938C8.23322 7.31373 8.54929 6.55066 9.11189 5.98805C9.6745 5.42545 10.4376 5.10938 11.2332 5.10938ZM11.2332 0.609375C16.2332 0.609375 20.5032 3.71938 22.2332 8.10938C20.5032 12.4994 16.2332 15.6094 11.2332 15.6094C6.23322 15.6094 1.96322 12.4994 0.233215 8.10938C1.96322 3.71938 6.23322 0.609375 11.2332 0.609375ZM2.41322 8.10938C3.22147 9.75968 4.47652 11.1501 6.03569 12.1226C7.59487 13.0951 9.39561 13.6107 11.2332 13.6107C13.0708 13.6107 14.8716 13.0951 16.4307 12.1226C17.9899 11.1501 19.245 9.75968 20.0532 8.10938C19.245 6.45907 17.9899 5.06863 16.4307 4.09612C14.8716 3.12361 13.0708 2.60806 11.2332 2.60806C9.39561 2.60806 7.59487 3.12361 6.03569 4.09612C4.47652 5.06863 3.22147 6.45907 2.41322 8.10938Z" fill="#FF5757"/>
</svg>
