<svg xmlns="http://www.w3.org/2000/svg" width="14" height="17" viewBox="0 0 14 17" fill="none">
<path fill-rule="evenodd" clip-rule="evenodd" d="M6.99998 6.07244C6.17156 6.07244 5.49998 6.74401 5.49998 7.57244C5.49998 8.40087 6.17156 9.07244 6.99998 9.07244C7.82841 9.07244 8.49998 8.40087 8.49998 7.57244C8.49998 6.74401 7.82841 6.07244 6.99998 6.07244ZM3.99998 7.57244C3.99998 5.91559 5.34313 4.57244 6.99998 4.57244C8.65684 4.57244 9.99998 5.91559 9.99998 7.57244C9.99998 9.22929 8.65684 10.5724 6.99998 10.5724C5.34313 10.5724 3.99998 9.22929 3.99998 7.57244Z" fill="#FF5757"/>
<path fill-rule="evenodd" clip-rule="evenodd" d="M7 2.32263C5.96166 2.32263 4.94664 2.63053 4.08329 3.2074C3.21994 3.78426 2.54703 4.60419 2.14966 5.56348C1.75229 6.52278 1.64831 7.57836 1.85086 8.59676C2.05341 9.61515 2.5534 10.5506 3.2876 11.2848L6.47031 14.4668C6.61095 14.6073 6.8016 14.6862 7.00038 14.6862C7.19916 14.6862 7.38981 14.6073 7.53044 14.4668L10.7124 11.2848C11.4466 10.5506 11.9466 9.61514 12.1491 8.59676C12.3517 7.57836 12.2477 6.52278 11.8503 5.56348C11.453 4.60419 10.7801 3.78426 9.91672 3.2074C9.05337 2.63053 8.03834 2.32263 7 2.32263ZM11.7731 12.3455C12.7171 11.4015 13.3599 10.1987 13.6203 8.88936C13.8808 7.58 13.7471 6.22282 13.2362 4.98944C12.7253 3.75606 11.8601 2.70187 10.7501 1.96019C9.64004 1.2185 8.33501 0.822632 7 0.822632C5.66499 0.822632 4.35996 1.2185 3.24994 1.96019C2.13992 2.70187 1.27475 3.75606 0.763849 4.98944C0.252948 6.22282 0.119255 7.58 0.379677 8.88936C0.640099 10.1987 1.28294 11.4015 2.22691 12.3455L5.40999 15.5278C5.83188 15.9493 6.40403 16.1862 7.00038 16.1862C7.59672 16.1862 8.16867 15.9495 8.59056 15.528L11.7731 12.3455Z" fill="#FF5757"/>
</svg>