<svg xmlns="http://www.w3.org/2000/svg" width="16" height="16" viewBox="0 0 16 16" fill="none">
<path d="M8 2.32251C11.3082 2.32251 14 5.01426 14 8.32251C14 11.6308 11.3082 14.3225 8 14.3225C4.69175 14.3225 2 11.6308 2 8.32251C2 5.01426 4.69175 2.32251 8 2.32251ZM8 0.82251C3.85775 0.82251 0.5 4.18026 0.5 8.32251C0.5 12.4648 3.85775 15.8225 8 15.8225C12.1423 15.8225 15.5 12.4648 15.5 8.32251C15.5 4.18026 12.1423 0.82251 8 0.82251ZM11.75 7.57251H8.75V4.57251H7.25V7.57251H4.25V9.07251H7.25V12.0725H8.75V9.07251H11.75V7.57251Z" fill="#FF5757"/>
</svg>