<svg xmlns="http://www.w3.org/2000/svg" width="20" height="20" viewBox="0 0 13 14" fill="none">
<path fill-rule="evenodd" clip-rule="evenodd" d="M0.331787 3.54712C0.331787 3.17215 0.635764 2.86817 1.01074 2.86817H11.874C12.2489 2.86817 12.5529 3.17215 12.5529 3.54712C12.5529 3.9221 12.2489 4.22608 11.874 4.22608H1.01074C0.635764 4.22608 0.331787 3.9221 0.331787 3.54712Z" fill="#FF5757"/>
<path fill-rule="evenodd" clip-rule="evenodd" d="M5.08445 5.58393C5.45942 5.58393 5.7634 5.8879 5.7634 6.26288V10.3366C5.7634 10.7116 5.45942 11.0155 5.08445 11.0155C4.70947 11.0155 4.40549 10.7116 4.40549 10.3366V6.26288C4.40549 5.8879 4.70947 5.58393 5.08445 5.58393Z" fill="#FF5757"/>
<path fill-rule="evenodd" clip-rule="evenodd" d="M7.80027 5.58393C8.17525 5.58393 8.47923 5.8879 8.47923 6.26288V10.3366C8.47923 10.7116 8.17525 11.0155 7.80027 11.0155C7.4253 11.0155 7.12132 10.7116 7.12132 10.3366V6.26288C7.12132 5.8879 7.4253 5.58393 7.80027 5.58393Z" fill="#FF5757"/>
<path fill-rule="evenodd" clip-rule="evenodd" d="M1.63333 2.87052C2.00701 2.83938 2.33518 3.11706 2.36632 3.49074L3.04527 11.6382C3.04683 11.6569 3.04762 11.6757 3.04762 11.6945C3.04762 11.8746 3.11915 12.0473 3.24648 12.1746C3.3738 12.302 3.5465 12.3735 3.72657 12.3735H9.15818C9.33825 12.3735 9.51094 12.302 9.63827 12.1746C9.7656 12.0473 9.83713 11.8746 9.83713 11.6945C9.83713 11.6757 9.83791 11.6569 9.83947 11.6382L10.5184 3.49074C10.5496 3.11706 10.8777 2.83938 11.2514 2.87052C11.6251 2.90166 11.9028 3.22983 11.8716 3.60351L11.1948 11.7256C11.1867 12.2546 10.9731 12.7602 10.5985 13.1348C10.2165 13.5168 9.69839 13.7314 9.15818 13.7314H3.72657C3.18636 13.7314 2.66828 13.5168 2.28629 13.1348C1.91164 12.7602 1.69801 12.2546 1.68995 11.7256L1.01311 3.60351C0.981968 3.22983 1.25965 2.90166 1.63333 2.87052Z" fill="#FF5757"/>
<path fill-rule="evenodd" clip-rule="evenodd" d="M4.12428 0.550064C4.37893 0.295408 4.72432 0.152344 5.08446 0.152344H7.80026C8.1604 0.152344 8.50579 0.295408 8.76044 0.550064C9.0151 0.80472 9.15816 1.15011 9.15816 1.51025V3.5471C9.15816 3.92207 8.85419 4.22605 8.47921 4.22605C8.10424 4.22605 7.80026 3.92207 7.80026 3.5471V1.51025H5.08446L5.08446 3.5471C5.08446 3.92207 4.78048 4.22605 4.40551 4.22605C4.03053 4.22605 3.72656 3.92207 3.72656 3.5471V1.51025C3.72656 1.15011 3.86962 0.80472 4.12428 0.550064Z" fill="#FF5757"/>
</svg>