<svg xmlns="http://www.w3.org/2000/svg" width="16" height="17" viewBox="0 0 16 17" fill="none">
<path d="M11.6134 0.677734C11.8275 0.677763 12.0341 0.756366 12.1941 0.898635C12.3541 1.0409 12.4563 1.23694 12.4814 1.44957L12.4875 1.55184V2.42595H14.2357C14.6768 2.42581 15.1016 2.59238 15.425 2.89228C15.7484 3.19218 15.9465 3.60323 15.9795 4.04304L15.9839 4.17416V14.6634C15.9841 15.1045 15.8175 15.5293 15.5176 15.8527C15.2177 16.1761 14.8066 16.3742 14.3668 16.4073L14.2357 16.4117H1.99821C1.55716 16.4118 1.13235 16.2452 0.808949 15.9453C0.485546 15.6454 0.28745 15.2344 0.254371 14.7946L0.25 14.6634V4.17416C0.249861 3.73311 0.416436 3.3083 0.716333 2.9849C1.01623 2.66149 1.42729 2.4634 1.8671 2.43032L1.99821 2.42595H3.74643V1.55184C3.74667 1.32905 3.83198 1.11476 3.98493 0.952756C4.13787 0.790753 4.3469 0.693263 4.56931 0.680206C4.79172 0.66715 5.01072 0.739511 5.18156 0.882507C5.35241 1.0255 5.46221 1.22834 5.48852 1.44957L5.49464 1.55184V2.42595H10.7393V1.55184C10.7393 1.32001 10.8314 1.09768 10.9953 0.933754C11.1592 0.769827 11.3816 0.677734 11.6134 0.677734ZM14.2357 8.54469H1.99821V14.6634H14.2357V8.54469ZM14.2357 4.17416H1.99821V6.79648H14.2357V4.17416Z" fill="#FF5757"/>
</svg>