<svg xmlns="http://www.w3.org/2000/svg" width="13" height="13" viewBox="0 0 13 13" fill="none">
<path d="M10.7292 0.279116L0.827998 5.98894C0.00924873 6.46258 0.0877916 7.67404 0.963663 8.03344L3.6841 9.15922V11.168C3.6841 12.2724 5.09311 12.727 5.74526 11.8487L6.78773 10.4421L9.45105 11.5417C9.59147 11.5988 9.73904 11.6274 9.8866 11.6274C10.0818 11.6274 10.2746 11.5774 10.4483 11.4798C10.753 11.3084 10.9624 11.0038 11.0171 10.6587L12.4309 1.44298C12.5761 0.488564 11.5527 -0.194521 10.7292 0.279116V0.279116ZM4.82654 11.168V9.63048L5.69765 9.98987L4.82654 11.168ZM9.8866 10.4849L6.22603 8.97357L9.56291 4.15866C9.81758 3.78974 9.3368 3.36133 8.99883 3.65408L3.96495 8.04058L1.39922 6.97906L11.3004 1.26685L9.8866 10.4849Z" fill="#3C3C3C"/>
</svg>