<svg width="32" height="32" viewBox="0 0 32 32" fill="none" xmlns="http://www.w3.org/2000/svg">
<rect width="32" height="32" rx="16" fill="#008CE4" fill-opacity="0.1"/>
<path d="M12.0827 9.16016C11.5739 9.29642 11.1099 9.56425 10.7375 9.9367C10.365 10.3092 10.0972 10.7731 9.96094 11.2819M21.1352 9.16016C21.644 9.29642 22.1079 9.56425 22.4804 9.9367C22.8528 10.3092 23.1207 10.7731 23.2569 11.2819" stroke="#008CE4" stroke-width="1.5" stroke-linecap="round"/>
<path fill-rule="evenodd" clip-rule="evenodd" d="M16.6094 21.8086C18.2007 21.8086 19.7268 21.1765 20.852 20.0512C21.9772 18.926 22.6094 17.3999 22.6094 15.8086C22.6094 14.2173 21.9772 12.6912 20.852 11.566C19.7268 10.4407 18.2007 9.80859 16.6094 9.80859C15.0181 9.80859 13.492 10.4407 12.3667 11.566C11.2415 12.6912 10.6094 14.2173 10.6094 15.8086C10.6094 17.3999 11.2415 18.926 12.3667 20.0512C13.492 21.1765 15.0181 21.8086 16.6094 21.8086ZM17.3594 12.8086C17.3594 12.6097 17.2804 12.4189 17.1397 12.2783C16.9991 12.1376 16.8083 12.0586 16.6094 12.0586C16.4105 12.0586 16.2197 12.1376 16.079 12.2783C15.9384 12.4189 15.8594 12.6097 15.8594 12.8086V15.6211C15.8594 16.1386 16.2794 16.5586 16.7969 16.5586H18.8594C19.0583 16.5586 19.2491 16.4796 19.3897 16.3389C19.5304 16.1983 19.6094 16.0075 19.6094 15.8086C19.6094 15.6097 19.5304 15.4189 19.3897 15.2783C19.2491 15.1376 19.0583 15.0586 18.8594 15.0586H17.3594V12.8086Z" fill="#008CE4"/>
</svg>
