<svg xmlns="http://www.w3.org/2000/svg" width="20" height="13" viewBox="0 0 20 13" fill="none">
<path fill-rule="evenodd" clip-rule="evenodd" d="M0.666748 6.50005C0.666748 5.86384 1.1825 5.34809 1.81871 5.34809H17.9462C18.5824 5.34809 19.0981 5.86384 19.0981 6.50005C19.0981 7.13626 18.5824 7.65201 17.9462 7.65201H1.81871C1.1825 7.65201 0.666748 7.13626 0.666748 6.50005Z" fill="#666276"/>
<path fill-rule="evenodd" clip-rule="evenodd" d="M18.7607 5.68549C19.2106 6.13536 19.2106 6.86474 18.7607 7.31461L14.1529 11.9225C13.703 12.3723 12.9736 12.3723 12.5237 11.9225C12.0739 11.4726 12.0739 10.7432 12.5237 10.2933L17.1316 5.68549C17.5814 5.23562 18.3108 5.23562 18.7607 5.68549Z" fill="#666276"/>
<path fill-rule="evenodd" clip-rule="evenodd" d="M12.5237 1.07764C12.9736 0.627767 13.703 0.627767 14.1529 1.07764L18.7607 5.68549C19.2106 6.13536 19.2106 6.86474 18.7607 7.31461C18.3108 7.76448 17.5814 7.76447 17.1316 7.3146L12.5237 2.70675C12.0739 2.25689 12.0739 1.5275 12.5237 1.07764Z" fill="#666276"/>
</svg>