<svg xmlns="http://www.w3.org/2000/svg" width="18" height="18" viewBox="0 0 18 18" fill="none">
<g clip-path="url(#clip0_349_10752)">
<path d="M13.5 1.85625C12.2063 1.04062 10.6594 0.5625 9 0.5625C7.34063 0.5625 5.79375 1.04062 4.5 1.85625V16.1156C5.79375 16.9312 7.34063 17.4094 9 17.4094C10.6594 17.4094 12.2063 16.9312 13.5 16.1156V1.85625Z" fill="#F9F9F9"/>
<path d="M13.5 1.8562V16.1156C15.8625 14.6531 17.4375 11.9531 17.4375 8.97183C17.4375 5.99058 15.8625 3.34683 13.5 1.8562ZM4.5 1.8562C2.1375 3.34683 0.5625 6.04683 0.5625 8.99995C0.5625 11.9531 2.1375 14.6531 4.5 16.1437V1.8562ZM12.0656 8.88745C11.9531 8.8312 11.925 8.7187 11.9531 8.66245L12.2344 7.64995L11.25 7.84683C11.2219 7.84683 11.1094 7.84683 11.0813 7.64995L10.9969 7.31245L10.3219 8.09995C10.3219 8.09995 9.87187 8.57808 10.0125 7.84683L10.2937 6.29995L9.75938 6.5812C9.73125 6.5812 9.61875 6.60933 9.47813 6.32808L9 5.3437L8.49375 6.27183C8.35313 6.55308 8.24063 6.52495 8.2125 6.52495L7.67812 6.2437L7.95937 7.79058C8.1 8.52183 7.65 8.0437 7.65 8.0437L6.975 7.2562L6.89062 7.5937C6.83437 7.79058 6.75 7.79058 6.72187 7.79058L5.7375 7.5937L6.01875 8.6062C6.01875 8.69058 6.01875 8.77495 5.90625 8.8312L5.625 8.99995C5.625 8.99995 6.75 9.89995 7.11562 10.2093C7.2 10.2656 7.36875 10.4343 7.3125 10.6312L7.17188 11.025L8.71875 10.8C8.80313 10.8 8.97188 10.8 8.94375 11.0531L8.85938 12.6562H9.14062L9.05625 11.0531C9.05625 10.8 9.225 10.8 9.28125 10.8L10.8281 11.025L10.6875 10.6312C10.6313 10.4343 10.8 10.2656 10.8844 10.2093C11.25 9.89995 12.375 8.99995 12.375 8.99995L12.0656 8.88745Z" fill="#ED4C5C"/>
</g>
<defs>
<clipPath id="clip0_349_10752">
<rect width="18" height="18" fill="white"/>
</clipPath>
</defs>
</svg>