<svg xmlns="http://www.w3.org/2000/svg" width="60" height="70" viewBox="0 0 44 50" fill="none" >
<g filter="url(#filter0_dd_1107_3524)">
<rect x="12" y="8" width="26" height="26" rx="13" fill="white"/>
</g>
<path fill-rule="evenodd" clip-rule="evenodd" d="M20.2626 18.0126C20.5908 17.6844 21.0359 17.5 21.5 17.5H23.25C23.5722 17.5 23.8333 17.7612 23.8333 18.0834C23.8333 18.4055 23.5722 18.6667 23.25 18.6667H21.5C21.3453 18.6667 21.1969 18.7282 21.0875 18.8376C20.9781 18.947 20.9167 19.0953 20.9167 19.25V24.5C20.9167 24.6548 20.9781 24.8031 21.0875 24.9125C21.1969 25.0219 21.3453 25.0834 21.5 25.0834H26.75C26.9047 25.0834 27.0531 25.0219 27.1625 24.9125C27.2719 24.8031 27.3333 24.6548 27.3333 24.5V22.75C27.3333 22.4279 27.5945 22.1667 27.9167 22.1667C28.2388 22.1667 28.5 22.4279 28.5 22.75V24.5C28.5 24.9642 28.3156 25.4093 27.9874 25.7375C27.6592 26.0657 27.2141 26.25 26.75 26.25H21.5C21.0359 26.25 20.5908 26.0657 20.2626 25.7375C19.9344 25.4093 19.75 24.9642 19.75 24.5V19.25C19.75 18.7859 19.9344 18.3408 20.2626 18.0126Z" fill="#909090"/>
<path fill-rule="evenodd" clip-rule="evenodd" d="M27.7959 15.6292C28.1373 15.2878 28.6004 15.0959 29.0833 15.0959C29.5662 15.0959 30.0294 15.2878 30.3708 15.6292C30.7123 15.9707 30.9041 16.4338 30.9041 16.9167C30.9041 17.3996 30.7123 17.8627 30.3708 18.2042L25.4125 23.1625C25.3031 23.2719 25.1547 23.3334 25 23.3334H23.25C22.9278 23.3334 22.6667 23.0722 22.6667 22.7501V21.0001C22.6667 20.8453 22.7281 20.697 22.8375 20.5876L27.7959 15.6292ZM29.0833 16.2626C28.9099 16.2626 28.7435 16.3315 28.6208 16.4542L23.8333 21.2417V22.1667H24.7584L29.5459 17.3792C29.6685 17.2566 29.7374 17.0902 29.7374 16.9167C29.7374 16.7432 29.6685 16.5769 29.5459 16.4542C29.4232 16.3315 29.2568 16.2626 29.0833 16.2626Z" fill="#909090"/>
<path fill-rule="evenodd" clip-rule="evenodd" d="M26.9209 16.5043C27.1487 16.2764 27.518 16.2764 27.7458 16.5043L29.4958 18.2543C29.7236 18.4821 29.7236 18.8514 29.4958 19.0792C29.268 19.307 28.8987 19.307 28.6709 19.0792L26.9209 17.3292C26.6931 17.1014 26.6931 16.7321 26.9209 16.5043Z" fill="#909090"/>
<defs>
<filter id="filter0_dd_1107_3524" x="0" y="0" width="50" height="50" filterUnits="userSpaceOnUse" color-interpolation-filters="sRGB">
<feFlood flood-opacity="0" result="BackgroundImageFix"/>
<feColorMatrix in="SourceAlpha" type="matrix" values="0 0 0 0 0 0 0 0 0 0 0 0 0 0 0 0 0 0 127 0" result="hardAlpha"/>
<feOffset dy="4"/>
<feGaussianBlur stdDeviation="6"/>
<feColorMatrix type="matrix" values="0 0 0 0 0.121569 0 0 0 0 0.105882 0 0 0 0 0.176471 0 0 0 0.08 0"/>
<feBlend mode="normal" in2="BackgroundImageFix" result="effect1_dropShadow_1107_3524"/>
<feColorMatrix in="SourceAlpha" type="matrix" values="0 0 0 0 0 0 0 0 0 0 0 0 0 0 0 0 0 0 127 0" result="hardAlpha"/>
<feMorphology radius="2" operator="erode" in="SourceAlpha" result="effect2_dropShadow_1107_3524"/>
<feOffset dy="2"/>
<feGaussianBlur stdDeviation="1"/>
<feColorMatrix type="matrix" values="0 0 0 0 0.121569 0 0 0 0 0.105882 0 0 0 0 0.176471 0 0 0 0.08 0"/>
<feBlend mode="normal" in2="effect1_dropShadow_1107_3524" result="effect2_dropShadow_1107_3524"/>
<feBlend mode="normal" in="SourceGraphic" in2="effect2_dropShadow_1107_3524" result="shape"/>
</filter>
</defs>
</svg>