<svg xmlns="http://www.w3.org/2000/svg" width="18" height="18" viewBox="0 0 18 18" fill="none">
<g clip-path="url(#clip0_349_10779)">
<path d="M8.97183 0.5625C5.28745 0.5625 2.16558 2.925 1.01245 6.1875H16.9312C15.7781 2.925 12.6562 0.5625 8.97183 0.5625Z" fill="#3E4347"/>
<path d="M8.97183 17.4375C12.6562 17.4375 15.7781 15.1031 16.9312 11.8125H1.01245C2.16558 15.1031 5.28745 17.4375 8.97183 17.4375Z" fill="#FFE62E"/>
<path d="M1.01255 6.1875C0.703174 7.05937 0.534424 8.01562 0.534424 9C0.534424 9.98438 0.703174 10.9406 1.01255 11.8125H16.9313C17.2407 10.9406 17.4094 9.98438 17.4094 9C17.4094 8.01562 17.2407 7.05937 16.9313 6.1875H1.01255Z" fill="#ED4C5C"/>
</g>
<defs>
<clipPath id="clip0_349_10779">
<rect width="18" height="18" fill="white"/>
</clipPath>
</defs>
</svg>