<svg xmlns="http://www.w3.org/2000/svg" width="18" height="18" viewBox="0 0 18 18" fill="none">
<g clip-path="url(#clip0_349_10758)">
<path d="M9 0.5625V3.375H3.375V9H0.5625C0.5625 13.6687 4.33125 17.4375 9 17.4375C13.6687 17.4375 17.4375 13.6687 17.4375 9C17.4375 4.33125 13.6687 0.5625 9 0.5625Z" fill="#2A5F9E"/>
<path d="M9 0.5625C7.67812 0.5625 6.44062 0.871875 5.31562 1.40625V3.09375H3.09375V5.31562H1.40625C0.871875 6.44062 0.5625 7.67812 0.5625 9H3.9375V4.78125L7.3125 9H9V6.89062L6.6375 3.9375H9V0.5625Z" fill="white"/>
<path d="M4.3313 3.9375L8.43755 9H9.00005V7.62188L6.0188 3.9375H4.3313Z" fill="#ED4C5C"/>
<path d="M9 1.40625H5.31562C3.62812 2.22188 2.22188 3.62812 1.40625 5.31562V9H3.09375V3.09375H9V1.40625Z" fill="#ED4C5C"/>
<path d="M2.25 10.0406L2.86875 9.28125L2.67188 10.2656L3.65625 10.2937L2.78437 10.7438L3.375 11.5312L2.50312 11.1375L2.25 12.0938L1.99687 11.1375L1.125 11.5312L1.71562 10.7438L0.84375 10.2937L1.82812 10.2656L1.63125 9.28125L2.25 10.0406ZM14.625 5.68125L15.1312 5.0625L14.9625 5.85L15.75 5.87812L15.0469 6.24375L15.525 6.8625L14.8219 6.525L14.625 7.3125L14.4281 6.525L13.725 6.8625L14.2031 6.24375L13.5 5.87812L14.2875 5.85L14.1188 5.0625L14.625 5.68125ZM14.625 11.3063L15.1312 10.6875L14.9625 11.475L15.75 11.5031L15.0469 11.8688L15.525 12.4875L14.8219 12.15L14.625 12.9375L14.4281 12.15L13.725 12.4875L14.2031 11.8688L13.5 11.5031L14.2875 11.475L14.1188 10.6875L14.625 11.3063ZM11.8125 7.36875L12.3187 6.75L12.15 7.5375L12.9375 7.56562L12.2344 7.93125L12.7125 8.55L12.0094 8.2125L11.8125 9L11.6156 8.2125L10.9125 8.55L11.3906 7.93125L10.6875 7.56562L11.475 7.5375L11.3063 6.75L11.8125 7.36875Z" fill="white"/>
</g>
<defs>
<clipPath id="clip0_349_10758">
<rect width="18" height="18" fill="white"/>
</clipPath>
</defs>
</svg>