<svg xmlns="http://www.w3.org/2000/svg" width="18" height="18" viewBox="0 0 18 18" fill="none">
<g clip-path="url(#clip0_349_10707)">
<path d="M8.9437 0.5625C5.28745 0.5625 2.16558 2.925 1.01245 6.1875H16.9312C15.75 2.925 12.6281 0.5625 8.9437 0.5625Z" fill="#F2B200"/>
<path d="M8.9437 17.4375C12.6281 17.4375 15.75 15.1031 16.9031 11.8125H1.01245C2.16558 15.1031 5.28745 17.4375 8.9437 17.4375Z" fill="#83BF4F"/>
<path d="M1.01255 6.1875C0.703174 7.05937 0.534424 8.01562 0.534424 9C0.534424 9.98438 0.703174 10.9406 1.01255 11.8125H16.9313C17.2407 10.9406 17.4094 9.98438 17.4094 9C17.4094 8.01562 17.2407 7.05937 16.9313 6.1875H1.01255Z" fill="white"/>
<path d="M8.94385 11.25C10.1865 11.25 11.1938 10.2426 11.1938 9C11.1938 7.75736 10.1865 6.75 8.94385 6.75C7.70121 6.75 6.69385 7.75736 6.69385 9C6.69385 10.2426 7.70121 11.25 8.94385 11.25Z" fill="#428BC1"/>
<path d="M8.94385 10.9688C10.0312 10.9688 10.9126 10.0873 10.9126 9C10.9126 7.91269 10.0312 7.03125 8.94385 7.03125C7.85654 7.03125 6.9751 7.91269 6.9751 9C6.9751 10.0873 7.85654 10.9688 8.94385 10.9688Z" fill="white"/>
<path d="M8.21265 7.3125C8.29031 7.3125 8.35327 7.24954 8.35327 7.17188C8.35327 7.09421 8.29031 7.03125 8.21265 7.03125C8.13498 7.03125 8.07202 7.09421 8.07202 7.17188C8.07202 7.24954 8.13498 7.3125 8.21265 7.3125Z" fill="#428BC1"/>
<path d="M7.76245 7.56567C7.84012 7.56567 7.90308 7.50271 7.90308 7.42505C7.90308 7.34738 7.84012 7.28442 7.76245 7.28442C7.68479 7.28442 7.62183 7.34738 7.62183 7.42505C7.62183 7.50271 7.68479 7.56567 7.76245 7.56567Z" fill="#428BC1"/>
<path d="M7.39697 7.93115C7.47464 7.93115 7.5376 7.86819 7.5376 7.79053C7.5376 7.71286 7.47464 7.6499 7.39697 7.6499C7.31931 7.6499 7.25635 7.71286 7.25635 7.79053C7.25635 7.86819 7.31931 7.93115 7.39697 7.93115Z" fill="#428BC1"/>
<path d="M7.1438 8.38135C7.22146 8.38135 7.28442 8.31839 7.28442 8.24072C7.28442 8.16306 7.22146 8.1001 7.1438 8.1001C7.06613 8.1001 7.00317 8.16306 7.00317 8.24072C7.00317 8.31839 7.06613 8.38135 7.1438 8.38135Z" fill="#428BC1"/>
<path d="M7.00317 8.88745C7.08084 8.88745 7.1438 8.82449 7.1438 8.74683C7.1438 8.66916 7.08084 8.6062 7.00317 8.6062C6.92551 8.6062 6.86255 8.66916 6.86255 8.74683C6.86255 8.82449 6.92551 8.88745 7.00317 8.88745Z" fill="#428BC1"/>
<path d="M7.00317 9.3938C7.08084 9.3938 7.1438 9.33084 7.1438 9.25317C7.1438 9.17551 7.08084 9.11255 7.00317 9.11255C6.92551 9.11255 6.86255 9.17551 6.86255 9.25317C6.86255 9.33084 6.92551 9.3938 7.00317 9.3938Z" fill="#428BC1"/>
<path d="M7.1438 9.8999C7.22146 9.8999 7.28442 9.83694 7.28442 9.75928C7.28442 9.68161 7.22146 9.61865 7.1438 9.61865C7.06613 9.61865 7.00317 9.68161 7.00317 9.75928C7.00317 9.83694 7.06613 9.8999 7.1438 9.8999Z" fill="#428BC1"/>
<path d="M7.39697 10.3501C7.47464 10.3501 7.5376 10.2871 7.5376 10.2095C7.5376 10.1318 7.47464 10.0688 7.39697 10.0688C7.31931 10.0688 7.25635 10.1318 7.25635 10.2095C7.25635 10.2871 7.31931 10.3501 7.39697 10.3501Z" fill="#428BC1"/>
<path d="M7.76245 10.7156C7.84012 10.7156 7.90308 10.6526 7.90308 10.575C7.90308 10.4973 7.84012 10.4343 7.76245 10.4343C7.68479 10.4343 7.62183 10.4973 7.62183 10.575C7.62183 10.6526 7.68479 10.7156 7.76245 10.7156Z" fill="#428BC1"/>
<path d="M8.21265 10.9688C8.29031 10.9688 8.35327 10.9058 8.35327 10.8281C8.35327 10.7505 8.29031 10.6875 8.21265 10.6875C8.13498 10.6875 8.07202 10.7505 8.07202 10.8281C8.07202 10.9058 8.13498 10.9688 8.21265 10.9688Z" fill="#428BC1"/>
<path d="M8.69067 11.0813C8.76834 11.0813 8.8313 11.0183 8.8313 10.9407C8.8313 10.863 8.76834 10.8 8.69067 10.8C8.61301 10.8 8.55005 10.863 8.55005 10.9407C8.55005 11.0183 8.61301 11.0813 8.69067 11.0813Z" fill="#428BC1"/>
<path d="M9.08447 10.9688C9.08447 10.8844 9.14072 10.8282 9.19697 10.8C9.28135 10.8 9.3376 10.8563 9.36572 10.9125C9.36572 10.9969 9.30947 11.0532 9.25322 11.0813C9.14072 11.1094 9.08447 11.0532 9.08447 10.9688Z" fill="#428BC1"/>
<path d="M9.70312 10.9688C9.78079 10.9688 9.84375 10.9058 9.84375 10.8281C9.84375 10.7505 9.78079 10.6875 9.70312 10.6875C9.62546 10.6875 9.5625 10.7505 9.5625 10.8281C9.5625 10.9058 9.62546 10.9688 9.70312 10.9688Z" fill="#428BC1"/>
<path d="M10.1531 10.7156C10.2307 10.7156 10.2937 10.6526 10.2937 10.575C10.2937 10.4973 10.2307 10.4343 10.1531 10.4343C10.0754 10.4343 10.0125 10.4973 10.0125 10.575C10.0125 10.6526 10.0754 10.7156 10.1531 10.7156Z" fill="#428BC1"/>
<path d="M10.5188 10.3501C10.5965 10.3501 10.6594 10.2871 10.6594 10.2095C10.6594 10.1318 10.5965 10.0688 10.5188 10.0688C10.4411 10.0688 10.3782 10.1318 10.3782 10.2095C10.3782 10.2871 10.4411 10.3501 10.5188 10.3501Z" fill="#428BC1"/>
<path d="M10.772 9.8999C10.8496 9.8999 10.9126 9.83694 10.9126 9.75928C10.9126 9.68161 10.8496 9.61865 10.772 9.61865C10.6943 9.61865 10.6313 9.68161 10.6313 9.75928C10.6313 9.83694 10.6943 9.8999 10.772 9.8999Z" fill="#428BC1"/>
<path d="M10.9126 9.3938C10.9903 9.3938 11.0532 9.33084 11.0532 9.25317C11.0532 9.17551 10.9903 9.11255 10.9126 9.11255C10.8349 9.11255 10.772 9.17551 10.772 9.25317C10.772 9.33084 10.8349 9.3938 10.9126 9.3938Z" fill="#428BC1"/>
<path d="M10.9126 8.88745C10.8283 8.88745 10.772 8.8312 10.7439 8.77495C10.7439 8.69058 10.8001 8.63433 10.8564 8.6062C10.9408 8.6062 10.997 8.66245 11.0251 8.7187C11.0533 8.80308 10.997 8.85933 10.9126 8.88745Z" fill="#428BC1"/>
<path d="M10.772 8.38135C10.8496 8.38135 10.9126 8.31839 10.9126 8.24072C10.9126 8.16306 10.8496 8.1001 10.772 8.1001C10.6943 8.1001 10.6313 8.16306 10.6313 8.24072C10.6313 8.31839 10.6943 8.38135 10.772 8.38135Z" fill="#428BC1"/>
<path d="M10.5188 7.93115C10.5965 7.93115 10.6594 7.86819 10.6594 7.79053C10.6594 7.71286 10.5965 7.6499 10.5188 7.6499C10.4411 7.6499 10.3782 7.71286 10.3782 7.79053C10.3782 7.86819 10.4411 7.93115 10.5188 7.93115Z" fill="#428BC1"/>
<path d="M10.1531 7.56567C10.2307 7.56567 10.2937 7.50271 10.2937 7.42505C10.2937 7.34738 10.2307 7.28442 10.1531 7.28442C10.0754 7.28442 10.0125 7.34738 10.0125 7.42505C10.0125 7.50271 10.0754 7.56567 10.1531 7.56567Z" fill="#428BC1"/>
<path d="M9.8438 7.22812C9.81567 7.31249 9.7313 7.34062 9.64692 7.31249C9.56255 7.28437 9.53442 7.19999 9.56255 7.11562C9.59067 7.03124 9.67505 7.00312 9.75942 7.03124C9.8438 7.08749 9.87192 7.17187 9.8438 7.22812ZM9.33755 7.05937C9.33755 7.14374 9.25317 7.19999 9.1688 7.17187C9.08442 7.17187 9.02817 7.08749 9.0563 7.00312C9.0563 6.91874 9.14067 6.86249 9.22505 6.89062C9.30942 6.91874 9.36567 7.00312 9.33755 7.05937ZM8.8313 7.03124C8.8313 7.11562 8.77505 7.17187 8.7188 7.19999C8.63442 7.19999 8.57817 7.14374 8.55005 7.08749C8.55005 7.00312 8.6063 6.94687 8.66255 6.91874C8.74692 6.89062 8.8313 6.94687 8.8313 7.03124Z" fill="#428BC1"/>
<path d="M8.94385 9.42188C9.17684 9.42188 9.36572 9.233 9.36572 9C9.36572 8.767 9.17684 8.57812 8.94385 8.57812C8.71085 8.57812 8.52197 8.767 8.52197 9C8.52197 9.233 8.71085 9.42188 8.94385 9.42188Z" fill="#428BC1"/>
<path d="M8.94375 7.03125L8.8875 8.24062L8.94375 9L9.02812 8.24062L8.94375 7.03125ZM8.4375 7.0875L8.69062 8.29688L8.94375 9L8.83125 8.24062L8.4375 7.0875Z" fill="#428BC1"/>
<path d="M7.95942 7.28442L8.52192 8.3813L8.9438 9.00005L8.63442 8.29692L7.95942 7.28442ZM7.56567 7.5938L8.3813 8.52192L8.9438 9.00005L8.46567 8.40942L7.56567 7.5938Z" fill="#428BC1"/>
<path d="M7.25635 8.01562L8.26885 8.69062L8.94385 9L8.3251 8.55L7.25635 8.01562Z" fill="#428BC1"/>
<path d="M7.05947 8.49365L8.2126 8.85928L8.94385 8.9999L8.24072 8.74678L7.05947 8.49365ZM6.9751 8.9999L8.2126 9.05615L8.94385 8.9999L8.2126 8.94365L6.9751 8.9999Z" fill="#428BC1"/>
<path d="M7.05933 9.50625L8.24058 9.25313L8.9437 9L8.21245 9.14062L7.05933 9.50625ZM7.2562 9.98438L8.32495 9.45L8.9437 9L8.2687 9.30937L7.2562 9.98438Z" fill="#428BC1"/>
<path d="M7.56567 10.3781L8.46567 9.59062L8.9438 9L8.3813 9.47813L7.56567 10.3781ZM7.95942 10.7156L8.63442 9.675L8.9438 9L8.52192 9.61875L7.95942 10.7156Z" fill="#428BC1"/>
<path d="M8.4375 10.9125L8.83125 9.75938L8.94375 9L8.69062 9.70312L8.4375 10.9125ZM8.94375 10.9688L9.02812 9.75938L8.94375 9L8.8875 9.75938L8.94375 10.9688ZM9.45 10.9125L9.225 9.70312L8.94375 9L9.08437 9.75938L9.45 10.9125Z" fill="#428BC1"/>
<path d="M9.92822 10.7156L9.39385 9.61875L8.94385 9L9.28135 9.70312L9.92822 10.7156ZM10.3501 10.3781L9.53447 9.47813L8.94385 9L9.4501 9.59062L10.3501 10.3781Z" fill="#428BC1"/>
<path d="M10.6595 9.98428L9.64697 9.30928L8.94385 8.9999L9.5626 9.4499L10.6595 9.98428ZM10.8563 9.50615L9.70322 9.14053L8.94385 8.9999L9.6751 9.25303L10.8563 9.50615ZM10.9126 8.9999L9.70322 8.91553L8.94385 8.9999L9.70322 9.05615L10.9126 8.9999ZM10.8563 8.49365L9.6751 8.74678L8.94385 8.9999L9.70322 8.85928L10.8563 8.49365Z" fill="#428BC1"/>
<path d="M10.6595 8.01558L9.5626 8.54995L8.94385 8.99995L9.64697 8.69058L10.6595 8.01558ZM10.3501 7.62183L9.4501 8.40933L8.94385 8.99995L9.53447 8.52183L10.3501 7.62183Z" fill="#428BC1"/>
<path d="M9.92822 7.28442L9.28135 8.32505L8.94385 9.00005L9.39385 8.3813L9.92822 7.28442Z" fill="#428BC1"/>
<path d="M9.47822 7.0874L9.08447 8.24053L8.94385 8.9999L9.2251 8.29678L9.47822 7.0874Z" fill="#428BC1"/>
</g>
<defs>
<clipPath id="clip0_349_10707">
<rect width="18" height="18" fill="white"/>
</clipPath>
</defs>
</svg>