<svg width="18" height="18" viewBox="0 0 18 18" fill="none" xmlns="http://www.w3.org/2000/svg">
<path fill-rule="evenodd" clip-rule="evenodd" d="M4.78419 13.2935C4.38652 13.2935 4.06414 13.6159 4.06414 14.0136C4.06414 14.4113 4.38652 14.7336 4.78419 14.7336C5.18187 14.7336 5.50425 14.4113 5.50425 14.0136C5.50425 13.6159 5.18187 13.2935 4.78419 13.2935ZM2.62402 14.0136C2.62402 12.8206 3.59116 11.8534 4.78419 11.8534C5.97722 11.8534 6.94437 12.8206 6.94437 14.0136C6.94437 15.2066 5.97722 16.1738 4.78419 16.1738C3.59116 16.1738 2.62402 15.2066 2.62402 14.0136Z" fill="white"/>
<path fill-rule="evenodd" clip-rule="evenodd" d="M13.4249 3.21276C13.0272 3.21276 12.7048 3.53514 12.7048 3.93282C12.7048 4.33049 13.0272 4.65287 13.4249 4.65287C13.8226 4.65287 14.1449 4.33049 14.1449 3.93282C14.1449 3.53514 13.8226 3.21276 13.4249 3.21276ZM11.2647 3.93282C11.2647 2.73979 12.2318 1.77264 13.4249 1.77264C14.6179 1.77264 15.5851 2.73979 15.5851 3.93282C15.5851 5.12585 14.6179 6.09299 13.4249 6.09299C12.2318 6.09299 11.2647 5.12585 11.2647 3.93282Z" fill="white"/>
<path fill-rule="evenodd" clip-rule="evenodd" d="M6.58434 4.65285C6.10692 4.65285 5.64904 4.8425 5.31145 5.18009C4.97386 5.51769 4.7842 5.97556 4.7842 6.45299C4.7842 6.93042 4.97386 7.38829 5.31145 7.72588C5.64904 8.06347 6.10692 8.25313 6.58434 8.25313H12.3448C13.2042 8.25313 14.0283 8.59451 14.636 9.20218C15.2437 9.80985 15.5851 10.634 15.5851 11.4934C15.5851 12.3528 15.2437 13.1769 14.636 13.7846C14.0283 14.3923 13.2042 14.7336 12.3448 14.7336H9.10454C8.70687 14.7336 8.38449 14.4113 8.38449 14.0136C8.38449 13.6159 8.70687 13.2935 9.10454 13.2935H12.3448C12.8222 13.2935 13.2801 13.1039 13.6177 12.7663C13.9553 12.4287 14.1449 11.9708 14.1449 11.4934C14.1449 11.016 13.9553 10.5581 13.6177 10.2205C13.2801 9.8829 12.8222 9.69324 12.3448 9.69324H6.58434C5.72497 9.69324 4.9008 9.35186 4.29314 8.7442C3.68547 8.13653 3.34409 7.31236 3.34409 6.45299C3.34409 5.59362 3.68547 4.76945 4.29314 4.16178C4.9008 3.55411 5.72497 3.21273 6.58434 3.21273H9.10454C9.50222 3.21273 9.8246 3.53511 9.8246 3.93279C9.8246 4.33046 9.50222 4.65285 9.10454 4.65285H6.58434Z" fill="white"/>
</svg>
