<svg xmlns="http://www.w3.org/2000/svg" width="16" height="16" viewBox="0 0 16 16" fill="none">
<path d="M15.2012 14.075L12.3679 11.25C13.282 10.0854 13.778 8.64722 13.7762 7.16667C13.7762 5.84813 13.3852 4.5592 12.6527 3.46287C11.9201 2.36654 10.8789 1.51206 9.66076 1.00747C8.44259 0.502889 7.10215 0.370866 5.80894 0.628101C4.51573 0.885336 3.32785 1.52027 2.3955 2.45262C1.46315 3.38497 0.828207 4.57286 0.570972 5.86607C0.313737 7.15927 0.44576 8.49972 0.950344 9.71789C1.45493 10.9361 2.30941 11.9773 3.40574 12.7098C4.50207 13.4423 5.791 13.8333 7.10954 13.8333C8.59009 13.8352 10.0283 13.3392 11.1929 12.425L14.0179 15.2583C14.0953 15.3364 14.1875 15.3984 14.2891 15.4407C14.3906 15.4831 14.4995 15.5048 14.6095 15.5048C14.7196 15.5048 14.8285 15.4831 14.93 15.4407C15.0316 15.3984 15.1237 15.3364 15.2012 15.2583C15.2793 15.1809 15.3413 15.0887 15.3836 14.9872C15.4259 14.8856 15.4477 14.7767 15.4477 14.6667C15.4477 14.5567 15.4259 14.4477 15.3836 14.3462C15.3413 14.2446 15.2793 14.1525 15.2012 14.075ZM2.10954 7.16667C2.10954 6.17776 2.40279 5.21106 2.95219 4.38882C3.5016 3.56657 4.28249 2.92571 5.19612 2.54727C6.10975 2.16883 7.11509 2.06982 8.08499 2.26274C9.0549 2.45567 9.94581 2.93187 10.6451 3.63114C11.3443 4.3304 11.8205 5.22131 12.0135 6.19122C12.2064 7.16112 12.1074 8.16646 11.7289 9.08009C11.3505 9.99372 10.7096 10.7746 9.88739 11.324C9.06515 11.8734 8.09845 12.1667 7.10954 12.1667C5.78346 12.1667 4.51169 11.6399 3.57401 10.7022C2.63633 9.76452 2.10954 8.49275 2.10954 7.16667Z" fill="#1E1E1E"/>
</svg>