<svg xmlns="http://www.w3.org/2000/svg" width="14" height="14" viewBox="0 0 14 14" fill="none">
<path d="M9.74219 8.78125H9.14969L8.93969 8.57875C9.70009 7.69677 10.118 6.57077 10.1172 5.40625C10.1172 4.44207 9.83127 3.49954 9.2956 2.69785C8.75993 1.89616 7.99856 1.27132 7.10777 0.902339C6.21698 0.533362 5.23678 0.436821 4.29112 0.624924C3.34547 0.813027 2.47682 1.27733 1.79504 1.95911C1.11326 2.64089 0.648964 3.50953 0.460861 4.45519C0.272759 5.40084 0.3693 6.38104 0.738277 7.27183C1.10725 8.16262 1.7321 8.92399 2.53378 9.45967C3.33547 9.99534 4.27801 10.2813 5.24219 10.2813C6.44969 10.2813 7.55969 9.83875 8.41469 9.10375L8.61719 9.31375V9.90625L12.3672 13.6488L13.4847 12.5313L9.74219 8.78125ZM5.24219 8.78125C3.37469 8.78125 1.86719 7.27375 1.86719 5.40625C1.86719 3.53875 3.37469 2.03125 5.24219 2.03125C7.10969 2.03125 8.61719 3.53875 8.61719 5.40625C8.61719 7.27375 7.10969 8.78125 5.24219 8.78125Z" fill="#9691A4"/>
</svg>