<svg xmlns="http://www.w3.org/2000/svg" width="20" height="20" viewBox="0 0 20 20" fill="none">
<path d="M14.1411 0.960043L5.11109 3.96004C-0.958906 5.99004 -0.958906 9.30004 5.11109 11.32L7.79109 12.21L8.68109 14.89C10.7011 20.96 14.0211 20.96 16.0411 14.89L19.0511 5.87004C20.3911 1.82004 18.1911 -0.389957 14.1411 0.960043ZM14.4611 6.34004L10.6611 10.16C10.5111 10.31 10.3211 10.38 10.1311 10.38C9.94109 10.38 9.75109 10.31 9.60109 10.16C9.46161 10.0189 9.38339 9.82847 9.38339 9.63004C9.38339 9.43161 9.46161 9.24118 9.60109 9.10004L13.4011 5.28004C13.6911 4.99004 14.1711 4.99004 14.4611 5.28004C14.7511 5.57004 14.7511 6.05004 14.4611 6.34004Z" fill="#FF5757"/>
</svg>