<svg xmlns="http://www.w3.org/2000/svg" width="10" height="12" viewBox="0 0 10 12" fill="none">
<path d="M3.24967 1.91666C3.09496 1.91666 2.94659 1.97812 2.8372 2.08752C2.7278 2.19691 2.66634 2.34529 2.66634 2.5C2.66634 2.6547 2.7278 2.80308 2.8372 2.91247C2.94659 3.02187 3.09496 3.08333 3.24967 3.08333C3.40438 3.08333 3.55276 3.02187 3.66215 2.91247C3.77155 2.80308 3.83301 2.6547 3.83301 2.5C3.83301 2.34529 3.77155 2.19691 3.66215 2.08752C3.55276 1.97812 3.40438 1.91666 3.24967 1.91666ZM1.59884 1.91666C1.71936 1.5751 1.94286 1.27933 2.23852 1.07012C2.53419 0.860913 2.88748 0.748566 3.24967 0.748566C3.61187 0.748566 3.96516 0.860913 4.26082 1.07012C4.55649 1.27933 4.77999 1.5751 4.90051 1.91666H9.08301C9.23772 1.91666 9.38609 1.97812 9.49549 2.08752C9.60488 2.19691 9.66634 2.34529 9.66634 2.5C9.66634 2.6547 9.60488 2.80308 9.49549 2.91247C9.38609 3.02187 9.23772 3.08333 9.08301 3.08333H4.90051C4.77999 3.42489 4.55649 3.72066 4.26082 3.92987C3.96516 4.13908 3.61187 4.25143 3.24967 4.25143C2.88748 4.25143 2.53419 4.13908 2.23852 3.92987C1.94286 3.72066 1.71936 3.42489 1.59884 3.08333H0.916341C0.761632 3.08333 0.613259 3.02187 0.503862 2.91247C0.394466 2.80308 0.333008 2.6547 0.333008 2.5C0.333008 2.34529 0.394466 2.19691 0.503862 2.08752C0.613259 1.97812 0.761632 1.91666 0.916341 1.91666H1.59884ZM6.74967 5.41666C6.59497 5.41666 6.44659 5.47812 6.3372 5.58752C6.2278 5.69691 6.16634 5.84529 6.16634 6C6.16634 6.15471 6.2278 6.30308 6.3372 6.41247C6.44659 6.52187 6.59497 6.58333 6.74967 6.58333C6.90438 6.58333 7.05276 6.52187 7.16215 6.41247C7.27155 6.30308 7.33301 6.15471 7.33301 6C7.33301 5.84529 7.27155 5.69691 7.16215 5.58752C7.05276 5.47812 6.90438 5.41666 6.74967 5.41666ZM5.09884 5.41666C5.21936 5.0751 5.44286 4.77933 5.73852 4.57012C6.03419 4.36091 6.38748 4.24857 6.74967 4.24857C7.11187 4.24857 7.46516 4.36091 7.76083 4.57012C8.05649 4.77933 8.27999 5.0751 8.40051 5.41666H9.08301C9.23772 5.41666 9.38609 5.47812 9.49549 5.58752C9.60488 5.69691 9.66634 5.84529 9.66634 6C9.66634 6.15471 9.60488 6.30308 9.49549 6.41247C9.38609 6.52187 9.23772 6.58333 9.08301 6.58333H8.40051C8.27999 6.92489 8.05649 7.22066 7.76083 7.42987C7.46516 7.63908 7.11187 7.75143 6.74967 7.75143C6.38748 7.75143 6.03419 7.63908 5.73852 7.42987C5.44286 7.22066 5.21936 6.92489 5.09884 6.58333H0.916341C0.761632 6.58333 0.613259 6.52187 0.503862 6.41247C0.394466 6.30308 0.333008 6.15471 0.333008 6C0.333008 5.84529 0.394466 5.69691 0.503862 5.58752C0.613259 5.47812 0.761632 5.41666 0.916341 5.41666H5.09884ZM3.24967 8.91666C3.09496 8.91666 2.94659 8.97812 2.8372 9.08752C2.7278 9.19691 2.66634 9.34529 2.66634 9.5C2.66634 9.65471 2.7278 9.80308 2.8372 9.91248C2.94659 10.0219 3.09496 10.0833 3.24967 10.0833C3.40438 10.0833 3.55276 10.0219 3.66215 9.91248C3.77155 9.80308 3.83301 9.65471 3.83301 9.5C3.83301 9.34529 3.77155 9.19691 3.66215 9.08752C3.55276 8.97812 3.40438 8.91666 3.24967 8.91666ZM1.59884 8.91666C1.71936 8.5751 1.94286 8.27933 2.23852 8.07012C2.53419 7.86091 2.88748 7.74857 3.24967 7.74857C3.61187 7.74857 3.96516 7.86091 4.26082 8.07012C4.55649 8.27933 4.77999 8.5751 4.90051 8.91666H9.08301C9.23772 8.91666 9.38609 8.97812 9.49549 9.08752C9.60488 9.19691 9.66634 9.34529 9.66634 9.5C9.66634 9.65471 9.60488 9.80308 9.49549 9.91248C9.38609 10.0219 9.23772 10.0833 9.08301 10.0833H4.90051C4.77999 10.4249 4.55649 10.7207 4.26082 10.9299C3.96516 11.1391 3.61187 11.2514 3.24967 11.2514C2.88748 11.2514 2.53419 11.1391 2.23852 10.9299C1.94286 10.7207 1.71936 10.4249 1.59884 10.0833H0.916341C0.761632 10.0833 0.613259 10.0219 0.503862 9.91248C0.394466 9.80308 0.333008 9.65471 0.333008 9.5C0.333008 9.34529 0.394466 9.19691 0.503862 9.08752C0.613259 8.97812 0.761632 8.91666 0.916341 8.91666H1.59884Z" fill="#64748B"/>
</svg>