<svg width="57" height="56" viewBox="0 0 57 56" fill="none" xmlns="http://www.w3.org/2000/svg">
<rect width="57" height="56" fill="#1E1E1E"/>
<path d="M-757 -2433C-757 -2434.1 -756.105 -2435 -755 -2435H990C991.105 -2435 992 -2434.1 992 -2433V1928C992 1929.1 991.105 1930 990 1930H-755C-756.105 1930 -757 1929.1 -757 1928V-2433Z" fill="#444444"/>
<path d="M-755 -2434H990V-2436H-755V-2434ZM991 -2433V1928H993V-2433H991ZM990 1929H-755V1931H990V1929ZM-756 1928V-2433H-758V1928H-756ZM-755 1929C-755.552 1929 -756 1928.55 -756 1928H-758C-758 1929.66 -756.657 1931 -755 1931V1929ZM991 1928C991 1928.55 990.552 1929 990 1929V1931C991.657 1931 993 1929.66 993 1928H991ZM990 -2434C990.552 -2434 991 -2433.55 991 -2433H993C993 -2434.66 991.657 -2436 990 -2436V-2434ZM-755 -2436C-756.657 -2436 -758 -2434.66 -758 -2433H-756C-756 -2433.55 -755.552 -2434 -755 -2434V-2436Z" fill="white" fill-opacity="0.1"/>
<rect width="1440" height="1834" transform="translate(-612 -160)" fill="#F4F7FE"/>
<g clip-path="url(#clip0_30842_16467)">
<rect x="-15.9219" y="-18.9785" width="253.387" height="95.6362" rx="19.7188" fill="white"/>
<circle cx="28.4423" cy="28.3466" r="27.6063" fill="#FF5757"/>
<g clip-path="url(#clip1_30842_16467)">
<path fill-rule="evenodd" clip-rule="evenodd" d="M33.8125 29.647C35.3884 30.7167 36.4926 32.1661 36.4926 34.0985V37.5493H39.9434C40.5761 37.5493 41.0937 37.0317 41.0937 36.399V34.0985C41.0937 31.5909 36.9872 30.1071 33.8125 29.647Z" fill="white"/>
<path d="M24.9917 28.3468C27.5328 28.3468 29.5927 26.2868 29.5927 23.7457C29.5927 21.2046 27.5328 19.1447 24.9917 19.1447C22.4506 19.1447 20.3906 21.2046 20.3906 23.7457C20.3906 26.2868 22.4506 28.3468 24.9917 28.3468Z" fill="white"/>
<path fill-rule="evenodd" clip-rule="evenodd" d="M31.8931 28.3468C34.4352 28.3468 36.4942 26.2878 36.4942 23.7457C36.4942 21.2036 34.4352 19.1447 31.8931 19.1447C31.3525 19.1447 30.8464 19.2597 30.3633 19.4207C31.318 20.6055 31.8931 22.1123 31.8931 23.7457C31.8931 25.3791 31.318 26.8859 30.3633 28.0707C30.8464 28.2317 31.3525 28.3468 31.8931 28.3468Z" fill="white"/>
<path fill-rule="evenodd" clip-rule="evenodd" d="M24.9912 29.496C21.92 29.496 15.7891 31.0373 15.7891 34.097V36.3976C15.7891 37.0302 16.3067 37.5478 16.9393 37.5478H33.043C33.6757 37.5478 34.1933 37.0302 34.1933 36.3976V34.097C34.1933 31.0373 28.0624 29.496 24.9912 29.496Z" fill="white"/>
</g>
</g>
<defs>
<clipPath id="clip0_30842_16467">
<rect width="1074.68" height="95.6362" fill="white" transform="translate(-291 -18.9785)"/>
</clipPath>
<clipPath id="clip1_30842_16467">
<rect width="27.6063" height="27.6063" fill="white" transform="translate(14.6406 14.543)"/>
</clipPath>
</defs>
</svg>
