<svg width="344" height="139" viewBox="0 0 344 139" fill="none" xmlns="http://www.w3.org/2000/svg">
<path d="M28.6246 58.5863C19.8287 66.8171 8.10092 59.7295 3.3365 55.1568L-25.25 186.948L351.322 201.646C353.704 141.711 355.39 19.5879 343.076 10.5732C327.683 -0.695168 319.987 20.3718 317.238 26.7409C314.49 33.1099 305.144 38.0092 297.448 36.0495C289.751 34.0898 273.259 58.5863 261.715 64.4654C250.17 70.3445 234.227 38.0092 227.081 32.62C219.934 27.2308 213.887 38.9891 211.138 38.0092C208.39 37.0294 196.845 6.16384 188.599 6.65377C180.353 7.1437 173.206 36.0495 167.159 32.62C161.112 29.1906 154.515 55.1568 134.175 72.3043C113.834 89.4518 105.588 7.14372 94.5934 3.22429C83.5986 -0.695147 80.3002 16.4524 69.3054 32.62C58.3105 48.7877 53.3629 36.5395 50.0644 32.62C46.766 28.7006 39.6194 48.2978 28.6246 58.5863Z" fill="url(#paint0_linear_31285_49148)" stroke="#FF5757" stroke-width="3.91943" stroke-linecap="round" stroke-linejoin="round"/>
<defs>
<linearGradient id="paint0_linear_31285_49148" x1="164.41" y1="-16.449" x2="164.41" y2="161.961" gradientUnits="userSpaceOnUse">
<stop stop-color="#FFE4E4"/>
<stop offset="0.72165" stop-color="#FF5757" stop-opacity="0"/>
</linearGradient>
</defs>
</svg>
