<svg xmlns="http://www.w3.org/2000/svg" width="24" height="26" viewBox="0 0 24 26" fill="none">
<path d="M4.2793 15.6564C5.87818 15.6564 7.17432 14.389 7.17432 12.8257C7.17432 11.2623 5.87818 9.995 4.2793 9.995C2.68042 9.995 1.38428 11.2623 1.38428 12.8257C1.38428 14.389 2.68042 15.6564 4.2793 15.6564Z" stroke="#121416" stroke-width="2.12302" stroke-linecap="round" stroke-linejoin="round"/>
<path d="M19.7212 7.16431C21.3201 7.16431 22.6162 5.89696 22.6162 4.33362C22.6162 2.77027 21.3201 1.50293 19.7212 1.50293C18.1223 1.50293 16.8262 2.77027 16.8262 4.33362C16.8262 5.89696 18.1223 7.16431 19.7212 7.16431Z" stroke="#121416" stroke-width="2.12302" stroke-linecap="round" stroke-linejoin="round"/>
<path d="M19.7212 24.1484C21.3201 24.1484 22.6162 22.8811 22.6162 21.3177C22.6162 19.7544 21.3201 18.4871 19.7212 18.4871C18.1223 18.4871 16.8262 19.7544 16.8262 21.3177C16.8262 22.8811 18.1223 24.1484 19.7212 24.1484Z" stroke="#121416" stroke-width="2.12302" stroke-linecap="round" stroke-linejoin="round"/>
<path d="M6.80273 14.2134L17.1971 19.9302M17.1971 5.72131L6.80273 11.4381" stroke="#121416" stroke-width="2.12302" stroke-linecap="round" stroke-linejoin="round"/>
</svg>