<svg width="24" height="25" viewBox="0 0 24 25" fill="none" xmlns="http://www.w3.org/2000/svg">
<path opacity="0.3" d="M6 20.3433H18V10.3433H6V20.3433ZM12 13.3433C13.1 13.3433 14 14.2433 14 15.3433C14 16.4433 13.1 17.3433 12 17.3433C10.9 17.3433 10 16.4433 10 15.3433C10 14.2433 10.9 13.3433 12 13.3433Z" fill="#FF5757"/>
<path d="M18 8.34326H17V6.34326C17 3.58326 14.76 1.34326 12 1.34326C9.24 1.34326 7 3.58326 7 6.34326V8.34326H6C4.9 8.34326 4 9.24326 4 10.3433V20.3433C4 21.4433 4.9 22.3433 6 22.3433H18C19.1 22.3433 20 21.4433 20 20.3433V10.3433C20 9.24326 19.1 8.34326 18 8.34326ZM9 6.34326C9 4.68326 10.34 3.34326 12 3.34326C13.66 3.34326 15 4.68326 15 6.34326V8.34326H9V6.34326ZM18 20.3433H6V10.3433H18V20.3433ZM12 17.3433C13.1 17.3433 14 16.4433 14 15.3433C14 14.2433 13.1 13.3433 12 13.3433C10.9 13.3433 10 14.2433 10 15.3433C10 16.4433 10.9 17.3433 12 17.3433Z" fill="#FF5757"/>
</svg>
