<svg width="17" height="17" viewBox="0 0 17 17" fill="none" xmlns="http://www.w3.org/2000/svg">
<path fill-rule="evenodd" clip-rule="evenodd" d="M7.41594 1.77812C7.70862 1.63826 8.02889 1.56567 8.35327 1.56567C8.67765 1.56567 8.99792 1.63826 9.2906 1.77812C9.5486 1.90146 9.78394 2.10279 10.1113 2.38146L10.1633 2.42546C10.3219 2.56079 10.3719 2.60212 10.4226 2.63612C10.5513 2.72279 10.6959 2.78212 10.8473 2.81212C10.9073 2.82412 10.9719 2.83012 11.1799 2.84612L11.2473 2.85146C11.6753 2.88546 11.9846 2.91012 12.2539 3.00479C12.5599 3.11321 12.8378 3.28858 13.0673 3.5181C13.2968 3.74762 13.4722 4.0255 13.5806 4.33146C13.6753 4.60079 13.6993 4.91012 13.7339 5.33812L13.7393 5.40546C13.7553 5.61346 13.7613 5.67879 13.7733 5.73812C13.8033 5.89012 13.8633 6.03479 13.9493 6.16346C13.9833 6.21346 14.0246 6.26346 14.1599 6.42212L14.2039 6.47412C14.4833 6.80079 14.6839 7.03679 14.8073 7.29412C15.0906 7.88746 15.0906 8.57679 14.8073 9.16946C14.6846 9.42746 14.4833 9.66279 14.2039 9.99012L14.1599 10.0421C14.0852 10.1248 14.0149 10.2114 13.9493 10.3015C13.8626 10.4301 13.8033 10.5748 13.7733 10.7261C13.7613 10.7861 13.7559 10.8508 13.7393 11.0588L13.7333 11.1261C13.6999 11.5541 13.6753 11.8635 13.5799 12.1328C13.472 12.4389 13.2969 12.717 13.0674 12.9465C12.838 13.1761 12.56 13.3514 12.2539 13.4595C11.9846 13.5541 11.6753 13.5781 11.2473 13.6128L11.1799 13.6181C11.0685 13.6236 10.9575 13.6349 10.8473 13.6521C10.6955 13.6821 10.5511 13.742 10.4226 13.8281C10.3323 13.8938 10.2456 13.9641 10.1626 14.0388L10.1113 14.0828C9.7846 14.3621 9.5486 14.5628 9.29127 14.6861C8.9985 14.8261 8.67811 14.8987 8.3536 14.8987C8.0291 14.8987 7.70871 14.8261 7.41594 14.6861C7.15794 14.5635 6.9226 14.3621 6.59527 14.0828C6.57794 14.0681 6.56061 14.0534 6.54327 14.0388C6.46078 13.9641 6.37444 13.8938 6.2846 13.8281C6.15595 13.7417 6.01135 13.6819 5.85927 13.6521C5.74905 13.6349 5.63801 13.6236 5.5266 13.6181L5.45927 13.6121C5.03127 13.5788 4.72194 13.5541 4.4526 13.4588C4.14651 13.3508 3.86847 13.1757 3.6389 12.9462C3.40934 12.7168 3.23406 12.4388 3.12594 12.1328C3.03127 11.8635 3.0066 11.5541 2.9726 11.1261L2.96727 11.0588C2.96179 10.9474 2.95044 10.8363 2.93327 10.7261C2.90324 10.5743 2.84343 10.43 2.75727 10.3015C2.69169 10.2111 2.62137 10.1243 2.5466 10.0415L2.5026 9.99012C2.22394 9.66346 2.0226 9.42746 1.89927 9.17012C1.75931 8.87735 1.68666 8.55696 1.68666 8.23246C1.68666 7.90795 1.75931 7.58756 1.89927 7.29479C2.0226 7.03679 2.22394 6.80146 2.5026 6.47412L2.5466 6.42212C2.62131 6.33965 2.69163 6.25331 2.75727 6.16346C2.84394 6.03479 2.90327 5.89012 2.93327 5.73812C2.94527 5.67812 2.95127 5.61346 2.96727 5.40546L2.9726 5.33812C3.0066 4.91012 3.03127 4.60079 3.12594 4.33146C3.23397 4.02529 3.40921 3.74721 3.63879 3.51764C3.86836 3.28807 4.14644 3.11283 4.4526 3.00479C4.72194 2.91012 5.03127 2.88546 5.45927 2.85146L5.5266 2.84612C5.63804 2.84102 5.7491 2.82967 5.85927 2.81212C6.01127 2.78212 6.15594 2.72212 6.2846 2.63612C6.3346 2.60212 6.3846 2.56079 6.54327 2.42546L6.59527 2.38146C6.92194 2.10279 7.1586 1.90146 7.41594 1.77812ZM8.85793 2.68346C8.70035 2.60817 8.52792 2.56909 8.35327 2.56909C8.17862 2.56909 8.00619 2.60817 7.8486 2.68346C7.72527 2.74212 7.59527 2.84812 7.1946 3.18879L7.1746 3.20546C7.04327 3.31746 6.94794 3.39946 6.84327 3.46946C6.60394 3.62946 6.33594 3.74079 6.05327 3.79612C5.92994 3.82079 5.8046 3.83079 5.63194 3.84479L5.6066 3.84679C5.08194 3.88879 4.91594 3.90612 4.7866 3.95146C4.45327 4.06946 4.1906 4.33146 4.07327 4.66546C4.0266 4.79479 4.00994 4.96079 3.96794 5.48546L3.96594 5.51079C3.9526 5.68346 3.94194 5.80879 3.91794 5.93212C3.86194 6.21479 3.75127 6.48279 3.59127 6.72212C3.5206 6.82679 3.4386 6.92212 3.3266 7.05412L3.30994 7.07346C2.96927 7.47346 2.86327 7.60412 2.8046 7.72679C2.72921 7.88446 2.69008 8.05702 2.69008 8.23179C2.69008 8.40656 2.72921 8.57912 2.8046 8.73679C2.86327 8.86012 2.96927 8.99012 3.30994 9.39079L3.3266 9.41079C3.4386 9.54212 3.5206 9.63746 3.5906 9.74212C3.7506 9.98146 3.86194 10.2495 3.91727 10.5315C3.94194 10.6555 3.95194 10.7808 3.96594 10.9535L3.96794 10.9788C4.00994 11.5035 4.02727 11.6695 4.0726 11.7988C4.1906 12.1321 4.4526 12.3948 4.7866 12.5121C4.91594 12.5588 5.08194 12.5755 5.6066 12.6175L5.63194 12.6195C5.8046 12.6328 5.92994 12.6435 6.05327 12.6675C6.33594 12.7235 6.60394 12.8341 6.84327 12.9941C6.94794 13.0648 7.04327 13.1468 7.17527 13.2588L7.1946 13.2755C7.5946 13.6161 7.72527 13.7221 7.84794 13.7808C8.00561 13.8562 8.17816 13.8953 8.35294 13.8953C8.52771 13.8953 8.70026 13.8562 8.85793 13.7808C8.98127 13.7221 9.11127 13.6161 9.51194 13.2755L9.53193 13.2588C9.66327 13.1468 9.7586 13.0648 9.86327 12.9948C10.1022 12.8348 10.3705 12.7237 10.6526 12.6681C10.7922 12.6438 10.9331 12.6276 11.0746 12.6195L11.0999 12.6175C11.6246 12.5755 11.7906 12.5581 11.9199 12.5128C12.2533 12.3948 12.5159 12.1328 12.6333 11.7988C12.6799 11.6695 12.6966 11.5028 12.7386 10.9788L12.7406 10.9535C12.7485 10.812 12.7645 10.6711 12.7886 10.5315C12.8446 10.2495 12.9553 9.98146 13.1153 9.74212C13.1859 9.63746 13.2679 9.54212 13.3799 9.41012L13.3966 9.39079C13.7373 8.99079 13.8433 8.86012 13.9019 8.73746C13.9773 8.57978 14.0165 8.40723 14.0165 8.23246C14.0165 8.05768 13.9773 7.88513 13.9019 7.72746C13.8433 7.60412 13.7373 7.47412 13.3966 7.07346L13.3799 7.05346C13.2679 6.92212 13.1859 6.82679 13.1159 6.72212C12.9558 6.483 12.8448 6.21448 12.7893 5.93212C12.765 5.79273 12.7487 5.65205 12.7406 5.51079L12.7386 5.48546C12.6966 4.96079 12.6793 4.79479 12.6339 4.66546C12.5159 4.33212 12.2539 4.06946 11.9199 3.95212C11.7906 3.90546 11.6239 3.88879 11.0999 3.84679L11.0746 3.84479C10.9331 3.83686 10.7922 3.82083 10.6526 3.79679C10.3705 3.74116 10.1022 3.63013 9.86327 3.47012C9.7586 3.39946 9.66327 3.31746 9.53127 3.20546L9.51194 3.18879C9.11194 2.84812 8.98127 2.74212 8.8586 2.68346H8.85793ZM11.0493 6.20479C11.096 6.25136 11.133 6.30669 11.1583 6.36761C11.1836 6.42853 11.1966 6.49383 11.1966 6.55979C11.1966 6.62575 11.1836 6.69105 11.1583 6.75197C11.133 6.81289 11.096 6.86822 11.0493 6.91479L7.7046 10.2595C7.61048 10.3534 7.48293 10.4062 7.34994 10.4062C7.21694 10.4062 7.08939 10.3534 6.99527 10.2595L5.65727 8.92146C5.60749 8.87562 5.5675 8.8202 5.53969 8.75851C5.51188 8.69683 5.49682 8.63016 5.49543 8.56251C5.49404 8.49486 5.50633 8.42763 5.53158 8.36485C5.55683 8.30208 5.59451 8.24505 5.64235 8.19721C5.6902 8.14936 5.74722 8.11168 5.81 8.08643C5.87278 8.06119 5.94001 8.04889 6.00766 8.05028C6.07531 8.05168 6.14198 8.06673 6.20366 8.09454C6.26534 8.12235 6.32077 8.16235 6.3666 8.21212L7.34994 9.19479L10.3399 6.20546C10.4341 6.1115 10.5616 6.05872 10.6946 6.05872C10.8276 6.05872 10.9551 6.1115 11.0493 6.20546V6.20479Z" fill="#FF5757"/>
</svg>
