<svg width="16" height="17" viewBox="0 0 16 17" fill="none" xmlns="http://www.w3.org/2000/svg">
<path fill-rule="evenodd" clip-rule="evenodd" d="M7.99529 1.5303C8.24905 1.5303 8.48081 1.67437 8.59311 1.90193L10.4953 5.75616L14.7482 6.37253C14.9995 6.40895 15.2083 6.58492 15.2867 6.8264C15.3651 7.06787 15.2996 7.33293 15.1176 7.51002L12.0357 10.51L12.7624 14.7463C12.8053 14.9965 12.7024 15.2494 12.4969 15.3985C12.2914 15.5476 12.0191 15.5671 11.7945 15.4488L7.9996 13.449L4.19553 15.449C3.97091 15.5671 3.69873 15.5475 3.49343 15.3983C3.28813 15.2492 3.18531 14.9964 3.22822 14.7463L3.95491 10.51L0.872943 7.51002C0.691012 7.33293 0.625462 7.06787 0.70388 6.8264C0.782297 6.58492 0.991066 6.40895 1.24233 6.37253L5.49531 5.75616L7.39746 1.90193C7.50977 1.67437 7.74152 1.5303 7.99529 1.5303ZM7.99529 3.70335L6.53578 6.66068C6.43863 6.85752 6.25081 6.99393 6.03357 7.02541L2.77222 7.49807L5.13629 9.79925C5.29365 9.95242 5.36548 10.1733 5.32835 10.3897L4.77075 13.6402L7.68971 12.1056C7.88413 12.0033 8.11642 12.0034 8.31075 12.1058L11.2195 13.6387L10.6622 10.3897C10.6251 10.1733 10.6969 9.95242 10.8543 9.79925L13.2183 7.49807L9.957 7.02541C9.73976 6.99393 9.55194 6.85752 9.45479 6.66068L7.99529 3.70335Z" fill="#9691A4"/>
</svg>
