<svg width="21" height="20" viewBox="0 0 21 20" fill="none" xmlns="http://www.w3.org/2000/svg">
<path fill-rule="evenodd" clip-rule="evenodd" d="M10.3162 1.31274C10.6249 1.31274 10.9069 1.48801 11.0435 1.76484L13.3575 6.4536L18.5314 7.20343C18.837 7.24773 19.091 7.46181 19.1864 7.75557C19.2818 8.04933 19.202 8.37178 18.9807 8.58721L15.2314 12.2368L16.1155 17.3903C16.1677 17.6947 16.0425 18.0023 15.7925 18.1837C15.5426 18.3652 15.2113 18.3889 14.938 18.2449L10.3215 15.8121L5.69372 18.2452C5.42047 18.3889 5.08936 18.365 4.8396 18.1835C4.58985 18.0021 4.46477 17.6945 4.51696 17.3903L5.401 12.2368L1.65172 8.58721C1.4304 8.37178 1.35065 8.04933 1.44605 7.75557C1.54145 7.46181 1.79542 7.24773 2.10109 7.20343L7.27494 6.4536L9.58895 1.76484C9.72557 1.48801 10.0075 1.31274 10.3162 1.31274Z" fill="#FDBC31"/>
</svg>
