<svg width="32" height="32" viewBox="0 0 32 32" fill="none" xmlns="http://www.w3.org/2000/svg">
<rect width="32" height="32" rx="16" fill="#01B574" fill-opacity="0.1"/>
<g clip-path="url(#clip0_32813_68686)">
<path d="M15.6494 10.3102C15.4841 10.1445 15.2797 10.0232 15.0551 9.95756C14.8305 9.89188 14.593 9.8839 14.3645 9.93437C14.1359 9.98483 13.9239 10.0921 13.7478 10.2463C13.5718 10.4005 13.4374 10.5966 13.3573 10.8164L9.66586 20.9702C9.58955 21.1802 9.56483 21.4054 9.59379 21.6269C9.62276 21.8485 9.70455 22.0598 9.83227 22.243C9.96 22.4263 10.1299 22.5762 10.3277 22.6801C10.5255 22.7839 10.7453 22.8387 10.9687 22.8398C11.1328 22.8395 11.2956 22.8105 11.4497 22.7541L21.6035 19.0627C21.8236 18.9828 22.0199 18.8487 22.1744 18.6728C22.3289 18.4969 22.4365 18.2848 22.4873 18.0563C22.538 17.8278 22.5303 17.5901 22.4648 17.3653C22.3993 17.1406 22.2782 16.936 22.1126 16.7705L15.6494 10.3102ZM14.9372 19.6905L12.7294 17.4827L13.443 15.5203L16.8996 18.9769L14.9372 19.6905ZM12.0952 19.2328L13.1871 20.3269L11.468 20.952L12.0952 19.2328ZM18.6504 18.3398L14.0801 13.7695L14.7832 11.8303L20.5889 17.6367L18.6504 18.3398ZM16.6113 9.62109V7.93359C16.6113 7.70982 16.7002 7.49521 16.8585 7.33697C17.0167 7.17874 17.2313 7.08984 17.4551 7.08984C17.6789 7.08984 17.8935 7.17874 18.0517 7.33697C18.2099 7.49521 18.2988 7.70982 18.2988 7.93359V9.62109C18.2988 9.84487 18.2099 10.0595 18.0517 10.2177C17.8935 10.3759 17.6789 10.4648 17.4551 10.4648C17.2313 10.4648 17.0167 10.3759 16.8585 10.2177C16.7002 10.0595 16.6113 9.84487 16.6113 9.62109ZM24.8013 15.4929C24.9598 15.6514 25.0489 15.8664 25.0489 16.0905C25.0489 16.3147 24.9598 16.5297 24.8013 16.6882C24.6428 16.8467 24.4278 16.9358 24.2037 16.9358C23.9795 16.9358 23.7645 16.8467 23.606 16.6882L22.481 15.5632C22.3225 15.4047 22.2335 15.1897 22.2335 14.9655C22.2335 14.7414 22.3225 14.5264 22.481 14.3679C22.6395 14.2094 22.8545 14.1203 23.0787 14.1203C23.3028 14.1203 23.5178 14.2094 23.6763 14.3679L24.8013 15.4929ZM24.7528 12.6712L23.0653 13.2337C22.853 13.3045 22.6213 13.2881 22.4211 13.188C22.2209 13.0879 22.0687 12.9124 21.998 12.7001C21.9272 12.4878 21.9437 12.256 22.0437 12.0559C22.1438 11.8557 22.3193 11.7035 22.5316 11.6327L24.2191 11.0702C24.4314 10.9995 24.6632 11.0159 24.8633 11.116C25.0635 11.2161 25.2157 11.3916 25.2865 11.6039C25.3573 11.8162 25.3408 12.0479 25.2407 12.2481C25.1406 12.4483 24.9651 12.6005 24.7528 12.6712ZM18.6223 11.4443C18.8494 10.1463 19.8028 9.33984 21.1113 9.33984C21.5648 9.33984 21.7223 9.16477 21.8144 8.99391C21.8964 8.83642 21.9443 8.66346 21.9551 8.48625V8.49609C21.9551 8.27232 22.044 8.05771 22.2022 7.89947C22.3604 7.74124 22.575 7.65234 22.7988 7.65234C23.0226 7.65234 23.2372 7.74124 23.3954 7.89947C23.5537 8.05771 23.6426 8.27232 23.6426 8.49609C23.6426 9.51352 22.9683 11.0273 21.1113 11.0273C20.764 11.0273 20.3934 11.111 20.2844 11.7347C20.2504 11.9303 20.1484 12.1075 19.9965 12.2354C19.8447 12.3632 19.6526 12.4334 19.4541 12.4336C19.405 12.4335 19.3561 12.4293 19.3078 12.4209C19.0874 12.3823 18.8913 12.2578 18.7628 12.0746C18.6342 11.8914 18.5837 11.6647 18.6223 11.4443Z" fill="#01B574"/>
</g>
<defs>
<clipPath id="clip0_32813_68686">
<rect width="18" height="18" fill="white" transform="translate(7.60938 6.80859)"/>
</clipPath>
</defs>
</svg>
