<svg xmlns="http://www.w3.org/2000/svg" width="12" height="13" viewBox="0 0 12 13" fill="none">
    <path d="M5.63791 2.52097V0.546387H6.22124V2.52097H5.63791ZM8.84391 3.85622L8.44549 3.4578L9.82099 2.02747L10.2451 2.45505L8.84391 3.85622ZM9.76558 6.64922V6.06589H11.7407V6.64922H9.76558ZM5.63791 12.1687V10.2052H6.22124V12.1687H5.63791ZM3.03741 3.83755L1.59949 2.46614L2.03816 2.05314L3.43874 3.44322L3.03741 3.83755ZM9.81749 10.6871L8.44549 9.25672L8.84041 8.87289L10.234 10.242L9.81749 10.6871ZM0.118408 6.64922V6.06589H2.09299V6.64922H0.118408ZM2.02707 10.6876L1.62516 10.249L3.00066 8.87347L3.21066 9.07705L3.43116 9.28297L2.02707 10.6876ZM5.93249 9.27422C5.12283 9.27422 4.43391 8.99092 3.86574 8.4243C3.29719 7.85769 3.01291 7.16975 3.01291 6.36047C3.01291 5.5508 3.29621 4.86189 3.86282 4.29372C4.42944 3.72516 5.11738 3.44089 5.92666 3.44089C6.73633 3.44089 7.42524 3.72419 7.99341 4.2908C8.56196 4.85741 8.84624 5.54536 8.84624 6.35464C8.84624 7.1643 8.56294 7.85322 7.99633 8.42139C7.42971 8.98994 6.74177 9.27422 5.93249 9.27422Z" fill="black"/>
</svg>