<svg xmlns="http://www.w3.org/2000/svg" width="14" height="14" viewBox="0 0 14 14" fill="none">
<g clip-path="url(#clip0_349_11420)">
<path d="M5.51448 1.66907L8.74263 3.5526L12.4236 2.01877V6.53627H11.3606V3.61318L9.23477 4.49915V6.53627H8.17183V4.44972L6.04595 3.2098V9.68576L7.03873 10.2651L6.50301 11.1829L5.47515 10.5829L1.79419 12.1167V3.83959L5.51448 1.66907ZM4.98301 9.63633V3.2098L2.85713 4.44972V10.5223L4.98301 9.63633ZM10.2977 8.13068C9.91008 8.13068 9.53833 8.28466 9.26424 8.55876C8.99015 8.83285 8.83617 9.2046 8.83617 9.59222C8.83617 10.2576 9.2268 10.8965 9.69449 11.4109C9.9108 11.649 10.1287 11.8435 10.2977 11.9822C10.4667 11.8441 10.6846 11.649 10.9009 11.4109C11.3686 10.8965 11.7593 10.2576 11.7593 9.59222C11.7593 9.2046 11.6053 8.83285 11.3312 8.55876C11.0571 8.28466 10.6853 8.13068 10.2977 8.13068ZM10.2977 13.2865L10.0027 13.0904L10.0017 13.0898L9.99955 13.0882L9.99318 13.084L9.97192 13.0691L9.89911 13.0175C9.54076 12.7531 9.20881 12.4546 8.90791 12.1263C8.3791 11.5448 7.77323 10.6557 7.77323 9.59222C7.77323 9.2607 7.83852 8.93243 7.96539 8.62614C8.09226 8.31986 8.27821 8.04156 8.51263 7.80714C8.74705 7.57272 9.02535 7.38677 9.33163 7.2599C9.63791 7.13304 9.96619 7.06774 10.2977 7.06774C10.6292 7.06774 10.9575 7.13304 11.2638 7.2599C11.5701 7.38677 11.8484 7.57272 12.0828 7.80714C12.3172 8.04156 12.5032 8.31986 12.63 8.62614C12.7569 8.93243 12.8222 9.2607 12.8222 9.59222C12.8222 10.6557 12.2163 11.5448 11.6875 12.1263C11.3662 12.4763 11.0096 12.7922 10.6235 13.0691L10.6022 13.084L10.5959 13.0882L10.5937 13.0898H10.5927L10.2977 13.2865ZM9.63337 9.19362H10.962V10.2566H9.63337V9.19362Z" fill="#FF5757"/>
</g>
<defs>
<clipPath id="clip0_349_11420">
<rect width="12.7553" height="12.7553" fill="white" transform="translate(0.731201 0.690063)"/>
</clipPath>
</defs>
</svg>