<svg width="29" height="28" viewBox="0 0 29 28" fill="none" xmlns="http://www.w3.org/2000/svg">
<g id="tabler:share">
<path id="Vector" d="M10.8946 12.257L18.4215 8.3795M10.8946 15.2222L18.4215 19.0997M4.39404 13.7396C4.39404 14.647 4.7545 15.5172 5.39613 16.1588C6.03775 16.8005 6.90798 17.1609 7.81537 17.1609C8.72277 17.1609 9.593 16.8005 10.2346 16.1588C10.8762 15.5172 11.2367 14.647 11.2367 13.7396C11.2367 12.8322 10.8762 11.962 10.2346 11.3203C9.593 10.6787 8.72277 10.3183 7.81537 10.3183C6.90798 10.3183 6.03775 10.6787 5.39613 11.3203C4.7545 11.962 4.39404 12.8322 4.39404 13.7396ZM18.0794 6.89692C18.0794 7.80431 18.4398 8.67454 19.0815 9.31617C19.7231 9.95779 20.5933 10.3183 21.5007 10.3183C22.4081 10.3183 23.2783 9.95779 23.9199 9.31617C24.5616 8.67454 24.922 7.80431 24.922 6.89692C24.922 5.98952 24.5616 5.1193 23.9199 4.47767C23.2783 3.83605 22.4081 3.47559 21.5007 3.47559C20.5933 3.47559 19.7231 3.83605 19.0815 4.47767C18.4398 5.1193 18.0794 5.98952 18.0794 6.89692ZM18.0794 20.5822C18.0794 21.4896 18.4398 22.3599 19.0815 23.0015C19.7231 23.6431 20.5933 24.0036 21.5007 24.0036C22.4081 24.0036 23.2783 23.6431 23.9199 23.0015C24.5616 22.3599 24.922 21.4896 24.922 20.5822C24.922 19.6749 24.5616 18.8046 23.9199 18.163C23.2783 17.5214 22.4081 17.1609 21.5007 17.1609C20.5933 17.1609 19.7231 17.5214 19.0815 18.163C18.4398 18.8046 18.0794 19.6749 18.0794 20.5822Z" stroke="#838383" stroke-width="2.28089" stroke-linecap="round" stroke-linejoin="round"/>
</g>
</svg>
