<svg xmlns="http://www.w3.org/2000/svg" width="14" height="13" viewBox="0 0 14 13" fill="none">
<path fill-rule="evenodd" clip-rule="evenodd" d="M6.81886 1.7157C7.39905 1.7157 7.86938 2.18604 7.86938 2.76623C7.86938 3.34642 7.39905 3.81676 6.81886 3.81676C6.23866 3.81676 5.76833 3.34642 5.76833 2.76623C5.76833 2.18604 6.23866 1.7157 6.81886 1.7157Z" fill="#454056"/>
<path fill-rule="evenodd" clip-rule="evenodd" d="M6.81886 5.39255C7.39905 5.39255 7.86938 5.86288 7.86938 6.44308C7.86938 7.02327 7.39905 7.49361 6.81886 7.49361C6.23866 7.49361 5.76833 7.02327 5.76833 6.44308C5.76833 5.86288 6.23866 5.39255 6.81886 5.39255Z" fill="#454056"/>
<path fill-rule="evenodd" clip-rule="evenodd" d="M6.81886 9.0694C7.39905 9.0694 7.86938 9.53974 7.86938 10.1199C7.86938 10.7001 7.39905 11.1705 6.81886 11.1705C6.23866 11.1705 5.76833 10.7001 5.76833 10.1199C5.76833 9.53974 6.23866 9.0694 6.81886 9.0694Z" fill="#454056"/>
</svg>