<svg width="16" height="17" viewBox="0 0 16 17" fill="none" xmlns="http://www.w3.org/2000/svg">
<path fill-rule="evenodd" clip-rule="evenodd" d="M7.99992 3.16659C5.0544 3.16659 2.66659 5.5544 2.66659 8.49992C2.66659 11.4454 5.0544 13.8333 7.99992 13.8333C10.9454 13.8333 13.3333 11.4454 13.3333 8.49992C13.3333 5.5544 10.9454 3.16659 7.99992 3.16659ZM1.33325 8.49992C1.33325 4.81802 4.31802 1.83325 7.99992 1.83325C11.6818 1.83325 14.6666 4.81802 14.6666 8.49992C14.6666 12.1818 11.6818 15.1666 7.99992 15.1666C4.31802 15.1666 1.33325 12.1818 1.33325 8.49992ZM10.4713 6.69517C10.7317 6.95552 10.7317 7.37763 10.4713 7.63798L7.80466 10.3046C7.67963 10.4297 7.51006 10.4999 7.33325 10.4999C7.15644 10.4999 6.98687 10.4297 6.86185 10.3046L5.52851 8.97131C5.26816 8.71096 5.26816 8.28885 5.52851 8.0285C5.78886 7.76815 6.21097 7.76815 6.47132 8.0285L7.33325 8.89043L9.52851 6.69517C9.78886 6.43482 10.211 6.43482 10.4713 6.69517Z" fill="#9691A4"/>
</svg>
