<svg width="225" height="145" viewBox="0 0 225 145" fill="none" xmlns="http://www.w3.org/2000/svg">
<rect width="224.728" height="143.944" transform="translate(0 0.943848)" fill="#F5F4F8"/>
<g clip-path="url(#clip0_572_1283)">
<path d="M137.941 113.713L128.612 111.106C128.533 111.106 128.455 111.106 128.397 111.106H123.292V108.578H118.05V111.106H112.945C112.867 111.106 112.789 111.106 112.73 111.106L103.537 113.713C102.892 113.868 102.442 114.374 102.442 115.016V115.599C102.442 116.319 103.029 116.98 103.831 116.98H137.804C138.528 116.98 139.193 116.319 139.193 115.599V115.016C139.115 114.452 138.606 113.868 137.941 113.713Z" fill="#110580"/>
<path d="M139.408 29.0127C140.073 29.3044 140.288 30.1019 139.995 30.6853L104.574 102.432C104.281 103.074 103.479 103.308 102.892 103.016C102.227 102.724 102.012 101.927 102.305 101.343L137.648 29.6156C138.02 28.9349 138.763 28.6432 139.408 29.0127Z" fill="#110580"/>
<path d="M122.49 101.46C103.752 102.685 87.5773 88.6239 86.3255 69.9723C85.0933 51.3986 99.2343 35.2949 117.972 33.9918C136.709 32.7666 152.884 46.8281 154.136 65.4796C155.388 84.1311 141.227 100.235 122.49 101.46Z" fill="#CDDEFA"/>
<path d="M126.871 59.7614C126.577 59.6836 126.225 59.6253 125.932 59.6837C125.639 59.7615 125.854 60.1893 125.639 60.1893C125.345 60.2671 124.993 60.4811 124.543 60.2671C123.605 59.6837 122.646 57.661 122.001 56.708C124.191 55.9106 122.001 54.5297 121.062 54.1601C119.83 53.6545 117.854 52.5653 116.466 52.6431C115.527 52.7209 113.629 53.9462 112.671 54.3157C111.361 54.7436 110.128 55.4049 109.033 56.1245C104.945 59.3919 105.61 65.6933 110.774 67.5215C112.163 68.0272 113.982 67.8911 114.647 69.5443C115.155 70.7695 114.275 71.353 114.06 72.3643C113.845 73.2979 114.49 74.2509 114.49 75.1261C114.334 76.8765 113.551 77.5961 112.456 78.6852C110.989 80.1439 111.439 82.964 111.224 84.9283C111.067 85.9397 110.715 88.7014 111.38 89.4988C112.397 90.7241 115.312 89.9267 116.563 89.3627C117.502 88.9348 117.717 88.0596 118.461 87.5539C119.184 87.0482 119.927 87.0483 120.729 86.2509C121.375 85.5896 122.196 85.0839 123.135 84.87C124.895 84.2087 125.032 83.4113 125.326 81.7582C125.912 78.2768 130 78.5685 132.621 77.0515C135.379 75.5345 131.897 74.7955 131.017 73.434C130.137 72.0532 130.352 70.1666 130.431 68.5718C130.509 66.977 130.939 64.7987 130.431 63.2817C129.922 62.2315 127.751 60.695 126.871 59.7614Z" fill="#66A896"/>
<path d="M132.269 87.4568C132.426 87.6707 132.348 87.8847 132.191 88.1181L128.69 91.8912C127.81 92.8247 124.759 96.0143 124.25 92.7664C124.035 91.5411 125.189 90.5881 125.932 89.9463C126.871 89.0711 126.597 88.2737 127.399 87.4763C128.338 86.5427 129.805 87.1845 130.9 86.7567C131.057 86.6789 131.272 86.4649 131.409 86.4649C132.035 86.3871 131.898 86.815 132.269 87.4568Z" fill="#66A896"/>
<path d="M154.136 65.4793C153.412 54.3156 147.134 44.2216 137.374 38.562L131.682 41.246C131.174 41.4599 130.665 41.5377 130.157 41.4599L122.509 40.5264C121.492 40.3902 120.534 40.7403 119.752 41.4016L116.466 44.2217C116.094 44.5134 115.957 45.019 116.035 45.4469L116.837 50.4453C116.916 50.7371 117.131 50.8732 117.346 50.8732C117.424 50.8732 117.561 50.7954 117.639 50.7371L117.854 50.5231C119.321 49.0644 121.571 48.7143 123.468 49.6479L128.944 52.3319C129.159 52.4097 129.375 52.6236 129.531 52.7597L134.558 57.8359C134.714 58.0498 134.851 58.2638 134.988 58.4972L135.731 60.3837C135.946 61.045 135.946 61.8424 135.575 62.4842C135.418 62.6981 135.418 62.9898 135.418 63.2038L135.575 69.3691C135.575 70.0303 136.083 70.536 136.729 70.5944C138.782 70.8083 140.875 70.6722 142.851 70.0887C143.359 69.9526 143.731 69.4275 143.653 68.8634L143.574 68.28C143.496 67.9104 143.789 67.6187 144.083 67.5604C144.239 67.5604 144.376 67.5603 144.454 67.6381L146.273 68.5717C146.86 68.8634 147.232 69.3691 147.369 69.9525L148.014 72.5004C148.092 72.7143 148.092 73.006 148.092 73.22L147.584 77.5766C147.584 78.0044 147.877 78.2962 148.307 78.2962C148.386 78.2962 148.464 78.2962 148.523 78.2962L148.679 78.2183C149.403 77.9266 150.068 77.421 150.439 76.7014C150.733 76.1179 151.241 75.7678 151.828 75.5344L152.708 75.3205C152.923 75.2427 153.158 75.2427 153.373 75.2427C154.058 72.092 154.351 68.7467 154.136 65.4793Z" fill="#66A896"/>
<path d="M107.762 44.5331C107.918 44.4553 107.977 44.397 108.134 44.3192L110.168 43.5218C111.771 42.9383 112.867 41.4213 113.004 39.7487C113.16 37.9983 112.28 36.3451 110.813 35.3337C103.166 37.512 96.5155 42.3743 92.0757 48.8897C92.4473 49.9788 92.8776 51.0679 93.3079 52.1571C93.8164 52.7405 95.6354 53.0323 96.9654 53.4602C97.2588 53.538 97.6109 53.324 97.6891 53.0323C97.6891 52.9545 97.6891 52.8961 97.6891 52.8183L97.3957 50.5039C97.3175 49.9204 97.7673 49.337 98.3345 49.2008L101.034 48.773C101.405 48.6952 101.699 48.559 101.992 48.4035L107.762 44.5331Z" fill="#66A896"/>
<path d="M95.9485 76.079C97.5523 76.293 99.0193 75.2038 99.2344 73.609L99.4496 72.2282C99.5278 71.6447 99.8211 71.0612 100.251 70.6333C101.425 69.4664 101.347 67.6577 100.251 66.4907C100.173 66.413 100.036 66.3546 99.958 66.2768L97.7675 64.6042C97.3959 64.3124 97.0438 63.9429 96.8286 63.5151L94.286 58.4389C93.9144 57.6415 93.1124 57.1358 92.2323 56.9802L88.2227 56.3967C85.152 64.8765 85.6801 74.2314 89.5332 82.361L94.5011 75.8262L95.9485 76.079Z" fill="#66A896"/>
<path d="M120.162 108.87C113.884 108.87 107.625 107.411 102.012 104.669C101.053 104.241 100.701 103.074 101.132 102.14C101.562 101.207 102.735 100.837 103.674 101.265C122.118 110.698 144.787 103.444 154.195 85.0837C163.603 66.724 156.385 44.1827 137.941 34.8277C137.57 34.6138 137.139 34.4582 136.768 34.2443C135.751 33.7386 134.655 33.3107 133.638 32.8634C132.7 32.4939 132.171 31.4047 132.543 30.3934C132.915 29.4598 133.99 28.9347 135.027 29.3042C136.181 29.7321 137.355 30.2378 138.45 30.8212C158.928 40.8374 167.397 65.4987 157.324 85.8812C150.342 100.021 135.985 108.928 120.162 108.87Z" fill="#868AE0"/>
<path d="M144.22 84.131C146.762 83.7614 149.403 83.6253 151.867 82.8279C153.1 82.4 152.728 79.3465 151.281 79.7744C148.953 80.494 146.547 80.6496 144.22 80.9997C142.753 81.1553 142.909 84.2671 144.22 84.131Z" fill="white"/>
<path d="M144.357 70.4195C148.21 69.8361 152.513 68.4552 154.782 65.1294C155.505 64.0403 154.332 61.3563 153.256 62.9511C151.359 65.7129 147.349 66.802 144.298 67.3077C142.909 67.5216 143.046 70.6335 144.357 70.4195Z" fill="white"/>
<path d="M96.6915 84.131C94.1489 83.7614 91.5084 83.6253 89.044 82.8279C87.8118 82.4 88.1639 79.3465 89.6308 79.7744C91.9583 80.494 94.364 80.6496 96.6915 80.9997C98.1389 81.1553 98.0802 84.2671 96.6915 84.131Z" fill="white"/>
<path d="M96.5353 70.4195C92.7409 69.8361 88.3793 68.4552 86.1105 65.1294C85.3868 64.0403 86.5603 61.3563 87.636 62.9511C89.455 65.7129 93.5429 66.802 96.594 67.3077C98.0805 67.5216 97.924 70.6335 96.5353 70.4195Z" fill="white"/>
<path d="M118.93 63.7486L97.2784 66.7243C96.1831 66.8604 95.3812 67.8134 95.303 68.9026V82.4001C95.303 83.3336 95.8897 84.1505 96.7699 84.5006L113.903 90.9576C118.578 92.708 123.663 92.708 128.338 90.9576L145.55 84.5006C146.43 84.131 147.017 83.3336 147.017 82.4001V68.9026C147.017 67.8134 146.156 66.8799 145.041 66.7243L123.39 63.7486C121.844 63.5347 120.377 63.5347 118.93 63.7486Z" fill="white"/>
<path d="M63.8718 78.4713L63.7936 78.5491C63.6371 78.6269 63.5002 78.5491 63.422 78.4713C63.1286 78.0434 62.9722 77.5961 62.757 77.0905C62.6788 76.9543 62.757 76.7987 62.9134 76.7987C63.0699 76.7209 63.2068 76.7987 63.2068 76.9349C63.3633 77.3627 63.5785 77.8101 63.7936 78.2379C63.9501 78.3352 63.95 78.3935 63.8718 78.4713Z" fill="#110580"/>
<path d="M99.0192 55.4048L98.5889 55.6965C97.8652 56.1244 97.122 56.6301 96.3983 57.1552C96.2418 57.233 96.105 57.1552 96.0267 57.0774C95.9485 56.9412 95.9485 56.7857 96.1049 56.7079C96.9068 56.2022 97.6305 55.7743 98.2955 55.2492L98.5889 55.0352C98.6671 54.9574 98.8823 54.9575 98.9605 55.1131C99.0192 55.1909 99.0192 55.327 99.0192 55.4048ZM93.9143 58.5166C93.9143 58.5166 93.8361 58.5944 93.7579 58.5944C92.8777 59.0223 91.9389 59.4696 90.9805 59.8197C90.8436 59.8197 90.6871 59.7419 90.6871 59.6057C90.6871 59.4696 90.6872 59.3918 90.8436 59.314C91.7824 58.9445 92.6626 58.5944 93.5427 58.1471C93.6796 58.0693 93.8361 58.1471 93.9143 58.2832C93.9143 58.3804 93.9143 58.4583 93.9143 58.5166ZM88.2227 60.4809C88.1444 60.5587 88.1445 60.5588 88.0662 60.5588C87.0492 60.6949 86.0321 60.7727 84.9955 60.7727C84.839 60.7727 84.7804 60.6365 84.7804 60.4809C84.7804 60.3448 84.9369 60.267 85.0738 60.267C86.0126 60.3448 87.0492 60.267 87.988 60.1309C88.1445 60.1309 88.2814 60.2087 88.2814 60.3448C88.2227 60.3448 88.2227 60.4031 88.2227 60.4809ZM82.2572 60.1892C82.179 60.267 82.1007 60.3254 81.9638 60.267C80.9468 59.9753 79.9884 59.6057 79.1278 59.1779C78.9713 59.1001 78.9713 58.964 79.0496 58.8084C79.1278 58.6722 79.2647 58.6722 79.343 58.7305C80.2231 59.1584 81.162 59.528 82.1204 59.8197C82.2768 59.8197 82.3355 59.9558 82.2768 60.1114C82.2572 60.1114 82.2572 60.1114 82.2572 60.1892ZM80.5752 56.9996C80.2818 57.4275 79.9298 57.8748 79.4799 58.3027C79.4017 58.3805 79.2648 58.4388 79.1083 58.3027C78.9518 58.1665 78.9518 58.0888 79.1083 57.9332C79.4799 57.5636 79.8319 57.1357 80.1253 56.7079C80.4187 56.3383 80.6339 55.9882 80.849 55.6187C80.9273 55.4826 81.0642 55.4826 81.2206 55.5409C81.3771 55.5409 81.3771 55.6771 81.3771 55.8327C81.1619 56.2022 80.8686 56.6301 80.5752 56.9996ZM77.2306 60.1892C76.4287 60.7727 75.6268 61.2006 74.6098 61.8618C74.4533 61.9396 74.3163 61.9396 74.2381 61.784C74.1599 61.6284 74.1599 61.4923 74.3164 61.4145C74.3164 61.4145 74.3164 61.4145 74.3946 61.4145C75.4117 60.831 76.2136 60.3254 76.9373 59.8197C77.0155 59.7419 77.2306 59.7419 77.3089 59.8975C77.2893 59.9753 77.2893 60.1114 77.2306 60.1892ZM82.2572 53.0126C82.179 53.0904 82.1008 53.0904 82.0421 53.0904C81.8857 53.0904 81.827 52.9542 81.827 52.7986C81.9052 52.2929 81.9052 51.7873 81.827 51.2816C81.7487 50.8537 81.6705 50.4064 81.4554 49.9785C81.3771 49.8424 81.4553 49.6868 81.6118 49.6868C81.7683 49.609 81.9052 49.6868 81.9052 49.8229C82.1203 50.2508 82.1986 50.7565 82.2768 51.2816C82.355 51.8651 82.355 52.3708 82.2768 52.9542V53.0126H82.2572ZM76.9373 57.3691C76.859 57.4469 76.7221 57.4469 76.5657 57.3691C75.7638 56.7078 75.0987 55.8521 74.6684 54.9769C74.5902 54.8407 74.6684 54.6852 74.7466 54.6074C74.9031 54.5296 75.04 54.6074 75.1182 54.6852C75.5485 55.5604 76.2136 56.28 76.9373 56.9412C76.9959 57.0774 77.0742 57.2135 76.9373 57.3691ZM72.0476 63.1649L71.9693 63.2427L71.0305 63.7484C70.4437 64.1179 69.8765 64.4096 69.3484 64.7597C69.1919 64.7597 69.055 64.6819 69.055 64.6236C69.055 64.5652 69.055 64.4874 69.055 64.4096C69.5635 64.0401 70.1503 63.7484 70.7371 63.3983L71.676 62.8926C71.8324 62.8148 71.9693 62.8926 72.0476 62.9704C72.0476 63.0288 72.0476 63.0871 72.0476 63.1649ZM62.8549 74.1924C62.7767 74.2702 62.6984 74.3286 62.6397 74.3286C62.5028 74.3286 62.4246 74.1924 62.4246 74.0368C62.5028 73.0255 62.7179 72.0142 63.0895 71.0612C63.1678 70.925 63.246 70.8472 63.3829 70.925C63.5198 71.0028 63.5981 71.0611 63.5981 71.2167V71.2946C63.2265 72.2281 63.0113 73.1811 62.9331 74.1146C62.9331 74.1146 62.9331 74.1924 62.8549 74.1924ZM67.0209 66.5101C66.2972 67.2297 65.6322 67.9688 64.9672 68.7662C64.889 68.9023 64.7521 68.9023 64.5956 68.844C64.5956 68.844 64.5174 68.844 64.5174 68.7662C64.4392 68.6884 64.4392 68.5522 64.5174 68.3966C65.1042 67.5992 65.8278 66.8797 66.6297 66.1406C66.7079 66.0628 66.8448 66.0628 67.0013 66.1406C67.0795 66.2767 67.0796 66.4323 67.0209 66.5101ZM79.9885 47.7808C79.9102 47.8586 79.7732 47.917 79.6168 47.8586C78.8149 47.3529 77.8565 47.139 76.9959 47.4307C76.859 47.5085 76.7025 47.4307 76.6243 47.3529C76.5461 47.2751 76.6243 47.0612 76.7025 46.9834H76.7807C76.9372 46.9056 77.1524 46.9056 77.2893 46.8473C78.1694 46.7111 79.1083 46.9251 79.8319 47.4307C80.0666 47.5085 80.0667 47.6446 79.9885 47.7808ZM74.2968 52.1374C74.2186 52.2152 74.1599 52.2151 74.0817 52.2151C73.9252 52.2151 73.8665 52.1374 73.7883 52.0012C73.71 50.9899 74.0034 49.9007 74.4337 48.9477C74.5119 48.8116 74.6489 48.8116 74.8054 48.8699C74.8836 48.9477 74.9618 49.0839 74.8836 49.1617C74.4337 50.0369 74.2186 50.9704 74.2186 51.9234C74.2968 52.079 74.2968 52.1374 74.2968 52.1374Z" fill="#110580"/>
<path d="M102.892 53.3043C102.892 53.3821 102.813 53.382 102.735 53.382C102.285 53.4598 101.855 53.6738 101.425 53.8877C101.288 53.9655 101.131 53.8877 101.053 53.8099C100.975 53.6738 101.053 53.5182 101.131 53.4404C101.562 53.2265 102.07 53.0125 102.52 52.8569C102.657 52.8569 102.813 52.9347 102.813 53.0709C102.95 53.1487 102.95 53.2265 102.892 53.3043Z" fill="#110580"/>
</g>
<defs>
<clipPath id="clip0_572_1283">
<rect width="99.1449" height="88.1288" fill="white" transform="translate(62.4246 28.8513)"/>
</clipPath>
</defs>
</svg>
