<svg xmlns="http://www.w3.org/2000/svg" width="21" height="21" viewBox="0 0 21 21" fill="none">
<path d="M10.4429 0.5C4.92287 0.5 0.442871 4.98 0.442871 10.5C0.442871 16.02 4.92287 20.5 10.4429 20.5C15.9629 20.5 20.4429 16.02 20.4429 10.5C20.4429 4.98 15.9629 0.5 10.4429 0.5ZM10.4429 18.5C6.03287 18.5 2.44287 14.91 2.44287 10.5C2.44287 6.09 6.03287 2.5 10.4429 2.5C14.8529 2.5 18.4429 6.09 18.4429 10.5C18.4429 14.91 14.8529 18.5 10.4429 18.5ZM4.94287 16L12.4529 12.51L15.9429 5L8.43287 8.49L4.94287 16ZM10.4429 9.4C11.0529 9.4 11.5429 9.89 11.5429 10.5C11.5429 11.11 11.0529 11.6 10.4429 11.6C9.83287 11.6 9.34287 11.11 9.34287 10.5C9.34287 9.89 9.83287 9.4 10.4429 9.4Z" fill="#ff5757"/>
</svg>