<svg xmlns="http://www.w3.org/2000/svg" width="26" height="26" viewBox="0 0 26 26" fill="none">
<path d="M3.66968 6.38281H5.76758H22.5508" stroke="#5D6B98" stroke-width="1.57342" stroke-linecap="round" stroke-linejoin="round"/>
<path d="M20.4536 6.3833V21.0686C20.4536 21.625 20.2326 22.1586 19.8391 22.552C19.4457 22.9455 18.9121 23.1665 18.3557 23.1665H7.86621C7.30981 23.1665 6.7762 22.9455 6.38277 22.552C5.98934 22.1586 5.76831 21.625 5.76831 21.0686V6.3833M8.91516 6.3833V4.2854C8.91516 3.729 9.13619 3.19539 9.52962 2.80196C9.92305 2.40853 10.4567 2.1875 11.0131 2.1875H15.2089C15.7653 2.1875 16.2989 2.40853 16.6923 2.80196C17.0857 3.19539 17.3068 3.729 17.3068 4.2854V6.3833" stroke="#5D6B98" stroke-width="1.57342" stroke-linecap="round" stroke-linejoin="round"/>
<path d="M11.0125 11.627V17.9207" stroke="#5D6B98" stroke-width="1.57342" stroke-linecap="round" stroke-linejoin="round"/>
<path d="M15.21 11.627V17.9207" stroke="#5D6B98" stroke-width="1.57342" stroke-linecap="round" stroke-linejoin="round"/>
</svg>