<svg xmlns="http://www.w3.org/2000/svg" width="15" height="9" viewBox="0 0 15 9" fill="none">
<path fill-rule="evenodd" clip-rule="evenodd" d="M14.0115 0.914953V3.56533C14.0115 3.69603 13.9727 3.82379 13.9001 3.93246C13.8275 4.04112 13.7242 4.12582 13.6035 4.17583C13.4827 4.22585 13.3499 4.23893 13.2217 4.21344C13.0935 4.18795 12.9757 4.12503 12.8833 4.03262L12.0287 3.17802L8.53032 6.67639C8.40637 6.8003 8.23829 6.8699 8.06303 6.8699C7.88777 6.8699 7.71969 6.8003 7.59574 6.67639L5.41926 4.49991L1.92089 7.99828C1.79623 8.11867 1.62928 8.18529 1.45598 8.18378C1.28268 8.18228 1.11691 8.11277 0.994367 7.99022C0.871823 7.86768 0.802312 7.70191 0.800806 7.52861C0.7993 7.35531 0.86592 7.18836 0.986316 7.0637L4.95197 3.09805C5.07592 2.97414 5.244 2.90453 5.41926 2.90453C5.59452 2.90453 5.7626 2.97414 5.88654 3.09805L8.06303 5.27453L11.0941 2.24345L10.2395 1.38885C10.1471 1.29642 10.0842 1.17866 10.0587 1.05047C10.0332 0.922276 10.0463 0.789404 10.0963 0.66865C10.1463 0.547896 10.231 0.444681 10.3397 0.372054C10.4483 0.299427 10.5761 0.260648 10.7068 0.26062H13.3506L13.3823 0.261281C13.5511 0.268744 13.7106 0.340841 13.8277 0.462646C13.9449 0.58445 14.0107 0.746633 14.0115 0.915614" fill="#FF5757"/>
</svg>