<svg width="24" height="24" viewBox="0 0 24 24" fill="none" xmlns="http://www.w3.org/2000/svg">
<g clip-path="url(#clip0_295_5962)">
<path d="M20.3679 22.2897C20.6831 21.8483 20.9298 21.131 21.0943 19.0759C21.1903 17.8207 21.2451 16.2069 21.2451 14.5379C21.2451 12.8828 21.1766 11.3104 21.0669 10.1104C20.8887 8.13794 20.6283 7.36553 20.0252 6.91036C19.6689 6.64829 18.7505 5.98622 13.3091 5.87587L13.2954 5.84829C13.0898 5.48967 12.7471 5.18622 12.3222 4.97932L12.6786 4.59312C12.5963 4.60691 12.5004 4.6207 12.4181 4.63449L12.0069 4.19312L11.5958 4.63449C11.5135 4.6207 11.4176 4.60691 11.3353 4.59312L11.6917 4.97932C11.2668 5.18622 10.9241 5.48967 10.7185 5.84829L10.7048 5.87587C5.26337 5.98622 4.34504 6.64829 3.98867 6.91036C3.37188 7.35174 3.12517 8.13794 2.94698 10.1104C2.83733 11.3104 2.78251 12.8828 2.7688 14.5379C2.7688 16.1931 2.82362 17.8069 2.91957 19.0759C3.08405 21.131 3.33076 21.8483 3.64601 22.2897C4.16686 23.0345 5.23596 23.4621 7.2234 23.7241C8.26509 23.8621 10.2525 23.9448 12.0207 23.9862C13.7888 23.9586 15.7762 23.8621 16.8179 23.7241C18.7779 23.4621 19.847 23.0345 20.3679 22.2897Z" fill="#10069F"/>
<path d="M12.0068 4.2069L12.418 4.64828C12.5003 4.63448 12.5962 4.62069 12.6785 4.6069L15.4609 1.58621C15.5294 1.6 15.5842 1.61379 15.6528 1.61379C16.0914 1.61379 16.4477 1.25517 16.4477 0.813793C16.4477 0.372414 16.0914 0 15.6528 0C15.2142 0 14.8578 0.358621 14.8578 0.8C14.8578 0.910345 14.8852 1.02069 14.9263 1.11724L12.0068 4.2069ZM7.19589 23.7241C5.22216 23.4621 4.15305 23.0345 3.6185 22.2897C3.30325 21.8483 3.05654 21.131 2.89206 19.0759C2.79612 17.8207 2.74129 16.2069 2.74129 14.5379C2.74129 12.8828 2.80982 11.3103 2.91947 10.1103C3.09766 8.13793 3.35808 7.36552 3.96116 6.91034C4.31753 6.64828 5.23586 5.98621 10.6773 5.87586L10.691 5.84828C10.8966 5.48966 11.2393 5.18621 11.6642 4.97931L11.3078 4.5931C11.0885 4.55172 10.8555 4.52414 10.6225 4.52414H10.5677C10.2387 4.52414 9.92347 4.56552 9.62193 4.63448L6.31867 1.11724C6.35979 1.02069 6.3872 0.910345 6.3872 0.8C6.3872 0.358621 6.03084 0 5.59223 0C5.15362 0 4.79726 0.358621 4.79726 0.8C4.79726 1.24138 5.15362 1.6 5.59223 1.6C5.66076 1.6 5.71559 1.58621 5.78412 1.57241L8.9366 4.9931C8.5117 5.2 8.16904 5.50345 7.96345 5.86207L7.94974 5.87586C2.50828 5.98621 1.58995 6.64828 1.23358 6.91034C0.61679 7.35172 0.370074 8.13793 0.19189 10.1103C0.0685322 11.3103 0 12.8828 0 14.5379C0 16.1931 0.0548258 17.8069 0.150771 19.0759C0.315248 21.131 0.561964 21.8483 0.877213 22.2897C1.39806 23.0345 2.46716 23.4621 4.4546 23.7241C5.78412 23.9034 8.63506 23.9862 10.6088 24H10.6636C11.0885 24 11.5408 24 12.0206 23.9862C10.2387 23.9448 8.25128 23.8621 7.19589 23.7241Z" fill="#FF671F"/>
<path d="M12.0068 4.2069L11.5956 4.64828C11.5134 4.63448 11.4175 4.62069 11.3352 4.6069L8.53911 1.55862C8.47058 1.57241 8.41575 1.58621 8.34722 1.58621C7.90861 1.58621 7.55225 1.22759 7.55225 0.786207C7.55225 0.344828 7.90861 0 8.34722 0C8.78583 0 9.14219 0.358621 9.14219 0.8C9.14219 0.910345 9.11478 1.02069 9.07366 1.11724L12.0068 4.2069ZM23.8355 10.1103C23.6573 8.13793 23.3969 7.36552 22.7938 6.91034C22.4374 6.64828 21.5191 5.98621 16.0777 5.87586L16.0639 5.84828C15.8584 5.48966 15.5157 5.18621 15.0908 4.97931L18.2433 1.55862C18.3118 1.57241 18.3666 1.58621 18.4352 1.58621C18.8738 1.58621 19.2301 1.22759 19.2301 0.786207C19.2301 0.344828 18.8464 0 18.4078 0C17.9691 0 17.6128 0.358621 17.6128 0.8C17.6128 0.910345 17.6402 1.02069 17.6813 1.11724L14.3506 4.63448C14.0491 4.56552 13.7339 4.52414 13.4049 4.52414H13.3501C13.1171 4.52414 12.8841 4.55172 12.6648 4.5931L12.3084 4.97931C12.7333 5.18621 13.0759 5.48966 13.2815 5.84828L13.2952 5.87586C18.7367 5.98621 19.655 6.64828 20.0114 6.91034C20.6282 7.35172 20.8749 8.13793 21.0531 10.1103C21.1627 11.3103 21.2176 12.8828 21.2313 14.5379C21.2313 16.1931 21.1765 17.8069 21.0805 19.0759C20.916 21.131 20.6693 21.8483 20.3541 22.2897C19.8332 23.0345 18.7641 23.4621 16.7767 23.7241C15.735 23.8621 13.7476 23.9448 11.9794 23.9862C12.4592 24 12.9115 24 13.3364 24H13.3912C15.3649 24 18.2159 23.9034 19.5454 23.7241C21.5191 23.4621 22.5882 23.0345 23.1228 22.2897C23.438 21.8483 23.6847 21.131 23.8492 19.0759C23.9452 17.8207 24 16.2069 24 14.5379C24 12.8828 23.9314 11.3103 23.8355 10.1103Z" fill="#00A3E0"/>
<path d="M5.93481 9.69678H9.70409V20.1382H5.93481V9.69678ZM10.7458 9.69678H18.6681V13.0899L16.5847 12.9933V20.1382H12.8155V12.9933L10.7321 13.0899V9.69678H10.7458Z" fill="white"/>
</g>
<defs>
<clipPath id="clip0_295_5962">
<rect width="24" height="24" fill="white"/>
</clipPath>
</defs>
</svg>
