<svg xmlns="http://www.w3.org/2000/svg" width="21" height="19" viewBox="0 0 21 19" fill="none">
<path fill-rule="evenodd" clip-rule="evenodd" d="M0.445312 2.54857C0.445312 1.46248 1.32576 0.582031 2.41186 0.582031H18.1442C19.2303 0.582031 20.1107 1.46248 20.1107 2.54857V12.3813C20.1107 13.4674 19.2303 14.3478 18.1442 14.3478H2.41186C1.32576 14.3478 0.445312 13.4674 0.445312 12.3813V2.54857ZM18.1442 2.54857H2.41186V12.3813H18.1442V2.54857Z" fill="#FF5757"/>
<path fill-rule="evenodd" clip-rule="evenodd" d="M4.37838 17.2976C4.37838 16.7545 4.8186 16.3143 5.36165 16.3143H15.1944C15.7374 16.3143 16.1776 16.7545 16.1776 17.2976C16.1776 17.8406 15.7374 18.2808 15.1944 18.2808H5.36165C4.8186 18.2808 4.37838 17.8406 4.37838 17.2976Z" fill="#FF5757"/>
<path fill-rule="evenodd" clip-rule="evenodd" d="M7.32821 12.3813C7.87126 12.3813 8.31148 12.8215 8.31148 13.3646V17.2976C8.31148 17.8407 7.87126 18.2809 7.32821 18.2809C6.78517 18.2809 6.34494 17.8407 6.34494 17.2976V13.3646C6.34494 12.8215 6.78517 12.3813 7.32821 12.3813Z" fill="#FF5757"/>
<path fill-rule="evenodd" clip-rule="evenodd" d="M13.2278 12.3813C13.7709 12.3813 14.2111 12.8215 14.2111 13.3646V17.2976C14.2111 17.8407 13.7709 18.2809 13.2278 18.2809C12.6848 18.2809 12.2446 17.8407 12.2446 17.2976V13.3646C12.2446 12.8215 12.6848 12.3813 13.2278 12.3813Z" fill="#FF5757"/>
</svg>