<svg xmlns="http://www.w3.org/2000/svg" width="107" height="77" viewBox="0 0 107 77" fill="none">
<path d="M2.78903 62.2763V67.1582C2.78903 67.8107 2.93053 68.3021 3.21355 68.6323C3.50442 68.9546 3.92108 69.1157 4.46352 69.1157C4.9981 69.1157 5.40689 68.9546 5.6899 68.6323C5.98078 68.3021 6.12621 67.8107 6.12621 67.1582V62.2763H7.77712V67.1582C7.77712 67.9287 7.63168 68.5812 7.34081 69.1157C7.0578 69.6425 6.66079 70.0355 6.1498 70.295C5.64667 70.5544 5.07278 70.6841 4.42814 70.6841C3.42974 70.6841 2.6318 70.3854 2.03433 69.7879C1.43686 69.1904 1.13812 68.3139 1.13812 67.1582V62.2763H2.78903ZM13.2953 63.9861C13.8456 63.9861 14.3408 64.1198 14.7811 64.3871C15.2213 64.6544 15.5633 65.0435 15.807 65.5545C16.0586 66.0576 16.1844 66.6512 16.1844 67.3351C16.1844 68.0191 16.0586 68.6165 15.807 69.1275C15.5633 69.6307 15.2213 70.0159 14.7811 70.2832C14.3408 70.5505 13.8456 70.6841 13.2953 70.6841C12.745 70.6841 12.2733 70.5544 11.8802 70.295C11.495 70.0277 11.2199 69.6739 11.0548 69.2337V73.7147H9.39206V64.0687H11.0548V65.4248C11.2199 64.9846 11.495 64.6347 11.8802 64.3753C12.2733 64.1159 12.745 63.9861 13.2953 63.9861ZM12.7764 65.4366C12.2733 65.4366 11.8566 65.6095 11.5264 65.9554C11.2041 66.2935 11.043 66.7534 11.043 67.3351C11.043 67.909 11.2041 68.3689 11.5264 68.7148C11.8566 69.0529 12.2733 69.2219 12.7764 69.2219C13.2953 69.2219 13.7119 69.0568 14.0264 68.7266C14.3408 68.3886 14.4981 67.9247 14.4981 67.3351C14.4981 66.7455 14.3408 66.2817 14.0264 65.9437C13.7119 65.6056 13.2953 65.4366 12.7764 65.4366ZM19.1809 61.8754V70.6016H17.5182V61.8754H19.1809ZM23.8611 63.9861C24.4979 63.9861 25.0678 64.1198 25.571 64.3871C26.082 64.6544 26.4829 65.0435 26.7738 65.5545C27.0646 66.0576 27.2101 66.6512 27.2101 67.3351C27.2101 68.0191 27.0646 68.6126 26.7738 69.1157C26.4829 69.6189 26.082 70.008 25.571 70.2832C25.0678 70.5505 24.4979 70.6841 23.8611 70.6841C23.2243 70.6841 22.6504 70.5505 22.1394 70.2832C21.6363 70.008 21.2393 69.6189 20.9484 69.1157C20.6576 68.6126 20.5121 68.0191 20.5121 67.3351C20.5121 66.6512 20.6576 66.0576 20.9484 65.5545C21.2393 65.0435 21.6363 64.6544 22.1394 64.3871C22.6504 64.1198 23.2243 63.9861 23.8611 63.9861ZM23.8611 65.4248C23.3973 65.4248 23.0042 65.5899 22.6819 65.9201C22.3596 66.2424 22.1984 66.7141 22.1984 67.3351C22.1984 67.9562 22.3596 68.4318 22.6819 68.762C23.0042 69.0843 23.3973 69.2455 23.8611 69.2455C24.3249 69.2455 24.718 69.0843 25.0403 68.762C25.3626 68.4318 25.5238 67.9562 25.5238 67.3351C25.5238 66.7141 25.3626 66.2424 25.0403 65.9201C24.718 65.5899 24.3249 65.4248 23.8611 65.4248ZM31.1013 63.9861C31.6516 63.9861 32.1233 64.1159 32.5163 64.3753C32.9094 64.6347 33.1885 64.9846 33.3536 65.4248V64.0687H35.0045V70.6016H33.3536V69.2337C33.1885 69.6739 32.9094 70.0277 32.5163 70.295C32.1233 70.5544 31.6516 70.6841 31.1013 70.6841C30.551 70.6841 30.0557 70.5505 29.6155 70.2832C29.1752 70.0159 28.8293 69.6307 28.5778 69.1275C28.334 68.6165 28.2122 68.0191 28.2122 67.3351C28.2122 66.6512 28.334 66.0576 28.5778 65.5545C28.8293 65.0435 29.1752 64.6544 29.6155 64.3871C30.0557 64.1198 30.551 63.9861 31.1013 63.9861ZM31.6201 65.4366C31.1013 65.4366 30.6846 65.6056 30.3702 65.9437C30.0557 66.2817 29.8985 66.7455 29.8985 67.3351C29.8985 67.9247 30.0557 68.3886 30.3702 68.7266C30.6846 69.0568 31.1013 69.2219 31.6201 69.2219C32.1233 69.2219 32.536 69.0529 32.8583 68.7148C33.1885 68.3689 33.3536 67.909 33.3536 67.3351C33.3536 66.7534 33.1885 66.2935 32.8583 65.9554C32.536 65.6095 32.1233 65.4366 31.6201 65.4366ZM39.2274 63.9861C39.7777 63.9861 40.2455 64.1159 40.6307 64.3753C41.0238 64.6347 41.3068 64.9846 41.4797 65.4248V61.8754H43.1307V70.6016H41.4797V69.2337C41.3068 69.6739 41.0238 70.0277 40.6307 70.295C40.2455 70.5544 39.7777 70.6841 39.2274 70.6841C38.6771 70.6841 38.1819 70.5505 37.7416 70.2832C37.3014 70.0159 36.9555 69.6307 36.7039 69.1275C36.4602 68.6165 36.3384 68.0191 36.3384 67.3351C36.3384 66.6512 36.4602 66.0576 36.7039 65.5545C36.9555 65.0435 37.3014 64.6544 37.7416 64.3871C38.1819 64.1198 38.6771 63.9861 39.2274 63.9861ZM39.7463 65.4366C39.2274 65.4366 38.8108 65.6056 38.4963 65.9437C38.1819 66.2817 38.0246 66.7455 38.0246 67.3351C38.0246 67.9247 38.1819 68.3886 38.4963 68.7266C38.8108 69.0568 39.2274 69.2219 39.7463 69.2219C40.2494 69.2219 40.6622 69.0529 40.9845 68.7148C41.3147 68.3689 41.4797 67.909 41.4797 67.3351C41.4797 66.7534 41.3147 66.2935 40.9845 65.9554C40.6622 65.6095 40.2494 65.4366 39.7463 65.4366ZM53.2392 68.3257C53.2392 68.7502 53.133 69.1433 52.9208 69.5049C52.7085 69.8587 52.3941 70.1456 51.9774 70.3657C51.5607 70.578 51.0537 70.6841 50.4562 70.6841C49.8666 70.6841 49.3399 70.5858 48.8761 70.3893C48.4122 70.1849 48.0388 69.894 47.7558 69.5167C47.4806 69.1393 47.3234 68.6991 47.2841 68.196H49.0529C49.0922 68.534 49.2259 68.817 49.4539 69.045C49.6897 69.2651 50.0002 69.3752 50.3855 69.3752C50.7314 69.3752 50.9947 69.2848 51.1755 69.104C51.3642 68.9153 51.4585 68.6755 51.4585 68.3846C51.4585 68.1252 51.3839 67.9129 51.2345 67.7479C51.0851 67.5749 50.8964 67.4373 50.6685 67.3351C50.4405 67.2329 50.126 67.115 49.7251 66.9814C49.2062 66.8084 48.7817 66.6394 48.4515 66.4743C48.1214 66.3013 47.8383 66.0537 47.6025 65.7314C47.3745 65.4091 47.2605 64.9885 47.2605 64.4696C47.2605 63.7542 47.516 63.1921 48.027 62.7833C48.5459 62.3667 49.2298 62.1584 50.0789 62.1584C50.9593 62.1584 51.659 62.3706 52.1779 62.7951C52.7046 63.2197 53.0033 63.7857 53.0741 64.4932H51.2817C51.2345 64.1945 51.1087 63.9508 50.9043 63.7621C50.6999 63.5656 50.4208 63.4673 50.0671 63.4673C49.7605 63.4673 49.5128 63.5498 49.3242 63.7149C49.1355 63.8722 49.0411 64.1041 49.0411 64.4107C49.0411 64.6544 49.1119 64.8588 49.2534 65.0239C49.4028 65.1811 49.5875 65.3108 49.8076 65.413C50.0356 65.5152 50.3422 65.6292 50.7274 65.755C51.262 65.9437 51.6944 66.1205 52.0246 66.2856C52.3626 66.4507 52.6496 66.6984 52.8854 67.0285C53.1212 67.3587 53.2392 67.7911 53.2392 68.3257ZM54.4325 62.1937C54.4325 61.9264 54.5269 61.7103 54.7155 61.5452C54.9042 61.3722 55.1519 61.2857 55.4585 61.2857C55.765 61.2857 56.0127 61.3722 56.2014 61.5452C56.39 61.7103 56.4844 61.9264 56.4844 62.1937C56.4844 62.4532 56.39 62.6694 56.2014 62.8423C56.0127 63.0074 55.765 63.0899 55.4585 63.0899C55.1519 63.0899 54.9042 63.0074 54.7155 62.8423C54.5269 62.6694 54.4325 62.4532 54.4325 62.1937ZM56.2839 64.0687V70.6016H54.6212V64.0687H56.2839ZM60.5042 63.9861C61.0545 63.9861 61.5262 64.1159 61.9192 64.3753C62.3123 64.6347 62.5914 64.9846 62.7565 65.4248V64.0687H64.4074V70.6251C64.4074 71.2305 64.2855 71.7729 64.0418 72.2525C63.806 72.7399 63.4483 73.1212 62.9687 73.3963C62.4971 73.6715 61.9232 73.809 61.2471 73.809C60.3037 73.809 59.5412 73.585 58.9594 73.1369C58.3777 72.6888 58.0239 72.0795 57.8981 71.3091H59.5372C59.6316 71.6393 59.8124 71.8948 60.0797 72.0756C60.3548 72.2643 60.7047 72.3586 61.1292 72.3586C61.6166 72.3586 62.0097 72.2132 62.3084 71.9223C62.6071 71.6393 62.7565 71.2069 62.7565 70.6251V69.2337C62.5914 69.6739 62.3123 70.0277 61.9192 70.295C61.5262 70.5544 61.0545 70.6841 60.5042 70.6841C59.9539 70.6841 59.4586 70.5505 59.0184 70.2832C58.5781 70.0159 58.2322 69.6307 57.9807 69.1275C57.737 68.6165 57.6151 68.0191 57.6151 67.3351C57.6151 66.6512 57.737 66.0576 57.9807 65.5545C58.2322 65.0435 58.5781 64.6544 59.0184 64.3871C59.4586 64.1198 59.9539 63.9861 60.5042 63.9861ZM61.023 65.4366C60.5042 65.4366 60.0875 65.6056 59.7731 65.9437C59.4586 66.2817 59.3014 66.7455 59.3014 67.3351C59.3014 67.9247 59.4586 68.3886 59.7731 68.7266C60.0875 69.0568 60.5042 69.2219 61.023 69.2219C61.5262 69.2219 61.9389 69.0529 62.2612 68.7148C62.5914 68.3689 62.7565 67.909 62.7565 67.3351C62.7565 66.7534 62.5914 66.2935 62.2612 65.9554C61.9389 65.6095 61.5262 65.4366 61.023 65.4366ZM69.9629 63.9744C70.7176 63.9744 71.319 64.222 71.7671 64.7173C72.2152 65.2125 72.4392 65.9083 72.4392 66.8045V70.6016H70.7883V66.9932C70.7883 66.4743 70.6547 66.0734 70.3874 65.7904C70.1201 65.4995 69.7545 65.354 69.2907 65.354C68.819 65.354 68.4417 65.5073 68.1587 65.8139C67.8756 66.1205 67.7341 66.5608 67.7341 67.1347V70.6016H66.0714V64.0687H67.7341V65.3776C67.9071 64.9374 68.1901 64.5954 68.5832 64.3517C68.9841 64.1001 69.444 63.9744 69.9629 63.9744ZM76.6183 63.9861C77.1686 63.9861 77.6403 64.1159 78.0334 64.3753C78.4265 64.6347 78.7055 64.9846 78.8706 65.4248V64.0687H80.5215V70.6016H78.8706V69.2337C78.7055 69.6739 78.4265 70.0277 78.0334 70.295C77.6403 70.5544 77.1686 70.6841 76.6183 70.6841C76.068 70.6841 75.5727 70.5505 75.1325 70.2832C74.6923 70.0159 74.3464 69.6307 74.0948 69.1275C73.8511 68.6165 73.7292 68.0191 73.7292 67.3351C73.7292 66.6512 73.8511 66.0576 74.0948 65.5545C74.3464 65.0435 74.6923 64.6544 75.1325 64.3871C75.5727 64.1198 76.068 63.9861 76.6183 63.9861ZM77.1372 65.4366C76.6183 65.4366 76.2017 65.6056 75.8872 65.9437C75.5727 66.2817 75.4155 66.7455 75.4155 67.3351C75.4155 67.9247 75.5727 68.3886 75.8872 68.7266C76.2017 69.0568 76.6183 69.2219 77.1372 69.2219C77.6403 69.2219 78.053 69.0529 78.3754 68.7148C78.7055 68.3689 78.8706 67.909 78.8706 67.3351C78.8706 66.7534 78.7055 66.2935 78.3754 65.9554C78.053 65.6095 77.6403 65.4366 77.1372 65.4366ZM85.6761 69.1747V70.6016H84.8034C84.0723 70.6016 83.5102 70.4247 83.1172 70.0709C82.7319 69.7171 82.5393 69.1275 82.5393 68.3021V65.472H81.6313V64.0687H82.5393V62.4532H84.202V64.0687H85.6643V65.472H84.202V68.3257C84.202 68.6401 84.2649 68.8603 84.3907 68.986C84.5165 69.1118 84.7288 69.1747 85.0275 69.1747H85.6761ZM93.2796 64.0687V70.6016H91.6169V69.2808C91.4439 69.7211 91.157 70.067 90.7561 70.3186C90.363 70.5623 89.907 70.6841 89.3882 70.6841C88.6335 70.6841 88.0321 70.4365 87.584 69.9412C87.1359 69.4459 86.9118 68.7541 86.9118 67.8658V64.0687H88.5627V67.6771C88.5627 68.196 88.6964 68.6008 88.9637 68.8917C89.2309 69.1747 89.5926 69.3162 90.0485 69.3162C90.5281 69.3162 90.9094 69.1629 91.1924 68.8563C91.4754 68.5497 91.6169 68.1095 91.6169 67.5356V64.0687H93.2796ZM96.6113 65.3187C96.855 64.902 97.1773 64.5758 97.5783 64.3399C97.9792 64.0962 98.4273 63.9744 98.9226 63.9744V65.755H98.4391C97.2206 65.755 96.6113 66.321 96.6113 67.4531V70.6016H94.9486V64.0687H96.6113V65.3187ZM106.144 67.0875C106.144 67.2526 106.124 67.4413 106.085 67.6535H101.297C101.321 68.2353 101.478 68.6637 101.769 68.9389C102.06 69.214 102.421 69.3516 102.854 69.3516C103.239 69.3516 103.557 69.2573 103.809 69.0686C104.068 68.8799 104.233 68.6244 104.304 68.3021H106.061C105.975 68.7581 105.79 69.1668 105.507 69.5285C105.224 69.8901 104.858 70.1731 104.41 70.3775C103.97 70.5819 103.479 70.6841 102.936 70.6841C102.3 70.6841 101.734 70.5505 101.238 70.2832C100.743 70.008 100.358 69.6189 100.083 69.1157C99.8075 68.6126 99.6699 68.0191 99.6699 67.3351C99.6699 66.6512 99.8075 66.0576 100.083 65.5545C100.358 65.0435 100.743 64.6544 101.238 64.3871C101.734 64.1198 102.3 63.9861 102.936 63.9861C103.581 63.9861 104.143 64.1198 104.623 64.3871C105.11 64.6544 105.483 65.0239 105.743 65.4955C106.01 65.9594 106.144 66.49 106.144 67.0875ZM104.469 66.9224C104.493 66.3878 104.351 65.983 104.045 65.7078C103.746 65.4327 103.377 65.2951 102.936 65.2951C102.488 65.2951 102.111 65.4327 101.804 65.7078C101.498 65.983 101.329 66.3878 101.297 66.9224H104.469Z" fill="#FF5757"/>
<g clip-path="url(#clip0_1256_7788)">
<path opacity="0.3" d="M48.918 17.2968H51.4474V30.2682H55.7712V17.2968H58.3006L53.6093 12.6055L48.918 17.2968Z" fill="#FF5757"/>
<path d="M53.6099 6.48438L38.4766 21.6177H47.1242V34.5891H60.0956V21.6177H68.7431L53.6099 6.48438ZM55.7718 17.2939V30.2653H51.448V17.2939H48.9185L53.6099 12.6025L58.3012 17.2939H55.7718ZM38.4766 38.9129H68.7431V43.2367H38.4766V38.9129Z" fill="#FF5757"/>
</g>
<defs>
<clipPath id="clip0_1256_7788">
<rect width="51.8856" height="51.8856" fill="white" transform="translate(27.667)"/>
</clipPath>
</defs>
</svg>