<svg width="119" height="100" viewBox="0 0 119 100" fill="none" xmlns="http://www.w3.org/2000/svg">
<path d="M3.97622 80.8195V87.1719C3.97622 88.0209 4.16035 88.6603 4.5286 89.0899C4.90709 89.5093 5.44925 89.719 6.15507 89.719C6.85067 89.719 7.38259 89.5093 7.75085 89.0899C8.12934 88.6603 8.31858 88.0209 8.31858 87.1719V80.8195H10.4667V87.1719C10.4667 88.1744 10.2775 89.0234 9.89902 89.719C9.53076 90.4044 9.01418 90.9158 8.34927 91.2534C7.69459 91.591 6.94785 91.7598 6.10904 91.7598C4.80991 91.7598 3.77163 91.371 2.9942 90.5936C2.21677 89.8162 1.82805 88.6756 1.82805 87.1719V80.8195H3.97622ZM17.647 83.0443C18.3631 83.0443 19.0075 83.2182 19.5803 83.566C20.1532 83.9138 20.5982 84.4202 20.9153 85.0851C21.2426 85.7398 21.4063 86.5121 21.4063 87.402C21.4063 88.292 21.2426 89.0694 20.9153 89.7343C20.5982 90.389 20.1532 90.8903 19.5803 91.2381C19.0075 91.5859 18.3631 91.7598 17.647 91.7598C16.9309 91.7598 16.3172 91.591 15.8057 91.2534C15.3045 90.9056 14.9464 90.4453 14.7316 89.8724V95.7032H12.5681V83.1517H14.7316V84.9163C14.9464 84.3435 15.3045 83.8883 15.8057 83.5507C16.3172 83.2131 16.9309 83.0443 17.647 83.0443ZM16.9719 84.9317C16.3172 84.9317 15.775 85.1567 15.3454 85.6068C14.926 86.0467 14.7163 86.6451 14.7163 87.402C14.7163 88.1488 14.926 88.7472 15.3454 89.1973C15.775 89.6372 16.3172 89.8571 16.9719 89.8571C17.647 89.8571 18.1892 89.6423 18.5983 89.2126C19.0075 88.7728 19.2121 88.1692 19.2121 87.402C19.2121 86.6348 19.0075 86.0313 18.5983 85.5914C18.1892 85.1516 17.647 84.9317 16.9719 84.9317ZM25.3054 80.2978V91.6523H23.1419V80.2978H25.3054ZM31.3953 83.0443C32.2239 83.0443 32.9655 83.2182 33.6202 83.566C34.2851 83.9138 34.8068 84.4202 35.1853 85.0851C35.5638 85.7398 35.753 86.5121 35.753 87.402C35.753 88.292 35.5638 89.0643 35.1853 89.719C34.8068 90.3737 34.2851 90.88 33.6202 91.2381C32.9655 91.5859 32.2239 91.7598 31.3953 91.7598C30.5667 91.7598 29.82 91.5859 29.1551 91.2381C28.5004 90.88 27.9838 90.3737 27.6053 89.719C27.2268 89.0643 27.0376 88.292 27.0376 87.402C27.0376 86.5121 27.2268 85.7398 27.6053 85.0851C27.9838 84.4202 28.5004 83.9138 29.1551 83.566C29.82 83.2182 30.5667 83.0443 31.3953 83.0443ZM31.3953 84.9163C30.7918 84.9163 30.2803 85.1311 29.8609 85.5608C29.4415 85.9802 29.2318 86.5939 29.2318 87.402C29.2318 88.2102 29.4415 88.829 29.8609 89.2587C30.2803 89.6781 30.7918 89.8878 31.3953 89.8878C31.9988 89.8878 32.5103 89.6781 32.9297 89.2587C33.3491 88.829 33.5588 88.2102 33.5588 87.402C33.5588 86.5939 33.3491 85.9802 32.9297 85.5608C32.5103 85.1311 31.9988 84.9163 31.3953 84.9163ZM40.8163 83.0443C41.5323 83.0443 42.1461 83.2131 42.6575 83.5507C43.169 83.8883 43.5322 84.3435 43.747 84.9163V83.1517H45.8951V91.6523H43.747V89.8724C43.5322 90.4453 43.169 90.9056 42.6575 91.2534C42.1461 91.591 41.5323 91.7598 40.8163 91.7598C40.1002 91.7598 39.4558 91.5859 38.8829 91.2381C38.3101 90.8903 37.86 90.389 37.5326 89.7343C37.2155 89.0694 37.057 88.292 37.057 87.402C37.057 86.5121 37.2155 85.7398 37.5326 85.0851C37.86 84.4202 38.3101 83.9138 38.8829 83.566C39.4558 83.2182 40.1002 83.0443 40.8163 83.0443ZM41.4914 84.9317C40.8163 84.9317 40.2741 85.1516 39.8649 85.5914C39.4558 86.0313 39.2512 86.6348 39.2512 87.402C39.2512 88.1692 39.4558 88.7728 39.8649 89.2126C40.2741 89.6423 40.8163 89.8571 41.4914 89.8571C42.1461 89.8571 42.6831 89.6372 43.1025 89.1973C43.5322 88.7472 43.747 88.1488 43.747 87.402C43.747 86.6451 43.5322 86.0467 43.1025 85.6068C42.6831 85.1567 42.1461 84.9317 41.4914 84.9317ZM51.3901 83.0443C52.1061 83.0443 52.7148 83.2131 53.216 83.5507C53.7275 83.8883 54.0957 84.3435 54.3208 84.9163V80.2978H56.4689V91.6523H54.3208V89.8724C54.0957 90.4453 53.7275 90.9056 53.216 91.2534C52.7148 91.591 52.1061 91.7598 51.3901 91.7598C50.674 91.7598 50.0296 91.5859 49.4567 91.2381C48.8839 90.8903 48.4338 90.389 48.1064 89.7343C47.7893 89.0694 47.6308 88.292 47.6308 87.402C47.6308 86.5121 47.7893 85.7398 48.1064 85.0851C48.4338 84.4202 48.8839 83.9138 49.4567 83.566C50.0296 83.2182 50.674 83.0443 51.3901 83.0443ZM52.0652 84.9317C51.3901 84.9317 50.8479 85.1516 50.4387 85.5914C50.0296 86.0313 49.825 86.6348 49.825 87.402C49.825 88.1692 50.0296 88.7728 50.4387 89.2126C50.8479 89.6423 51.3901 89.8571 52.0652 89.8571C52.7199 89.8571 53.2569 89.6372 53.6763 89.1973C54.106 88.7472 54.3208 88.1488 54.3208 87.402C54.3208 86.6451 54.106 86.0467 53.6763 85.6068C53.2569 85.1567 52.7199 84.9317 52.0652 84.9317ZM68.2259 86.0671C68.8805 86.2001 69.4022 86.5121 69.791 87.0031C70.1899 87.4839 70.3894 88.0516 70.3894 88.7063C70.3894 89.6167 70.0825 90.3379 69.4687 90.8698C68.8652 91.3915 67.9855 91.6523 66.8296 91.6523H62.1803V80.8195H66.7375C67.832 80.8195 68.6708 81.0598 69.2539 81.5406C69.8472 82.0214 70.1439 82.6965 70.1439 83.566C70.1439 84.2412 69.9649 84.7936 69.6068 85.2232C69.259 85.6528 68.7987 85.9341 68.2259 86.0671ZM64.3438 85.3613H66.2925C66.8347 85.3613 67.2438 85.2436 67.52 85.0084C67.8065 84.7629 67.9497 84.4151 67.9497 83.965C67.9497 83.5149 67.8116 83.1671 67.5354 82.9216C67.2592 82.6761 66.8347 82.5533 66.2618 82.5533H64.3438V85.3613ZM66.3999 89.8878C66.9728 89.8878 67.4126 89.765 67.7195 89.5195C68.0264 89.2638 68.1798 88.8955 68.1798 88.4148C68.1798 87.934 68.0213 87.5657 67.7042 87.31C67.3973 87.044 66.9574 86.911 66.3846 86.911H64.3438V89.8878H66.3999ZM75.4394 83.0443C76.1555 83.0443 76.7693 83.2131 77.2807 83.5507C77.7922 83.8883 78.1553 84.3435 78.3702 84.9163V83.1517H80.5183V91.6523H78.3702V89.8724C78.1553 90.4453 77.7922 90.9056 77.2807 91.2534C76.7693 91.591 76.1555 91.7598 75.4394 91.7598C74.7234 91.7598 74.0789 91.5859 73.5061 91.2381C72.9333 90.8903 72.4832 90.389 72.1558 89.7343C71.8387 89.0694 71.6802 88.292 71.6802 87.402C71.6802 86.5121 71.8387 85.7398 72.1558 85.0851C72.4832 84.4202 72.9333 83.9138 73.5061 83.566C74.0789 83.2182 74.7234 83.0443 75.4394 83.0443ZM76.1146 84.9317C75.4394 84.9317 74.8973 85.1516 74.4881 85.5914C74.0789 86.0313 73.8744 86.6348 73.8744 87.402C73.8744 88.1692 74.0789 88.7728 74.4881 89.2126C74.8973 89.6423 75.4394 89.8571 76.1146 89.8571C76.7693 89.8571 77.3063 89.6372 77.7257 89.1973C78.1553 88.7472 78.3702 88.1488 78.3702 87.402C78.3702 86.6451 78.1553 86.0467 77.7257 85.6068C77.3063 85.1567 76.7693 84.9317 76.1146 84.9317ZM87.7471 83.029C88.7291 83.029 89.5117 83.3512 90.0948 83.9957C90.6778 84.6401 90.9694 85.5454 90.9694 86.7116V91.6523H88.8212V86.9571C88.8212 86.2819 88.6473 85.7602 88.2995 85.392C87.9517 85.0135 87.476 84.8242 86.8725 84.8242C86.2587 84.8242 85.7677 85.0237 85.3995 85.4227C85.0312 85.8216 84.8471 86.3945 84.8471 87.1412V91.6523H82.6836V83.1517H84.8471V84.8549C85.0721 84.2821 85.4404 83.8371 85.9519 83.52C86.4736 83.1927 87.072 83.029 87.7471 83.029ZM98.1411 83.029C99.1231 83.029 99.9057 83.3512 100.489 83.9957C101.072 84.6401 101.363 85.5454 101.363 86.7116V91.6523H99.2152V86.9571C99.2152 86.2819 99.0413 85.7602 98.6935 85.392C98.3457 85.0135 97.87 84.8242 97.2665 84.8242C96.6527 84.8242 96.1617 85.0237 95.7935 85.4227C95.4252 85.8216 95.2411 86.3945 95.2411 87.1412V91.6523H93.0776V83.1517H95.2411V84.8549C95.4661 84.2821 95.8344 83.8371 96.3459 83.52C96.8676 83.1927 97.466 83.029 98.1411 83.029ZM111.466 87.0798C111.466 87.2946 111.44 87.5401 111.389 87.8163H105.159C105.19 88.5733 105.395 89.1308 105.773 89.4888C106.152 89.8469 106.622 90.0259 107.185 90.0259C107.686 90.0259 108.1 89.9031 108.428 89.6576C108.765 89.4121 108.98 89.0797 109.072 88.6603H111.358C111.246 89.2536 111.005 89.7855 110.637 90.256C110.269 90.7266 109.793 91.0948 109.21 91.3608C108.637 91.6268 107.998 91.7598 107.292 91.7598C106.464 91.7598 105.727 91.5859 105.083 91.2381C104.438 90.88 103.937 90.3737 103.579 89.719C103.221 89.0643 103.042 88.292 103.042 87.402C103.042 86.5121 103.221 85.7398 103.579 85.0851C103.937 84.4202 104.438 83.9138 105.083 83.566C105.727 83.2182 106.464 83.0443 107.292 83.0443C108.131 83.0443 108.862 83.2182 109.486 83.566C110.121 83.9138 110.607 84.3946 110.944 85.0084C111.292 85.6119 111.466 86.3024 111.466 87.0798ZM109.287 86.865C109.318 86.1694 109.134 85.6426 108.735 85.2846C108.346 84.9265 107.865 84.7475 107.292 84.7475C106.709 84.7475 106.218 84.9265 105.819 85.2846C105.42 85.6426 105.2 86.1694 105.159 86.865H109.287ZM115.37 84.7782C115.687 84.2361 116.106 83.8115 116.628 83.5047C117.15 83.1875 117.733 83.029 118.377 83.029V85.3459H117.748C116.163 85.3459 115.37 86.0825 115.37 87.5555V91.6523H113.206V83.1517H115.37V84.7782Z" fill="#FF5757"/>
<g clip-path="url(#clip0_1121_10823)">
<path opacity="0.3" d="M54.4023 22.5048H57.6936V39.3832H63.3198V22.5048H66.6111L60.5067 16.4004L54.4023 22.5048Z" fill="#FF5757"/>
<path d="M60.5069 8.43945L40.8154 28.131H52.0677V45.0094H68.9462V28.131H80.1985L60.5069 8.43945ZM63.32 22.5048V39.3833H57.6939V22.5048H54.4026L60.5069 16.4005L66.6113 22.5048H63.32ZM40.8154 50.6356H80.1985V56.2617H40.8154V50.6356Z" fill="#FF5757"/>
</g>
<defs>
<clipPath id="clip0_1121_10823">
<rect width="67.5138" height="67.5138" fill="white" transform="translate(26.75)"/>
</clipPath>
</defs>
</svg>
