<svg xmlns="http://www.w3.org/2000/svg" width="76" height="77" viewBox="0 0 76 77" fill="none">
<path d="M2.70446 62.2763V67.1582C2.70446 67.8107 2.84597 68.3021 3.12898 68.6323C3.41985 68.9546 3.83651 69.1157 4.37895 69.1157C4.91353 69.1157 5.32232 68.9546 5.60534 68.6323C5.89621 68.3021 6.04165 67.8107 6.04165 67.1582V62.2763H7.69255V67.1582C7.69255 67.9287 7.54711 68.5812 7.25624 69.1157C6.97323 69.6425 6.57622 70.0355 6.06523 70.295C5.5621 70.5544 4.98821 70.6841 4.34357 70.6841C3.34517 70.6841 2.54723 70.3854 1.94976 69.7879C1.35229 69.1904 1.05355 68.3139 1.05355 67.1582V62.2763H2.70446ZM13.2107 63.9861C13.761 63.9861 14.2563 64.1198 14.6965 64.3871C15.1368 64.6544 15.4787 65.0435 15.7224 65.5545C15.974 66.0576 16.0998 66.6512 16.0998 67.3351C16.0998 68.0191 15.974 68.6165 15.7224 69.1275C15.4787 69.6307 15.1368 70.0159 14.6965 70.2832C14.2563 70.5505 13.761 70.6841 13.2107 70.6841C12.6604 70.6841 12.1887 70.5544 11.7956 70.295C11.4104 70.0277 11.1353 69.6739 10.9702 69.2337V73.7147H9.3075V64.0687H10.9702V65.4248C11.1353 64.9846 11.4104 64.6347 11.7956 64.3753C12.1887 64.1159 12.6604 63.9861 13.2107 63.9861ZM12.6919 65.4366C12.1887 65.4366 11.7721 65.6095 11.4419 65.9554C11.1196 66.2935 10.9584 66.7534 10.9584 67.3351C10.9584 67.909 11.1196 68.3689 11.4419 68.7148C11.7721 69.0529 12.1887 69.2219 12.6919 69.2219C13.2107 69.2219 13.6274 69.0568 13.9418 68.7266C14.2563 68.3886 14.4135 67.9247 14.4135 67.3351C14.4135 66.7455 14.2563 66.2817 13.9418 65.9437C13.6274 65.6056 13.2107 65.4366 12.6919 65.4366ZM19.0964 61.8754V70.6016H17.4337V61.8754H19.0964ZM23.7765 63.9861C24.4133 63.9861 24.9833 64.1198 25.4864 64.3871C25.9974 64.6544 26.3983 65.0435 26.6892 65.5545C26.9801 66.0576 27.1255 66.6512 27.1255 67.3351C27.1255 68.0191 26.9801 68.6126 26.6892 69.1157C26.3983 69.6189 25.9974 70.008 25.4864 70.2832C24.9833 70.5505 24.4133 70.6841 23.7765 70.6841C23.1398 70.6841 22.5659 70.5505 22.0549 70.2832C21.5517 70.008 21.1547 69.6189 20.8639 69.1157C20.573 68.6126 20.4276 68.0191 20.4276 67.3351C20.4276 66.6512 20.573 66.0576 20.8639 65.5545C21.1547 65.0435 21.5517 64.6544 22.0549 64.3871C22.5659 64.1198 23.1398 63.9861 23.7765 63.9861ZM23.7765 65.4248C23.3127 65.4248 22.9196 65.5899 22.5973 65.9201C22.275 66.2424 22.1138 66.7141 22.1138 67.3351C22.1138 67.9562 22.275 68.4318 22.5973 68.762C22.9196 69.0843 23.3127 69.2455 23.7765 69.2455C24.2404 69.2455 24.6334 69.0843 24.9557 68.762C25.2781 68.4318 25.4392 67.9562 25.4392 67.3351C25.4392 66.7141 25.2781 66.2424 24.9557 65.9201C24.6334 65.5899 24.2404 65.4248 23.7765 65.4248ZM31.0167 63.9861C31.567 63.9861 32.0387 64.1159 32.4318 64.3753C32.8248 64.6347 33.1039 64.9846 33.269 65.4248V64.0687H34.9199V70.6016H33.269V69.2337C33.1039 69.6739 32.8248 70.0277 32.4318 70.295C32.0387 70.5544 31.567 70.6841 31.0167 70.6841C30.4664 70.6841 29.9711 70.5505 29.5309 70.2832C29.0907 70.0159 28.7448 69.6307 28.4932 69.1275C28.2495 68.6165 28.1276 68.0191 28.1276 67.3351C28.1276 66.6512 28.2495 66.0576 28.4932 65.5545C28.7448 65.0435 29.0907 64.6544 29.5309 64.3871C29.9711 64.1198 30.4664 63.9861 31.0167 63.9861ZM31.5356 65.4366C31.0167 65.4366 30.6001 65.6056 30.2856 65.9437C29.9711 66.2817 29.8139 66.7455 29.8139 67.3351C29.8139 67.9247 29.9711 68.3886 30.2856 68.7266C30.6001 69.0568 31.0167 69.2219 31.5356 69.2219C32.0387 69.2219 32.4514 69.0529 32.7737 68.7148C33.1039 68.3689 33.269 67.909 33.269 67.3351C33.269 66.7534 33.1039 66.2935 32.7737 65.9554C32.4514 65.6095 32.0387 65.4366 31.5356 65.4366ZM39.1429 63.9861C39.6932 63.9861 40.1609 64.1159 40.5461 64.3753C40.9392 64.6347 41.2222 64.9846 41.3952 65.4248V61.8754H43.0461V70.6016H41.3952V69.2337C41.2222 69.6739 40.9392 70.0277 40.5461 70.295C40.1609 70.5544 39.6932 70.6841 39.1429 70.6841C38.5926 70.6841 38.0973 70.5505 37.6571 70.2832C37.2168 70.0159 36.8709 69.6307 36.6193 69.1275C36.3756 68.6165 36.2538 68.0191 36.2538 67.3351C36.2538 66.6512 36.3756 66.0576 36.6193 65.5545C36.8709 65.0435 37.2168 64.6544 37.6571 64.3871C38.0973 64.1198 38.5926 63.9861 39.1429 63.9861ZM39.6617 65.4366C39.1429 65.4366 38.7262 65.6056 38.4118 65.9437C38.0973 66.2817 37.9401 66.7455 37.9401 67.3351C37.9401 67.9247 38.0973 68.3886 38.4118 68.7266C38.7262 69.0568 39.1429 69.2219 39.6617 69.2219C40.1649 69.2219 40.5776 69.0529 40.8999 68.7148C41.2301 68.3689 41.3952 67.909 41.3952 67.3351C41.3952 66.7534 41.2301 66.2935 40.8999 65.9554C40.5776 65.6095 40.1649 65.4366 39.6617 65.4366ZM49.0981 69.328H51.8928V70.6016H47.4354V62.2763H49.0981V69.328ZM56.0584 63.9861C56.6952 63.9861 57.2651 64.1198 57.7683 64.3871C58.2792 64.6544 58.6802 65.0435 58.9711 65.5545C59.2619 66.0576 59.4074 66.6512 59.4074 67.3351C59.4074 68.0191 59.2619 68.6126 58.9711 69.1157C58.6802 69.6189 58.2792 70.008 57.7683 70.2832C57.2651 70.5505 56.6952 70.6841 56.0584 70.6841C55.4216 70.6841 54.8477 70.5505 54.3367 70.2832C53.8336 70.008 53.4366 69.6189 53.1457 69.1157C52.8548 68.6126 52.7094 68.0191 52.7094 67.3351C52.7094 66.6512 52.8548 66.0576 53.1457 65.5545C53.4366 65.0435 53.8336 64.6544 54.3367 64.3871C54.8477 64.1198 55.4216 63.9861 56.0584 63.9861ZM56.0584 65.4248C55.5946 65.4248 55.2015 65.5899 54.8792 65.9201C54.5568 66.2424 54.3957 66.7141 54.3957 67.3351C54.3957 67.9562 54.5568 68.4318 54.8792 68.762C55.2015 69.0843 55.5946 69.2455 56.0584 69.2455C56.5222 69.2455 56.9153 69.0843 57.2376 68.762C57.5599 68.4318 57.7211 67.9562 57.7211 67.3351C57.7211 66.7141 57.5599 66.2424 57.2376 65.9201C56.9153 65.5899 56.5222 65.4248 56.0584 65.4248ZM63.2986 63.9861C63.8489 63.9861 64.3206 64.1159 64.7136 64.3753C65.1067 64.6347 65.3858 64.9846 65.5509 65.4248V64.0687H67.2018V70.6251C67.2018 71.2305 67.0799 71.7729 66.8362 72.2525C66.6004 72.7399 66.2427 73.1212 65.7631 73.3963C65.2914 73.6715 64.7176 73.809 64.0415 73.809C63.0981 73.809 62.3355 73.585 61.7538 73.1369C61.172 72.6888 60.8183 72.0795 60.6925 71.3091H62.3316C62.4259 71.6393 62.6068 71.8948 62.874 72.0756C63.1492 72.2643 63.499 72.3586 63.9236 72.3586C64.411 72.3586 64.804 72.2132 65.1028 71.9223C65.4015 71.6393 65.5509 71.2069 65.5509 70.6251V69.2337C65.3858 69.6739 65.1067 70.0277 64.7136 70.295C64.3206 70.5544 63.8489 70.6841 63.2986 70.6841C62.7483 70.6841 62.253 70.5505 61.8128 70.2832C61.3725 70.0159 61.0266 69.6307 60.775 69.1275C60.5313 68.6165 60.4095 68.0191 60.4095 67.3351C60.4095 66.6512 60.5313 66.0576 60.775 65.5545C61.0266 65.0435 61.3725 64.6544 61.8128 64.3871C62.253 64.1198 62.7483 63.9861 63.2986 63.9861ZM63.8174 65.4366C63.2986 65.4366 62.8819 65.6056 62.5675 65.9437C62.253 66.2817 62.0958 66.7455 62.0958 67.3351C62.0958 67.9247 62.253 68.3886 62.5675 68.7266C62.8819 69.0568 63.2986 69.2219 63.8174 69.2219C64.3206 69.2219 64.7333 69.0529 65.0556 68.7148C65.3858 68.3689 65.5509 67.909 65.5509 67.3351C65.5509 66.7534 65.3858 66.2935 65.0556 65.9554C64.7333 65.6095 64.3206 65.4366 63.8174 65.4366ZM71.8846 63.9861C72.5214 63.9861 73.0914 64.1198 73.5945 64.3871C74.1055 64.6544 74.5064 65.0435 74.7973 65.5545C75.0882 66.0576 75.2336 66.6512 75.2336 67.3351C75.2336 68.0191 75.0882 68.6126 74.7973 69.1157C74.5064 69.6189 74.1055 70.008 73.5945 70.2832C73.0914 70.5505 72.5214 70.6841 71.8846 70.6841C71.2478 70.6841 70.674 70.5505 70.163 70.2832C69.6598 70.008 69.2628 69.6189 68.972 69.1157C68.6811 68.6126 68.5356 68.0191 68.5356 67.3351C68.5356 66.6512 68.6811 66.0576 68.972 65.5545C69.2628 65.0435 69.6598 64.6544 70.163 64.3871C70.674 64.1198 71.2478 63.9861 71.8846 63.9861ZM71.8846 65.4248C71.4208 65.4248 71.0277 65.5899 70.7054 65.9201C70.3831 66.2424 70.2219 66.7141 70.2219 67.3351C70.2219 67.9562 70.3831 68.4318 70.7054 68.762C71.0277 69.0843 71.4208 69.2455 71.8846 69.2455C72.3485 69.2455 72.7415 69.0843 73.0638 68.762C73.3862 68.4318 73.5473 67.9562 73.5473 67.3351C73.5473 66.7141 73.3862 66.2424 73.0638 65.9201C72.7415 65.5899 72.3485 65.4248 71.8846 65.4248Z" fill="#FF5757"/>
<g clip-path="url(#clip0_1251_7652)">
<path opacity="0.3" d="M33.918 17.2968H36.4474V30.2682H40.7712V17.2968H43.3006L38.6093 12.6055L33.918 17.2968Z" fill="#FF5757"/>
<path d="M38.6099 6.48438L23.4766 21.6177H32.1242V34.5891H45.0956V21.6177H53.7431L38.6099 6.48438ZM40.7718 17.2939V30.2653H36.448V17.2939H33.9185L38.6099 12.6025L43.3012 17.2939H40.7718ZM23.4766 38.9129H53.7431V43.2367H23.4766V38.9129Z" fill="#FF5757"/>
</g>
<defs>
<clipPath id="clip0_1251_7652">
<rect width="51.8856" height="51.8856" fill="white" transform="translate(12.667)"/>
</clipPath>
</defs>
</svg>