<svg xmlns="http://www.w3.org/2000/svg" width="12" height="12" viewBox="0 0 12 12" fill="none">
<g clip-path="url(#clip0_6898_21344)">
<path d="M7.53941 10.0901V9.15285C7.53941 8.65568 7.34191 8.17887 6.99036 7.82732C6.63881 7.47577 6.162 7.27827 5.66484 7.27827H2.38434C1.88717 7.27827 1.41037 7.47577 1.05881 7.82732C0.707265 8.17887 0.509766 8.65568 0.509766 9.15285V10.0901" stroke="black" stroke-width="0.937286" stroke-linecap="round" stroke-linejoin="round"/>
<path d="M4.02496 5.40374C5.06026 5.40374 5.89953 4.56447 5.89953 3.52917C5.89953 2.49387 5.06026 1.6546 4.02496 1.6546C2.98966 1.6546 2.15039 2.49387 2.15039 3.52917C2.15039 4.56447 2.98966 5.40374 4.02496 5.40374Z" stroke="black" stroke-width="0.937286" stroke-linecap="round" stroke-linejoin="round"/>
<path d="M9.41309 3.99783V6.80968" stroke="black" stroke-width="0.937286" stroke-linecap="round" stroke-linejoin="round"/>
<path d="M10.8197 5.40378H8.00781" stroke="black" stroke-width="0.937286" stroke-linecap="round" stroke-linejoin="round"/>
</g>
<defs>
<clipPath id="clip0_6898_21344">
<rect width="11.2474" height="11.2474" fill="white" transform="translate(0.0410156 0.248679)"/>
</clipPath>
</defs>
</svg>