<svg width="27" height="27" viewBox="0 0 27 27" fill="none" xmlns="http://www.w3.org/2000/svg">
<path fill-rule="evenodd" clip-rule="evenodd" d="M13.4987 0.583984C20.6326 0.583984 26.4154 6.36678 26.4154 13.5007C26.4198 16.4817 25.3889 19.3717 23.4988 21.6769L23.5246 21.7053L23.3541 21.85C22.1427 23.2826 20.6332 24.4335 18.931 25.2224C17.2288 26.0113 15.3748 26.4191 13.4987 26.4173C9.68829 26.4173 6.26538 24.7679 3.90163 22.1458L3.64329 21.8487L3.47279 21.7066L3.49863 21.6756C1.6088 19.3708 0.577895 16.4812 0.582044 13.5007C0.582044 6.36678 6.36484 0.583984 13.4987 0.583984ZM13.4987 19.959C11.0962 19.959 8.92492 20.7236 7.30775 21.7751C9.09359 23.1145 11.2664 23.8371 13.4987 23.834C15.731 23.8371 17.9038 23.1145 19.6897 21.7751C17.8417 20.5912 15.6934 19.961 13.4987 19.959ZM13.4987 3.16732C11.5541 3.16726 9.64901 3.71591 8.00231 4.75019C6.35561 5.78447 5.03417 7.26241 4.18988 9.01414C3.34558 10.7659 3.01271 12.7203 3.22951 14.6527C3.44631 16.5852 4.20399 18.4172 5.41546 19.9383C7.50925 18.4361 10.3664 17.3757 13.4987 17.3757C16.631 17.3757 19.4882 18.4361 21.582 19.9383C22.7934 18.4172 23.5511 16.5852 23.7679 14.6527C23.9847 12.7203 23.6518 10.7659 22.8075 9.01414C21.9633 7.26241 20.6418 5.78447 18.9951 4.75019C17.3484 3.71591 15.4433 3.16726 13.4987 3.16732ZM13.4987 5.75065C14.869 5.75065 16.1832 6.29499 17.1521 7.26393C18.121 8.23287 18.6654 9.54703 18.6654 10.9173C18.6654 12.2876 18.121 13.6018 17.1521 14.5707C16.1832 15.5396 14.869 16.084 13.4987 16.084C12.1284 16.084 10.8143 15.5396 9.84532 14.5707C8.87639 13.6018 8.33204 12.2876 8.33204 10.9173C8.33204 9.54703 8.87639 8.23287 9.84532 7.26393C10.8143 6.29499 12.1284 5.75065 13.4987 5.75065ZM13.4987 8.33398C12.8136 8.33398 12.1565 8.60616 11.672 9.09063C11.1875 9.57509 10.9154 10.2322 10.9154 10.9173C10.9154 11.6025 11.1875 12.2595 11.672 12.744C12.1565 13.2285 12.8136 13.5007 13.4987 13.5007C14.1839 13.5007 14.8409 13.2285 15.3254 12.744C15.8099 12.2595 16.082 11.6025 16.082 10.9173C16.082 10.2322 15.8099 9.57509 15.3254 9.09063C14.8409 8.60616 14.1839 8.33398 13.4987 8.33398Z" fill="#838383"/>
</svg>
