<svg width="30" height="28" viewBox="0 0 30 28" fill="none" xmlns="http://www.w3.org/2000/svg">
<path d="M13.5999 14.9334L11.6666 13.0334C11.4222 12.7889 11.1168 12.6667 10.7506 12.6667C10.3844 12.6667 10.0675 12.8001 9.79994 13.0667C9.55549 13.3112 9.43327 13.6223 9.43327 14.0001C9.43327 14.3778 9.55549 14.6889 9.79994 14.9334L12.6666 17.8001C12.9333 18.0667 13.2444 18.2001 13.5999 18.2001C13.9555 18.2001 14.2666 18.0667 14.5333 17.8001L20.1999 12.1334C20.4666 11.8667 20.5942 11.5556 20.5826 11.2001C20.571 10.8445 20.4435 10.5334 20.1999 10.2667C19.9333 10.0001 19.6168 9.86139 19.2506 9.85072C18.8844 9.84005 18.5675 9.96761 18.2999 10.2334L13.5999 14.9334ZM9.8666 27.0001L7.93327 23.7334L4.2666 22.9334C3.93327 22.8667 3.6666 22.6947 3.4666 22.4174C3.2666 22.1401 3.18882 21.8343 3.23327 21.5001L3.59994 17.7334L1.09993 14.8667C0.877713 14.6223 0.766602 14.3334 0.766602 14.0001C0.766602 13.6667 0.877713 13.3778 1.09993 13.1334L3.59994 10.2667L3.23327 6.50005C3.18882 6.16672 3.2666 5.86094 3.4666 5.58272C3.6666 5.3045 3.93327 5.1325 4.2666 5.06672L7.93327 4.26672L9.8666 1.00005C10.0444 0.711163 10.2888 0.516497 10.5999 0.416052C10.911 0.315608 11.2222 0.332497 11.5333 0.466719L14.9999 1.93339L18.4666 0.466719C18.7777 0.333386 19.0888 0.316497 19.3999 0.416052C19.711 0.515608 19.9555 0.710275 20.1333 1.00005L22.0666 4.26672L25.7333 5.06672C26.0666 5.13339 26.3333 5.30583 26.5333 5.58405C26.7333 5.86228 26.811 6.16761 26.7666 6.50005L26.3999 10.2667L28.8999 13.1334C29.1222 13.3778 29.2333 13.6667 29.2333 14.0001C29.2333 14.3334 29.1222 14.6223 28.8999 14.8667L26.3999 17.7334L26.7666 21.5001C26.811 21.8334 26.7333 22.1392 26.5333 22.4174C26.3333 22.6956 26.0666 22.8676 25.7333 22.9334L22.0666 23.7334L20.1333 27.0001C19.9555 27.2889 19.711 27.4836 19.3999 27.5841C19.0888 27.6845 18.7777 27.6676 18.4666 27.5334L14.9999 26.0667L11.5333 27.5334C11.2222 27.6667 10.911 27.6836 10.5999 27.5841C10.2888 27.4845 10.0444 27.2898 9.8666 27.0001Z" fill="#01B574"/>
</svg>
