<svg xmlns="http://www.w3.org/2000/svg" width="60" height="61" viewBox="0 0 60 61" fill="none" style="&#10;">
<path d="M38.074 27.7848L28.5358 21.424C28.0861 21.124 27.5632 20.9518 27.0232 20.9258C26.4832 20.8998 25.9463 21.0211 25.4698 21.2766C24.9934 21.5322 24.5953 21.9124 24.3182 22.3766C24.0411 22.8408 23.8953 23.3716 23.8965 23.9123V36.6308C23.8964 37.171 24.043 37.701 24.3205 38.1644C24.5981 38.6277 24.9962 39.0071 25.4725 39.2619C25.9487 39.5167 26.4852 39.6374 27.0247 39.6112C27.5642 39.585 28.0865 39.4129 28.5358 39.1131L38.074 32.7523C38.4826 32.4798 38.8176 32.1107 39.0493 31.6777C39.2811 31.2447 39.4023 30.7612 39.4023 30.2701C39.4023 29.7789 39.2811 29.2954 39.0493 28.8624C38.8176 28.4294 38.4826 28.0573 38.074 27.7848Z" stroke="#F8FCFF" stroke-width="5.96696" stroke-linecap="round" stroke-linejoin="round"/>
<path d="M56.7163 30.2678C56.7163 33.794 56.0217 37.2856 54.6723 40.5434C53.3229 43.8011 51.3451 46.7612 48.8517 49.2545C46.3583 51.7479 43.3983 53.7258 40.1405 55.0752C36.8828 56.4246 33.3911 57.1191 29.865 57.1191C26.3388 57.1191 22.8472 56.4246 19.5894 55.0752C16.3317 53.7258 13.3716 51.7479 10.8782 49.2545C8.38486 46.7612 6.40701 43.8011 5.05761 40.5434C3.7082 37.2856 3.01367 33.794 3.01367 30.2678C3.01367 23.1464 5.84264 16.3167 10.8782 11.2811C15.9138 6.24547 22.7436 3.4165 29.865 3.4165C36.9864 3.4165 43.8161 6.24547 48.8517 11.2811C53.8873 16.3167 56.7163 23.1464 56.7163 30.2678Z" stroke="#F8FCFF" stroke-width="5.96696" stroke-linecap="round" stroke-linejoin="round"/>
</svg>