<svg xmlns="http://www.w3.org/2000/svg" width="19" height="21" viewBox="0 0 19 21" fill="none">
<path d="M18.1029 3.38C17.9629 3.17 17.7729 2.98 17.5629 2.84C17.4529 2.77 17.3429 2.71 17.2229 2.66C16.9829 2.56 16.7229 2.5 16.4429 2.5H12.2629C11.8429 1.34 10.7429 0.5 9.44287 0.5C8.14287 0.5 7.04287 1.34 6.62287 2.5H2.44287C1.34287 2.5 0.442871 3.4 0.442871 4.5V18.5C0.442871 19.6 1.34287 20.5 2.44287 20.5H16.4429C16.7229 20.5 16.9829 20.44 17.2229 20.34C17.3429 20.29 17.4529 20.23 17.5629 20.16C17.7729 20.02 17.9629 19.83 18.1029 19.62C18.3129 19.3 18.4429 18.91 18.4429 18.5V4.5C18.4429 4.09 18.3129 3.7 18.1029 3.38ZM9.44287 2.25C9.66287 2.25 9.85287 2.35 9.99287 2.5C10.1129 2.63 10.1929 2.81 10.1929 3C10.1929 3.41 9.85287 3.75 9.44287 3.75C9.03287 3.75 8.69287 3.41 8.69287 3C8.69287 2.81 8.77287 2.63 8.89287 2.5C9.03287 2.35 9.22287 2.25 9.44287 2.25ZM16.4429 18.5H2.44287V4.5H16.4429V18.5ZM9.44287 11.5C11.0929 11.5 12.4429 10.15 12.4429 8.5C12.4429 6.85 11.0929 5.5 9.44287 5.5C7.79287 5.5 6.44287 6.85 6.44287 8.5C6.44287 10.15 7.79287 11.5 9.44287 11.5ZM9.44287 9.5C8.89287 9.5 8.44287 9.05 8.44287 8.5C8.44287 7.95 8.89287 7.5 9.44287 7.5C9.99287 7.5 10.4429 7.95 10.4429 8.5C10.4429 9.05 9.99287 9.5 9.44287 9.5ZM9.44287 12.38C7.41287 12.38 3.44287 13.46 3.44287 15.96V17.5H15.4429V15.97C15.4429 13.46 11.4729 12.38 9.44287 12.38ZM5.75287 15.5C6.44287 14.94 8.13287 14.38 9.44287 14.38C10.7529 14.38 12.4529 14.94 13.1329 15.5H5.75287Z" fill="#838383"/>
</svg>