<svg width="20" height="20" viewBox="0 0 20 20" fill="none" xmlns="http://www.w3.org/2000/svg">
<mask id="mask0_34369_14870" style="mask-type:luminance" maskUnits="userSpaceOnUse" x="0" y="0" width="20" height="20">
<path d="M0.53125 0.306152H19.3017V19.0766H0.53125V0.306152Z" fill="white"/>
</mask>
<g mask="url(#mask0_34369_14870)">
<path d="M11.6848 0.44456L11.1217 0.365527C9.42934 0.121173 7.70238 0.362914 6.14215 1.06257C4.58193 1.76222 3.25272 2.89096 2.3095 4.31719C1.30593 5.68049 0.707677 7.29945 0.583589 8.98775C0.459501 10.676 0.81462 12.3651 1.60808 13.8605C1.68928 14.0103 1.73984 14.1749 1.7568 14.3445C1.77376 14.5141 1.75679 14.6854 1.70687 14.8484C1.30182 16.2413 0.926416 17.6442 0.53125 19.1162L1.02521 18.968C2.35889 18.6123 3.69258 18.2567 5.02627 17.9307C5.30777 17.8721 5.60036 17.8997 5.866 18.0097C7.06256 18.5937 8.37019 18.915 9.70113 18.952C11.0321 18.989 12.3555 18.7409 13.5827 18.2243C14.8099 17.7077 15.9124 16.9347 16.8162 15.9569C17.72 14.9792 18.4042 13.8195 18.8229 12.5556C19.2416 11.2916 19.3851 9.9528 19.2437 8.62886C19.1024 7.30492 18.6795 6.02652 18.0035 4.87947C17.3274 3.73241 16.4138 2.74324 15.324 1.97832C14.2342 1.21341 12.9934 0.690457 11.6848 0.44456ZM14.1744 13.406C13.8153 13.7275 13.3775 13.948 12.9055 14.0452C12.4334 14.1424 11.9441 14.1127 11.4872 13.9592C9.4175 13.3756 7.62177 12.0769 6.41923 10.2941C5.96002 9.66339 5.59094 8.97179 5.32264 8.23922C5.17727 7.81419 5.15106 7.35747 5.24684 6.9186C5.34263 6.47974 5.55675 6.07547 5.866 5.74967C6.01654 5.55753 6.22146 5.41519 6.45406 5.34118C6.68666 5.26717 6.93615 5.26493 7.17005 5.33474C7.36763 5.38414 7.50594 5.67064 7.68376 5.88798C7.82866 6.29632 7.9966 6.69477 8.1876 7.08335C8.33225 7.28144 8.39267 7.52871 8.35565 7.77118C8.31863 8.01365 8.18719 8.23163 7.99002 8.37752C7.54545 8.77269 7.61461 9.0987 7.93074 9.54327C8.62926 10.5505 9.59372 11.3439 10.7167 11.8352C11.0328 11.9735 11.2699 12.0032 11.4774 11.6772C11.5663 11.5487 11.6848 11.4401 11.7836 11.3215C12.3566 10.6003 12.1788 10.6102 13.0877 11.0054C13.3774 11.1272 13.6574 11.2688 13.9274 11.4302C14.1941 11.5883 14.5992 11.7562 14.6584 11.9933C14.7155 12.2505 14.7005 12.5185 14.6151 12.7677C14.5297 13.017 14.3772 13.2378 14.1744 13.406Z" fill="#00ACA5"/>
</g>
</svg>
