<svg xmlns="http://www.w3.org/2000/svg" width="14" height="14" viewBox="0 0 14 14" fill="none">
<g clip-path="url(#clip0_349_9530)">
<path d="M12.2136 5.83656C12.2136 9.90804 6.97884 13.3979 6.97884 13.3979C6.97884 13.3979 1.74408 9.90804 1.74408 5.83656C1.74408 4.44822 2.2956 3.11674 3.2773 2.13503C4.25901 1.15332 5.59049 0.601807 6.97884 0.601807C8.36718 0.601807 9.69866 1.15332 10.6804 2.13503C11.6621 3.11674 12.2136 4.44822 12.2136 5.83656Z" stroke="white" stroke-width="0.872459" stroke-linecap="round" stroke-linejoin="round"/>
<path d="M6.97887 7.58163C7.94256 7.58163 8.72379 6.80041 8.72379 5.83672C8.72379 4.87302 7.94256 4.0918 6.97887 4.0918C6.01517 4.0918 5.23395 4.87302 5.23395 5.83672C5.23395 6.80041 6.01517 7.58163 6.97887 7.58163Z" stroke="white" stroke-width="0.872459" stroke-linecap="round" stroke-linejoin="round"/>
</g>
<defs>
<clipPath id="clip0_349_9530">
<rect width="13.9594" height="13.9594" fill="white" transform="translate(0 0.0202637)"/>
</clipPath>
</defs>
</svg>