<svg xmlns="http://www.w3.org/2000/svg" width="29" height="29" viewBox="0 0 29 29" fill="none">
<rect x="0.0742188" y="0.640015" width="28.2002" height="28.2002" rx="14.1001" fill="white"/>
<path fill-rule="evenodd" clip-rule="evenodd" d="M12.0734 11.2283C11.751 11.1939 11.425 11.2266 11.1159 11.3244C10.8067 11.4222 10.5212 11.5829 10.2773 11.7964C10.0333 12.0099 9.83628 12.2716 9.69848 12.565C9.56068 12.8584 9.48514 13.1771 9.4766 13.5012C9.46807 13.8252 9.52672 14.1474 9.64888 14.4477C9.77104 14.7479 9.95405 15.0196 10.1864 15.2456L10.1901 15.2493L14.1807 19.2008L18.1634 15.2571C18.175 15.2427 18.1895 15.2245 18.2062 15.2034C18.2536 15.1433 18.318 15.0598 18.3863 14.966C18.5352 14.7619 18.6606 14.5654 18.7058 14.4534C18.8265 14.1537 18.8841 13.8323 18.8749 13.5093C18.8657 13.1863 18.79 12.8687 18.6523 12.5764C18.5147 12.284 18.3183 12.0232 18.0752 11.8102C17.8321 11.5973 17.5477 11.4367 17.2397 11.3387C16.9317 11.2407 16.6068 11.2073 16.2853 11.2406C15.9638 11.274 15.6526 11.3733 15.3713 11.5323C15.0899 11.6914 14.8445 11.9068 14.6503 12.1651C14.5389 12.3131 14.3643 12.4 14.1791 12.3994C13.9939 12.3989 13.8197 12.3111 13.7092 12.1624C13.5158 11.9023 13.2707 11.685 12.9891 11.5242C12.7076 11.3634 12.3958 11.2627 12.0734 11.2283ZM19.0357 16.0433C19.0374 16.0447 19.0375 16.0446 19.0375 16.0446L19.0398 16.0418L19.0451 16.0354L19.0638 16.0125C19.0795 15.993 19.1018 15.9652 19.1289 15.9309C19.1828 15.8625 19.2566 15.7669 19.3358 15.6582C19.4822 15.4574 19.6898 15.1552 19.7956 14.8925C19.9768 14.4428 20.0632 13.9605 20.0494 13.4759C20.0357 12.9912 19.922 12.5146 19.7155 12.076C19.509 11.6373 19.2142 11.2459 18.8495 10.9264C18.4848 10.6069 18.058 10.3661 17.596 10.2191C17.1339 10.072 16.6465 10.0219 16.1642 10.0719C15.6819 10.1219 15.2151 10.2708 14.793 10.5095C14.5742 10.6332 14.3698 10.7796 14.1831 10.946C13.9963 10.7776 13.7914 10.6293 13.5718 10.5039C13.1494 10.2626 12.6817 10.1115 12.198 10.0599C11.7144 10.0083 11.2253 10.0574 10.7615 10.2041C10.2977 10.3508 9.86937 10.5919 9.50338 10.9123C9.13739 11.2326 8.8417 11.6253 8.63494 12.0655C8.42817 12.5057 8.31481 12.984 8.302 13.4702C8.28919 13.9564 8.37721 14.44 8.56051 14.8905C8.74347 15.3402 9.01741 15.7472 9.36511 16.086L13.7669 20.4446L13.7673 20.4451C13.9963 20.6718 14.3651 20.6718 14.5941 20.4451L18.957 16.1249C18.9858 16.1013 19.0128 16.0744 19.0375 16.0446L19.0357 16.0433Z" fill="#FF5757"/>
</svg>