<svg xmlns="http://www.w3.org/2000/svg" width="21" height="20" viewBox="0 0 21 20" fill="none">
<path d="M18.4429 4.5H14.4429V2.5C14.4429 1.39 13.5529 0.5 12.4429 0.5H8.44287C7.33287 0.5 6.44287 1.39 6.44287 2.5V4.5H2.44287C1.33287 4.5 0.452871 5.39 0.452871 6.5L0.442871 17.5C0.442871 18.61 1.33287 19.5 2.44287 19.5H18.4429C19.5529 19.5 20.4429 18.61 20.4429 17.5V6.5C20.4429 5.39 19.5529 4.5 18.4429 4.5ZM8.44287 2.5H12.4429V4.5H8.44287V2.5ZM18.4429 17.5H2.44287V6.5H18.4429V17.5Z" fill="#ff5757"/>
</svg>