<svg width="24" height="24" viewBox="0 0 24 24" fill="none" xmlns="http://www.w3.org/2000/svg">
<g clip-path="url(#clip0_295_6073)">
<path fill-rule="evenodd" clip-rule="evenodd" d="M11.9934 0.000186047C15.1084 0.000186047 18.2235 0.000186047 21.3385 0C21.7295 0 22.1167 0.0336744 22.4918 0.147163C23.305 0.393116 23.7356 0.971814 23.9044 1.7693C23.9714 2.08558 23.9905 2.40791 23.9911 2.73023C23.9961 4.89489 23.9997 7.05972 23.9999 9.22456C24.0001 13.1673 24.0006 17.11 23.9924 21.0526C23.9913 21.6045 23.9617 22.1624 23.6871 22.6652C23.3825 23.2228 22.9655 23.6641 22.3324 23.8582C22.218 23.8932 22.0986 23.9331 21.9813 23.9331C21.7111 23.9333 21.4481 23.9997 21.1788 23.9997C15.0788 23.9993 8.97882 24.0028 2.87878 23.9932C2.38266 23.9923 1.87847 23.9565 1.40719 23.7562C1.31344 23.7162 1.21875 23.6827 1.13625 23.6204C0.53625 23.1667 0.128813 22.6008 0.0414375 21.8352C0.0100313 21.5591 0 21.2845 0 21.0083C0.000937501 14.8732 0.0015 8.73814 0.0046875 2.60307C0.00496875 2.24716 0.00862501 1.88512 0.118969 1.54447C0.412782 0.636838 1.05572 0.141302 2.00878 0.0406512C2.23031 0.0172093 2.45372 0.00204651 2.67628 0.00186047C5.78175 -0.000651163 8.8876 0.000186047 11.9933 0.000186047H11.9934Z" fill="#FB7A24"/>
<path fill-rule="evenodd" clip-rule="evenodd" d="M12.0727 15.2668C12.0045 15.6811 11.9566 16.0556 11.8066 16.4007C11.1044 18.0178 9.90762 19.0032 8.11343 19.1994C5.99271 19.4312 4.03389 18.1324 3.44496 16.1153C3.23149 15.3844 3.25286 14.6391 3.3303 13.8951C3.41289 13.1002 3.64896 12.3463 4.01749 11.635C4.07027 11.5334 4.06924 11.4566 4.00324 11.3581C3.43736 10.5137 3.2178 9.58072 3.29749 8.57374C3.34014 8.03551 3.47186 7.52072 3.71777 7.03849C4.43861 5.62593 6.02121 4.42714 8.1408 4.62621C10.0046 4.80109 11.7308 6.39635 12.0002 8.1904C12.0138 8.28044 12.0393 8.36881 12.0691 8.50165C12.1137 8.26109 12.146 8.06258 12.1877 7.86593C12.5349 6.23607 14.1428 4.53058 16.4218 4.50946C18.7318 4.48825 20.4425 6.28593 20.7653 7.95551C20.9017 8.66109 20.878 9.36602 20.7655 10.0707C20.6541 10.7717 20.4435 11.4537 20.14 12.0963C20.0728 12.2385 20.0798 12.3409 20.1658 12.473C20.6633 13.238 20.8828 14.0778 20.8547 14.9898C20.7958 16.8928 19.4394 18.5993 17.5733 19.0457C14.968 19.6686 12.9708 18.1226 12.2987 16.2521C12.189 15.9476 12.1372 15.6297 12.0728 15.2668H12.0727ZM16.806 11.9235C16.8339 11.8159 16.9179 11.7514 16.9782 11.6718C17.6315 10.8104 17.9751 9.84826 17.8984 8.76481C17.8425 7.97412 17.1871 7.41709 16.3937 7.44658C15.5997 7.47607 15.0015 8.0836 14.9903 8.87188C14.9894 8.93644 14.9934 9.00109 14.9893 9.06519C14.9347 9.90528 14.4675 10.3655 13.7596 10.4168C13.6303 10.4262 13.5007 10.4377 13.3712 10.438C12.4525 10.4401 11.5338 10.4397 10.615 10.4389C10.2137 10.4385 9.81584 10.4818 9.43371 10.5989C7.64993 11.1449 6.60977 12.3553 6.26533 14.1593C6.19708 14.5163 6.13568 14.8867 6.25362 15.2533C6.42283 15.7791 6.7383 16.1702 7.29668 16.301C7.8754 16.4365 8.37949 16.2866 8.77999 15.8355C9.03884 15.5439 9.12049 15.1974 9.1398 14.8171C9.18987 13.839 9.72668 13.35 10.622 13.3574C11.9953 13.3687 13.3689 13.3598 14.7424 13.3608C14.9862 13.3609 14.9884 13.3642 14.9896 13.6034C14.992 14.0453 14.9783 14.4878 14.9954 14.9292C15.0234 15.6498 15.6624 16.2488 16.4032 16.2699C17.1671 16.2916 17.848 15.731 17.8977 14.9991C17.9407 14.3657 17.938 13.7284 17.8961 13.0944C17.8636 12.6037 17.5961 12.2539 17.1427 12.051C17.0339 12.0024 16.9196 11.966 16.806 11.9235ZM8.19677 10.4366C8.49218 10.4366 8.7333 10.4339 8.97424 10.4378C9.09368 10.4397 9.13793 10.3887 9.13699 10.2725C9.13305 9.81272 9.15696 9.35142 9.12743 8.89328C9.08843 8.28891 8.76452 7.85198 8.19743 7.6316C7.61599 7.40565 7.08387 7.53458 6.63387 7.96072C6.1819 8.38891 6.12162 8.91253 6.27977 9.48556C6.42508 10.0123 6.76821 10.3114 7.30802 10.4018C7.62152 10.4542 7.9368 10.4291 8.19677 10.4366Z" fill="white"/>
</g>
<defs>
<clipPath id="clip0_295_6073">
<rect width="24" height="24" fill="white"/>
</clipPath>
</defs>
</svg>
