<svg width="24" height="24" viewBox="0 0 24 24" fill="none" xmlns="http://www.w3.org/2000/svg">
<g clip-path="url(#clip0_295_5988)">
<path d="M24 12C24.0015 18.6262 18.6293 23.9993 12.0018 24C5.37423 24.0007 0.000734553 18.6297 3.01002e-07 12.0036V12.0001C-0.0014682 5.37292 5.37056 0.000742648 11.9982 1.0478e-07C18.6258 -0.000866196 23.9993 5.3702 24 11.9964V12Z" fill="#666666"/>
<path d="M24 12C24.0015 18.6262 18.6293 23.9993 12.0018 24C5.37423 24.0007 0.000734553 18.6297 3.01002e-07 12.0036V12.0001C-0.0014682 5.37292 5.37056 0.000742648 11.9982 1.0478e-07C18.6258 -0.000866196 23.9993 5.3702 24 11.9964V12Z" fill="url(#paint0_radial_295_5988)"/>
<path d="M8.95433 6.74512C7.62998 8.36943 2.07916 14.9711 2.5716 19.4349C2.91413 19.8743 3.2919 20.2844 3.69097 20.6725C3.63296 17.2555 7.5978 13.5985 10.6923 10.8388L8.95433 6.74524V6.74512Z" fill="#00A54D"/>
<path d="M8.95436 6.74463C7.62995 8.36895 2.07917 14.9706 2.5716 19.4345C2.91411 19.8737 3.29188 20.2839 3.69098 20.672C3.63303 17.2549 7.59777 13.5981 10.6923 10.8384L8.95436 6.74463Z" fill="url(#paint1_linear_295_5988)"/>
<path d="M5.69744 1.79464C5.00515 2.21577 4.3623 2.71047 3.77173 3.25695C5.67525 3.62271 7.58519 5.31738 8.63157 6.72135C9.5432 8.16198 10.0385 9.48382 10.6827 10.8477C11.1184 10.4747 11.562 10.0945 12.0415 9.70492L12.0387 3.78187C10.6204 2.89057 8.27612 1.7176 5.72038 1.79328C5.71409 1.79823 5.70262 1.79105 5.69744 1.79464Z" fill="#02A74D"/>
<path d="M5.69744 1.79464C5.00515 2.21577 4.3623 2.71047 3.77173 3.25695C5.67525 3.62271 7.58519 5.31738 8.63157 6.72135C9.5432 8.16198 10.0385 9.48382 10.6827 10.8477C11.1184 10.4747 11.562 10.0945 12.0415 9.70492L12.0387 3.78187C10.6204 2.89057 8.27612 1.7176 5.72038 1.79328C5.71409 1.79823 5.70262 1.79105 5.69744 1.79464Z" fill="url(#paint2_linear_295_5988)"/>
<path d="M15.0496 6.74927C16.3695 8.37507 21.9019 14.9822 21.4113 19.4496C21.0699 19.8892 20.6933 20.2999 20.2957 20.6884C20.3536 17.2684 16.4012 13.6084 13.3174 10.8459L15.0496 6.74927Z" fill="#00A54D"/>
<path d="M15.0495 6.74927C16.3694 8.37509 21.9019 14.9822 21.4112 19.4496C21.0698 19.8892 20.6933 20.3 20.2956 20.6884C20.3535 17.2684 16.4011 13.6085 13.3173 10.8459L15.0495 6.74927Z" fill="url(#paint3_linear_295_5988)"/>
<path d="M18.2954 1.79523C18.9857 2.21684 19.6262 2.71184 20.2155 3.25853C18.3183 3.6246 16.4145 5.32083 15.3717 6.72674C14.4626 8.16872 13.9689 9.49168 13.3273 10.8564C12.8931 10.483 12.4509 10.1027 11.973 9.71284L11.9759 3.78439C13.3895 2.89233 15.7262 1.71874 18.2734 1.79424C18.2791 1.79882 18.2903 1.79163 18.2954 1.79523Z" fill="#02A74D"/>
<path d="M18.2954 1.79523C18.9857 2.21684 19.6262 2.71184 20.2155 3.25853C18.3183 3.6246 16.4145 5.32083 15.3717 6.72674C14.4626 8.16872 13.9689 9.49168 13.3273 10.8564C12.8931 10.483 12.4509 10.1027 11.973 9.71284L11.9759 3.78439C13.3895 2.89233 15.7262 1.71874 18.2734 1.79424C18.2791 1.79882 18.2903 1.79163 18.2954 1.79523Z" fill="url(#paint4_linear_295_5988)"/>
</g>
<defs>
<radialGradient id="paint0_radial_295_5988" cx="0" cy="0" r="1" gradientUnits="userSpaceOnUse" gradientTransform="translate(11.728 10.6978) rotate(90) scale(22.4913 19.7482)">
<stop offset="0.259" stop-color="white"/>
<stop offset="1" stop-color="white" stop-opacity="0"/>
</radialGradient>
<linearGradient id="paint1_linear_295_5988" x1="7.62976" y1="15.3198" x2="-8.92633" y2="-4.40678" gradientUnits="userSpaceOnUse">
<stop stop-color="#97CA43"/>
<stop offset="1" stop-color="#97CA43" stop-opacity="0"/>
</linearGradient>
<linearGradient id="paint2_linear_295_5988" x1="7.50026" y1="7.30199" x2="22.547" y2="-26.6123" gradientUnits="userSpaceOnUse">
<stop stop-color="#97CA43"/>
<stop offset="1" stop-color="#97CA43" stop-opacity="0"/>
</linearGradient>
<linearGradient id="paint3_linear_295_5988" x1="17.6639" y1="13.7762" x2="1.01451" y2="-5.73146" gradientUnits="userSpaceOnUse">
<stop stop-color="#97CA43"/>
<stop offset="1" stop-color="#97CA43" stop-opacity="0"/>
</linearGradient>
<linearGradient id="paint4_linear_295_5988" x1="15.4622" y1="5.45008" x2="28.5081" y2="-15.7732" gradientUnits="userSpaceOnUse">
<stop stop-color="#97CA43"/>
<stop offset="1" stop-color="#97CA43" stop-opacity="0"/>
</linearGradient>
<clipPath id="clip0_295_5988">
<rect width="24" height="24" fill="white"/>
</clipPath>
</defs>
</svg>
