<svg xmlns="http://www.w3.org/2000/svg" width="24" height="20" viewBox="0 0 24 20" fill="none">
<path d="M23.1342 3.58084C23.6673 5.65984 23.6673 9.99984 23.6673 9.99984C23.6673 9.99984 23.6673 14.3398 23.1342 16.4188C22.8378 17.568 21.971 18.4722 20.8732 18.7778C18.8793 19.3332 12.0007 19.3332 12.0007 19.3332C12.0007 19.3332 5.12548 19.3332 3.12815 18.7778C2.02565 18.4675 1.15998 17.5645 0.867151 16.4188C0.333984 14.3398 0.333984 9.99984 0.333984 9.99984C0.333984 9.99984 0.333984 5.65984 0.867151 3.58084C1.16348 2.43167 2.03032 1.5275 3.12815 1.22184C5.12548 0.666504 12.0007 0.666504 12.0007 0.666504C12.0007 0.666504 18.8793 0.666504 20.8732 1.22184C21.9757 1.53217 22.8413 2.43517 23.1342 3.58084ZM9.66732 14.0832L16.6673 9.99984L9.66732 5.9165V14.0832Z" fill="#121416"/>
</svg>