<svg width="24" height="24" viewBox="0 0 24 24" fill="none" xmlns="http://www.w3.org/2000/svg">
<path d="M0 4C0 1.79086 1.79086 0 4 0H20C22.2091 0 24 1.79086 24 4V20C24 22.2091 22.2091 24 20 24H4C1.79086 24 0 22.2091 0 20V4Z" fill="white"/>
<path d="M7.28181 23.9787C5.85187 23.9787 4.41614 24.0283 2.9862 23.9736C1.29399 23.9017 0 22.4108 0 20.6332C0 14.8943 0.0106065 9.15435 0 3.40936C0 1.4444 1.46176 0.075 3.14337 0.0253695C4.90308 -0.024261 6.66857 0.014228 8.43406 0.014228C8.46588 0.014228 8.50734 -0.0019779 8.52277 0.052717C8.51216 0.151978 8.41767 0.16312 8.36078 0.201608C7.32328 0.839715 6.37544 1.60443 5.579 2.55146C4.2638 4.11432 3.3526 5.9081 3.04309 7.9936C2.4983 11.6754 3.5927 14.8001 6.07075 17.4092C6.51044 17.8772 6.56829 18.2398 6.21731 18.8677C5.79305 19.6213 5.14895 20.1338 4.46243 20.6008C4.38914 20.6443 4.31586 20.7 4.24258 20.7497C4.13266 20.8489 4.20112 20.8985 4.29465 20.9421C4.31586 20.9917 4.3419 21.0353 4.37275 21.0798C4.97539 21.641 5.54621 22.2406 6.13825 22.8129C6.41594 23.0823 6.69364 23.3629 6.96073 23.6434C7.07161 23.7477 7.25482 23.7812 7.28181 23.9787Z" fill="#0180C7"/>
<path d="M7.28187 23.9788C7.25583 23.7864 7.07263 23.753 6.96271 23.6375C6.69562 23.3509 6.41792 23.0764 6.14023 22.8069C5.54819 22.2347 4.97737 21.635 4.37473 21.0739C4.34291 21.0303 4.31688 20.9858 4.29663 20.9361C5.63208 21.2116 6.93667 21.0243 8.22006 20.611C8.65492 20.4732 9.08979 20.3355 9.52947 20.22C9.82838 20.138 10.1427 20.1542 10.4301 20.2636C13.7508 21.4628 17.0302 21.3534 20.2574 19.8675C21.5726 19.2568 22.7721 18.3978 23.7884 17.3252C23.8405 17.2705 23.8771 17.1874 23.9716 17.1824C24.0189 17.2594 23.9928 17.3424 23.9928 17.4245V20.6434C24.0034 22.4818 22.5995 23.9778 20.8495 23.995H20.8234C18.9374 24.0062 17.0514 23.995 15.1654 23.995H7.59524C7.4911 23.9849 7.386 23.9788 7.28187 23.9788Z" fill="#0172B1"/>
<path d="M8.09868 11.5284C8.88935 11.5284 9.63374 11.5235 10.3723 11.5284C10.786 11.5334 11.0116 11.711 11.0531 12.0485C11.1003 12.4718 10.8593 12.756 10.409 12.7619C9.56046 12.7728 8.71675 12.7668 7.86823 12.7668C7.62235 12.7668 7.38129 12.7777 7.13444 12.7619C6.83071 12.7461 6.5318 12.682 6.38523 12.3603C6.23867 12.0386 6.34377 11.7495 6.5424 11.486C7.34947 10.4351 8.16136 9.37924 8.97324 8.32833C9.02049 8.26418 9.06774 8.20004 9.11498 8.14084C9.06292 8.05005 8.98963 8.09249 8.92599 8.08755C8.35999 8.08262 7.78916 8.08755 7.22315 8.08262C7.09202 8.08262 6.96088 8.06683 6.83553 8.04019C6.53662 7.97013 6.35341 7.66521 6.42187 7.36425C6.46912 7.16097 6.62629 6.9942 6.82492 6.94585C6.95027 6.91329 7.08141 6.8975 7.21255 6.8975C8.14496 6.89257 9.08316 6.89257 10.0156 6.8975C10.1834 6.89257 10.3453 6.91329 10.5083 6.95671C10.8641 7.08005 11.0165 7.41753 10.8747 7.77178C10.7494 8.07768 10.5498 8.34017 10.3511 8.60265C9.6646 9.49766 8.97903 10.3877 8.29249 11.2729C8.23464 11.341 8.18257 11.411 8.09868 11.5284Z" fill="#0180C7"/>
<path d="M14.1748 8.70904C14.3002 8.54326 14.4313 8.38735 14.6463 8.34491C15.06 8.25906 15.4476 8.5324 15.4534 8.96166C15.4688 10.0343 15.464 11.1059 15.4534 12.1786C15.4534 12.4578 15.275 12.7036 15.0185 12.7845C14.7562 12.8861 14.4583 12.8062 14.2847 12.5753C14.196 12.4628 14.1594 12.4411 14.0331 12.5427C13.5567 12.9394 13.0168 13.0095 12.4353 12.816C11.5029 12.5052 11.1201 11.7602 11.016 10.8543C10.9061 9.87345 11.2252 9.03665 12.0844 8.52254C12.7969 8.08736 13.5201 8.12486 14.1748 8.70904ZM12.3206 10.6658C12.3312 10.9017 12.4045 11.1267 12.5404 11.3142C12.823 11.7 13.3629 11.7809 13.7457 11.4908C13.8084 11.4424 13.8663 11.3832 13.9183 11.3142C14.2114 10.9066 14.2114 10.2366 13.9183 9.82904C13.7718 9.61984 13.5413 9.4965 13.2945 9.49156C12.7188 9.45406 12.3158 9.90996 12.3206 10.6658ZM17.8051 10.6974C17.7636 9.31986 18.6488 8.29064 19.9061 8.25314C21.2416 8.21071 22.2164 9.12744 22.2579 10.4675C22.2994 11.8243 21.4875 12.7835 20.2359 12.9118C18.8686 13.0509 17.7839 12.0385 17.8051 10.6974ZM19.1203 10.5691C19.1097 10.8375 19.1888 11.1 19.3459 11.3201C19.6342 11.7059 20.1732 11.7809 20.5512 11.4809C20.6091 11.4385 20.6563 11.3842 20.7036 11.3309C21.0073 10.9234 21.0073 10.2376 20.7084 9.83003C20.5618 9.62675 20.3314 9.49748 20.0845 9.49255C19.5185 9.459 19.1203 9.8991 19.1203 10.5691ZM17.3442 9.6307C17.3442 10.4616 17.349 11.2924 17.3442 12.1233C17.349 12.5042 17.0559 12.82 16.6837 12.8308C16.621 12.8308 16.5526 12.8259 16.4899 12.8091C16.2276 12.7391 16.029 12.4549 16.029 12.1174V7.85646C16.029 7.60482 16.0242 7.35813 16.029 7.10551C16.0338 6.69303 16.2913 6.42463 16.6789 6.42463C17.0771 6.41969 17.3442 6.68711 17.3442 7.11637C17.35 7.95316 17.3442 8.79489 17.3442 9.6307Z" fill="#0180C7"/>
</svg>
