<svg width="24" height="24" viewBox="0 0 24 24" fill="none" xmlns="http://www.w3.org/2000/svg">
<g id="House" clip-path="url(#clip0_1942_6296)">
<g id="Group">
<g id="Group_2">
<path id="Vector" opacity="0.3" d="M7 10.1904V18.0004H9V12.0004H15V18.0004H17V10.1904L12 5.69043L7 10.1904ZM14 10.0004H10C10 8.90043 10.9 8.00043 12 8.00043C13.1 8.00043 14 8.90043 14 10.0004Z" fill="#FF5757"/>
<path id="Vector_2" d="M19 9.3V4H16V6.6L12 3L2 12H5V20H11V14H13V20H19V12H22L19 9.3ZM17 18H15V12H9V18H7V10.19L12 5.69L17 10.19V18Z" fill="#FF5757"/>
<path id="Vector_3" d="M10 10H14C14 8.9 13.1 8 12 8C10.9 8 10 8.9 10 10Z" fill="#FF5757"/>
</g>
</g>
</g>
<defs>
<clipPath id="clip0_1942_6296">
<rect width="24" height="24" fill="white"/>
</clipPath>
</defs>
</svg>
