<svg width="24" height="24" viewBox="0 0 24 24" fill="none" xmlns="http://www.w3.org/2000/svg">
<g id="School" clip-path="url(#clip0_1942_6335)">
<path id="Vector" opacity="0.3" d="M6.99969 12.2703V15.9903L11.9997 18.7203L16.9997 15.9903V12.2703L11.9997 15.0003L6.99969 12.2703ZM5.17969 9.00027L11.9997 12.7203L18.8197 9.00027L11.9997 5.28027L5.17969 9.00027Z" fill="#FFF5F5"/>
<path id="Vector_2" d="M12 3L1 9L5 11.18V17.18L12 21L19 17.18V11.18L21 10.09V17H23V9L12 3ZM17 15.99L12 18.72L7 15.99V12.27L12 15L17 12.27V15.99ZM12 12.72L5.18 9L12 5.28L18.82 9L12 12.72Z" fill="#FFF5F5"/>
</g>
<defs>
<clipPath id="clip0_1942_6335">
<rect width="24" height="24" fill="white"/>
</clipPath>
</defs>
</svg>
