<svg width="100" height="20" viewBox="0 0 100 20" fill="none" xmlns="http://www.w3.org/2000/svg">
<path d="M10.3446 14.901L14.2849 17.3974C14.7886 17.7165 15.4139 17.2419 15.2644 16.654L14.126 12.1756C14.0939 12.0509 14.0977 11.9197 14.137 11.797C14.1762 11.6743 14.2492 11.5652 14.3477 11.4822L17.8811 8.54132C18.3453 8.1549 18.1057 7.38439 17.5092 7.34567L12.8949 7.0462C12.7706 7.03732 12.6514 6.99332 12.5511 6.91931C12.4509 6.84531 12.3737 6.74435 12.3286 6.62819L10.6076 2.29436C10.5609 2.17106 10.4777 2.06492 10.3692 1.99002C10.2606 1.91511 10.1319 1.875 10 1.875C9.86813 1.875 9.73938 1.91511 9.63085 1.99002C9.52232 2.06492 9.43914 2.17106 9.39236 2.29436L7.6714 6.62819C7.62631 6.74435 7.54914 6.84531 7.4489 6.91931C7.34865 6.99332 7.22944 7.03732 7.10515 7.0462L2.49078 7.34567C1.89429 7.38439 1.65466 8.1549 2.11894 8.54132L5.65232 11.4822C5.75079 11.5652 5.82383 11.6743 5.86305 11.797C5.90226 11.9197 5.90606 12.0509 5.874 12.1756L4.81824 16.3288C4.63889 17.0343 5.38929 17.6038 5.99369 17.2209L9.65539 14.901C9.75837 14.8354 9.87792 14.8006 10 14.8006C10.1221 14.8006 10.2416 14.8354 10.3446 14.901Z" fill="#FD8E1F"/>
<path d="M30.3446 14.901L34.2849 17.3974C34.7886 17.7165 35.4139 17.2419 35.2644 16.654L34.126 12.1756C34.0939 12.0509 34.0977 11.9197 34.137 11.797C34.1762 11.6743 34.2492 11.5652 34.3477 11.4822L37.8811 8.54132C38.3453 8.1549 38.1057 7.38439 37.5092 7.34567L32.8949 7.0462C32.7706 7.03732 32.6514 6.99332 32.5511 6.91931C32.4509 6.84531 32.3737 6.74435 32.3286 6.62819L30.6076 2.29436C30.5609 2.17106 30.4777 2.06492 30.3692 1.99002C30.2606 1.91511 30.1319 1.875 30 1.875C29.8681 1.875 29.7394 1.91511 29.6309 1.99002C29.5223 2.06492 29.4391 2.17106 29.3924 2.29436L27.6714 6.62819C27.6263 6.74435 27.5491 6.84531 27.4489 6.91931C27.3486 6.99332 27.2294 7.03732 27.1052 7.0462L22.4908 7.34567C21.8943 7.38439 21.6547 8.1549 22.1189 8.54132L25.6523 11.4822C25.7508 11.5652 25.8238 11.6743 25.863 11.797C25.9023 11.9197 25.9061 12.0509 25.874 12.1756L24.8182 16.3288C24.6389 17.0343 25.3893 17.6038 25.9937 17.2209L29.6554 14.901C29.7584 14.8354 29.8779 14.8006 30 14.8006C30.1221 14.8006 30.2416 14.8354 30.3446 14.901Z" fill="#FD8E1F"/>
<path d="M45.3997 16.4766L46.4551 12.325C46.4552 12.3247 46.4553 12.3243 46.4554 12.324C46.5153 12.0902 46.5081 11.8442 46.4346 11.6143C46.3609 11.384 46.2238 11.1792 46.039 11.0235L46.0362 11.0211L42.5028 8.08016C42.485 8.06541 42.48 8.05363 42.4775 8.04408C42.4741 8.03108 42.4735 8.0121 42.48 7.99129C42.4865 7.97044 42.4967 7.95807 42.503 7.95281L42.503 7.95279C42.5061 7.95013 42.5115 7.94559 42.5296 7.94442L47.144 7.64494L47.144 7.64495L47.1479 7.64468C47.3856 7.6277 47.6135 7.54355 47.8052 7.40203C47.9962 7.26104 48.1434 7.0689 48.2298 6.84783L49.95 2.5158L49.9501 2.51582L49.9533 2.5072C49.9569 2.49774 49.9633 2.48959 49.9717 2.48383C49.98 2.47808 49.9899 2.475 50 2.475C50.0101 2.475 50.02 2.47808 50.0284 2.48383C50.0367 2.48959 50.0431 2.49774 50.0467 2.5072L50.0466 2.50723L50.05 2.5158L51.7703 6.84782C51.8566 7.0689 52.0038 7.26104 52.1948 7.40203C52.3865 7.54355 52.6144 7.6277 52.8521 7.64468L52.8521 7.64469L52.856 7.64494L57.4704 7.94442C57.4885 7.94559 57.4939 7.95013 57.497 7.95279L57.497 7.95281C57.5033 7.95807 57.5135 7.97044 57.52 7.99129C57.5265 8.0121 57.5259 8.03108 57.5225 8.04408C57.52 8.05364 57.515 8.06541 57.4972 8.08016L53.9639 11.0211L53.9638 11.021L53.961 11.0235C53.7762 11.1792 53.6391 11.384 53.5655 11.6143L54.137 11.797L53.5654 11.6143C53.4919 11.8443 53.4847 12.0903 53.5447 12.3241C53.5447 12.3244 53.5448 12.3247 53.5449 12.325L54.6829 16.8018C54.69 16.8295 54.6863 16.8448 54.6829 16.8537C54.6785 16.8656 54.6697 16.8781 54.6568 16.8879C54.644 16.8976 54.6337 16.8997 54.63 16.9C54.6284 16.9001 54.6268 16.9 54.6246 16.8994C54.6225 16.8989 54.6163 16.8971 54.606 16.8905L50.6668 14.3948C50.6666 14.3947 50.6664 14.3946 50.6662 14.3945C50.4671 14.2679 50.236 14.2006 50 14.2006C49.7641 14.2006 49.5332 14.2678 49.3341 14.3943C49.3338 14.3945 49.3335 14.3946 49.3332 14.3948L45.6726 16.714C45.6298 16.7411 45.5967 16.7454 45.5713 16.7437C45.5421 16.7417 45.5077 16.73 45.4748 16.7051C45.4105 16.6563 45.3741 16.5775 45.3997 16.4766Z" stroke="#FD8E1F" stroke-width="1.2" stroke-linecap="round" stroke-linejoin="round"/>
<path d="M65.3997 16.4766L66.4551 12.325C66.4552 12.3247 66.4553 12.3243 66.4554 12.324C66.5153 12.0902 66.5081 11.8442 66.4346 11.6143C66.3609 11.384 66.2238 11.1792 66.039 11.0235L66.0362 11.0211L62.5028 8.08016C62.485 8.06541 62.48 8.05363 62.4775 8.04408C62.4741 8.03108 62.4735 8.0121 62.48 7.99129C62.4865 7.97044 62.4967 7.95807 62.503 7.95281L62.503 7.95279C62.5061 7.95013 62.5115 7.94559 62.5296 7.94442L67.144 7.64494L67.144 7.64495L67.1479 7.64468C67.3856 7.6277 67.6135 7.54355 67.8052 7.40203C67.9962 7.26104 68.1434 7.0689 68.2298 6.84783L69.95 2.5158L69.9501 2.51582L69.9533 2.5072C69.9569 2.49774 69.9633 2.48959 69.9717 2.48383C69.98 2.47808 69.9899 2.475 70 2.475C70.0101 2.475 70.02 2.47808 70.0284 2.48383C70.0367 2.48959 70.0431 2.49774 70.0467 2.5072L70.0466 2.50723L70.05 2.5158L71.7703 6.84782C71.8566 7.0689 72.0038 7.26104 72.1948 7.40203C72.3865 7.54355 72.6144 7.6277 72.8521 7.64468L72.8521 7.64469L72.856 7.64494L77.4704 7.94442C77.4885 7.94559 77.4939 7.95013 77.497 7.95279L77.497 7.95281C77.5033 7.95807 77.5135 7.97044 77.52 7.99129C77.5265 8.0121 77.5259 8.03108 77.5225 8.04408C77.52 8.05364 77.515 8.06541 77.4972 8.08016L73.9639 11.0211L73.9638 11.021L73.961 11.0235C73.7762 11.1792 73.6391 11.384 73.5655 11.6143L74.137 11.797L73.5654 11.6143C73.4919 11.8443 73.4847 12.0903 73.5447 12.3241C73.5447 12.3244 73.5448 12.3247 73.5449 12.325L74.6829 16.8018C74.69 16.8295 74.6863 16.8448 74.6829 16.8537C74.6785 16.8656 74.6697 16.8781 74.6568 16.8879C74.644 16.8976 74.6337 16.8997 74.63 16.9C74.6284 16.9001 74.6268 16.9 74.6246 16.8994C74.6225 16.8989 74.6163 16.8971 74.606 16.8905L70.6668 14.3948C70.6666 14.3947 70.6664 14.3946 70.6662 14.3945C70.4671 14.2679 70.236 14.2006 70 14.2006C69.7641 14.2006 69.5332 14.2678 69.3341 14.3943C69.3338 14.3945 69.3335 14.3946 69.3332 14.3948L65.6726 16.714C65.6298 16.7411 65.5967 16.7454 65.5713 16.7437C65.5421 16.7417 65.5077 16.73 65.4748 16.7051C65.4105 16.6563 65.3741 16.5775 65.3997 16.4766Z" stroke="#FD8E1F" stroke-width="1.2" stroke-linecap="round" stroke-linejoin="round"/>
<path d="M85.3997 16.4766L86.4551 12.325C86.4552 12.3247 86.4553 12.3243 86.4554 12.324C86.5153 12.0902 86.5081 11.8442 86.4346 11.6143C86.3609 11.384 86.2238 11.1792 86.039 11.0235L86.0362 11.0211L82.5028 8.08016C82.485 8.06541 82.48 8.05363 82.4775 8.04408C82.4741 8.03108 82.4735 8.0121 82.48 7.99129C82.4865 7.97044 82.4967 7.95807 82.503 7.95281L82.503 7.95279C82.5061 7.95013 82.5115 7.94559 82.5296 7.94442L87.144 7.64494L87.144 7.64495L87.1479 7.64468C87.3856 7.6277 87.6135 7.54355 87.8052 7.40203C87.9962 7.26104 88.1434 7.0689 88.2298 6.84783L89.95 2.5158L89.9501 2.51582L89.9533 2.5072C89.9569 2.49774 89.9633 2.48959 89.9717 2.48383C89.98 2.47808 89.9899 2.475 90 2.475C90.0101 2.475 90.02 2.47808 90.0284 2.48383C90.0367 2.48959 90.0431 2.49774 90.0467 2.5072L90.0466 2.50723L90.05 2.5158L91.7703 6.84782C91.8566 7.0689 92.0038 7.26104 92.1948 7.40203C92.3865 7.54355 92.6144 7.6277 92.8521 7.64468L92.8521 7.64469L92.856 7.64494L97.4704 7.94442C97.4885 7.94559 97.4939 7.95013 97.497 7.95279L97.497 7.95281C97.5033 7.95807 97.5135 7.97044 97.52 7.99129C97.5265 8.0121 97.5259 8.03108 97.5225 8.04408C97.52 8.05364 97.515 8.06541 97.4972 8.08016L93.9639 11.0211L93.9638 11.021L93.961 11.0235C93.7762 11.1792 93.6391 11.384 93.5655 11.6143L94.137 11.797L93.5654 11.6143C93.4919 11.8443 93.4847 12.0903 93.5447 12.3241C93.5447 12.3244 93.5448 12.3247 93.5449 12.325L94.6829 16.8018C94.69 16.8295 94.6863 16.8448 94.6829 16.8537C94.6785 16.8656 94.6697 16.8781 94.6568 16.8879C94.644 16.8976 94.6337 16.8997 94.63 16.9C94.6284 16.9001 94.6268 16.9 94.6246 16.8994C94.6225 16.8989 94.6163 16.8971 94.606 16.8905L90.6668 14.3948C90.6666 14.3947 90.6664 14.3946 90.6662 14.3945C90.4671 14.2679 90.236 14.2006 90 14.2006C89.7641 14.2006 89.5332 14.2678 89.3341 14.3943C89.3338 14.3945 89.3335 14.3946 89.3332 14.3948L85.6726 16.714C85.6298 16.7411 85.5967 16.7454 85.5713 16.7437C85.5421 16.7417 85.5077 16.73 85.4748 16.7051C85.4105 16.6563 85.3741 16.5775 85.3997 16.4766Z" stroke="#FD8E1F" stroke-width="1.2" stroke-linecap="round" stroke-linejoin="round"/>
</svg>
