<svg width="100" height="20" viewBox="0 0 100 20" fill="none" xmlns="http://www.w3.org/2000/svg">
<path d="M10.3446 14.901L14.2849 17.3974C14.7886 17.7165 15.4139 17.2419 15.2644 16.654L14.126 12.1756C14.0939 12.0509 14.0977 11.9197 14.137 11.797C14.1762 11.6743 14.2492 11.5652 14.3477 11.4822L17.8811 8.54132C18.3453 8.1549 18.1057 7.38439 17.5092 7.34567L12.8949 7.0462C12.7706 7.03732 12.6514 6.99332 12.5511 6.91931C12.4509 6.84531 12.3737 6.74435 12.3286 6.62819L10.6076 2.29436C10.5609 2.17106 10.4777 2.06492 10.3692 1.99002C10.2606 1.91511 10.1319 1.875 10 1.875C9.86813 1.875 9.73938 1.91511 9.63085 1.99002C9.52232 2.06492 9.43914 2.17106 9.39236 2.29436L7.6714 6.62819C7.62631 6.74435 7.54914 6.84531 7.4489 6.91931C7.34865 6.99332 7.22944 7.03732 7.10515 7.0462L2.49078 7.34567C1.89429 7.38439 1.65466 8.1549 2.11894 8.54132L5.65232 11.4822C5.75079 11.5652 5.82383 11.6743 5.86305 11.797C5.90226 11.9197 5.90606 12.0509 5.874 12.1756L4.81824 16.3288C4.63889 17.0343 5.38929 17.6038 5.99369 17.2209L9.65539 14.901C9.75837 14.8354 9.87792 14.8006 10 14.8006C10.1221 14.8006 10.2416 14.8354 10.3446 14.901Z" fill="#FD8E1F"/>
<path d="M30.3446 14.901L34.2849 17.3974C34.7886 17.7165 35.4139 17.2419 35.2644 16.654L34.126 12.1756C34.0939 12.0509 34.0977 11.9197 34.137 11.797C34.1762 11.6743 34.2492 11.5652 34.3477 11.4822L37.8811 8.54132C38.3453 8.1549 38.1057 7.38439 37.5092 7.34567L32.8949 7.0462C32.7706 7.03732 32.6514 6.99332 32.5511 6.91931C32.4509 6.84531 32.3737 6.74435 32.3286 6.62819L30.6076 2.29436C30.5609 2.17106 30.4777 2.06492 30.3692 1.99002C30.2606 1.91511 30.1319 1.875 30 1.875C29.8681 1.875 29.7394 1.91511 29.6309 1.99002C29.5223 2.06492 29.4391 2.17106 29.3924 2.29436L27.6714 6.62819C27.6263 6.74435 27.5491 6.84531 27.4489 6.91931C27.3486 6.99332 27.2294 7.03732 27.1052 7.0462L22.4908 7.34567C21.8943 7.38439 21.6547 8.1549 22.1189 8.54132L25.6523 11.4822C25.7508 11.5652 25.8238 11.6743 25.863 11.797C25.9023 11.9197 25.9061 12.0509 25.874 12.1756L24.8182 16.3288C24.6389 17.0343 25.3893 17.6038 25.9937 17.2209L29.6554 14.901C29.7584 14.8354 29.8779 14.8006 30 14.8006C30.1221 14.8006 30.2416 14.8354 30.3446 14.901Z" fill="#FD8E1F"/>
<path d="M50.3446 14.901L54.2849 17.3974C54.7886 17.7165 55.4139 17.2419 55.2644 16.654L54.126 12.1756C54.0939 12.0509 54.0977 11.9197 54.137 11.797C54.1762 11.6743 54.2492 11.5652 54.3477 11.4822L57.8811 8.54132C58.3453 8.1549 58.1057 7.38439 57.5092 7.34567L52.8949 7.0462C52.7706 7.03732 52.6514 6.99332 52.5511 6.91931C52.4509 6.84531 52.3737 6.74435 52.3286 6.62819L50.6076 2.29436C50.5609 2.17106 50.4777 2.06492 50.3692 1.99002C50.2606 1.91511 50.1319 1.875 50 1.875C49.8681 1.875 49.7394 1.91511 49.6309 1.99002C49.5223 2.06492 49.4391 2.17106 49.3924 2.29436L47.6714 6.62819C47.6263 6.74435 47.5491 6.84531 47.4489 6.91931C47.3486 6.99332 47.2294 7.03732 47.1052 7.0462L42.4908 7.34567C41.8943 7.38439 41.6547 8.1549 42.1189 8.54132L45.6523 11.4822C45.7508 11.5652 45.8238 11.6743 45.863 11.797C45.9023 11.9197 45.9061 12.0509 45.874 12.1756L44.8182 16.3288C44.6389 17.0343 45.3893 17.6038 45.9937 17.2209L49.6554 14.901C49.7584 14.8354 49.8779 14.8006 50 14.8006C50.1221 14.8006 50.2416 14.8354 50.3446 14.901Z" fill="#FD8E1F"/>
<path d="M70.3446 14.901L74.2849 17.3974C74.7886 17.7165 75.4139 17.2419 75.2644 16.654L74.126 12.1756C74.0939 12.0509 74.0977 11.9197 74.137 11.797C74.1762 11.6743 74.2492 11.5652 74.3477 11.4822L77.8811 8.54132C78.3453 8.1549 78.1057 7.38439 77.5092 7.34567L72.8949 7.0462C72.7706 7.03732 72.6514 6.99332 72.5511 6.91931C72.4509 6.84531 72.3737 6.74435 72.3286 6.62819L70.6076 2.29436C70.5609 2.17106 70.4777 2.06492 70.3692 1.99002C70.2606 1.91511 70.1319 1.875 70 1.875C69.8681 1.875 69.7394 1.91511 69.6309 1.99002C69.5223 2.06492 69.4391 2.17106 69.3924 2.29436L67.6714 6.62819C67.6263 6.74435 67.5491 6.84531 67.4489 6.91931C67.3486 6.99332 67.2294 7.03732 67.1052 7.0462L62.4908 7.34567C61.8943 7.38439 61.6547 8.1549 62.1189 8.54132L65.6523 11.4822C65.7508 11.5652 65.8238 11.6743 65.863 11.797C65.9023 11.9197 65.9061 12.0509 65.874 12.1756L64.8182 16.3288C64.6389 17.0343 65.3893 17.6038 65.9937 17.2209L69.6554 14.901C69.7584 14.8354 69.8779 14.8006 70 14.8006C70.1221 14.8006 70.2416 14.8354 70.3446 14.901Z" fill="#FD8E1F"/>
<path d="M85.3997 16.4766L86.4551 12.325C86.4552 12.3247 86.4553 12.3243 86.4554 12.324C86.5153 12.0902 86.5081 11.8442 86.4346 11.6143C86.3609 11.384 86.2238 11.1792 86.039 11.0235L86.0362 11.0211L82.5028 8.08016C82.485 8.06541 82.48 8.05363 82.4775 8.04408C82.4741 8.03108 82.4735 8.0121 82.48 7.99129C82.4865 7.97044 82.4967 7.95807 82.503 7.95281L82.503 7.95279C82.5061 7.95013 82.5115 7.94559 82.5296 7.94442L87.144 7.64494L87.144 7.64495L87.1479 7.64468C87.3856 7.6277 87.6135 7.54355 87.8052 7.40203C87.9962 7.26104 88.1434 7.0689 88.2298 6.84783L89.95 2.5158L89.9501 2.51582L89.9533 2.5072C89.9569 2.49774 89.9633 2.48959 89.9717 2.48383C89.98 2.47808 89.9899 2.475 90 2.475C90.0101 2.475 90.02 2.47808 90.0284 2.48383C90.0367 2.48959 90.0431 2.49774 90.0467 2.5072L90.0466 2.50723L90.05 2.5158L91.7703 6.84782C91.8566 7.0689 92.0038 7.26104 92.1948 7.40203C92.3865 7.54355 92.6144 7.6277 92.8521 7.64468L92.8521 7.64469L92.856 7.64494L97.4704 7.94442C97.4885 7.94559 97.4939 7.95013 97.497 7.95279L97.497 7.95281C97.5033 7.95807 97.5135 7.97044 97.52 7.99129C97.5265 8.0121 97.5259 8.03108 97.5225 8.04408C97.52 8.05364 97.515 8.06541 97.4972 8.08016L93.9639 11.0211L93.9638 11.021L93.961 11.0235C93.7762 11.1792 93.6391 11.384 93.5655 11.6143L94.137 11.797L93.5654 11.6143C93.4919 11.8443 93.4847 12.0903 93.5447 12.3241C93.5447 12.3244 93.5448 12.3247 93.5449 12.325L94.6829 16.8018C94.69 16.8295 94.6863 16.8448 94.6829 16.8537C94.6785 16.8656 94.6697 16.8781 94.6568 16.8879C94.644 16.8976 94.6337 16.8997 94.63 16.9C94.6284 16.9001 94.6268 16.9 94.6246 16.8994C94.6225 16.8989 94.6163 16.8971 94.606 16.8905L90.6668 14.3948C90.6666 14.3947 90.6664 14.3946 90.6662 14.3945C90.4671 14.2679 90.236 14.2006 90 14.2006C89.7641 14.2006 89.5332 14.2678 89.3341 14.3943C89.3338 14.3945 89.3335 14.3946 89.3332 14.3948L85.6726 16.714C85.6298 16.7411 85.5967 16.7454 85.5713 16.7437C85.5421 16.7417 85.5077 16.73 85.4748 16.7051C85.4105 16.6563 85.3741 16.5775 85.3997 16.4766Z" stroke="#FD8E1F" stroke-width="1.2" stroke-linecap="round" stroke-linejoin="round"/>
</svg>
