<svg width="14" height="15" viewBox="0 0 14 15" fill="none" xmlns="http://www.w3.org/2000/svg">
<path d="M7.58268 7.5H12.8327M12.8327 7.5L10.8884 5.16667M12.8327 7.5L10.8884 9.83334M8.16602 4.58334V3.51817C8.16601 3.35681 8.13253 3.1972 8.06768 3.04943C8.00284 2.90167 7.90805 2.76896 7.78931 2.6597C7.67056 2.55044 7.53044 2.467 7.3778 2.41465C7.22516 2.36231 7.06332 2.34219 6.90252 2.35559L2.23585 2.74409C1.94421 2.76838 1.67235 2.90138 1.47419 3.11673C1.27603 3.33207 1.16603 3.61402 1.16602 3.90667V11.0933C1.16603 11.386 1.27603 11.6679 1.47419 11.8833C1.67235 12.0986 1.94421 12.2316 2.23585 12.2559L6.90252 12.645C7.06337 12.6584 7.22526 12.6383 7.37794 12.5859C7.53062 12.5335 7.67077 12.45 7.78952 12.3407C7.90828 12.2314 8.00305 12.0986 8.06786 11.9508C8.13267 11.8029 8.16609 11.6433 8.16602 11.4818V10.4167" stroke="#FF5757" stroke-width="1.16667" stroke-linecap="round" stroke-linejoin="round"/>
</svg>
