<svg width="132" height="34" viewBox="0 0 132 34" fill="none" xmlns="http://www.w3.org/2000/svg">
<path d="M20.0465 15.8144C20.0152 12.0589 23.1005 10.2336 23.236 10.1497C21.4849 7.59007 18.7748 7.2334 17.8263 7.20193C15.554 6.96066 13.3443 8.57615 12.1873 8.57615C11.0094 8.57615 9.21662 7.2334 7.29873 7.26487C4.82839 7.30684 2.50399 8.74399 1.24276 10.9889C-1.37349 15.5521 0.57567 22.2658 3.0877 25.9584C4.34892 27.7627 5.80819 29.7873 7.73651 29.7138C9.61271 29.6404 10.3215 28.5075 12.5834 28.5075C14.8348 28.5075 15.4915 29.7138 17.4511 29.6719C19.4732 29.6404 20.7344 27.8571 21.9539 26.0318C23.4028 23.9652 23.9865 21.9196 24.0073 21.8147C23.9552 21.7938 20.0882 20.3042 20.0465 15.8144Z" fill="white"/>
<path d="M16.3463 4.77889C17.3574 3.50958 18.0453 1.7787 17.8577 0.0163574C16.3984 0.0792984 14.5639 1.0339 13.5111 2.28223C12.5835 3.3837 11.7496 5.17752 11.9581 6.86643C13.605 6.99231 15.2935 6.02722 16.3463 4.77889Z" fill="white"/>
<path d="M51.8552 29.4517H49.2285L47.7901 24.899H42.7869L41.4214 29.4517H38.8677L43.8188 13.9578H46.8832L51.8552 29.4517ZM47.3627 22.9898L46.0598 18.9511C45.9243 18.5315 45.6637 17.5664 45.2885 16.0348H45.2363C45.08 16.6957 44.8402 17.6713 44.5067 18.9511L43.2246 22.9898H47.3627Z" fill="white"/>
<path d="M64.582 23.7346C64.582 25.6333 64.0713 27.1334 63.0394 28.2349C62.1221 29.221 60.9756 29.7035 59.6205 29.7035C58.1508 29.7035 57.0981 29.179 56.4518 28.1195V33.9835H53.9815V21.9513C53.9815 20.7554 53.9502 19.5386 53.8877 18.2797H56.0558L56.1913 20.0526H56.2329C57.0564 18.7203 58.3072 18.049 59.9749 18.049C61.2883 18.049 62.3723 18.5735 63.2479 19.612C64.1443 20.661 64.582 22.0247 64.582 23.7346ZM62.07 23.8185C62.07 22.7276 61.8303 21.8359 61.3404 21.1331C60.8088 20.3987 60.0896 20.0316 59.1932 20.0316C58.5886 20.0316 58.0362 20.2414 57.5359 20.64C57.046 21.0491 56.7124 21.5736 56.5665 22.2345C56.4935 22.5387 56.4518 22.7905 56.4518 22.9898V24.8571C56.4518 25.6648 56.702 26.3572 57.1919 26.9131C57.6818 27.4691 58.328 27.7524 59.1202 27.7524C60.0479 27.7524 60.7671 27.3852 61.2883 26.6719C61.8094 25.948 62.07 25.0039 62.07 23.8185Z" fill="white"/>
<path d="M77.3404 23.7346C77.3404 25.6333 76.8296 27.1334 75.7977 28.2349C74.8804 29.221 73.7339 29.7035 72.3788 29.7035C70.9091 29.7035 69.8564 29.179 69.2101 28.1195V33.9835H66.7398V21.9513C66.7398 20.7554 66.7085 19.5386 66.646 18.2797H68.8141L68.9496 20.0526H68.9913C69.8147 18.7203 71.0655 18.049 72.7332 18.049C74.0466 18.049 75.1306 18.5735 76.0062 19.612C76.9026 20.661 77.3404 22.0247 77.3404 23.7346ZM74.8283 23.8185C74.8283 22.7276 74.5886 21.8359 74.0987 21.1331C73.5671 20.3987 72.8479 20.0316 71.9515 20.0316C71.3469 20.0316 70.7945 20.2414 70.2942 20.64C69.8043 21.0491 69.4811 21.5736 69.3248 22.2345C69.2518 22.5387 69.2101 22.7905 69.2101 22.9898V24.8571C69.2101 25.6648 69.4603 26.3572 69.9502 26.9131C70.4401 27.4691 71.0863 27.7524 71.8785 27.7524C72.8062 27.7524 73.5358 27.3852 74.0466 26.6719C74.5782 25.948 74.8283 25.0039 74.8283 23.8185Z" fill="white"/>
<path d="M91.6203 25.109C91.6203 26.4308 91.1617 27.5008 90.2549 28.3295C89.2543 29.2316 87.8575 29.6827 86.0647 29.6827C84.4074 29.6827 83.0836 29.3575 82.083 28.7176L82.6563 26.6511C83.7403 27.291 84.9286 27.6162 86.2211 27.6162C87.1487 27.6162 87.8784 27.4063 88.3891 26.9867C88.9103 26.5671 89.1709 26.0007 89.1709 25.2978C89.1709 24.6684 88.952 24.1439 88.535 23.7138C88.1077 23.2837 87.3989 22.8851 86.4087 22.5179C83.6882 21.5004 82.3436 20.0213 82.3436 18.0806C82.3436 16.8113 82.8231 15.7728 83.7716 14.9545C84.7201 14.1468 85.9813 13.7377 87.5553 13.7377C88.952 13.7377 90.1194 13.9789 91.0471 14.472L90.4217 16.4861C89.5461 16.014 88.5663 15.7728 87.4614 15.7728C86.5963 15.7728 85.9084 15.9931 85.4185 16.4127C85.012 16.8008 84.8035 17.2624 84.8035 17.8183C84.8035 18.4268 85.0432 18.9408 85.5123 19.3289C85.9188 19.6961 86.6693 20.0947 87.7533 20.5248C89.0771 21.0598 90.0464 21.6892 90.6718 22.413C91.3076 23.1369 91.6203 24.039 91.6203 25.109Z" fill="white"/>
<path d="M99.7919 20.1473H97.0714V25.5707C97.0714 26.9449 97.5509 27.6372 98.5099 27.6372C98.9476 27.6372 99.3125 27.5953 99.6043 27.5219L99.6773 29.4101C99.1874 29.5884 98.5516 29.6828 97.7594 29.6828C96.7796 29.6828 96.0291 29.3786 95.4767 28.7807C94.9242 28.1827 94.6532 27.1757 94.6532 25.77V20.1368H93.0376V18.28H94.6532V16.2344L97.0714 15.5001V18.28H99.7919V20.1473Z" fill="white"/>
<path d="M112.029 23.777C112.029 25.4973 111.539 26.903 110.57 28.0045C109.549 29.1374 108.193 29.7039 106.505 29.7039C104.879 29.7039 103.576 29.1584 102.607 28.0779C101.637 26.9974 101.158 25.6232 101.158 23.9658C101.158 22.2349 101.658 20.8187 102.648 19.7173C103.649 18.6158 104.994 18.0598 106.682 18.0598C108.308 18.0598 109.621 18.6053 110.612 19.6963C111.56 20.7453 112.029 22.109 112.029 23.777ZM109.476 23.8294C109.476 22.8014 109.257 21.9307 108.819 21.1964C108.298 20.3047 107.558 19.8641 106.599 19.8641C105.608 19.8641 104.848 20.3047 104.337 21.1964C103.889 21.9307 103.68 22.8224 103.68 23.8819C103.68 24.9099 103.899 25.7911 104.337 26.5149C104.868 27.4066 105.619 27.8471 106.578 27.8471C107.516 27.8471 108.256 27.3961 108.798 26.4939C109.246 25.7386 109.476 24.8574 109.476 23.8294Z" fill="white"/>
<path d="M120.055 20.4617C119.815 20.4197 119.555 20.3987 119.273 20.3987C118.408 20.3987 117.731 20.7239 117.262 21.3848C116.855 21.9618 116.647 22.7066 116.647 23.5878V29.4518H114.176V21.7939C114.176 20.5036 114.156 19.3287 114.104 18.2797H116.251L116.345 20.4197H116.417C116.678 19.6854 117.085 19.0875 117.647 18.6469C118.2 18.2483 118.794 18.049 119.43 18.049C119.659 18.049 119.868 18.0699 120.045 18.0909L120.055 20.4617Z" fill="white"/>
<path d="M131.083 23.3362C131.083 23.7768 131.052 24.1544 130.989 24.4587H123.588C123.62 25.5601 123.974 26.4098 124.662 26.9868C125.287 27.5008 126.09 27.7631 127.08 27.7631C128.175 27.7631 129.175 27.5847 130.072 27.2386L130.457 28.9589C129.405 29.4205 128.164 29.6513 126.736 29.6513C125.016 29.6513 123.661 29.1373 122.682 28.1197C121.702 27.1022 121.212 25.728 121.212 24.0181C121.212 22.3396 121.671 20.934 122.588 19.8115C123.547 18.6156 124.839 18.0177 126.465 18.0177C128.06 18.0177 129.28 18.6156 130.093 19.8115C130.749 20.7766 131.083 21.941 131.083 23.3362ZM128.727 22.6963C128.748 21.962 128.581 21.3221 128.248 20.7871C127.82 20.0948 127.164 19.7486 126.288 19.7486C125.485 19.7486 124.829 20.0843 124.328 20.7556C123.922 21.2906 123.672 21.941 123.599 22.6858L128.727 22.6963Z" fill="white"/>
<path d="M46.1751 8.41933H44.8827L44.1739 6.18492H41.714L41.0364 8.41933H39.7856L42.2143 0.803467H43.7152L46.1751 8.41933ZM43.955 5.24081L43.3192 3.24768C43.2566 3.04836 43.1315 2.56582 42.9335 1.81052H42.9126C42.8293 2.13572 42.725 2.60778 42.5478 3.24768L41.9224 5.24081H43.955Z" fill="white"/>
<path d="M52.2624 2.92236L50.1986 8.41921H49.0208L47.0195 2.92236H48.3224L49.2501 5.82814C49.4065 6.31069 49.542 6.77226 49.6462 7.21284H49.6775C49.7713 6.81422 49.9068 6.35265 50.0736 5.82814L50.9908 2.92236H52.2624Z" fill="white"/>
<path d="M56.661 8.41926L56.5672 7.78985H56.536C56.1607 8.29338 55.6291 8.54514 54.9412 8.54514C53.9614 8.54514 53.2734 7.85279 53.2734 6.92966C53.2734 5.57643 54.4409 4.87358 56.463 4.87358V4.76868C56.463 4.04486 56.0773 3.6882 55.3268 3.6882C54.7848 3.6882 54.3158 3.82457 53.8988 4.09731L53.6487 3.30006C54.149 2.98536 54.7848 2.828 55.5249 2.828C56.9529 2.828 57.6721 3.58329 57.6721 5.10437V7.12897C57.6721 7.68495 57.6929 8.11504 57.7555 8.44024L56.661 8.41926ZM56.4943 5.68133C55.1496 5.68133 54.4721 6.00652 54.4721 6.79328C54.4721 7.37024 54.8161 7.65348 55.306 7.65348C55.921 7.65348 56.4943 7.18142 56.4943 6.53103V5.68133Z" fill="white"/>
<path d="M60.3719 2.0199C59.9652 2.0199 59.6523 1.7052 59.6523 1.28559C59.6523 0.865983 59.9756 0.561768 60.3928 0.561768C60.8099 0.561768 61.1437 0.865983 61.1332 1.28559C61.1332 1.72618 60.8204 2.0199 60.3719 2.0199ZM59.7879 2.92206H60.9977V8.40841H59.7879V2.92206Z" fill="white"/>
<path d="M63.1548 0.404663H64.3637V8.40866H63.1548V0.404663Z" fill="white"/>
<path d="M69.5131 8.41889L69.4193 7.78948H69.388C69.0127 8.293 68.4812 8.54477 67.7932 8.54477C66.8134 8.54477 66.1255 7.85242 66.1255 6.92928C66.1255 5.57605 67.2929 4.87321 69.315 4.87321V4.76831C69.315 4.04449 68.9294 3.68782 68.1789 3.68782C67.6369 3.68782 67.1678 3.82419 66.7509 4.09694L66.5007 3.2892C67.001 2.97449 67.6369 2.81714 68.3769 2.81714C69.8049 2.81714 70.5241 3.57243 70.5241 5.0935V7.11811C70.5241 7.67409 70.545 8.10418 70.5971 8.42938H69.5131V8.41889ZM69.3463 5.68095C68.0017 5.68095 67.3242 6.00615 67.3242 6.79291C67.3242 7.36987 67.6681 7.65311 68.158 7.65311C68.773 7.65311 69.3463 7.18105 69.3463 6.53066V5.68095Z" fill="white"/>
<path d="M75.4442 8.54503C74.6729 8.54503 74.0996 8.21984 73.7243 7.56945H73.7035L73.6305 8.41915H72.5986C72.6299 7.97857 72.6403 7.48553 72.6403 6.94004V0.404663H73.8598V3.73005H73.8807C74.2455 3.12162 74.8188 2.8174 75.6214 2.8174C76.9347 2.8174 77.852 3.95034 77.852 5.5973C77.852 7.2967 76.8305 8.54503 75.4442 8.54503ZM75.194 3.77201C74.4957 3.77201 73.8598 4.38044 73.8598 5.23014V6.19524C73.8598 6.95053 74.4331 7.56945 75.1732 7.56945C76.08 7.56945 76.622 6.82465 76.622 5.63926C76.622 4.5273 76.0592 3.77201 75.194 3.77201Z" fill="white"/>
<path d="M79.6445 0.404663H80.8534V8.40866H79.6445V0.404663Z" fill="white"/>
<path d="M87.4516 5.96429H83.8139C83.8347 7.00282 84.5227 7.59027 85.5337 7.59027C86.0758 7.59027 86.5656 7.49586 87.0034 7.32801L87.191 8.17772C86.6803 8.4085 86.0758 8.5134 85.367 8.5134C83.6575 8.5134 82.6465 7.43292 82.6465 5.744C82.6465 4.06557 83.6784 2.79626 85.2315 2.79626C86.6178 2.79626 87.5037 3.83479 87.5037 5.40831C87.5037 5.62861 87.4933 5.81743 87.4516 5.96429ZM86.3468 5.09361C86.3468 4.24391 85.9194 3.64597 85.1481 3.64597C84.4497 3.64597 83.9077 4.2544 83.8243 5.09361H86.3468Z" fill="white"/>
<path d="M94.8 8.54477C93.2053 8.54477 92.1733 7.34889 92.1733 5.72291C92.1733 4.02351 93.2261 2.81714 94.8939 2.81714C96.4678 2.81714 97.5206 3.96057 97.5206 5.6285C97.5206 7.3384 96.4365 8.54477 94.8 8.54477ZM94.8522 3.7088C93.9766 3.7088 93.4137 4.53753 93.4137 5.68095C93.4137 6.81389 93.987 7.63212 94.8417 7.63212C95.6965 7.63212 96.2697 6.75095 96.2697 5.64948C96.2593 4.53753 95.7069 3.7088 94.8522 3.7088Z" fill="white"/>
<path d="M104.035 8.419H102.826V5.26146C102.826 4.28588 102.451 3.80333 101.721 3.80333C101.002 3.80333 100.512 4.42225 100.512 5.14607V8.40851H99.3029V4.49568C99.3029 4.01313 99.2925 3.48862 99.2612 2.92215H100.324L100.377 3.77186H100.408C100.731 3.18441 101.398 2.80676 102.138 2.80676C103.285 2.80676 104.035 3.68794 104.035 5.12509V8.419Z" fill="white"/>
<path d="M111.967 3.84533H110.633V6.50983C110.633 7.19169 110.873 7.52738 111.342 7.52738C111.55 7.52738 111.738 7.5064 111.884 7.47493L111.915 8.39806C111.675 8.49247 111.363 8.53443 110.977 8.53443C110.018 8.53443 109.455 7.99943 109.455 6.61473V3.84533H108.663V2.93268H109.455V1.92563L110.644 1.55847V2.92219H111.978V3.84533" fill="white"/>
<path d="M118.388 8.41915H117.179V5.28259C117.179 4.29652 116.804 3.80348 116.074 3.80348C115.449 3.80348 114.865 4.23357 114.865 5.10426V8.40866H113.656V0.404663H114.865V3.69858H114.886C115.271 3.10064 115.813 2.80691 116.522 2.80691C117.679 2.80691 118.388 3.70907 118.388 5.14622V8.41915Z" fill="white"/>
<path d="M124.58 5.96429H120.942C120.963 7.00282 121.651 7.59027 122.662 7.59027C123.204 7.59027 123.694 7.49586 124.131 7.32801L124.319 8.17772C123.808 8.4085 123.204 8.5134 122.495 8.5134C120.785 8.5134 119.774 7.43292 119.774 5.744C119.774 4.06557 120.806 2.79626 122.359 2.79626C123.746 2.79626 124.632 3.83479 124.632 5.40831C124.632 5.62861 124.621 5.81743 124.58 5.96429ZM123.475 5.09361C123.475 4.24391 123.047 3.64597 122.276 3.64597C121.578 3.64597 121.025 4.2544 120.952 5.09361H123.475Z" fill="white"/>
</svg>
