<svg width="96" height="96" viewBox="0 0 96 96" fill="none" xmlns="http://www.w3.org/2000/svg">
<path d="M58.6883 23.9793L58.6886 23.9793C58.9408 23.9788 59.1826 23.8784 59.3609 23.7C59.5393 23.5216 59.6397 23.2799 59.6402 23.0276H59.6403L59.6402 23.0241C59.6087 21.57 59.2443 20.1425 58.5752 18.8512C57.9063 17.5605 56.9508 16.4402 55.7817 15.5761L52.2476 12.8147L52.2473 12.8144C52.144 12.7341 52.0253 12.676 51.8986 12.6435C51.7719 12.611 51.6399 12.605 51.5107 12.6257C51.3816 12.6465 51.2581 12.6936 51.1479 12.7641C51.0609 12.8198 50.9837 12.8891 50.9192 12.9693H44.2048C44.1403 12.8891 44.0631 12.8198 43.9761 12.7641L43.9761 12.7641C43.8659 12.6936 43.7424 12.6465 43.6133 12.6257C43.4841 12.605 43.3521 12.611 43.2254 12.6435C43.0987 12.676 42.98 12.7341 42.8767 12.8144L42.8764 12.8147L39.3423 15.5761C38.1734 16.4399 37.2179 17.56 36.549 18.8504C35.8799 20.1414 35.5155 21.5686 35.4838 23.0224L35.4838 23.0224V23.0257C35.4838 23.2786 35.5843 23.5212 35.7631 23.7C35.9419 23.8788 36.1845 23.9793 36.4374 23.9793L58.6883 23.9793ZM54.6103 17.0802L54.6102 17.0802L54.6132 17.0824C55.4414 17.6967 56.1397 18.4691 56.6674 19.355C57.1657 20.1912 57.5027 21.1128 57.6616 22.0721H37.464C37.6225 21.1131 37.9591 20.1915 38.4568 19.3553C38.984 18.4695 39.6816 17.6969 40.5093 17.0824L40.5093 17.0824L40.5122 17.0802L43.3423 14.8704C43.3819 14.8753 43.4217 14.8779 43.4616 14.878H43.4622L51.6586 14.878L51.659 14.878C51.699 14.8779 51.7389 14.8754 51.7786 14.8704L54.6103 17.0802Z" fill="#FF5757" stroke="#FF5757" stroke-width="0.3"/>
<path d="M10.0379 89.5752H22.0819C22.3348 89.5752 22.5773 89.4748 22.7562 89.2959C22.935 89.1171 23.0354 88.8746 23.0354 88.6217V49.8895C23.0354 49.6366 22.935 49.3941 22.7562 49.2152C22.5773 49.0364 22.3348 48.9359 22.0819 48.9359H10.0379C9.78504 48.9359 9.5425 49.0364 9.36367 49.2152C9.18484 49.3941 9.08437 49.6366 9.08437 49.8895V88.6217C9.08437 88.8746 9.18484 89.1171 9.36367 89.2959C9.5425 89.4748 9.78504 89.5752 10.0379 89.5752ZM21.1283 50.8431V87.6681H10.9915V50.8431H21.1283Z" fill="#FF5757" stroke="#FF5757" stroke-width="0.3"/>
<path d="M73.0419 89.5752H85.0858C85.3387 89.5752 85.5812 89.4748 85.7601 89.2959C85.9389 89.1171 86.0394 88.8746 86.0394 88.6217V49.8895C86.0394 49.6366 85.9389 49.3941 85.7601 49.2152C85.5812 49.0364 85.3387 48.9359 85.0858 48.9359H73.0419C72.789 48.9359 72.5464 49.0364 72.3676 49.2152C72.1887 49.3941 72.0883 49.6366 72.0883 49.8895V88.6217C72.0883 88.8746 72.1887 89.1171 72.3676 89.2959C72.5464 89.4748 72.789 89.5752 73.0419 89.5752ZM84.1322 50.8431V87.6681H73.9954V50.8431H84.1322Z" fill="#FF5757" stroke="#FF5757" stroke-width="0.3"/>
<path d="M35.1874 89.576H41.0116C41.2645 89.576 41.5071 89.4756 41.6859 89.2968C41.8648 89.1179 41.9652 88.8754 41.9652 88.6225V64.4012C41.9652 64.1483 41.8648 63.9058 41.6859 63.727C41.5071 63.5481 41.2645 63.4477 41.0116 63.4477H35.1874C34.9345 63.4477 34.6919 63.5481 34.5131 63.727C34.3343 63.9058 34.2338 64.1483 34.2338 64.4012V88.6225C34.2338 88.8754 34.3343 89.1179 34.5131 89.2968C34.6919 89.4756 34.9345 89.576 35.1874 89.576ZM40.0581 65.3548V87.6689H36.1409V65.3548H40.0581Z" fill="#FF5757" stroke="#FF5757" stroke-width="0.3"/>
<path d="M41.0106 89.576H54.112C54.3649 89.576 54.6075 89.4756 54.7863 89.2968C54.9651 89.1179 55.0656 88.8754 55.0656 88.6225V64.4012C55.0656 64.1483 54.9651 63.9058 54.7863 63.727C54.6075 63.5481 54.3649 63.4477 54.112 63.4477H41.0106C40.7577 63.4477 40.5152 63.5481 40.3363 63.727C40.1575 63.9058 40.057 64.1483 40.057 64.4012V88.6225C40.057 88.8754 40.1575 89.1179 40.3363 89.2968C40.5152 89.4756 40.7577 89.576 41.0106 89.576ZM53.1585 65.3548V87.6689H41.9642V65.3548H53.1585Z" fill="#FF5757" stroke="#FF5757" stroke-width="0.3"/>
<path d="M22.0819 89.576H27.9078C28.1607 89.576 28.4032 89.4756 28.5821 89.2968C28.7609 89.1179 28.8614 88.8754 28.8614 88.6225V64.4012C28.8614 64.1483 28.7609 63.9058 28.5821 63.727C28.4032 63.5481 28.1607 63.4477 27.9078 63.4477H22.0819C21.829 63.4477 21.5864 63.5481 21.4076 63.727C21.2288 63.9058 21.1283 64.1483 21.1283 64.4012V88.6225C21.1283 88.8754 21.2288 89.1179 21.4076 89.2968C21.5864 89.4756 21.829 89.576 22.0819 89.576ZM26.9542 65.3548V87.6689H23.0355V65.3548H26.9542Z" fill="#FF5757" stroke="#FF5757" stroke-width="0.3"/>
<path d="M27.9081 89.576H35.1868C35.4397 89.576 35.6823 89.4756 35.8611 89.2968C36.0399 89.1179 36.1404 88.8754 36.1404 88.6225V64.4012C36.1404 64.1483 36.0399 63.9058 35.8611 63.727C35.6823 63.5481 35.4397 63.4477 35.1868 63.4477H27.9081C27.6552 63.4477 27.4126 63.5481 27.2338 63.727C27.055 63.9058 26.9545 64.1483 26.9545 64.4012V88.6225C26.9545 88.8754 27.055 89.1179 27.2338 89.2968C27.4126 89.4756 27.6552 89.576 27.9081 89.576ZM34.2332 65.3548V87.6689H28.8616V65.3548H34.2332Z" fill="#FF5757" stroke="#FF5757" stroke-width="0.3"/>
<path d="M67.2157 89.576H73.0416C73.2945 89.576 73.537 89.4756 73.7159 89.2968C73.8947 89.1179 73.9951 88.8754 73.9951 88.6225V64.4012C73.9951 64.1483 73.8947 63.9058 73.7159 63.727C73.537 63.5481 73.2945 63.4477 73.0416 63.4477H67.2157C66.9628 63.4477 66.7202 63.5481 66.5414 63.727C66.3626 63.9058 66.2621 64.1483 66.2621 64.4012V88.6225C66.2621 88.8754 66.3626 89.1179 66.5414 89.2968C66.7202 89.4756 66.9628 89.576 67.2157 89.576ZM72.088 65.3548V87.6689H68.1693V65.3548H72.088Z" fill="#FF5757" stroke="#FF5757" stroke-width="0.3"/>
<path d="M54.1131 89.576H59.9374C60.1903 89.576 60.4329 89.4756 60.6117 89.2968C60.7905 89.1179 60.891 88.8754 60.891 88.6225V64.4012C60.891 64.1483 60.7905 63.9058 60.6117 63.727C60.4329 63.5481 60.1903 63.4477 59.9374 63.4477H54.1131C53.8602 63.4477 53.6177 63.5481 53.4389 63.727C53.26 63.9058 53.1596 64.1483 53.1596 64.4012V88.6225C53.1596 88.8754 53.26 89.1179 53.4389 89.2968C53.6177 89.4756 53.8602 89.576 54.1131 89.576ZM58.9839 65.3548V87.6689H55.0667V65.3548H58.9839Z" fill="#FF5757" stroke="#FF5757" stroke-width="0.3"/>
<path d="M59.9374 89.576H67.2161C67.469 89.576 67.7116 89.4756 67.8904 89.2968C68.0692 89.1179 68.1697 88.8754 68.1697 88.6225V64.4012C68.1697 64.1483 68.0692 63.9058 67.8904 63.727C67.7116 63.5481 67.469 63.4477 67.2161 63.4477H59.9374C59.6845 63.4477 59.4419 63.5481 59.2631 63.727C59.0843 63.9058 58.9838 64.1483 58.9838 64.4012V88.6225C58.9838 88.8754 59.0843 89.1179 59.2631 89.2968C59.4419 89.4756 59.6845 89.576 59.9374 89.576ZM66.2625 65.3548V87.6689H60.8909V65.3548H66.2625Z" fill="#FF5757" stroke="#FF5757" stroke-width="0.3"/>
<path d="M22.0819 65.3549H73.0412C73.2941 65.3549 73.5366 65.2544 73.7155 65.0756C73.8943 64.8967 73.9947 64.6542 73.9947 64.4013V60.827C73.9947 60.5741 73.8943 60.3316 73.7155 60.1527C73.5366 59.9739 73.2941 59.8734 73.0412 59.8734H22.0819C21.829 59.8734 21.5864 59.9739 21.4076 60.1527C21.2288 60.3316 21.1283 60.5741 21.1283 60.827V64.4013C21.1283 64.6542 21.2288 64.8967 21.4076 65.0756C21.5864 65.2544 21.829 65.3549 22.0819 65.3549ZM72.0876 61.7806V63.4477H23.0355V61.7806H72.0876Z" fill="#FF5757" stroke="#FF5757" stroke-width="0.3"/>
<path d="M5.80357 93.1498H89.3204C89.5733 93.1498 89.8158 93.0493 89.9946 92.8705C90.1735 92.6917 90.2739 92.4491 90.2739 92.1962V88.6219C90.2739 88.369 90.1735 88.1265 89.9946 87.9477C89.8158 87.7688 89.5733 87.6684 89.3204 87.6684H5.80357C5.55067 87.6684 5.30812 87.7688 5.12929 87.9477C4.95046 88.1265 4.85 88.369 4.85 88.6219V92.1962C4.85 92.4491 4.95046 92.6917 5.12929 92.8705C5.30812 93.0493 5.55067 93.1498 5.80357 93.1498ZM88.3668 89.5755V91.2426H6.75714V89.5755H88.3668Z" fill="#FF5757" stroke="#FF5757" stroke-width="0.3"/>
<path d="M73.0412 61.78H22.0819C21.829 61.78 21.5864 61.6796 21.4076 61.5007M73.0412 61.78L21.4076 61.5007M73.0412 61.78C73.2941 61.78 73.5366 61.6796 73.7155 61.5007C73.8943 61.3219 73.9947 61.0794 73.9947 60.8265V54.827C73.9947 54.5741 73.8943 54.3316 73.7155 54.1527C73.5366 53.9739 73.2941 53.8734 73.0412 53.8734H22.0819C21.829 53.8734 21.5864 53.9739 21.4076 54.1527C21.2288 54.3316 21.1283 54.5741 21.1283 54.827V60.8265C21.1283 61.0794 21.2288 61.3219 21.4076 61.5007M73.0412 61.78L21.4076 61.5007M72.0876 55.7806V59.8729H23.0355V55.7806H72.0876Z" fill="#FF5757" stroke="#FF5757" stroke-width="0.3"/>
<path d="M27.9081 55.7811H41.0111C41.264 55.7811 41.5065 55.6807 41.6854 55.5018C41.8642 55.323 41.9647 55.0805 41.9647 54.8276V49.8856C41.9647 49.6327 41.8642 49.3902 41.6854 49.2113C41.5065 49.0325 41.264 48.932 41.0111 48.932H27.9081C27.6552 48.932 27.4126 49.0325 27.2338 49.2113C27.055 49.3902 26.9545 49.6327 26.9545 49.8856V54.8276C26.9545 55.0805 27.055 55.323 27.2338 55.5018C27.4126 55.6807 27.6552 55.7811 27.9081 55.7811ZM40.0575 50.8392V53.874H28.8616V50.8392H40.0575Z" fill="#FF5757" stroke="#FF5757" stroke-width="0.3"/>
<path d="M54.1131 55.7811H67.2162C67.4691 55.7811 67.7116 55.6807 67.8905 55.5018C68.0693 55.323 68.1697 55.0805 68.1697 54.8276V49.8856C68.1697 49.6327 68.0693 49.3902 67.8905 49.2113C67.7116 49.0325 67.4691 48.932 67.2162 48.932H54.1131C53.8602 48.932 53.6177 49.0325 53.4389 49.2113C53.26 49.3902 53.1596 49.6327 53.1596 49.8856V54.8276C53.1596 55.0805 53.26 55.323 53.4389 55.5018C53.6177 55.6807 53.8602 55.7811 54.1131 55.7811ZM66.2626 50.8392V53.874H55.0667V50.8392H66.2626Z" fill="#FF5757" stroke="#FF5757" stroke-width="0.3"/>
<path d="M40.8168 49.8949V49.8934V43.9823C40.8168 43.7294 40.7163 43.4868 40.5375 43.308C40.3586 43.1292 40.1161 43.0287 39.8632 43.0287H30.5096C30.2567 43.0287 30.0142 43.1292 29.8354 43.308C29.6565 43.4868 29.5561 43.7294 29.5561 43.9823V49.8853C29.5561 50.1382 29.6565 50.3808 29.8354 50.5596C30.0142 50.7384 30.2567 50.8389 30.5096 50.8389H39.8632C40.1144 50.8389 40.3556 50.7397 40.5341 50.563C40.7127 50.3862 40.8142 50.1461 40.8168 49.8949ZM38.9096 44.9359V48.9317H31.4632V44.9359H38.9096Z" fill="#FF5757" stroke="#FF5757" stroke-width="0.3"/>
<path d="M31.5477 44.8391H38.8265C39.0794 44.8391 39.3219 44.7387 39.5007 44.5598C39.6796 44.381 39.78 44.1384 39.78 43.8855V37.9745C39.78 37.7216 39.6796 37.479 39.5007 37.3002C39.3219 37.1214 39.0794 37.0209 38.8265 37.0209H31.5477C31.2948 37.0209 31.0523 37.1214 30.8734 37.3002C30.6946 37.479 30.5941 37.7216 30.5941 37.9745V43.8855C30.5941 44.1384 30.6946 44.381 30.8734 44.5598C31.0523 44.7387 31.2948 44.8391 31.5477 44.8391ZM37.8729 38.928V42.932H32.5013V38.928H37.8729Z" fill="#FF5757" stroke="#FF5757" stroke-width="0.3"/>
<path d="M56.2987 44.8391H63.5774C63.8303 44.8391 64.0729 44.7387 64.2517 44.5598C64.4305 44.381 64.531 44.1384 64.531 43.8855V37.9745C64.531 37.7216 64.4305 37.479 64.2517 37.3002C64.0729 37.1214 63.8303 37.0209 63.5774 37.0209H56.2987C56.0458 37.0209 55.8032 37.1214 55.6244 37.3002C55.4456 37.479 55.3451 37.7216 55.3451 37.9745V43.8855C55.3451 44.1384 55.4456 44.381 55.6244 44.5598C55.8032 44.7387 56.0458 44.8391 56.2987 44.8391ZM62.6239 38.928V42.932H57.2523V38.928H62.6239Z" fill="#FF5757" stroke="#FF5757" stroke-width="0.3"/>
<path d="M30.0682 38.8392H65.0557C65.3086 38.8392 65.5512 38.7388 65.73 38.56C65.9088 38.3811 66.0093 38.1386 66.0093 37.8857V33.826C66.0093 33.5731 65.9088 33.3306 65.73 33.1518C65.5512 32.9729 65.3086 32.8725 65.0557 32.8725H30.0682C29.8153 32.8725 29.5728 32.9729 29.3939 33.1518C29.2151 33.3306 29.1146 33.5731 29.1146 33.826V37.8857C29.1146 38.1386 29.2151 38.3811 29.3939 38.56C29.5728 38.7388 29.8153 38.8392 30.0682 38.8392ZM64.1021 34.7796V36.9321H31.0218V34.7796H64.1021Z" fill="#FF5757" stroke="#FF5757" stroke-width="0.3"/>
<path d="M65.5668 49.8949V49.8934V43.9823C65.5668 43.7294 65.4663 43.4868 65.2875 43.308C65.1086 43.1292 64.8661 43.0287 64.6132 43.0287H55.2596C55.0067 43.0287 54.7642 43.1292 54.5853 43.308C54.4065 43.4868 54.3061 43.7294 54.3061 43.9823V49.8853C54.3061 50.1382 54.4065 50.3808 54.5853 50.5596C54.7642 50.7384 55.0067 50.8389 55.2596 50.8389H64.6132C64.8645 50.8389 65.1056 50.7397 65.2841 50.563C65.4627 50.3862 65.5642 50.1461 65.5668 49.8949ZM63.6596 44.9359V48.9317H56.2132V44.9359H63.6596Z" fill="#FF5757" stroke="#FF5757" stroke-width="0.3"/>
<path d="M38.8251 44.5744H56.2979C56.5508 44.5744 56.7934 44.474 56.9722 44.2951C57.151 44.1163 57.2515 43.8738 57.2515 43.6209V37.8866C57.2515 37.6337 57.151 37.3911 56.9722 37.2123C56.7934 37.0335 56.5508 36.933 56.2979 36.933H38.8251C38.5722 36.933 38.3296 37.0335 38.1508 37.2123C37.972 37.3911 37.8715 37.6337 37.8715 37.8866V43.6209C37.8715 43.8738 37.972 44.1163 38.1508 44.2951C38.3296 44.474 38.5722 44.5744 38.8251 44.5744ZM55.3443 38.8402V42.6673H39.7786V38.8402H55.3443Z" fill="#FF5757" stroke="#FF5757" stroke-width="0.3"/>
<path d="M11.2581 41.4656L11.2581 41.4656L15.3884 37.3578L15.3885 37.3578C15.5671 37.1802 15.8088 37.0805 16.0607 37.0805C16.3126 37.0805 16.5543 37.1802 16.733 37.3578L16.733 37.3578L20.8618 41.4657L20.8625 41.4664C22.257 42.8721 23.0383 44.7729 23.0355 46.753C23.0355 46.7532 23.0355 46.7534 23.0355 46.7537L11.2581 41.4656ZM11.2581 41.4656L11.2573 41.4664C9.86168 42.8743 9.08041 44.7776 9.08439 46.76M11.2581 41.4656L9.08439 46.76M9.08439 46.76C9.08439 46.76 9.08439 46.7599 9.08439 46.7599H9.23439L9.08439 46.7602C9.08439 46.7601 9.08439 46.7601 9.08439 46.76ZM11.0739 45.8063H21.0473C20.8562 44.6783 20.3194 43.6357 19.509 42.8241L11.0739 45.8063ZM11.0739 45.8063C11.2634 44.6793 11.7975 43.6369 12.6046 42.8239C12.6047 42.8238 12.6048 42.8237 12.6049 42.8236L16.0614 39.3858L19.5088 42.8239L11.0739 45.8063Z" fill="#FF5757" stroke="#FF5757" stroke-width="0.3"/>
<path d="M22.0819 50.8381H10.0379C9.78504 50.8381 9.5425 50.7376 9.36367 50.5588M22.0819 50.8381L9.36367 50.5588M22.0819 50.8381C22.3348 50.8381 22.5773 50.7376 22.7562 50.5588C22.935 50.38 23.0354 50.1374 23.0354 49.8845V46.7586C23.0354 46.5057 22.935 46.2632 22.7562 46.0844C22.5773 45.9055 22.3348 45.8051 22.0819 45.8051H10.0379C9.78504 45.8051 9.5425 45.9055 9.36367 46.0844C9.18484 46.2632 9.08437 46.5057 9.08437 46.7586V49.8845C9.08437 50.1374 9.18484 50.38 9.36367 50.5588M22.0819 50.8381L9.36367 50.5588M21.1283 47.7122V48.931H10.9915V47.7122H21.1283Z" fill="#FF5757" stroke="#FF5757" stroke-width="0.3"/>
<path d="M74.2613 41.4664L74.262 41.4657L78.3907 37.3578L78.3908 37.3578C78.5694 37.1802 78.8111 37.0805 79.063 37.0805C79.315 37.0805 79.5566 37.1802 79.7353 37.3578L79.7353 37.3578L83.8657 41.4656L83.8664 41.4664C85.2604 42.8726 86.0415 44.773 86.0394 46.7529C86.0394 46.7532 86.0394 46.7534 86.0394 46.7536L74.2613 41.4664ZM74.2613 41.4664C72.865 42.8739 72.0836 44.7775 72.0883 46.76M74.2613 41.4664L72.0883 46.76M72.0883 46.76C72.0883 46.76 72.0883 46.7599 72.0883 46.7599H72.2383L72.0883 46.7602C72.0883 46.7602 72.0883 46.7601 72.0883 46.76ZM84.051 45.8063H74.0761C74.2647 44.6793 74.7983 43.6368 75.6053 42.8239C75.6054 42.8238 75.6055 42.8237 75.6056 42.8236L79.0621 39.3858L82.5126 42.8238C82.5126 42.8238 82.5127 42.8239 82.5128 42.8239C83.3221 43.6364 83.8587 44.6786 84.051 45.8063Z" fill="#FF5757" stroke="#FF5757" stroke-width="0.3"/>
<path d="M85.0858 50.8381H73.0419C72.789 50.8381 72.5464 50.7376 72.3676 50.5588M85.0858 50.8381L72.3676 50.5588M85.0858 50.8381C85.3387 50.8381 85.5812 50.7376 85.7601 50.5588C85.9389 50.38 86.0394 50.1374 86.0394 49.8845V46.7586C86.0394 46.5057 85.9389 46.2632 85.7601 46.0844C85.5812 45.9055 85.3387 45.8051 85.0858 45.8051H73.0419C72.789 45.8051 72.5464 45.9055 72.3676 46.0844C72.1887 46.2632 72.0883 46.5057 72.0883 46.7586V49.8845C72.0883 50.1374 72.1887 50.38 72.3676 50.5588M85.0858 50.8381L72.3676 50.5588M84.1322 47.7122V48.931H73.9954V47.7122H84.1322Z" fill="#FF5757" stroke="#FF5757" stroke-width="0.3"/>
<path d="M36.4374 29.751H58.6866C58.9396 29.751 59.1821 29.6505 59.3609 29.4717C59.5398 29.2929 59.6402 29.0503 59.6402 28.7974V23.0213C59.6402 22.7684 59.5398 22.5259 59.3609 22.3471C59.1821 22.1682 58.9396 22.0678 58.6866 22.0678H36.4374C36.1845 22.0678 35.9419 22.1682 35.7631 22.3471C35.5843 22.5259 35.4838 22.7684 35.4838 23.0213V28.7974C35.4838 29.0503 35.5843 29.2929 35.7631 29.4717C35.9419 29.6505 36.1845 29.751 36.4374 29.751ZM57.7331 23.9749V27.8438H37.3909V23.9749H57.7331Z" fill="#FF5757" stroke="#FF5757" stroke-width="0.3"/>
<path d="M31.5477 34.781H63.5781C63.831 34.781 64.0735 34.6805 64.2523 34.5017C64.4312 34.3229 64.5316 34.0803 64.5316 33.8274V28.7987C64.5316 28.5458 64.4312 28.3032 64.2523 28.1244C64.0735 27.9456 63.831 27.8451 63.5781 27.8451H31.5477C31.2948 27.8451 31.0523 27.9456 30.8734 28.1244C30.6946 28.3032 30.5941 28.5458 30.5941 28.7987V33.8274C30.5941 34.0803 30.6946 34.3229 30.8734 34.5017C31.0523 34.6805 31.2948 34.781 31.5477 34.781ZM62.6245 29.7523V32.8739H32.5013V29.7523H62.6245Z" fill="#FF5757" stroke="#FF5757" stroke-width="0.3"/>
<path d="M51.6621 14.8822H43.4657C43.2128 14.8822 42.9702 14.7817 42.7914 14.6029M51.6621 14.8822L42.7914 14.6029M51.6621 14.8822C51.915 14.8822 52.1576 14.7817 52.3364 14.6029C52.5152 14.4241 52.6157 14.1815 52.6157 13.9286V8.5897C52.6157 8.3368 52.5152 8.09426 52.3364 7.91543C52.1576 7.7366 51.915 7.63613 51.6621 7.63613H43.4657C43.2128 7.63613 42.9702 7.7366 42.7914 7.91543C42.6126 8.09426 42.5121 8.3368 42.5121 8.5897V13.9286C42.5121 14.1815 42.6126 14.4241 42.7914 14.6029M51.6621 14.8822L42.7914 14.6029M50.7085 9.54328V12.9751H44.4193V9.54328H50.7085Z" fill="#FF5757" stroke="#FF5757" stroke-width="0.3"/>
<path d="M50.0105 9.54482H45.1151C44.8622 9.54482 44.6196 9.44436 44.4408 9.26553M50.0105 9.54482L44.4408 9.26553M50.0105 9.54482C50.2634 9.54482 50.5059 9.44436 50.6847 9.26553C50.8636 9.0867 50.964 8.84415 50.964 8.59125V6.25125C50.964 5.34918 50.6057 4.48406 49.9678 3.8462C49.33 3.20835 48.4648 2.85 47.5628 2.85C46.6607 2.85 45.7956 3.20835 45.1577 3.8462C44.5199 4.48406 44.1615 5.34918 44.1615 6.25125V8.59125C44.1615 8.84415 44.262 9.0867 44.4408 9.26553M50.0105 9.54482L44.4408 9.26553M49.0569 6.25125V7.63768H46.0687V6.25125C46.0687 5.85499 46.2261 5.47496 46.5063 5.19476C46.7865 4.91456 47.1665 4.75714 47.5628 4.75714C47.959 4.75714 48.3391 4.91456 48.6193 5.19476C48.8995 5.47496 49.0569 5.85499 49.0569 6.25125Z" fill="#FF5757" stroke="#FF5757" stroke-width="0.3"/>
</svg>
