<svg width="55" height="55" viewBox="0 0 55 55" fill="none" xmlns="http://www.w3.org/2000/svg">
<path d="M9.16668 41.25H13.75V50.6023L25.4398 41.25H36.6667C39.1944 41.25 41.25 39.1944 41.25 36.6667V18.3333C41.25 15.8056 39.1944 13.75 36.6667 13.75H9.16668C6.63897 13.75 4.58334 15.8056 4.58334 18.3333V36.6667C4.58334 39.1944 6.63897 41.25 9.16668 41.25Z" fill="#FF5757"/>
<path d="M45.8333 4.58331H18.3333C15.8056 4.58331 13.75 6.63894 13.75 9.16665H41.25C43.7777 9.16665 45.8333 11.2223 45.8333 13.75V32.0833C48.361 32.0833 50.4167 30.0277 50.4167 27.5V9.16665C50.4167 6.63894 48.361 4.58331 45.8333 4.58331Z" fill="#FF5757"/>
</svg>
