<svg width="17" height="17" viewBox="0 0 17 17" fill="none" xmlns="http://www.w3.org/2000/svg">
<g clip-path="url(#clip0_6987_31192)">
<path d="M16.3879 8.33C15.7998 6.80882 14.7789 5.49331 13.4513 4.54604C12.1237 3.59878 10.5476 3.06129 8.91788 3C7.28814 3.06129 5.71207 3.59878 4.38448 4.54604C3.05689 5.49331 2.03596 6.80882 1.44788 8.33C1.40816 8.43985 1.40816 8.56015 1.44788 8.67C2.03596 10.1912 3.05689 11.5067 4.38448 12.454C5.71207 13.4012 7.28814 13.9387 8.91788 14C10.5476 13.9387 12.1237 13.4012 13.4513 12.454C14.7789 11.5067 15.7998 10.1912 16.3879 8.67C16.4276 8.56015 16.4276 8.43985 16.3879 8.33ZM8.91788 13C6.26788 13 3.46788 11.035 2.45288 8.5C3.46788 5.965 6.26788 4 8.91788 4C11.5679 4 14.3679 5.965 15.3829 8.5C14.3679 11.035 11.5679 13 8.91788 13Z" fill="#282823"/>
<path d="M8.91785 5.5C8.3245 5.5 7.74448 5.67595 7.25114 6.00559C6.75779 6.33524 6.37327 6.80377 6.14621 7.35195C5.91915 7.90013 5.85974 8.50333 5.97549 9.08527C6.09125 9.66721 6.37697 10.2018 6.79653 10.6213C7.21609 11.0409 7.75063 11.3266 8.33258 11.4424C8.91452 11.5581 9.51772 11.4987 10.0659 11.2716C10.6141 11.0446 11.0826 10.6601 11.4123 10.1667C11.7419 9.67336 11.9178 9.09334 11.9178 8.5C11.9178 7.70435 11.6018 6.94129 11.0392 6.37868C10.4766 5.81607 9.7135 5.5 8.91785 5.5ZM8.91785 10.5C8.52229 10.5 8.13561 10.3827 7.80671 10.1629C7.47781 9.94318 7.22146 9.63082 7.07009 9.26537C6.91871 8.89991 6.87911 8.49778 6.95628 8.10982C7.03345 7.72186 7.22393 7.36549 7.50363 7.08579C7.78334 6.80608 8.13971 6.6156 8.52767 6.53843C8.91563 6.46126 9.31776 6.50087 9.68321 6.65224C10.0487 6.80362 10.361 7.05996 10.5808 7.38886C10.8005 7.71776 10.9178 8.10444 10.9178 8.5C10.9178 9.03043 10.7071 9.53914 10.3321 9.91421C9.95699 10.2893 9.44828 10.5 8.91785 10.5Z" fill="#282823"/>
</g>
<defs>
<clipPath id="clip0_6987_31192">
<rect width="16" height="16" fill="white" transform="translate(0.917847 0.5)"/>
</clipPath>
</defs>
</svg>
