<svg width="96" height="96" viewBox="0 0 96 96" fill="none" xmlns="http://www.w3.org/2000/svg">
<path d="M23.6007 19.7507C23.6007 19.7507 25.977 54.0058 45.1898 44.8925C64.4027 35.7792 77.0686 36.7773 69.7376 30.8364C62.4065 24.8955 30.2545 38.7615 30.2545 38.7615C30.2545 38.7615 33.3081 27.0105 53.6972 25.0381V9.5918H40.0332V17.707C40.0332 17.707 40.4371 28.7927 33.9022 22.6617L27.3672 16.5189C27.3672 16.5189 22.9828 14.8435 23.6007 19.7507Z" stroke="#FF5757" stroke-width="3.5" stroke-miterlimit="10"/>
<path d="M53.6963 25.0742L56.4766 30.219" stroke="#FF5757" stroke-width="3.5" stroke-miterlimit="10"/>
<path d="M50.2393 8H52.2116" stroke="#FF5757" stroke-width="3.5" stroke-miterlimit="10"/>
<path d="M45.4873 8H47.4597" stroke="#FF5757" stroke-width="3.5" stroke-miterlimit="10"/>
<path d="M40.7334 8H42.7058" stroke="#FF5757" stroke-width="3.5" stroke-miterlimit="10"/>
<path d="M24.7891 54.374H71.8409V81.7021H24.7891V54.374Z" stroke="#FF5757" stroke-width="3.5" stroke-miterlimit="10"/>
<path d="M41.7197 46.4141V73.5877" stroke="#FF5757" stroke-width="3.5" stroke-miterlimit="10"/>
<path d="M38.0615 73.5879H45.1906V81.7031H38.0615V73.5879Z" stroke="#FF5757" stroke-width="3.5" stroke-miterlimit="10"/>
<path d="M57.4639 65.96H71.8408V81.7033H57.4639V65.96Z" stroke="#FF5757" stroke-width="3.5" stroke-miterlimit="10"/>
<path d="M14 81.7031H82.5222V88.5351H14V81.7031Z" stroke="#FF5757" stroke-width="3.5" stroke-miterlimit="10"/>
</svg>
