<svg width="96" height="97" viewBox="0 0 96 97" fill="none" xmlns="http://www.w3.org/2000/svg">
<path d="M39.2539 9V22.4197" stroke="#FF5757" stroke-width="2.30484" stroke-miterlimit="10"/>
<path d="M56.6787 9V22.4197" stroke="#FF5757" stroke-width="2.30484" stroke-miterlimit="10"/>
<path d="M44.2334 9V17.8506H51.9776V9" stroke="#FF5757" stroke-width="2.30484" stroke-miterlimit="10"/>
<path d="M39.2539 12.5957H56.6785" stroke="#FF5757" stroke-width="2.30484" stroke-miterlimit="10"/>
<path d="M35.8027 21.3359H60.5622V29.0802H35.8027V21.3359Z" stroke="#FF5757" stroke-width="2.30484" stroke-miterlimit="10"/>
<path d="M33.3135 29.0791H63.0514V36.8234H33.3135V29.0791Z" stroke="#FF5757" stroke-width="2.30484" stroke-miterlimit="10"/>
<path d="M30.4043 36.8232H65.9393V44.5675H30.4043V36.8232Z" stroke="#FF5757" stroke-width="2.30484" stroke-miterlimit="10"/>
<path d="M27.2295 44.5684H69.1259V52.3126H27.2295V44.5684Z" stroke="#FF5757" stroke-width="2.30484" stroke-miterlimit="10"/>
<path d="M24.7402 52.3125H71.6151V60.0568H24.7402V52.3125Z" stroke="#FF5757" stroke-width="2.30484" stroke-miterlimit="10"/>
<path d="M75.2097 88.523H38.9777H21V60.168H75.2097V88.523Z" stroke="#FF5757" stroke-width="2.30484" stroke-miterlimit="10"/>
<path d="M38.9775 88.5233V68.6205H42.1637V64.8701H54.466V68.6205H57.3757V88.5233" stroke="#FF5757" stroke-width="2.30484" stroke-miterlimit="10"/>
<path d="M62.0771 69.2949V81.4645" stroke="#FF5757" stroke-width="2.30484" stroke-miterlimit="10"/>
<path d="M69.125 69.2949V81.4645" stroke="#FF5757" stroke-width="2.30484" stroke-miterlimit="10"/>
<path d="M27.2295 69.7148V81.464" stroke="#FF5757" stroke-width="2.30484" stroke-miterlimit="10"/>
<path d="M34.6963 69.7148V81.464" stroke="#FF5757" stroke-width="2.30484" stroke-miterlimit="10"/>
<path d="M54.0565 60.0572H41.7432L46.1684 21.3359H49.6312L54.0565 60.0572Z" stroke="#FF5757" stroke-width="2.30484" stroke-miterlimit="10"/>
</svg>
