<svg width="20" height="21" viewBox="0 0 20 21" fill="none" xmlns="http://www.w3.org/2000/svg">
<path fill-rule="evenodd" clip-rule="evenodd" d="M9.95742 3.86166C6.29119 3.86166 3.31912 6.83373 3.31912 10.5C3.31912 14.1662 6.29119 17.1383 9.95742 17.1383C13.6236 17.1383 16.5957 14.1662 16.5957 10.5C16.5957 6.83373 13.6236 3.86166 9.95742 3.86166ZM1.65955 10.5C1.65955 5.91717 5.37463 2.20209 9.95742 2.20209C14.5402 2.20209 18.2553 5.91717 18.2553 10.5C18.2553 15.0827 14.5402 18.7978 9.95742 18.7978C5.37463 18.7978 1.65955 15.0827 1.65955 10.5ZM13.0335 8.25362C13.3576 8.57767 13.3576 9.10307 13.0335 9.42712L9.71438 12.7463C9.55876 12.9019 9.3477 12.9893 9.12763 12.9893C8.90756 12.9893 8.6965 12.9019 8.54088 12.7463L6.88131 11.0867C6.55726 10.7626 6.55726 10.2372 6.88131 9.9132C7.20536 9.58915 7.73075 9.58915 8.05481 9.9132L9.12763 10.986L11.86 8.25362C12.1841 7.92957 12.7095 7.92957 13.0335 8.25362Z" fill="#9691A4"/>
</svg>
