<svg width="24" height="24" viewBox="0 0 24 24" fill="none" xmlns="http://www.w3.org/2000/svg">
<g clip-path="url(#clip0_1539_46985)">
<path d="M23.4861 8.5489L15.4401 0.502974C14.7707 -0.166457 13.7225 -0.165848 13.0537 0.502974L0.502237 13.0544C0.172889 13.3837 -0.0103014 13.836 -8.24644e-05 14.2948C0.00952704 14.7395 0.191592 15.1497 0.513018 15.4518L2.2267 17.1655C2.52351 17.4629 2.99307 17.4974 3.33034 17.2481C4.3144 16.5213 5.68401 16.616 6.51652 17.4694C7.36938 18.3432 7.47316 19.7159 6.75765 20.6627C6.50237 21.0005 6.53518 21.4743 6.83453 21.7736L8.55894 23.4981C8.8798 23.8186 9.31683 24.001 9.76346 24.001C9.77532 24.001 9.7875 24.0007 9.79936 24.0004C10.244 23.9908 10.6542 23.809 10.9564 23.4873L23.4968 10.9461C23.8261 10.617 24.0091 10.165 23.9991 9.70593C23.9895 9.26127 23.8078 8.8511 23.4861 8.5489ZM14.2642 1.69338C14.2602 1.69563 14.2537 1.69676 14.2483 1.69788L13.6536 1.10312L14.2642 1.69338ZM9.75244 22.2927L8.5055 21.0458C9.2662 19.5037 8.98326 17.5687 7.73037 16.2847C6.48174 15.0063 4.5371 14.7169 2.95688 15.4971L1.70769 14.2482L14.2472 1.70894L22.2917 9.75341L9.75244 22.2927Z" fill="#FF5757"/>
<path d="M11.2597 3.39008L10.053 4.58136L12.2294 6.78597L13.4361 5.59469L11.2597 3.39008Z" fill="#FF5757"/>
<path d="M18.4344 10.5908L17.2428 11.798L19.4481 13.9747L20.6396 12.7676L18.4344 10.5908Z" fill="#FF5757"/>
<path d="M14.8464 6.97622L13.6472 8.17534L15.852 10.3801L17.0511 9.18098L14.8464 6.97622Z" fill="#FF5757"/>
</g>
<defs>
<clipPath id="clip0_1539_46985">
<rect width="24" height="24" fill="white"/>
</clipPath>
</defs>
</svg>
