<svg width="14" height="14" viewBox="0 0 14 14" fill="none" xmlns="http://www.w3.org/2000/svg">
<g opacity="0.7">
<path fill-rule="evenodd" clip-rule="evenodd" d="M7.0067 2.86573C4.72341 2.86573 2.87243 4.71671 2.87243 7C2.87243 9.28329 4.72341 11.1343 7.0067 11.1343C9.28999 11.1343 11.141 9.28329 11.141 7C11.141 4.71671 9.28999 2.86573 7.0067 2.86573ZM1.83887 7C1.83887 4.14589 4.15258 1.83217 7.0067 1.83217C9.86081 1.83217 12.1745 4.14589 12.1745 7C12.1745 9.85411 9.86081 12.1678 7.0067 12.1678C4.15258 12.1678 1.83887 9.85411 1.83887 7Z" fill="white"/>
<path fill-rule="evenodd" clip-rule="evenodd" d="M7.0067 3.89938C7.29211 3.89938 7.52348 4.13075 7.52348 4.41616V6.78602L8.92247 8.185C9.12428 8.38682 9.12428 8.71403 8.92247 8.91585C8.72065 9.11766 8.39344 9.11766 8.19163 8.91585L6.64128 7.3655C6.54436 7.26858 6.48991 7.13713 6.48991 7.00008V4.41616C6.48991 4.13075 6.72129 3.89938 7.0067 3.89938Z" fill="white"/>
</g>
</svg>
