<svg width="13" height="14" viewBox="0 0 13 14" fill="none" xmlns="http://www.w3.org/2000/svg">
<g opacity="0.7">
<path fill-rule="evenodd" clip-rule="evenodd" d="M3.10113 3.8993C2.81572 3.8993 2.58435 4.13067 2.58435 4.41608V10.6175C2.58435 10.9029 2.81572 11.1343 3.10113 11.1343H9.30253C9.58794 11.1343 9.81931 10.9029 9.81931 10.6175V4.41608C9.81931 4.13067 9.58794 3.8993 9.30253 3.8993H3.10113ZM1.55078 4.41608C1.55078 3.55984 2.2449 2.86573 3.10113 2.86573H9.30253C10.1588 2.86573 10.8529 3.55984 10.8529 4.41608V10.6175C10.8529 11.4737 10.1588 12.1678 9.30253 12.1678H3.10113C2.2449 12.1678 1.55078 11.4737 1.55078 10.6175V4.41608Z" fill="white"/>
<path fill-rule="evenodd" clip-rule="evenodd" d="M8.26896 1.83217C8.55437 1.83217 8.78574 2.06354 8.78574 2.34895V4.41608C8.78574 4.7015 8.55437 4.93287 8.26896 4.93287C7.98355 4.93287 7.75218 4.7015 7.75218 4.41608V2.34895C7.75218 2.06354 7.98355 1.83217 8.26896 1.83217Z" fill="white"/>
<path fill-rule="evenodd" clip-rule="evenodd" d="M4.13472 1.83217C4.42013 1.83217 4.6515 2.06354 4.6515 2.34895V4.41608C4.6515 4.7015 4.42013 4.93287 4.13472 4.93287C3.8493 4.93287 3.61793 4.7015 3.61793 4.41608V2.34895C3.61793 2.06354 3.8493 1.83217 4.13472 1.83217Z" fill="white"/>
<path fill-rule="evenodd" clip-rule="evenodd" d="M1.55078 6.48321C1.55078 6.1978 1.78215 5.96643 2.06756 5.96643H10.3361C10.6215 5.96643 10.8529 6.1978 10.8529 6.48321C10.8529 6.76862 10.6215 6.99999 10.3361 6.99999H2.06756C1.78215 6.99999 1.55078 6.76862 1.55078 6.48321Z" fill="white"/>
</g>
</svg>
