<svg width="96" height="97" viewBox="0 0 96 97" fill="none" xmlns="http://www.w3.org/2000/svg">
<g clip-path="url(#clip0_3867_15054)">
<path d="M36.7998 50.0996H39.9998V53.2996H36.7998V50.0996Z" fill="#FF5757"/>
<path d="M56 50.0996H59.2V53.2996H56V50.0996Z" fill="#FF5757"/>
<path d="M11.2002 58.0996H14.4002V61.2996H11.2002V58.0996Z" fill="#FF5757"/>
<path d="M17.5996 58.0996H20.7996V61.2996H17.5996V58.0996Z" fill="#FF5757"/>
<path d="M81.5996 58.0996H84.7996V61.2996H81.5996V58.0996Z" fill="#FF5757"/>
<path d="M75.2002 58.0996H78.4002V61.2996H75.2002V58.0996Z" fill="#FF5757"/>
<path d="M43.2002 27.7002H46.4002V30.9002H43.2002V27.7002Z" fill="#FF5757"/>
<path d="M49.5996 27.7002H52.7996V30.9002H49.5996V27.7002Z" fill="#FF5757"/>
<path d="M56 27.7002H59.2V30.9002H56V27.7002Z" fill="#FF5757"/>
<path d="M36.7998 27.7002H39.9998V30.9002H36.7998V27.7002Z" fill="#FF5757"/>
<path d="M17.5996 38.9004H20.7996V42.1004H17.5996V38.9004Z" fill="#FF5757"/>
<path d="M11.2002 38.9004H14.4002V42.1004H11.2002V38.9004Z" fill="#FF5757"/>
<path d="M91.2 35.7002H94.4V26.1002H72V11.7002C72 9.81895 70.0914 8.34004 68.8 7.5627V3.7002H65.6V7.5627C64.3086 8.34629 62.4 9.81895 62.4 11.7002V14.9002H49.6V8.5002H46.4V14.9002H33.6V11.7002C33.6 9.81895 31.6914 8.34004 30.4 7.5627V3.7002H27.2V7.5627C25.9086 8.34629 24 9.81895 24 11.7002V26.1002H1.6V35.7002H4.8V45.3002H0V54.9002H4.8V80.5002H0V93.3002H96V80.5002H91.2V54.9002H96V45.3002H91.2V35.7002ZM72 29.3002H91.2V32.5002H72V29.3002ZM72 35.7002H88V45.3002H72V35.7002ZM72 54.9002H88V80.5002H84.8V72.5002C84.8 69.8494 82.6508 67.7002 80 67.7002C77.3492 67.7002 75.2 69.8494 75.2 72.5002V80.5002H72V54.9002ZM81.6 72.5002V80.5002H78.4V72.5002C78.4 71.6166 79.1164 70.9002 80 70.9002C80.8836 70.9002 81.6 71.6166 81.6 72.5002ZM67.2 10.3385C67.8211 10.6775 68.3664 11.1408 68.8 11.7002V16.5002H65.6V11.7705C66.0141 11.1744 66.5617 10.6846 67.2 10.3385ZM65.6 38.9002V34.1002H68.8V38.9002H65.6ZM68.8 42.1002V80.5002H65.6V42.1002H68.8ZM65.6 30.9002V27.7002H68.8V30.9002H65.6ZM65.6 24.5002V19.7002H68.8V24.5002H65.6ZM33.6 18.1002H62.4V21.3002H33.6V18.1002ZM33.6 24.5002H62.4V34.1002H33.6V24.5002ZM62.4 37.3002V43.7002H59.2V37.3002H62.4ZM56 37.3002V43.7002H52.8V37.3002H56ZM49.6 37.3002V43.7002H46.4V37.3002H49.6ZM43.2 37.3002V43.7002H40V37.3002H43.2ZM33.6 37.3002H36.8V43.7002H33.6V37.3002ZM28.8 10.3385C29.4211 10.6775 29.9664 11.1408 30.4 11.7002V16.5002H27.2V11.7705C27.6141 11.1744 28.1617 10.6846 28.8 10.3385ZM27.2 38.9002V34.1002H30.4V38.9002H27.2ZM30.4 42.1002V80.5002H27.2V42.1002H30.4ZM27.2 30.9002V27.7002H30.4V30.9002H27.2ZM27.2 24.5002V19.7002H30.4V24.5002H27.2ZM4.8 29.3002H24V32.5002H4.8V29.3002ZM24 35.7002V45.3002H8V35.7002H24ZM3.2 51.7002V48.5002H24V51.7002H3.2ZM16 67.7002C13.3492 67.7002 11.2 69.8494 11.2 72.5002V80.5002H8V54.9002H24V80.5002H20.8V72.5002C20.8 69.8494 18.6508 67.7002 16 67.7002ZM17.6 72.5002V80.5002H14.4V72.5002C14.4 71.6166 15.1164 70.9002 16 70.9002C16.8836 70.9002 17.6 71.6166 17.6 72.5002ZM38.4 90.1002H3.2V83.7002H38.4V90.1002ZM54.4 90.1002H41.6V83.7002H54.4V90.1002ZM54.4 80.5002H41.6V61.3002C41.6 60.0604 44.8242 57.2283 48 55.1854C51.1758 57.2283 54.4 60.0604 54.4 61.3002V80.5002ZM48.8242 51.9291L48 51.4346L47.1758 51.9291C45.1203 53.1643 38.4 57.4908 38.4 61.3002V80.5002H33.6V46.9002H62.4V80.5002H57.6V61.3002C57.6 57.4908 50.8797 53.1643 48.8242 51.9291ZM92.8 83.7002V90.1002H57.6V83.7002H92.8ZM92.8 48.5002V51.7002H72V48.5002H92.8Z" fill="#FF5757"/>
<path d="M75.2002 38.9004H78.4002V42.1004H75.2002V38.9004Z" fill="#FF5757"/>
<path d="M81.5996 38.9004H84.7996V42.1004H81.5996V38.9004Z" fill="#FF5757"/>
</g>
<defs>
<clipPath id="clip0_3867_15054">
<rect width="96" height="96" fill="white" transform="translate(0 0.5)"/>
</clipPath>
</defs>
</svg>
