<svg width="14" height="15" viewBox="0 0 14 15" fill="none" xmlns="http://www.w3.org/2000/svg">
<path fill-rule="evenodd" clip-rule="evenodd" d="M9.33341 5.75008C9.33341 6.36892 9.08758 6.96241 8.65 7.4C8.21241 7.83758 7.61892 8.08341 7.00008 8.08341C6.38124 8.08341 5.78775 7.83758 5.35017 7.4C4.91258 6.96241 4.66675 6.36892 4.66675 5.75008C4.66675 5.13124 4.91258 4.53775 5.35017 4.10017C5.78775 3.66258 6.38124 3.41675 7.00008 3.41675C7.61892 3.41675 8.21241 3.66258 8.65 4.10017C9.08758 4.53775 9.33341 5.13124 9.33341 5.75008ZM8.16675 5.75008C8.16675 6.0595 8.04383 6.35625 7.82504 6.57504C7.60625 6.79383 7.3095 6.91675 7.00008 6.91675C6.69066 6.91675 6.39392 6.79383 6.17512 6.57504C5.95633 6.35625 5.83341 6.0595 5.83341 5.75008C5.83341 5.44066 5.95633 5.14392 6.17512 4.92512C6.39392 4.70633 6.69066 4.58341 7.00008 4.58341C7.3095 4.58341 7.60625 4.70633 7.82504 4.92512C8.04383 5.14392 8.16675 5.44066 8.16675 5.75008Z" fill="#FF5757"/>
<path fill-rule="evenodd" clip-rule="evenodd" d="M7.00004 1.08337C3.45629 1.08337 0.583374 3.95629 0.583374 7.50004C0.583374 11.0438 3.45629 13.9167 7.00004 13.9167C10.5438 13.9167 13.4167 11.0438 13.4167 7.50004C13.4167 3.95629 10.5438 1.08337 7.00004 1.08337ZM1.75004 7.50004C1.75004 8.71921 2.16596 9.84154 2.86304 10.7329C3.35272 10.0901 3.9843 9.56921 4.7085 9.2108C5.4327 8.85239 6.22992 8.66618 7.03796 8.66671C7.8356 8.66578 8.62291 8.84701 9.33987 9.19659C10.0568 9.54617 10.6845 10.0549 11.175 10.6839C11.6804 10.021 12.0207 9.24725 12.1677 8.42672C12.3148 7.60619 12.2643 6.76244 12.0205 5.96528C11.7767 5.16813 11.3466 4.44049 10.7657 3.84256C10.1849 3.24464 9.47002 2.79363 8.68026 2.52684C7.89051 2.26005 7.04857 2.18516 6.22413 2.30836C5.39968 2.43156 4.61642 2.74931 3.93916 3.23532C3.26189 3.72133 2.7101 4.36163 2.32942 5.10324C1.94875 5.84484 1.75015 6.66644 1.75004 7.50004ZM7.00004 12.75C5.79482 12.752 4.62596 12.3374 3.69137 11.5764C4.06751 11.0377 4.56824 10.598 5.15092 10.2945C5.7336 9.991 6.38098 9.83281 7.03796 9.83337C7.68673 9.83281 8.32627 9.98705 8.90345 10.2833C9.48063 10.5796 9.97879 11.0093 10.3565 11.5367C9.41473 12.3225 8.22658 12.752 7.00004 12.75Z" fill="#FF5757"/>
</svg>
