<svg width="140" height="34" viewBox="0 0 140 34" fill="none" xmlns="http://www.w3.org/2000/svg">
<path d="M45.373 4.15256C45.373 5.15528 45.1321 6.03267 44.53 6.65937C43.8074 7.41141 42.9645 7.78743 41.8806 7.78743C40.7968 7.78743 39.9538 7.41141 39.2312 6.65937C38.5087 5.90733 38.1474 5.02994 38.1474 3.90188C38.1474 2.77382 38.5087 1.89643 39.2312 1.14439C39.9538 0.392348 40.7968 0.0163269 41.8806 0.0163269C42.3623 0.0163269 42.844 0.141667 43.3257 0.392348C43.8074 0.643029 44.1687 0.89371 44.4096 1.26973L43.8074 1.89643C43.3257 1.26973 42.7236 1.01905 41.8806 1.01905C41.1581 1.01905 40.4355 1.26973 39.9538 1.89643C39.3517 2.39779 39.1108 3.14984 39.1108 4.02722C39.1108 4.9046 39.3517 5.65665 39.9538 6.15801C40.5559 6.65937 41.1581 7.03539 41.8806 7.03539C42.7236 7.03539 43.3257 6.78471 43.9279 6.15801C44.2891 5.78199 44.53 5.28062 44.53 4.65392H41.8806V3.6512H45.373V4.15256ZM50.9126 1.01905H47.6611V3.40052H50.6717V4.2779H47.6611V6.65937H50.9126V7.66209H46.6977V0.141667H50.9126V1.01905ZM54.8867 7.66209H53.9233V1.01905H51.876V0.141667H56.9339V1.01905H54.8867V7.66209ZM60.4263 7.66209V0.141667H61.3897V7.66209H60.4263ZM65.4842 7.66209H64.5208V1.01905H62.4735V0.141667H67.411V1.01905H65.3638V7.66209H65.4842ZM76.9247 6.65937C76.2022 7.41141 75.3592 7.78743 74.2753 7.78743C73.1915 7.78743 72.3485 7.41141 71.6259 6.65937C70.9034 5.90733 70.5421 5.02994 70.5421 3.90188C70.5421 2.77382 70.9034 1.89643 71.6259 1.14439C72.3485 0.392348 73.1915 0.0163269 74.2753 0.0163269C75.3592 0.0163269 76.2022 0.392348 76.9247 1.14439C77.6473 1.89643 78.0086 2.77382 78.0086 3.90188C78.0086 5.02994 77.6473 5.90733 76.9247 6.65937ZM72.3485 6.03267C72.8302 6.53403 73.5528 6.91005 74.2753 6.91005C74.9979 6.91005 75.7204 6.65937 76.2022 6.03267C76.6839 5.5313 77.0451 4.77926 77.0451 3.90188C77.0451 3.0245 76.8043 2.27245 76.2022 1.77109C75.7204 1.26973 74.9979 0.89371 74.2753 0.89371C73.5528 0.89371 72.8302 1.14439 72.3485 1.77109C71.8668 2.27245 71.5055 3.0245 71.5055 3.90188C71.5055 4.77926 71.7464 5.5313 72.3485 6.03267ZM79.3332 7.66209V0.141667H80.4171L83.9094 6.03267V0.141667H84.8729V7.66209H83.9094L80.1762 1.52041V7.66209H79.3332Z" fill="white"/>
<path d="M70.301 18.6922C67.4108 18.6922 65.1227 20.9483 65.1227 24.0818C65.1227 27.09 67.4108 29.4715 70.301 29.4715C73.1913 29.4715 75.4794 27.2154 75.4794 24.0818C75.4794 20.823 73.1913 18.6922 70.301 18.6922ZM70.301 27.2154C68.7355 27.2154 67.4108 25.8366 67.4108 23.9565C67.4108 22.0764 68.7355 20.6977 70.301 20.6977C71.8666 20.6977 73.1913 21.9511 73.1913 23.9565C73.1913 25.8366 71.8666 27.2154 70.301 27.2154ZM59.1014 18.6922C56.2111 18.6922 53.923 20.9483 53.923 24.0818C53.923 27.09 56.2111 29.4715 59.1014 29.4715C61.9916 29.4715 64.2797 27.2154 64.2797 24.0818C64.2797 20.823 61.9916 18.6922 59.1014 18.6922ZM59.1014 27.2154C57.5358 27.2154 56.2111 25.8366 56.2111 23.9565C56.2111 22.0764 57.5358 20.6977 59.1014 20.6977C60.6669 20.6977 61.9916 21.9511 61.9916 23.9565C61.9916 25.8366 60.6669 27.2154 59.1014 27.2154ZM45.734 20.3216V22.5778H50.9124C50.7919 23.8312 50.3102 24.8339 49.7081 25.4606C48.9856 26.2126 47.7813 27.09 45.734 27.09C42.4825 27.09 40.074 24.4579 40.074 21.0737C40.074 17.6895 42.603 15.0573 45.734 15.0573C47.42 15.0573 48.7447 15.8094 49.7081 16.6868L51.2737 15.0573C49.949 13.8039 48.263 12.8012 45.8545 12.8012C41.5191 12.8012 37.7859 16.5614 37.7859 21.0737C37.7859 25.5859 41.5191 29.3461 45.8545 29.3461C48.263 29.3461 49.949 28.5941 51.3941 26.9647C52.8392 25.4606 53.3209 23.3298 53.3209 21.7004C53.3209 21.199 53.3209 20.6977 53.2005 20.3216H45.734V20.3216ZM100.408 22.0764C99.926 20.823 98.7217 18.6922 96.0723 18.6922C93.4229 18.6922 91.2552 20.823 91.2552 24.0818C91.2552 27.09 93.4229 29.4715 96.3132 29.4715C98.6013 29.4715 100.046 27.9674 100.528 27.09L98.8421 25.8366C98.24 26.714 97.5174 27.3407 96.3132 27.3407C95.1089 27.3407 94.3863 26.8393 93.7842 25.7113L100.649 22.7031L100.408 22.0764V22.0764ZM93.4229 23.8312C93.4229 21.8257 94.9885 20.6977 96.0723 20.6977C96.9153 20.6977 97.7583 21.199 97.9991 21.8257L93.4229 23.8312ZM87.7629 28.9701H90.051V13.3026H87.7629V28.9701ZM84.1501 19.8203C83.5479 19.1936 82.5845 18.5669 81.3803 18.5669C78.8513 18.5669 76.4428 20.9483 76.4428 23.9565C76.4428 26.9647 78.7309 29.2208 81.3803 29.2208C82.5845 29.2208 83.548 28.5941 84.0297 27.9674H84.1501V28.7194C84.1501 30.7249 83.0662 31.853 81.3803 31.853C80.0556 31.853 79.0922 30.8502 78.8513 29.9728L76.9245 30.8502C77.5266 32.229 78.9717 33.9837 81.5007 33.9837C84.1501 33.9837 86.3178 32.3543 86.3178 28.4688V18.9429H84.1501V19.8203V19.8203ZM81.5007 27.2154C79.9352 27.2154 78.6105 25.8366 78.6105 23.9565C78.6105 22.0764 79.9352 20.6977 81.5007 20.6977C83.0662 20.6977 84.2705 22.0764 84.2705 23.9565C84.2705 25.8366 83.0662 27.2154 81.5007 27.2154ZM110.885 13.3026H105.466V28.9701H107.754V23.0791H110.885C113.414 23.0791 115.822 21.199 115.822 18.1908C115.822 15.1827 113.414 13.3026 110.885 13.3026V13.3026ZM111.005 20.823H107.754V15.4334H111.005C112.691 15.4334 113.655 16.9374 113.655 18.0655C113.534 19.4443 112.571 20.823 111.005 20.823ZM124.854 18.5669C123.168 18.5669 121.482 19.3189 120.88 20.9483L122.927 21.8257C123.409 20.9483 124.132 20.6977 124.975 20.6977C126.179 20.6977 127.263 21.4497 127.383 22.7031V22.8284C127.022 22.5778 126.058 22.2017 125.095 22.2017C122.927 22.2017 120.76 23.4551 120.76 25.7113C120.76 27.8421 122.566 29.2208 124.493 29.2208C126.058 29.2208 126.781 28.4688 127.383 27.7167H127.504V28.9701H129.671V22.9538C129.43 20.1963 127.383 18.5669 124.854 18.5669V18.5669ZM124.613 27.2154C123.891 27.2154 122.807 26.8393 122.807 25.8366C122.807 24.5832 124.132 24.2072 125.216 24.2072C126.179 24.2072 126.661 24.4579 127.263 24.7086C127.022 26.2126 125.818 27.2154 124.613 27.2154V27.2154ZM137.258 18.9429L134.729 25.7113H134.609L131.959 18.9429H129.551L133.525 28.4688L131.237 33.7331H133.525L139.667 18.9429H137.258V18.9429ZM117.027 28.9701H119.315V13.3026H117.027V28.9701Z" fill="white"/>
<path d="M0.583313 3.63712C0.583313 3.09533 0.655547 2.67589 0.816829 2.38839L14.9374 16.5415V16.5686L1.02124 30.7418C0.765967 30.4412 0.583313 29.9562 0.583313 29.3554V3.63712Z" fill="white" stroke="#454056" stroke-width="0.5"/>
<path d="M15.3231 16.5408L19.7689 12.0129L25.3452 15.2582C26.0989 15.6968 26.4207 16.2382 26.4207 16.7295C26.4207 17.2203 26.0996 17.761 25.3478 18.1993L19.8035 21.2486L15.3231 16.6855V16.5408Z" fill="white" stroke="#454056" stroke-width="0.5"/>
<path d="M1.15657 31.0853L15.0737 16.9112L19.4697 21.3884L3.07553 30.9948C2.58542 31.2153 2.17236 31.3145 1.8284 31.302C1.57476 31.2928 1.35282 31.2228 1.15657 31.0853Z" fill="white" stroke="#454056" stroke-width="0.5"/>
<path d="M19.4685 11.7226L15.073 16.1993L1.15483 2.13751C1.35815 1.98564 1.58493 1.89839 1.83745 1.88002C2.17405 1.85553 2.58152 1.95178 3.06629 2.22588C3.06664 2.22608 3.06699 2.22627 3.06735 2.22647L19.4685 11.7226Z" fill="white" stroke="#454056" stroke-width="0.5"/>
<g opacity="0.2">
<mask id="path-7-inside-1_384_54" fill="white">
<path d="M19.7585 21.3258L3.19046 30.8684C2.27636 31.4502 1.47653 31.3338 0.905217 30.8684L0.790955 30.9847L0.905217 31.1011C1.47653 31.5666 2.27636 31.683 3.19046 31.1011L19.7585 21.3258Z"/>
</mask>
<path d="M19.7585 21.3258L3.19046 30.8684C2.27636 31.4502 1.47653 31.3338 0.905217 30.8684L0.790955 30.9847L0.905217 31.1011C1.47653 31.5666 2.27636 31.683 3.19046 31.1011L19.7585 21.3258Z" fill="white"/>
<path d="M19.7585 21.3258L20.0125 21.7565L19.5089 20.8926L19.7585 21.3258ZM3.19046 30.8684L2.94091 30.4351L2.93131 30.4406L2.92197 30.4466L3.19046 30.8684ZM0.905217 30.8684L1.22104 30.4807L0.867732 30.1929L0.548441 30.5181L0.905217 30.8684ZM0.790955 30.9847L0.434178 30.6344L0.0902293 30.9847L0.434185 31.335L0.790955 30.9847ZM0.905217 31.1011L0.548447 31.4514L0.567883 31.4712L0.58939 31.4887L0.905217 31.1011ZM3.19046 31.1011L2.93638 30.6705L2.9291 30.6748L2.92197 30.6793L3.19046 31.1011ZM19.5089 20.8926L2.94091 30.4351L3.44001 31.3016L20.008 21.7591L19.5089 20.8926ZM2.92197 30.4466C2.53432 30.6933 2.20463 30.7715 1.93814 30.7615C1.67263 30.7514 1.43196 30.6526 1.22104 30.4807L0.58939 31.256C0.949782 31.5496 1.39468 31.7417 1.90045 31.7608C2.40523 31.7798 2.9325 31.6253 3.45895 31.2902L2.92197 30.4466ZM0.548441 30.5181L0.434178 30.6344L1.14773 31.335L1.26199 31.2187L0.548441 30.5181ZM0.434185 31.335L0.548447 31.4514L1.26199 30.7508L1.14772 30.6344L0.434185 31.335ZM0.58939 31.4887C0.949782 31.7824 1.39468 31.9744 1.90045 31.9935C2.40523 32.0125 2.9325 31.858 3.45895 31.5229L2.92197 30.6793C2.53432 30.9261 2.20463 31.0043 1.93814 30.9942C1.67263 30.9842 1.43196 30.8853 1.22104 30.7135L0.58939 31.4887ZM3.44454 31.5317L20.0125 21.7565L19.5044 20.8952L2.93638 30.6705L3.44454 31.5317Z" fill="#454056" mask="url(#path-7-inside-1_384_54)"/>
</g>
<g opacity="0.2">
<mask id="path-9-inside-2_384_54" fill="white">
<path d="M0.790361 30.8681C0.447575 30.519 0.333313 29.9371 0.333313 29.2389V29.3553C0.333313 30.0535 0.561837 30.6354 0.904623 30.9845V30.8681H0.790361ZM25.471 18.0672L19.7579 21.3256L19.8721 21.442L25.471 18.1835C26.2708 17.718 26.6136 17.1362 26.6136 16.5543C26.6136 17.1362 26.1565 17.6017 25.471 18.0672V18.0672Z"/>
</mask>
<path d="M0.790361 30.8681C0.447575 30.519 0.333313 29.9371 0.333313 29.2389V29.3553C0.333313 30.0535 0.561837 30.6354 0.904623 30.9845V30.8681H0.790361ZM25.471 18.0672L19.7579 21.3256L19.8721 21.442L25.471 18.1835C26.2708 17.718 26.6136 17.1362 26.6136 16.5543C26.6136 17.1362 26.1565 17.6017 25.471 18.0672V18.0672Z" fill="white"/>
<path d="M0.790361 30.8681L0.433587 31.2184L0.580569 31.3681H0.790361V30.8681ZM0.904623 30.9845L0.54785 31.3348L1.40462 32.2074V30.9845H0.904623ZM0.904623 30.8681H1.40462V30.3681H0.904623V30.8681ZM19.7579 21.3256L19.5102 20.8913L18.9464 21.2128L19.4011 21.6759L19.7579 21.3256ZM19.8721 21.442L19.5154 21.7923L19.7877 22.0696L20.1236 21.8741L19.8721 21.442ZM25.471 18.1835L25.2195 17.7514L25.2195 17.7514L25.471 18.1835ZM1.14713 30.5178C0.95292 30.32 0.833313 29.9193 0.833313 29.2389H-0.166687C-0.166687 29.9549 -0.0577703 30.718 0.433587 31.2184L1.14713 30.5178ZM-0.166687 29.2389V29.3553H0.833313V29.2389H-0.166687ZM-0.166687 29.3553C-0.166687 30.1535 0.0936083 30.8722 0.54785 31.3348L1.2614 30.6342C1.03007 30.3986 0.833313 29.9535 0.833313 29.3553H-0.166687ZM1.40462 30.9845V30.8681H0.404623V30.9845H1.40462ZM0.904623 30.3681H0.790361V31.3681H0.904623V30.3681ZM25.2233 17.6328L19.5102 20.8913L20.0056 21.7599L25.7187 18.5015L25.2233 17.6328ZM19.4011 21.6759L19.5154 21.7923L20.2289 21.0917L20.1146 20.9753L19.4011 21.6759ZM20.1236 21.8741L25.7225 18.6157L25.2195 17.7514L19.6206 21.0098L20.1236 21.8741ZM25.7225 18.6157C26.6271 18.0892 27.1136 17.3645 27.1136 16.5543H26.1136C26.1136 16.9079 25.9145 17.3469 25.2195 17.7514L25.7225 18.6157ZM26.1136 16.5543C26.1136 16.8523 25.88 17.1851 25.1901 17.6535L25.7518 18.4808C26.4331 18.0183 27.1136 17.42 27.1136 16.5543H26.1136Z" fill="#454056" mask="url(#path-9-inside-2_384_54)"/>
</g>
<g opacity="0.2">
<mask id="path-11-inside-3_384_54" fill="white">
<path d="M3.18986 2.12448L25.471 15.0418C26.1565 15.5073 26.6136 15.9728 26.6136 16.5546C26.6136 15.9728 26.2708 15.3909 25.471 14.9254L3.18986 2.00811C1.5902 1.07713 0.333313 1.77536 0.333313 3.63732V3.75369C0.333313 2.00811 1.5902 1.1935 3.18986 2.12448Z"/>
</mask>
<path d="M3.18986 2.12448L25.471 15.0418C26.1565 15.5073 26.6136 15.9728 26.6136 16.5546C26.6136 15.9728 26.2708 15.3909 25.471 14.9254L3.18986 2.00811C1.5902 1.07713 0.333313 1.77536 0.333313 3.63732V3.75369C0.333313 2.00811 1.5902 1.1935 3.18986 2.12448Z" fill="white"/>
<path d="M3.18986 2.12448L2.93836 2.55662L2.93909 2.55704L3.18986 2.12448ZM25.471 15.0418L25.7518 14.6282L25.7371 14.6182L25.7217 14.6092L25.471 15.0418ZM25.471 14.9254L25.7225 14.4933L25.7217 14.4929L25.471 14.9254ZM3.18986 2.00811L2.93836 2.44025L2.93909 2.44067L3.18986 2.00811ZM2.93909 2.55704L25.2202 15.4744L25.7217 14.6092L3.44064 1.69192L2.93909 2.55704ZM25.1901 15.4555C25.88 15.9239 26.1136 16.2566 26.1136 16.5546H27.1136C27.1136 15.6889 26.4331 15.0907 25.7518 14.6282L25.1901 15.4555ZM27.1136 16.5546C27.1136 15.7445 26.6271 15.0198 25.7225 14.4933L25.2195 15.3576C25.9145 15.7621 26.1136 16.2011 26.1136 16.5546H27.1136ZM25.7217 14.4929L3.44064 1.57554L2.93909 2.44067L25.2202 15.358L25.7217 14.4929ZM3.44136 1.57596C2.55975 1.06288 1.64508 0.927379 0.915487 1.34019C0.183432 1.7544 -0.166687 2.60941 -0.166687 3.63732H0.833313C0.833313 2.80328 1.11164 2.37818 1.40794 2.21053C1.70671 2.04148 2.22031 2.02235 2.93837 2.44025L3.44136 1.57596ZM-0.166687 3.63732V3.75369H0.833313V3.63732H-0.166687ZM0.833313 3.75369C0.833313 2.98971 1.10485 2.55074 1.4171 2.36523C1.72351 2.18319 2.23537 2.14749 2.93837 2.55662L3.44136 1.69234C2.54469 1.17049 1.62828 1.0766 0.90633 1.50551C0.190215 1.93096 -0.166687 2.77209 -0.166687 3.75369H0.833313Z" fill="#454056" mask="url(#path-11-inside-3_384_54)"/>
</g>
</svg>
