<svg width="16" height="16" viewBox="0 0 16 16" fill="none" xmlns="http://www.w3.org/2000/svg">
<path fill-rule="evenodd" clip-rule="evenodd" d="M5.61446 4.01502C5.24862 3.976 4.87866 4.01314 4.52789 4.1241C4.17711 4.23505 3.85312 4.41742 3.57632 4.6597C3.29951 4.90199 3.07589 5.19894 2.91953 5.53187C2.76316 5.86479 2.67744 6.22647 2.66775 6.59413C2.65807 6.96179 2.72463 7.32748 2.86324 7.66817C3.00186 8.00886 3.20953 8.31717 3.47319 8.57368L3.4774 8.57778L8.00571 13.0618L12.5251 8.5867C12.5382 8.57029 12.5547 8.54974 12.5736 8.52571C12.6273 8.45756 12.7004 8.36282 12.778 8.25639C12.9469 8.02474 13.0892 7.80182 13.1405 7.67467C13.2775 7.33458 13.3428 6.96987 13.3324 6.60338C13.322 6.23688 13.236 5.87648 13.0799 5.54473C12.9237 5.21297 12.7007 4.917 12.4249 4.67535C12.1491 4.4337 11.8263 4.25156 11.4768 4.14034C11.1273 4.02913 10.7587 3.99124 10.3938 4.02903C10.029 4.06683 9.67595 4.17951 9.3567 4.36001C9.03746 4.54051 8.75892 4.78494 8.53852 5.078C8.41219 5.24598 8.21404 5.34455 8.00386 5.34397C7.79368 5.34338 7.59608 5.24371 7.47069 5.07503C7.25124 4.77983 6.97302 4.53324 6.65356 4.35081C6.3341 4.16837 5.9803 4.05404 5.61446 4.01502ZM13.5149 9.47883C13.5168 9.48042 13.5169 9.48034 13.5169 9.48034L13.5195 9.47714L13.5255 9.46983L13.5467 9.44384C13.5646 9.42171 13.5899 9.39019 13.6206 9.35126C13.6818 9.27365 13.7655 9.16519 13.8554 9.04185C14.0216 8.81395 14.2571 8.47102 14.3772 8.17298C14.5828 7.66267 14.6809 7.11541 14.6652 6.56546C14.6496 6.0155 14.5206 5.4747 14.2862 4.9769C14.0519 4.47911 13.7174 4.03503 13.3035 3.67246C12.8897 3.30989 12.4055 3.03664 11.8812 2.86979C11.3568 2.70294 10.8037 2.6461 10.2564 2.7028C9.70913 2.75951 9.17943 2.92855 8.70047 3.19935C8.45217 3.33973 8.22029 3.5059 8.00845 3.69465C7.79641 3.50359 7.56395 3.33527 7.31476 3.19297C6.83547 2.91926 6.3047 2.74774 5.75586 2.68921C5.20703 2.63067 4.65202 2.68639 4.12577 2.85285C3.59953 3.0193 3.11345 3.2929 2.69814 3.65642C2.28284 4.01993 1.9473 4.46549 1.71268 4.96504C1.47805 5.46459 1.34942 6.00731 1.33488 6.55901C1.32035 7.11072 1.42022 7.65945 1.62822 8.17066C1.83584 8.68093 2.14668 9.14278 2.54124 9.52723L7.53608 14.4732L7.5366 14.4737C7.79641 14.7309 8.21499 14.731 8.47479 14.4737L13.4256 9.57142C13.4583 9.54459 13.4889 9.51416 13.5169 9.48034L13.5149 9.47883Z" fill="#FF5757"/>
</svg>
