<svg width="96" height="96" viewBox="0 0 96 96" fill="none" xmlns="http://www.w3.org/2000/svg">
<path d="M79.2821 52.7207V64.328H14.9141V52.7207C12.5023 53.2489 10.3703 54.6486 8.92656 56.6515C7.48287 58.6544 6.82911 61.1196 7.09057 63.5747C7.35203 66.0298 8.51032 68.3021 10.3434 69.956C12.1766 71.6099 14.5556 72.5292 17.0246 72.5376H77.1717C79.6407 72.5292 82.0197 71.6099 83.8528 69.956C85.686 68.3021 86.8442 66.0298 87.1057 63.5747C87.3672 61.1196 86.7134 58.6544 85.2697 56.6515C83.826 54.6486 81.694 53.2489 79.2821 52.7207Z" stroke="#FF5757" stroke-width="2.19836" stroke-miterlimit="10"/>
<path d="M72.6442 64.2757H22.5216V52.7211L20.4111 47.2129H74.7546L72.6442 52.7211V64.2757Z" stroke="#FF5757" stroke-width="2.19836" stroke-miterlimit="10"/>
<path d="M27.0068 49.3232H69.0887" stroke="#FF5757" stroke-width="2.19836" stroke-miterlimit="10"/>
<path d="M62.6944 47.2134C59.4338 44.2904 53.8728 42.3594 47.5415 42.3594C41.2103 42.3594 35.6493 44.2904 32.3887 47.2134H62.6944Z" stroke="#FF5757" stroke-width="2.19836" stroke-miterlimit="10"/>
<path d="M56.6267 64.2761V64.16C56.6267 61.742 55.6661 59.4231 53.9563 57.7133C52.2466 56.0035 49.9276 55.043 47.5096 55.043C45.0916 55.043 42.7727 56.0035 41.0629 57.7133C39.3531 59.4231 38.3926 61.742 38.3926 64.16V64.2761H56.6267Z" stroke="#FF5757" stroke-width="2.19836" stroke-miterlimit="10"/>
<path d="M68.7401 64.2761V64.2128C68.7401 63.0038 68.2598 61.8443 67.4049 60.9895C66.55 60.1346 65.3906 59.6543 64.1816 59.6543C62.9726 59.6543 61.8131 60.1346 60.9582 60.9895C60.1033 61.8443 59.623 63.0038 59.623 64.2128V64.2761H68.7401Z" stroke="#FF5757" stroke-width="2.19836" stroke-miterlimit="10"/>
<path d="M35.3954 64.2761V64.2128C35.3954 63.0038 34.9151 61.8443 34.0602 60.9895C33.2053 60.1346 32.0458 59.6543 30.8368 59.6543C29.6278 59.6543 28.4684 60.1346 27.6135 60.9895C26.7586 61.8443 26.2783 63.0038 26.2783 64.2128V64.2761H35.3954Z" stroke="#FF5757" stroke-width="2.19836" stroke-miterlimit="10"/>
<path d="M13.1632 52.7208C13.1632 52.7208 7.74995 26.9736 22.9239 18.458" stroke="#FF5757" stroke-width="2.19836" stroke-miterlimit="10"/>
<path d="M10.5244 22.5312C13.9342 17.7385 19.0173 14.3987 24.7698 13.1715C34.1295 11.0611 45.874 29.1263 45.874 29.1263L33.8235 23.8608L30.0459 40.9341L28.1992 18.4581L17.9953 37.051C17.9953 37.051 22.881 19.5133 25.519 16.3477L10.5244 22.5312Z" stroke="#FF5757" stroke-width="2.19836" stroke-miterlimit="10"/>
<path d="M82.5107 53.3546C82.5107 53.3546 87.924 27.6074 72.75 19.0918" stroke="#FF5757" stroke-width="2.19836" stroke-miterlimit="10"/>
<path d="M85.1488 23.1742C81.7391 18.3814 76.656 15.0416 70.9035 13.8145C61.5437 11.704 52.9648 28.387 52.9648 28.387L61.8181 24.4932L65.4058 37.9788L67.5162 19.0905L75.9579 34.56C75.9579 34.56 72.7923 20.1457 70.1437 16.9801L85.1488 23.1742Z" stroke="#FF5757" stroke-width="2.19836" stroke-miterlimit="10"/>
<path d="M85.1494 73.4141H88.0829" stroke="#FF5757" stroke-width="2.19836" stroke-miterlimit="10"/>
<path d="M48.0479 73.4141H79.1133" stroke="#FF5757" stroke-width="2.19836" stroke-miterlimit="10"/>
<path d="M20.4111 73.4141H39.3628" stroke="#FF5757" stroke-width="2.19836" stroke-miterlimit="10"/>
<path d="M7 73.4141H14.7453" stroke="#FF5757" stroke-width="2.19836" stroke-miterlimit="10"/>
<path d="M86.1406 78.0566H88.0822" stroke="#FF5757" stroke-width="2.19836" stroke-miterlimit="10"/>
<path d="M69.0889 78.0566H81.3927" stroke="#FF5757" stroke-width="2.19836" stroke-miterlimit="10"/>
<path d="M34.0879 78.0566H47.5841H50.0955H52.9551H64.1826" stroke="#FF5757" stroke-width="2.19836" stroke-miterlimit="10"/>
<path d="M7 78.0566H28.1992" stroke="#FF5757" stroke-width="2.19836" stroke-miterlimit="10"/>
<path d="M85.1494 82.6992H88.0829" stroke="#FF5757" stroke-width="2.19836" stroke-miterlimit="10"/>
<path d="M78.1006 82.6992H81.7516" stroke="#FF5757" stroke-width="2.19836" stroke-miterlimit="10"/>
<path d="M56.626 82.6992H72.7496" stroke="#FF5757" stroke-width="2.19836" stroke-miterlimit="10"/>
<path d="M28.1992 82.6992H47.5096" stroke="#FF5757" stroke-width="2.19836" stroke-miterlimit="10"/>
<path d="M7 82.6992H19.3143" stroke="#FF5757" stroke-width="2.19836" stroke-miterlimit="10"/>
</svg>
