<svg width="96" height="96" viewBox="0 0 96 96" fill="none" xmlns="http://www.w3.org/2000/svg">
<path d="M55.6006 36.3367H39.4742C39.1687 36.3367 38.8757 36.2153 38.6596 35.9993C38.4436 35.7833 38.3223 35.4903 38.3223 35.1848V24.5874C38.3223 24.2819 38.4436 23.9889 38.6596 23.7729C38.8757 23.5569 39.1687 23.4355 39.4742 23.4355H55.6006C55.9061 23.4355 56.1991 23.5569 56.4151 23.7729C56.6311 23.9889 56.7525 24.2819 56.7525 24.5874V35.1848C56.7525 35.4903 56.6311 35.7833 56.4151 35.9993C56.1991 36.2153 55.9061 36.3367 55.6006 36.3367ZM40.626 34.0329H54.4487V25.7393H40.626V34.0329Z" fill="#FF5757"/>
<path d="M18.2783 54.7665H4.4556C4.1501 54.7665 3.85711 54.6452 3.64109 54.4291C3.42507 54.2131 3.30371 53.9201 3.30371 53.6146V48.316C3.30371 48.0105 3.42507 47.7175 3.64109 47.5014C3.85711 47.2854 4.1501 47.1641 4.4556 47.1641H18.2783C18.5838 47.1641 18.8767 47.2854 19.0928 47.5014C19.3088 47.7175 19.4301 48.0105 19.4301 48.316V53.6146C19.4301 53.9201 19.3088 54.2131 19.0928 54.4291C18.8767 54.6452 18.5838 54.7665 18.2783 54.7665ZM5.60749 52.4627H17.1264V49.4678H5.60749V52.4627Z" fill="#FF5757"/>
<path d="M14.016 80.9151H8.71732C8.41182 80.9151 8.11883 80.7937 7.90281 80.5777C7.68679 80.3617 7.56543 80.0687 7.56543 79.7632V72.2759C7.56543 71.9704 7.68679 71.6774 7.90281 71.4614C8.11883 71.2454 8.41182 71.124 8.71732 71.124H14.016C14.3215 71.124 14.6145 71.2454 14.8305 71.4614C15.0465 71.6774 15.1679 71.9704 15.1679 72.2759V79.7632C15.1679 80.0687 15.0465 80.3617 14.8305 80.5777C14.6145 80.7937 14.3215 80.9151 14.016 80.9151ZM9.86921 78.6113H12.8641V73.4278H9.86921V78.6113Z" fill="#FF5757"/>
<path d="M86.3549 80.9151H81.0562C80.7507 80.9151 80.4577 80.7937 80.2417 80.5777C80.0257 80.3617 79.9043 80.0687 79.9043 79.7632V72.2759C79.9043 71.9704 80.0257 71.6774 80.2417 71.4614C80.4577 71.2454 80.7507 71.124 81.0562 71.124H86.3549C86.6604 71.124 86.9534 71.2454 87.1694 71.4614C87.3854 71.6774 87.5068 71.9704 87.5068 72.2759V79.7632C87.5068 80.0687 87.3854 80.3617 87.1694 80.5777C86.9534 80.7937 86.6604 80.9151 86.3549 80.9151ZM82.2081 78.6113H85.203V73.4278H82.2081V78.6113Z" fill="#FF5757"/>
<path d="M71.1508 80.9151H65.8521C65.5466 80.9151 65.2536 80.7937 65.0376 80.5777C64.8216 80.3617 64.7002 80.0687 64.7002 79.7632V72.2759C64.7002 71.9704 64.8216 71.6774 65.0376 71.4614C65.2536 71.2454 65.5466 71.124 65.8521 71.124H71.1508C71.4563 71.124 71.7493 71.2454 71.9653 71.4614C72.1813 71.6774 72.3027 71.9704 72.3027 72.2759V79.7632C72.3027 80.0687 72.1813 80.3617 71.9653 80.5777C71.7493 80.7937 71.4563 80.9151 71.1508 80.9151ZM67.004 78.6113H69.9989V73.4278H67.004V78.6113Z" fill="#FF5757"/>
<path d="M28.7601 80.9151H23.4615C23.156 80.9151 22.863 80.7937 22.6469 80.5777C22.4309 80.3617 22.3096 80.0687 22.3096 79.7632V72.2759C22.3096 71.9704 22.4309 71.6774 22.6469 71.4614C22.863 71.2454 23.156 71.124 23.4615 71.124H28.7601C29.0656 71.124 29.3586 71.2454 29.5747 71.4614C29.7907 71.6774 29.912 71.9704 29.912 72.2759V79.7632C29.912 80.0687 29.7907 80.3617 29.5747 80.5777C29.3586 80.7937 29.0656 80.9151 28.7601 80.9151ZM24.6133 78.6113H27.6083V73.4278H24.6133V78.6113Z" fill="#FF5757"/>
<path d="M71.4955 54.7657H66.1968C65.8913 54.7657 65.5983 54.6443 65.3823 54.4283C65.1663 54.2123 65.0449 53.9193 65.0449 53.6138V46.2417C65.0449 45.9362 65.1663 45.6432 65.3823 45.4272C65.5983 45.2112 65.8913 45.0898 66.1968 45.0898H71.4955C71.801 45.0898 72.094 45.2112 72.31 45.4272C72.526 45.6432 72.6474 45.9362 72.6474 46.2417V53.6138C72.6474 53.9193 72.526 54.2123 72.31 54.4283C72.094 54.6443 71.801 54.7657 71.4955 54.7657ZM67.3487 52.4619H70.3436V47.3936H67.3487V52.4619Z" fill="#FF5757"/>
<path d="M28.8754 54.7657H23.5767C23.2712 54.7657 22.9782 54.6443 22.7622 54.4283C22.5462 54.2123 22.4248 53.9193 22.4248 53.6138V46.2417C22.4248 45.9362 22.5462 45.6432 22.7622 45.4272C22.9782 45.2112 23.2712 45.0898 23.5767 45.0898H28.8754C29.1809 45.0898 29.4739 45.2112 29.6899 45.4272C29.9059 45.6432 30.0273 45.9362 30.0273 46.2417V53.6138C30.0273 53.9193 29.9059 54.2123 29.6899 54.4283C29.4739 54.6443 29.1809 54.7657 28.8754 54.7657ZM24.7286 52.4619H27.7235V47.3936H24.7286V52.4619Z" fill="#FF5757"/>
<path d="M76.7938 60.0654H18.2779C17.9724 60.0654 17.6794 59.944 17.4634 59.728C17.2473 59.5119 17.126 59.219 17.126 58.9135V53.6148C17.126 53.3093 17.2473 53.0163 17.4634 52.8003C17.6794 52.5843 17.9724 52.4629 18.2779 52.4629H76.7938C77.0993 52.4629 77.3923 52.5843 77.6083 52.8003C77.8243 53.0163 77.9457 53.3093 77.9457 53.6148V58.9135C77.9457 59.219 77.8243 59.5119 77.6083 59.728C77.3923 59.944 77.0993 60.0654 76.7938 60.0654ZM19.4298 57.7616H75.6419V54.7667H19.4298V57.7616Z" fill="#FF5757"/>
<path d="M34.1739 36.3367H18.2779C17.9724 36.3367 17.6794 36.2154 17.4634 35.9993C17.2473 35.7833 17.126 35.4903 17.126 35.1848V27.1216C17.126 26.8161 17.2473 26.5231 17.4634 26.3071C17.6794 26.0911 17.9724 25.9697 18.2779 25.9697H34.1739C34.4794 25.9697 34.7724 26.0911 34.9884 26.3071C35.2045 26.5231 35.3258 26.8161 35.3258 27.1216V35.1848C35.3258 35.4903 35.2045 35.7833 34.9884 35.9993C34.7724 36.2154 34.4794 36.3367 34.1739 36.3367ZM19.4298 34.0329H33.022V28.2735H19.4298V34.0329Z" fill="#FF5757"/>
<path d="M76.795 36.3367H60.899C60.5935 36.3367 60.3005 36.2154 60.0845 35.9993C59.8684 35.7833 59.7471 35.4903 59.7471 35.1848V27.1216C59.7471 26.8161 59.8684 26.5231 60.0845 26.3071C60.3005 26.0911 60.5935 25.9697 60.899 25.9697H76.795C77.1005 25.9697 77.3935 26.0911 77.6095 26.3071C77.8255 26.5231 77.9469 26.8161 77.9469 27.1216V35.1848C77.9469 35.4903 77.8255 35.7833 77.6095 35.9993C77.3935 36.2154 77.1005 36.3367 76.795 36.3367ZM62.0508 34.0329H75.6431V28.2735H62.0508V34.0329Z" fill="#FF5757"/>
<path d="M90.6171 54.7665H76.7945C76.489 54.7665 76.196 54.6452 75.98 54.4291C75.7639 54.2131 75.6426 53.9201 75.6426 53.6146V48.316C75.6426 48.0105 75.7639 47.7175 75.98 47.5014C76.196 47.2854 76.489 47.1641 76.7945 47.1641H90.6171C90.9226 47.1641 91.2156 47.2854 91.4316 47.5014C91.6477 47.7175 91.769 48.0105 91.769 48.316V53.6146C91.769 53.9201 91.6477 54.2131 91.4316 54.4291C91.2156 54.6452 90.9226 54.7665 90.6171 54.7665ZM77.9464 52.4627H89.4652V49.4678H77.9464V52.4627Z" fill="#FF5757"/>
<path d="M13.6112 42.9322C13.4825 42.9325 13.3547 42.9107 13.2334 42.8677C12.0235 42.4554 10.7111 42.4554 9.50126 42.8677C9.30625 42.9362 9.09641 42.9509 8.89374 42.9104C8.69107 42.8698 8.50304 42.7755 8.34937 42.6373C7.9517 42.3051 7.62672 41.8946 7.39466 41.4312C7.16261 40.9679 7.02847 40.4618 7.00058 39.9444C6.9727 39.427 7.05169 38.9093 7.23261 38.4238C7.41353 37.9382 7.69252 37.4951 8.05218 37.1221C8.43884 36.6729 8.91038 36.3046 9.43974 36.0381C9.9691 35.7717 10.5459 35.6124 11.1369 35.5693H11.5977C12.191 35.6098 12.7704 35.7672 13.3026 36.0325C13.8347 36.2978 14.3092 36.6657 14.6986 37.1152C15.0553 37.5073 15.3313 37.966 15.5108 38.4648C15.6902 38.9637 15.7696 39.493 15.7445 40.0225C15.6387 41.0299 15.1596 41.9611 14.4014 42.6327C14.1854 42.829 13.903 42.9361 13.6112 42.9322ZM11.3673 40.2529C11.988 40.2526 12.6066 40.3253 13.2103 40.4695C13.3307 40.2841 13.4043 40.0722 13.4246 39.8521C13.4316 39.3979 13.2594 38.9593 12.9454 38.6311C12.57 38.1908 12.036 37.9168 11.4595 37.8685C11.4157 37.8685 11.312 37.8685 11.2291 37.8685C10.6631 37.9264 10.1422 38.2034 9.77771 38.6403C9.4637 38.9685 9.29155 39.4071 9.29853 39.8613C9.31956 40.0812 9.39303 40.293 9.51278 40.4787C10.1199 40.3306 10.7424 40.2548 11.3673 40.2529Z" fill="#FF5757"/>
<path d="M92.9207 87.2491H2.15189C1.84639 87.2491 1.5534 87.1277 1.33738 86.9117C1.12136 86.6957 1 86.4027 1 86.0972C1 85.7917 1.12136 85.4987 1.33738 85.2827C1.5534 85.0667 1.84639 84.9453 2.15189 84.9453H92.9207C93.2262 84.9453 93.5192 85.0667 93.7352 85.2827C93.9512 85.4987 94.0726 85.7917 94.0726 86.0972C94.0726 86.4027 93.9512 86.6957 93.7352 86.9117C93.5192 87.1277 93.2262 87.2491 92.9207 87.2491Z" fill="#FF5757"/>
<path d="M90.6171 87.2499H76.7945C76.489 87.2499 76.196 87.1286 75.98 86.9125C75.7639 86.6965 75.6426 86.4035 75.6426 86.098V53.6148C75.6426 53.3093 75.7639 53.0163 75.98 52.8003C76.196 52.5843 76.489 52.4629 76.7945 52.4629H90.6171C90.9226 52.4629 91.2156 52.5843 91.4316 52.8003C91.6477 53.0163 91.769 53.3093 91.769 53.6148V86.098C91.769 86.4035 91.6477 86.6965 91.4316 86.9125C91.2156 87.1286 90.9226 87.2499 90.6171 87.2499ZM77.9464 84.9461H89.4652V54.7667H77.9464V84.9461Z" fill="#FF5757"/>
<path d="M76.795 87.2502H60.899C60.5935 87.2502 60.3005 87.1288 60.0845 86.9128C59.8684 86.6968 59.7471 86.4038 59.7471 86.0983V27.1216C59.7471 26.8161 59.8684 26.5231 60.0845 26.3071C60.3005 26.0911 60.5935 25.9697 60.899 25.9697H76.795C77.1005 25.9697 77.3935 26.0911 77.6095 26.3071C77.8255 26.5231 77.9469 26.8161 77.9469 27.1216V86.0983C77.9469 86.4038 77.8255 86.6968 77.6095 86.9128C77.3935 87.1288 77.1005 87.2502 76.795 87.2502ZM62.0508 84.9464H75.6431V28.2735H62.0508V84.9464Z" fill="#FF5757"/>
<path d="M18.2783 87.2499H4.4556C4.1501 87.2499 3.85711 87.1286 3.64109 86.9125C3.42507 86.6965 3.30371 86.4035 3.30371 86.098V53.6148C3.30371 53.3093 3.42507 53.0163 3.64109 52.8003C3.85711 52.5843 4.1501 52.4629 4.4556 52.4629H18.2783C18.5838 52.4629 18.8767 52.5843 19.0928 52.8003C19.3088 53.0163 19.4301 53.3093 19.4301 53.6148V86.098C19.4301 86.4035 19.3088 86.6965 19.0928 86.9125C18.8767 87.1286 18.5838 87.2499 18.2783 87.2499ZM5.60749 84.9461H17.1264V54.7667H5.60749V84.9461Z" fill="#FF5757"/>
<path d="M60.8982 87.2499H34.1743C33.8688 87.2499 33.5759 87.1286 33.3598 86.9125C33.1438 86.6965 33.0225 86.4035 33.0225 86.098V53.6148C33.0225 53.3093 33.1438 53.0163 33.3598 52.8003C33.5759 52.5843 33.8688 52.4629 34.1743 52.4629H60.8982C61.2037 52.4629 61.4966 52.5843 61.7127 52.8003C61.9287 53.0163 62.05 53.3093 62.05 53.6148V86.098C62.05 86.4035 61.9287 86.6965 61.7127 86.9125C61.4966 87.1286 61.2037 87.2499 60.8982 87.2499ZM35.3262 84.9461H59.7463V54.7667H35.3262V84.9461Z" fill="#FF5757"/>
<path d="M18.2783 54.7657H4.4556C4.1501 54.7657 3.85711 54.6444 3.64109 54.4284C3.42507 54.2123 3.30371 53.9194 3.30371 53.6139V48.3152C3.30371 46.1767 4.15323 44.1258 5.66537 42.6136C7.17752 41.1015 9.22843 40.252 11.3669 40.252C13.5054 40.252 15.5563 41.1015 17.0685 42.6136C18.5806 44.1258 19.4301 46.1767 19.4301 48.3152V53.6139C19.4301 53.9194 19.3088 54.2123 19.0928 54.4284C18.8767 54.6444 18.5838 54.7657 18.2783 54.7657ZM5.60749 52.462H17.1264V48.3152C17.1264 46.7877 16.5196 45.3227 15.4395 44.2426C14.3594 43.1625 12.8944 42.5557 11.3669 42.5557C9.83943 42.5557 8.37449 43.1625 7.29439 44.2426C6.21428 45.3227 5.60749 46.7877 5.60749 48.3152V52.462Z" fill="#FF5757"/>
<path d="M90.6171 54.7657H76.7945C76.489 54.7657 76.196 54.6444 75.98 54.4284C75.7639 54.2123 75.6426 53.9194 75.6426 53.6139V48.3152C75.6426 46.1767 76.4921 44.1258 78.0042 42.6136C79.5164 41.1015 81.5673 40.252 83.7058 40.252C85.8443 40.252 87.8952 41.1015 89.4074 42.6136C90.9195 44.1258 91.769 46.1767 91.769 48.3152V53.6139C91.769 53.9194 91.6477 54.2123 91.4316 54.4284C91.2156 54.6444 90.9226 54.7657 90.6171 54.7657ZM77.9464 52.462H89.4652V48.3152C89.4652 46.7877 88.8584 45.3227 87.7783 44.2426C86.6982 43.1625 85.2333 42.5557 83.7058 42.5557C82.1783 42.5557 80.7134 43.1625 79.6333 44.2426C78.5532 45.3227 77.9464 46.7877 77.9464 48.3152V52.462Z" fill="#FF5757"/>
<path d="M76.795 28.2737H60.899C60.5935 28.2737 60.3005 28.1523 60.0845 27.9363C59.8684 27.7203 59.7471 27.4273 59.7471 27.1218V25.6243C59.7471 23.2109 60.7058 20.8963 62.4124 19.1897C64.1189 17.4832 66.4335 16.5244 68.847 16.5244C71.2604 16.5244 73.575 17.4832 75.2816 19.1897C76.9882 20.8963 77.9469 23.2109 77.9469 25.6243V27.1218C77.9469 27.4273 77.8255 27.7203 77.6095 27.9363C77.3935 28.1523 77.1005 28.2737 76.795 28.2737ZM62.0508 25.9699H75.6431V25.6243C75.6431 23.8219 74.9271 22.0933 73.6526 20.8187C72.3781 19.5442 70.6494 18.8282 68.847 18.8282C67.0445 18.8282 65.3159 19.5442 64.0414 20.8187C62.7669 22.0933 62.0508 23.8219 62.0508 25.6243V25.9699Z" fill="#FF5757"/>
<path d="M55.3702 25.7394H39.4742C39.1687 25.7394 38.8757 25.618 38.6596 25.402C38.4436 25.186 38.3223 24.893 38.3223 24.5875V20.3255C38.3223 17.9121 39.281 15.5975 40.9876 13.8909C42.6941 12.1843 45.0087 11.2256 47.4222 11.2256C49.8356 11.2256 52.1502 12.1843 53.8568 13.8909C55.5634 15.5975 56.5221 17.9121 56.5221 20.3255V24.5875C56.5221 24.893 56.4007 25.186 56.1847 25.402C55.9687 25.618 55.6757 25.7394 55.3702 25.7394ZM40.626 23.4356H54.2183V20.3255C54.2183 18.5231 53.5023 16.7944 52.2278 15.5199C50.9533 14.2454 49.2246 13.5294 47.4222 13.5294C45.6197 13.5294 43.8911 14.2454 42.6166 15.5199C41.3421 16.7944 40.626 18.5231 40.626 20.3255V23.4356Z" fill="#FF5757"/>
<path d="M34.1739 87.2502H18.2779C17.9724 87.2502 17.6794 87.1288 17.4634 86.9128C17.2473 86.6968 17.126 86.4038 17.126 86.0983V27.1216C17.126 26.8161 17.2473 26.5231 17.4634 26.3071C17.6794 26.0911 17.9724 25.9697 18.2779 25.9697H34.1739C34.4794 25.9697 34.7724 26.0911 34.9884 26.3071C35.2045 26.5231 35.3258 26.8161 35.3258 27.1216V86.0983C35.3258 86.4038 35.2045 86.6968 34.9884 86.9128C34.7724 87.1288 34.4794 87.2502 34.1739 87.2502ZM19.4298 84.9464H33.022V28.2735H19.4298V84.9464Z" fill="#FF5757"/>
<path d="M34.1739 28.2737H18.2779C17.9724 28.2737 17.6794 28.1523 17.4634 27.9363C17.2473 27.7203 17.126 27.4273 17.126 27.1218V25.6243C17.126 23.2109 18.0847 20.8963 19.7913 19.1897C21.4978 17.4832 23.8124 16.5244 26.2259 16.5244C28.6393 16.5244 30.9539 17.4832 32.6605 19.1897C34.3671 20.8963 35.3258 23.2109 35.3258 25.6243V27.1218C35.3258 27.4273 35.2045 27.7203 34.9884 27.9363C34.7724 28.1523 34.4794 28.2737 34.1739 28.2737ZM19.4298 25.9699H33.022V25.6243C33.022 23.8219 32.306 22.0933 31.0315 20.8187C29.757 19.5442 28.0283 18.8282 26.2259 18.8282C24.4234 18.8282 22.6948 19.5442 21.4203 20.8187C20.1458 22.0933 19.4298 23.8219 19.4298 25.6243V25.9699Z" fill="#FF5757"/>
<path d="M85.9491 42.9318C85.8204 42.9321 85.6926 42.9102 85.5713 42.8673C84.3614 42.455 83.049 42.455 81.8391 42.8673C81.6441 42.9357 81.4343 42.9505 81.2316 42.91C81.029 42.8694 80.8409 42.7751 80.6873 42.6369C80.2896 42.3047 79.9646 41.8941 79.7326 41.4308C79.5005 40.9675 79.3664 40.4614 79.3385 39.9439C79.3106 39.4265 79.3896 38.9089 79.5705 38.4233C79.7514 37.9378 80.0304 37.4947 80.3901 37.1217C80.7775 36.6742 81.2494 36.3076 81.7787 36.0427C82.3081 35.7778 82.8844 35.62 83.4748 35.5781H83.9356C84.5289 35.6186 85.1083 35.776 85.6405 36.0413C86.1726 36.3066 86.6471 36.6745 87.0365 37.124C87.7546 37.9137 88.1307 38.9558 88.0824 40.0221C87.9766 41.0294 87.4975 41.9607 86.7393 42.6323C86.5233 42.8286 86.2409 42.9357 85.9491 42.9318ZM83.7052 40.2525C84.3298 40.2512 84.9523 40.3239 85.5597 40.469C85.6801 40.2836 85.7537 40.0718 85.774 39.8516C85.781 39.3975 85.6088 38.9588 85.2948 38.6306C84.9195 38.1904 84.3854 37.9163 83.8089 37.8681C83.7651 37.8681 83.6614 37.8681 83.5785 37.8681C83.0085 37.919 82.4814 38.1921 82.111 38.6283C81.797 38.9565 81.6248 39.3952 81.6318 39.8493C81.6529 40.0693 81.7263 40.281 81.8461 40.4667C82.4551 40.3222 83.0792 40.2502 83.7052 40.2525Z" fill="#FF5757"/>
<path d="M71.0897 19.2023C70.961 19.2026 70.8332 19.1808 70.7119 19.1378C69.502 18.7255 68.1896 18.7255 66.9798 19.1378C66.7848 19.2063 66.5749 19.221 66.3723 19.1805C66.1696 19.1399 65.9816 19.0456 65.8279 18.9074C65.4302 18.5752 65.1052 18.1646 64.8732 17.7013C64.6411 17.238 64.507 16.7319 64.4791 16.2145C64.4512 15.697 64.5302 15.1794 64.7111 14.6938C64.892 14.2083 65.171 13.7652 65.5307 13.3922C65.9182 12.9447 66.3901 12.5781 66.9194 12.3132C67.4487 12.0484 68.0251 11.8905 68.6155 11.8486H69.0762C69.6695 11.8891 70.2489 12.0465 70.7811 12.3118C71.3133 12.5771 71.7877 12.945 72.1771 13.3945C72.8919 14.1857 73.2646 15.2276 73.2138 16.2926C73.108 17.3 72.6289 18.2312 71.8707 18.9028C71.6571 19.097 71.3784 19.2038 71.0897 19.2023ZM68.8458 16.523C69.4704 16.5217 70.0929 16.5944 70.7004 16.7396C70.8208 16.5542 70.8943 16.3423 70.9146 16.1221C70.9216 15.668 70.7494 15.2293 70.4354 14.9011C70.0601 14.4609 69.526 14.1868 68.9495 14.1386C68.9057 14.1386 68.8021 14.1386 68.7191 14.1386C68.1491 14.1895 67.622 14.4626 67.2516 14.8988C66.9376 15.227 66.7655 15.6657 66.7724 16.1198C66.7935 16.3398 66.8669 16.5515 66.9867 16.7372C67.5958 16.5927 68.2198 16.5208 68.8458 16.523Z" fill="#FF5757"/>
<path d="M68.8462 13.7594C68.5407 13.7594 68.2477 13.638 68.0317 13.422C67.8157 13.206 67.6943 12.913 67.6943 12.6075V11.4556C67.6943 11.1501 67.8157 10.8571 68.0317 10.6411C68.2477 10.4251 68.5407 10.3037 68.8462 10.3037C69.1517 10.3037 69.4447 10.4251 69.6607 10.6411C69.8768 10.8571 69.9981 11.1501 69.9981 11.4556V12.6075C69.9981 12.913 69.8768 13.206 69.6607 13.422C69.4447 13.638 69.1517 13.7594 68.8462 13.7594Z" fill="#FF5757"/>
<path d="M28.4706 19.2023C28.3419 19.2026 28.2141 19.1808 28.0928 19.1378C26.8829 18.7255 25.5705 18.7255 24.3606 19.1378C24.1656 19.2063 23.9558 19.221 23.7531 19.1805C23.5504 19.1399 23.3624 19.0456 23.2087 18.9074C22.8111 18.5752 22.4861 18.1646 22.254 17.7013C22.022 17.238 21.8878 16.7319 21.86 16.2145C21.8321 15.697 21.9111 15.1794 22.092 14.6938C22.2729 14.2083 22.5519 13.7652 22.9116 13.3922C23.299 12.9447 23.7709 12.5781 24.3002 12.3132C24.8295 12.0484 25.4059 11.8905 25.9963 11.8486H26.4571C27.0503 11.8891 27.6298 12.0465 28.1619 12.3118C28.6941 12.5771 29.1686 12.945 29.558 13.3945C30.2728 14.1857 30.6455 15.2276 30.5947 16.2926C30.4889 17.3 30.0097 18.2312 29.2516 18.9028C29.0379 19.097 28.7592 19.2038 28.4706 19.2023ZM26.2267 16.523C26.8513 16.5217 27.4738 16.5944 28.0812 16.7396C28.2016 16.5542 28.2752 16.3423 28.2955 16.1221C28.3025 15.668 28.1303 15.2293 27.8163 14.9011C27.4409 14.4609 26.9069 14.1868 26.3304 14.1386C26.2866 14.1386 26.1829 14.1386 26.1 14.1386C25.53 14.1895 25.0029 14.4626 24.6325 14.8988C24.3185 15.227 24.1463 15.6657 24.1533 16.1198C24.1743 16.3398 24.2478 16.5515 24.3675 16.7372C24.9766 16.5927 25.6007 16.5208 26.2267 16.523Z" fill="#FF5757"/>
<path d="M26.2271 13.7594C25.9216 13.7594 25.6286 13.638 25.4126 13.422C25.1966 13.206 25.0752 12.913 25.0752 12.6075V11.4556C25.0752 11.1501 25.1966 10.8571 25.4126 10.6411C25.6286 10.4251 25.9216 10.3037 26.2271 10.3037C26.5326 10.3037 26.8256 10.4251 27.0416 10.6411C27.2576 10.8571 27.379 11.1501 27.379 11.4556V12.6075C27.379 12.913 27.2576 13.206 27.0416 13.422C26.8256 13.638 26.5326 13.7594 26.2271 13.7594Z" fill="#FF5757"/>
<path d="M47.7671 13.5291C47.4616 13.5291 47.1686 13.4077 46.9526 13.1917C46.7366 12.9757 46.6152 12.6827 46.6152 12.3772V9.15189C46.6152 8.84639 46.7366 8.5534 46.9526 8.33738C47.1686 8.12136 47.4616 8 47.7671 8C48.0726 8 48.3656 8.12136 48.5816 8.33738C48.7976 8.5534 48.919 8.84639 48.919 9.15189V12.3772C48.919 12.6827 48.7976 12.9757 48.5816 13.1917C48.3656 13.4077 48.0726 13.5291 47.7671 13.5291Z" fill="#FF5757"/>
<path d="M83.7056 37.4879C83.4001 37.4879 83.1071 37.3665 82.8911 37.1505C82.6751 36.9345 82.5537 36.6415 82.5537 36.336V35.1841C82.5537 34.8786 82.6751 34.5856 82.8911 34.3696C83.1071 34.1536 83.4001 34.0322 83.7056 34.0322C84.0111 34.0322 84.3041 34.1536 84.5201 34.3696C84.7361 34.5856 84.8575 34.8786 84.8575 35.1841V36.336C84.8575 36.6415 84.7361 36.9345 84.5201 37.1505C84.3041 37.3665 84.0111 37.4879 83.7056 37.4879Z" fill="#FF5757"/>
<path d="M11.3677 37.4879C11.0622 37.4879 10.7692 37.3665 10.5532 37.1505C10.3372 36.9345 10.2158 36.6415 10.2158 36.336V35.1841C10.2158 34.8786 10.3372 34.5856 10.5532 34.3696C10.7692 34.1536 11.0622 34.0322 11.3677 34.0322C11.6732 34.0322 11.9662 34.1536 12.1822 34.3696C12.3982 34.5856 12.5196 34.8786 12.5196 35.1841V36.336C12.5196 36.6415 12.3982 36.9345 12.1822 37.1505C11.9662 37.3665 11.6732 37.4879 11.3677 37.4879Z" fill="#FF5757"/>
<path d="M27.3785 32.1895H25.0747C24.7692 32.1895 24.4763 32.0682 24.2602 31.8521C24.0442 31.6361 23.9229 31.3431 23.9229 31.0376C23.9229 30.7321 24.0442 30.4391 24.2602 30.2231C24.4763 30.0071 24.7692 29.8857 25.0747 29.8857H27.3785C27.684 29.8857 27.977 30.0071 28.193 30.2231C28.409 30.4391 28.5304 30.7321 28.5304 31.0376C28.5304 31.3431 28.409 31.6361 28.193 31.8521C27.977 32.0682 27.684 32.1895 27.3785 32.1895Z" fill="#FF5757"/>
<path d="M68.5013 66.5157C68.4239 66.5163 68.3466 66.5086 68.2709 66.4926C68.1976 66.4781 68.1258 66.4565 68.0566 66.4281C67.9876 66.3988 67.9213 66.3633 67.8585 66.3222C67.7949 66.2804 67.7355 66.2326 67.6811 66.1793C67.6279 66.1258 67.5801 66.0671 67.5383 66.0042C67.4975 65.9404 67.4621 65.8734 67.4323 65.8038C67.4039 65.7347 67.3823 65.6629 67.3678 65.5896C67.3517 65.5138 67.344 65.4366 67.3448 65.3592C67.3441 65.2818 67.3519 65.2045 67.3678 65.1288C67.3823 65.0555 67.4039 64.9837 67.4323 64.9145C67.4621 64.8449 67.4975 64.7779 67.5383 64.7141C67.5801 64.6512 67.6279 64.5926 67.6811 64.539C67.7355 64.4858 67.7949 64.4379 67.8585 64.3962C67.9213 64.355 67.9876 64.3196 68.0566 64.2902C68.1258 64.2618 68.1976 64.2402 68.2709 64.2257C68.4944 64.1808 68.7263 64.2032 68.9371 64.2901C69.1479 64.3771 69.3282 64.5246 69.455 64.7141C69.4958 64.7779 69.5312 64.8449 69.561 64.9145C69.5894 64.9837 69.611 65.0555 69.6255 65.1288C69.6415 65.2045 69.6492 65.2818 69.6486 65.3592C69.6493 65.4366 69.6416 65.5138 69.6255 65.5896C69.611 65.6629 69.5894 65.7347 69.561 65.8038C69.5312 65.8734 69.4958 65.9404 69.455 66.0042C69.3501 66.1611 69.2083 66.2898 69.042 66.3789C68.8757 66.4681 68.69 66.5151 68.5013 66.5157Z" fill="#FF5757"/>
<path d="M26.1107 66.5157C26.0333 66.5163 25.956 66.5086 25.8803 66.4926C25.8069 66.4781 25.7352 66.4565 25.666 66.4281C25.5964 66.3983 25.5294 66.3629 25.4656 66.3222C25.4031 66.2798 25.3446 66.232 25.2905 66.1793C25.2373 66.1258 25.1894 66.0671 25.1477 66.0042C25.1069 65.9404 25.0715 65.8734 25.0417 65.8038C25.0133 65.7347 24.9917 65.6629 24.9772 65.5896C24.9611 65.5138 24.9534 65.4366 24.9542 65.3592C24.9535 65.2818 24.9612 65.2045 24.9772 65.1288C24.9917 65.0555 25.0133 64.9837 25.0417 64.9145C25.0715 64.8449 25.1069 64.7779 25.1477 64.7141C25.1894 64.6512 25.2373 64.5926 25.2905 64.539C25.3446 64.4864 25.4031 64.4386 25.4656 64.3962C25.5294 64.3554 25.5964 64.32 25.666 64.2902C25.7352 64.2618 25.8069 64.2402 25.8803 64.2257C26.1038 64.1808 26.3357 64.2032 26.5465 64.2901C26.7573 64.3771 26.9375 64.5246 27.0644 64.7141C27.1052 64.7779 27.1406 64.8449 27.1704 64.9145C27.1988 64.9837 27.2204 65.0555 27.2349 65.1288C27.2509 65.2045 27.2586 65.2818 27.2579 65.3592C27.2587 65.4366 27.251 65.5138 27.2349 65.5896C27.2204 65.6629 27.1988 65.7347 27.1704 65.8038C27.1406 65.8734 27.1052 65.9404 27.0644 66.0042C26.9595 66.1611 26.8176 66.2898 26.6513 66.3789C26.485 66.4681 26.2994 66.5151 26.1107 66.5157Z" fill="#FF5757"/>
<path d="M11.3677 60.0667C11.2903 60.0674 11.2131 60.0597 11.1374 60.0437C11.064 60.0292 10.9923 60.0076 10.9231 59.9792C10.8535 59.9494 10.7865 59.914 10.7227 59.8732C10.566 59.7673 10.4379 59.6245 10.3495 59.4574C10.2611 59.2902 10.2152 59.1039 10.2159 58.9148C10.2152 58.8374 10.2229 58.7602 10.2389 58.6845C10.2534 58.6111 10.275 58.5394 10.3034 58.4702C10.3332 58.4006 10.3686 58.3336 10.4094 58.2698C10.4928 58.1434 10.6009 58.0353 10.7273 57.9519C10.7911 57.9111 10.8581 57.8757 10.9277 57.8459C10.9969 57.8175 11.0686 57.7959 11.142 57.7814C11.3655 57.7364 11.5974 57.7589 11.8082 57.8458C12.019 57.9328 12.1992 58.0803 12.3261 58.2698C12.3669 58.3336 12.4023 58.4006 12.4321 58.4702C12.4605 58.5394 12.4821 58.6111 12.4966 58.6845C12.5126 58.7602 12.5203 58.8374 12.5196 58.9148C12.5196 59.2203 12.3983 59.5133 12.1823 59.7293C11.9662 59.9454 11.6732 60.0667 11.3677 60.0667Z" fill="#FF5757"/>
<path d="M83.7056 60.0667C83.6282 60.0674 83.551 60.0597 83.4753 60.0437C83.4019 60.0292 83.3302 60.0076 83.261 59.9792C83.1914 59.9494 83.1244 59.914 83.0606 59.8732C82.9039 59.7673 82.7758 59.6245 82.6874 59.4574C82.599 59.2902 82.5531 59.1039 82.5537 58.9148C82.5531 58.8374 82.5608 58.7602 82.5768 58.6845C82.5913 58.6111 82.6129 58.5394 82.6413 58.4702C82.6711 58.4006 82.7065 58.3336 82.7473 58.2698C82.8307 58.1434 82.9388 58.0353 83.0652 57.9519C83.129 57.9111 83.196 57.8757 83.2656 57.8459C83.3348 57.8175 83.4065 57.7959 83.4799 57.7814C83.7034 57.7364 83.9353 57.7589 84.1461 57.8458C84.3569 57.9328 84.5371 58.0803 84.664 58.2698C84.7048 58.3336 84.7402 58.4006 84.77 58.4702C84.7984 58.5394 84.82 58.6111 84.8345 58.6845C84.8504 58.7602 84.8582 58.8374 84.8575 58.9148C84.8575 59.2203 84.7362 59.5133 84.5201 59.7293C84.3041 59.9454 84.0111 60.0667 83.7056 60.0667Z" fill="#FF5757"/>
<path d="M47.5367 33.1117C47.2312 33.1117 46.9382 32.9903 46.7221 32.7743C46.5061 32.5583 46.3848 32.2653 46.3848 31.9598V27.813C46.3848 27.5075 46.5061 27.2145 46.7221 26.9985C46.9382 26.7825 47.2312 26.6611 47.5367 26.6611C47.8422 26.6611 48.1351 26.7825 48.3512 26.9985C48.5672 27.2145 48.6885 27.5075 48.6885 27.813V31.9598C48.6885 32.2653 48.5672 32.5583 48.3512 32.7743C48.1351 32.9903 47.8422 33.1117 47.5367 33.1117Z" fill="#FF5757"/>
<path d="M47.5367 59.6049C47.2312 59.6049 46.9382 59.4835 46.7221 59.2675C46.5061 59.0515 46.3848 58.7585 46.3848 58.453V54.3062C46.3848 54.0007 46.5061 53.7077 46.7221 53.4917C46.9382 53.2757 47.2312 53.1543 47.5367 53.1543C47.8422 53.1543 48.1351 53.2757 48.3512 53.4917C48.5672 53.7077 48.6885 54.0007 48.6885 54.3062V58.453C48.6885 58.7585 48.5672 59.0515 48.3512 59.2675C48.1351 59.4835 47.8422 59.6049 47.5367 59.6049Z" fill="#FF5757"/>
<path d="M43.1587 59.6049C42.8532 59.6049 42.5602 59.4835 42.3442 59.2675C42.1282 59.0515 42.0068 58.7585 42.0068 58.453V54.3062C42.0068 54.0007 42.1282 53.7077 42.3442 53.4917C42.5602 53.2757 42.8532 53.1543 43.1587 53.1543C43.4642 53.1543 43.7572 53.2757 43.9732 53.4917C44.1893 53.7077 44.3106 54.0007 44.3106 54.3062V58.453C44.3106 58.7585 44.1893 59.0515 43.9732 59.2675C43.7572 59.4835 43.4642 59.6049 43.1587 59.6049Z" fill="#FF5757"/>
<path d="M38.7818 59.6049C38.4763 59.6049 38.1833 59.4835 37.9673 59.2675C37.7512 59.0515 37.6299 58.7585 37.6299 58.453V54.3062C37.6299 54.0007 37.7512 53.7077 37.9673 53.4917C38.1833 53.2757 38.4763 53.1543 38.7818 53.1543C39.0873 53.1543 39.3803 53.2757 39.5963 53.4917C39.8123 53.7077 39.9337 54.0007 39.9337 54.3062V58.453C39.9337 58.7585 39.8123 59.0515 39.5963 59.2675C39.3803 59.4835 39.0873 59.6049 38.7818 59.6049Z" fill="#FF5757"/>
<path d="M30.2583 59.6049C29.9528 59.6049 29.6598 59.4835 29.4438 59.2675C29.2278 59.0515 29.1064 58.7585 29.1064 58.453V54.3062C29.1064 54.0007 29.2278 53.7077 29.4438 53.4917C29.6598 53.2757 29.9528 53.1543 30.2583 53.1543C30.5638 53.1543 30.8568 53.2757 31.0728 53.4917C31.2889 53.7077 31.4102 54.0007 31.4102 54.3062V58.453C31.4102 58.7585 31.2889 59.0515 31.0728 59.2675C30.8568 59.4835 30.5638 59.6049 30.2583 59.6049Z" fill="#FF5757"/>
<path d="M26.1118 59.6049C25.8063 59.6049 25.5134 59.4835 25.2973 59.2675C25.0813 59.0515 24.96 58.7585 24.96 58.453V54.3062C24.96 54.0007 25.0813 53.7077 25.2973 53.4917C25.5134 53.2757 25.8063 53.1543 26.1118 53.1543C26.4173 53.1543 26.7103 53.2757 26.9264 53.4917C27.1424 53.7077 27.2637 54.0007 27.2637 54.3062V58.453C27.2637 58.7585 27.1424 59.0515 26.9264 59.2675C26.7103 59.4835 26.4173 59.6049 26.1118 59.6049Z" fill="#FF5757"/>
<path d="M21.9644 59.6049C21.6589 59.6049 21.3659 59.4835 21.1499 59.2675C20.9339 59.0515 20.8125 58.7585 20.8125 58.453V54.3062C20.8125 54.0007 20.9339 53.7077 21.1499 53.4917C21.3659 53.2757 21.6589 53.1543 21.9644 53.1543C22.2699 53.1543 22.5629 53.2757 22.7789 53.4917C22.9949 53.7077 23.1163 54.0007 23.1163 54.3062V58.453C23.1163 58.7585 22.9949 59.0515 22.7789 59.2675C22.5629 59.4835 22.2699 59.6049 21.9644 59.6049Z" fill="#FF5757"/>
<path d="M51.9136 59.6049C51.6081 59.6049 51.3151 59.4835 51.0991 59.2675C50.8831 59.0515 50.7617 58.7585 50.7617 58.453V54.3062C50.7617 54.0007 50.8831 53.7077 51.0991 53.4917C51.3151 53.2757 51.6081 53.1543 51.9136 53.1543C52.2191 53.1543 52.5121 53.2757 52.7281 53.4917C52.9441 53.7077 53.0655 54.0007 53.0655 54.3062V58.453C53.0655 58.7585 52.9441 59.0515 52.7281 59.2675C52.5121 59.4835 52.2191 59.6049 51.9136 59.6049Z" fill="#FF5757"/>
<path d="M56.2906 59.6049C55.9851 59.6049 55.6921 59.4835 55.4761 59.2675C55.26 59.0515 55.1387 58.7585 55.1387 58.453V54.3062C55.1387 54.0007 55.26 53.7077 55.4761 53.4917C55.6921 53.2757 55.9851 53.1543 56.2906 53.1543C56.5961 53.1543 56.889 53.2757 57.1051 53.4917C57.3211 53.7077 57.4424 54.0007 57.4424 54.3062V58.453C57.4424 58.7585 57.3211 59.0515 57.1051 59.2675C56.889 59.4835 56.5961 59.6049 56.2906 59.6049Z" fill="#FF5757"/>
<path d="M64.5845 59.6049C64.279 59.6049 63.986 59.4835 63.77 59.2675C63.554 59.0515 63.4326 58.7585 63.4326 58.453V54.3062C63.4326 54.0007 63.554 53.7077 63.77 53.4917C63.986 53.2757 64.279 53.1543 64.5845 53.1543C64.89 53.1543 65.183 53.2757 65.399 53.4917C65.615 53.7077 65.7364 54.0007 65.7364 54.3062V58.453C65.7364 58.7585 65.615 59.0515 65.399 59.2675C65.183 59.4835 64.89 59.6049 64.5845 59.6049Z" fill="#FF5757"/>
<path d="M68.731 59.6049C68.4255 59.6049 68.1325 59.4835 67.9165 59.2675C67.7005 59.0515 67.5791 58.7585 67.5791 58.453V54.3062C67.5791 54.0007 67.7005 53.7077 67.9165 53.4917C68.1325 53.2757 68.4255 53.1543 68.731 53.1543C69.0365 53.1543 69.3295 53.2757 69.5455 53.4917C69.7615 53.7077 69.8829 54.0007 69.8829 54.3062V58.453C69.8829 58.7585 69.7615 59.0515 69.5455 59.2675C69.3295 59.4835 69.0365 59.6049 68.731 59.6049Z" fill="#FF5757"/>
<path d="M72.8775 59.6049C72.572 59.6049 72.279 59.4835 72.063 59.2675C71.8469 59.0515 71.7256 58.7585 71.7256 58.453V54.3062C71.7256 54.0007 71.8469 53.7077 72.063 53.4917C72.279 53.2757 72.572 53.1543 72.8775 53.1543C73.183 53.1543 73.476 53.2757 73.692 53.4917C73.908 53.7077 74.0294 54.0007 74.0294 54.3062V58.453C74.0294 58.7585 73.908 59.0515 73.692 59.2675C73.476 59.4835 73.183 59.6049 72.8775 59.6049Z" fill="#FF5757"/>
<path d="M43.3892 33.1117C43.0837 33.1117 42.7907 32.9903 42.5747 32.7743C42.3587 32.5583 42.2373 32.2653 42.2373 31.9598V27.813C42.2373 27.5075 42.3587 27.2145 42.5747 26.9985C42.7907 26.7825 43.0837 26.6611 43.3892 26.6611C43.6947 26.6611 43.9877 26.7825 44.2037 26.9985C44.4197 27.2145 44.5411 27.5075 44.5411 27.813V31.9598C44.5411 32.2653 44.4197 32.5583 44.2037 32.7743C43.9877 32.9903 43.6947 33.1117 43.3892 33.1117Z" fill="#FF5757"/>
<path d="M51.6831 33.1117C51.3776 33.1117 51.0847 32.9903 50.8686 32.7743C50.6526 32.5583 50.5312 32.2653 50.5312 31.9598V27.813C50.5312 27.5075 50.6526 27.2145 50.8686 26.9985C51.0847 26.7825 51.3776 26.6611 51.6831 26.6611C51.9886 26.6611 52.2816 26.7825 52.4976 26.9985C52.7137 27.2145 52.835 27.5075 52.835 27.813V31.9598C52.835 32.2653 52.7137 32.5583 52.4976 32.7743C52.2816 32.9903 51.9886 33.1117 51.6831 33.1117Z" fill="#FF5757"/>
<path d="M69.9977 32.1895H67.6939C67.3884 32.1895 67.0954 32.0682 66.8794 31.8521C66.6634 31.6361 66.542 31.3431 66.542 31.0376C66.542 30.7321 66.6634 30.4391 66.8794 30.2231C67.0954 30.0071 67.3884 29.8857 67.6939 29.8857H69.9977C70.3032 29.8857 70.5961 30.0071 70.8122 30.2231C71.0282 30.4391 71.1495 30.7321 71.1495 31.0376C71.1495 31.3431 71.0282 31.6361 70.8122 31.8521C70.5961 32.0682 70.3032 32.1895 69.9977 32.1895Z" fill="#FF5757"/>
<path d="M76.7938 36.336H18.2779C17.9724 36.336 17.6794 36.2146 17.4634 35.9986C17.2473 35.7826 17.126 35.4896 17.126 35.1841C17.126 34.8786 17.2473 34.5856 17.4634 34.3696C17.6794 34.1536 17.9724 34.0322 18.2779 34.0322H76.7938C77.0993 34.0322 77.3923 34.1536 77.6083 34.3696C77.8243 34.5856 77.9457 34.8786 77.9457 35.1841C77.9457 35.4896 77.8243 35.7826 77.6083 35.9986C77.3923 36.2146 77.0993 36.336 76.7938 36.336Z" fill="#FF5757"/>
<path d="M57.2117 54.7669H38.0904C37.7849 54.7669 37.4919 54.6455 37.2759 54.4295C37.0598 54.2135 36.9385 53.9205 36.9385 53.615V51.4264C36.9385 48.5853 38.0671 45.8605 40.0761 43.8515C42.0851 41.8425 44.8099 40.7139 47.651 40.7139C50.4922 40.7139 53.217 41.8425 55.226 43.8515C57.235 45.8605 58.3636 48.5853 58.3636 51.4264V53.615C58.3636 53.9205 58.2422 54.2135 58.0262 54.4295C57.8102 54.6455 57.5172 54.7669 57.2117 54.7669ZM39.2423 52.4631H56.0598V51.4264C56.0598 49.1963 55.1739 47.0575 53.5969 45.4805C52.02 43.9036 49.8812 43.0176 47.651 43.0176C45.4209 43.0176 43.2821 43.9036 41.7051 45.4805C40.1282 47.0575 39.2423 49.1963 39.2423 51.4264V52.4631Z" fill="#FF5757"/>
<path d="M53.8588 87.2505H41.1719V76.0496C41.1727 74.7955 41.5451 73.5697 42.2422 72.5271C42.9392 71.4846 43.9297 70.672 45.0883 70.192C46.2469 69.7121 47.5218 69.5862 48.7519 69.8304C49.9821 70.0747 51.1122 70.6779 51.9996 71.5641C52.1033 71.6701 52.1977 71.7715 52.2853 71.8728C53.2992 73.0279 53.8577 74.5127 53.8565 76.0496L53.8588 87.2505ZM43.4757 84.9468H51.555V76.0496C51.5551 75.0693 51.198 74.1225 50.5505 73.3864C50.4906 73.315 50.4331 73.2551 50.3732 73.1952C49.8082 72.6305 49.0885 72.2459 48.305 72.09C47.5216 71.9341 46.7095 72.0139 45.9713 72.3194C45.2332 72.6248 44.6022 73.1422 44.158 73.8061C43.7138 74.4701 43.4763 75.2507 43.4757 76.0496V84.9468Z" fill="#FF5757"/>
<path d="M51.1769 74.1183L50.5457 73.388C50.4904 73.3235 50.4328 73.2636 50.3729 73.2037C49.9887 72.8195 49.531 72.5167 49.0271 72.3134C48.5232 72.1101 47.9835 72.0106 47.4402 72.0207C46.8969 72.0308 46.3613 72.1503 45.8653 72.3722C45.3693 72.5941 44.9232 72.9137 44.5535 73.312L43.9016 74.0031L43.0929 73.4894C41.524 72.496 40.3224 71.0174 39.6708 69.2785C39.0193 67.5396 38.9534 65.6354 39.4832 63.8556C40.013 62.0758 41.1096 60.5177 42.6061 59.4183C44.1026 58.3188 45.9172 57.7381 47.774 57.7645C49.6308 57.7909 51.4282 58.423 52.8929 59.5645C54.3576 60.7061 55.4094 62.2947 55.8884 64.0888C56.3674 65.883 56.2474 67.7845 55.5467 69.5042C54.8459 71.2239 53.6028 72.6677 52.0063 73.6161L51.1769 74.1183ZM47.5162 69.7158C48.9828 69.7118 50.4048 70.2203 51.5363 71.1534C52.3578 70.4966 52.9993 69.6423 53.4009 68.6703C53.8025 67.6982 53.9511 66.6403 53.8328 65.5952C53.7145 64.5502 53.3331 63.5522 52.7244 62.6945C52.1156 61.8369 51.2993 61.1476 50.3518 60.6912C49.4043 60.2347 48.3565 60.0259 47.3064 60.0844C46.2563 60.1428 45.2382 60.4666 44.3472 61.0254C43.4562 61.5842 42.7214 62.3598 42.2116 63.2797C41.7018 64.1996 41.4335 65.2338 41.4319 66.2855C41.4297 67.1896 41.6255 68.0831 42.0056 68.9034C42.3857 69.7237 42.9408 70.4508 43.632 71.0336C44.745 70.1751 46.1106 69.7086 47.5162 69.7066V69.7158Z" fill="#FF5757"/>
</svg>
