<svg width="16" height="16" viewBox="0 0 16 16" fill="none" xmlns="http://www.w3.org/2000/svg">
<path d="M8.0109 10.335C7.92394 10.335 7.84241 10.3215 7.76631 10.2945C7.69022 10.2676 7.61956 10.2213 7.55433 10.1556L5.20626 7.80754C5.07581 7.67709 5.0132 7.5249 5.01842 7.35097C5.02363 7.17704 5.08625 7.02485 5.20626 6.8944C5.33671 6.76395 5.49173 6.69612 5.67131 6.6909C5.85089 6.68568 6.00569 6.74808 6.13571 6.8781L7.35866 8.10105V3.43752C7.35866 3.25272 7.42127 3.09792 7.5465 2.97313C7.67174 2.84833 7.82653 2.78572 8.0109 2.78528C8.19527 2.78485 8.35028 2.84746 8.47595 2.97313C8.60161 3.09879 8.66401 3.25359 8.66314 3.43752V8.10105L9.8861 6.8781C10.0165 6.74765 10.1716 6.68503 10.3511 6.69025C10.5307 6.69547 10.6855 6.76352 10.8155 6.8944C10.9351 7.02485 10.9977 7.17704 11.0034 7.35097C11.009 7.5249 10.9464 7.67709 10.8155 7.80754L8.46747 10.1556C8.40225 10.2208 8.33159 10.2671 8.25549 10.2945C8.1794 10.3219 8.09787 10.3354 8.0109 10.335ZM4.09745 13.2211C3.73872 13.2211 3.43173 13.0935 3.17649 12.8383C2.92124 12.583 2.7934 12.2758 2.79297 11.9167V10.6122C2.79297 10.4274 2.85558 10.2726 2.98081 10.1478C3.10604 10.023 3.26084 9.96037 3.44521 9.95994C3.62958 9.9595 3.78459 10.0221 3.91026 10.1478C4.03592 10.2734 4.09832 10.4282 4.09745 10.6122V11.9167H11.9243V10.6122C11.9243 10.4274 11.987 10.2726 12.1122 10.1478C12.2374 10.023 12.3922 9.96037 12.5766 9.95994C12.761 9.9595 12.916 10.0221 13.0416 10.1478C13.1673 10.2734 13.2297 10.4282 13.2288 10.6122V11.9167C13.2288 12.2754 13.1012 12.5826 12.846 12.8383C12.5907 13.094 12.2835 13.2216 11.9243 13.2211H4.09745Z" fill="#5D6B98"/>
</svg>
