<svg width="14" height="15" viewBox="0 0 14 15" fill="none" xmlns="http://www.w3.org/2000/svg">
<path d="M12.25 10.125C12.25 10.3466 12.1275 10.5391 11.9408 10.6383L7.3325 13.2283C7.23917 13.2983 7.1225 13.3333 7 13.3333C6.8775 13.3333 6.76084 13.2983 6.6675 13.2283L2.05917 10.6383C1.96561 10.5892 1.88731 10.5154 1.83279 10.4249C1.77828 10.3344 1.74965 10.2306 1.75 10.125V4.87496C1.75 4.65329 1.8725 4.46079 2.05917 4.36163L6.6675 1.77163C6.76084 1.70163 6.8775 1.66663 7 1.66663C7.1225 1.66663 7.23917 1.70163 7.3325 1.77163L11.9408 4.36163C12.1275 4.46079 12.25 4.65329 12.25 4.87496V10.125ZM7 2.92079L3.52334 4.87496L7 6.82913L10.4767 4.87496L7 2.92079ZM2.91667 9.78079L6.41667 11.7525V7.83829L2.91667 5.87246V9.78079ZM11.0833 9.78079V5.87246L7.58334 7.83829V11.7525L11.0833 9.78079Z" fill="#FF5757"/>
</svg>
