<svg width="24" height="25" viewBox="0 0 24 25" fill="none" xmlns="http://www.w3.org/2000/svg">
<path d="M12 8.5C9.79 8.5 8 10.29 8 12.5C8 14.71 9.79 16.5 12 16.5C14.21 16.5 16 14.71 16 12.5C16 10.29 14.21 8.5 12 8.5ZM20.94 11.5C20.7135 9.47212 19.8042 7.58154 18.3613 6.13869C16.9185 4.69585 15.0279 3.78651 13 3.56V1.5H11V3.56C8.97212 3.78651 7.08154 4.69585 5.63869 6.13869C4.19585 7.58154 3.28651 9.47212 3.06 11.5H1V13.5H3.06C3.28651 15.5279 4.19585 17.4185 5.63869 18.8613C7.08154 20.3042 8.97212 21.2135 11 21.44V23.5H13V21.44C15.0279 21.2135 16.9185 20.3042 18.3613 18.8613C19.8042 17.4185 20.7135 15.5279 20.94 13.5H23V11.5H20.94ZM12 19.5C8.13 19.5 5 16.37 5 12.5C5 8.63 8.13 5.5 12 5.5C15.87 5.5 19 8.63 19 12.5C19 16.37 15.87 19.5 12 19.5Z" fill="#FF5757"/>
</svg>
