<svg width="96" height="96" viewBox="0 0 96 96" fill="none" xmlns="http://www.w3.org/2000/svg">
<path d="M29.1855 16H66.1729V21.5822H29.1855V16Z" stroke="#FF5757" stroke-width="2.5" stroke-miterlimit="10"/>
<path d="M31.7666 21.582H64.3784V36.5973H31.7666V21.582Z" stroke="#FF5757" stroke-width="2.5" stroke-miterlimit="10"/>
<path d="M31.7666 30.7432H64.3784" stroke="#FF5757" stroke-width="2.5" stroke-miterlimit="10"/>
<path d="M39.374 21.582V31.1725" stroke="#FF5757" stroke-width="2.5" stroke-miterlimit="10"/>
<path d="M56.2461 21.582V30.7423" stroke="#FF5757" stroke-width="2.5" stroke-miterlimit="10"/>
<path d="M12.5859 34.3418H31.7144V40.2493H12.5859V34.3418Z" stroke="#FF5757" stroke-width="2.5" stroke-miterlimit="10"/>
<path d="M37.38 80.5101H8V47.1953V40.249H37.38V80.5101Z" stroke="#FF5757" stroke-width="2.5" stroke-miterlimit="10"/>
<path d="M37.38 47.332H8" stroke="#FF5757" stroke-width="2.5" stroke-miterlimit="10"/>
<path d="M15.8701 51.0039V60.3845" stroke="#FF5757" stroke-width="2.5" stroke-miterlimit="10"/>
<path d="M22.6904 51.0039V60.3845" stroke="#FF5757" stroke-width="2.5" stroke-miterlimit="10"/>
<path d="M30.2979 51.0039V60.3845" stroke="#FF5757" stroke-width="2.5" stroke-miterlimit="10"/>
<path d="M13.2988 40.249V47.3317" stroke="#FF5757" stroke-width="2.5" stroke-miterlimit="10"/>
<path d="M19.7734 40.249V47.3317" stroke="#FF5757" stroke-width="2.5" stroke-miterlimit="10"/>
<path d="M26.2363 40.249V47.3317" stroke="#FF5757" stroke-width="2.5" stroke-miterlimit="10"/>
<path d="M32.7109 40.249V47.3317" stroke="#FF5757" stroke-width="2.5" stroke-miterlimit="10"/>
<path d="M64.4307 34.3418H85.238V40.2493H64.4307V34.3418Z" stroke="#FF5757" stroke-width="2.5" stroke-miterlimit="10"/>
<path d="M87.3263 80.5101H57.9463V47.1953V40.249H87.3263V80.5101Z" stroke="#FF5757" stroke-width="2.5" stroke-miterlimit="10"/>
<path d="M87.3263 47.332H57.9463" stroke="#FF5757" stroke-width="2.5" stroke-miterlimit="10"/>
<path d="M65.8164 51.0039V60.3845" stroke="#FF5757" stroke-width="2.5" stroke-miterlimit="10"/>
<path d="M72.6357 51.0039V60.3845" stroke="#FF5757" stroke-width="2.5" stroke-miterlimit="10"/>
<path d="M80.2432 51.0039V60.3845" stroke="#FF5757" stroke-width="2.5" stroke-miterlimit="10"/>
<path d="M63.2451 40.249V47.3317" stroke="#FF5757" stroke-width="2.5" stroke-miterlimit="10"/>
<path d="M69.7188 40.249V47.3317" stroke="#FF5757" stroke-width="2.5" stroke-miterlimit="10"/>
<path d="M76.1826 40.249V47.3317" stroke="#FF5757" stroke-width="2.5" stroke-miterlimit="10"/>
<path d="M82.6562 40.249V47.3317" stroke="#FF5757" stroke-width="2.5" stroke-miterlimit="10"/>
<path d="M37.3799 42.9355H57.9459" stroke="#FF5757" stroke-width="2.5" stroke-miterlimit="10"/>
<path d="M54.5987 80.5102V57.1636C54.5987 56.2597 54.4206 55.3646 54.0747 54.5295C53.7288 53.6943 53.2218 52.9355 52.5826 52.2963C51.9434 51.6572 51.1846 51.1502 50.3495 50.8042C49.5143 50.4583 48.6193 50.2803 47.7153 50.2803C46.8114 50.2803 45.9163 50.4583 45.0812 50.8042C44.2461 51.1502 43.4873 51.6572 42.8481 52.2963C42.2089 52.9355 41.7019 53.6943 41.356 54.5295C41.0101 55.3646 40.832 56.2597 40.832 57.1636V80.5102H54.5987Z" stroke="#FF5757" stroke-width="2.5" stroke-miterlimit="10"/>
<path d="M35.2812 80.5098H65.8155" stroke="#FF5757" stroke-width="2.5" stroke-miterlimit="10"/>
</svg>
