<svg width="49" height="49" viewBox="0 0 49 49" fill="none" xmlns="http://www.w3.org/2000/svg">
<g clip-path="url(#clip0_32881_70660)">
<path d="M48.2827 12.5619V33.6472H45.2706V12.5619H28.7036C27.825 12.5619 27.1191 12.6325 26.5857 12.7737C26.0522 12.9149 25.5973 13.1032 25.2208 13.3385C24.8442 13.5738 24.5226 13.817 24.2559 14.068C23.9892 14.319 23.699 14.5622 23.3852 14.7975C23.0714 15.0329 22.6792 15.2133 22.2086 15.3388C21.7379 15.4643 21.1418 15.5427 20.4201 15.5741H3.10008V36.6594H24.1853V39.6715H3.10008C2.67649 39.6715 2.28428 39.5931 1.92344 39.4362C1.56261 39.2793 1.24884 39.0675 0.982139 38.8008C0.715436 38.5341 0.495798 38.2125 0.323225 37.836C0.150652 37.4595 0.0722101 37.0673 0.0878986 36.6594V6.53758C0.0878986 6.11399 0.166341 5.72178 0.323225 5.36094C0.480109 5.00011 0.691903 4.68634 0.958606 4.41964C1.22531 4.15294 1.54692 3.9333 1.92344 3.76072C2.29997 3.58815 2.69218 3.50971 3.10008 3.5254H20.4201C21.0006 3.5254 21.5418 3.62737 22.0439 3.83132C22.5459 4.03527 23.0008 4.31766 23.4087 4.6785C23.8166 5.03933 24.201 5.43939 24.5618 5.87866C24.9227 6.31794 25.2286 6.78075 25.4796 7.26709C25.6836 7.62792 25.8797 7.94954 26.0679 8.23193C26.2562 8.51432 26.4758 8.74964 26.7269 8.93791C26.9779 9.12617 27.2524 9.27521 27.5505 9.38503C27.8486 9.49485 28.2329 9.54976 28.7036 9.54976H45.2706C45.6942 9.54976 46.0864 9.6282 46.4472 9.78508C46.808 9.94197 47.1218 10.1538 47.3885 10.4205C47.6552 10.6872 47.8749 11.0088 48.0474 11.3853C48.22 11.7618 48.2984 12.154 48.2827 12.5619ZM20.4201 12.5619C20.8437 12.5619 21.1967 12.4913 21.4791 12.3501C21.7615 12.2089 22.036 12.0364 22.3027 11.8324C22.5694 11.6285 22.8361 11.4088 23.1028 11.1735C23.3695 10.9382 23.6754 10.7185 24.0206 10.5146C23.7853 10.2479 23.5421 9.8949 23.2911 9.45562C23.0401 9.01635 22.7577 8.57707 22.4439 8.1378C22.1301 7.69852 21.8164 7.322 21.5026 7.00823C21.1888 6.69446 20.828 6.53758 20.4201 6.53758H3.10008V12.5619H20.4201ZM48.2827 42.6837C48.2827 43.5152 48.1259 44.2918 47.8121 45.0134C47.4983 45.7351 47.0669 46.3783 46.5178 46.9431C45.9687 47.5079 45.3333 47.9393 44.6117 48.2374C43.89 48.5355 43.1056 48.6924 42.2584 48.7081V45.6959C42.682 45.6959 43.0742 45.6175 43.435 45.4606C43.7959 45.3037 44.1096 45.0919 44.3763 44.8252C44.643 44.5585 44.8627 44.2369 45.0352 43.8603C45.2078 43.4838 45.2863 43.0916 45.2706 42.6837C45.2706 42.2601 45.1921 41.8679 45.0352 41.5071C44.8784 41.1463 44.6666 40.8325 44.3999 40.5658C44.1332 40.2991 43.8116 40.0794 43.435 39.9069C43.0585 39.7343 42.6663 39.6558 42.2584 39.6715H35.3633L39.1756 43.5074L37.0577 45.6253L29.5978 38.1654L37.0577 30.7056L39.1756 32.8235L35.3633 36.6594H42.2584C43.0899 36.6594 43.8665 36.8162 44.5881 37.13C45.3098 37.4438 45.953 37.8752 46.5178 38.4243C47.0826 38.9734 47.514 39.6088 47.8121 40.3305C48.1102 41.0521 48.2671 41.8365 48.2827 42.6837Z" fill="#FF5757"/>
</g>
<defs>
<clipPath id="clip0_32881_70660">
<rect width="48.1949" height="48.1949" fill="white" transform="translate(0.0859375 0.513672)"/>
</clipPath>
</defs>
</svg>
