<svg width="14" height="14" viewBox="0 0 14 14" fill="none" xmlns="http://www.w3.org/2000/svg">
<path fill-rule="evenodd" clip-rule="evenodd" d="M9.06606 2.1481C7.77925 1.60013 6.32747 1.58579 5.03008 2.10822C4.64585 2.26295 4.20894 2.07689 4.05422 1.69266C3.8995 1.30843 4.08555 0.871523 4.46978 0.716799C6.13619 0.0457606 8.00092 0.0641855 9.65374 0.768021C11.3066 1.47186 12.6121 2.80345 13.2831 4.46986C13.9542 6.13627 13.9358 8.001 13.2319 9.65382C12.7975 10.6741 12.1238 11.562 11.2799 12.25H12.9999C13.4141 12.25 13.7499 12.5858 13.7499 13C13.7499 13.4142 13.4141 13.75 12.9999 13.75H9.24993C8.83572 13.75 8.49993 13.4142 8.49993 13V12.605C8.49966 12.5935 8.49967 12.582 8.49993 12.5705V9.25001C8.49993 8.8358 8.83572 8.50001 9.24993 8.50001C9.66414 8.50001 9.99993 8.8358 9.99993 9.25001V11.3371C10.8129 10.7747 11.4584 9.99011 11.8518 9.06614C12.3998 7.77933 12.4142 6.32755 11.8917 5.03016C11.3693 3.73278 10.3529 2.69607 9.06606 2.1481Z" fill="#FF5757"/>
<path fill-rule="evenodd" clip-rule="evenodd" d="M2.22244 2.62C2.63665 2.62 2.97244 2.95579 2.97244 3.37V3.3775C2.97244 3.79171 2.63665 4.1275 2.22244 4.1275C1.80822 4.1275 1.47244 3.79171 1.47244 3.3775V3.37C1.47244 2.95579 1.80822 2.62 2.22244 2.62Z" fill="#FF5757"/>
<path fill-rule="evenodd" clip-rule="evenodd" d="M1.04492 5.49999C1.45914 5.49999 1.79492 5.83577 1.79492 6.24999V6.25749C1.79492 6.6717 1.45914 7.00749 1.04492 7.00749C0.630708 7.00749 0.294922 6.6717 0.294922 6.25749V6.24999C0.294922 5.83577 0.630708 5.49999 1.04492 5.49999Z" fill="#FF5757"/>
<path fill-rule="evenodd" clip-rule="evenodd" d="M1.47245 8.57501C1.88666 8.57501 2.22245 8.9108 2.22245 9.32501V9.33251C2.22245 9.74672 1.88666 10.0825 1.47245 10.0825C1.05824 10.0825 0.722449 9.74672 0.722449 9.33251V9.32501C0.722449 8.9108 1.05824 8.57501 1.47245 8.57501Z" fill="#FF5757"/>
<path fill-rule="evenodd" clip-rule="evenodd" d="M3.36992 11.0276C3.78413 11.0276 4.11992 11.3633 4.11992 11.7776V11.7851C4.11992 12.1993 3.78413 12.5351 3.36992 12.5351C2.9557 12.5351 2.61992 12.1993 2.61992 11.7851V11.7776C2.61992 11.3633 2.9557 11.0276 3.36992 11.0276Z" fill="#FF5757"/>
<path fill-rule="evenodd" clip-rule="evenodd" d="M6.24994 12.205C6.66416 12.205 6.99995 12.5408 6.99995 12.955V12.9625C6.99995 13.3767 6.66416 13.7125 6.24994 13.7125C5.83573 13.7125 5.49994 13.3767 5.49994 12.9625V12.955C5.49994 12.5408 5.83573 12.205 6.24994 12.205Z" fill="#FF5757"/>
</svg>
