<svg width="46" height="46" viewBox="0 0 46 46" fill="none" xmlns="http://www.w3.org/2000/svg">
<g clip-path="url(#clip0_5664_20207)">
<path fill-rule="evenodd" clip-rule="evenodd" d="M24.7316 30.659C26.6374 29.557 28.3022 28.0832 29.6273 26.3251C29.2002 25.6609 28.8964 24.9252 28.7303 24.1533L28.6678 23.8641C28.4889 23.0386 28.0673 22.2854 27.4573 21.7011C26.8473 21.1169 26.0766 20.7282 25.2441 20.585C18.4361 19.4021 18.4361 9.6304 25.2441 8.44425C26.0482 8.30585 26.7952 7.93833 27.3955 7.38581C27.9958 6.83328 28.4239 6.11924 28.6284 5.3294C27.0275 3.5849 25.0684 2.20706 22.8854 1.29026C20.7024 0.373464 18.347 -0.0606269 15.9805 0.0177267C13.6141 0.0960802 11.2926 0.685026 9.17494 1.74422C7.05733 2.80341 5.19369 4.30783 3.71169 6.1544C2.22969 8.00097 1.16435 10.1461 0.588641 12.4427C0.0129345 14.7394 -0.0595304 17.1334 0.37621 19.4607C0.811951 21.788 1.7456 23.9936 3.1132 25.9264C4.4808 27.8593 6.25003 29.4736 8.2997 30.659V34.5C8.2997 35.3714 8.64587 36.2071 9.26206 36.8233C9.87826 37.4395 10.714 37.7857 11.5854 37.7857H21.4426C22.314 37.7857 23.1497 37.4395 23.7659 36.8233C24.3821 36.2071 24.7283 35.3714 24.7283 34.5L24.7316 30.659ZM8.30299 43.5357C8.30299 42.8821 8.56262 42.2553 9.02476 41.7932C9.4869 41.331 10.1137 41.0714 10.7673 41.0714H22.2673C22.9208 41.0714 23.5476 41.331 24.0098 41.7932C24.4719 42.2553 24.7316 42.8821 24.7316 43.5357C24.7316 44.1893 24.4719 44.8161 24.0098 45.2782C23.5476 45.7403 22.9208 46 22.2673 46H10.7673C10.1137 46 9.4869 45.7403 9.02476 45.2782C8.56262 44.8161 8.30299 44.1893 8.30299 43.5357ZM32.223 5.64154C32.8243 2.89468 36.7343 2.87826 37.3586 5.61854L37.3881 5.74997L37.4473 6.00625C37.8019 7.50712 38.5889 8.87106 39.7107 9.92927C40.8326 10.9875 42.2401 11.6935 43.7591 11.96C46.6243 12.4594 46.6243 16.5731 43.7591 17.0725C42.2313 17.3402 40.8164 18.0525 39.6914 19.1202C38.5663 20.188 37.7812 21.5638 37.4341 23.0755L37.3586 23.4107C36.7343 26.1543 32.821 26.1378 32.2164 23.3877L32.154 23.1018C31.8227 21.5843 31.0471 20.1997 29.9259 19.1248C28.8046 18.0498 27.3887 17.3331 25.8586 17.066C22.9967 16.5698 22.9967 12.4627 25.8586 11.9633C27.3833 11.6981 28.7952 10.9864 29.9153 9.91841C31.0353 8.85038 31.8133 7.474 32.1507 5.96354L32.2 5.74997L32.223 5.64154Z" fill="#FF5757"/>
</g>
<defs>
<clipPath id="clip0_5664_20207">
<rect width="46" height="46" fill="white"/>
</clipPath>
</defs>
</svg>
