<svg width="46" height="46" viewBox="0 0 46 46" fill="none" xmlns="http://www.w3.org/2000/svg">
<path d="M42.1667 7.55166L23 0.843323L3.83333 7.55166V23C3.83333 30.9101 8.69017 36.4397 13.2173 39.8724C15.9507 41.9241 18.9486 43.5971 22.1298 44.8462C22.3471 44.9279 22.5656 45.0059 22.7853 45.08L23 45.1567L23.2185 45.08C23.6376 44.9344 24.053 44.7785 24.4643 44.6123C27.427 43.3917 30.2222 41.7989 32.7827 39.8724C37.3118 36.4397 42.1667 30.9101 42.1667 23V7.55166ZM21.0853 29.5454L12.9567 21.413L15.6668 18.7009L21.0872 24.1232L31.9298 13.2806L34.6418 15.9907L21.0853 29.5454Z" fill="#FF5757"/>
</svg>
