<svg width="44" height="44" viewBox="0 0 44 44" fill="none" xmlns="http://www.w3.org/2000/svg">
<circle cx="21.9931" cy="21.9931" r="21.9931" fill="#3C3C3C" fill-opacity="0.1"/>
<path d="M21.5088 22.9165C23.0276 22.9165 24.2588 21.6853 24.2588 20.1665C24.2588 18.6477 23.0276 17.4165 21.5088 17.4165C19.99 17.4165 18.7588 18.6477 18.7588 20.1665C18.7588 21.6853 19.99 22.9165 21.5088 22.9165Z" stroke="#3C3C3C" stroke-width="1.83333" stroke-linecap="round" stroke-linejoin="round"/>
<path d="M21.5091 12.8333C19.5642 12.8333 17.6989 13.6059 16.3237 14.9811C14.9484 16.3564 14.1758 18.2217 14.1758 20.1666C14.1758 21.9009 14.5443 23.0358 15.5508 24.2916L21.5091 31.1666L27.4674 24.2916C28.4739 23.0358 28.8424 21.9009 28.8424 20.1666C28.8424 18.2217 28.0698 16.3564 26.6946 14.9811C25.3193 13.6059 23.454 12.8333 21.5091 12.8333Z" stroke="#3C3C3C" stroke-width="1.83333" stroke-linecap="round" stroke-linejoin="round"/>
</svg>
