<svg width="44" height="44" viewBox="0 0 44 44" fill="none" xmlns="http://www.w3.org/2000/svg">
<circle cx="21.9931" cy="21.9931" r="21.9931" fill="#FF5757" fill-opacity="0.1"/>
<path fill-rule="evenodd" clip-rule="evenodd" d="M28.3838 14.4375H14.6338C14.4515 14.4375 14.2766 14.5099 14.1477 14.6389C14.0187 14.7678 13.9463 14.9427 13.9463 15.125V28.875C13.9463 29.0573 14.0187 29.2322 14.1477 29.3611C14.2766 29.4901 14.4515 29.5625 14.6338 29.5625H28.3838C28.5661 29.5625 28.741 29.4901 28.8699 29.3611C28.9989 29.2322 29.0713 29.0573 29.0713 28.875V15.125C29.0713 14.9427 28.9989 14.7678 28.8699 14.6389C28.741 14.5099 28.5661 14.4375 28.3838 14.4375ZM14.6338 12.375C13.9044 12.375 13.205 12.6647 12.6892 13.1805C12.1735 13.6962 11.8838 14.3957 11.8838 15.125V28.875C11.8838 29.6043 12.1735 30.3038 12.6892 30.8195C13.205 31.3353 13.9044 31.625 14.6338 31.625H28.3838C29.1131 31.625 29.8126 31.3353 30.3283 30.8195C30.8441 30.3038 31.1338 29.6043 31.1338 28.875V15.125C31.1338 14.3957 30.8441 13.6962 30.3283 13.1805C29.8126 12.6647 29.1131 12.375 28.3838 12.375H14.6338ZM27.0088 25.9284L23.5713 22L20.1668 25.8912L18.0713 23.375L16.0088 25.85V27.5H27.0088V25.9284ZM19.4463 22C19.9933 22 20.5179 21.7827 20.9047 21.3959C21.2915 21.0091 21.5088 20.4845 21.5088 19.9375C21.5088 19.3905 21.2915 18.8659 20.9047 18.4791C20.5179 18.0923 19.9933 17.875 19.4463 17.875C18.8993 17.875 18.3747 18.0923 17.9879 18.4791C17.6011 18.8659 17.3838 19.3905 17.3838 19.9375C17.3838 20.4845 17.6011 21.0091 17.9879 21.3959C18.3747 21.7827 18.8993 22 19.4463 22Z" fill="#FF5757"/>
</svg>
