<svg width="44" height="44" viewBox="0 0 44 44" fill="none" xmlns="http://www.w3.org/2000/svg">
<circle cx="21.9931" cy="21.9931" r="21.9931" fill="#6750A3" fill-opacity="0.1"/>
<path fill-rule="evenodd" clip-rule="evenodd" d="M28.8418 13.75C29.3043 13.7499 29.7498 13.9245 30.089 14.239C30.4281 14.5535 30.6359 14.9846 30.6705 15.4458L30.6751 15.5833V28.4167C30.6753 28.8792 30.5006 29.3247 30.1861 29.6638C29.8716 30.003 29.4405 30.2107 28.9793 30.2454L28.8418 30.25H14.1751C13.7126 30.2501 13.2671 30.0755 12.928 29.761C12.5888 29.4465 12.3811 29.0154 12.3464 28.5542L12.3418 28.4167V15.5833C12.3417 15.1208 12.5163 14.6753 12.8308 14.3362C13.1453 13.997 13.5764 13.7893 14.0376 13.7546L14.1751 13.75H28.8418ZM28.8418 15.5833H14.1751V28.4167H28.8418V15.5833ZM19.9868 18.0015L20.4616 18.2123L20.7715 18.359L21.1262 18.5332L21.5204 18.733L21.9512 18.9622L22.416 19.2188L22.6598 19.3582L23.1346 19.6378L23.5691 19.9054L23.9633 20.1557L24.3116 20.3876L24.7516 20.6901L25.0853 20.9312L25.1724 20.9953C25.3138 21.1006 25.4287 21.2375 25.5079 21.395C25.5871 21.5526 25.6283 21.7265 25.6283 21.9028C25.6283 22.0792 25.5871 22.2531 25.5079 22.4106C25.4287 22.5682 25.3138 22.7051 25.1724 22.8103L24.8763 23.0258L24.473 23.3081L24.1466 23.5272L23.7754 23.7683L23.3601 24.0277L22.9027 24.3027L22.4132 24.5859L21.9466 24.8444L21.5149 25.0736L21.1207 25.2753L20.7669 25.4476L20.1967 25.7116L19.9859 25.8033C19.824 25.873 19.6481 25.904 19.4721 25.8937C19.2962 25.8834 19.1251 25.8321 18.9725 25.7439C18.8198 25.6558 18.6899 25.5332 18.5931 25.3859C18.4963 25.2387 18.4352 25.0708 18.4147 24.8958L18.3615 24.3778L18.3322 24.035L18.2937 23.4263L18.2726 22.9607L18.2589 22.4519L18.2552 22.1824L18.2534 21.9028C18.2534 21.7134 18.2552 21.5301 18.2589 21.3528L18.2726 20.8441L18.2937 20.3793L18.3185 19.9604L18.346 19.5928L18.4147 18.9108C18.4351 18.7356 18.4961 18.5675 18.5929 18.42C18.6897 18.2725 18.8197 18.1497 18.9724 18.0614C19.1251 17.9731 19.2964 17.9216 19.4725 17.9112C19.6486 17.9008 19.8247 17.9318 19.9868 18.0015ZM20.5469 20.2941L20.1472 20.0942L20.1206 20.5407L20.1005 21.0457L20.0885 21.6049L20.0867 21.9028L20.0885 22.2008L20.1005 22.759L20.1096 23.0184L20.1335 23.4951L20.1472 23.7105L20.545 23.5107L20.9915 23.276L21.4819 23.0065L21.7422 22.858L22.2473 22.5592L22.7001 22.2787L23.0998 22.022L23.2795 21.9028L22.9064 21.6553L22.4792 21.3858C22.2362 21.2353 21.9908 21.0887 21.7431 20.9458L21.4837 20.7983L20.9942 20.5288L20.5469 20.2941Z" fill="#6750A3"/>
</svg>
