<svg width="44" height="44" viewBox="0 0 44 44" fill="none" xmlns="http://www.w3.org/2000/svg">
<circle cx="21.9931" cy="21.9931" r="21.9931" fill="#00ACA5" fill-opacity="0.1"/>
<path d="M28.7535 18.8704C28.71 18.771 28.6492 18.68 28.5739 18.6018L23.0739 13.1018C22.9957 13.0265 22.9047 12.9657 22.8053 12.9222C22.7778 12.9093 22.7484 12.902 22.7191 12.8919C22.6424 12.8659 22.5626 12.8502 22.4817 12.8452C22.4624 12.8433 22.445 12.8333 22.4258 12.8333H16.0091C14.998 12.8333 14.1758 13.6555 14.1758 14.6666V29.3333C14.1758 30.3443 14.998 31.1666 16.0091 31.1666H27.0091C28.0202 31.1666 28.8424 30.3443 28.8424 29.3333V19.2499C28.8424 19.2307 28.8324 19.2133 28.8305 19.1931C28.8255 19.1122 28.8098 19.0324 28.7838 18.9557C28.7752 18.9263 28.7651 18.8979 28.7535 18.8704ZM25.7129 18.3333H23.3424V15.9628L25.7129 18.3333ZM16.0091 29.3333V14.6666H21.5091V19.2499C21.5091 19.493 21.6057 19.7262 21.7776 19.8981C21.9495 20.07 22.1827 20.1666 22.4258 20.1666H27.0091L27.0109 29.3333H16.0091Z" fill="#00ACA5"/>
<path d="M17.8418 21.9999H25.1751V23.8333H17.8418V21.9999ZM17.8418 25.6666H25.1751V27.4999H17.8418V25.6666ZM17.8418 18.3333H19.6751V20.1666H17.8418V18.3333Z" fill="#00ACA5"/>
</svg>
