<svg width="17" height="17" viewBox="0 0 17 17" fill="none" xmlns="http://www.w3.org/2000/svg">
<path fill-rule="evenodd" clip-rule="evenodd" d="M2.91785 5.16673C2.91785 4.79854 3.21632 4.50007 3.58451 4.50007H14.2512C14.6194 4.50007 14.9178 4.79854 14.9178 5.16673C14.9178 5.53492 14.6194 5.8334 14.2512 5.8334H3.58451C3.21632 5.8334 2.91785 5.53492 2.91785 5.16673Z" fill="#FF5757"/>
<path fill-rule="evenodd" clip-rule="evenodd" d="M7.58451 7.16668C7.9527 7.16668 8.25118 7.46516 8.25118 7.83335V11.8333C8.25118 12.2015 7.9527 12.5 7.58451 12.5C7.21632 12.5 6.91785 12.2015 6.91785 11.8333V7.83335C6.91785 7.46516 7.21632 7.16668 7.58451 7.16668Z" fill="#FF5757"/>
<path fill-rule="evenodd" clip-rule="evenodd" d="M10.2512 7.16668C10.6194 7.16668 10.9179 7.46516 10.9179 7.83335V11.8333C10.9179 12.2015 10.6194 12.5 10.2512 12.5C9.88301 12.5 9.58454 12.2015 9.58454 11.8333V7.83335C9.58454 7.46516 9.88301 7.16668 10.2512 7.16668Z" fill="#FF5757"/>
<path fill-rule="evenodd" clip-rule="evenodd" d="M4.19584 4.50237C4.56276 4.47179 4.88499 4.74445 4.91557 5.11137L5.58223 13.1114C5.58377 13.1298 5.58454 13.1483 5.58454 13.1667C5.58454 13.3435 5.65478 13.5131 5.7798 13.6381C5.90482 13.7632 6.07439 13.8334 6.2512 13.8334H11.5845C11.7613 13.8334 11.9309 13.7632 12.0559 13.6381C12.181 13.5131 12.2512 13.3435 12.2512 13.1667C12.2512 13.1483 12.252 13.1298 12.2535 13.1114L12.9202 5.11137C12.9508 4.74445 13.273 4.47179 13.6399 4.50237C14.0068 4.53294 14.2795 4.85518 14.2489 5.2221L13.5843 13.1973C13.5764 13.7166 13.3666 14.2131 12.9988 14.5809C12.6237 14.956 12.115 15.1667 11.5845 15.1667H6.2512C5.72077 15.1667 5.21206 14.956 4.83699 14.5809C4.46912 14.2131 4.25935 13.7166 4.25144 13.1973L3.58684 5.2221C3.55626 4.85518 3.82892 4.53294 4.19584 4.50237Z" fill="#FF5757"/>
<path fill-rule="evenodd" clip-rule="evenodd" d="M6.64172 2.2239C6.89177 1.97385 7.2309 1.83337 7.58453 1.83337H10.2512C10.6048 1.83337 10.944 1.97385 11.194 2.2239C11.4441 2.47395 11.5845 2.81309 11.5845 3.16671V5.16671C11.5845 5.5349 11.286 5.83337 10.9179 5.83337C10.5497 5.83337 10.2512 5.5349 10.2512 5.16671V3.16671H7.58453L7.58453 5.16671C7.58453 5.5349 7.28605 5.83337 6.91786 5.83337C6.54967 5.83337 6.25119 5.5349 6.25119 5.16671V3.16671C6.25119 2.81309 6.39167 2.47395 6.64172 2.2239Z" fill="#FF5757"/>
</svg>
