<svg width="55" height="55" viewBox="0 0 55 55" fill="none" xmlns="http://www.w3.org/2000/svg">
<path d="M40.1088 27.5756L30.3898 21.9427L35.2894 10.1842C35.4604 9.83494 35.54 9.44804 35.5207 9.05967C35.5014 8.67131 35.384 8.29417 35.1793 7.96356C34.9746 7.63295 34.6894 7.35967 34.3503 7.1693C34.0113 6.97892 33.6295 6.87767 33.2406 6.87502C32.7238 6.87307 32.2215 7.0459 31.8152 7.36543L31.6548 7.50293L14.4673 23.7738C14.2089 24.0191 14.0112 24.3213 13.8898 24.6563C13.7683 24.9913 13.7265 25.3499 13.7677 25.7039C13.8088 26.0578 13.9317 26.3973 14.1268 26.6955C14.3218 26.9938 14.5835 27.2425 14.8913 27.4221L24.6125 33.0596L19.6556 44.9533C19.4512 45.4385 19.4202 45.9793 19.5679 46.4846C19.7155 46.9899 20.0329 47.4289 20.4664 47.7276C20.8999 48.0264 21.4231 48.1665 21.9479 48.1245C22.4727 48.0825 22.967 47.8609 23.3475 47.4971L40.535 31.2217C40.7928 30.9761 40.99 30.674 41.111 30.3391C41.232 30.0043 41.2735 29.6459 41.2321 29.2922C41.1908 28.9386 41.0678 28.5994 40.8728 28.3015C40.6778 28.0036 40.4163 27.7551 40.1088 27.5756Z" fill="#FF5757"/>
</svg>
