<svg width="48" height="49" viewBox="0 0 48 49" fill="none" xmlns="http://www.w3.org/2000/svg">
<path d="M12.0476 40.1846C10.956 40.1846 10.0218 39.7962 9.24514 39.0195C8.46845 38.2429 8.07945 37.308 8.07812 36.2151V32.2457C8.07812 31.6833 8.26866 31.2123 8.64973 30.8326C9.03079 30.4528 9.50183 30.2623 10.0628 30.261C10.6239 30.2596 11.0956 30.4502 11.478 30.8326C11.8603 31.2149 12.0502 31.686 12.0476 32.2457V36.2151H35.8643V32.2457C35.8643 31.6833 36.0548 31.2123 36.4359 30.8326C36.8169 30.4528 37.288 30.2623 37.849 30.261C38.41 30.2596 38.8817 30.4502 39.2641 30.8326C39.6465 31.2149 39.8364 31.686 39.8337 32.2457V36.2151C39.8337 37.3067 39.4454 38.2415 38.6687 39.0195C37.892 39.7976 36.9572 40.1859 35.8643 40.1846H12.0476ZM21.9712 16.0702L18.2498 19.7915C17.8529 20.1885 17.3819 20.379 16.8367 20.3631C16.2916 20.3473 15.8199 20.1402 15.4216 19.7419C15.0577 19.345 14.8672 18.8819 14.85 18.3526C14.8328 17.8233 15.0233 17.3602 15.4216 16.9633L22.5666 9.81829C22.7651 9.61982 22.9801 9.47956 23.2116 9.39753C23.4432 9.31549 23.6913 9.27381 23.9559 9.27249C24.2206 9.27117 24.4686 9.31285 24.7002 9.39753C24.9317 9.48221 25.1468 9.62246 25.3452 9.81829L32.4902 16.9633C32.8872 17.3602 33.0777 17.8233 33.0618 18.3526C33.046 18.8819 32.8554 19.345 32.4902 19.7419C32.0933 20.1389 31.6222 20.3459 31.0771 20.3631C30.532 20.3803 30.0603 20.1898 29.662 19.7915L25.9406 16.0702V30.261C25.9406 30.8233 25.7501 31.295 25.369 31.6761C24.988 32.0571 24.5169 32.247 23.9559 32.2457C23.3949 32.2444 22.9239 32.0538 22.5428 31.6741C22.1617 31.2943 21.9712 30.8233 21.9712 30.261V16.0702Z" fill="#FF5757"/>
</svg>
